<?xml version="1.0" encoding="UTF-8" standalone="no"?>
<!DOCTYPE svg PUBLIC "-//W3C//DTD SVG 1.1//EN"
 "http://www.w3.org/Graphics/SVG/1.1/DTD/svg11.dtd">
<!-- Generated by graphviz version 2.43.0 (0)
 -->
<!-- Title: src/application/user_interface/pannel/abstract_pannel.cpp Pages: 1 -->
<svg width="575pt" height="252pt"
 viewBox="0.00 0.00 575.00 252.00" xmlns="http://www.w3.org/2000/svg" xmlns:xlink="http://www.w3.org/1999/xlink">
<g id="graph0" class="graph" transform="scale(1 1) rotate(0) translate(4 248)">
<title>src/application/user_interface/pannel/abstract_pannel.cpp</title>
<polygon fill="white" stroke="transparent" points="-4,4 -4,-248 571,-248 571,4 -4,4"/>
<!-- Node1 -->
<g id="node1" class="node">
<title>Node1</title>
<g id="a_node1"><a xlink:title=" ">
<polygon fill="#bfbfbf" stroke="black" points="99.5,-224.5 99.5,-243.5 397.5,-243.5 397.5,-224.5 99.5,-224.5"/>
<text text-anchor="middle" x="248.5" y="-231.5" font-family="Helvetica,sans-Serif" font-size="10.00">src/application/user_interface/pannel/abstract_pannel.cpp</text>
</a>
</g>
</g>
<!-- Node2 -->
<g id="node2" class="node">
<title>Node2</title>
<g id="a_node2"><a xlink:href="abstract__pannel_8h.html" target="_top" xlink:title=" ">
<polygon fill="white" stroke="black" points="0,-168.5 0,-187.5 287,-187.5 287,-168.5 0,-168.5"/>
<text text-anchor="middle" x="143.5" y="-175.5" font-family="Helvetica,sans-Serif" font-size="10.00">src/application/user_interface/pannel/abstract_pannel.h</text>
</a>
</g>
</g>
<!-- Node1&#45;&gt;Node2 -->
<g id="edge1" class="edge">
<title>Node1&#45;&gt;Node2</title>
<path fill="none" stroke="midnightblue" d="M231.63,-224.32C214.79,-215.66 188.69,-202.24 169.26,-192.25"/>
<polygon fill="midnightblue" stroke="midnightblue" points="170.82,-189.12 160.33,-187.65 167.62,-195.34 170.82,-189.12"/>
</g>
<!-- Node12 -->
<g id="node12" class="node">
<title>Node12</title>
<g id="a_node12"><a xlink:title=" ">
<polygon fill="white" stroke="#bfbfbf" points="305.5,-168.5 305.5,-187.5 403.5,-187.5 403.5,-168.5 305.5,-168.5"/>
<text text-anchor="middle" x="354.5" y="-175.5" font-family="Helvetica,sans-Serif" font-size="10.00">bindings/imgui.h</text>
</a>
</g>
</g>
<!-- Node1&#45;&gt;Node12 -->
<g id="edge15" class="edge">
<title>Node1&#45;&gt;Node12</title>
<path fill="none" stroke="midnightblue" d="M265.53,-224.32C282.53,-215.66 308.88,-202.24 328.49,-192.25"/>
<polygon fill="midnightblue" stroke="midnightblue" points="330.19,-195.31 337.51,-187.65 327.01,-189.08 330.19,-195.31"/>
</g>
<!-- Node3 -->
<g id="node3" class="node">
<title>Node3</title>
<g id="a_node3"><a xlink:title=" ">
<polygon fill="white" stroke="#bfbfbf" points="24,-112.5 24,-131.5 77,-131.5 77,-112.5 24,-112.5"/>
<text text-anchor="middle" x="50.5" y="-119.5" font-family="Helvetica,sans-Serif" font-size="10.00">imgui.h</text>
</a>
</g>
</g>
<!-- Node2&#45;&gt;Node3 -->
<g id="edge2" class="edge">
<title>Node2&#45;&gt;Node3</title>
<path fill="none" stroke="midnightblue" d="M128.56,-168.32C113.91,-159.82 91.37,-146.73 74.26,-136.8"/>
<polygon fill="midnightblue" stroke="midnightblue" points="75.81,-133.65 65.4,-131.65 72.3,-139.7 75.81,-133.65"/>
</g>
<!-- Node4 -->
<g id="node4" class="node">
<title>Node4</title>
<g id="a_node4"><a xlink:title=" ">
<polygon fill="white" stroke="#bfbfbf" points="54.5,-56.5 54.5,-75.5 112.5,-75.5 112.5,-56.5 54.5,-56.5"/>
<text text-anchor="middle" x="83.5" y="-63.5" font-family="Helvetica,sans-Serif" font-size="10.00">memory</text>
</a>
</g>
</g>
<!-- Node2&#45;&gt;Node4 -->
<g id="edge3" class="edge">
<title>Node2&#45;&gt;Node4</title>
<path fill="none" stroke="midnightblue" d="M138.79,-168.37C128.98,-150.38 106.16,-108.55 93.11,-84.63"/>
<polygon fill="midnightblue" stroke="midnightblue" points="96.05,-82.69 88.19,-75.59 89.9,-86.05 96.05,-82.69"/>
</g>
<!-- Node5 -->
<g id="node5" class="node">
<title>Node5</title>
<g id="a_node5"><a xlink:title=" ">
<polygon fill="white" stroke="#bfbfbf" points="130.5,-56.5 130.5,-75.5 174.5,-75.5 174.5,-56.5 130.5,-56.5"/>
<text text-anchor="middle" x="152.5" y="-63.5" font-family="Helvetica,sans-Serif" font-size="10.00">string</text>
</a>
</g>
</g>
<!-- Node2&#45;&gt;Node5 -->
<g id="edge4" class="edge">
<title>Node2&#45;&gt;Node5</title>
<path fill="none" stroke="midnightblue" d="M144.21,-168.37C145.66,-150.62 149.01,-109.67 150.98,-85.6"/>
<polygon fill="midnightblue" stroke="midnightblue" points="154.47,-85.84 151.8,-75.59 147.49,-85.27 154.47,-85.84"/>
</g>
<!-- Node6 -->
<g id="node6" class="node">
<title>Node6</title>
<g id="a_node6"><a xlink:href="dataloader_8h.html" target="_top" xlink:title=" ">
<polygon fill="white" stroke="black" points="171.5,-112.5 171.5,-131.5 323.5,-131.5 323.5,-112.5 171.5,-112.5"/>
<text text-anchor="middle" x="247.5" y="-119.5" font-family="Helvetica,sans-Serif" font-size="10.00">src/application/dataloader.h</text>
</a>
</g>
</g>
<!-- Node2&#45;&gt;Node6 -->
<g id="edge5" class="edge">
<title>Node2&#45;&gt;Node6</title>
<path fill="none" stroke="midnightblue" d="M160.21,-168.32C176.81,-159.7 202.5,-146.36 221.72,-136.39"/>
<polygon fill="midnightblue" stroke="midnightblue" points="223.57,-139.37 230.83,-131.65 220.34,-133.16 223.57,-139.37"/>
</g>
<!-- Node10 -->
<g id="node10" class="node">
<title>Node10</title>
<g id="a_node10"><a xlink:href="abstract__data__reader_8h.html" target="_top" xlink:title=" ">
<polygon fill="white" stroke="black" points="360,-112.5 360,-131.5 567,-131.5 567,-112.5 360,-112.5"/>
<text text-anchor="middle" x="463.5" y="-119.5" font-family="Helvetica,sans-Serif" font-size="10.00">src/data_reader/abstract_data_reader.h</text>
</a>
</g>
</g>
<!-- Node2&#45;&gt;Node10 -->
<g id="edge11" class="edge">
<title>Node2&#45;&gt;Node10</title>
<path fill="none" stroke="midnightblue" d="M194.2,-168.44C250.85,-158.89 342.5,-143.42 402.88,-133.23"/>
<polygon fill="midnightblue" stroke="midnightblue" points="403.75,-136.63 413.03,-131.52 402.59,-129.73 403.75,-136.63"/>
</g>
<!-- Node6&#45;&gt;Node4 -->
<g id="edge8" class="edge">
<title>Node6&#45;&gt;Node4</title>
<path fill="none" stroke="midnightblue" d="M221.51,-112.44C193.8,-103.32 149.75,-88.81 118.88,-78.65"/>
<polygon fill="midnightblue" stroke="midnightblue" points="119.96,-75.32 109.36,-75.52 117.77,-81.97 119.96,-75.32"/>
</g>
<!-- Node6&#45;&gt;Node5 -->
<g id="edge9" class="edge">
<title>Node6&#45;&gt;Node5</title>
<path fill="none" stroke="midnightblue" d="M232.24,-112.32C217.28,-103.82 194.25,-90.73 176.77,-80.8"/>
<polygon fill="midnightblue" stroke="midnightblue" points="178.15,-77.55 167.73,-75.65 174.69,-83.64 178.15,-77.55"/>
</g>
<!-- Node7 -->
<g id="node7" class="node">
<title>Node7</title>
<g id="a_node7"><a xlink:title=" ">
<polygon fill="white" stroke="#bfbfbf" points="304.5,-56.5 304.5,-75.5 346.5,-75.5 346.5,-56.5 304.5,-56.5"/>
<text text-anchor="middle" x="325.5" y="-63.5" font-family="Helvetica,sans-Serif" font-size="10.00">array</text>
</a>
</g>
</g>
<!-- Node6&#45;&gt;Node7 -->
<g id="edge6" class="edge">
<title>Node6&#45;&gt;Node7</title>
<path fill="none" stroke="midnightblue" d="M260.03,-112.32C272.09,-103.98 290.53,-91.21 304.77,-81.35"/>
<polygon fill="midnightblue" stroke="midnightblue" points="306.77,-84.22 313,-75.65 302.78,-78.47 306.77,-84.22"/>
</g>
<!-- Node8 -->
<g id="node8" class="node">
<title>Node8</title>
<g id="a_node8"><a xlink:title=" ">
<polygon fill="white" stroke="#bfbfbf" points="429.5,-0.5 429.5,-19.5 497.5,-19.5 497.5,-0.5 429.5,-0.5"/>
<text text-anchor="middle" x="463.5" y="-7.5" font-family="Helvetica,sans-Serif" font-size="10.00">filesystem</text>
</a>
</g>
</g>
<!-- Node6&#45;&gt;Node8 -->
<g id="edge7" class="edge">
<title>Node6&#45;&gt;Node8</title>
<path fill="none" stroke="midnightblue" d="M270.69,-112.47C292.87,-104.06 327.04,-90.39 355.5,-76 386.46,-60.34 420.49,-39.15 441.92,-25.28"/>
<polygon fill="midnightblue" stroke="midnightblue" points="444.09,-28.04 450.55,-19.65 440.27,-22.18 444.09,-28.04"/>
</g>
<!-- Node9 -->
<g id="node9" class="node">
<title>Node9</title>
<g id="a_node9"><a xlink:title=" ">
<polygon fill="white" stroke="#bfbfbf" points="193,-56.5 193,-75.5 286,-75.5 286,-56.5 193,-56.5"/>
<text text-anchor="middle" x="239.5" y="-63.5" font-family="Helvetica,sans-Serif" font-size="10.00">unordered_map</text>
</a>
</g>
</g>
<!-- Node6&#45;&gt;Node9 -->
<g id="edge10" class="edge">
<title>Node6&#45;&gt;Node9</title>
<path fill="none" stroke="midnightblue" d="M246.18,-112.08C245.12,-104.93 243.59,-94.64 242.27,-85.69"/>
<polygon fill="midnightblue" stroke="midnightblue" points="245.72,-85.13 240.8,-75.75 238.8,-86.16 245.72,-85.13"/>
</g>
<!-- Node10&#45;&gt;Node8 -->
<g id="edge12" class="edge">
<title>Node10&#45;&gt;Node8</title>
<path fill="none" stroke="midnightblue" d="M487.97,-112.44C504.07,-105.38 523.88,-93.63 533.5,-76 545.5,-54.03 519,-35.36 495.24,-23.75"/>
<polygon fill="midnightblue" stroke="midnightblue" points="496.57,-20.51 486.02,-19.51 493.64,-26.87 496.57,-20.51"/>
</g>
<!-- Node11 -->
<g id="node11" class="node">
<title>Node11</title>
<g id="a_node11"><a xlink:href="types_8h.html" target="_top" xlink:title=" ">
<polygon fill="white" stroke="black" points="402.5,-56.5 402.5,-75.5 524.5,-75.5 524.5,-56.5 402.5,-56.5"/>
<text text-anchor="middle" x="463.5" y="-63.5" font-family="Helvetica,sans-Serif" font-size="10.00">src/data_type/types.h</text>
</a>
</g>
</g>
<!-- Node10&#45;&gt;Node11 -->
<g id="edge13" class="edge">
<title>Node10&#45;&gt;Node11</title>
<path fill="none" stroke="midnightblue" d="M463.5,-112.08C463.5,-105.01 463.5,-94.86 463.5,-85.99"/>
<polygon fill="midnightblue" stroke="midnightblue" points="467,-85.75 463.5,-75.75 460,-85.75 467,-85.75"/>
</g>
<!-- Node11&#45;&gt;Node8 -->
<g id="edge14" class="edge">
<title>Node11&#45;&gt;Node8</title>
<path fill="none" stroke="midnightblue" d="M463.5,-56.08C463.5,-49.01 463.5,-38.86 463.5,-29.99"/>
<polygon fill="midnightblue" stroke="midnightblue" points="467,-29.75 463.5,-19.75 460,-29.75 467,-29.75"/>
</g>
</g>
</svg>
