<?xml version="1.0" encoding="UTF-8" standalone="no"?>
<!DOCTYPE svg PUBLIC "-//W3C//DTD SVG 1.1//EN"
 "http://www.w3.org/Graphics/SVG/1.1/DTD/svg11.dtd">
<!-- Generated by graphviz version 2.43.0 (0)
 -->
<!-- Title: src/application/user_interface/pannel/abstract_pannel.h Pages: 1 -->
<!--zoomable 196 -->
<svg id="main" version="1.1" xmlns="http://www.w3.org/2000/svg" xmlns:xlink="http://www.w3.org/1999/xlink" xml:space="preserve" onload="init(evt)">
<style type="text/css"><![CDATA[
.edge:hover path { stroke: red; }
.edge:hover polygon { stroke: red; fill: red; }
]]></style>
<script type="text/javascript"><![CDATA[
var edges = document.getElementsByTagName('g');
if (edges && edges.length) {
  for (var i=0;i<edges.length;i++) {
    if (edges[i].id.substr(0,4)=='edge') {
      edges[i].setAttribute('class','edge');
    }
  }
}
]]></script>
        <defs>
                <circle id="rim" cx="0" cy="0" r="7"/>
                <circle id="rim2" cx="0" cy="0" r="3.5"/>
                <g id="zoomPlus">
                        <use xlink:href="#rim" fill="#404040">
                                <set attributeName="fill" to="#808080" begin="zoomplus.mouseover" end="zoomplus.mouseout"/>
                        </use>
                        <path d="M-4,0h8M0,-4v8" fill="none" stroke="white" stroke-width="1.5" pointer-events="none"/>
                </g>
                <g id="zoomMin">
                        <use xlink:href="#rim" fill="#404040">
                                <set attributeName="fill" to="#808080" begin="zoomminus.mouseover" end="zoomminus.mouseout"/>
                        </use>
                        <path d="M-4,0h8" fill="none" stroke="white" stroke-width="1.5" pointer-events="none"/>
                </g>
                <g id="dirArrow">
                        <path fill="none" stroke="white" stroke-width="1.5" d="M0,-3.0v7 M-2.5,-0.5L0,-3.0L2.5,-0.5"/>
                </g>
               <g id="resetDef">
                       <use xlink:href="#rim2" fill="#404040">
                               <set attributeName="fill" to="#808080" begin="reset.mouseover" end="reset.mouseout"/>
                       </use>
               </g>
        </defs>

<script type="text/javascript">
var viewWidth = 2203;
var viewHeight = 196;
var sectionId = 'dynsection-1';
</script>
<script xlink:href="svgpan.js"/>
<svg id="graph" class="graph">
<g id="viewport">
<title>src/application/user_interface/pannel/abstract_pannel.h</title>
<polygon fill="white" stroke="transparent" points="-4,4 -4,-192 2198.5,-192 2198.5,4 -4,4"/>
<!-- Node1 -->
<g id="node1" class="node">
<title>Node1</title>
<g id="a_node1"><a xlink:title=" ">
<polygon fill="#bfbfbf" stroke="black" points="1007.5,-168.5 1007.5,-187.5 1294.5,-187.5 1294.5,-168.5 1007.5,-168.5"/>
<text text-anchor="middle" x="1151" y="-175.5" font-family="Helvetica,sans-Serif" font-size="10.00">src/application/user_interface/pannel/abstract_pannel.h</text>
</a>
</g>
</g>
<!-- Node2 -->
<g id="node2" class="node">
<title>Node2</title>
<g id="a_node2"><a xlink:href="abstract__pannel_8cpp.html" target="_top" xlink:title=" ">
<polygon fill="white" stroke="black" points="0,-112.5 0,-131.5 298,-131.5 298,-112.5 0,-112.5"/>
<text text-anchor="middle" x="149" y="-119.5" font-family="Helvetica,sans-Serif" font-size="10.00">src/application/user_interface/pannel/abstract_pannel.cpp</text>
</a>
</g>
</g>
<!-- Node1&#45;&gt;Node2 -->
<g id="edge1" class="edge">
<title>Node1&#45;&gt;Node2</title>
<path fill="none" stroke="midnightblue" d="M997.02,-168.96C827.83,-160.08 548.04,-145.29 307,-132 304.12,-131.84 301.21,-131.68 298.28,-131.52"/>
<polygon fill="midnightblue" stroke="midnightblue" points="997.08,-172.47 1007.25,-169.5 997.45,-165.48 997.08,-172.47"/>
</g>
<!-- Node3 -->
<g id="node3" class="node">
<title>Node3</title>
<g id="a_node3"><a xlink:href="cam__view__pannel_8h.html" target="_top" xlink:title=" ">
<polygon fill="white" stroke="black" points="316,-112.5 316,-131.5 612,-131.5 612,-112.5 316,-112.5"/>
<text text-anchor="middle" x="464" y="-119.5" font-family="Helvetica,sans-Serif" font-size="10.00">src/application/user_interface/pannel/cam_view_pannel.h</text>
</a>
</g>
</g>
<!-- Node1&#45;&gt;Node3 -->
<g id="edge2" class="edge">
<title>Node1&#45;&gt;Node3</title>
<path fill="none" stroke="midnightblue" d="M1032.17,-167.66C902.69,-157.48 697.33,-141.34 572.19,-131.5"/>
<polygon fill="midnightblue" stroke="midnightblue" points="1032.28,-171.18 1042.52,-168.47 1032.83,-164.2 1032.28,-171.18"/>
</g>
<!-- Node5 -->
<g id="node5" class="node">
<title>Node5</title>
<g id="a_node5"><a xlink:href="pannel_8h.html" target="_top" xlink:title=" ">
<polygon fill="white" stroke="black" points="1111,-56.5 1111,-75.5 1317,-75.5 1317,-56.5 1111,-56.5"/>
<text text-anchor="middle" x="1214" y="-63.5" font-family="Helvetica,sans-Serif" font-size="10.00">src/application/user_interface/pannel.h</text>
</a>
</g>
</g>
<!-- Node1&#45;&gt;Node5 -->
<g id="edge18" class="edge">
<title>Node1&#45;&gt;Node5</title>
<path fill="none" stroke="midnightblue" d="M1182.02,-163.67C1194.99,-156.35 1208.72,-145.89 1216,-132 1225.54,-113.8 1220.5,-88.62 1216.8,-75.59"/>
<polygon fill="midnightblue" stroke="midnightblue" points="1180.07,-160.73 1172.81,-168.45 1183.3,-166.95 1180.07,-160.73"/>
</g>
<!-- Node7 -->
<g id="node7" class="node">
<title>Node7</title>
<g id="a_node7"><a xlink:href="control__pannel_8h.html" target="_top" xlink:title=" ">
<polygon fill="white" stroke="black" points="630.5,-112.5 630.5,-131.5 911.5,-131.5 911.5,-112.5 630.5,-112.5"/>
<text text-anchor="middle" x="771" y="-119.5" font-family="Helvetica,sans-Serif" font-size="10.00">src/application/user_interface/pannel/control_pannel.h</text>
</a>
</g>
</g>
<!-- Node1&#45;&gt;Node7 -->
<g id="edge6" class="edge">
<title>Node1&#45;&gt;Node7</title>
<path fill="none" stroke="midnightblue" d="M1080.48,-166.98C1008.7,-156.78 898.63,-141.14 830.93,-131.52"/>
<polygon fill="midnightblue" stroke="midnightblue" points="1080.39,-170.5 1090.79,-168.44 1081.38,-163.57 1080.39,-170.5"/>
</g>
<!-- Node9 -->
<g id="node9" class="node">
<title>Node9</title>
<g id="a_node9"><a xlink:href="dialog__pannel_8h.html" target="_top" xlink:title=" ">
<polygon fill="white" stroke="black" points="929.5,-112.5 929.5,-131.5 1206.5,-131.5 1206.5,-112.5 929.5,-112.5"/>
<text text-anchor="middle" x="1068" y="-119.5" font-family="Helvetica,sans-Serif" font-size="10.00">src/application/user_interface/pannel/dialog_pannel.h</text>
</a>
</g>
</g>
<!-- Node1&#45;&gt;Node9 -->
<g id="edge9" class="edge">
<title>Node1&#45;&gt;Node9</title>
<path fill="none" stroke="midnightblue" d="M1128.9,-162.62C1113.74,-152.76 1094.12,-139.99 1081.3,-131.65"/>
<polygon fill="midnightblue" stroke="midnightblue" points="1127.37,-165.8 1137.66,-168.32 1131.19,-159.94 1127.37,-165.8"/>
</g>
<!-- Node11 -->
<g id="node11" class="node">
<title>Node11</title>
<g id="a_node11"><a xlink:href="media__pannel_8h.html" target="_top" xlink:title=" ">
<polygon fill="white" stroke="black" points="1263,-112.5 1263,-131.5 1541,-131.5 1541,-112.5 1263,-112.5"/>
<text text-anchor="middle" x="1402" y="-119.5" font-family="Helvetica,sans-Serif" font-size="10.00">src/application/user_interface/pannel/media_pannel.h</text>
</a>
</g>
</g>
<!-- Node1&#45;&gt;Node11 -->
<g id="edge12" class="edge">
<title>Node1&#45;&gt;Node11</title>
<path fill="none" stroke="midnightblue" d="M1200.82,-166.28C1248.25,-156.08 1318.7,-140.92 1362.41,-131.52"/>
<polygon fill="midnightblue" stroke="midnightblue" points="1199.81,-162.92 1190.77,-168.44 1201.28,-169.76 1199.81,-162.92"/>
</g>
<!-- Node13 -->
<g id="node13" class="node">
<title>Node13</title>
<g id="a_node13"><a xlink:href="top__view__pannel_8h.html" target="_top" xlink:title=" ">
<polygon fill="white" stroke="black" points="1559.5,-112.5 1559.5,-131.5 1850.5,-131.5 1850.5,-112.5 1559.5,-112.5"/>
<text text-anchor="middle" x="1705" y="-119.5" font-family="Helvetica,sans-Serif" font-size="10.00">src/application/user_interface/pannel/top_view_pannel.h</text>
</a>
</g>
</g>
<!-- Node1&#45;&gt;Node13 -->
<g id="edge15" class="edge">
<title>Node1&#45;&gt;Node13</title>
<path fill="none" stroke="midnightblue" d="M1248.71,-167.48C1353.14,-157.3 1517.2,-141.31 1617.53,-131.53"/>
<polygon fill="midnightblue" stroke="midnightblue" points="1248.09,-164.02 1238.48,-168.47 1248.77,-170.99 1248.09,-164.02"/>
</g>
<!-- Node15 -->
<g id="node15" class="node">
<title>Node15</title>
<g id="a_node15"><a xlink:href="user__interface_8h.html" target="_top" xlink:title=" ">
<polygon fill="white" stroke="black" points="1907,-112.5 1907,-131.5 2077,-131.5 2077,-112.5 1907,-112.5"/>
<text text-anchor="middle" x="1992" y="-119.5" font-family="Helvetica,sans-Serif" font-size="10.00">src/application/user_interface.h</text>
</a>
</g>
</g>
<!-- Node1&#45;&gt;Node15 -->
<g id="edge19" class="edge">
<title>Node1&#45;&gt;Node15</title>
<path fill="none" stroke="midnightblue" d="M1298.44,-167.84C1441.86,-158.89 1665.9,-144.78 1860,-132 1875.13,-131 1891.23,-129.92 1906.8,-128.87"/>
<polygon fill="midnightblue" stroke="midnightblue" points="1298.02,-164.36 1288.26,-168.48 1298.45,-171.35 1298.02,-164.36"/>
</g>
<!-- Node4 -->
<g id="node4" class="node">
<title>Node4</title>
<g id="a_node4"><a xlink:href="cam__view__pannel_8cpp.html" target="_top" xlink:title=" ">
<polygon fill="white" stroke="black" points="169,-56.5 169,-75.5 477,-75.5 477,-56.5 169,-56.5"/>
<text text-anchor="middle" x="323" y="-63.5" font-family="Helvetica,sans-Serif" font-size="10.00">src/application/user_interface/pannel/cam_view_pannel.cpp</text>
</a>
</g>
</g>
<!-- Node3&#45;&gt;Node4 -->
<g id="edge3" class="edge">
<title>Node3&#45;&gt;Node4</title>
<path fill="none" stroke="midnightblue" d="M432.07,-108.77C405.59,-98.63 368.61,-84.47 345.24,-75.52"/>
<polygon fill="midnightblue" stroke="midnightblue" points="431.07,-112.14 441.66,-112.44 433.57,-105.6 431.07,-112.14"/>
</g>
<!-- Node3&#45;&gt;Node5 -->
<g id="edge4" class="edge">
<title>Node3&#45;&gt;Node5</title>
<path fill="none" stroke="midnightblue" d="M600.26,-111.78C729.46,-102.94 928.97,-89.05 1102,-76 1104.92,-75.78 1107.88,-75.55 1110.87,-75.33"/>
<polygon fill="midnightblue" stroke="midnightblue" points="599.66,-108.31 589.92,-112.48 600.14,-115.29 599.66,-108.31"/>
</g>
<!-- Node6 -->
<g id="node6" class="node">
<title>Node6</title>
<g id="a_node6"><a xlink:href="user__interface_8cpp.html" target="_top" xlink:title=" ">
<polygon fill="white" stroke="black" points="1426.5,-0.5 1426.5,-19.5 1607.5,-19.5 1607.5,-0.5 1426.5,-0.5"/>
<text text-anchor="middle" x="1517" y="-7.5" font-family="Helvetica,sans-Serif" font-size="10.00">src/application/user_interface.cpp</text>
</a>
</g>
</g>
<!-- Node5&#45;&gt;Node6 -->
<g id="edge5" class="edge">
<title>Node5&#45;&gt;Node6</title>
<path fill="none" stroke="midnightblue" d="M1272,-54.66C1329.26,-44.46 1415.78,-29.04 1469.21,-19.52"/>
<polygon fill="midnightblue" stroke="midnightblue" points="1271.24,-51.24 1262.01,-56.44 1272.47,-58.13 1271.24,-51.24"/>
</g>
<!-- Node7&#45;&gt;Node5 -->
<g id="edge8" class="edge">
<title>Node7&#45;&gt;Node5</title>
<path fill="none" stroke="midnightblue" d="M851.16,-111.23C934.78,-101.04 1064.56,-85.22 1144.13,-75.52"/>
<polygon fill="midnightblue" stroke="midnightblue" points="850.7,-107.76 841.19,-112.44 851.54,-114.71 850.7,-107.76"/>
</g>
<!-- Node8 -->
<g id="node8" class="node">
<title>Node8</title>
<g id="a_node8"><a xlink:href="control__pannel_8cpp.html" target="_top" xlink:title=" ">
<polygon fill="white" stroke="black" points="495,-56.5 495,-75.5 787,-75.5 787,-56.5 495,-56.5"/>
<text text-anchor="middle" x="641" y="-63.5" font-family="Helvetica,sans-Serif" font-size="10.00">src/application/user_interface/pannel/control_pannel.cpp</text>
</a>
</g>
</g>
<!-- Node7&#45;&gt;Node8 -->
<g id="edge7" class="edge">
<title>Node7&#45;&gt;Node8</title>
<path fill="none" stroke="midnightblue" d="M740.91,-108.5C716.54,-98.38 682.86,-84.39 661.5,-75.52"/>
<polygon fill="midnightblue" stroke="midnightblue" points="739.82,-111.84 750.4,-112.44 742.51,-105.38 739.82,-111.84"/>
</g>
<!-- Node9&#45;&gt;Node5 -->
<g id="edge11" class="edge">
<title>Node9&#45;&gt;Node5</title>
<path fill="none" stroke="midnightblue" d="M1100.7,-108.91C1128.15,-98.75 1166.67,-84.51 1190.97,-75.52"/>
<polygon fill="midnightblue" stroke="midnightblue" points="1099.3,-105.69 1091.13,-112.44 1101.73,-112.26 1099.3,-105.69"/>
</g>
<!-- Node10 -->
<g id="node10" class="node">
<title>Node10</title>
<g id="a_node10"><a xlink:href="dialog__pannel_8cpp.html" target="_top" xlink:title=" ">
<polygon fill="white" stroke="black" points="805,-56.5 805,-75.5 1093,-75.5 1093,-56.5 805,-56.5"/>
<text text-anchor="middle" x="949" y="-63.5" font-family="Helvetica,sans-Serif" font-size="10.00">src/application/user_interface/pannel/dialog_pannel.cpp</text>
</a>
</g>
</g>
<!-- Node9&#45;&gt;Node10 -->
<g id="edge10" class="edge">
<title>Node9&#45;&gt;Node10</title>
<path fill="none" stroke="midnightblue" d="M1039.86,-108.23C1017.6,-98.13 987.14,-84.31 967.77,-75.52"/>
<polygon fill="midnightblue" stroke="midnightblue" points="1038.59,-111.5 1049.14,-112.44 1041.48,-105.12 1038.59,-111.5"/>
</g>
<!-- Node11&#45;&gt;Node5 -->
<g id="edge14" class="edge">
<title>Node11&#45;&gt;Node5</title>
<path fill="none" stroke="midnightblue" d="M1362.2,-109.57C1326.73,-99.38 1275.63,-84.7 1243.65,-75.52"/>
<polygon fill="midnightblue" stroke="midnightblue" points="1361.63,-113.05 1372.21,-112.44 1363.57,-106.32 1361.63,-113.05"/>
</g>
<!-- Node12 -->
<g id="node12" class="node">
<title>Node12</title>
<g id="a_node12"><a xlink:href="media__pannel_8cpp.html" target="_top" xlink:title=" ">
<polygon fill="white" stroke="black" points="1335.5,-56.5 1335.5,-75.5 1624.5,-75.5 1624.5,-56.5 1335.5,-56.5"/>
<text text-anchor="middle" x="1480" y="-63.5" font-family="Helvetica,sans-Serif" font-size="10.00">src/application/user_interface/pannel/media_pannel.cpp</text>
</a>
</g>
</g>
<!-- Node11&#45;&gt;Node12 -->
<g id="edge13" class="edge">
<title>Node11&#45;&gt;Node12</title>
<path fill="none" stroke="midnightblue" d="M1422.77,-106.62C1437.02,-96.76 1455.46,-83.99 1467.5,-75.65"/>
<polygon fill="midnightblue" stroke="midnightblue" points="1420.76,-103.75 1414.53,-112.32 1424.75,-109.51 1420.76,-103.75"/>
</g>
<!-- Node13&#45;&gt;Node5 -->
<g id="edge17" class="edge">
<title>Node13&#45;&gt;Node5</title>
<path fill="none" stroke="midnightblue" d="M1617.28,-111.35C1524.67,-101.17 1380.09,-85.27 1291.53,-75.53"/>
<polygon fill="midnightblue" stroke="midnightblue" points="1617.15,-114.86 1627.47,-112.47 1617.91,-107.9 1617.15,-114.86"/>
</g>
<!-- Node14 -->
<g id="node14" class="node">
<title>Node14</title>
<g id="a_node14"><a xlink:href="top__view__pannel_8cpp.html" target="_top" xlink:title=" ">
<polygon fill="white" stroke="black" points="1643,-56.5 1643,-75.5 1945,-75.5 1945,-56.5 1643,-56.5"/>
<text text-anchor="middle" x="1794" y="-63.5" font-family="Helvetica,sans-Serif" font-size="10.00">src/application/user_interface/pannel/top_view_pannel.cpp</text>
</a>
</g>
</g>
<!-- Node13&#45;&gt;Node14 -->
<g id="edge16" class="edge">
<title>Node13&#45;&gt;Node14</title>
<path fill="none" stroke="midnightblue" d="M1728.24,-106.9C1744.56,-97 1765.87,-84.07 1779.74,-75.65"/>
<polygon fill="midnightblue" stroke="midnightblue" points="1726.03,-104.14 1719.3,-112.32 1729.66,-110.13 1726.03,-104.14"/>
</g>
<!-- Node15&#45;&gt;Node6 -->
<g id="edge24" class="edge">
<title>Node15&#45;&gt;Node6</title>
<path fill="none" stroke="midnightblue" d="M1986.47,-102.64C1980.87,-87.46 1970.63,-66.71 1954,-56 1898.54,-20.28 1718.47,-12.29 1607.53,-10.86"/>
<polygon fill="midnightblue" stroke="midnightblue" points="1983.27,-104.11 1989.75,-112.49 1989.91,-101.9 1983.27,-104.11"/>
</g>
<!-- Node16 -->
<g id="node16" class="node">
<title>Node16</title>
<g id="a_node16"><a xlink:href="application_8cpp.html" target="_top" xlink:title=" ">
<polygon fill="white" stroke="black" points="1928.5,-0.5 1928.5,-19.5 2093.5,-19.5 2093.5,-0.5 1928.5,-0.5"/>
<text text-anchor="middle" x="2011" y="-7.5" font-family="Helvetica,sans-Serif" font-size="10.00">src/application/application.cpp</text>
</a>
</g>
</g>
<!-- Node15&#45;&gt;Node16 -->
<g id="edge20" class="edge">
<title>Node15&#45;&gt;Node16</title>
<path fill="none" stroke="midnightblue" d="M1995.22,-102.35C1999.38,-78.25 2006.46,-37.31 2009.52,-19.59"/>
<polygon fill="midnightblue" stroke="midnightblue" points="1991.74,-101.92 1993.49,-112.37 1998.64,-103.11 1991.74,-101.92"/>
</g>
<!-- Node17 -->
<g id="node17" class="node">
<title>Node17</title>
<g id="a_node17"><a xlink:href="application_8h.html" target="_top" xlink:title=" ">
<polygon fill="white" stroke="black" points="2039,-56.5 2039,-75.5 2193,-75.5 2193,-56.5 2039,-56.5"/>
<text text-anchor="middle" x="2116" y="-63.5" font-family="Helvetica,sans-Serif" font-size="10.00">src/application/application.h</text>
</a>
</g>
</g>
<!-- Node15&#45;&gt;Node17 -->
<g id="edge21" class="edge">
<title>Node15&#45;&gt;Node17</title>
<path fill="none" stroke="midnightblue" d="M2021.01,-108.37C2044.23,-98.26 2076.16,-84.35 2096.44,-75.52"/>
<polygon fill="midnightblue" stroke="midnightblue" points="2019.42,-105.24 2011.65,-112.44 2022.21,-111.66 2019.42,-105.24"/>
</g>
<!-- Node17&#45;&gt;Node16 -->
<g id="edge23" class="edge">
<title>Node17&#45;&gt;Node16</title>
<path fill="none" stroke="midnightblue" d="M2090.19,-51.73C2070.75,-41.73 2044.65,-28.31 2027.83,-19.65"/>
<polygon fill="midnightblue" stroke="midnightblue" points="2088.64,-54.86 2099.13,-56.32 2091.84,-48.64 2088.64,-54.86"/>
</g>
<!-- Node18 -->
<g id="node18" class="node">
<title>Node18</title>
<g id="a_node18"><a xlink:href="app_2main_8cpp.html" target="_top" xlink:title=" ">
<polygon fill="white" stroke="black" points="2111.5,-0.5 2111.5,-19.5 2194.5,-19.5 2194.5,-0.5 2111.5,-0.5"/>
<text text-anchor="middle" x="2153" y="-7.5" font-family="Helvetica,sans-Serif" font-size="10.00">app/main.cpp</text>
</a>
</g>
</g>
<!-- Node17&#45;&gt;Node18 -->
<g id="edge22" class="edge">
<title>Node17&#45;&gt;Node18</title>
<path fill="none" stroke="midnightblue" d="M2127.95,-47.57C2134.31,-38.27 2141.87,-27.25 2147,-19.75"/>
<polygon fill="midnightblue" stroke="midnightblue" points="2124.87,-45.86 2122.11,-56.08 2130.65,-49.81 2124.87,-45.86"/>
</g>
</g>
</svg>
        <g id="navigator" transform="translate(0 0)" fill="#404254">
                <rect fill="#f2f5e9" fill-opacity="0.5" stroke="#606060" stroke-width=".5" x="0" y="0" width="60" height="60"/>
                <use id="zoomplus" xlink:href="#zoomPlus" x="17" y="9" onmousedown="handleZoom(evt,'in')"/>
                <use id="zoomminus" xlink:href="#zoomMin" x="42" y="9" onmousedown="handleZoom(evt,'out')"/>
                <use id="reset" xlink:href="#resetDef" x="30" y="36" onmousedown="handleReset()"/>
                <g id="arrowUp" xlink:href="#dirArrow" transform="translate(30 24)" onmousedown="handlePan(0,-1)">
                  <use xlink:href="#rim" fill="#404040">
                        <set attributeName="fill" to="#808080" begin="arrowUp.mouseover" end="arrowUp.mouseout"/>
                  </use>
                  <path fill="none" stroke="white" stroke-width="1.5" d="M0,-3.0v7 M-2.5,-0.5L0,-3.0L2.5,-0.5"/>
                </g>
                <g id="arrowRight" xlink:href="#dirArrow" transform="rotate(90) translate(36 -43)" onmousedown="handlePan(1,0)">
                  <use xlink:href="#rim" fill="#404040">
                        <set attributeName="fill" to="#808080" begin="arrowRight.mouseover" end="arrowRight.mouseout"/>
                  </use>
                  <path fill="none" stroke="white" stroke-width="1.5" d="M0,-3.0v7 M-2.5,-0.5L0,-3.0L2.5,-0.5"/>
                </g>
                <g id="arrowDown" xlink:href="#dirArrow" transform="rotate(180) translate(-30 -48)" onmousedown="handlePan(0,1)">
                  <use xlink:href="#rim" fill="#404040">
                        <set attributeName="fill" to="#808080" begin="arrowDown.mouseover" end="arrowDown.mouseout"/>
                  </use>
                  <path fill="none" stroke="white" stroke-width="1.5" d="M0,-3.0v7 M-2.5,-0.5L0,-3.0L2.5,-0.5"/>
                </g>
                <g id="arrowLeft" xlink:href="#dirArrow" transform="rotate(270) translate(-36 17)" onmousedown="handlePan(-1,0)">
                  <use xlink:href="#rim" fill="#404040">
                        <set attributeName="fill" to="#808080" begin="arrowLeft.mouseover" end="arrowLeft.mouseout"/>
                  </use>
                  <path fill="none" stroke="white" stroke-width="1.5" d="M0,-3.0v7 M-2.5,-0.5L0,-3.0L2.5,-0.5"/>
                </g>
        </g>
        <svg viewBox="0 0 15 15" width="100%" height="30px" preserveAspectRatio="xMaxYMin meet">
         <g id="arrow_out" transform="scale(0.3 0.3)">
          <a xlink:href="abstract__pannel_8h__dep__incl_org.svg" target="_base">
           <rect id="button" ry="5" rx="5" y="6" x="6" height="38" width="38"
                fill="#f2f5e9" fill-opacity="0.5" stroke="#606060" stroke-width="1.0"/>
           <path id="arrow"
             d="M 11.500037,31.436501 C 11.940474,20.09759 22.043105,11.32322 32.158766,21.979434 L 37.068811,17.246167 C 37.068811,17.246167 37.088388,32 37.088388,32 L 22.160133,31.978069 C 22.160133,31.978069 26.997745,27.140456 26.997745,27.140456 C 18.528582,18.264221 13.291696,25.230495 11.500037,31.436501 z"
             style="fill:#404040;"/>
          </a>
         </g>
        </svg>
</svg>
