<?xml version="1.0" encoding="UTF-8" standalone="no"?>
<!DOCTYPE svg PUBLIC "-//W3C//DTD SVG 1.1//EN"
 "http://www.w3.org/Graphics/SVG/1.1/DTD/svg11.dtd">
<!-- Generated by graphviz version 2.43.0 (0)
 -->
<!-- Title: src/data_reader/abstract_data_reader.cpp Pages: 1 -->
<svg width="226pt" height="196pt"
 viewBox="0.00 0.00 226.00 196.00" xmlns="http://www.w3.org/2000/svg" xmlns:xlink="http://www.w3.org/1999/xlink">
<g id="graph0" class="graph" transform="scale(1 1) rotate(0) translate(4 192)">
<title>src/data_reader/abstract_data_reader.cpp</title>
<polygon fill="white" stroke="transparent" points="-4,4 -4,-192 222,-192 222,4 -4,4"/>
<!-- Node1 -->
<g id="node1" class="node">
<title>Node1</title>
<g id="a_node1"><a xlink:title=" ">
<polygon fill="#bfbfbf" stroke="black" points="0,-168.5 0,-187.5 218,-187.5 218,-168.5 0,-168.5"/>
<text text-anchor="middle" x="109" y="-175.5" font-family="Helvetica,sans-Serif" font-size="10.00">src/data_reader/abstract_data_reader.cpp</text>
</a>
</g>
</g>
<!-- Node2 -->
<g id="node2" class="node">
<title>Node2</title>
<g id="a_node2"><a xlink:href="abstract__data__reader_8h.html" target="_top" xlink:title=" ">
<polygon fill="white" stroke="black" points="5.5,-112.5 5.5,-131.5 212.5,-131.5 212.5,-112.5 5.5,-112.5"/>
<text text-anchor="middle" x="109" y="-119.5" font-family="Helvetica,sans-Serif" font-size="10.00">src/data_reader/abstract_data_reader.h</text>
</a>
</g>
</g>
<!-- Node1&#45;&gt;Node2 -->
<g id="edge1" class="edge">
<title>Node1&#45;&gt;Node2</title>
<path fill="none" stroke="midnightblue" d="M109,-168.08C109,-161.01 109,-150.86 109,-141.99"/>
<polygon fill="midnightblue" stroke="midnightblue" points="112.5,-141.75 109,-131.75 105.5,-141.75 112.5,-141.75"/>
</g>
<!-- Node3 -->
<g id="node3" class="node">
<title>Node3</title>
<g id="a_node3"><a xlink:title=" ">
<polygon fill="white" stroke="#bfbfbf" points="75,-0.5 75,-19.5 143,-19.5 143,-0.5 75,-0.5"/>
<text text-anchor="middle" x="109" y="-7.5" font-family="Helvetica,sans-Serif" font-size="10.00">filesystem</text>
</a>
</g>
</g>
<!-- Node2&#45;&gt;Node3 -->
<g id="edge2" class="edge">
<title>Node2&#45;&gt;Node3</title>
<path fill="none" stroke="midnightblue" d="M102.37,-112.27C96.23,-103.61 87.54,-89.67 84,-76 79.66,-59.24 88,-40.88 96.19,-27.97"/>
<polygon fill="midnightblue" stroke="midnightblue" points="99.15,-29.84 101.95,-19.62 93.39,-25.87 99.15,-29.84"/>
</g>
<!-- Node4 -->
<g id="node4" class="node">
<title>Node4</title>
<g id="a_node4"><a xlink:href="types_8h.html" target="_top" xlink:title=" ">
<polygon fill="white" stroke="black" points="93,-56.5 93,-75.5 215,-75.5 215,-56.5 93,-56.5"/>
<text text-anchor="middle" x="154" y="-63.5" font-family="Helvetica,sans-Serif" font-size="10.00">src/data_type/types.h</text>
</a>
</g>
</g>
<!-- Node2&#45;&gt;Node4 -->
<g id="edge3" class="edge">
<title>Node2&#45;&gt;Node4</title>
<path fill="none" stroke="midnightblue" d="M116.43,-112.08C122.85,-104.38 132.31,-93.03 140.12,-83.65"/>
<polygon fill="midnightblue" stroke="midnightblue" points="142.99,-85.67 146.71,-75.75 137.62,-81.19 142.99,-85.67"/>
</g>
<!-- Node4&#45;&gt;Node3 -->
<g id="edge4" class="edge">
<title>Node4&#45;&gt;Node3</title>
<path fill="none" stroke="midnightblue" d="M146.57,-56.08C140.15,-48.38 130.69,-37.03 122.88,-27.65"/>
<polygon fill="midnightblue" stroke="midnightblue" points="125.38,-25.19 116.29,-19.75 120.01,-29.67 125.38,-25.19"/>
</g>
</g>
</svg>
