<?xml version="1.0" encoding="UTF-8" standalone="no"?>
<!DOCTYPE svg PUBLIC "-//W3C//DTD SVG 1.1//EN"
 "http://www.w3.org/Graphics/SVG/1.1/DTD/svg11.dtd">
<!-- Generated by graphviz version 2.43.0 (0)
 -->
<!-- Title: app/main.cpp Pages: 1 -->
<svg width="665pt" height="252pt"
 viewBox="0.00 0.00 665.15 252.00" xmlns="http://www.w3.org/2000/svg" xmlns:xlink="http://www.w3.org/1999/xlink">
<g id="graph0" class="graph" transform="scale(1 1) rotate(0) translate(4 248)">
<title>app/main.cpp</title>
<polygon fill="white" stroke="transparent" points="-4,4 -4,-248 661.15,-248 661.15,4 -4,4"/>
<!-- Node1 -->
<g id="node1" class="node">
<title>Node1</title>
<g id="a_node1"><a xlink:title=" ">
<polygon fill="#bfbfbf" stroke="black" points="248.65,-224.5 248.65,-243.5 331.65,-243.5 331.65,-224.5 248.65,-224.5"/>
<text text-anchor="middle" x="290.15" y="-231.5" font-family="Helvetica,sans-Serif" font-size="10.00">app/main.cpp</text>
</a>
</g>
</g>
<!-- Node2 -->
<g id="node2" class="node">
<title>Node2</title>
<g id="a_node2"><a xlink:title=" ">
<polygon fill="white" stroke="#bfbfbf" points="5.65,-0.5 5.65,-19.5 40.65,-19.5 40.65,-0.5 5.65,-0.5"/>
<text text-anchor="middle" x="23.15" y="-7.5" font-family="Helvetica,sans-Serif" font-size="10.00">any</text>
</a>
</g>
</g>
<!-- Node1&#45;&gt;Node2 -->
<g id="edge1" class="edge">
<title>Node1&#45;&gt;Node2</title>
<path fill="none" stroke="midnightblue" d="M248.52,-230.83C207.38,-227.03 143.99,-216.6 97.15,-188 41.45,-153.98 24.64,-137.28 2.15,-76 -3.7,-60.05 3.57,-41.6 11.11,-28.44"/>
<polygon fill="midnightblue" stroke="midnightblue" points="14.12,-30.24 16.47,-19.91 8.19,-26.52 14.12,-30.24"/>
</g>
<!-- Node3 -->
<g id="node3" class="node">
<title>Node3</title>
<g id="a_node3"><a xlink:title=" ">
<polygon fill="white" stroke="#bfbfbf" points="597.15,-112.5 597.15,-131.5 657.15,-131.5 657.15,-112.5 597.15,-112.5"/>
<text text-anchor="middle" x="627.15" y="-119.5" font-family="Helvetica,sans-Serif" font-size="10.00">iostream</text>
</a>
</g>
</g>
<!-- Node1&#45;&gt;Node3 -->
<g id="edge2" class="edge">
<title>Node1&#45;&gt;Node3</title>
<path fill="none" stroke="midnightblue" d="M316.32,-224.46C376.04,-204.97 522.5,-157.16 590.88,-134.84"/>
<polygon fill="midnightblue" stroke="midnightblue" points="592.35,-138.04 600.77,-131.61 590.18,-131.39 592.35,-138.04"/>
</g>
<!-- Node4 -->
<g id="node4" class="node">
<title>Node4</title>
<g id="a_node4"><a xlink:href="button_8h.html" target="_top" xlink:title=" ">
<polygon fill="white" stroke="black" points="150.65,-168.5 150.65,-187.5 297.65,-187.5 297.65,-168.5 150.65,-168.5"/>
<text text-anchor="middle" x="224.15" y="-175.5" font-family="Helvetica,sans-Serif" font-size="10.00">src/user_interface/button.h</text>
</a>
</g>
</g>
<!-- Node1&#45;&gt;Node4 -->
<g id="edge3" class="edge">
<title>Node1&#45;&gt;Node4</title>
<path fill="none" stroke="midnightblue" d="M279.55,-224.32C269.7,-216.26 254.8,-204.08 242.94,-194.37"/>
<polygon fill="midnightblue" stroke="midnightblue" points="244.91,-191.46 234.95,-187.83 240.47,-196.88 244.91,-191.46"/>
</g>
<!-- Node9 -->
<g id="node9" class="node">
<title>Node9</title>
<g id="a_node9"><a xlink:href="callback_8h.html" target="_top" xlink:title=" ">
<polygon fill="white" stroke="black" points="11.65,-56.5 11.65,-75.5 118.65,-75.5 118.65,-56.5 11.65,-56.5"/>
<text text-anchor="middle" x="65.15" y="-63.5" font-family="Helvetica,sans-Serif" font-size="10.00">src/utils/callback.h</text>
</a>
</g>
</g>
<!-- Node1&#45;&gt;Node9 -->
<g id="edge16" class="edge">
<title>Node1&#45;&gt;Node9</title>
<path fill="none" stroke="midnightblue" d="M248.5,-224.6C217.75,-217.42 175.47,-205.46 141.15,-188 104.39,-169.3 86.08,-168.64 67.15,-132 59.78,-117.74 59.98,-99.27 61.62,-85.66"/>
<polygon fill="midnightblue" stroke="midnightblue" points="65.11,-86 63.19,-75.58 58.19,-84.92 65.11,-86"/>
</g>
<!-- Node12 -->
<g id="node12" class="node">
<title>Node12</title>
<g id="a_node12"><a xlink:href="log_8h.html" target="_top" xlink:title=" ">
<polygon fill="white" stroke="black" points="556.15,-168.5 556.15,-187.5 638.15,-187.5 638.15,-168.5 556.15,-168.5"/>
<text text-anchor="middle" x="597.15" y="-175.5" font-family="Helvetica,sans-Serif" font-size="10.00">src/utils/log.h</text>
</a>
</g>
</g>
<!-- Node1&#45;&gt;Node12 -->
<g id="edge17" class="edge">
<title>Node1&#45;&gt;Node12</title>
<path fill="none" stroke="midnightblue" d="M331.88,-225.66C387.51,-215.87 485.94,-198.56 545.99,-188"/>
<polygon fill="midnightblue" stroke="midnightblue" points="546.77,-191.42 556.01,-186.24 545.56,-184.52 546.77,-191.42"/>
</g>
<!-- Node13 -->
<g id="node13" class="node">
<title>Node13</title>
<g id="a_node13"><a xlink:href="window_8h.html" target="_top" xlink:title=" ">
<polygon fill="white" stroke="black" points="333.15,-168.5 333.15,-187.5 413.15,-187.5 413.15,-168.5 333.15,-168.5"/>
<text text-anchor="middle" x="373.15" y="-175.5" font-family="Helvetica,sans-Serif" font-size="10.00">src/window.h</text>
</a>
</g>
</g>
<!-- Node1&#45;&gt;Node13 -->
<g id="edge19" class="edge">
<title>Node1&#45;&gt;Node13</title>
<path fill="none" stroke="midnightblue" d="M303.49,-224.32C316.31,-215.98 335.94,-203.21 351.09,-193.35"/>
<polygon fill="midnightblue" stroke="midnightblue" points="353.38,-196.04 359.85,-187.65 349.56,-190.17 353.38,-196.04"/>
</g>
<!-- Node5 -->
<g id="node5" class="node">
<title>Node5</title>
<g id="a_node5"><a xlink:title=" ">
<polygon fill="white" stroke="#bfbfbf" points="291.15,-56.5 291.15,-75.5 335.15,-75.5 335.15,-56.5 291.15,-56.5"/>
<text text-anchor="middle" x="313.15" y="-63.5" font-family="Helvetica,sans-Serif" font-size="10.00">string</text>
</a>
</g>
</g>
<!-- Node4&#45;&gt;Node5 -->
<g id="edge4" class="edge">
<title>Node4&#45;&gt;Node5</title>
<path fill="none" stroke="midnightblue" d="M245.84,-168.39C261.74,-161.01 282.64,-148.88 295.15,-132 305.07,-118.63 309.52,-100.06 311.52,-86.19"/>
<polygon fill="midnightblue" stroke="midnightblue" points="315.04,-86.19 312.69,-75.86 308.09,-85.41 315.04,-86.19"/>
</g>
<!-- Node6 -->
<g id="node6" class="node">
<title>Node6</title>
<g id="a_node6"><a xlink:href="ui_8h.html" target="_top" xlink:title=" ">
<polygon fill="white" stroke="black" points="161.65,-112.5 161.65,-131.5 286.65,-131.5 286.65,-112.5 161.65,-112.5"/>
<text text-anchor="middle" x="224.15" y="-119.5" font-family="Helvetica,sans-Serif" font-size="10.00">src/user_interface/ui.h</text>
</a>
</g>
</g>
<!-- Node4&#45;&gt;Node6 -->
<g id="edge5" class="edge">
<title>Node4&#45;&gt;Node6</title>
<path fill="none" stroke="midnightblue" d="M224.15,-168.08C224.15,-161.01 224.15,-150.86 224.15,-141.99"/>
<polygon fill="midnightblue" stroke="midnightblue" points="227.65,-141.75 224.15,-131.75 220.65,-141.75 227.65,-141.75"/>
</g>
<!-- Node4&#45;&gt;Node9 -->
<g id="edge14" class="edge">
<title>Node4&#45;&gt;Node9</title>
<path fill="none" stroke="midnightblue" d="M150.52,-168.66C125.45,-162.33 99.23,-151.26 81.15,-132 69.61,-119.7 66.01,-100.44 65.06,-86.08"/>
<polygon fill="midnightblue" stroke="midnightblue" points="68.55,-85.73 64.77,-75.83 61.56,-85.93 68.55,-85.73"/>
</g>
<!-- Node10 -->
<g id="node10" class="node">
<title>Node10</title>
<g id="a_node10"><a xlink:href="imgui_8h.html" target="_top" xlink:title=" ">
<polygon fill="white" stroke="black" points="137.65,-56.5 137.65,-75.5 232.65,-75.5 232.65,-56.5 137.65,-56.5"/>
<text text-anchor="middle" x="185.15" y="-63.5" font-family="Helvetica,sans-Serif" font-size="10.00">src/utils/imgui.h</text>
</a>
</g>
</g>
<!-- Node4&#45;&gt;Node10 -->
<g id="edge15" class="edge">
<title>Node4&#45;&gt;Node10</title>
<path fill="none" stroke="midnightblue" d="M198.65,-168.47C182.17,-161.48 162.01,-149.79 152.15,-132 143.01,-115.5 155.7,-96.18 167.9,-82.91"/>
<polygon fill="midnightblue" stroke="midnightblue" points="170.68,-85.08 175.23,-75.52 165.71,-80.15 170.68,-85.08"/>
</g>
<!-- Node6&#45;&gt;Node5 -->
<g id="edge7" class="edge">
<title>Node6&#45;&gt;Node5</title>
<path fill="none" stroke="midnightblue" d="M238.45,-112.32C252.34,-103.9 273.65,-90.97 289.96,-81.07"/>
<polygon fill="midnightblue" stroke="midnightblue" points="292.16,-83.83 298.89,-75.65 288.52,-77.85 292.16,-83.83"/>
</g>
<!-- Node7 -->
<g id="node7" class="node">
<title>Node7</title>
<g id="a_node7"><a xlink:title=" ">
<polygon fill="white" stroke="#bfbfbf" points="232.15,-0.5 232.15,-19.5 290.15,-19.5 290.15,-0.5 232.15,-0.5"/>
<text text-anchor="middle" x="261.15" y="-7.5" font-family="Helvetica,sans-Serif" font-size="10.00">memory</text>
</a>
</g>
</g>
<!-- Node6&#45;&gt;Node7 -->
<g id="edge6" class="edge">
<title>Node6&#45;&gt;Node7</title>
<path fill="none" stroke="midnightblue" d="M227.57,-112.43C231.13,-103.42 236.77,-88.8 241.15,-76 246.47,-60.47 251.91,-42.63 255.78,-29.57"/>
<polygon fill="midnightblue" stroke="midnightblue" points="259.16,-30.47 258.61,-19.89 252.44,-28.5 259.16,-30.47"/>
</g>
<!-- Node8 -->
<g id="node8" class="node">
<title>Node8</title>
<g id="a_node8"><a xlink:title=" ">
<polygon fill="white" stroke="#bfbfbf" points="353.65,-56.5 353.65,-75.5 400.65,-75.5 400.65,-56.5 353.65,-56.5"/>
<text text-anchor="middle" x="377.15" y="-63.5" font-family="Helvetica,sans-Serif" font-size="10.00">vector</text>
</a>
</g>
</g>
<!-- Node6&#45;&gt;Node8 -->
<g id="edge8" class="edge">
<title>Node6&#45;&gt;Node8</title>
<path fill="none" stroke="midnightblue" d="M248.4,-112.44C274.17,-103.35 315.12,-88.9 343.9,-78.74"/>
<polygon fill="midnightblue" stroke="midnightblue" points="345.26,-81.97 353.53,-75.34 342.93,-75.37 345.26,-81.97"/>
</g>
<!-- Node6&#45;&gt;Node9 -->
<g id="edge9" class="edge">
<title>Node6&#45;&gt;Node9</title>
<path fill="none" stroke="midnightblue" d="M198.96,-112.44C172.21,-103.36 129.75,-88.94 99.85,-78.78"/>
<polygon fill="midnightblue" stroke="midnightblue" points="100.82,-75.42 90.23,-75.52 98.57,-82.05 100.82,-75.42"/>
</g>
<!-- Node6&#45;&gt;Node10 -->
<g id="edge12" class="edge">
<title>Node6&#45;&gt;Node10</title>
<path fill="none" stroke="midnightblue" d="M217.71,-112.08C212.2,-104.46 204.12,-93.26 197.39,-83.94"/>
<polygon fill="midnightblue" stroke="midnightblue" points="200.17,-81.81 191.47,-75.75 194.49,-85.91 200.17,-81.81"/>
</g>
<!-- Node9&#45;&gt;Node2 -->
<g id="edge10" class="edge">
<title>Node9&#45;&gt;Node2</title>
<path fill="none" stroke="midnightblue" d="M58.22,-56.08C52.22,-48.38 43.4,-37.03 36.11,-27.65"/>
<polygon fill="midnightblue" stroke="midnightblue" points="38.86,-25.5 29.96,-19.75 33.34,-29.79 38.86,-25.5"/>
</g>
<!-- Node9&#45;&gt;Node7 -->
<g id="edge11" class="edge">
<title>Node9&#45;&gt;Node7</title>
<path fill="none" stroke="midnightblue" d="M96.21,-56.44C130.25,-47.07 184.93,-32 221.91,-21.81"/>
<polygon fill="midnightblue" stroke="midnightblue" points="223.13,-25.11 231.84,-19.08 221.27,-18.36 223.13,-25.11"/>
</g>
<!-- Node11 -->
<g id="node11" class="node">
<title>Node11</title>
<g id="a_node11"><a xlink:title=" ">
<polygon fill="white" stroke="#bfbfbf" points="414.15,-0.5 414.15,-19.5 512.15,-19.5 512.15,-0.5 414.15,-0.5"/>
<text text-anchor="middle" x="463.15" y="-7.5" font-family="Helvetica,sans-Serif" font-size="10.00">bindings/imgui.h</text>
</a>
</g>
</g>
<!-- Node10&#45;&gt;Node11 -->
<g id="edge13" class="edge">
<title>Node10&#45;&gt;Node11</title>
<path fill="none" stroke="midnightblue" d="M229.2,-56.44C278,-46.96 356.72,-31.67 409.18,-21.48"/>
<polygon fill="midnightblue" stroke="midnightblue" points="410.16,-24.86 419.31,-19.52 408.83,-17.99 410.16,-24.86"/>
</g>
<!-- Node12&#45;&gt;Node3 -->
<g id="edge18" class="edge">
<title>Node12&#45;&gt;Node3</title>
<path fill="none" stroke="midnightblue" d="M602.11,-168.08C606.26,-160.61 612.31,-149.72 617.42,-140.52"/>
<polygon fill="midnightblue" stroke="midnightblue" points="620.49,-142.19 622.29,-131.75 614.38,-138.79 620.49,-142.19"/>
</g>
<!-- Node13&#45;&gt;Node5 -->
<g id="edge22" class="edge">
<title>Node13&#45;&gt;Node5</title>
<path fill="none" stroke="midnightblue" d="M368.44,-168.37C358.63,-150.38 335.82,-108.55 322.77,-84.63"/>
<polygon fill="midnightblue" stroke="midnightblue" points="325.7,-82.69 317.84,-75.59 319.56,-86.05 325.7,-82.69"/>
</g>
<!-- Node13&#45;&gt;Node6 -->
<g id="edge25" class="edge">
<title>Node13&#45;&gt;Node6</title>
<path fill="none" stroke="midnightblue" d="M349.54,-168.44C324.7,-159.44 285.38,-145.19 257.4,-135.05"/>
<polygon fill="midnightblue" stroke="midnightblue" points="258.25,-131.63 247.65,-131.52 255.86,-138.21 258.25,-131.63"/>
</g>
<!-- Node13&#45;&gt;Node7 -->
<g id="edge21" class="edge">
<title>Node13&#45;&gt;Node7</title>
<path fill="none" stroke="midnightblue" d="M380.3,-168.5C397.11,-147.43 435.78,-91.92 409.15,-56 384.37,-22.56 335.36,-13.12 300.53,-10.87"/>
<polygon fill="midnightblue" stroke="midnightblue" points="300.38,-7.36 290.22,-10.39 300.05,-14.35 300.38,-7.36"/>
</g>
<!-- Node13&#45;&gt;Node8 -->
<g id="edge23" class="edge">
<title>Node13&#45;&gt;Node8</title>
<path fill="none" stroke="midnightblue" d="M373.47,-168.37C374.11,-150.62 375.6,-109.67 376.48,-85.6"/>
<polygon fill="midnightblue" stroke="midnightblue" points="379.97,-85.71 376.84,-75.59 372.98,-85.46 379.97,-85.71"/>
</g>
<!-- Node13&#45;&gt;Node9 -->
<g id="edge26" class="edge">
<title>Node13&#45;&gt;Node9</title>
<path fill="none" stroke="midnightblue" d="M332.96,-170.98C278.38,-162.44 183.95,-146.25 152.15,-132 124.9,-119.79 98.07,-97.81 81.57,-82.82"/>
<polygon fill="midnightblue" stroke="midnightblue" points="83.63,-79.96 73.93,-75.71 78.86,-85.08 83.63,-79.96"/>
</g>
<!-- Node13&#45;&gt;Node11 -->
<g id="edge24" class="edge">
<title>Node13&#45;&gt;Node11</title>
<path fill="none" stroke="midnightblue" d="M413.39,-169.46C462.96,-159.76 541.69,-142.89 550.15,-132 579.46,-94.31 521.32,-48.09 486.57,-25.22"/>
<polygon fill="midnightblue" stroke="midnightblue" points="488.21,-22.11 477.9,-19.67 484.43,-28.01 488.21,-22.11"/>
</g>
<!-- Node14 -->
<g id="node14" class="node">
<title>Node14</title>
<g id="a_node14"><a xlink:title=" ">
<polygon fill="white" stroke="#bfbfbf" points="457.65,-112.5 457.65,-131.5 540.65,-131.5 540.65,-112.5 457.65,-112.5"/>
<text text-anchor="middle" x="499.15" y="-119.5" font-family="Helvetica,sans-Serif" font-size="10.00">GLFW/glfw3.h</text>
</a>
</g>
</g>
<!-- Node13&#45;&gt;Node14 -->
<g id="edge20" class="edge">
<title>Node13&#45;&gt;Node14</title>
<path fill="none" stroke="midnightblue" d="M393.12,-168.44C413.76,-159.6 446.22,-145.69 469.78,-135.59"/>
<polygon fill="midnightblue" stroke="midnightblue" points="471.47,-138.67 479.28,-131.52 468.71,-132.24 471.47,-138.67"/>
</g>
</g>
</svg>
