<?xml version="1.0" encoding="UTF-8" standalone="no"?>
<!DOCTYPE svg PUBLIC "-//W3C//DTD SVG 1.1//EN"
 "http://www.w3.org/Graphics/SVG/1.1/DTD/svg11.dtd">
<!-- Generated by graphviz version 2.43.0 (0)
 -->
<!-- Title: app/main.cpp Pages: 1 -->
<!--zoomable 308 -->
<svg id="main" version="1.1" xmlns="http://www.w3.org/2000/svg" xmlns:xlink="http://www.w3.org/1999/xlink" xml:space="preserve" onload="init(evt)">
<style type="text/css"><![CDATA[
.edge:hover path { stroke: red; }
.edge:hover polygon { stroke: red; fill: red; }
]]></style>
<script type="text/javascript"><![CDATA[
var edges = document.getElementsByTagName('g');
if (edges && edges.length) {
  for (var i=0;i<edges.length;i++) {
    if (edges[i].id.substr(0,4)=='edge') {
      edges[i].setAttribute('class','edge');
    }
  }
}
]]></script>
        <defs>
                <circle id="rim" cx="0" cy="0" r="7"/>
                <circle id="rim2" cx="0" cy="0" r="3.5"/>
                <g id="zoomPlus">
                        <use xlink:href="#rim" fill="#404040">
                                <set attributeName="fill" to="#808080" begin="zoomplus.mouseover" end="zoomplus.mouseout"/>
                        </use>
                        <path d="M-4,0h8M0,-4v8" fill="none" stroke="white" stroke-width="1.5" pointer-events="none"/>
                </g>
                <g id="zoomMin">
                        <use xlink:href="#rim" fill="#404040">
                                <set attributeName="fill" to="#808080" begin="zoomminus.mouseover" end="zoomminus.mouseout"/>
                        </use>
                        <path d="M-4,0h8" fill="none" stroke="white" stroke-width="1.5" pointer-events="none"/>
                </g>
                <g id="dirArrow">
                        <path fill="none" stroke="white" stroke-width="1.5" d="M0,-3.0v7 M-2.5,-0.5L0,-3.0L2.5,-0.5"/>
                </g>
               <g id="resetDef">
                       <use xlink:href="#rim2" fill="#404040">
                               <set attributeName="fill" to="#808080" begin="reset.mouseover" end="reset.mouseout"/>
                       </use>
               </g>
        </defs>

<script type="text/javascript">
var viewWidth = 845;
var viewHeight = 308;
var sectionId = 'dynsection-0';
</script>
<script xlink:href="svgpan.js"/>
<svg id="graph" class="graph">
<g id="viewport">
<title>app/main.cpp</title>
<polygon fill="white" stroke="transparent" points="-4,4 -4,-304 841,-304 841,4 -4,4"/>
<!-- Node1 -->
<g id="node1" class="node">
<title>Node1</title>
<g id="a_node1"><a xlink:title=" ">
<polygon fill="#bfbfbf" stroke="black" points="278.5,-280.5 278.5,-299.5 361.5,-299.5 361.5,-280.5 278.5,-280.5"/>
<text text-anchor="middle" x="320" y="-287.5" font-family="Helvetica,sans-Serif" font-size="10.00">app/main.cpp</text>
</a>
</g>
</g>
<!-- Node2 -->
<g id="node2" class="node">
<title>Node2</title>
<g id="a_node2"><a xlink:title=" ">
<polygon fill="white" stroke="#bfbfbf" points="290.5,-0.5 290.5,-19.5 325.5,-19.5 325.5,-0.5 290.5,-0.5"/>
<text text-anchor="middle" x="308" y="-7.5" font-family="Helvetica,sans-Serif" font-size="10.00">any</text>
</a>
</g>
</g>
<!-- Node1&#45;&gt;Node2 -->
<g id="edge1" class="edge">
<title>Node1&#45;&gt;Node2</title>
<path fill="none" stroke="midnightblue" d="M278.49,-283.62C191.91,-271.24 0,-237.23 0,-179 0,-179 0,-179 0,-121 0,-61.88 203.83,-26.15 279.86,-14.88"/>
<polygon fill="midnightblue" stroke="midnightblue" points="280.71,-18.29 290.11,-13.4 279.71,-11.37 280.71,-18.29"/>
</g>
<!-- Node3 -->
<g id="node3" class="node">
<title>Node3</title>
<g id="a_node3"><a xlink:title=" ">
<polygon fill="white" stroke="#bfbfbf" points="28,-168.5 28,-187.5 88,-187.5 88,-168.5 28,-168.5"/>
<text text-anchor="middle" x="58" y="-175.5" font-family="Helvetica,sans-Serif" font-size="10.00">iostream</text>
</a>
</g>
</g>
<!-- Node1&#45;&gt;Node3 -->
<g id="edge2" class="edge">
<title>Node1&#45;&gt;Node3</title>
<path fill="none" stroke="midnightblue" d="M278.18,-281.07C244.73,-273.86 197.12,-261.64 158,-244 127.72,-230.34 96.12,-208.28 76.74,-193.7"/>
<polygon fill="midnightblue" stroke="midnightblue" points="78.82,-190.89 68.75,-187.59 74.57,-196.45 78.82,-190.89"/>
</g>
<!-- Node4 -->
<g id="node4" class="node">
<title>Node4</title>
<g id="a_node4"><a xlink:href="user__interface_8h.html" target="_top" xlink:title=" ">
<polygon fill="white" stroke="black" points="295.5,-224.5 295.5,-243.5 408.5,-243.5 408.5,-224.5 295.5,-224.5"/>
<text text-anchor="middle" x="352" y="-231.5" font-family="Helvetica,sans-Serif" font-size="10.00">src/user_interface.h</text>
</a>
</g>
</g>
<!-- Node1&#45;&gt;Node4 -->
<g id="edge3" class="edge">
<title>Node1&#45;&gt;Node4</title>
<path fill="none" stroke="midnightblue" d="M325.28,-280.08C329.71,-272.61 336.16,-261.72 341.62,-252.52"/>
<polygon fill="midnightblue" stroke="midnightblue" points="344.73,-254.14 346.81,-243.75 338.71,-250.57 344.73,-254.14"/>
</g>
<!-- Node11 -->
<g id="node11" class="node">
<title>Node11</title>
<g id="a_node11"><a xlink:href="callback_8h.html" target="_top" xlink:title=" ">
<polygon fill="white" stroke="black" points="626.5,-56.5 626.5,-75.5 733.5,-75.5 733.5,-56.5 626.5,-56.5"/>
<text text-anchor="middle" x="680" y="-63.5" font-family="Helvetica,sans-Serif" font-size="10.00">src/utils/callback.h</text>
</a>
</g>
</g>
<!-- Node1&#45;&gt;Node11 -->
<g id="edge25" class="edge">
<title>Node1&#45;&gt;Node11</title>
<path fill="none" stroke="midnightblue" d="M361.79,-286.2C463.99,-278.38 721.94,-252.53 773,-188 803.46,-149.5 741.1,-103.34 704.33,-80.78"/>
<polygon fill="midnightblue" stroke="midnightblue" points="705.99,-77.69 695.61,-75.57 702.4,-83.7 705.99,-77.69"/>
</g>
<!-- Node17 -->
<g id="node17" class="node">
<title>Node17</title>
<g id="a_node17"><a xlink:href="log_8h.html" target="_top" xlink:title=" ">
<polygon fill="white" stroke="black" points="167,-224.5 167,-243.5 249,-243.5 249,-224.5 167,-224.5"/>
<text text-anchor="middle" x="208" y="-231.5" font-family="Helvetica,sans-Serif" font-size="10.00">src/utils/log.h</text>
</a>
</g>
</g>
<!-- Node1&#45;&gt;Node17 -->
<g id="edge26" class="edge">
<title>Node1&#45;&gt;Node17</title>
<path fill="none" stroke="midnightblue" d="M302.01,-280.32C283.96,-271.62 255.95,-258.12 235.2,-248.11"/>
<polygon fill="midnightblue" stroke="midnightblue" points="236.48,-244.84 225.95,-243.65 233.44,-251.15 236.48,-244.84"/>
</g>
<!-- Node18 -->
<g id="node18" class="node">
<title>Node18</title>
<g id="a_node18"><a xlink:href="window_8h.html" target="_top" xlink:title=" ">
<polygon fill="white" stroke="black" points="684,-168.5 684,-187.5 764,-187.5 764,-168.5 684,-168.5"/>
<text text-anchor="middle" x="724" y="-175.5" font-family="Helvetica,sans-Serif" font-size="10.00">src/window.h</text>
</a>
</g>
</g>
<!-- Node1&#45;&gt;Node18 -->
<g id="edge28" class="edge">
<title>Node1&#45;&gt;Node18</title>
<path fill="none" stroke="midnightblue" d="M351.37,-280.46C423.64,-260.78 601.87,-212.25 682.82,-190.21"/>
<polygon fill="midnightblue" stroke="midnightblue" points="683.93,-193.54 692.65,-187.53 682.09,-186.78 683.93,-193.54"/>
</g>
<!-- Node5 -->
<g id="node5" class="node">
<title>Node5</title>
<g id="a_node5"><a xlink:href="button_8h.html" target="_top" xlink:title=" ">
<polygon fill="white" stroke="black" points="278.5,-168.5 278.5,-187.5 425.5,-187.5 425.5,-168.5 278.5,-168.5"/>
<text text-anchor="middle" x="352" y="-175.5" font-family="Helvetica,sans-Serif" font-size="10.00">src/user_interface/button.h</text>
</a>
</g>
</g>
<!-- Node4&#45;&gt;Node5 -->
<g id="edge4" class="edge">
<title>Node4&#45;&gt;Node5</title>
<path fill="none" stroke="midnightblue" d="M352,-224.08C352,-217.01 352,-206.86 352,-197.99"/>
<polygon fill="midnightblue" stroke="midnightblue" points="355.5,-197.75 352,-187.75 348.5,-197.75 355.5,-197.75"/>
</g>
<!-- Node7 -->
<g id="node7" class="node">
<title>Node7</title>
<g id="a_node7"><a xlink:href="ui_8h.html" target="_top" xlink:title=" ">
<polygon fill="white" stroke="black" points="354.5,-112.5 354.5,-131.5 479.5,-131.5 479.5,-112.5 354.5,-112.5"/>
<text text-anchor="middle" x="417" y="-119.5" font-family="Helvetica,sans-Serif" font-size="10.00">src/user_interface/ui.h</text>
</a>
</g>
</g>
<!-- Node4&#45;&gt;Node7 -->
<g id="edge24" class="edge">
<title>Node4&#45;&gt;Node7</title>
<path fill="none" stroke="midnightblue" d="M384.18,-224.49C402.54,-217.8 424.02,-206.45 435,-188 443.77,-173.26 436.62,-154.12 428.89,-140.43"/>
<polygon fill="midnightblue" stroke="midnightblue" points="431.63,-138.21 423.38,-131.56 425.68,-141.9 431.63,-138.21"/>
</g>
<!-- Node14 -->
<g id="node14" class="node">
<title>Node14</title>
<g id="a_node14"><a xlink:href="image__viewer_8h.html" target="_top" xlink:title=" ">
<polygon fill="white" stroke="black" points="482,-168.5 482,-187.5 666,-187.5 666,-168.5 482,-168.5"/>
<text text-anchor="middle" x="574" y="-175.5" font-family="Helvetica,sans-Serif" font-size="10.00">src/user_interface/image_viewer.h</text>
</a>
</g>
</g>
<!-- Node4&#45;&gt;Node14 -->
<g id="edge18" class="edge">
<title>Node4&#45;&gt;Node14</title>
<path fill="none" stroke="midnightblue" d="M387.18,-224.44C425.58,-215.1 487.18,-200.12 529.06,-189.93"/>
<polygon fill="midnightblue" stroke="midnightblue" points="530.1,-193.28 538.99,-187.52 528.44,-186.48 530.1,-193.28"/>
</g>
<!-- Node15 -->
<g id="node15" class="node">
<title>Node15</title>
<g id="a_node15"><a xlink:href="selector_8h.html" target="_top" xlink:title=" ">
<polygon fill="white" stroke="black" points="106,-168.5 106,-187.5 260,-187.5 260,-168.5 106,-168.5"/>
<text text-anchor="middle" x="183" y="-175.5" font-family="Helvetica,sans-Serif" font-size="10.00">src/user_interface/selector.h</text>
</a>
</g>
</g>
<!-- Node4&#45;&gt;Node15 -->
<g id="edge20" class="edge">
<title>Node4&#45;&gt;Node15</title>
<path fill="none" stroke="midnightblue" d="M325.22,-224.44C296.67,-215.32 251.27,-200.81 219.46,-190.65"/>
<polygon fill="midnightblue" stroke="midnightblue" points="220.24,-187.23 209.65,-187.52 218.11,-193.89 220.24,-187.23"/>
</g>
<!-- Node6 -->
<g id="node6" class="node">
<title>Node6</title>
<g id="a_node6"><a xlink:title=" ">
<polygon fill="white" stroke="#bfbfbf" points="236,-56.5 236,-75.5 280,-75.5 280,-56.5 236,-56.5"/>
<text text-anchor="middle" x="258" y="-63.5" font-family="Helvetica,sans-Serif" font-size="10.00">string</text>
</a>
</g>
</g>
<!-- Node5&#45;&gt;Node6 -->
<g id="edge5" class="edge">
<title>Node5&#45;&gt;Node6</title>
<path fill="none" stroke="midnightblue" d="M344.62,-168.37C328.97,-150.05 292.22,-107.05 271.98,-83.36"/>
<polygon fill="midnightblue" stroke="midnightblue" points="274.5,-80.92 265.34,-75.59 269.18,-85.47 274.5,-80.92"/>
</g>
<!-- Node5&#45;&gt;Node7 -->
<g id="edge6" class="edge">
<title>Node5&#45;&gt;Node7</title>
<path fill="none" stroke="midnightblue" d="M362.44,-168.32C372.15,-160.26 386.82,-148.08 398.5,-138.37"/>
<polygon fill="midnightblue" stroke="midnightblue" points="400.91,-140.92 406.37,-131.83 396.44,-135.53 400.91,-140.92"/>
</g>
<!-- Node5&#45;&gt;Node11 -->
<g id="edge16" class="edge">
<title>Node5&#45;&gt;Node11</title>
<path fill="none" stroke="midnightblue" d="M382.43,-168.5C410.52,-160.3 453.19,-146.95 489,-132 506.98,-124.49 509.92,-119.24 528,-112 562.89,-98.03 603.81,-86.16 634.4,-78.12"/>
<polygon fill="midnightblue" stroke="midnightblue" points="635.55,-81.44 644.35,-75.55 633.79,-74.66 635.55,-81.44"/>
</g>
<!-- Node12 -->
<g id="node12" class="node">
<title>Node12</title>
<g id="a_node12"><a xlink:href="imgui_8h.html" target="_top" xlink:title=" ">
<polygon fill="white" stroke="black" points="298.5,-56.5 298.5,-75.5 393.5,-75.5 393.5,-56.5 298.5,-56.5"/>
<text text-anchor="middle" x="346" y="-63.5" font-family="Helvetica,sans-Serif" font-size="10.00">src/utils/imgui.h</text>
</a>
</g>
</g>
<!-- Node5&#45;&gt;Node12 -->
<g id="edge17" class="edge">
<title>Node5&#45;&gt;Node12</title>
<path fill="none" stroke="midnightblue" d="M350.51,-168.41C349.02,-159.38 346.85,-144.74 346,-132 344.97,-116.5 345.05,-98.87 345.34,-85.89"/>
<polygon fill="midnightblue" stroke="midnightblue" points="348.84,-85.94 345.63,-75.84 341.84,-85.74 348.84,-85.94"/>
</g>
<!-- Node7&#45;&gt;Node6 -->
<g id="edge8" class="edge">
<title>Node7&#45;&gt;Node6</title>
<path fill="none" stroke="midnightblue" d="M391.81,-112.44C364.11,-103.04 319.58,-87.91 289.58,-77.72"/>
<polygon fill="midnightblue" stroke="midnightblue" points="290.6,-74.37 280,-74.47 288.35,-81 290.6,-74.37"/>
</g>
<!-- Node8 -->
<g id="node8" class="node">
<title>Node8</title>
<g id="a_node8"><a xlink:title=" ">
<polygon fill="white" stroke="#bfbfbf" points="651,-0.5 651,-19.5 709,-19.5 709,-0.5 651,-0.5"/>
<text text-anchor="middle" x="680" y="-7.5" font-family="Helvetica,sans-Serif" font-size="10.00">memory</text>
</a>
</g>
</g>
<!-- Node7&#45;&gt;Node8 -->
<g id="edge7" class="edge">
<title>Node7&#45;&gt;Node8</title>
<path fill="none" stroke="midnightblue" d="M417.71,-112.31C419.36,-98.19 424.73,-70.41 442,-56 471.62,-31.29 581.05,-18.88 640.66,-13.84"/>
<polygon fill="midnightblue" stroke="midnightblue" points="641.15,-17.31 650.83,-13.01 640.58,-10.33 641.15,-17.31"/>
</g>
<!-- Node9 -->
<g id="node9" class="node">
<title>Node9</title>
<g id="a_node9"><a xlink:title=" ">
<polygon fill="white" stroke="#bfbfbf" points="450.5,-56.5 450.5,-75.5 543.5,-75.5 543.5,-56.5 450.5,-56.5"/>
<text text-anchor="middle" x="497" y="-63.5" font-family="Helvetica,sans-Serif" font-size="10.00">unordered_map</text>
</a>
</g>
</g>
<!-- Node7&#45;&gt;Node9 -->
<g id="edge9" class="edge">
<title>Node7&#45;&gt;Node9</title>
<path fill="none" stroke="midnightblue" d="M429.85,-112.32C442.22,-103.98 461.13,-91.21 475.74,-81.35"/>
<polygon fill="midnightblue" stroke="midnightblue" points="477.85,-84.15 484.18,-75.65 473.93,-78.35 477.85,-84.15"/>
</g>
<!-- Node10 -->
<g id="node10" class="node">
<title>Node10</title>
<g id="a_node10"><a xlink:title=" ">
<polygon fill="white" stroke="#bfbfbf" points="561.5,-56.5 561.5,-75.5 608.5,-75.5 608.5,-56.5 561.5,-56.5"/>
<text text-anchor="middle" x="585" y="-63.5" font-family="Helvetica,sans-Serif" font-size="10.00">vector</text>
</a>
</g>
</g>
<!-- Node7&#45;&gt;Node10 -->
<g id="edge10" class="edge">
<title>Node7&#45;&gt;Node10</title>
<path fill="none" stroke="midnightblue" d="M443.62,-112.44C472.92,-103.02 520.07,-87.87 551.78,-77.68"/>
<polygon fill="midnightblue" stroke="midnightblue" points="553.04,-80.95 561.49,-74.56 550.89,-74.29 553.04,-80.95"/>
</g>
<!-- Node7&#45;&gt;Node11 -->
<g id="edge11" class="edge">
<title>Node7&#45;&gt;Node11</title>
<path fill="none" stroke="midnightblue" d="M458.67,-112.44C504.75,-102.98 579,-87.74 628.63,-77.55"/>
<polygon fill="midnightblue" stroke="midnightblue" points="629.43,-80.96 638.52,-75.52 628.02,-74.1 629.43,-80.96"/>
</g>
<!-- Node7&#45;&gt;Node12 -->
<g id="edge14" class="edge">
<title>Node7&#45;&gt;Node12</title>
<path fill="none" stroke="midnightblue" d="M405.59,-112.32C394.89,-104.18 378.66,-91.84 365.84,-82.09"/>
<polygon fill="midnightblue" stroke="midnightblue" points="367.69,-79.1 357.61,-75.83 363.46,-84.67 367.69,-79.1"/>
</g>
<!-- Node11&#45;&gt;Node2 -->
<g id="edge12" class="edge">
<title>Node11&#45;&gt;Node2</title>
<path fill="none" stroke="midnightblue" d="M626.31,-57.21C546.02,-45.55 397.53,-24 335.92,-15.05"/>
<polygon fill="midnightblue" stroke="midnightblue" points="336.19,-11.56 325.8,-13.58 335.19,-18.48 336.19,-11.56"/>
</g>
<!-- Node11&#45;&gt;Node8 -->
<g id="edge13" class="edge">
<title>Node11&#45;&gt;Node8</title>
<path fill="none" stroke="midnightblue" d="M680,-56.08C680,-49.01 680,-38.86 680,-29.99"/>
<polygon fill="midnightblue" stroke="midnightblue" points="683.5,-29.75 680,-19.75 676.5,-29.75 683.5,-29.75"/>
</g>
<!-- Node13 -->
<g id="node13" class="node">
<title>Node13</title>
<g id="a_node13"><a xlink:title=" ">
<polygon fill="white" stroke="#bfbfbf" points="739,-0.5 739,-19.5 837,-19.5 837,-0.5 739,-0.5"/>
<text text-anchor="middle" x="788" y="-7.5" font-family="Helvetica,sans-Serif" font-size="10.00">bindings/imgui.h</text>
</a>
</g>
</g>
<!-- Node12&#45;&gt;Node13 -->
<g id="edge15" class="edge">
<title>Node12&#45;&gt;Node13</title>
<path fill="none" stroke="midnightblue" d="M393.58,-59.36C464.34,-50.95 601.48,-34.54 718,-20 721.45,-19.57 724.99,-19.12 728.57,-18.67"/>
<polygon fill="midnightblue" stroke="midnightblue" points="729.19,-22.12 738.67,-17.39 728.31,-15.18 729.19,-22.12"/>
</g>
<!-- Node14&#45;&gt;Node7 -->
<g id="edge19" class="edge">
<title>Node14&#45;&gt;Node7</title>
<path fill="none" stroke="midnightblue" d="M549.12,-168.44C522.71,-159.36 480.78,-144.94 451.26,-134.78"/>
<polygon fill="midnightblue" stroke="midnightblue" points="452.36,-131.46 441.76,-131.52 450.08,-138.08 452.36,-131.46"/>
</g>
<!-- Node15&#45;&gt;Node6 -->
<g id="edge22" class="edge">
<title>Node15&#45;&gt;Node6</title>
<path fill="none" stroke="midnightblue" d="M188.89,-168.37C201.26,-150.22 230.18,-107.8 246.42,-83.99"/>
<polygon fill="midnightblue" stroke="midnightblue" points="249.4,-85.83 252.14,-75.59 243.62,-81.88 249.4,-85.83"/>
</g>
<!-- Node15&#45;&gt;Node7 -->
<g id="edge23" class="edge">
<title>Node15&#45;&gt;Node7</title>
<path fill="none" stroke="midnightblue" d="M220.08,-168.44C260.73,-159.06 326.03,-143.99 370.18,-133.8"/>
<polygon fill="midnightblue" stroke="midnightblue" points="371.14,-137.18 380.1,-131.52 369.56,-130.35 371.14,-137.18"/>
</g>
<!-- Node16 -->
<g id="node16" class="node">
<title>Node16</title>
<g id="a_node16"><a xlink:title=" ">
<polygon fill="white" stroke="#bfbfbf" points="162,-112.5 162,-131.5 204,-131.5 204,-112.5 162,-112.5"/>
<text text-anchor="middle" x="183" y="-119.5" font-family="Helvetica,sans-Serif" font-size="10.00">array</text>
</a>
</g>
</g>
<!-- Node15&#45;&gt;Node16 -->
<g id="edge21" class="edge">
<title>Node15&#45;&gt;Node16</title>
<path fill="none" stroke="midnightblue" d="M183,-168.08C183,-161.01 183,-150.86 183,-141.99"/>
<polygon fill="midnightblue" stroke="midnightblue" points="186.5,-141.75 183,-131.75 179.5,-141.75 186.5,-141.75"/>
</g>
<!-- Node17&#45;&gt;Node3 -->
<g id="edge27" class="edge">
<title>Node17&#45;&gt;Node3</title>
<path fill="none" stroke="midnightblue" d="M184.23,-224.44C159.11,-215.4 119.29,-201.06 91.1,-190.92"/>
<polygon fill="midnightblue" stroke="midnightblue" points="92.25,-187.61 81.66,-187.52 89.88,-194.2 92.25,-187.61"/>
</g>
<!-- Node18&#45;&gt;Node6 -->
<g id="edge31" class="edge">
<title>Node18&#45;&gt;Node6</title>
<path fill="none" stroke="midnightblue" d="M711.95,-168.26C688.48,-151.32 638.14,-115.37 629,-112 489.88,-60.76 440.9,-102.72 290.33,-75.66"/>
<polygon fill="midnightblue" stroke="midnightblue" points="290.74,-72.18 280.27,-73.78 289.45,-79.06 290.74,-72.18"/>
</g>
<!-- Node18&#45;&gt;Node7 -->
<g id="edge34" class="edge">
<title>Node18&#45;&gt;Node7</title>
<path fill="none" stroke="midnightblue" d="M683.89,-169.6C680.88,-169.06 677.89,-168.52 675,-168 607.24,-155.87 529.38,-142.35 477.08,-133.32"/>
<polygon fill="midnightblue" stroke="midnightblue" points="477.41,-129.83 466.97,-131.58 476.23,-136.73 477.41,-129.83"/>
</g>
<!-- Node18&#45;&gt;Node8 -->
<g id="edge30" class="edge">
<title>Node18&#45;&gt;Node8</title>
<path fill="none" stroke="midnightblue" d="M728.8,-168.22C739.46,-147.45 762.65,-94.19 743,-56 735.92,-42.25 722.48,-31.77 709.82,-24.39"/>
<polygon fill="midnightblue" stroke="midnightblue" points="711.31,-21.22 700.85,-19.57 708,-27.39 711.31,-21.22"/>
</g>
<!-- Node18&#45;&gt;Node10 -->
<g id="edge32" class="edge">
<title>Node18&#45;&gt;Node10</title>
<path fill="none" stroke="midnightblue" d="M717.03,-168.26C706.21,-155.03 684.27,-129.6 662,-112 646.41,-99.67 627.09,-88.4 611.71,-80.21"/>
<polygon fill="midnightblue" stroke="midnightblue" points="613.2,-77.04 602.71,-75.54 609.97,-83.25 613.2,-77.04"/>
</g>
<!-- Node18&#45;&gt;Node11 -->
<g id="edge35" class="edge">
<title>Node18&#45;&gt;Node11</title>
<path fill="none" stroke="midnightblue" d="M720.92,-168.1C716.52,-155.51 708.06,-131.84 700,-112 696.33,-102.98 691.97,-93.08 688.26,-84.86"/>
<polygon fill="midnightblue" stroke="midnightblue" points="691.34,-83.19 684,-75.56 684.98,-86.11 691.34,-83.19"/>
</g>
<!-- Node18&#45;&gt;Node13 -->
<g id="edge33" class="edge">
<title>Node18&#45;&gt;Node13</title>
<path fill="none" stroke="midnightblue" d="M733.07,-168.2C741.32,-159.68 753.2,-146.05 760,-132 776.39,-98.16 783.44,-54.28 786.27,-29.74"/>
<polygon fill="midnightblue" stroke="midnightblue" points="789.77,-29.96 787.32,-19.65 782.81,-29.23 789.77,-29.96"/>
</g>
<!-- Node19 -->
<g id="node19" class="node">
<title>Node19</title>
<g id="a_node19"><a xlink:title=" ">
<polygon fill="white" stroke="#bfbfbf" points="536.5,-112.5 536.5,-131.5 619.5,-131.5 619.5,-112.5 536.5,-112.5"/>
<text text-anchor="middle" x="578" y="-119.5" font-family="Helvetica,sans-Serif" font-size="10.00">GLFW/glfw3.h</text>
</a>
</g>
</g>
<!-- Node18&#45;&gt;Node19 -->
<g id="edge29" class="edge">
<title>Node18&#45;&gt;Node19</title>
<path fill="none" stroke="midnightblue" d="M700.87,-168.44C676.52,-159.44 637.99,-145.19 610.58,-135.05"/>
<polygon fill="midnightblue" stroke="midnightblue" points="611.62,-131.7 601.03,-131.52 609.19,-138.27 611.62,-131.7"/>
</g>
</g>
</svg>
        <g id="navigator" transform="translate(0 0)" fill="#404254">
                <rect fill="#f2f5e9" fill-opacity="0.5" stroke="#606060" stroke-width=".5" x="0" y="0" width="60" height="60"/>
                <use id="zoomplus" xlink:href="#zoomPlus" x="17" y="9" onmousedown="handleZoom(evt,'in')"/>
                <use id="zoomminus" xlink:href="#zoomMin" x="42" y="9" onmousedown="handleZoom(evt,'out')"/>
                <use id="reset" xlink:href="#resetDef" x="30" y="36" onmousedown="handleReset()"/>
                <g id="arrowUp" xlink:href="#dirArrow" transform="translate(30 24)" onmousedown="handlePan(0,-1)">
                  <use xlink:href="#rim" fill="#404040">
                        <set attributeName="fill" to="#808080" begin="arrowUp.mouseover" end="arrowUp.mouseout"/>
                  </use>
                  <path fill="none" stroke="white" stroke-width="1.5" d="M0,-3.0v7 M-2.5,-0.5L0,-3.0L2.5,-0.5"/>
                </g>
                <g id="arrowRight" xlink:href="#dirArrow" transform="rotate(90) translate(36 -43)" onmousedown="handlePan(1,0)">
                  <use xlink:href="#rim" fill="#404040">
                        <set attributeName="fill" to="#808080" begin="arrowRight.mouseover" end="arrowRight.mouseout"/>
                  </use>
                  <path fill="none" stroke="white" stroke-width="1.5" d="M0,-3.0v7 M-2.5,-0.5L0,-3.0L2.5,-0.5"/>
                </g>
                <g id="arrowDown" xlink:href="#dirArrow" transform="rotate(180) translate(-30 -48)" onmousedown="handlePan(0,1)">
                  <use xlink:href="#rim" fill="#404040">
                        <set attributeName="fill" to="#808080" begin="arrowDown.mouseover" end="arrowDown.mouseout"/>
                  </use>
                  <path fill="none" stroke="white" stroke-width="1.5" d="M0,-3.0v7 M-2.5,-0.5L0,-3.0L2.5,-0.5"/>
                </g>
                <g id="arrowLeft" xlink:href="#dirArrow" transform="rotate(270) translate(-36 17)" onmousedown="handlePan(-1,0)">
                  <use xlink:href="#rim" fill="#404040">
                        <set attributeName="fill" to="#808080" begin="arrowLeft.mouseover" end="arrowLeft.mouseout"/>
                  </use>
                  <path fill="none" stroke="white" stroke-width="1.5" d="M0,-3.0v7 M-2.5,-0.5L0,-3.0L2.5,-0.5"/>
                </g>
        </g>
        <svg viewBox="0 0 15 15" width="100%" height="30px" preserveAspectRatio="xMaxYMin meet">
         <g id="arrow_out" transform="scale(0.3 0.3)">
          <a xlink:href="app_2main_8cpp__incl_org.svg" target="_base">
           <rect id="button" ry="5" rx="5" y="6" x="6" height="38" width="38"
                fill="#f2f5e9" fill-opacity="0.5" stroke="#606060" stroke-width="1.0"/>
           <path id="arrow"
             d="M 11.500037,31.436501 C 11.940474,20.09759 22.043105,11.32322 32.158766,21.979434 L 37.068811,17.246167 C 37.068811,17.246167 37.088388,32 37.088388,32 L 22.160133,31.978069 C 22.160133,31.978069 26.997745,27.140456 26.997745,27.140456 C 18.528582,18.264221 13.291696,25.230495 11.500037,31.436501 z"
             style="fill:#404040;"/>
          </a>
         </g>
        </svg>
</svg>
