<?xml version="1.0" encoding="UTF-8" standalone="no"?>
<!DOCTYPE svg PUBLIC "-//W3C//DTD SVG 1.1//EN"
 "http://www.w3.org/Graphics/SVG/1.1/DTD/svg11.dtd">
<!-- Generated by graphviz version 2.43.0 (0)
 -->
<!-- Title: app/main.cpp Pages: 1 -->
<svg width="1192pt" height="308pt"
 viewBox="0.00 0.00 1191.52 308.00" xmlns="http://www.w3.org/2000/svg" xmlns:xlink="http://www.w3.org/1999/xlink">
<g id="graph0" class="graph" transform="scale(1 1) rotate(0) translate(4 304)">
<title>app/main.cpp</title>
<polygon fill="white" stroke="transparent" points="-4,4 -4,-304 1187.52,-304 1187.52,4 -4,4"/>
<!-- Node1 -->
<g id="node1" class="node">
<title>Node1</title>
<g id="a_node1"><a xlink:title=" ">
<polygon fill="#bfbfbf" stroke="black" points="233.5,-280.5 233.5,-299.5 316.5,-299.5 316.5,-280.5 233.5,-280.5"/>
<text text-anchor="middle" x="275" y="-287.5" font-family="Helvetica,sans-Serif" font-size="10.00">app/main.cpp</text>
</a>
</g>
</g>
<!-- Node2 -->
<g id="node2" class="node">
<title>Node2</title>
<g id="a_node2"><a xlink:title=" ">
<polygon fill="white" stroke="#bfbfbf" points="321.5,-0.5 321.5,-19.5 356.5,-19.5 356.5,-0.5 321.5,-0.5"/>
<text text-anchor="middle" x="339" y="-7.5" font-family="Helvetica,sans-Serif" font-size="10.00">any</text>
</a>
</g>
</g>
<!-- Node1&#45;&gt;Node2 -->
<g id="edge1" class="edge">
<title>Node1&#45;&gt;Node2</title>
<path fill="none" stroke="midnightblue" d="M244.44,-280.44C224.08,-273.44 197.87,-261.75 180,-244 154.57,-218.74 137.9,-200.51 153,-168 155.29,-163.06 274.53,-64.25 320.86,-25.97"/>
<polygon fill="midnightblue" stroke="midnightblue" points="323.14,-28.63 328.62,-19.56 318.68,-23.23 323.14,-28.63"/>
</g>
<!-- Node3 -->
<g id="node3" class="node">
<title>Node3</title>
<g id="a_node3"><a xlink:title=" ">
<polygon fill="white" stroke="#bfbfbf" points="162,-168.5 162,-187.5 222,-187.5 222,-168.5 162,-168.5"/>
<text text-anchor="middle" x="192" y="-175.5" font-family="Helvetica,sans-Serif" font-size="10.00">iostream</text>
</a>
</g>
</g>
<!-- Node1&#45;&gt;Node3 -->
<g id="edge2" class="edge">
<title>Node1&#45;&gt;Node3</title>
<path fill="none" stroke="midnightblue" d="M242.01,-280.44C223.54,-273.77 202.05,-262.45 191,-244 182.67,-230.09 184,-211.33 186.78,-197.54"/>
<polygon fill="midnightblue" stroke="midnightblue" points="190.2,-198.28 189.15,-187.74 183.4,-196.63 190.2,-198.28"/>
</g>
<!-- Node4 -->
<g id="node4" class="node">
<title>Node4</title>
<g id="a_node4"><a xlink:href="user__interface_8h.html" target="_top" xlink:title=" ">
<polygon fill="white" stroke="black" points="560.5,-224.5 560.5,-243.5 673.5,-243.5 673.5,-224.5 560.5,-224.5"/>
<text text-anchor="middle" x="617" y="-231.5" font-family="Helvetica,sans-Serif" font-size="10.00">src/user_interface.h</text>
</a>
</g>
</g>
<!-- Node1&#45;&gt;Node4 -->
<g id="edge3" class="edge">
<title>Node1&#45;&gt;Node4</title>
<path fill="none" stroke="midnightblue" d="M316.59,-282.43C375.55,-273.12 483.94,-256.01 553.14,-245.08"/>
<polygon fill="midnightblue" stroke="midnightblue" points="553.72,-248.53 563.05,-243.52 552.63,-241.62 553.72,-248.53"/>
</g>
<!-- Node11 -->
<g id="node11" class="node">
<title>Node11</title>
<g id="a_node11"><a xlink:href="callback_8h.html" target="_top" xlink:title=" ">
<polygon fill="white" stroke="black" points="472.5,-56.5 472.5,-75.5 579.5,-75.5 579.5,-56.5 472.5,-56.5"/>
<text text-anchor="middle" x="526" y="-63.5" font-family="Helvetica,sans-Serif" font-size="10.00">src/utils/callback.h</text>
</a>
</g>
</g>
<!-- Node1&#45;&gt;Node11 -->
<g id="edge33" class="edge">
<title>Node1&#45;&gt;Node11</title>
<path fill="none" stroke="midnightblue" d="M280.11,-280.12C286.68,-267.56 296.6,-243.91 291,-224 283.76,-198.26 253.94,-190.1 269,-168 312.09,-104.77 401.35,-81.12 462.46,-72.28"/>
<polygon fill="midnightblue" stroke="midnightblue" points="462.95,-75.75 472.39,-70.94 462.02,-68.81 462.95,-75.75"/>
</g>
<!-- Node21 -->
<g id="node21" class="node">
<title>Node21</title>
<g id="a_node21"><a xlink:href="log_8h.html" target="_top" xlink:title=" ">
<polygon fill="white" stroke="black" points="200,-224.5 200,-243.5 282,-243.5 282,-224.5 200,-224.5"/>
<text text-anchor="middle" x="241" y="-231.5" font-family="Helvetica,sans-Serif" font-size="10.00">src/utils/log.h</text>
</a>
</g>
</g>
<!-- Node1&#45;&gt;Node21 -->
<g id="edge34" class="edge">
<title>Node1&#45;&gt;Node21</title>
<path fill="none" stroke="midnightblue" d="M269.39,-280.08C264.63,-272.53 257.68,-261.49 251.85,-252.23"/>
<polygon fill="midnightblue" stroke="midnightblue" points="254.8,-250.35 246.51,-243.75 248.88,-254.08 254.8,-250.35"/>
</g>
<!-- Node22 -->
<g id="node22" class="node">
<title>Node22</title>
<g id="a_node22"><a xlink:href="window_8h.html" target="_top" xlink:title=" ">
<polygon fill="white" stroke="black" points="1043,-168.5 1043,-187.5 1123,-187.5 1123,-168.5 1043,-168.5"/>
<text text-anchor="middle" x="1083" y="-175.5" font-family="Helvetica,sans-Serif" font-size="10.00">src/window.h</text>
</a>
</g>
</g>
<!-- Node1&#45;&gt;Node22 -->
<g id="edge36" class="edge">
<title>Node1&#45;&gt;Node22</title>
<path fill="none" stroke="midnightblue" d="M316.78,-285.06C390.75,-277.95 549.52,-262 683,-244 836.35,-223.32 876.66,-215.06 1032.93,-188.16"/>
<polygon fill="midnightblue" stroke="midnightblue" points="1033.64,-191.59 1042.9,-186.44 1032.45,-184.69 1033.64,-191.59"/>
</g>
<!-- Node5 -->
<g id="node5" class="node">
<title>Node5</title>
<g id="a_node5"><a xlink:href="button_8h.html" target="_top" xlink:title=" ">
<polygon fill="white" stroke="black" points="705.5,-168.5 705.5,-187.5 852.5,-187.5 852.5,-168.5 705.5,-168.5"/>
<text text-anchor="middle" x="779" y="-175.5" font-family="Helvetica,sans-Serif" font-size="10.00">src/user_interface/button.h</text>
</a>
</g>
</g>
<!-- Node4&#45;&gt;Node5 -->
<g id="edge4" class="edge">
<title>Node4&#45;&gt;Node5</title>
<path fill="none" stroke="midnightblue" d="M642.67,-224.44C669.92,-215.36 713.18,-200.94 743.65,-190.78"/>
<polygon fill="midnightblue" stroke="midnightblue" points="745.07,-194 753.45,-187.52 742.86,-187.36 745.07,-194"/>
</g>
<!-- Node7 -->
<g id="node7" class="node">
<title>Node7</title>
<g id="a_node7"><a xlink:href="ui_8h.html" target="_top" xlink:title=" ">
<polygon fill="white" stroke="black" points="611.5,-112.5 611.5,-131.5 736.5,-131.5 736.5,-112.5 611.5,-112.5"/>
<text text-anchor="middle" x="674" y="-119.5" font-family="Helvetica,sans-Serif" font-size="10.00">src/user_interface/ui.h</text>
</a>
</g>
</g>
<!-- Node4&#45;&gt;Node7 -->
<g id="edge32" class="edge">
<title>Node4&#45;&gt;Node7</title>
<path fill="none" stroke="midnightblue" d="M627.33,-224.42C636.71,-216.07 650.24,-202.55 658,-188 665.69,-173.58 669.76,-155.39 671.87,-141.92"/>
<polygon fill="midnightblue" stroke="midnightblue" points="675.35,-142.28 673.21,-131.9 668.41,-141.35 675.35,-142.28"/>
</g>
<!-- Node14 -->
<g id="node14" class="node">
<title>Node14</title>
<g id="a_node14"><a xlink:href="image__viewer_8h.html" target="_top" xlink:title=" ">
<polygon fill="white" stroke="black" points="465,-168.5 465,-187.5 649,-187.5 649,-168.5 465,-168.5"/>
<text text-anchor="middle" x="557" y="-175.5" font-family="Helvetica,sans-Serif" font-size="10.00">src/user_interface/image_viewer.h</text>
</a>
</g>
</g>
<!-- Node4&#45;&gt;Node14 -->
<g id="edge18" class="edge">
<title>Node4&#45;&gt;Node14</title>
<path fill="none" stroke="midnightblue" d="M607.36,-224.32C598.49,-216.34 585.13,-204.31 574.39,-194.65"/>
<polygon fill="midnightblue" stroke="midnightblue" points="576.59,-191.92 566.82,-187.83 571.91,-197.13 576.59,-191.92"/>
</g>
<!-- Node15 -->
<g id="node15" class="node">
<title>Node15</title>
<g id="a_node15"><a xlink:href="selector_8h.html" target="_top" xlink:title=" ">
<polygon fill="white" stroke="black" points="871,-168.5 871,-187.5 1025,-187.5 1025,-168.5 871,-168.5"/>
<text text-anchor="middle" x="948" y="-175.5" font-family="Helvetica,sans-Serif" font-size="10.00">src/user_interface/selector.h</text>
</a>
</g>
</g>
<!-- Node4&#45;&gt;Node15 -->
<g id="edge20" class="edge">
<title>Node4&#45;&gt;Node15</title>
<path fill="none" stroke="midnightblue" d="M669.45,-224.44C728.16,-214.87 823.23,-199.36 885.68,-189.17"/>
<polygon fill="midnightblue" stroke="midnightblue" points="886.49,-192.58 895.8,-187.52 885.36,-185.67 886.49,-192.58"/>
</g>
<!-- Node17 -->
<g id="node17" class="node">
<title>Node17</title>
<g id="a_node17"><a xlink:href="top__viewer_8h.html" target="_top" xlink:title=" ">
<polygon fill="white" stroke="black" points="277.5,-168.5 277.5,-187.5 446.5,-187.5 446.5,-168.5 277.5,-168.5"/>
<text text-anchor="middle" x="362" y="-175.5" font-family="Helvetica,sans-Serif" font-size="10.00">src/user_interface/top_viewer.h</text>
</a>
</g>
</g>
<!-- Node4&#45;&gt;Node17 -->
<g id="edge24" class="edge">
<title>Node4&#45;&gt;Node17</title>
<path fill="none" stroke="midnightblue" d="M576.59,-224.44C532.02,-215 460.23,-199.8 412.11,-189.61"/>
<polygon fill="midnightblue" stroke="midnightblue" points="412.72,-186.16 402.22,-187.52 411.27,-193.01 412.72,-186.16"/>
</g>
<!-- Node6 -->
<g id="node6" class="node">
<title>Node6</title>
<g id="a_node6"><a xlink:title=" ">
<polygon fill="white" stroke="#bfbfbf" points="889,-56.5 889,-75.5 933,-75.5 933,-56.5 889,-56.5"/>
<text text-anchor="middle" x="911" y="-63.5" font-family="Helvetica,sans-Serif" font-size="10.00">string</text>
</a>
</g>
</g>
<!-- Node5&#45;&gt;Node6 -->
<g id="edge5" class="edge">
<title>Node5&#45;&gt;Node6</title>
<path fill="none" stroke="midnightblue" d="M782.88,-168.4C789.32,-154.89 803.4,-128.55 822,-112 838.77,-97.07 861.39,-85.72 879.63,-78.15"/>
<polygon fill="midnightblue" stroke="midnightblue" points="880.98,-81.38 888.98,-74.44 878.4,-74.88 880.98,-81.38"/>
</g>
<!-- Node5&#45;&gt;Node7 -->
<g id="edge6" class="edge">
<title>Node5&#45;&gt;Node7</title>
<path fill="none" stroke="midnightblue" d="M762.13,-168.32C745.29,-159.66 719.19,-146.24 699.76,-136.25"/>
<polygon fill="midnightblue" stroke="midnightblue" points="701.32,-133.12 690.83,-131.65 698.12,-139.34 701.32,-133.12"/>
</g>
<!-- Node5&#45;&gt;Node11 -->
<g id="edge16" class="edge">
<title>Node5&#45;&gt;Node11</title>
<path fill="none" stroke="midnightblue" d="M718.33,-168.44C683.23,-161.83 639.03,-150.56 603,-132 578.59,-119.43 555.17,-97.84 540.7,-83.02"/>
<polygon fill="midnightblue" stroke="midnightblue" points="543.06,-80.42 533.63,-75.58 537.99,-85.24 543.06,-80.42"/>
</g>
<!-- Node12 -->
<g id="node12" class="node">
<title>Node12</title>
<g id="a_node12"><a xlink:href="imgui_8h.html" target="_top" xlink:title=" ">
<polygon fill="white" stroke="black" points="747.5,-56.5 747.5,-75.5 842.5,-75.5 842.5,-56.5 747.5,-56.5"/>
<text text-anchor="middle" x="795" y="-63.5" font-family="Helvetica,sans-Serif" font-size="10.00">src/utils/imgui.h</text>
</a>
</g>
</g>
<!-- Node5&#45;&gt;Node12 -->
<g id="edge17" class="edge">
<title>Node5&#45;&gt;Node12</title>
<path fill="none" stroke="midnightblue" d="M780.26,-168.37C782.84,-150.62 788.79,-109.67 792.29,-85.6"/>
<polygon fill="midnightblue" stroke="midnightblue" points="795.77,-85.99 793.75,-75.59 788.85,-84.98 795.77,-85.99"/>
</g>
<!-- Node7&#45;&gt;Node6 -->
<g id="edge8" class="edge">
<title>Node7&#45;&gt;Node6</title>
<path fill="none" stroke="midnightblue" d="M711.55,-112.44C757.83,-101.9 835.67,-84.16 879.15,-74.26"/>
<polygon fill="midnightblue" stroke="midnightblue" points="879.94,-77.67 888.92,-72.03 878.39,-70.84 879.94,-77.67"/>
</g>
<!-- Node8 -->
<g id="node8" class="node">
<title>Node8</title>
<g id="a_node8"><a xlink:title=" ">
<polygon fill="white" stroke="#bfbfbf" points="583,-0.5 583,-19.5 641,-19.5 641,-0.5 583,-0.5"/>
<text text-anchor="middle" x="612" y="-7.5" font-family="Helvetica,sans-Serif" font-size="10.00">memory</text>
</a>
</g>
</g>
<!-- Node7&#45;&gt;Node8 -->
<g id="edge7" class="edge">
<title>Node7&#45;&gt;Node8</title>
<path fill="none" stroke="midnightblue" d="M682.53,-112.15C693.92,-99.22 711.42,-74.66 700,-56 689.22,-38.38 669.12,-27.38 650.85,-20.67"/>
<polygon fill="midnightblue" stroke="midnightblue" points="651.84,-17.31 641.25,-17.46 649.62,-23.95 651.84,-17.31"/>
</g>
<!-- Node9 -->
<g id="node9" class="node">
<title>Node9</title>
<g id="a_node9"><a xlink:title=" ">
<polygon fill="white" stroke="#bfbfbf" points="597.5,-56.5 597.5,-75.5 690.5,-75.5 690.5,-56.5 597.5,-56.5"/>
<text text-anchor="middle" x="644" y="-63.5" font-family="Helvetica,sans-Serif" font-size="10.00">unordered_map</text>
</a>
</g>
</g>
<!-- Node7&#45;&gt;Node9 -->
<g id="edge9" class="edge">
<title>Node7&#45;&gt;Node9</title>
<path fill="none" stroke="midnightblue" d="M669.05,-112.08C664.9,-104.61 658.85,-93.72 653.73,-84.52"/>
<polygon fill="midnightblue" stroke="midnightblue" points="656.78,-82.79 648.86,-75.75 650.66,-86.19 656.78,-82.79"/>
</g>
<!-- Node10 -->
<g id="node10" class="node">
<title>Node10</title>
<g id="a_node10"><a xlink:title=" ">
<polygon fill="white" stroke="#bfbfbf" points="169.5,-0.5 169.5,-19.5 216.5,-19.5 216.5,-0.5 169.5,-0.5"/>
<text text-anchor="middle" x="193" y="-7.5" font-family="Helvetica,sans-Serif" font-size="10.00">vector</text>
</a>
</g>
</g>
<!-- Node7&#45;&gt;Node10 -->
<g id="edge10" class="edge">
<title>Node7&#45;&gt;Node10</title>
<path fill="none" stroke="midnightblue" d="M632.89,-112.5C590.51,-103.66 522.54,-89.29 464,-76 378.15,-56.51 277.42,-31.89 226.35,-19.27"/>
<polygon fill="midnightblue" stroke="midnightblue" points="227.06,-15.85 216.52,-16.84 225.38,-22.64 227.06,-15.85"/>
</g>
<!-- Node7&#45;&gt;Node11 -->
<g id="edge11" class="edge">
<title>Node7&#45;&gt;Node11</title>
<path fill="none" stroke="midnightblue" d="M650.55,-112.44C625.87,-103.44 586.81,-89.19 559.02,-79.05"/>
<polygon fill="midnightblue" stroke="midnightblue" points="559.94,-75.66 549.34,-75.52 557.54,-82.23 559.94,-75.66"/>
</g>
<!-- Node7&#45;&gt;Node12 -->
<g id="edge14" class="edge">
<title>Node7&#45;&gt;Node12</title>
<path fill="none" stroke="midnightblue" d="M693.17,-112.44C712.91,-103.64 743.89,-89.81 766.49,-79.72"/>
<polygon fill="midnightblue" stroke="midnightblue" points="768.21,-82.79 775.92,-75.52 765.36,-76.4 768.21,-82.79"/>
</g>
<!-- Node11&#45;&gt;Node2 -->
<g id="edge12" class="edge">
<title>Node11&#45;&gt;Node2</title>
<path fill="none" stroke="midnightblue" d="M496.37,-56.44C460.72,-46.15 401.33,-29 366.61,-18.97"/>
<polygon fill="midnightblue" stroke="midnightblue" points="367.25,-15.52 356.68,-16.1 365.31,-22.24 367.25,-15.52"/>
</g>
<!-- Node11&#45;&gt;Node8 -->
<g id="edge13" class="edge">
<title>Node11&#45;&gt;Node8</title>
<path fill="none" stroke="midnightblue" d="M539.82,-56.32C553.23,-47.9 573.82,-34.97 589.59,-25.07"/>
<polygon fill="midnightblue" stroke="midnightblue" points="591.61,-27.94 598.22,-19.65 587.89,-22.01 591.61,-27.94"/>
</g>
<!-- Node13 -->
<g id="node13" class="node">
<title>Node13</title>
<g id="a_node13"><a xlink:title=" ">
<polygon fill="white" stroke="#bfbfbf" points="945,-0.5 945,-19.5 1043,-19.5 1043,-0.5 945,-0.5"/>
<text text-anchor="middle" x="994" y="-7.5" font-family="Helvetica,sans-Serif" font-size="10.00">bindings/imgui.h</text>
</a>
</g>
</g>
<!-- Node12&#45;&gt;Node13 -->
<g id="edge15" class="edge">
<title>Node12&#45;&gt;Node13</title>
<path fill="none" stroke="midnightblue" d="M826.53,-56.44C860.59,-47.2 915.01,-32.44 952.52,-22.26"/>
<polygon fill="midnightblue" stroke="midnightblue" points="953.88,-25.51 962.62,-19.52 952.05,-18.76 953.88,-25.51"/>
</g>
<!-- Node14&#45;&gt;Node7 -->
<g id="edge19" class="edge">
<title>Node14&#45;&gt;Node7</title>
<path fill="none" stroke="midnightblue" d="M575.54,-168.44C594.62,-159.64 624.57,-145.81 646.44,-135.72"/>
<polygon fill="midnightblue" stroke="midnightblue" points="647.93,-138.88 655.55,-131.52 645,-132.53 647.93,-138.88"/>
</g>
<!-- Node15&#45;&gt;Node6 -->
<g id="edge22" class="edge">
<title>Node15&#45;&gt;Node6</title>
<path fill="none" stroke="midnightblue" d="M945.1,-168.37C939.1,-150.54 925.23,-109.3 917.15,-85.27"/>
<polygon fill="midnightblue" stroke="midnightblue" points="920.4,-83.95 913.89,-75.59 913.76,-86.19 920.4,-83.95"/>
</g>
<!-- Node15&#45;&gt;Node7 -->
<g id="edge23" class="edge">
<title>Node15&#45;&gt;Node7</title>
<path fill="none" stroke="midnightblue" d="M904.58,-168.44C856.48,-158.96 778.91,-143.67 727.19,-133.48"/>
<polygon fill="midnightblue" stroke="midnightblue" points="727.7,-130.02 717.21,-131.52 726.35,-136.88 727.7,-130.02"/>
</g>
<!-- Node16 -->
<g id="node16" class="node">
<title>Node16</title>
<g id="a_node16"><a xlink:title=" ">
<polygon fill="white" stroke="#bfbfbf" points="831,-112.5 831,-131.5 873,-131.5 873,-112.5 831,-112.5"/>
<text text-anchor="middle" x="852" y="-119.5" font-family="Helvetica,sans-Serif" font-size="10.00">array</text>
</a>
</g>
</g>
<!-- Node15&#45;&gt;Node16 -->
<g id="edge21" class="edge">
<title>Node15&#45;&gt;Node16</title>
<path fill="none" stroke="midnightblue" d="M932.58,-168.32C917.46,-159.82 894.18,-146.73 876.53,-136.8"/>
<polygon fill="midnightblue" stroke="midnightblue" points="877.82,-133.51 867.39,-131.65 874.39,-139.61 877.82,-133.51"/>
</g>
<!-- Node17&#45;&gt;Node7 -->
<g id="edge31" class="edge">
<title>Node17&#45;&gt;Node7</title>
<path fill="none" stroke="midnightblue" d="M411.44,-168.44C466.66,-158.89 556.02,-143.42 614.89,-133.23"/>
<polygon fill="midnightblue" stroke="midnightblue" points="615.54,-136.67 624.79,-131.52 614.34,-129.77 615.54,-136.67"/>
</g>
<!-- Node18 -->
<g id="node18" class="node">
<title>Node18</title>
<g id="a_node18"><a xlink:href="frame_8h.html" target="_top" xlink:title=" ">
<polygon fill="white" stroke="black" points="38,-112.5 38,-131.5 184,-131.5 184,-112.5 38,-112.5"/>
<text text-anchor="middle" x="111" y="-119.5" font-family="Helvetica,sans-Serif" font-size="10.00">src/data_structure/frame.h</text>
</a>
</g>
</g>
<!-- Node17&#45;&gt;Node18 -->
<g id="edge25" class="edge">
<title>Node17&#45;&gt;Node18</title>
<path fill="none" stroke="midnightblue" d="M322.23,-168.44C278.44,-159.02 207.99,-143.87 160.62,-133.68"/>
<polygon fill="midnightblue" stroke="midnightblue" points="161.1,-130.2 150.59,-131.52 159.63,-137.04 161.1,-130.2"/>
</g>
<!-- Node18&#45;&gt;Node10 -->
<g id="edge26" class="edge">
<title>Node18&#45;&gt;Node10</title>
<path fill="none" stroke="midnightblue" d="M120.8,-112.3C130.22,-103.65 144.53,-89.73 155,-76 166.37,-61.09 176.93,-42.48 184.02,-29"/>
<polygon fill="midnightblue" stroke="midnightblue" points="187.27,-30.33 188.71,-19.84 181.04,-27.14 187.27,-30.33"/>
</g>
<!-- Node19 -->
<g id="node19" class="node">
<title>Node19</title>
<g id="a_node19"><a xlink:href="shape_8h.html" target="_top" xlink:title=" ">
<polygon fill="white" stroke="black" points="0,-56.5 0,-75.5 146,-75.5 146,-56.5 0,-56.5"/>
<text text-anchor="middle" x="73" y="-63.5" font-family="Helvetica,sans-Serif" font-size="10.00">src/data_structure/shape.h</text>
</a>
</g>
</g>
<!-- Node18&#45;&gt;Node19 -->
<g id="edge27" class="edge">
<title>Node18&#45;&gt;Node19</title>
<path fill="none" stroke="midnightblue" d="M104.73,-112.08C99.36,-104.46 91.48,-93.26 84.92,-83.94"/>
<polygon fill="midnightblue" stroke="midnightblue" points="87.78,-81.91 79.16,-75.75 82.05,-85.94 87.78,-81.91"/>
</g>
<!-- Node19&#45;&gt;Node8 -->
<g id="edge29" class="edge">
<title>Node19&#45;&gt;Node8</title>
<path fill="none" stroke="midnightblue" d="M146.25,-57.66C261.99,-46.07 483.18,-23.91 572.82,-14.93"/>
<polygon fill="midnightblue" stroke="midnightblue" points="573.23,-18.4 582.83,-13.92 572.54,-11.44 573.23,-18.4"/>
</g>
<!-- Node19&#45;&gt;Node10 -->
<g id="edge30" class="edge">
<title>Node19&#45;&gt;Node10</title>
<path fill="none" stroke="midnightblue" d="M92.01,-56.44C111.59,-47.64 142.31,-33.81 164.73,-23.72"/>
<polygon fill="midnightblue" stroke="midnightblue" points="166.39,-26.81 174.07,-19.52 163.52,-20.43 166.39,-26.81"/>
</g>
<!-- Node20 -->
<g id="node20" class="node">
<title>Node20</title>
<g id="a_node20"><a xlink:title=" ">
<polygon fill="white" stroke="#bfbfbf" points="34.5,-0.5 34.5,-19.5 111.5,-19.5 111.5,-0.5 34.5,-0.5"/>
<text text-anchor="middle" x="73" y="-7.5" font-family="Helvetica,sans-Serif" font-size="10.00">Eigen/Dense</text>
</a>
</g>
</g>
<!-- Node19&#45;&gt;Node20 -->
<g id="edge28" class="edge">
<title>Node19&#45;&gt;Node20</title>
<path fill="none" stroke="midnightblue" d="M73,-56.08C73,-49.01 73,-38.86 73,-29.99"/>
<polygon fill="midnightblue" stroke="midnightblue" points="76.5,-29.75 73,-19.75 69.5,-29.75 76.5,-29.75"/>
</g>
<!-- Node21&#45;&gt;Node3 -->
<g id="edge35" class="edge">
<title>Node21&#45;&gt;Node3</title>
<path fill="none" stroke="midnightblue" d="M232.91,-224.08C225.84,-216.3 215.41,-204.8 206.85,-195.37"/>
<polygon fill="midnightblue" stroke="midnightblue" points="209.25,-192.8 199.94,-187.75 204.07,-197.51 209.25,-192.8"/>
</g>
<!-- Node22&#45;&gt;Node6 -->
<g id="edge39" class="edge">
<title>Node22&#45;&gt;Node6</title>
<path fill="none" stroke="midnightblue" d="M1066,-168.46C1049.17,-159.81 1022.83,-145.8 1001,-132 975.66,-115.98 947.89,-95.43 929.99,-81.77"/>
<polygon fill="midnightblue" stroke="midnightblue" points="932.12,-78.99 922.05,-75.67 927.85,-84.54 932.12,-78.99"/>
</g>
<!-- Node22&#45;&gt;Node7 -->
<g id="edge42" class="edge">
<title>Node22&#45;&gt;Node7</title>
<path fill="none" stroke="midnightblue" d="M1042.92,-169.45C1039.91,-168.94 1036.91,-168.45 1034,-168 934.71,-152.69 819.4,-138.99 746.57,-130.84"/>
<polygon fill="midnightblue" stroke="midnightblue" points="746.91,-127.35 736.59,-129.72 746.14,-134.31 746.91,-127.35"/>
</g>
<!-- Node22&#45;&gt;Node8 -->
<g id="edge38" class="edge">
<title>Node22&#45;&gt;Node8</title>
<path fill="none" stroke="midnightblue" d="M1099.18,-168.35C1119.24,-156.42 1149.27,-133.92 1136,-112 1108.21,-66.08 1080.36,-71.6 1029,-56 894.86,-15.26 726.62,-10.35 651.45,-10.41"/>
<polygon fill="midnightblue" stroke="midnightblue" points="651.03,-6.92 641.05,-10.46 651.06,-13.92 651.03,-6.92"/>
</g>
<!-- Node22&#45;&gt;Node10 -->
<g id="edge40" class="edge">
<title>Node22&#45;&gt;Node10</title>
<path fill="none" stroke="midnightblue" d="M1073.75,-168.45C1044.96,-141.92 957.93,-62.42 942,-56 812.15,-3.65 452.7,-29.24 313,-20 283.95,-18.08 250.96,-15.58 226.93,-13.71"/>
<polygon fill="midnightblue" stroke="midnightblue" points="227.14,-10.21 216.9,-12.92 226.59,-17.19 227.14,-10.21"/>
</g>
<!-- Node22&#45;&gt;Node11 -->
<g id="edge43" class="edge">
<title>Node22&#45;&gt;Node11</title>
<path fill="none" stroke="midnightblue" d="M1061.37,-168.49C1024.94,-154.51 948.79,-126.76 882,-112 757.02,-84.38 720.82,-92.83 589.64,-76.04"/>
<polygon fill="midnightblue" stroke="midnightblue" points="589.98,-72.55 579.61,-74.73 589.07,-79.5 589.98,-72.55"/>
</g>
<!-- Node22&#45;&gt;Node13 -->
<g id="edge41" class="edge">
<title>Node22&#45;&gt;Node13</title>
<path fill="none" stroke="midnightblue" d="M1117.18,-168.49C1135.99,-161.88 1157.74,-150.6 1169,-132 1186.49,-103.1 1189.7,-82.69 1169,-56 1154.75,-37.62 1098.29,-25.43 1053.3,-18.43"/>
<polygon fill="midnightblue" stroke="midnightblue" points="1053.73,-14.96 1043.32,-16.93 1052.69,-21.88 1053.73,-14.96"/>
</g>
<!-- Node23 -->
<g id="node23" class="node">
<title>Node23</title>
<g id="a_node23"><a xlink:title=" ">
<polygon fill="white" stroke="#bfbfbf" points="1043.5,-112.5 1043.5,-131.5 1126.5,-131.5 1126.5,-112.5 1043.5,-112.5"/>
<text text-anchor="middle" x="1085" y="-119.5" font-family="Helvetica,sans-Serif" font-size="10.00">GLFW/glfw3.h</text>
</a>
</g>
</g>
<!-- Node22&#45;&gt;Node23 -->
<g id="edge37" class="edge">
<title>Node22&#45;&gt;Node23</title>
<path fill="none" stroke="midnightblue" d="M1083.33,-168.08C1083.59,-161.01 1083.97,-150.86 1084.3,-141.99"/>
<polygon fill="midnightblue" stroke="midnightblue" points="1087.8,-141.87 1084.68,-131.75 1080.81,-141.61 1087.8,-141.87"/>
</g>
</g>
</svg>
