<?xml version="1.0" encoding="UTF-8" standalone="no"?>
<!DOCTYPE svg PUBLIC "-//W3C//DTD SVG 1.1//EN"
 "http://www.w3.org/Graphics/SVG/1.1/DTD/svg11.dtd">
<!-- Generated by graphviz version 2.43.0 (0)
 -->
<!-- Title: app/main.cpp Pages: 1 -->
<svg width="829pt" height="308pt"
 viewBox="0.00 0.00 828.54 308.00" xmlns="http://www.w3.org/2000/svg" xmlns:xlink="http://www.w3.org/1999/xlink">
<g id="graph0" class="graph" transform="scale(1 1) rotate(0) translate(4 304)">
<title>app/main.cpp</title>
<polygon fill="white" stroke="transparent" points="-4,4 -4,-304 824.54,-304 824.54,4 -4,4"/>
<!-- Node1 -->
<g id="node1" class="node">
<title>Node1</title>
<g id="a_node1"><a xlink:title=" ">
<polygon fill="#bfbfbf" stroke="black" points="99.5,-280.5 99.5,-299.5 182.5,-299.5 182.5,-280.5 99.5,-280.5"/>
<text text-anchor="middle" x="141" y="-287.5" font-family="Helvetica,sans-Serif" font-size="10.00">app/main.cpp</text>
</a>
</g>
</g>
<!-- Node2 -->
<g id="node2" class="node">
<title>Node2</title>
<g id="a_node2"><a xlink:title=" ">
<polygon fill="white" stroke="#bfbfbf" points="93.5,-0.5 93.5,-19.5 128.5,-19.5 128.5,-0.5 93.5,-0.5"/>
<text text-anchor="middle" x="111" y="-7.5" font-family="Helvetica,sans-Serif" font-size="10.00">any</text>
</a>
</g>
</g>
<!-- Node1&#45;&gt;Node2 -->
<g id="edge1" class="edge">
<title>Node1&#45;&gt;Node2</title>
<path fill="none" stroke="midnightblue" d="M111.1,-280.45C69.71,-266.56 0,-234.89 0,-179 0,-179 0,-179 0,-121 0,-73.84 51.18,-40 84.04,-23.14"/>
<polygon fill="midnightblue" stroke="midnightblue" points="85.74,-26.21 93.17,-18.65 82.65,-19.93 85.74,-26.21"/>
</g>
<!-- Node3 -->
<g id="node3" class="node">
<title>Node3</title>
<g id="a_node3"><a xlink:title=" ">
<polygon fill="white" stroke="#bfbfbf" points="53,-168.5 53,-187.5 113,-187.5 113,-168.5 53,-168.5"/>
<text text-anchor="middle" x="83" y="-175.5" font-family="Helvetica,sans-Serif" font-size="10.00">iostream</text>
</a>
</g>
</g>
<!-- Node1&#45;&gt;Node3 -->
<g id="edge2" class="edge">
<title>Node1&#45;&gt;Node3</title>
<path fill="none" stroke="midnightblue" d="M108.01,-280.44C89.54,-273.77 68.05,-262.45 57,-244 47.78,-228.6 57.85,-209.34 68.02,-195.8"/>
<polygon fill="midnightblue" stroke="midnightblue" points="70.91,-197.79 74.51,-187.82 65.49,-193.37 70.91,-197.79"/>
</g>
<!-- Node4 -->
<g id="node4" class="node">
<title>Node4</title>
<g id="a_node4"><a xlink:href="user__interface_8h.html" target="_top" xlink:title=" ">
<polygon fill="white" stroke="black" points="302.5,-224.5 302.5,-243.5 415.5,-243.5 415.5,-224.5 302.5,-224.5"/>
<text text-anchor="middle" x="359" y="-231.5" font-family="Helvetica,sans-Serif" font-size="10.00">src/user_interface.h</text>
</a>
</g>
</g>
<!-- Node1&#45;&gt;Node4 -->
<g id="edge3" class="edge">
<title>Node1&#45;&gt;Node4</title>
<path fill="none" stroke="midnightblue" d="M175.54,-280.44C213.25,-271.1 273.74,-256.12 314.86,-245.93"/>
<polygon fill="midnightblue" stroke="midnightblue" points="315.75,-249.32 324.62,-243.52 314.07,-242.52 315.75,-249.32"/>
</g>
<!-- Node11 -->
<g id="node11" class="node">
<title>Node11</title>
<g id="a_node11"><a xlink:href="callback_8h.html" target="_top" xlink:title=" ">
<polygon fill="white" stroke="black" points="168.5,-56.5 168.5,-75.5 275.5,-75.5 275.5,-56.5 168.5,-56.5"/>
<text text-anchor="middle" x="222" y="-63.5" font-family="Helvetica,sans-Serif" font-size="10.00">src/utils/callback.h</text>
</a>
</g>
</g>
<!-- Node1&#45;&gt;Node11 -->
<g id="edge23" class="edge">
<title>Node1&#45;&gt;Node11</title>
<path fill="none" stroke="midnightblue" d="M144.23,-280.43C147.57,-271.41 152.89,-256.79 157,-244 175.68,-185.88 170.65,-167.98 195,-112 199.18,-102.39 205.05,-92.34 210.25,-84.17"/>
<polygon fill="midnightblue" stroke="midnightblue" points="213.33,-85.87 215.91,-75.6 207.48,-82.02 213.33,-85.87"/>
</g>
<!-- Node16 -->
<g id="node16" class="node">
<title>Node16</title>
<g id="a_node16"><a xlink:href="log_8h.html" target="_top" xlink:title=" ">
<polygon fill="white" stroke="black" points="66,-224.5 66,-243.5 148,-243.5 148,-224.5 66,-224.5"/>
<text text-anchor="middle" x="107" y="-231.5" font-family="Helvetica,sans-Serif" font-size="10.00">src/utils/log.h</text>
</a>
</g>
</g>
<!-- Node1&#45;&gt;Node16 -->
<g id="edge24" class="edge">
<title>Node1&#45;&gt;Node16</title>
<path fill="none" stroke="midnightblue" d="M135.39,-280.08C130.63,-272.53 123.68,-261.49 117.85,-252.23"/>
<polygon fill="midnightblue" stroke="midnightblue" points="120.8,-250.35 112.51,-243.75 114.88,-254.08 120.8,-250.35"/>
</g>
<!-- Node17 -->
<g id="node17" class="node">
<title>Node17</title>
<g id="a_node17"><a xlink:href="window_8h.html" target="_top" xlink:title=" ">
<polygon fill="white" stroke="black" points="606,-168.5 606,-187.5 686,-187.5 686,-168.5 606,-168.5"/>
<text text-anchor="middle" x="646" y="-175.5" font-family="Helvetica,sans-Serif" font-size="10.00">src/window.h</text>
</a>
</g>
</g>
<!-- Node1&#45;&gt;Node17 -->
<g id="edge26" class="edge">
<title>Node1&#45;&gt;Node17</title>
<path fill="none" stroke="midnightblue" d="M182.71,-284.1C238.36,-277.18 339.78,-263.2 425,-244 491.64,-228.99 567.74,-205.07 611.01,-190.82"/>
<polygon fill="midnightblue" stroke="midnightblue" points="612.37,-194.05 620.76,-187.58 610.16,-187.41 612.37,-194.05"/>
</g>
<!-- Node5 -->
<g id="node5" class="node">
<title>Node5</title>
<g id="a_node5"><a xlink:href="button_8h.html" target="_top" xlink:title=" ">
<polygon fill="white" stroke="black" points="440.5,-168.5 440.5,-187.5 587.5,-187.5 587.5,-168.5 440.5,-168.5"/>
<text text-anchor="middle" x="514" y="-175.5" font-family="Helvetica,sans-Serif" font-size="10.00">src/user_interface/button.h</text>
</a>
</g>
</g>
<!-- Node4&#45;&gt;Node5 -->
<g id="edge4" class="edge">
<title>Node4&#45;&gt;Node5</title>
<path fill="none" stroke="midnightblue" d="M383.56,-224.44C409.52,-215.4 450.67,-201.06 479.8,-190.92"/>
<polygon fill="midnightblue" stroke="midnightblue" points="481.26,-194.11 489.55,-187.52 478.96,-187.5 481.26,-194.11"/>
</g>
<!-- Node7 -->
<g id="node7" class="node">
<title>Node7</title>
<g id="a_node7"><a xlink:href="ui_8h.html" target="_top" xlink:title=" ">
<polygon fill="white" stroke="black" points="378.5,-112.5 378.5,-131.5 503.5,-131.5 503.5,-112.5 378.5,-112.5"/>
<text text-anchor="middle" x="441" y="-119.5" font-family="Helvetica,sans-Serif" font-size="10.00">src/user_interface/ui.h</text>
</a>
</g>
</g>
<!-- Node4&#45;&gt;Node7 -->
<g id="edge22" class="edge">
<title>Node4&#45;&gt;Node7</title>
<path fill="none" stroke="midnightblue" d="M365.55,-224.39C372.41,-215.35 383.51,-200.71 393,-188 405.14,-171.75 418.88,-153.11 428.54,-139.97"/>
<polygon fill="midnightblue" stroke="midnightblue" points="431.41,-141.99 434.51,-131.85 425.77,-137.84 431.41,-141.99"/>
</g>
<!-- Node14 -->
<g id="node14" class="node">
<title>Node14</title>
<g id="a_node14"><a xlink:href="selector_8h.html" target="_top" xlink:title=" ">
<polygon fill="white" stroke="black" points="230,-168.5 230,-187.5 384,-187.5 384,-168.5 230,-168.5"/>
<text text-anchor="middle" x="307" y="-175.5" font-family="Helvetica,sans-Serif" font-size="10.00">src/user_interface/selector.h</text>
</a>
</g>
</g>
<!-- Node4&#45;&gt;Node14 -->
<g id="edge18" class="edge">
<title>Node4&#45;&gt;Node14</title>
<path fill="none" stroke="midnightblue" d="M350.41,-224.08C342.84,-216.22 331.62,-204.57 322.49,-195.08"/>
<polygon fill="midnightblue" stroke="midnightblue" points="324.88,-192.53 315.43,-187.75 319.84,-197.38 324.88,-192.53"/>
</g>
<!-- Node6 -->
<g id="node6" class="node">
<title>Node6</title>
<g id="a_node6"><a xlink:title=" ">
<polygon fill="white" stroke="#bfbfbf" points="444,-56.5 444,-75.5 488,-75.5 488,-56.5 444,-56.5"/>
<text text-anchor="middle" x="466" y="-63.5" font-family="Helvetica,sans-Serif" font-size="10.00">string</text>
</a>
</g>
</g>
<!-- Node5&#45;&gt;Node6 -->
<g id="edge5" class="edge">
<title>Node5&#45;&gt;Node6</title>
<path fill="none" stroke="midnightblue" d="M515.94,-168.14C518.32,-155.19 521.12,-130.62 513,-112 507.76,-99.99 497.62,-89.62 488.09,-81.87"/>
<polygon fill="midnightblue" stroke="midnightblue" points="490.1,-79.01 480.02,-75.77 485.88,-84.59 490.1,-79.01"/>
</g>
<!-- Node5&#45;&gt;Node7 -->
<g id="edge6" class="edge">
<title>Node5&#45;&gt;Node7</title>
<path fill="none" stroke="midnightblue" d="M502.27,-168.32C491.16,-160.11 474.26,-147.6 461.02,-137.81"/>
<polygon fill="midnightblue" stroke="midnightblue" points="463.06,-134.97 452.94,-131.83 458.9,-140.59 463.06,-134.97"/>
</g>
<!-- Node5&#45;&gt;Node11 -->
<g id="edge16" class="edge">
<title>Node5&#45;&gt;Node11</title>
<path fill="none" stroke="midnightblue" d="M440.26,-170.88C397.07,-165.08 342.44,-153.82 298,-132 273.54,-119.99 250.51,-98.28 236.35,-83.27"/>
<polygon fill="midnightblue" stroke="midnightblue" points="238.77,-80.74 229.44,-75.73 233.61,-85.47 238.77,-80.74"/>
</g>
<!-- Node12 -->
<g id="node12" class="node">
<title>Node12</title>
<g id="a_node12"><a xlink:href="imgui_8h.html" target="_top" xlink:title=" ">
<polygon fill="white" stroke="black" points="506.5,-56.5 506.5,-75.5 601.5,-75.5 601.5,-56.5 506.5,-56.5"/>
<text text-anchor="middle" x="554" y="-63.5" font-family="Helvetica,sans-Serif" font-size="10.00">src/utils/imgui.h</text>
</a>
</g>
</g>
<!-- Node5&#45;&gt;Node12 -->
<g id="edge17" class="edge">
<title>Node5&#45;&gt;Node12</title>
<path fill="none" stroke="midnightblue" d="M522.07,-168.47C529.61,-159.95 540.52,-146.12 546,-132 551.73,-117.24 553.59,-99.31 554.1,-86.03"/>
<polygon fill="midnightblue" stroke="midnightblue" points="557.6,-85.79 554.26,-75.74 550.61,-85.68 557.6,-85.79"/>
</g>
<!-- Node7&#45;&gt;Node6 -->
<g id="edge8" class="edge">
<title>Node7&#45;&gt;Node6</title>
<path fill="none" stroke="midnightblue" d="M445.13,-112.08C448.51,-104.77 453.42,-94.18 457.62,-85.1"/>
<polygon fill="midnightblue" stroke="midnightblue" points="460.92,-86.3 461.95,-75.75 454.57,-83.36 460.92,-86.3"/>
</g>
<!-- Node8 -->
<g id="node8" class="node">
<title>Node8</title>
<g id="a_node8"><a xlink:title=" ">
<polygon fill="white" stroke="#bfbfbf" points="275,-0.5 275,-19.5 333,-19.5 333,-0.5 275,-0.5"/>
<text text-anchor="middle" x="304" y="-7.5" font-family="Helvetica,sans-Serif" font-size="10.00">memory</text>
</a>
</g>
</g>
<!-- Node7&#45;&gt;Node8 -->
<g id="edge7" class="edge">
<title>Node7&#45;&gt;Node8</title>
<path fill="none" stroke="midnightblue" d="M391.82,-112.48C368.42,-106.08 341.75,-95.01 324,-76 312.3,-63.47 307.44,-44.25 305.42,-29.95"/>
<polygon fill="midnightblue" stroke="midnightblue" points="308.88,-29.34 304.34,-19.76 301.92,-30.08 308.88,-29.34"/>
</g>
<!-- Node9 -->
<g id="node9" class="node">
<title>Node9</title>
<g id="a_node9"><a xlink:title=" ">
<polygon fill="white" stroke="#bfbfbf" points="332.5,-56.5 332.5,-75.5 425.5,-75.5 425.5,-56.5 332.5,-56.5"/>
<text text-anchor="middle" x="379" y="-63.5" font-family="Helvetica,sans-Serif" font-size="10.00">unordered_map</text>
</a>
</g>
</g>
<!-- Node7&#45;&gt;Node9 -->
<g id="edge9" class="edge">
<title>Node7&#45;&gt;Node9</title>
<path fill="none" stroke="midnightblue" d="M431.04,-112.32C421.87,-104.34 408.06,-92.31 396.97,-82.65"/>
<polygon fill="midnightblue" stroke="midnightblue" points="398.98,-79.76 389.14,-75.83 394.38,-85.04 398.98,-79.76"/>
</g>
<!-- Node10 -->
<g id="node10" class="node">
<title>Node10</title>
<g id="a_node10"><a xlink:title=" ">
<polygon fill="white" stroke="#bfbfbf" points="619.5,-56.5 619.5,-75.5 666.5,-75.5 666.5,-56.5 619.5,-56.5"/>
<text text-anchor="middle" x="643" y="-63.5" font-family="Helvetica,sans-Serif" font-size="10.00">vector</text>
</a>
</g>
</g>
<!-- Node7&#45;&gt;Node10 -->
<g id="edge10" class="edge">
<title>Node7&#45;&gt;Node10</title>
<path fill="none" stroke="midnightblue" d="M473.95,-112.44C506.22,-104.02 557.04,-90.67 609.45,-76.4"/>
<polygon fill="midnightblue" stroke="midnightblue" points="610.52,-79.73 619.25,-73.72 608.68,-72.98 610.52,-79.73"/>
</g>
<!-- Node7&#45;&gt;Node11 -->
<g id="edge11" class="edge">
<title>Node7&#45;&gt;Node11</title>
<path fill="none" stroke="midnightblue" d="M406.3,-112.44C368.42,-103.1 307.65,-88.12 266.34,-77.93"/>
<polygon fill="midnightblue" stroke="midnightblue" points="267.09,-74.51 256.54,-75.52 265.41,-81.31 267.09,-74.51"/>
</g>
<!-- Node7&#45;&gt;Node12 -->
<g id="edge14" class="edge">
<title>Node7&#45;&gt;Node12</title>
<path fill="none" stroke="midnightblue" d="M458.91,-112.44C477.25,-103.68 506.01,-89.94 527.09,-79.86"/>
<polygon fill="midnightblue" stroke="midnightblue" points="528.67,-82.99 536.18,-75.52 525.65,-76.67 528.67,-82.99"/>
</g>
<!-- Node11&#45;&gt;Node2 -->
<g id="edge12" class="edge">
<title>Node11&#45;&gt;Node2</title>
<path fill="none" stroke="midnightblue" d="M204.17,-56.32C186.28,-47.62 158.52,-34.12 137.95,-24.11"/>
<polygon fill="midnightblue" stroke="midnightblue" points="139.31,-20.88 128.79,-19.65 136.25,-27.18 139.31,-20.88"/>
</g>
<!-- Node11&#45;&gt;Node8 -->
<g id="edge13" class="edge">
<title>Node11&#45;&gt;Node8</title>
<path fill="none" stroke="midnightblue" d="M235.17,-56.32C247.85,-47.98 267.23,-35.21 282.21,-25.35"/>
<polygon fill="midnightblue" stroke="midnightblue" points="284.43,-28.08 290.86,-19.65 280.58,-22.23 284.43,-28.08"/>
</g>
<!-- Node13 -->
<g id="node13" class="node">
<title>Node13</title>
<g id="a_node13"><a xlink:title=" ">
<polygon fill="white" stroke="#bfbfbf" points="643,-0.5 643,-19.5 741,-19.5 741,-0.5 643,-0.5"/>
<text text-anchor="middle" x="692" y="-7.5" font-family="Helvetica,sans-Serif" font-size="10.00">bindings/imgui.h</text>
</a>
</g>
</g>
<!-- Node12&#45;&gt;Node13 -->
<g id="edge15" class="edge">
<title>Node12&#45;&gt;Node13</title>
<path fill="none" stroke="midnightblue" d="M575.87,-56.44C598.78,-47.48 634.98,-33.31 660.87,-23.18"/>
<polygon fill="midnightblue" stroke="midnightblue" points="662.2,-26.42 670.24,-19.52 659.65,-19.9 662.2,-26.42"/>
</g>
<!-- Node14&#45;&gt;Node6 -->
<g id="edge20" class="edge">
<title>Node14&#45;&gt;Node6</title>
<path fill="none" stroke="midnightblue" d="M313.56,-168.45C324.21,-155.03 346.46,-128.79 370,-112 389.87,-97.83 414.91,-86.26 434.44,-78.41"/>
<polygon fill="midnightblue" stroke="midnightblue" points="435.76,-81.65 443.81,-74.75 433.22,-75.12 435.76,-81.65"/>
</g>
<!-- Node14&#45;&gt;Node7 -->
<g id="edge21" class="edge">
<title>Node14&#45;&gt;Node7</title>
<path fill="none" stroke="midnightblue" d="M328.23,-168.44C350.38,-159.52 385.32,-145.44 410.44,-135.32"/>
<polygon fill="midnightblue" stroke="midnightblue" points="411.9,-138.5 419.87,-131.52 409.28,-132.01 411.9,-138.5"/>
</g>
<!-- Node15 -->
<g id="node15" class="node">
<title>Node15</title>
<g id="a_node15"><a xlink:title=" ">
<polygon fill="white" stroke="#bfbfbf" points="204,-112.5 204,-131.5 246,-131.5 246,-112.5 204,-112.5"/>
<text text-anchor="middle" x="225" y="-119.5" font-family="Helvetica,sans-Serif" font-size="10.00">array</text>
</a>
</g>
</g>
<!-- Node14&#45;&gt;Node15 -->
<g id="edge19" class="edge">
<title>Node14&#45;&gt;Node15</title>
<path fill="none" stroke="midnightblue" d="M293.83,-168.32C281.15,-159.98 261.77,-147.21 246.79,-137.35"/>
<polygon fill="midnightblue" stroke="midnightblue" points="248.42,-134.23 238.14,-131.65 244.57,-140.08 248.42,-134.23"/>
</g>
<!-- Node16&#45;&gt;Node3 -->
<g id="edge25" class="edge">
<title>Node16&#45;&gt;Node3</title>
<path fill="none" stroke="midnightblue" d="M103.04,-224.08C99.79,-216.77 95.08,-206.18 91.05,-197.1"/>
<polygon fill="midnightblue" stroke="midnightblue" points="94.15,-195.47 86.89,-187.75 87.75,-198.31 94.15,-195.47"/>
</g>
<!-- Node17&#45;&gt;Node6 -->
<g id="edge29" class="edge">
<title>Node17&#45;&gt;Node6</title>
<path fill="none" stroke="midnightblue" d="M631.88,-168.37C600.86,-149.41 526.55,-104 488.81,-80.94"/>
<polygon fill="midnightblue" stroke="midnightblue" points="490.42,-77.82 480.06,-75.59 486.77,-83.79 490.42,-77.82"/>
</g>
<!-- Node17&#45;&gt;Node7 -->
<g id="edge32" class="edge">
<title>Node17&#45;&gt;Node7</title>
<path fill="none" stroke="midnightblue" d="M613.52,-168.44C578.28,-159.16 521.9,-144.31 483.24,-134.13"/>
<polygon fill="midnightblue" stroke="midnightblue" points="483.89,-130.68 473.33,-131.52 482.11,-137.45 483.89,-130.68"/>
</g>
<!-- Node17&#45;&gt;Node8 -->
<g id="edge28" class="edge">
<title>Node17&#45;&gt;Node8</title>
<path fill="none" stroke="midnightblue" d="M652.6,-168.46C668.49,-146.82 705.43,-89.2 676,-56 654.18,-31.39 434.67,-17.58 343.44,-12.86"/>
<polygon fill="midnightblue" stroke="midnightblue" points="343.39,-9.36 333.22,-12.35 343.03,-16.35 343.39,-9.36"/>
</g>
<!-- Node17&#45;&gt;Node10 -->
<g id="edge30" class="edge">
<title>Node17&#45;&gt;Node10</title>
<path fill="none" stroke="midnightblue" d="M645.76,-168.37C645.28,-150.62 644.16,-109.67 643.51,-85.6"/>
<polygon fill="midnightblue" stroke="midnightblue" points="647.01,-85.49 643.23,-75.59 640.01,-85.68 647.01,-85.49"/>
</g>
<!-- Node17&#45;&gt;Node11 -->
<g id="edge33" class="edge">
<title>Node17&#45;&gt;Node11</title>
<path fill="none" stroke="midnightblue" d="M605.9,-169.55C602.89,-169.02 599.9,-168.5 597,-168 496.31,-150.77 468.01,-160.77 370,-132 325,-118.79 275.69,-95.13 246.86,-80.29"/>
<polygon fill="midnightblue" stroke="midnightblue" points="248.4,-77.14 237.91,-75.62 245.16,-83.35 248.4,-77.14"/>
</g>
<!-- Node17&#45;&gt;Node13 -->
<g id="edge31" class="edge">
<title>Node17&#45;&gt;Node13</title>
<path fill="none" stroke="midnightblue" d="M686.35,-171.71C730.43,-165 796.81,-151.86 812,-132 845.31,-88.45 767.51,-44.55 722.01,-23.62"/>
<polygon fill="midnightblue" stroke="midnightblue" points="723.4,-20.41 712.84,-19.51 720.54,-26.79 723.4,-20.41"/>
</g>
<!-- Node18 -->
<g id="node18" class="node">
<title>Node18</title>
<g id="a_node18"><a xlink:title=" ">
<polygon fill="white" stroke="#bfbfbf" points="719.5,-112.5 719.5,-131.5 802.5,-131.5 802.5,-112.5 719.5,-112.5"/>
<text text-anchor="middle" x="761" y="-119.5" font-family="Helvetica,sans-Serif" font-size="10.00">GLFW/glfw3.h</text>
</a>
</g>
</g>
<!-- Node17&#45;&gt;Node18 -->
<g id="edge27" class="edge">
<title>Node17&#45;&gt;Node18</title>
<path fill="none" stroke="midnightblue" d="M664.22,-168.44C682.9,-159.68 712.16,-145.94 733.62,-135.86"/>
<polygon fill="midnightblue" stroke="midnightblue" points="735.3,-138.93 742.86,-131.52 732.32,-132.6 735.3,-138.93"/>
</g>
</g>
</svg>
