<?xml version="1.0" encoding="UTF-8" standalone="no"?>
<!DOCTYPE svg PUBLIC "-//W3C//DTD SVG 1.1//EN"
 "http://www.w3.org/Graphics/SVG/1.1/DTD/svg11.dtd">
<!-- Generated by graphviz version 2.43.0 (0)
 -->
<!-- Title: main Pages: 1 -->
<svg width="990pt" height="180pt"
 viewBox="0.00 0.00 990.00 180.00" xmlns="http://www.w3.org/2000/svg" xmlns:xlink="http://www.w3.org/1999/xlink">
<g id="graph0" class="graph" transform="scale(1 1) rotate(0) translate(4 176)">
<title>main</title>
<polygon fill="white" stroke="transparent" points="-4,4 -4,-176 986,-176 986,4 -4,4"/>
<!-- Node1 -->
<g id="node1" class="node">
<title>Node1</title>
<g id="a_node1"><a xlink:title=" ">
<polygon fill="#bfbfbf" stroke="black" points="0,-76.5 0,-95.5 41,-95.5 41,-76.5 0,-76.5"/>
<text text-anchor="middle" x="20.5" y="-83.5" font-family="Helvetica,sans-Serif" font-size="10.00">main</text>
</a>
</g>
</g>
<!-- Node2 -->
<g id="node2" class="node">
<title>Node2</title>
<g id="a_node2"><a xlink:href="classad__framework_1_1application_1_1Application.html#a628121d5f80684a330360ad502114fc4" target="_top" xlink:title=" ">
<polygon fill="white" stroke="black" points="77,-76.5 77,-95.5 329,-95.5 329,-76.5 77,-76.5"/>
<text text-anchor="middle" x="203" y="-83.5" font-family="Helvetica,sans-Serif" font-size="10.00">ad_framework::application::Application::Execute</text>
</a>
</g>
</g>
<!-- Node1&#45;&gt;Node2 -->
<g id="edge1" class="edge">
<title>Node1&#45;&gt;Node2</title>
<path fill="none" stroke="midnightblue" d="M41.16,-86C48.36,-86 57.14,-86 66.86,-86"/>
<polygon fill="midnightblue" stroke="midnightblue" points="66.87,-89.5 76.87,-86 66.87,-82.5 66.87,-89.5"/>
</g>
<!-- Node3 -->
<g id="node3" class="node">
<title>Node3</title>
<g id="a_node3"><a xlink:href="classad__framework_1_1application_1_1UserInterface.html#a95aec93006c0a8a8652ff20f6ab63b69" target="_top" xlink:title=" ">
<polygon fill="white" stroke="black" points="365,-76.5 365,-95.5 628,-95.5 628,-76.5 365,-76.5"/>
<text text-anchor="middle" x="496.5" y="-83.5" font-family="Helvetica,sans-Serif" font-size="10.00">ad_framework::application::UserInterface::Execute</text>
</a>
</g>
</g>
<!-- Node2&#45;&gt;Node3 -->
<g id="edge2" class="edge">
<title>Node2&#45;&gt;Node3</title>
<path fill="none" stroke="midnightblue" d="M329.31,-86C337.65,-86 346.08,-86 354.49,-86"/>
<polygon fill="midnightblue" stroke="midnightblue" points="354.72,-89.5 364.72,-86 354.72,-82.5 354.72,-89.5"/>
</g>
<!-- Node4 -->
<g id="node4" class="node">
<title>Node4</title>
<g id="a_node4"><a xlink:href="classad__framework_1_1application_1_1Window.html#a5180c05c72e0c026613df66965a12c09" target="_top" xlink:title=" ">
<polygon fill="white" stroke="black" points="705.5,-152.5 705.5,-171.5 940.5,-171.5 940.5,-152.5 705.5,-152.5"/>
<text text-anchor="middle" x="823" y="-159.5" font-family="Helvetica,sans-Serif" font-size="10.00">ad_framework::application::Window::GetSize</text>
</a>
</g>
</g>
<!-- Node3&#45;&gt;Node4 -->
<g id="edge3" class="edge">
<title>Node3&#45;&gt;Node4</title>
<path fill="none" stroke="midnightblue" d="M520.49,-95.6C552.2,-108.44 611.43,-130.98 664,-143 677.68,-146.13 692.15,-148.76 706.55,-150.97"/>
<polygon fill="midnightblue" stroke="midnightblue" points="706.1,-154.45 716.51,-152.44 707.12,-147.52 706.1,-154.45"/>
</g>
<!-- Node5 -->
<g id="node5" class="node">
<title>Node5</title>
<g id="a_node5"><a xlink:href="classad__framework_1_1application_1_1Window.html#a9569910e63065451d43ad6d955ec07d4" target="_top" xlink:title=" ">
<polygon fill="white" stroke="black" points="707.5,-114.5 707.5,-133.5 938.5,-133.5 938.5,-114.5 707.5,-114.5"/>
<text text-anchor="middle" x="823" y="-121.5" font-family="Helvetica,sans-Serif" font-size="10.00">ad_framework::application::Window::IsOpen</text>
</a>
</g>
</g>
<!-- Node3&#45;&gt;Node5 -->
<g id="edge4" class="edge">
<title>Node3&#45;&gt;Node5</title>
<path fill="none" stroke="midnightblue" d="M578.97,-95.54C625.15,-100.95 683.06,-107.73 730.76,-113.32"/>
<polygon fill="midnightblue" stroke="midnightblue" points="730.44,-116.8 740.78,-114.49 731.26,-109.85 730.44,-116.8"/>
</g>
<!-- Node6 -->
<g id="node6" class="node">
<title>Node6</title>
<g id="a_node6"><a xlink:href="classad__framework_1_1application_1_1Window.html#aa26d85e7b58a197aca840c4c555bbca3" target="_top" xlink:title=" ">
<polygon fill="white" stroke="black" points="698,-76.5 698,-95.5 948,-95.5 948,-76.5 698,-76.5"/>
<text text-anchor="middle" x="823" y="-83.5" font-family="Helvetica,sans-Serif" font-size="10.00">ad_framework::application::Window::NewFrame</text>
</a>
</g>
</g>
<!-- Node3&#45;&gt;Node6 -->
<g id="edge5" class="edge">
<title>Node3&#45;&gt;Node6</title>
<path fill="none" stroke="midnightblue" d="M628.08,-86C647.73,-86 668.02,-86 687.74,-86"/>
<polygon fill="midnightblue" stroke="midnightblue" points="688,-89.5 698,-86 688,-82.5 688,-89.5"/>
</g>
<!-- Node7 -->
<g id="node7" class="node">
<title>Node7</title>
<g id="a_node7"><a xlink:href="classad__framework_1_1application_1_1Window.html#a7f5991bdfb43dd781dff432388f1be9b" target="_top" xlink:title=" ">
<polygon fill="white" stroke="black" points="707,-38.5 707,-57.5 939,-57.5 939,-38.5 707,-38.5"/>
<text text-anchor="middle" x="823" y="-45.5" font-family="Helvetica,sans-Serif" font-size="10.00">ad_framework::application::Window::Render</text>
</a>
</g>
</g>
<!-- Node3&#45;&gt;Node7 -->
<g id="edge6" class="edge">
<title>Node3&#45;&gt;Node7</title>
<path fill="none" stroke="midnightblue" d="M578.97,-76.46C625.15,-71.05 683.06,-64.27 730.76,-58.68"/>
<polygon fill="midnightblue" stroke="midnightblue" points="731.26,-62.15 740.78,-57.51 730.44,-55.2 731.26,-62.15"/>
</g>
<!-- Node8 -->
<g id="node8" class="node">
<title>Node8</title>
<g id="a_node8"><a xlink:href="classad__framework_1_1application_1_1UserInterface.html#a32ced87fe9b11703ef77dfbe886e923d" target="_top" xlink:title=" ">
<polygon fill="white" stroke="black" points="664,-0.5 664,-19.5 982,-19.5 982,-0.5 664,-0.5"/>
<text text-anchor="middle" x="823" y="-7.5" font-family="Helvetica,sans-Serif" font-size="10.00">ad_framework::application::UserInterface::UpdateDataReader</text>
</a>
</g>
</g>
<!-- Node3&#45;&gt;Node8 -->
<g id="edge7" class="edge">
<title>Node3&#45;&gt;Node8</title>
<path fill="none" stroke="midnightblue" d="M520.49,-76.4C552.2,-63.56 611.43,-41.02 664,-29 677.68,-25.87 692.15,-23.24 706.55,-21.03"/>
<polygon fill="midnightblue" stroke="midnightblue" points="707.12,-24.48 716.51,-19.56 706.1,-17.55 707.12,-24.48"/>
</g>
</g>
</svg>
