<?xml version="1.0" encoding="UTF-8" standalone="no"?>
<!DOCTYPE svg PUBLIC "-//W3C//DTD SVG 1.1//EN"
 "http://www.w3.org/Graphics/SVG/1.1/DTD/svg11.dtd">
<!-- Generated by graphviz version 2.43.0 (0)
 -->
<!-- Title: src/application.h Pages: 1 -->
<svg width="949pt" height="308pt"
 viewBox="0.00 0.00 948.73 308.00" xmlns="http://www.w3.org/2000/svg" xmlns:xlink="http://www.w3.org/1999/xlink">
<g id="graph0" class="graph" transform="scale(1 1) rotate(0) translate(4 304)">
<title>src/application.h</title>
<polygon fill="white" stroke="transparent" points="-4,4 -4,-304 944.73,-304 944.73,4 -4,4"/>
<!-- Node1 -->
<g id="node1" class="node">
<title>Node1</title>
<g id="a_node1"><a xlink:title=" ">
<polygon fill="#bfbfbf" stroke="black" points="345.23,-280.5 345.23,-299.5 442.23,-299.5 442.23,-280.5 345.23,-280.5"/>
<text text-anchor="middle" x="393.73" y="-287.5" font-family="Helvetica,sans-Serif" font-size="10.00">src/application.h</text>
</a>
</g>
</g>
<!-- Node2 -->
<g id="node2" class="node">
<title>Node2</title>
<g id="a_node2"><a xlink:title=" ">
<polygon fill="white" stroke="#bfbfbf" points="747.73,-0.5 747.73,-19.5 805.73,-19.5 805.73,-0.5 747.73,-0.5"/>
<text text-anchor="middle" x="776.73" y="-7.5" font-family="Helvetica,sans-Serif" font-size="10.00">memory</text>
</a>
</g>
</g>
<!-- Node1&#45;&gt;Node2 -->
<g id="edge1" class="edge">
<title>Node1&#45;&gt;Node2</title>
<path fill="none" stroke="midnightblue" d="M442.67,-289.46C576.68,-289.4 939.73,-279.93 939.73,-179 939.73,-179 939.73,-179 939.73,-121 939.73,-61.4 863.92,-31.93 815.71,-19.22"/>
<polygon fill="midnightblue" stroke="midnightblue" points="816.42,-15.79 805.87,-16.75 814.72,-22.58 816.42,-15.79"/>
</g>
<!-- Node3 -->
<g id="node3" class="node">
<title>Node3</title>
<g id="a_node3"><a xlink:href="frame_8h.html" target="_top" xlink:title=" ">
<polygon fill="white" stroke="black" points="41.73,-112.5 41.73,-131.5 187.73,-131.5 187.73,-112.5 41.73,-112.5"/>
<text text-anchor="middle" x="114.73" y="-119.5" font-family="Helvetica,sans-Serif" font-size="10.00">src/data_structure/frame.h</text>
</a>
</g>
</g>
<!-- Node1&#45;&gt;Node3 -->
<g id="edge2" class="edge">
<title>Node1&#45;&gt;Node3</title>
<path fill="none" stroke="midnightblue" d="M344.89,-283.31C251.88,-271.37 54.98,-240.38 14.73,-188 -4.22,-163.34 33.48,-145.25 67.88,-134.5"/>
<polygon fill="midnightblue" stroke="midnightblue" points="69.32,-137.72 77.92,-131.53 67.33,-131.01 69.32,-137.72"/>
</g>
<!-- Node5 -->
<g id="node5" class="node">
<title>Node5</title>
<g id="a_node5"><a xlink:href="shape_8h.html" target="_top" xlink:title=" ">
<polygon fill="white" stroke="black" points="47.73,-56.5 47.73,-75.5 193.73,-75.5 193.73,-56.5 47.73,-56.5"/>
<text text-anchor="middle" x="120.73" y="-63.5" font-family="Helvetica,sans-Serif" font-size="10.00">src/data_structure/shape.h</text>
</a>
</g>
</g>
<!-- Node1&#45;&gt;Node5 -->
<g id="edge8" class="edge">
<title>Node1&#45;&gt;Node5</title>
<path fill="none" stroke="midnightblue" d="M344.94,-285.59C267.08,-279.59 118.64,-265.67 70.73,-244 35.99,-228.28 21.62,-222.66 5.73,-188 -9.21,-155.41 7.68,-137.64 32.73,-112 47,-97.4 67.01,-86.65 84.34,-79.32"/>
<polygon fill="midnightblue" stroke="midnightblue" points="85.66,-82.57 93.65,-75.61 83.06,-76.07 85.66,-82.57"/>
</g>
<!-- Node7 -->
<g id="node7" class="node">
<title>Node7</title>
<g id="a_node7"><a xlink:href="user__interface_8h.html" target="_top" xlink:title=" ">
<polygon fill="white" stroke="black" points="337.23,-224.5 337.23,-243.5 450.23,-243.5 450.23,-224.5 337.23,-224.5"/>
<text text-anchor="middle" x="393.73" y="-231.5" font-family="Helvetica,sans-Serif" font-size="10.00">src/user_interface.h</text>
</a>
</g>
</g>
<!-- Node1&#45;&gt;Node7 -->
<g id="edge9" class="edge">
<title>Node1&#45;&gt;Node7</title>
<path fill="none" stroke="midnightblue" d="M393.73,-280.08C393.73,-273.01 393.73,-262.86 393.73,-253.99"/>
<polygon fill="midnightblue" stroke="midnightblue" points="397.23,-253.75 393.73,-243.75 390.23,-253.75 397.23,-253.75"/>
</g>
<!-- Node20 -->
<g id="node20" class="node">
<title>Node20</title>
<g id="a_node20"><a xlink:href="window_8h.html" target="_top" xlink:title=" ">
<polygon fill="white" stroke="black" points="789.73,-168.5 789.73,-187.5 869.73,-187.5 869.73,-168.5 789.73,-168.5"/>
<text text-anchor="middle" x="829.73" y="-175.5" font-family="Helvetica,sans-Serif" font-size="10.00">src/window.h</text>
</a>
</g>
</g>
<!-- Node1&#45;&gt;Node20 -->
<g id="edge34" class="edge">
<title>Node1&#45;&gt;Node20</title>
<path fill="none" stroke="midnightblue" d="M427.58,-280.46C505.81,-260.72 699.11,-211.96 786.09,-190.01"/>
<polygon fill="midnightblue" stroke="midnightblue" points="787.06,-193.37 795.9,-187.53 785.35,-186.59 787.06,-193.37"/>
</g>
<!-- Node4 -->
<g id="node4" class="node">
<title>Node4</title>
<g id="a_node4"><a xlink:title=" ">
<polygon fill="white" stroke="#bfbfbf" points="261.23,-0.5 261.23,-19.5 308.23,-19.5 308.23,-0.5 261.23,-0.5"/>
<text text-anchor="middle" x="284.73" y="-7.5" font-family="Helvetica,sans-Serif" font-size="10.00">vector</text>
</a>
</g>
</g>
<!-- Node3&#45;&gt;Node4 -->
<g id="edge3" class="edge">
<title>Node3&#45;&gt;Node4</title>
<path fill="none" stroke="midnightblue" d="M134.22,-112.39C152.46,-104.02 180.22,-90.48 202.73,-76 226.41,-60.77 251.47,-40.16 267.57,-26.26"/>
<polygon fill="midnightblue" stroke="midnightblue" points="269.88,-28.89 275.11,-19.67 265.27,-23.62 269.88,-28.89"/>
</g>
<!-- Node3&#45;&gt;Node5 -->
<g id="edge4" class="edge">
<title>Node3&#45;&gt;Node5</title>
<path fill="none" stroke="midnightblue" d="M115.72,-112.08C116.52,-104.93 117.66,-94.64 118.65,-85.69"/>
<polygon fill="midnightblue" stroke="midnightblue" points="122.13,-86.08 119.76,-75.75 115.18,-85.3 122.13,-86.08"/>
</g>
<!-- Node5&#45;&gt;Node2 -->
<g id="edge6" class="edge">
<title>Node5&#45;&gt;Node2</title>
<path fill="none" stroke="midnightblue" d="M193.77,-61.15C329.9,-53.74 618.64,-36.86 737.42,-19.93"/>
<polygon fill="midnightblue" stroke="midnightblue" points="737.99,-23.38 747.36,-18.45 736.96,-16.46 737.99,-23.38"/>
</g>
<!-- Node5&#45;&gt;Node4 -->
<g id="edge7" class="edge">
<title>Node5&#45;&gt;Node4</title>
<path fill="none" stroke="midnightblue" d="M146.72,-56.44C174.96,-47.15 220.17,-32.26 251.1,-22.07"/>
<polygon fill="midnightblue" stroke="midnightblue" points="252.59,-25.27 261,-18.82 250.4,-18.62 252.59,-25.27"/>
</g>
<!-- Node6 -->
<g id="node6" class="node">
<title>Node6</title>
<g id="a_node6"><a xlink:title=" ">
<polygon fill="white" stroke="#bfbfbf" points="82.23,-0.5 82.23,-19.5 159.23,-19.5 159.23,-0.5 82.23,-0.5"/>
<text text-anchor="middle" x="120.73" y="-7.5" font-family="Helvetica,sans-Serif" font-size="10.00">Eigen/Dense</text>
</a>
</g>
</g>
<!-- Node5&#45;&gt;Node6 -->
<g id="edge5" class="edge">
<title>Node5&#45;&gt;Node6</title>
<path fill="none" stroke="midnightblue" d="M120.73,-56.08C120.73,-49.01 120.73,-38.86 120.73,-29.99"/>
<polygon fill="midnightblue" stroke="midnightblue" points="124.23,-29.75 120.73,-19.75 117.23,-29.75 124.23,-29.75"/>
</g>
<!-- Node8 -->
<g id="node8" class="node">
<title>Node8</title>
<g id="a_node8"><a xlink:href="button_8h.html" target="_top" xlink:title=" ">
<polygon fill="white" stroke="black" points="624.23,-168.5 624.23,-187.5 771.23,-187.5 771.23,-168.5 624.23,-168.5"/>
<text text-anchor="middle" x="697.73" y="-175.5" font-family="Helvetica,sans-Serif" font-size="10.00">src/user_interface/button.h</text>
</a>
</g>
</g>
<!-- Node7&#45;&gt;Node8 -->
<g id="edge10" class="edge">
<title>Node7&#45;&gt;Node8</title>
<path fill="none" stroke="midnightblue" d="M441.9,-224.44C495.6,-214.9 582.42,-199.48 639.79,-189.29"/>
<polygon fill="midnightblue" stroke="midnightblue" points="640.55,-192.71 649.79,-187.52 639.33,-185.82 640.55,-192.71"/>
</g>
<!-- Node10 -->
<g id="node10" class="node">
<title>Node10</title>
<g id="a_node10"><a xlink:href="ui_8h.html" target="_top" xlink:title=" ">
<polygon fill="white" stroke="black" points="380.23,-112.5 380.23,-131.5 505.23,-131.5 505.23,-112.5 380.23,-112.5"/>
<text text-anchor="middle" x="442.73" y="-119.5" font-family="Helvetica,sans-Serif" font-size="10.00">src/user_interface/ui.h</text>
</a>
</g>
</g>
<!-- Node7&#45;&gt;Node10 -->
<g id="edge33" class="edge">
<title>Node7&#45;&gt;Node10</title>
<path fill="none" stroke="midnightblue" d="M395.4,-224.29C398.03,-211.52 403.79,-187.18 412.73,-168 417.29,-158.23 423.79,-148.17 429.57,-140.05"/>
<polygon fill="midnightblue" stroke="midnightblue" points="432.53,-141.94 435.66,-131.82 426.9,-137.78 432.53,-141.94"/>
</g>
<!-- Node16 -->
<g id="node16" class="node">
<title>Node16</title>
<g id="a_node16"><a xlink:href="image__viewer_8h.html" target="_top" xlink:title=" ">
<polygon fill="white" stroke="black" points="421.73,-168.5 421.73,-187.5 605.73,-187.5 605.73,-168.5 421.73,-168.5"/>
<text text-anchor="middle" x="513.73" y="-175.5" font-family="Helvetica,sans-Serif" font-size="10.00">src/user_interface/image_viewer.h</text>
</a>
</g>
</g>
<!-- Node7&#45;&gt;Node16 -->
<g id="edge24" class="edge">
<title>Node7&#45;&gt;Node16</title>
<path fill="none" stroke="midnightblue" d="M412.75,-224.44C432.32,-215.64 463.04,-201.81 485.46,-191.72"/>
<polygon fill="midnightblue" stroke="midnightblue" points="487.12,-194.81 494.81,-187.52 484.25,-188.43 487.12,-194.81"/>
</g>
<!-- Node17 -->
<g id="node17" class="node">
<title>Node17</title>
<g id="a_node17"><a xlink:href="selector_8h.html" target="_top" xlink:title=" ">
<polygon fill="white" stroke="black" points="211.73,-168.5 211.73,-187.5 365.73,-187.5 365.73,-168.5 211.73,-168.5"/>
<text text-anchor="middle" x="288.73" y="-175.5" font-family="Helvetica,sans-Serif" font-size="10.00">src/user_interface/selector.h</text>
</a>
</g>
</g>
<!-- Node7&#45;&gt;Node17 -->
<g id="edge26" class="edge">
<title>Node7&#45;&gt;Node17</title>
<path fill="none" stroke="midnightblue" d="M376.86,-224.32C360.02,-215.66 333.92,-202.24 314.49,-192.25"/>
<polygon fill="midnightblue" stroke="midnightblue" points="316.05,-189.12 305.56,-187.65 312.85,-195.34 316.05,-189.12"/>
</g>
<!-- Node19 -->
<g id="node19" class="node">
<title>Node19</title>
<g id="a_node19"><a xlink:href="top__viewer_8h.html" target="_top" xlink:title=" ">
<polygon fill="white" stroke="black" points="24.23,-168.5 24.23,-187.5 193.23,-187.5 193.23,-168.5 24.23,-168.5"/>
<text text-anchor="middle" x="108.73" y="-175.5" font-family="Helvetica,sans-Serif" font-size="10.00">src/user_interface/top_viewer.h</text>
</a>
</g>
</g>
<!-- Node7&#45;&gt;Node19 -->
<g id="edge30" class="edge">
<title>Node7&#45;&gt;Node19</title>
<path fill="none" stroke="midnightblue" d="M348.57,-224.44C298.44,-214.94 217.51,-199.61 163.72,-189.42"/>
<polygon fill="midnightblue" stroke="midnightblue" points="164.16,-185.94 153.68,-187.52 162.85,-192.82 164.16,-185.94"/>
</g>
<!-- Node9 -->
<g id="node9" class="node">
<title>Node9</title>
<g id="a_node9"><a xlink:title=" ">
<polygon fill="white" stroke="#bfbfbf" points="499.73,-56.5 499.73,-75.5 543.73,-75.5 543.73,-56.5 499.73,-56.5"/>
<text text-anchor="middle" x="521.73" y="-63.5" font-family="Helvetica,sans-Serif" font-size="10.00">string</text>
</a>
</g>
</g>
<!-- Node8&#45;&gt;Node9 -->
<g id="edge11" class="edge">
<title>Node8&#45;&gt;Node9</title>
<path fill="none" stroke="midnightblue" d="M639.49,-168.46C612.3,-162.09 580.91,-151.05 557.73,-132 542.82,-119.74 533.04,-99.6 527.48,-84.98"/>
<polygon fill="midnightblue" stroke="midnightblue" points="530.78,-83.79 524.18,-75.5 524.17,-86.1 530.78,-83.79"/>
</g>
<!-- Node8&#45;&gt;Node10 -->
<g id="edge12" class="edge">
<title>Node8&#45;&gt;Node10</title>
<path fill="none" stroke="midnightblue" d="M657.33,-168.44C612.75,-159 540.96,-143.8 492.84,-133.61"/>
<polygon fill="midnightblue" stroke="midnightblue" points="493.46,-130.16 482.95,-131.52 492.01,-137.01 493.46,-130.16"/>
</g>
<!-- Node12 -->
<g id="node12" class="node">
<title>Node12</title>
<g id="a_node12"><a xlink:href="callback_8h.html" target="_top" xlink:title=" ">
<polygon fill="white" stroke="black" points="714.23,-56.5 714.23,-75.5 821.23,-75.5 821.23,-56.5 714.23,-56.5"/>
<text text-anchor="middle" x="767.73" y="-63.5" font-family="Helvetica,sans-Serif" font-size="10.00">src/utils/callback.h</text>
</a>
</g>
</g>
<!-- Node8&#45;&gt;Node12 -->
<g id="edge22" class="edge">
<title>Node8&#45;&gt;Node12</title>
<path fill="none" stroke="midnightblue" d="M696.72,-168.31C695.61,-155.16 695.22,-129.83 705.73,-112 713.67,-98.54 727.38,-87.96 739.89,-80.44"/>
<polygon fill="midnightblue" stroke="midnightblue" points="741.67,-83.46 748.69,-75.52 738.25,-77.35 741.67,-83.46"/>
</g>
<!-- Node14 -->
<g id="node14" class="node">
<title>Node14</title>
<g id="a_node14"><a xlink:href="imgui_8h.html" target="_top" xlink:title=" ">
<polygon fill="white" stroke="black" points="562.23,-56.5 562.23,-75.5 657.23,-75.5 657.23,-56.5 562.23,-56.5"/>
<text text-anchor="middle" x="609.73" y="-63.5" font-family="Helvetica,sans-Serif" font-size="10.00">src/utils/imgui.h</text>
</a>
</g>
</g>
<!-- Node8&#45;&gt;Node14 -->
<g id="edge23" class="edge">
<title>Node8&#45;&gt;Node14</title>
<path fill="none" stroke="midnightblue" d="M690.83,-168.37C676.24,-150.14 642.07,-107.43 623.07,-83.68"/>
<polygon fill="midnightblue" stroke="midnightblue" points="625.58,-81.21 616.6,-75.59 620.12,-85.59 625.58,-81.21"/>
</g>
<!-- Node10&#45;&gt;Node2 -->
<g id="edge13" class="edge">
<title>Node10&#45;&gt;Node2</title>
<path fill="none" stroke="midnightblue" d="M446.51,-112.08C453.15,-97.64 468.34,-69.4 490.73,-56 583.59,-0.41 626.84,-38.55 737.48,-20"/>
<polygon fill="midnightblue" stroke="midnightblue" points="738.1,-23.45 747.33,-18.24 736.87,-16.56 738.1,-23.45"/>
</g>
<!-- Node10&#45;&gt;Node4 -->
<g id="edge16" class="edge">
<title>Node10&#45;&gt;Node4</title>
<path fill="none" stroke="midnightblue" d="M415.31,-112.42C393.97,-104.92 364.29,-92.63 341.73,-76 323.49,-62.56 306.95,-42.37 296.44,-28.07"/>
<polygon fill="midnightblue" stroke="midnightblue" points="299.09,-25.76 290.45,-19.65 293.39,-29.82 299.09,-25.76"/>
</g>
<!-- Node10&#45;&gt;Node9 -->
<g id="edge14" class="edge">
<title>Node10&#45;&gt;Node9</title>
<path fill="none" stroke="midnightblue" d="M455.42,-112.32C467.63,-103.98 486.31,-91.21 500.73,-81.35"/>
<polygon fill="midnightblue" stroke="midnightblue" points="502.79,-84.19 509.07,-75.65 498.84,-78.41 502.79,-84.19"/>
</g>
<!-- Node11 -->
<g id="node11" class="node">
<title>Node11</title>
<g id="a_node11"><a xlink:title=" ">
<polygon fill="white" stroke="#bfbfbf" points="350.23,-56.5 350.23,-75.5 443.23,-75.5 443.23,-56.5 350.23,-56.5"/>
<text text-anchor="middle" x="396.73" y="-63.5" font-family="Helvetica,sans-Serif" font-size="10.00">unordered_map</text>
</a>
</g>
</g>
<!-- Node10&#45;&gt;Node11 -->
<g id="edge15" class="edge">
<title>Node10&#45;&gt;Node11</title>
<path fill="none" stroke="midnightblue" d="M435.14,-112.08C428.5,-104.3 418.71,-92.8 410.67,-83.37"/>
<polygon fill="midnightblue" stroke="midnightblue" points="413.33,-81.09 404.19,-75.75 408.01,-85.63 413.33,-81.09"/>
</g>
<!-- Node10&#45;&gt;Node12 -->
<g id="edge17" class="edge">
<title>Node10&#45;&gt;Node12</title>
<path fill="none" stroke="midnightblue" d="M494.23,-112.44C551.87,-102.87 645.22,-87.36 706.54,-77.17"/>
<polygon fill="midnightblue" stroke="midnightblue" points="707.18,-80.61 716.47,-75.52 706.04,-73.7 707.18,-80.61"/>
</g>
<!-- Node10&#45;&gt;Node14 -->
<g id="edge20" class="edge">
<title>Node10&#45;&gt;Node14</title>
<path fill="none" stroke="midnightblue" d="M469.19,-112.44C497.41,-103.32 542.27,-88.81 573.7,-78.65"/>
<polygon fill="midnightblue" stroke="midnightblue" points="574.96,-81.92 583.39,-75.52 572.8,-75.26 574.96,-81.92"/>
</g>
<!-- Node12&#45;&gt;Node2 -->
<g id="edge19" class="edge">
<title>Node12&#45;&gt;Node2</title>
<path fill="none" stroke="midnightblue" d="M769.22,-56.08C770.41,-48.93 772.13,-38.64 773.62,-29.69"/>
<polygon fill="midnightblue" stroke="midnightblue" points="777.08,-30.19 775.27,-19.75 770.18,-29.04 777.08,-30.19"/>
</g>
<!-- Node13 -->
<g id="node13" class="node">
<title>Node13</title>
<g id="a_node13"><a xlink:title=" ">
<polygon fill="white" stroke="#bfbfbf" points="694.23,-0.5 694.23,-19.5 729.23,-19.5 729.23,-0.5 694.23,-0.5"/>
<text text-anchor="middle" x="711.73" y="-7.5" font-family="Helvetica,sans-Serif" font-size="10.00">any</text>
</a>
</g>
</g>
<!-- Node12&#45;&gt;Node13 -->
<g id="edge18" class="edge">
<title>Node12&#45;&gt;Node13</title>
<path fill="none" stroke="midnightblue" d="M758.73,-56.32C750.54,-48.42 738.23,-36.55 728.26,-26.94"/>
<polygon fill="midnightblue" stroke="midnightblue" points="730.52,-24.26 720.89,-19.83 725.66,-29.29 730.52,-24.26"/>
</g>
<!-- Node15 -->
<g id="node15" class="node">
<title>Node15</title>
<g id="a_node15"><a xlink:title=" ">
<polygon fill="white" stroke="#bfbfbf" points="842.73,-0.5 842.73,-19.5 940.73,-19.5 940.73,-0.5 842.73,-0.5"/>
<text text-anchor="middle" x="891.73" y="-7.5" font-family="Helvetica,sans-Serif" font-size="10.00">bindings/imgui.h</text>
</a>
</g>
</g>
<!-- Node14&#45;&gt;Node15 -->
<g id="edge21" class="edge">
<title>Node14&#45;&gt;Node15</title>
<path fill="none" stroke="midnightblue" d="M654.41,-56.44C704.02,-46.94 784.1,-31.61 837.32,-21.42"/>
<polygon fill="midnightblue" stroke="midnightblue" points="838.09,-24.83 847.26,-19.52 836.78,-17.96 838.09,-24.83"/>
</g>
<!-- Node16&#45;&gt;Node10 -->
<g id="edge25" class="edge">
<title>Node16&#45;&gt;Node10</title>
<path fill="none" stroke="midnightblue" d="M502.32,-168.32C491.62,-160.18 475.39,-147.84 462.57,-138.09"/>
<polygon fill="midnightblue" stroke="midnightblue" points="464.42,-135.1 454.35,-131.83 460.19,-140.67 464.42,-135.1"/>
</g>
<!-- Node17&#45;&gt;Node9 -->
<g id="edge28" class="edge">
<title>Node17&#45;&gt;Node9</title>
<path fill="none" stroke="midnightblue" d="M288.62,-168.41C288.93,-154.44 291.68,-126.86 307.73,-112 320.98,-99.73 432.72,-80.85 489.25,-71.95"/>
<polygon fill="midnightblue" stroke="midnightblue" points="490.11,-75.36 499.45,-70.36 489.03,-68.45 490.11,-75.36"/>
</g>
<!-- Node17&#45;&gt;Node10 -->
<g id="edge29" class="edge">
<title>Node17&#45;&gt;Node10</title>
<path fill="none" stroke="midnightblue" d="M313.13,-168.44C338.93,-159.4 379.81,-145.06 408.75,-134.92"/>
<polygon fill="midnightblue" stroke="midnightblue" points="410.17,-138.13 418.44,-131.52 407.85,-131.52 410.17,-138.13"/>
</g>
<!-- Node18 -->
<g id="node18" class="node">
<title>Node18</title>
<g id="a_node18"><a xlink:title=" ">
<polygon fill="white" stroke="#bfbfbf" points="316.73,-112.5 316.73,-131.5 358.73,-131.5 358.73,-112.5 316.73,-112.5"/>
<text text-anchor="middle" x="337.73" y="-119.5" font-family="Helvetica,sans-Serif" font-size="10.00">array</text>
</a>
</g>
</g>
<!-- Node17&#45;&gt;Node18 -->
<g id="edge27" class="edge">
<title>Node17&#45;&gt;Node18</title>
<path fill="none" stroke="midnightblue" d="M296.82,-168.08C303.89,-160.3 314.32,-148.8 322.88,-139.37"/>
<polygon fill="midnightblue" stroke="midnightblue" points="325.66,-141.51 329.79,-131.75 320.48,-136.8 325.66,-141.51"/>
</g>
<!-- Node19&#45;&gt;Node3 -->
<g id="edge31" class="edge">
<title>Node19&#45;&gt;Node3</title>
<path fill="none" stroke="midnightblue" d="M109.72,-168.08C110.52,-160.93 111.66,-150.64 112.65,-141.69"/>
<polygon fill="midnightblue" stroke="midnightblue" points="116.13,-142.08 113.76,-131.75 109.18,-141.3 116.13,-142.08"/>
</g>
<!-- Node19&#45;&gt;Node10 -->
<g id="edge32" class="edge">
<title>Node19&#45;&gt;Node10</title>
<path fill="none" stroke="midnightblue" d="M161.65,-168.44C220.9,-158.87 316.83,-143.36 379.85,-133.17"/>
<polygon fill="midnightblue" stroke="midnightblue" points="380.74,-136.57 390.06,-131.52 379.63,-129.66 380.74,-136.57"/>
</g>
<!-- Node20&#45;&gt;Node2 -->
<g id="edge36" class="edge">
<title>Node20&#45;&gt;Node2</title>
<path fill="none" stroke="midnightblue" d="M832.25,-168.25C837.7,-147.55 848.73,-94.43 830.73,-56 824.69,-43.09 812.92,-32.6 801.91,-25"/>
<polygon fill="midnightblue" stroke="midnightblue" points="803.67,-21.97 793.36,-19.54 799.9,-27.87 803.67,-21.97"/>
</g>
<!-- Node20&#45;&gt;Node4 -->
<g id="edge38" class="edge">
<title>Node20&#45;&gt;Node4</title>
<path fill="none" stroke="midnightblue" d="M798.36,-168.47C766.46,-159.3 719.78,-144.38 705.73,-132 677.25,-106.9 697.92,-77.65 666.73,-56 610.7,-17.09 400.82,-11.63 318.33,-11"/>
<polygon fill="midnightblue" stroke="midnightblue" points="318.26,-7.5 308.24,-10.95 318.22,-14.5 318.26,-7.5"/>
</g>
<!-- Node20&#45;&gt;Node9 -->
<g id="edge37" class="edge">
<title>Node20&#45;&gt;Node9</title>
<path fill="none" stroke="midnightblue" d="M794.8,-168.46C762.5,-160.23 713.36,-146.88 671.73,-132 627.79,-116.3 578.42,-93.95 548.72,-79.98"/>
<polygon fill="midnightblue" stroke="midnightblue" points="549.97,-76.7 539.44,-75.58 546.97,-83.02 549.97,-76.7"/>
</g>
<!-- Node20&#45;&gt;Node10 -->
<g id="edge40" class="edge">
<title>Node20&#45;&gt;Node10</title>
<path fill="none" stroke="midnightblue" d="M789.65,-169.47C786.63,-168.96 783.64,-168.46 780.73,-168 689.66,-153.58 584.29,-140.05 515.73,-131.66"/>
<polygon fill="midnightblue" stroke="midnightblue" points="515.82,-128.15 505.47,-130.41 514.98,-135.1 515.82,-128.15"/>
</g>
<!-- Node20&#45;&gt;Node12 -->
<g id="edge41" class="edge">
<title>Node20&#45;&gt;Node12</title>
<path fill="none" stroke="midnightblue" d="M827.72,-168.14C824.54,-155.19 817.57,-130.62 806.73,-112 800.57,-101.41 791.75,-90.98 784.06,-82.84"/>
<polygon fill="midnightblue" stroke="midnightblue" points="786.39,-80.21 776.89,-75.53 781.4,-85.12 786.39,-80.21"/>
</g>
<!-- Node20&#45;&gt;Node15 -->
<g id="edge39" class="edge">
<title>Node20&#45;&gt;Node15</title>
<path fill="none" stroke="midnightblue" d="M835.01,-168.27C840.25,-159.38 848.25,-145.06 853.73,-132 868.51,-96.77 880.71,-53.71 887.04,-29.62"/>
<polygon fill="midnightblue" stroke="midnightblue" points="890.49,-30.26 889.59,-19.7 883.71,-28.52 890.49,-30.26"/>
</g>
<!-- Node21 -->
<g id="node21" class="node">
<title>Node21</title>
<g id="a_node21"><a xlink:title=" ">
<polygon fill="white" stroke="#bfbfbf" points="714.23,-112.5 714.23,-131.5 797.23,-131.5 797.23,-112.5 714.23,-112.5"/>
<text text-anchor="middle" x="755.73" y="-119.5" font-family="Helvetica,sans-Serif" font-size="10.00">GLFW/glfw3.h</text>
</a>
</g>
</g>
<!-- Node20&#45;&gt;Node21 -->
<g id="edge35" class="edge">
<title>Node20&#45;&gt;Node21</title>
<path fill="none" stroke="midnightblue" d="M817.84,-168.32C806.58,-160.11 789.44,-147.6 776.02,-137.81"/>
<polygon fill="midnightblue" stroke="midnightblue" points="777.98,-134.9 767.84,-131.83 773.85,-140.56 777.98,-134.9"/>
</g>
</g>
</svg>
