<?xml version="1.0" encoding="UTF-8" standalone="no"?>
<!DOCTYPE svg PUBLIC "-//W3C//DTD SVG 1.1//EN"
 "http://www.w3.org/Graphics/SVG/1.1/DTD/svg11.dtd">
<!-- Generated by graphviz version 2.43.0 (0)
 -->
<!-- Title: src/application/application.h Pages: 1 -->
<!--zoomable 308 -->
<svg id="main" version="1.1" xmlns="http://www.w3.org/2000/svg" xmlns:xlink="http://www.w3.org/1999/xlink" xml:space="preserve" onload="init(evt)">
<style type="text/css"><![CDATA[
.edge:hover path { stroke: red; }
.edge:hover polygon { stroke: red; fill: red; }
]]></style>
<script type="text/javascript"><![CDATA[
var edges = document.getElementsByTagName('g');
if (edges && edges.length) {
  for (var i=0;i<edges.length;i++) {
    if (edges[i].id.substr(0,4)=='edge') {
      edges[i].setAttribute('class','edge');
    }
  }
}
]]></script>
        <defs>
                <circle id="rim" cx="0" cy="0" r="7"/>
                <circle id="rim2" cx="0" cy="0" r="3.5"/>
                <g id="zoomPlus">
                        <use xlink:href="#rim" fill="#404040">
                                <set attributeName="fill" to="#808080" begin="zoomplus.mouseover" end="zoomplus.mouseout"/>
                        </use>
                        <path d="M-4,0h8M0,-4v8" fill="none" stroke="white" stroke-width="1.5" pointer-events="none"/>
                </g>
                <g id="zoomMin">
                        <use xlink:href="#rim" fill="#404040">
                                <set attributeName="fill" to="#808080" begin="zoomminus.mouseover" end="zoomminus.mouseout"/>
                        </use>
                        <path d="M-4,0h8" fill="none" stroke="white" stroke-width="1.5" pointer-events="none"/>
                </g>
                <g id="dirArrow">
                        <path fill="none" stroke="white" stroke-width="1.5" d="M0,-3.0v7 M-2.5,-0.5L0,-3.0L2.5,-0.5"/>
                </g>
               <g id="resetDef">
                       <use xlink:href="#rim2" fill="#404040">
                               <set attributeName="fill" to="#808080" begin="reset.mouseover" end="reset.mouseout"/>
                       </use>
               </g>
        </defs>

<script type="text/javascript">
var viewWidth = 665;
var viewHeight = 308;
var sectionId = 'dynsection-0';
</script>
<script xlink:href="svgpan.js"/>
<svg id="graph" class="graph">
<g id="viewport">
<title>src/application/application.h</title>
<polygon fill="white" stroke="transparent" points="-4,4 -4,-304 661.17,-304 661.17,4 -4,4"/>
<!-- Node1 -->
<g id="node1" class="node">
<title>Node1</title>
<g id="a_node1"><a xlink:title=" ">
<polygon fill="#bfbfbf" stroke="black" points="378.67,-280.5 378.67,-299.5 532.67,-299.5 532.67,-280.5 378.67,-280.5"/>
<text text-anchor="middle" x="455.67" y="-287.5" font-family="Helvetica,sans-Serif" font-size="10.00">src/application/application.h</text>
</a>
</g>
</g>
<!-- Node2 -->
<g id="node2" class="node">
<title>Node2</title>
<g id="a_node2"><a xlink:title=" ">
<polygon fill="white" stroke="#bfbfbf" points="11.67,-56.5 11.67,-75.5 69.67,-75.5 69.67,-56.5 11.67,-56.5"/>
<text text-anchor="middle" x="40.67" y="-63.5" font-family="Helvetica,sans-Serif" font-size="10.00">memory</text>
</a>
</g>
</g>
<!-- Node1&#45;&gt;Node2 -->
<g id="edge1" class="edge">
<title>Node1&#45;&gt;Node2</title>
<path fill="none" stroke="midnightblue" d="M378.32,-282.62C263.87,-271.41 58.06,-243.87 12.67,-188 -8.63,-161.78 2.14,-144.41 11.67,-112 14.69,-101.76 20.83,-91.66 26.69,-83.63"/>
<polygon fill="midnightblue" stroke="midnightblue" points="29.61,-85.58 33,-75.54 24.09,-81.27 29.61,-85.58"/>
</g>
<!-- Node3 -->
<g id="node3" class="node">
<title>Node3</title>
<g id="a_node3"><a xlink:title=" ">
<polygon fill="white" stroke="#bfbfbf" points="496.17,-224.5 496.17,-243.5 543.17,-243.5 543.17,-224.5 496.17,-224.5"/>
<text text-anchor="middle" x="519.67" y="-231.5" font-family="Helvetica,sans-Serif" font-size="10.00">queue</text>
</a>
</g>
</g>
<!-- Node1&#45;&gt;Node3 -->
<g id="edge2" class="edge">
<title>Node1&#45;&gt;Node3</title>
<path fill="none" stroke="midnightblue" d="M465.96,-280.32C475.51,-272.26 489.95,-260.08 501.46,-250.37"/>
<polygon fill="midnightblue" stroke="midnightblue" points="503.82,-252.96 509.2,-243.83 499.3,-247.61 503.82,-252.96"/>
</g>
<!-- Node4 -->
<g id="node4" class="node">
<title>Node4</title>
<g id="a_node4"><a xlink:title=" ">
<polygon fill="white" stroke="#bfbfbf" points="561.67,-224.5 561.67,-243.5 609.67,-243.5 609.67,-224.5 561.67,-224.5"/>
<text text-anchor="middle" x="585.67" y="-231.5" font-family="Helvetica,sans-Serif" font-size="10.00">thread</text>
</a>
</g>
</g>
<!-- Node1&#45;&gt;Node4 -->
<g id="edge3" class="edge">
<title>Node1&#45;&gt;Node4</title>
<path fill="none" stroke="midnightblue" d="M476.27,-280.44C497.67,-271.56 531.36,-257.56 555.7,-247.45"/>
<polygon fill="midnightblue" stroke="midnightblue" points="557.28,-250.58 565.17,-243.52 554.59,-244.12 557.28,-250.58"/>
</g>
<!-- Node5 -->
<g id="node5" class="node">
<title>Node5</title>
<g id="a_node5"><a xlink:href="user__interface_8h.html" target="_top" xlink:title=" ">
<polygon fill="white" stroke="black" points="307.67,-224.5 307.67,-243.5 477.67,-243.5 477.67,-224.5 307.67,-224.5"/>
<text text-anchor="middle" x="392.67" y="-231.5" font-family="Helvetica,sans-Serif" font-size="10.00">src/application/user_interface.h</text>
</a>
</g>
</g>
<!-- Node1&#45;&gt;Node5 -->
<g id="edge4" class="edge">
<title>Node1&#45;&gt;Node5</title>
<path fill="none" stroke="midnightblue" d="M445.55,-280.32C436.15,-272.26 421.93,-260.08 410.61,-250.37"/>
<polygon fill="midnightblue" stroke="midnightblue" points="412.85,-247.68 402.98,-243.83 408.3,-253 412.85,-247.68"/>
</g>
<!-- Node5&#45;&gt;Node2 -->
<g id="edge8" class="edge">
<title>Node5&#45;&gt;Node2</title>
<path fill="none" stroke="midnightblue" d="M307.54,-228.39C205.25,-221.96 44.99,-208.71 26.67,-188 1.32,-159.33 18.81,-110.73 31.24,-84.7"/>
<polygon fill="midnightblue" stroke="midnightblue" points="34.44,-86.13 35.81,-75.63 28.18,-82.98 34.44,-86.13"/>
</g>
<!-- Node6 -->
<g id="node6" class="node">
<title>Node6</title>
<g id="a_node6"><a xlink:title=" ">
<polygon fill="white" stroke="#bfbfbf" points="351.17,-168.5 351.17,-187.5 434.17,-187.5 434.17,-168.5 351.17,-168.5"/>
<text text-anchor="middle" x="392.67" y="-175.5" font-family="Helvetica,sans-Serif" font-size="10.00">GLFW/glfw3.h</text>
</a>
</g>
</g>
<!-- Node5&#45;&gt;Node6 -->
<g id="edge5" class="edge">
<title>Node5&#45;&gt;Node6</title>
<path fill="none" stroke="midnightblue" d="M392.67,-224.08C392.67,-217.01 392.67,-206.86 392.67,-197.99"/>
<polygon fill="midnightblue" stroke="midnightblue" points="396.17,-197.75 392.67,-187.75 389.17,-197.75 396.17,-197.75"/>
</g>
<!-- Node7 -->
<g id="node7" class="node">
<title>Node7</title>
<g id="a_node7"><a xlink:title=" ">
<polygon fill="white" stroke="#bfbfbf" points="338.17,-112.5 338.17,-131.5 391.17,-131.5 391.17,-112.5 338.17,-112.5"/>
<text text-anchor="middle" x="364.67" y="-119.5" font-family="Helvetica,sans-Serif" font-size="10.00">imgui.h</text>
</a>
</g>
</g>
<!-- Node5&#45;&gt;Node7 -->
<g id="edge6" class="edge">
<title>Node5&#45;&gt;Node7</title>
<path fill="none" stroke="midnightblue" d="M407.62,-224.48C426.55,-212.54 455.28,-189.82 442.67,-168 433.61,-152.3 416.76,-141.6 401.03,-134.58"/>
<polygon fill="midnightblue" stroke="midnightblue" points="402.04,-131.21 391.46,-130.67 399.4,-137.69 402.04,-131.21"/>
</g>
<!-- Node8 -->
<g id="node8" class="node">
<title>Node8</title>
<g id="a_node8"><a xlink:title=" ">
<polygon fill="white" stroke="#bfbfbf" points="566.67,-168.5 566.67,-187.5 640.67,-187.5 640.67,-168.5 566.67,-168.5"/>
<text text-anchor="middle" x="603.67" y="-175.5" font-family="Helvetica,sans-Serif" font-size="10.00">forward_list</text>
</a>
</g>
</g>
<!-- Node5&#45;&gt;Node8 -->
<g id="edge7" class="edge">
<title>Node5&#45;&gt;Node8</title>
<path fill="none" stroke="midnightblue" d="M426.11,-224.44C462.53,-215.12 520.9,-200.18 560.7,-190"/>
<polygon fill="midnightblue" stroke="midnightblue" points="561.58,-193.39 570.4,-187.52 559.84,-186.61 561.58,-193.39"/>
</g>
<!-- Node9 -->
<g id="node9" class="node">
<title>Node9</title>
<g id="a_node9"><a xlink:title=" ">
<polygon fill="white" stroke="#bfbfbf" points="313.67,-56.5 313.67,-75.5 357.67,-75.5 357.67,-56.5 313.67,-56.5"/>
<text text-anchor="middle" x="335.67" y="-63.5" font-family="Helvetica,sans-Serif" font-size="10.00">string</text>
</a>
</g>
</g>
<!-- Node5&#45;&gt;Node9 -->
<g id="edge9" class="edge">
<title>Node5&#45;&gt;Node9</title>
<path fill="none" stroke="midnightblue" d="M415.13,-224.38C430.44,-217.18 449.54,-205.29 458.67,-188 462.83,-180.14 462.18,-176.17 458.67,-168 440.67,-126.08 394.71,-96.22 364.36,-80.3"/>
<polygon fill="midnightblue" stroke="midnightblue" points="365.61,-77.01 355.11,-75.62 362.45,-83.26 365.61,-77.01"/>
</g>
<!-- Node10 -->
<g id="node10" class="node">
<title>Node10</title>
<g id="a_node10"><a xlink:href="dataloader_8h.html" target="_top" xlink:title=" ">
<polygon fill="white" stroke="black" points="97.67,-112.5 97.67,-131.5 249.67,-131.5 249.67,-112.5 97.67,-112.5"/>
<text text-anchor="middle" x="173.67" y="-119.5" font-family="Helvetica,sans-Serif" font-size="10.00">src/application/dataloader.h</text>
</a>
</g>
</g>
<!-- Node5&#45;&gt;Node10 -->
<g id="edge10" class="edge">
<title>Node5&#45;&gt;Node10</title>
<path fill="none" stroke="midnightblue" d="M307.26,-228.05C207.66,-221.38 54.31,-208.01 36.67,-188 11.94,-159.94 56.86,-143.01 101.73,-133.49"/>
<polygon fill="midnightblue" stroke="midnightblue" points="102.47,-136.91 111.58,-131.52 101.09,-130.05 102.47,-136.91"/>
</g>
<!-- Node14 -->
<g id="node14" class="node">
<title>Node14</title>
<g id="a_node14"><a xlink:href="abstract__pannel_8h.html" target="_top" xlink:title=" ">
<polygon fill="white" stroke="black" points="46.17,-168.5 46.17,-187.5 333.17,-187.5 333.17,-168.5 46.17,-168.5"/>
<text text-anchor="middle" x="189.67" y="-175.5" font-family="Helvetica,sans-Serif" font-size="10.00">src/application/user_interface/pannel/abstract_pannel.h</text>
</a>
</g>
</g>
<!-- Node5&#45;&gt;Node14 -->
<g id="edge16" class="edge">
<title>Node5&#45;&gt;Node14</title>
<path fill="none" stroke="midnightblue" d="M360.51,-224.44C325.62,-215.16 269.78,-200.31 231.5,-190.13"/>
<polygon fill="midnightblue" stroke="midnightblue" points="232.25,-186.7 221.69,-187.52 230.45,-193.47 232.25,-186.7"/>
</g>
<!-- Node15 -->
<g id="node15" class="node">
<title>Node15</title>
<g id="a_node15"><a xlink:href="abstract__data__reader_8h.html" target="_top" xlink:title=" ">
<polygon fill="white" stroke="black" points="450.17,-112.5 450.17,-131.5 657.17,-131.5 657.17,-112.5 450.17,-112.5"/>
<text text-anchor="middle" x="553.67" y="-119.5" font-family="Helvetica,sans-Serif" font-size="10.00">src/data_reader/abstract_data_reader.h</text>
</a>
</g>
</g>
<!-- Node5&#45;&gt;Node15 -->
<g id="edge25" class="edge">
<title>Node5&#45;&gt;Node15</title>
<path fill="none" stroke="midnightblue" d="M436.4,-224.48C461.45,-217.86 492.25,-206.58 514.67,-188 529.68,-175.57 540.37,-155.77 546.72,-141.29"/>
<polygon fill="midnightblue" stroke="midnightblue" points="550.03,-142.45 550.58,-131.87 543.55,-139.8 550.03,-142.45"/>
</g>
<!-- Node10&#45;&gt;Node2 -->
<g id="edge13" class="edge">
<title>Node10&#45;&gt;Node2</title>
<path fill="none" stroke="midnightblue" d="M152.6,-112.44C130.61,-103.52 95.94,-89.44 71.01,-79.32"/>
<polygon fill="midnightblue" stroke="midnightblue" points="72.23,-76.04 61.65,-75.52 69.6,-82.52 72.23,-76.04"/>
</g>
<!-- Node10&#45;&gt;Node9 -->
<g id="edge14" class="edge">
<title>Node10&#45;&gt;Node9</title>
<path fill="none" stroke="midnightblue" d="M199.34,-112.44C227.64,-103.01 273.19,-87.83 303.76,-77.64"/>
<polygon fill="midnightblue" stroke="midnightblue" points="305.13,-80.87 313.51,-74.39 302.92,-74.23 305.13,-80.87"/>
</g>
<!-- Node11 -->
<g id="node11" class="node">
<title>Node11</title>
<g id="a_node11"><a xlink:title=" ">
<polygon fill="white" stroke="#bfbfbf" points="103.67,-56.5 103.67,-75.5 145.67,-75.5 145.67,-56.5 103.67,-56.5"/>
<text text-anchor="middle" x="124.67" y="-63.5" font-family="Helvetica,sans-Serif" font-size="10.00">array</text>
</a>
</g>
</g>
<!-- Node10&#45;&gt;Node11 -->
<g id="edge11" class="edge">
<title>Node10&#45;&gt;Node11</title>
<path fill="none" stroke="midnightblue" d="M165.58,-112.08C158.52,-104.3 148.09,-92.8 139.53,-83.37"/>
<polygon fill="midnightblue" stroke="midnightblue" points="141.93,-80.8 132.62,-75.75 136.74,-85.51 141.93,-80.8"/>
</g>
<!-- Node12 -->
<g id="node12" class="node">
<title>Node12</title>
<g id="a_node12"><a xlink:title=" ">
<polygon fill="white" stroke="#bfbfbf" points="430.67,-0.5 430.67,-19.5 498.67,-19.5 498.67,-0.5 430.67,-0.5"/>
<text text-anchor="middle" x="464.67" y="-7.5" font-family="Helvetica,sans-Serif" font-size="10.00">filesystem</text>
</a>
</g>
</g>
<!-- Node10&#45;&gt;Node12 -->
<g id="edge12" class="edge">
<title>Node10&#45;&gt;Node12</title>
<path fill="none" stroke="midnightblue" d="M173.49,-112.33C173.69,-98.25 176.31,-70.5 192.67,-56 225.72,-26.71 352.45,-16.26 420.64,-12.71"/>
<polygon fill="midnightblue" stroke="midnightblue" points="420.84,-16.21 430.65,-12.22 420.49,-9.22 420.84,-16.21"/>
</g>
<!-- Node13 -->
<g id="node13" class="node">
<title>Node13</title>
<g id="a_node13"><a xlink:title=" ">
<polygon fill="white" stroke="#bfbfbf" points="202.17,-56.5 202.17,-75.5 295.17,-75.5 295.17,-56.5 202.17,-56.5"/>
<text text-anchor="middle" x="248.67" y="-63.5" font-family="Helvetica,sans-Serif" font-size="10.00">unordered_map</text>
</a>
</g>
</g>
<!-- Node10&#45;&gt;Node13 -->
<g id="edge15" class="edge">
<title>Node10&#45;&gt;Node13</title>
<path fill="none" stroke="midnightblue" d="M185.72,-112.32C197.14,-104.11 214.51,-91.6 228.11,-81.81"/>
<polygon fill="midnightblue" stroke="midnightblue" points="230.33,-84.52 236.4,-75.83 226.24,-78.84 230.33,-84.52"/>
</g>
<!-- Node14&#45;&gt;Node2 -->
<g id="edge18" class="edge">
<title>Node14&#45;&gt;Node2</title>
<path fill="none" stroke="midnightblue" d="M160.52,-168.49C139.08,-161.22 110.07,-149.2 88.67,-132 72.33,-118.86 58.7,-98.9 50.2,-84.57"/>
<polygon fill="midnightblue" stroke="midnightblue" points="53.14,-82.66 45.15,-75.7 47.05,-86.12 53.14,-82.66"/>
</g>
<!-- Node14&#45;&gt;Node7 -->
<g id="edge17" class="edge">
<title>Node14&#45;&gt;Node7</title>
<path fill="none" stroke="midnightblue" d="M217.4,-168.44C247.36,-159.2 295.23,-144.43 328.21,-134.25"/>
<polygon fill="midnightblue" stroke="midnightblue" points="329.41,-137.54 337.94,-131.25 327.35,-130.85 329.41,-137.54"/>
</g>
<!-- Node14&#45;&gt;Node9 -->
<g id="edge19" class="edge">
<title>Node14&#45;&gt;Node9</title>
<path fill="none" stroke="midnightblue" d="M204.03,-168.36C218.23,-159.64 240.43,-145.57 258.67,-132 279.99,-116.14 303.12,-96.22 318.4,-82.64"/>
<polygon fill="midnightblue" stroke="midnightblue" points="320.91,-85.09 326.03,-75.82 316.24,-79.88 320.91,-85.09"/>
</g>
<!-- Node14&#45;&gt;Node10 -->
<g id="edge20" class="edge">
<title>Node14&#45;&gt;Node10</title>
<path fill="none" stroke="midnightblue" d="M187.03,-168.08C184.89,-160.85 181.8,-150.41 179.13,-141.4"/>
<polygon fill="midnightblue" stroke="midnightblue" points="182.46,-140.34 176.27,-131.75 175.75,-142.33 182.46,-140.34"/>
</g>
<!-- Node14&#45;&gt;Node15 -->
<g id="edge21" class="edge">
<title>Node14&#45;&gt;Node15</title>
<path fill="none" stroke="midnightblue" d="M247.35,-168.44C312.18,-158.83 417.33,-143.23 485.99,-133.04"/>
<polygon fill="midnightblue" stroke="midnightblue" points="486.89,-136.45 496.27,-131.52 485.86,-129.52 486.89,-136.45"/>
</g>
<!-- Node15&#45;&gt;Node12 -->
<g id="edge22" class="edge">
<title>Node15&#45;&gt;Node12</title>
<path fill="none" stroke="midnightblue" d="M532.68,-112.42C517.01,-104.99 496.22,-92.78 483.67,-76 473.67,-62.61 468.91,-44.04 466.67,-30.18"/>
<polygon fill="midnightblue" stroke="midnightblue" points="470.08,-29.32 465.31,-19.86 463.14,-30.23 470.08,-29.32"/>
</g>
<!-- Node16 -->
<g id="node16" class="node">
<title>Node16</title>
<g id="a_node16"><a xlink:href="types_8h.html" target="_top" xlink:title=" ">
<polygon fill="white" stroke="black" points="492.67,-56.5 492.67,-75.5 614.67,-75.5 614.67,-56.5 492.67,-56.5"/>
<text text-anchor="middle" x="553.67" y="-63.5" font-family="Helvetica,sans-Serif" font-size="10.00">src/data_type/types.h</text>
</a>
</g>
</g>
<!-- Node15&#45;&gt;Node16 -->
<g id="edge23" class="edge">
<title>Node15&#45;&gt;Node16</title>
<path fill="none" stroke="midnightblue" d="M553.67,-112.08C553.67,-105.01 553.67,-94.86 553.67,-85.99"/>
<polygon fill="midnightblue" stroke="midnightblue" points="557.17,-85.75 553.67,-75.75 550.17,-85.75 557.17,-85.75"/>
</g>
<!-- Node16&#45;&gt;Node12 -->
<g id="edge24" class="edge">
<title>Node16&#45;&gt;Node12</title>
<path fill="none" stroke="midnightblue" d="M539.37,-56.32C525.49,-47.9 504.18,-34.97 487.87,-25.07"/>
<polygon fill="midnightblue" stroke="midnightblue" points="489.3,-21.85 478.94,-19.65 485.67,-27.83 489.3,-21.85"/>
</g>
</g>
</svg>
        <g id="navigator" transform="translate(0 0)" fill="#404254">
                <rect fill="#f2f5e9" fill-opacity="0.5" stroke="#606060" stroke-width=".5" x="0" y="0" width="60" height="60"/>
                <use id="zoomplus" xlink:href="#zoomPlus" x="17" y="9" onmousedown="handleZoom(evt,'in')"/>
                <use id="zoomminus" xlink:href="#zoomMin" x="42" y="9" onmousedown="handleZoom(evt,'out')"/>
                <use id="reset" xlink:href="#resetDef" x="30" y="36" onmousedown="handleReset()"/>
                <g id="arrowUp" xlink:href="#dirArrow" transform="translate(30 24)" onmousedown="handlePan(0,-1)">
                  <use xlink:href="#rim" fill="#404040">
                        <set attributeName="fill" to="#808080" begin="arrowUp.mouseover" end="arrowUp.mouseout"/>
                  </use>
                  <path fill="none" stroke="white" stroke-width="1.5" d="M0,-3.0v7 M-2.5,-0.5L0,-3.0L2.5,-0.5"/>
                </g>
                <g id="arrowRight" xlink:href="#dirArrow" transform="rotate(90) translate(36 -43)" onmousedown="handlePan(1,0)">
                  <use xlink:href="#rim" fill="#404040">
                        <set attributeName="fill" to="#808080" begin="arrowRight.mouseover" end="arrowRight.mouseout"/>
                  </use>
                  <path fill="none" stroke="white" stroke-width="1.5" d="M0,-3.0v7 M-2.5,-0.5L0,-3.0L2.5,-0.5"/>
                </g>
                <g id="arrowDown" xlink:href="#dirArrow" transform="rotate(180) translate(-30 -48)" onmousedown="handlePan(0,1)">
                  <use xlink:href="#rim" fill="#404040">
                        <set attributeName="fill" to="#808080" begin="arrowDown.mouseover" end="arrowDown.mouseout"/>
                  </use>
                  <path fill="none" stroke="white" stroke-width="1.5" d="M0,-3.0v7 M-2.5,-0.5L0,-3.0L2.5,-0.5"/>
                </g>
                <g id="arrowLeft" xlink:href="#dirArrow" transform="rotate(270) translate(-36 17)" onmousedown="handlePan(-1,0)">
                  <use xlink:href="#rim" fill="#404040">
                        <set attributeName="fill" to="#808080" begin="arrowLeft.mouseover" end="arrowLeft.mouseout"/>
                  </use>
                  <path fill="none" stroke="white" stroke-width="1.5" d="M0,-3.0v7 M-2.5,-0.5L0,-3.0L2.5,-0.5"/>
                </g>
        </g>
        <svg viewBox="0 0 15 15" width="100%" height="30px" preserveAspectRatio="xMaxYMin meet">
         <g id="arrow_out" transform="scale(0.3 0.3)">
          <a xlink:href="application_8h__incl_org.svg" target="_base">
           <rect id="button" ry="5" rx="5" y="6" x="6" height="38" width="38"
                fill="#f2f5e9" fill-opacity="0.5" stroke="#606060" stroke-width="1.0"/>
           <path id="arrow"
             d="M 11.500037,31.436501 C 11.940474,20.09759 22.043105,11.32322 32.158766,21.979434 L 37.068811,17.246167 C 37.068811,17.246167 37.088388,32 37.088388,32 L 22.160133,31.978069 C 22.160133,31.978069 26.997745,27.140456 26.997745,27.140456 C 18.528582,18.264221 13.291696,25.230495 11.500037,31.436501 z"
             style="fill:#404040;"/>
          </a>
         </g>
        </svg>
</svg>
