<?xml version="1.0" encoding="UTF-8" standalone="no"?>
<!DOCTYPE svg PUBLIC "-//W3C//DTD SVG 1.1//EN"
 "http://www.w3.org/Graphics/SVG/1.1/DTD/svg11.dtd">
<!-- Generated by graphviz version 2.43.0 (0)
 -->
<!-- Title: src/application.cpp Pages: 1 -->
<!--zoomable 364 -->
<svg id="main" version="1.1" xmlns="http://www.w3.org/2000/svg" xmlns:xlink="http://www.w3.org/1999/xlink" xml:space="preserve" onload="init(evt)">
<style type="text/css"><![CDATA[
.edge:hover path { stroke: red; }
.edge:hover polygon { stroke: red; fill: red; }
]]></style>
<script type="text/javascript"><![CDATA[
var edges = document.getElementsByTagName('g');
if (edges && edges.length) {
  for (var i=0;i<edges.length;i++) {
    if (edges[i].id.substr(0,4)=='edge') {
      edges[i].setAttribute('class','edge');
    }
  }
}
]]></script>
        <defs>
                <circle id="rim" cx="0" cy="0" r="7"/>
                <circle id="rim2" cx="0" cy="0" r="3.5"/>
                <g id="zoomPlus">
                        <use xlink:href="#rim" fill="#404040">
                                <set attributeName="fill" to="#808080" begin="zoomplus.mouseover" end="zoomplus.mouseout"/>
                        </use>
                        <path d="M-4,0h8M0,-4v8" fill="none" stroke="white" stroke-width="1.5" pointer-events="none"/>
                </g>
                <g id="zoomMin">
                        <use xlink:href="#rim" fill="#404040">
                                <set attributeName="fill" to="#808080" begin="zoomminus.mouseover" end="zoomminus.mouseout"/>
                        </use>
                        <path d="M-4,0h8" fill="none" stroke="white" stroke-width="1.5" pointer-events="none"/>
                </g>
                <g id="dirArrow">
                        <path fill="none" stroke="white" stroke-width="1.5" d="M0,-3.0v7 M-2.5,-0.5L0,-3.0L2.5,-0.5"/>
                </g>
               <g id="resetDef">
                       <use xlink:href="#rim2" fill="#404040">
                               <set attributeName="fill" to="#808080" begin="reset.mouseover" end="reset.mouseout"/>
                       </use>
               </g>
        </defs>

<script type="text/javascript">
var viewWidth = 1101;
var viewHeight = 364;
var sectionId = 'dynsection-0';
</script>
<script xlink:href="svgpan.js"/>
<svg id="graph" class="graph">
<g id="viewport">
<title>src/application.cpp</title>
<polygon fill="white" stroke="transparent" points="-4,4 -4,-360 1096.63,-360 1096.63,4 -4,4"/>
<!-- Node1 -->
<g id="node1" class="node">
<title>Node1</title>
<g id="a_node1"><a xlink:title=" ">
<polygon fill="#bfbfbf" stroke="black" points="79,-336.5 79,-355.5 187,-355.5 187,-336.5 79,-336.5"/>
<text text-anchor="middle" x="133" y="-343.5" font-family="Helvetica,sans-Serif" font-size="10.00">src/application.cpp</text>
</a>
</g>
</g>
<!-- Node2 -->
<g id="node2" class="node">
<title>Node2</title>
<g id="a_node2"><a xlink:href="application_8h.html" target="_top" xlink:title=" ">
<polygon fill="white" stroke="black" points="123.5,-280.5 123.5,-299.5 220.5,-299.5 220.5,-280.5 123.5,-280.5"/>
<text text-anchor="middle" x="172" y="-287.5" font-family="Helvetica,sans-Serif" font-size="10.00">src/application.h</text>
</a>
</g>
</g>
<!-- Node1&#45;&gt;Node2 -->
<g id="edge1" class="edge">
<title>Node1&#45;&gt;Node2</title>
<path fill="none" stroke="midnightblue" d="M139.44,-336.08C144.95,-328.46 153.03,-317.26 159.76,-307.94"/>
<polygon fill="midnightblue" stroke="midnightblue" points="162.66,-309.91 165.68,-299.75 156.99,-305.81 162.66,-309.91"/>
</g>
<!-- Node3 -->
<g id="node3" class="node">
<title>Node3</title>
<g id="a_node3"><a xlink:title=" ">
<polygon fill="white" stroke="#bfbfbf" points="320,-0.5 320,-19.5 378,-19.5 378,-0.5 320,-0.5"/>
<text text-anchor="middle" x="349" y="-7.5" font-family="Helvetica,sans-Serif" font-size="10.00">memory</text>
</a>
</g>
</g>
<!-- Node1&#45;&gt;Node3 -->
<g id="edge43" class="edge">
<title>Node1&#45;&gt;Node3</title>
<path fill="none" stroke="midnightblue" d="M106.09,-336.41C67.22,-322.13 0,-289.54 0,-235 0,-235 0,-235 0,-121 0,-56.62 218.78,-25.23 309.9,-14.95"/>
<polygon fill="midnightblue" stroke="midnightblue" points="310.29,-18.43 319.84,-13.85 309.52,-11.47 310.29,-18.43"/>
</g>
<!-- Node4 -->
<g id="node4" class="node">
<title>Node4</title>
<g id="a_node4"><a xlink:href="frame_8h.html" target="_top" xlink:title=" ">
<polygon fill="white" stroke="black" points="142,-112.5 142,-131.5 288,-131.5 288,-112.5 142,-112.5"/>
<text text-anchor="middle" x="215" y="-119.5" font-family="Helvetica,sans-Serif" font-size="10.00">src/data_structure/frame.h</text>
</a>
</g>
</g>
<!-- Node1&#45;&gt;Node4 -->
<g id="edge44" class="edge">
<title>Node1&#45;&gt;Node4</title>
<path fill="none" stroke="midnightblue" d="M127.77,-336.25C121.01,-323.84 110.58,-300.37 115,-280 126.6,-226.55 133.88,-212.27 166,-168 174.18,-156.72 185.54,-146.08 195.26,-137.98"/>
<polygon fill="midnightblue" stroke="midnightblue" points="197.64,-140.55 203.25,-131.56 193.26,-135.09 197.64,-140.55"/>
</g>
<!-- Node6 -->
<g id="node6" class="node">
<title>Node6</title>
<g id="a_node6"><a xlink:href="shape_8h.html" target="_top" xlink:title=" ">
<polygon fill="white" stroke="black" points="104,-56.5 104,-75.5 250,-75.5 250,-56.5 104,-56.5"/>
<text text-anchor="middle" x="177" y="-63.5" font-family="Helvetica,sans-Serif" font-size="10.00">src/data_structure/shape.h</text>
</a>
</g>
</g>
<!-- Node1&#45;&gt;Node6 -->
<g id="edge45" class="edge">
<title>Node1&#45;&gt;Node6</title>
<path fill="none" stroke="midnightblue" d="M117.31,-336.4C90.33,-320.31 38,-282.94 38,-235 38,-235 38,-235 38,-177 38,-125.58 97.23,-94.42 138.36,-78.98"/>
<polygon fill="midnightblue" stroke="midnightblue" points="139.63,-82.24 147.86,-75.57 137.27,-75.65 139.63,-82.24"/>
</g>
<!-- Node8 -->
<g id="node8" class="node">
<title>Node8</title>
<g id="a_node8"><a xlink:href="user__interface_8h.html" target="_top" xlink:title=" ">
<polygon fill="white" stroke="black" points="357.5,-224.5 357.5,-243.5 470.5,-243.5 470.5,-224.5 357.5,-224.5"/>
<text text-anchor="middle" x="414" y="-231.5" font-family="Helvetica,sans-Serif" font-size="10.00">src/user_interface.h</text>
</a>
</g>
</g>
<!-- Node1&#45;&gt;Node8 -->
<g id="edge46" class="edge">
<title>Node1&#45;&gt;Node8</title>
<path fill="none" stroke="midnightblue" d="M155.05,-336.37C204.6,-316.97 324.92,-269.87 382.41,-247.37"/>
<polygon fill="midnightblue" stroke="midnightblue" points="384.02,-250.5 392.05,-243.59 381.47,-243.98 384.02,-250.5"/>
</g>
<!-- Node21 -->
<g id="node21" class="node">
<title>Node21</title>
<g id="a_node21"><a xlink:href="window_8h.html" target="_top" xlink:title=" ">
<polygon fill="white" stroke="black" points="982,-168.5 982,-187.5 1062,-187.5 1062,-168.5 982,-168.5"/>
<text text-anchor="middle" x="1022" y="-175.5" font-family="Helvetica,sans-Serif" font-size="10.00">src/window.h</text>
</a>
</g>
</g>
<!-- Node1&#45;&gt;Node21 -->
<g id="edge47" class="edge">
<title>Node1&#45;&gt;Node21</title>
<path fill="none" stroke="midnightblue" d="M178.62,-336.48C329.94,-308.23 814.67,-217.71 972.1,-188.32"/>
<polygon fill="midnightblue" stroke="midnightblue" points="972.8,-191.75 981.99,-186.47 971.52,-184.87 972.8,-191.75"/>
</g>
<!-- Node2&#45;&gt;Node3 -->
<g id="edge2" class="edge">
<title>Node2&#45;&gt;Node3</title>
<path fill="none" stroke="midnightblue" d="M172.21,-280.47C173.18,-258.85 178.65,-201.27 209,-168 237.48,-136.78 266.86,-161.62 297,-132 326.12,-103.38 339.92,-55.81 345.6,-29.66"/>
<polygon fill="midnightblue" stroke="midnightblue" points="349.09,-30.07 347.61,-19.58 342.22,-28.7 349.09,-30.07"/>
</g>
<!-- Node2&#45;&gt;Node4 -->
<g id="edge3" class="edge">
<title>Node2&#45;&gt;Node4</title>
<path fill="none" stroke="midnightblue" d="M170.39,-280.4C166.97,-260.01 160.51,-207.53 176,-168 180.36,-156.88 188.72,-146.64 196.59,-138.74"/>
<polygon fill="midnightblue" stroke="midnightblue" points="199.22,-141.07 204.13,-131.68 194.44,-135.96 199.22,-141.07"/>
</g>
<!-- Node2&#45;&gt;Node6 -->
<g id="edge9" class="edge">
<title>Node2&#45;&gt;Node6</title>
<path fill="none" stroke="midnightblue" d="M166.49,-280.21C150.68,-253.86 107.94,-173.48 133,-112 137.8,-100.23 147.33,-89.86 156.29,-82.05"/>
<polygon fill="midnightblue" stroke="midnightblue" points="158.65,-84.64 164.22,-75.63 154.25,-79.2 158.65,-84.64"/>
</g>
<!-- Node2&#45;&gt;Node8 -->
<g id="edge10" class="edge">
<title>Node2&#45;&gt;Node8</title>
<path fill="none" stroke="midnightblue" d="M210.35,-280.44C252.47,-271.04 320.21,-255.93 365.87,-245.74"/>
<polygon fill="midnightblue" stroke="midnightblue" points="366.84,-249.11 375.83,-243.52 365.31,-242.28 366.84,-249.11"/>
</g>
<!-- Node2&#45;&gt;Node21 -->
<g id="edge35" class="edge">
<title>Node2&#45;&gt;Node21</title>
<path fill="none" stroke="midnightblue" d="M220.9,-283.8C344.81,-270.43 681.37,-232.8 972.03,-188.08"/>
<polygon fill="midnightblue" stroke="midnightblue" points="972.57,-191.54 981.92,-186.55 971.5,-184.62 972.57,-191.54"/>
</g>
<!-- Node5 -->
<g id="node5" class="node">
<title>Node5</title>
<g id="a_node5"><a xlink:title=" ">
<polygon fill="white" stroke="#bfbfbf" points="454.5,-0.5 454.5,-19.5 501.5,-19.5 501.5,-0.5 454.5,-0.5"/>
<text text-anchor="middle" x="478" y="-7.5" font-family="Helvetica,sans-Serif" font-size="10.00">vector</text>
</a>
</g>
</g>
<!-- Node4&#45;&gt;Node5 -->
<g id="edge4" class="edge">
<title>Node4&#45;&gt;Node5</title>
<path fill="none" stroke="midnightblue" d="M229.89,-112.43C253.26,-99.19 300.19,-73.5 342,-56 376.12,-41.72 416.5,-28.84 444.35,-20.56"/>
<polygon fill="midnightblue" stroke="midnightblue" points="445.4,-23.9 454.01,-17.72 443.43,-17.18 445.4,-23.9"/>
</g>
<!-- Node4&#45;&gt;Node6 -->
<g id="edge5" class="edge">
<title>Node4&#45;&gt;Node6</title>
<path fill="none" stroke="midnightblue" d="M208.73,-112.08C203.36,-104.46 195.48,-93.26 188.92,-83.94"/>
<polygon fill="midnightblue" stroke="midnightblue" points="191.78,-81.91 183.16,-75.75 186.05,-85.94 191.78,-81.91"/>
</g>
<!-- Node6&#45;&gt;Node3 -->
<g id="edge7" class="edge">
<title>Node6&#45;&gt;Node3</title>
<path fill="none" stroke="midnightblue" d="M204.25,-56.44C233.44,-47.28 279.92,-32.69 312.31,-22.52"/>
<polygon fill="midnightblue" stroke="midnightblue" points="313.38,-25.85 321.87,-19.52 311.28,-19.17 313.38,-25.85"/>
</g>
<!-- Node6&#45;&gt;Node5 -->
<g id="edge8" class="edge">
<title>Node6&#45;&gt;Node5</title>
<path fill="none" stroke="midnightblue" d="M224.69,-56.44C285.93,-45.46 390.65,-26.67 444.24,-17.06"/>
<polygon fill="midnightblue" stroke="midnightblue" points="445.02,-20.47 454.25,-15.26 443.78,-13.58 445.02,-20.47"/>
</g>
<!-- Node7 -->
<g id="node7" class="node">
<title>Node7</title>
<g id="a_node7"><a xlink:title=" ">
<polygon fill="white" stroke="#bfbfbf" points="138.5,-0.5 138.5,-19.5 215.5,-19.5 215.5,-0.5 138.5,-0.5"/>
<text text-anchor="middle" x="177" y="-7.5" font-family="Helvetica,sans-Serif" font-size="10.00">Eigen/Dense</text>
</a>
</g>
</g>
<!-- Node6&#45;&gt;Node7 -->
<g id="edge6" class="edge">
<title>Node6&#45;&gt;Node7</title>
<path fill="none" stroke="midnightblue" d="M177,-56.08C177,-49.01 177,-38.86 177,-29.99"/>
<polygon fill="midnightblue" stroke="midnightblue" points="180.5,-29.75 177,-19.75 173.5,-29.75 180.5,-29.75"/>
</g>
<!-- Node9 -->
<g id="node9" class="node">
<title>Node9</title>
<g id="a_node9"><a xlink:href="button_8h.html" target="_top" xlink:title=" ">
<polygon fill="white" stroke="black" points="644.5,-168.5 644.5,-187.5 791.5,-187.5 791.5,-168.5 644.5,-168.5"/>
<text text-anchor="middle" x="718" y="-175.5" font-family="Helvetica,sans-Serif" font-size="10.00">src/user_interface/button.h</text>
</a>
</g>
</g>
<!-- Node8&#45;&gt;Node9 -->
<g id="edge11" class="edge">
<title>Node8&#45;&gt;Node9</title>
<path fill="none" stroke="midnightblue" d="M462.17,-224.44C515.87,-214.9 602.69,-199.48 660.05,-189.29"/>
<polygon fill="midnightblue" stroke="midnightblue" points="660.82,-192.71 670.06,-187.52 659.6,-185.82 660.82,-192.71"/>
</g>
<!-- Node11 -->
<g id="node11" class="node">
<title>Node11</title>
<g id="a_node11"><a xlink:href="ui_8h.html" target="_top" xlink:title=" ">
<polygon fill="white" stroke="black" points="475.5,-112.5 475.5,-131.5 600.5,-131.5 600.5,-112.5 475.5,-112.5"/>
<text text-anchor="middle" x="538" y="-119.5" font-family="Helvetica,sans-Serif" font-size="10.00">src/user_interface/ui.h</text>
</a>
</g>
</g>
<!-- Node8&#45;&gt;Node11 -->
<g id="edge34" class="edge">
<title>Node8&#45;&gt;Node11</title>
<path fill="none" stroke="midnightblue" d="M414.26,-224.31C415.11,-210.69 418.65,-184.19 433,-168 447.18,-152 468.03,-141.5 487.43,-134.7"/>
<polygon fill="midnightblue" stroke="midnightblue" points="488.66,-137.98 497.09,-131.56 486.5,-131.32 488.66,-137.98"/>
</g>
<!-- Node17 -->
<g id="node17" class="node">
<title>Node17</title>
<g id="a_node17"><a xlink:href="image__viewer_8h.html" target="_top" xlink:title=" ">
<polygon fill="white" stroke="black" points="442,-168.5 442,-187.5 626,-187.5 626,-168.5 442,-168.5"/>
<text text-anchor="middle" x="534" y="-175.5" font-family="Helvetica,sans-Serif" font-size="10.00">src/user_interface/image_viewer.h</text>
</a>
</g>
</g>
<!-- Node8&#45;&gt;Node17 -->
<g id="edge25" class="edge">
<title>Node8&#45;&gt;Node17</title>
<path fill="none" stroke="midnightblue" d="M433.01,-224.44C452.59,-215.64 483.31,-201.81 505.73,-191.72"/>
<polygon fill="midnightblue" stroke="midnightblue" points="507.39,-194.81 515.07,-187.52 504.52,-188.43 507.39,-194.81"/>
</g>
<!-- Node18 -->
<g id="node18" class="node">
<title>Node18</title>
<g id="a_node18"><a xlink:href="selector_8h.html" target="_top" xlink:title=" ">
<polygon fill="white" stroke="black" points="810,-168.5 810,-187.5 964,-187.5 964,-168.5 810,-168.5"/>
<text text-anchor="middle" x="887" y="-175.5" font-family="Helvetica,sans-Serif" font-size="10.00">src/user_interface/selector.h</text>
</a>
</g>
</g>
<!-- Node8&#45;&gt;Node18 -->
<g id="edge27" class="edge">
<title>Node8&#45;&gt;Node18</title>
<path fill="none" stroke="midnightblue" d="M470.59,-226.54C553,-217.13 706.66,-199.59 802.51,-188.65"/>
<polygon fill="midnightblue" stroke="midnightblue" points="802.93,-192.12 812.46,-187.51 802.13,-185.17 802.93,-192.12"/>
</g>
<!-- Node20 -->
<g id="node20" class="node">
<title>Node20</title>
<g id="a_node20"><a xlink:href="top__viewer_8h.html" target="_top" xlink:title=" ">
<polygon fill="white" stroke="black" points="217.5,-168.5 217.5,-187.5 386.5,-187.5 386.5,-168.5 217.5,-168.5"/>
<text text-anchor="middle" x="302" y="-175.5" font-family="Helvetica,sans-Serif" font-size="10.00">src/user_interface/top_viewer.h</text>
</a>
</g>
</g>
<!-- Node8&#45;&gt;Node20 -->
<g id="edge31" class="edge">
<title>Node8&#45;&gt;Node20</title>
<path fill="none" stroke="midnightblue" d="M396.01,-224.32C377.96,-215.62 349.95,-202.12 329.2,-192.11"/>
<polygon fill="midnightblue" stroke="midnightblue" points="330.48,-188.84 319.95,-187.65 327.44,-195.15 330.48,-188.84"/>
</g>
<!-- Node10 -->
<g id="node10" class="node">
<title>Node10</title>
<g id="a_node10"><a xlink:title=" ">
<polygon fill="white" stroke="#bfbfbf" points="783,-56.5 783,-75.5 827,-75.5 827,-56.5 783,-56.5"/>
<text text-anchor="middle" x="805" y="-63.5" font-family="Helvetica,sans-Serif" font-size="10.00">string</text>
</a>
</g>
</g>
<!-- Node9&#45;&gt;Node10 -->
<g id="edge12" class="edge">
<title>Node9&#45;&gt;Node10</title>
<path fill="none" stroke="midnightblue" d="M717.79,-168.15C717.91,-154.77 719.87,-129.16 732,-112 742.22,-97.54 758.7,-86.8 773.42,-79.45"/>
<polygon fill="midnightblue" stroke="midnightblue" points="775.17,-82.5 782.76,-75.1 772.21,-76.15 775.17,-82.5"/>
</g>
<!-- Node9&#45;&gt;Node11 -->
<g id="edge13" class="edge">
<title>Node9&#45;&gt;Node11</title>
<path fill="none" stroke="midnightblue" d="M689.48,-168.44C658.93,-159.28 610.29,-144.69 576.4,-134.52"/>
<polygon fill="midnightblue" stroke="midnightblue" points="576.97,-131.04 566.39,-131.52 574.96,-137.74 576.97,-131.04"/>
</g>
<!-- Node13 -->
<g id="node13" class="node">
<title>Node13</title>
<g id="a_node13"><a xlink:href="callback_8h.html" target="_top" xlink:title=" ">
<polygon fill="white" stroke="black" points="538.5,-56.5 538.5,-75.5 645.5,-75.5 645.5,-56.5 538.5,-56.5"/>
<text text-anchor="middle" x="592" y="-63.5" font-family="Helvetica,sans-Serif" font-size="10.00">src/utils/callback.h</text>
</a>
</g>
</g>
<!-- Node9&#45;&gt;Node13 -->
<g id="edge23" class="edge">
<title>Node9&#45;&gt;Node13</title>
<path fill="none" stroke="midnightblue" d="M708.11,-168.37C686.86,-149.81 636.57,-105.91 609.68,-82.44"/>
<polygon fill="midnightblue" stroke="midnightblue" points="611.68,-79.53 601.84,-75.59 607.07,-84.8 611.68,-79.53"/>
</g>
<!-- Node15 -->
<g id="node15" class="node">
<title>Node15</title>
<g id="a_node15"><a xlink:href="imgui_8h.html" target="_top" xlink:title=" ">
<polygon fill="white" stroke="black" points="663.5,-56.5 663.5,-75.5 758.5,-75.5 758.5,-56.5 663.5,-56.5"/>
<text text-anchor="middle" x="711" y="-63.5" font-family="Helvetica,sans-Serif" font-size="10.00">src/utils/imgui.h</text>
</a>
</g>
</g>
<!-- Node9&#45;&gt;Node15 -->
<g id="edge24" class="edge">
<title>Node9&#45;&gt;Node15</title>
<path fill="none" stroke="midnightblue" d="M713.12,-168.37C708.44,-159.55 701.69,-145.3 699,-132 695.83,-116.36 699.65,-98.53 703.79,-85.51"/>
<polygon fill="midnightblue" stroke="midnightblue" points="707.17,-86.44 707.21,-75.85 700.57,-84.11 707.17,-86.44"/>
</g>
<!-- Node11&#45;&gt;Node3 -->
<g id="edge14" class="edge">
<title>Node11&#45;&gt;Node3</title>
<path fill="none" stroke="midnightblue" d="M528.36,-112.35C513.16,-99.03 482.32,-73.2 453,-56 430.59,-42.85 403.62,-31.29 382.76,-23.18"/>
<polygon fill="midnightblue" stroke="midnightblue" points="383.94,-19.89 373.35,-19.59 381.45,-26.43 383.94,-19.89"/>
</g>
<!-- Node11&#45;&gt;Node5 -->
<g id="edge17" class="edge">
<title>Node11&#45;&gt;Node5</title>
<path fill="none" stroke="midnightblue" d="M533.29,-112.37C523.48,-94.38 500.66,-52.55 487.61,-28.63"/>
<polygon fill="midnightblue" stroke="midnightblue" points="490.55,-26.69 482.69,-19.59 484.4,-30.05 490.55,-26.69"/>
</g>
<!-- Node11&#45;&gt;Node10 -->
<g id="edge15" class="edge">
<title>Node11&#45;&gt;Node10</title>
<path fill="none" stroke="midnightblue" d="M584.82,-112.48C631.39,-103.86 704.81,-89.86 768,-76 769.49,-75.67 771.02,-75.33 772.56,-74.98"/>
<polygon fill="midnightblue" stroke="midnightblue" points="773.8,-78.28 782.73,-72.59 772.2,-71.47 773.8,-78.28"/>
</g>
<!-- Node12 -->
<g id="node12" class="node">
<title>Node12</title>
<g id="a_node12"><a xlink:title=" ">
<polygon fill="white" stroke="#bfbfbf" points="350.5,-56.5 350.5,-75.5 443.5,-75.5 443.5,-56.5 350.5,-56.5"/>
<text text-anchor="middle" x="397" y="-63.5" font-family="Helvetica,sans-Serif" font-size="10.00">unordered_map</text>
</a>
</g>
</g>
<!-- Node11&#45;&gt;Node12 -->
<g id="edge16" class="edge">
<title>Node11&#45;&gt;Node12</title>
<path fill="none" stroke="midnightblue" d="M515.66,-112.44C492.25,-103.48 455.26,-89.31 428.81,-79.18"/>
<polygon fill="midnightblue" stroke="midnightblue" points="429.83,-75.82 419.24,-75.52 427.32,-82.36 429.83,-75.82"/>
</g>
<!-- Node11&#45;&gt;Node13 -->
<g id="edge18" class="edge">
<title>Node11&#45;&gt;Node13</title>
<path fill="none" stroke="midnightblue" d="M546.92,-112.08C554.78,-104.22 566.43,-92.57 575.92,-83.08"/>
<polygon fill="midnightblue" stroke="midnightblue" points="578.65,-85.3 583.25,-75.75 573.7,-80.35 578.65,-85.3"/>
</g>
<!-- Node11&#45;&gt;Node15 -->
<g id="edge21" class="edge">
<title>Node11&#45;&gt;Node15</title>
<path fill="none" stroke="midnightblue" d="M565.41,-112.44C594.77,-103.28 641.52,-88.69 674.1,-78.52"/>
<polygon fill="midnightblue" stroke="midnightblue" points="675.21,-81.84 683.72,-75.52 673.13,-75.16 675.21,-81.84"/>
</g>
<!-- Node13&#45;&gt;Node3 -->
<g id="edge20" class="edge">
<title>Node13&#45;&gt;Node3</title>
<path fill="none" stroke="midnightblue" d="M553.5,-56.44C508.21,-46.38 433.45,-29.77 387.96,-19.66"/>
<polygon fill="midnightblue" stroke="midnightblue" points="388.69,-16.24 378.17,-17.48 387.17,-23.07 388.69,-16.24"/>
</g>
<!-- Node14 -->
<g id="node14" class="node">
<title>Node14</title>
<g id="a_node14"><a xlink:title=" ">
<polygon fill="white" stroke="#bfbfbf" points="574.5,-0.5 574.5,-19.5 609.5,-19.5 609.5,-0.5 574.5,-0.5"/>
<text text-anchor="middle" x="592" y="-7.5" font-family="Helvetica,sans-Serif" font-size="10.00">any</text>
</a>
</g>
</g>
<!-- Node13&#45;&gt;Node14 -->
<g id="edge19" class="edge">
<title>Node13&#45;&gt;Node14</title>
<path fill="none" stroke="midnightblue" d="M592,-56.08C592,-49.01 592,-38.86 592,-29.99"/>
<polygon fill="midnightblue" stroke="midnightblue" points="595.5,-29.75 592,-19.75 588.5,-29.75 595.5,-29.75"/>
</g>
<!-- Node16 -->
<g id="node16" class="node">
<title>Node16</title>
<g id="a_node16"><a xlink:title=" ">
<polygon fill="white" stroke="#bfbfbf" points="858,-0.5 858,-19.5 956,-19.5 956,-0.5 858,-0.5"/>
<text text-anchor="middle" x="907" y="-7.5" font-family="Helvetica,sans-Serif" font-size="10.00">bindings/imgui.h</text>
</a>
</g>
</g>
<!-- Node15&#45;&gt;Node16 -->
<g id="edge22" class="edge">
<title>Node15&#45;&gt;Node16</title>
<path fill="none" stroke="midnightblue" d="M742.06,-56.44C775.6,-47.2 829.2,-32.44 866.14,-22.26"/>
<polygon fill="midnightblue" stroke="midnightblue" points="867.38,-25.55 876.09,-19.52 865.52,-18.8 867.38,-25.55"/>
</g>
<!-- Node17&#45;&gt;Node11 -->
<g id="edge26" class="edge">
<title>Node17&#45;&gt;Node11</title>
<path fill="none" stroke="midnightblue" d="M534.66,-168.08C535.18,-161.01 535.94,-150.86 536.59,-141.99"/>
<polygon fill="midnightblue" stroke="midnightblue" points="540.1,-141.98 537.35,-131.75 533.12,-141.47 540.1,-141.98"/>
</g>
<!-- Node18&#45;&gt;Node10 -->
<g id="edge29" class="edge">
<title>Node18&#45;&gt;Node10</title>
<path fill="none" stroke="midnightblue" d="M872.37,-168.3C859.91,-160.24 842.28,-147.24 831,-132 820.62,-117.97 813.7,-99.23 809.63,-85.47"/>
<polygon fill="midnightblue" stroke="midnightblue" points="812.97,-84.42 806.96,-75.7 806.22,-86.27 812.97,-84.42"/>
</g>
<!-- Node18&#45;&gt;Node11 -->
<g id="edge30" class="edge">
<title>Node18&#45;&gt;Node11</title>
<path fill="none" stroke="midnightblue" d="M831.7,-168.44C769.67,-158.85 669.14,-143.29 603.3,-133.1"/>
<polygon fill="midnightblue" stroke="midnightblue" points="603.46,-129.59 593.04,-131.52 602.39,-136.5 603.46,-129.59"/>
</g>
<!-- Node19 -->
<g id="node19" class="node">
<title>Node19</title>
<g id="a_node19"><a xlink:title=" ">
<polygon fill="white" stroke="#bfbfbf" points="741,-112.5 741,-131.5 783,-131.5 783,-112.5 741,-112.5"/>
<text text-anchor="middle" x="762" y="-119.5" font-family="Helvetica,sans-Serif" font-size="10.00">array</text>
</a>
</g>
</g>
<!-- Node18&#45;&gt;Node19 -->
<g id="edge28" class="edge">
<title>Node18&#45;&gt;Node19</title>
<path fill="none" stroke="midnightblue" d="M867.19,-168.44C846.71,-159.6 814.52,-145.69 791.14,-135.59"/>
<polygon fill="midnightblue" stroke="midnightblue" points="792.28,-132.27 781.71,-131.52 789.51,-138.7 792.28,-132.27"/>
</g>
<!-- Node20&#45;&gt;Node4 -->
<g id="edge32" class="edge">
<title>Node20&#45;&gt;Node4</title>
<path fill="none" stroke="midnightblue" d="M288.02,-168.32C274.45,-159.9 253.62,-146.97 237.68,-137.07"/>
<polygon fill="midnightblue" stroke="midnightblue" points="239.29,-133.95 228.94,-131.65 235.59,-139.9 239.29,-133.95"/>
</g>
<!-- Node20&#45;&gt;Node11 -->
<g id="edge33" class="edge">
<title>Node20&#45;&gt;Node11</title>
<path fill="none" stroke="midnightblue" d="M339.39,-168.44C380.39,-159.06 446.25,-143.99 490.78,-133.8"/>
<polygon fill="midnightblue" stroke="midnightblue" points="491.81,-137.16 500.78,-131.52 490.25,-130.34 491.81,-137.16"/>
</g>
<!-- Node21&#45;&gt;Node3 -->
<g id="edge37" class="edge">
<title>Node21&#45;&gt;Node3</title>
<path fill="none" stroke="midnightblue" d="M1019.92,-168.13C1016.22,-154.27 1007.23,-127.45 990,-112 935.78,-63.38 907.07,-71.92 836,-56 666.14,-17.94 619.33,-36.04 446,-20 427.17,-18.26 406.29,-16.32 388.74,-14.69"/>
<polygon fill="midnightblue" stroke="midnightblue" points="388.57,-11.16 378.29,-13.72 387.92,-18.13 388.57,-11.16"/>
</g>
<!-- Node21&#45;&gt;Node5 -->
<g id="edge39" class="edge">
<title>Node21&#45;&gt;Node5</title>
<path fill="none" stroke="midnightblue" d="M1027.49,-168.31C1040.62,-146.33 1070.64,-87.97 1041,-56 1005.02,-17.18 618.72,-24.69 566,-20 548.06,-18.4 528.08,-16.38 511.7,-14.66"/>
<polygon fill="midnightblue" stroke="midnightblue" points="511.83,-11.15 501.51,-13.57 511.09,-18.11 511.83,-11.15"/>
</g>
<!-- Node21&#45;&gt;Node10 -->
<g id="edge38" class="edge">
<title>Node21&#45;&gt;Node10</title>
<path fill="none" stroke="midnightblue" d="M1016.84,-168.42C1008,-154.46 988.62,-126.89 965,-112 925.24,-86.94 871.31,-75.55 837.33,-70.58"/>
<polygon fill="midnightblue" stroke="midnightblue" points="837.42,-67.06 827.04,-69.19 836.48,-74 837.42,-67.06"/>
</g>
<!-- Node21&#45;&gt;Node11 -->
<g id="edge41" class="edge">
<title>Node21&#45;&gt;Node11</title>
<path fill="none" stroke="midnightblue" d="M981.93,-169.38C978.91,-168.88 975.91,-168.42 973,-168 846.13,-149.81 697.42,-136.04 610.85,-128.78"/>
<polygon fill="midnightblue" stroke="midnightblue" points="611.12,-125.29 600.86,-127.94 610.54,-132.26 611.12,-125.29"/>
</g>
<!-- Node21&#45;&gt;Node13 -->
<g id="edge42" class="edge">
<title>Node21&#45;&gt;Node13</title>
<path fill="none" stroke="midnightblue" d="M1011.47,-168.37C991.66,-152.32 949.29,-118.85 932,-112 819.63,-67.46 780.1,-91.43 655.89,-76.04"/>
<polygon fill="midnightblue" stroke="midnightblue" points="655.98,-72.53 645.61,-74.71 655.07,-79.47 655.98,-72.53"/>
</g>
<!-- Node21&#45;&gt;Node16 -->
<g id="edge40" class="edge">
<title>Node21&#45;&gt;Node16</title>
<path fill="none" stroke="midnightblue" d="M1040.08,-168.39C1053.56,-160.87 1070.97,-148.57 1079,-132 1093.73,-101.6 1099.64,-82.74 1079,-56 1065.13,-38.04 1010.45,-25.86 966.41,-18.75"/>
<polygon fill="midnightblue" stroke="midnightblue" points="966.76,-15.27 956.34,-17.18 965.68,-22.18 966.76,-15.27"/>
</g>
<!-- Node22 -->
<g id="node22" class="node">
<title>Node22</title>
<g id="a_node22"><a xlink:title=" ">
<polygon fill="white" stroke="#bfbfbf" points="839.5,-112.5 839.5,-131.5 922.5,-131.5 922.5,-112.5 839.5,-112.5"/>
<text text-anchor="middle" x="881" y="-119.5" font-family="Helvetica,sans-Serif" font-size="10.00">GLFW/glfw3.h</text>
</a>
</g>
</g>
<!-- Node21&#45;&gt;Node22 -->
<g id="edge36" class="edge">
<title>Node21&#45;&gt;Node22</title>
<path fill="none" stroke="midnightblue" d="M999.66,-168.44C976.25,-159.48 939.26,-145.31 912.81,-135.18"/>
<polygon fill="midnightblue" stroke="midnightblue" points="913.83,-131.82 903.24,-131.52 911.32,-138.36 913.83,-131.82"/>
</g>
</g>
</svg>
        <g id="navigator" transform="translate(0 0)" fill="#404254">
                <rect fill="#f2f5e9" fill-opacity="0.5" stroke="#606060" stroke-width=".5" x="0" y="0" width="60" height="60"/>
                <use id="zoomplus" xlink:href="#zoomPlus" x="17" y="9" onmousedown="handleZoom(evt,'in')"/>
                <use id="zoomminus" xlink:href="#zoomMin" x="42" y="9" onmousedown="handleZoom(evt,'out')"/>
                <use id="reset" xlink:href="#resetDef" x="30" y="36" onmousedown="handleReset()"/>
                <g id="arrowUp" xlink:href="#dirArrow" transform="translate(30 24)" onmousedown="handlePan(0,-1)">
                  <use xlink:href="#rim" fill="#404040">
                        <set attributeName="fill" to="#808080" begin="arrowUp.mouseover" end="arrowUp.mouseout"/>
                  </use>
                  <path fill="none" stroke="white" stroke-width="1.5" d="M0,-3.0v7 M-2.5,-0.5L0,-3.0L2.5,-0.5"/>
                </g>
                <g id="arrowRight" xlink:href="#dirArrow" transform="rotate(90) translate(36 -43)" onmousedown="handlePan(1,0)">
                  <use xlink:href="#rim" fill="#404040">
                        <set attributeName="fill" to="#808080" begin="arrowRight.mouseover" end="arrowRight.mouseout"/>
                  </use>
                  <path fill="none" stroke="white" stroke-width="1.5" d="M0,-3.0v7 M-2.5,-0.5L0,-3.0L2.5,-0.5"/>
                </g>
                <g id="arrowDown" xlink:href="#dirArrow" transform="rotate(180) translate(-30 -48)" onmousedown="handlePan(0,1)">
                  <use xlink:href="#rim" fill="#404040">
                        <set attributeName="fill" to="#808080" begin="arrowDown.mouseover" end="arrowDown.mouseout"/>
                  </use>
                  <path fill="none" stroke="white" stroke-width="1.5" d="M0,-3.0v7 M-2.5,-0.5L0,-3.0L2.5,-0.5"/>
                </g>
                <g id="arrowLeft" xlink:href="#dirArrow" transform="rotate(270) translate(-36 17)" onmousedown="handlePan(-1,0)">
                  <use xlink:href="#rim" fill="#404040">
                        <set attributeName="fill" to="#808080" begin="arrowLeft.mouseover" end="arrowLeft.mouseout"/>
                  </use>
                  <path fill="none" stroke="white" stroke-width="1.5" d="M0,-3.0v7 M-2.5,-0.5L0,-3.0L2.5,-0.5"/>
                </g>
        </g>
        <svg viewBox="0 0 15 15" width="100%" height="30px" preserveAspectRatio="xMaxYMin meet">
         <g id="arrow_out" transform="scale(0.3 0.3)">
          <a xlink:href="application_8cpp__incl_org.svg" target="_base">
           <rect id="button" ry="5" rx="5" y="6" x="6" height="38" width="38"
                fill="#f2f5e9" fill-opacity="0.5" stroke="#606060" stroke-width="1.0"/>
           <path id="arrow"
             d="M 11.500037,31.436501 C 11.940474,20.09759 22.043105,11.32322 32.158766,21.979434 L 37.068811,17.246167 C 37.068811,17.246167 37.088388,32 37.088388,32 L 22.160133,31.978069 C 22.160133,31.978069 26.997745,27.140456 26.997745,27.140456 C 18.528582,18.264221 13.291696,25.230495 11.500037,31.436501 z"
             style="fill:#404040;"/>
          </a>
         </g>
        </svg>
</svg>
