<?xml version="1.0" encoding="UTF-8" standalone="no"?>
<!DOCTYPE svg PUBLIC "-//W3C//DTD SVG 1.1//EN"
 "http://www.w3.org/Graphics/SVG/1.1/DTD/svg11.dtd">
<!-- Generated by graphviz version 2.43.0 (0)
 -->
<!-- Title: src/application/application.cpp Pages: 1 -->
<!--zoomable 364 -->
<svg id="main" version="1.1" xmlns="http://www.w3.org/2000/svg" xmlns:xlink="http://www.w3.org/1999/xlink" xml:space="preserve" onload="init(evt)">
<style type="text/css"><![CDATA[
.edge:hover path { stroke: red; }
.edge:hover polygon { stroke: red; fill: red; }
]]></style>
<script type="text/javascript"><![CDATA[
var edges = document.getElementsByTagName('g');
if (edges && edges.length) {
  for (var i=0;i<edges.length;i++) {
    if (edges[i].id.substr(0,4)=='edge') {
      edges[i].setAttribute('class','edge');
    }
  }
}
]]></script>
        <defs>
                <circle id="rim" cx="0" cy="0" r="7"/>
                <circle id="rim2" cx="0" cy="0" r="3.5"/>
                <g id="zoomPlus">
                        <use xlink:href="#rim" fill="#404040">
                                <set attributeName="fill" to="#808080" begin="zoomplus.mouseover" end="zoomplus.mouseout"/>
                        </use>
                        <path d="M-4,0h8M0,-4v8" fill="none" stroke="white" stroke-width="1.5" pointer-events="none"/>
                </g>
                <g id="zoomMin">
                        <use xlink:href="#rim" fill="#404040">
                                <set attributeName="fill" to="#808080" begin="zoomminus.mouseover" end="zoomminus.mouseout"/>
                        </use>
                        <path d="M-4,0h8" fill="none" stroke="white" stroke-width="1.5" pointer-events="none"/>
                </g>
                <g id="dirArrow">
                        <path fill="none" stroke="white" stroke-width="1.5" d="M0,-3.0v7 M-2.5,-0.5L0,-3.0L2.5,-0.5"/>
                </g>
               <g id="resetDef">
                       <use xlink:href="#rim2" fill="#404040">
                               <set attributeName="fill" to="#808080" begin="reset.mouseover" end="reset.mouseout"/>
                       </use>
               </g>
        </defs>

<script type="text/javascript">
var viewWidth = 665;
var viewHeight = 364;
var sectionId = 'dynsection-0';
</script>
<script xlink:href="svgpan.js"/>
<svg id="graph" class="graph">
<g id="viewport">
<title>src/application/application.cpp</title>
<polygon fill="white" stroke="transparent" points="-4,4 -4,-360 661.28,-360 661.28,4 -4,4"/>
<!-- Node1 -->
<g id="node1" class="node">
<title>Node1</title>
<g id="a_node1"><a xlink:title=" ">
<polygon fill="#bfbfbf" stroke="black" points="362.28,-336.5 362.28,-355.5 527.28,-355.5 527.28,-336.5 362.28,-336.5"/>
<text text-anchor="middle" x="444.78" y="-343.5" font-family="Helvetica,sans-Serif" font-size="10.00">src/application/application.cpp</text>
</a>
</g>
</g>
<!-- Node2 -->
<g id="node2" class="node">
<title>Node2</title>
<g id="a_node2"><a xlink:href="application_8h.html" target="_top" xlink:title=" ">
<polygon fill="white" stroke="black" points="420.78,-280.5 420.78,-299.5 574.78,-299.5 574.78,-280.5 420.78,-280.5"/>
<text text-anchor="middle" x="497.78" y="-287.5" font-family="Helvetica,sans-Serif" font-size="10.00">src/application/application.h</text>
</a>
</g>
</g>
<!-- Node1&#45;&gt;Node2 -->
<g id="edge1" class="edge">
<title>Node1&#45;&gt;Node2</title>
<path fill="none" stroke="midnightblue" d="M453.53,-336.08C461.25,-328.22 472.69,-316.57 482,-307.08"/>
<polygon fill="midnightblue" stroke="midnightblue" points="484.69,-309.34 489.19,-299.75 479.69,-304.44 484.69,-309.34"/>
</g>
<!-- Node6 -->
<g id="node6" class="node">
<title>Node6</title>
<g id="a_node6"><a xlink:href="user__interface_8h.html" target="_top" xlink:title=" ">
<polygon fill="white" stroke="black" points="307.78,-224.5 307.78,-243.5 477.78,-243.5 477.78,-224.5 307.78,-224.5"/>
<text text-anchor="middle" x="392.78" y="-231.5" font-family="Helvetica,sans-Serif" font-size="10.00">src/application/user_interface.h</text>
</a>
</g>
</g>
<!-- Node1&#45;&gt;Node6 -->
<g id="edge27" class="edge">
<title>Node1&#45;&gt;Node6</title>
<path fill="none" stroke="midnightblue" d="M436.96,-336.3C429.54,-327.65 418.56,-313.73 411.78,-300 404.46,-285.17 399.45,-267.02 396.42,-253.67"/>
<polygon fill="midnightblue" stroke="midnightblue" points="399.82,-252.83 394.33,-243.77 392.97,-254.27 399.82,-252.83"/>
</g>
<!-- Node3 -->
<g id="node3" class="node">
<title>Node3</title>
<g id="a_node3"><a xlink:title=" ">
<polygon fill="white" stroke="#bfbfbf" points="11.78,-56.5 11.78,-75.5 69.78,-75.5 69.78,-56.5 11.78,-56.5"/>
<text text-anchor="middle" x="40.78" y="-63.5" font-family="Helvetica,sans-Serif" font-size="10.00">memory</text>
</a>
</g>
</g>
<!-- Node2&#45;&gt;Node3 -->
<g id="edge2" class="edge">
<title>Node2&#45;&gt;Node3</title>
<path fill="none" stroke="midnightblue" d="M420.77,-284.33C297.34,-275.08 63.87,-249.69 12.78,-188 -8.76,-161.98 2.24,-144.41 11.78,-112 14.79,-101.76 20.94,-91.66 26.8,-83.63"/>
<polygon fill="midnightblue" stroke="midnightblue" points="29.71,-85.58 33.11,-75.54 24.2,-81.27 29.71,-85.58"/>
</g>
<!-- Node4 -->
<g id="node4" class="node">
<title>Node4</title>
<g id="a_node4"><a xlink:title=" ">
<polygon fill="white" stroke="#bfbfbf" points="496.28,-224.5 496.28,-243.5 543.28,-243.5 543.28,-224.5 496.28,-224.5"/>
<text text-anchor="middle" x="519.78" y="-231.5" font-family="Helvetica,sans-Serif" font-size="10.00">queue</text>
</a>
</g>
</g>
<!-- Node2&#45;&gt;Node4 -->
<g id="edge3" class="edge">
<title>Node2&#45;&gt;Node4</title>
<path fill="none" stroke="midnightblue" d="M501.41,-280.08C504.39,-272.77 508.71,-262.18 512.41,-253.1"/>
<polygon fill="midnightblue" stroke="midnightblue" points="515.68,-254.33 516.22,-243.75 509.2,-251.69 515.68,-254.33"/>
</g>
<!-- Node5 -->
<g id="node5" class="node">
<title>Node5</title>
<g id="a_node5"><a xlink:title=" ">
<polygon fill="white" stroke="#bfbfbf" points="561.78,-224.5 561.78,-243.5 609.78,-243.5 609.78,-224.5 561.78,-224.5"/>
<text text-anchor="middle" x="585.78" y="-231.5" font-family="Helvetica,sans-Serif" font-size="10.00">thread</text>
</a>
</g>
</g>
<!-- Node2&#45;&gt;Node5 -->
<g id="edge4" class="edge">
<title>Node2&#45;&gt;Node5</title>
<path fill="none" stroke="midnightblue" d="M511.92,-280.32C525.65,-271.9 546.72,-258.97 562.85,-249.07"/>
<polygon fill="midnightblue" stroke="midnightblue" points="564.99,-251.87 571.68,-243.65 561.32,-245.9 564.99,-251.87"/>
</g>
<!-- Node2&#45;&gt;Node6 -->
<g id="edge5" class="edge">
<title>Node2&#45;&gt;Node6</title>
<path fill="none" stroke="midnightblue" d="M480.91,-280.32C464.07,-271.66 437.98,-258.24 418.54,-248.25"/>
<polygon fill="midnightblue" stroke="midnightblue" points="420.1,-245.12 409.61,-243.65 416.9,-251.34 420.1,-245.12"/>
</g>
<!-- Node6&#45;&gt;Node3 -->
<g id="edge9" class="edge">
<title>Node6&#45;&gt;Node3</title>
<path fill="none" stroke="midnightblue" d="M307.65,-228.39C205.36,-221.96 45.1,-208.71 26.78,-188 1.42,-159.33 18.92,-110.73 31.35,-84.7"/>
<polygon fill="midnightblue" stroke="midnightblue" points="34.54,-86.13 35.92,-75.63 28.29,-82.98 34.54,-86.13"/>
</g>
<!-- Node7 -->
<g id="node7" class="node">
<title>Node7</title>
<g id="a_node7"><a xlink:title=" ">
<polygon fill="white" stroke="#bfbfbf" points="351.28,-168.5 351.28,-187.5 434.28,-187.5 434.28,-168.5 351.28,-168.5"/>
<text text-anchor="middle" x="392.78" y="-175.5" font-family="Helvetica,sans-Serif" font-size="10.00">GLFW/glfw3.h</text>
</a>
</g>
</g>
<!-- Node6&#45;&gt;Node7 -->
<g id="edge6" class="edge">
<title>Node6&#45;&gt;Node7</title>
<path fill="none" stroke="midnightblue" d="M392.78,-224.08C392.78,-217.01 392.78,-206.86 392.78,-197.99"/>
<polygon fill="midnightblue" stroke="midnightblue" points="396.28,-197.75 392.78,-187.75 389.28,-197.75 396.28,-197.75"/>
</g>
<!-- Node8 -->
<g id="node8" class="node">
<title>Node8</title>
<g id="a_node8"><a xlink:title=" ">
<polygon fill="white" stroke="#bfbfbf" points="338.28,-112.5 338.28,-131.5 391.28,-131.5 391.28,-112.5 338.28,-112.5"/>
<text text-anchor="middle" x="364.78" y="-119.5" font-family="Helvetica,sans-Serif" font-size="10.00">imgui.h</text>
</a>
</g>
</g>
<!-- Node6&#45;&gt;Node8 -->
<g id="edge7" class="edge">
<title>Node6&#45;&gt;Node8</title>
<path fill="none" stroke="midnightblue" d="M407.73,-224.48C426.66,-212.54 455.39,-189.82 442.78,-168 433.72,-152.3 416.86,-141.6 401.14,-134.58"/>
<polygon fill="midnightblue" stroke="midnightblue" points="402.15,-131.21 391.57,-130.67 399.51,-137.69 402.15,-131.21"/>
</g>
<!-- Node9 -->
<g id="node9" class="node">
<title>Node9</title>
<g id="a_node9"><a xlink:title=" ">
<polygon fill="white" stroke="#bfbfbf" points="566.78,-168.5 566.78,-187.5 640.78,-187.5 640.78,-168.5 566.78,-168.5"/>
<text text-anchor="middle" x="603.78" y="-175.5" font-family="Helvetica,sans-Serif" font-size="10.00">forward_list</text>
</a>
</g>
</g>
<!-- Node6&#45;&gt;Node9 -->
<g id="edge8" class="edge">
<title>Node6&#45;&gt;Node9</title>
<path fill="none" stroke="midnightblue" d="M426.22,-224.44C462.64,-215.12 521.01,-200.18 560.81,-190"/>
<polygon fill="midnightblue" stroke="midnightblue" points="561.68,-193.39 570.5,-187.52 559.95,-186.61 561.68,-193.39"/>
</g>
<!-- Node10 -->
<g id="node10" class="node">
<title>Node10</title>
<g id="a_node10"><a xlink:title=" ">
<polygon fill="white" stroke="#bfbfbf" points="313.78,-56.5 313.78,-75.5 357.78,-75.5 357.78,-56.5 313.78,-56.5"/>
<text text-anchor="middle" x="335.78" y="-63.5" font-family="Helvetica,sans-Serif" font-size="10.00">string</text>
</a>
</g>
</g>
<!-- Node6&#45;&gt;Node10 -->
<g id="edge10" class="edge">
<title>Node6&#45;&gt;Node10</title>
<path fill="none" stroke="midnightblue" d="M415.24,-224.38C430.55,-217.18 449.65,-205.29 458.78,-188 462.94,-180.14 462.29,-176.17 458.78,-168 440.77,-126.08 394.82,-96.22 364.47,-80.3"/>
<polygon fill="midnightblue" stroke="midnightblue" points="365.72,-77.01 355.21,-75.62 362.56,-83.26 365.72,-77.01"/>
</g>
<!-- Node11 -->
<g id="node11" class="node">
<title>Node11</title>
<g id="a_node11"><a xlink:href="dataloader_8h.html" target="_top" xlink:title=" ">
<polygon fill="white" stroke="black" points="97.78,-112.5 97.78,-131.5 249.78,-131.5 249.78,-112.5 97.78,-112.5"/>
<text text-anchor="middle" x="173.78" y="-119.5" font-family="Helvetica,sans-Serif" font-size="10.00">src/application/dataloader.h</text>
</a>
</g>
</g>
<!-- Node6&#45;&gt;Node11 -->
<g id="edge11" class="edge">
<title>Node6&#45;&gt;Node11</title>
<path fill="none" stroke="midnightblue" d="M307.36,-228.05C207.77,-221.38 54.42,-208.01 36.78,-188 12.05,-159.94 56.96,-143.01 101.84,-133.49"/>
<polygon fill="midnightblue" stroke="midnightblue" points="102.57,-136.91 111.69,-131.52 101.2,-130.05 102.57,-136.91"/>
</g>
<!-- Node15 -->
<g id="node15" class="node">
<title>Node15</title>
<g id="a_node15"><a xlink:href="abstract__pannel_8h.html" target="_top" xlink:title=" ">
<polygon fill="white" stroke="black" points="46.28,-168.5 46.28,-187.5 333.28,-187.5 333.28,-168.5 46.28,-168.5"/>
<text text-anchor="middle" x="189.78" y="-175.5" font-family="Helvetica,sans-Serif" font-size="10.00">src/application/user_interface/pannel/abstract_pannel.h</text>
</a>
</g>
</g>
<!-- Node6&#45;&gt;Node15 -->
<g id="edge17" class="edge">
<title>Node6&#45;&gt;Node15</title>
<path fill="none" stroke="midnightblue" d="M360.62,-224.44C325.72,-215.16 269.89,-200.31 231.61,-190.13"/>
<polygon fill="midnightblue" stroke="midnightblue" points="232.36,-186.7 221.8,-187.52 230.56,-193.47 232.36,-186.7"/>
</g>
<!-- Node16 -->
<g id="node16" class="node">
<title>Node16</title>
<g id="a_node16"><a xlink:href="abstract__data__reader_8h.html" target="_top" xlink:title=" ">
<polygon fill="white" stroke="black" points="450.28,-112.5 450.28,-131.5 657.28,-131.5 657.28,-112.5 450.28,-112.5"/>
<text text-anchor="middle" x="553.78" y="-119.5" font-family="Helvetica,sans-Serif" font-size="10.00">src/data_reader/abstract_data_reader.h</text>
</a>
</g>
</g>
<!-- Node6&#45;&gt;Node16 -->
<g id="edge26" class="edge">
<title>Node6&#45;&gt;Node16</title>
<path fill="none" stroke="midnightblue" d="M436.51,-224.48C461.55,-217.86 492.36,-206.58 514.78,-188 529.79,-175.57 540.48,-155.77 546.83,-141.29"/>
<polygon fill="midnightblue" stroke="midnightblue" points="550.14,-142.45 550.69,-131.87 543.66,-139.8 550.14,-142.45"/>
</g>
<!-- Node11&#45;&gt;Node3 -->
<g id="edge14" class="edge">
<title>Node11&#45;&gt;Node3</title>
<path fill="none" stroke="midnightblue" d="M152.71,-112.44C130.72,-103.52 96.05,-89.44 71.12,-79.32"/>
<polygon fill="midnightblue" stroke="midnightblue" points="72.34,-76.04 61.76,-75.52 69.71,-82.52 72.34,-76.04"/>
</g>
<!-- Node11&#45;&gt;Node10 -->
<g id="edge15" class="edge">
<title>Node11&#45;&gt;Node10</title>
<path fill="none" stroke="midnightblue" d="M199.45,-112.44C227.75,-103.01 273.3,-87.83 303.87,-77.64"/>
<polygon fill="midnightblue" stroke="midnightblue" points="305.24,-80.87 313.62,-74.39 303.02,-74.23 305.24,-80.87"/>
</g>
<!-- Node12 -->
<g id="node12" class="node">
<title>Node12</title>
<g id="a_node12"><a xlink:title=" ">
<polygon fill="white" stroke="#bfbfbf" points="103.78,-56.5 103.78,-75.5 145.78,-75.5 145.78,-56.5 103.78,-56.5"/>
<text text-anchor="middle" x="124.78" y="-63.5" font-family="Helvetica,sans-Serif" font-size="10.00">array</text>
</a>
</g>
</g>
<!-- Node11&#45;&gt;Node12 -->
<g id="edge12" class="edge">
<title>Node11&#45;&gt;Node12</title>
<path fill="none" stroke="midnightblue" d="M165.69,-112.08C158.63,-104.3 148.19,-92.8 139.63,-83.37"/>
<polygon fill="midnightblue" stroke="midnightblue" points="142.03,-80.8 132.72,-75.75 136.85,-85.51 142.03,-80.8"/>
</g>
<!-- Node13 -->
<g id="node13" class="node">
<title>Node13</title>
<g id="a_node13"><a xlink:title=" ">
<polygon fill="white" stroke="#bfbfbf" points="430.78,-0.5 430.78,-19.5 498.78,-19.5 498.78,-0.5 430.78,-0.5"/>
<text text-anchor="middle" x="464.78" y="-7.5" font-family="Helvetica,sans-Serif" font-size="10.00">filesystem</text>
</a>
</g>
</g>
<!-- Node11&#45;&gt;Node13 -->
<g id="edge13" class="edge">
<title>Node11&#45;&gt;Node13</title>
<path fill="none" stroke="midnightblue" d="M173.6,-112.33C173.8,-98.25 176.42,-70.5 192.78,-56 225.83,-26.71 352.56,-16.26 420.74,-12.71"/>
<polygon fill="midnightblue" stroke="midnightblue" points="420.95,-16.21 430.76,-12.22 420.6,-9.22 420.95,-16.21"/>
</g>
<!-- Node14 -->
<g id="node14" class="node">
<title>Node14</title>
<g id="a_node14"><a xlink:title=" ">
<polygon fill="white" stroke="#bfbfbf" points="202.28,-56.5 202.28,-75.5 295.28,-75.5 295.28,-56.5 202.28,-56.5"/>
<text text-anchor="middle" x="248.78" y="-63.5" font-family="Helvetica,sans-Serif" font-size="10.00">unordered_map</text>
</a>
</g>
</g>
<!-- Node11&#45;&gt;Node14 -->
<g id="edge16" class="edge">
<title>Node11&#45;&gt;Node14</title>
<path fill="none" stroke="midnightblue" d="M185.83,-112.32C197.24,-104.11 214.61,-91.6 228.22,-81.81"/>
<polygon fill="midnightblue" stroke="midnightblue" points="230.44,-84.52 236.51,-75.83 226.35,-78.84 230.44,-84.52"/>
</g>
<!-- Node15&#45;&gt;Node3 -->
<g id="edge19" class="edge">
<title>Node15&#45;&gt;Node3</title>
<path fill="none" stroke="midnightblue" d="M160.63,-168.49C139.19,-161.22 110.18,-149.2 88.78,-132 72.43,-118.86 58.81,-98.9 50.3,-84.57"/>
<polygon fill="midnightblue" stroke="midnightblue" points="53.25,-82.66 45.26,-75.7 47.16,-86.12 53.25,-82.66"/>
</g>
<!-- Node15&#45;&gt;Node8 -->
<g id="edge18" class="edge">
<title>Node15&#45;&gt;Node8</title>
<path fill="none" stroke="midnightblue" d="M217.51,-168.44C247.47,-159.2 295.33,-144.43 328.32,-134.25"/>
<polygon fill="midnightblue" stroke="midnightblue" points="329.52,-137.54 338.04,-131.25 327.46,-130.85 329.52,-137.54"/>
</g>
<!-- Node15&#45;&gt;Node10 -->
<g id="edge20" class="edge">
<title>Node15&#45;&gt;Node10</title>
<path fill="none" stroke="midnightblue" d="M204.13,-168.36C218.34,-159.64 240.54,-145.57 258.78,-132 280.1,-116.14 303.23,-96.22 318.51,-82.64"/>
<polygon fill="midnightblue" stroke="midnightblue" points="321.02,-85.09 326.13,-75.82 316.35,-79.88 321.02,-85.09"/>
</g>
<!-- Node15&#45;&gt;Node11 -->
<g id="edge21" class="edge">
<title>Node15&#45;&gt;Node11</title>
<path fill="none" stroke="midnightblue" d="M187.14,-168.08C185,-160.85 181.9,-150.41 179.23,-141.4"/>
<polygon fill="midnightblue" stroke="midnightblue" points="182.57,-140.34 176.37,-131.75 175.86,-142.33 182.57,-140.34"/>
</g>
<!-- Node15&#45;&gt;Node16 -->
<g id="edge22" class="edge">
<title>Node15&#45;&gt;Node16</title>
<path fill="none" stroke="midnightblue" d="M247.46,-168.44C312.29,-158.83 417.43,-143.23 486.1,-133.04"/>
<polygon fill="midnightblue" stroke="midnightblue" points="487,-136.45 496.37,-131.52 485.97,-129.52 487,-136.45"/>
</g>
<!-- Node16&#45;&gt;Node13 -->
<g id="edge23" class="edge">
<title>Node16&#45;&gt;Node13</title>
<path fill="none" stroke="midnightblue" d="M532.79,-112.42C517.12,-104.99 496.32,-92.78 483.78,-76 473.77,-62.61 469.02,-44.04 466.77,-30.18"/>
<polygon fill="midnightblue" stroke="midnightblue" points="470.19,-29.32 465.42,-19.86 463.25,-30.23 470.19,-29.32"/>
</g>
<!-- Node17 -->
<g id="node17" class="node">
<title>Node17</title>
<g id="a_node17"><a xlink:href="types_8h.html" target="_top" xlink:title=" ">
<polygon fill="white" stroke="black" points="492.78,-56.5 492.78,-75.5 614.78,-75.5 614.78,-56.5 492.78,-56.5"/>
<text text-anchor="middle" x="553.78" y="-63.5" font-family="Helvetica,sans-Serif" font-size="10.00">src/data_type/types.h</text>
</a>
</g>
</g>
<!-- Node16&#45;&gt;Node17 -->
<g id="edge24" class="edge">
<title>Node16&#45;&gt;Node17</title>
<path fill="none" stroke="midnightblue" d="M553.78,-112.08C553.78,-105.01 553.78,-94.86 553.78,-85.99"/>
<polygon fill="midnightblue" stroke="midnightblue" points="557.28,-85.75 553.78,-75.75 550.28,-85.75 557.28,-85.75"/>
</g>
<!-- Node17&#45;&gt;Node13 -->
<g id="edge25" class="edge">
<title>Node17&#45;&gt;Node13</title>
<path fill="none" stroke="midnightblue" d="M539.48,-56.32C525.6,-47.9 504.29,-34.97 487.98,-25.07"/>
<polygon fill="midnightblue" stroke="midnightblue" points="489.41,-21.85 479.05,-19.65 485.78,-27.83 489.41,-21.85"/>
</g>
</g>
</svg>
        <g id="navigator" transform="translate(0 0)" fill="#404254">
                <rect fill="#f2f5e9" fill-opacity="0.5" stroke="#606060" stroke-width=".5" x="0" y="0" width="60" height="60"/>
                <use id="zoomplus" xlink:href="#zoomPlus" x="17" y="9" onmousedown="handleZoom(evt,'in')"/>
                <use id="zoomminus" xlink:href="#zoomMin" x="42" y="9" onmousedown="handleZoom(evt,'out')"/>
                <use id="reset" xlink:href="#resetDef" x="30" y="36" onmousedown="handleReset()"/>
                <g id="arrowUp" xlink:href="#dirArrow" transform="translate(30 24)" onmousedown="handlePan(0,-1)">
                  <use xlink:href="#rim" fill="#404040">
                        <set attributeName="fill" to="#808080" begin="arrowUp.mouseover" end="arrowUp.mouseout"/>
                  </use>
                  <path fill="none" stroke="white" stroke-width="1.5" d="M0,-3.0v7 M-2.5,-0.5L0,-3.0L2.5,-0.5"/>
                </g>
                <g id="arrowRight" xlink:href="#dirArrow" transform="rotate(90) translate(36 -43)" onmousedown="handlePan(1,0)">
                  <use xlink:href="#rim" fill="#404040">
                        <set attributeName="fill" to="#808080" begin="arrowRight.mouseover" end="arrowRight.mouseout"/>
                  </use>
                  <path fill="none" stroke="white" stroke-width="1.5" d="M0,-3.0v7 M-2.5,-0.5L0,-3.0L2.5,-0.5"/>
                </g>
                <g id="arrowDown" xlink:href="#dirArrow" transform="rotate(180) translate(-30 -48)" onmousedown="handlePan(0,1)">
                  <use xlink:href="#rim" fill="#404040">
                        <set attributeName="fill" to="#808080" begin="arrowDown.mouseover" end="arrowDown.mouseout"/>
                  </use>
                  <path fill="none" stroke="white" stroke-width="1.5" d="M0,-3.0v7 M-2.5,-0.5L0,-3.0L2.5,-0.5"/>
                </g>
                <g id="arrowLeft" xlink:href="#dirArrow" transform="rotate(270) translate(-36 17)" onmousedown="handlePan(-1,0)">
                  <use xlink:href="#rim" fill="#404040">
                        <set attributeName="fill" to="#808080" begin="arrowLeft.mouseover" end="arrowLeft.mouseout"/>
                  </use>
                  <path fill="none" stroke="white" stroke-width="1.5" d="M0,-3.0v7 M-2.5,-0.5L0,-3.0L2.5,-0.5"/>
                </g>
        </g>
        <svg viewBox="0 0 15 15" width="100%" height="30px" preserveAspectRatio="xMaxYMin meet">
         <g id="arrow_out" transform="scale(0.3 0.3)">
          <a xlink:href="application_8cpp__incl_org.svg" target="_base">
           <rect id="button" ry="5" rx="5" y="6" x="6" height="38" width="38"
                fill="#f2f5e9" fill-opacity="0.5" stroke="#606060" stroke-width="1.0"/>
           <path id="arrow"
             d="M 11.500037,31.436501 C 11.940474,20.09759 22.043105,11.32322 32.158766,21.979434 L 37.068811,17.246167 C 37.068811,17.246167 37.088388,32 37.088388,32 L 22.160133,31.978069 C 22.160133,31.978069 26.997745,27.140456 26.997745,27.140456 C 18.528582,18.264221 13.291696,25.230495 11.500037,31.436501 z"
             style="fill:#404040;"/>
          </a>
         </g>
        </svg>
</svg>
