<?xml version="1.0" encoding="UTF-8" standalone="no"?>
<!DOCTYPE svg PUBLIC "-//W3C//DTD SVG 1.1//EN"
 "http://www.w3.org/Graphics/SVG/1.1/DTD/svg11.dtd">
<!-- Generated by graphviz version 2.43.0 (0)
 -->
<!-- Title: src/user_interface/button.h Pages: 1 -->
<svg width="507pt" height="196pt"
 viewBox="0.00 0.00 507.00 196.00" xmlns="http://www.w3.org/2000/svg" xmlns:xlink="http://www.w3.org/1999/xlink">
<g id="graph0" class="graph" transform="scale(1 1) rotate(0) translate(4 192)">
<title>src/user_interface/button.h</title>
<polygon fill="white" stroke="transparent" points="-4,4 -4,-192 503,-192 503,4 -4,4"/>
<!-- Node1 -->
<g id="node1" class="node">
<title>Node1</title>
<g id="a_node1"><a xlink:title=" ">
<polygon fill="#bfbfbf" stroke="black" points="87.5,-168.5 87.5,-187.5 234.5,-187.5 234.5,-168.5 87.5,-168.5"/>
<text text-anchor="middle" x="161" y="-175.5" font-family="Helvetica,sans-Serif" font-size="10.00">src/user_interface/button.h</text>
</a>
</g>
</g>
<!-- Node2 -->
<g id="node2" class="node">
<title>Node2</title>
<g id="a_node2"><a xlink:title=" ">
<polygon fill="white" stroke="#bfbfbf" points="0,-56.5 0,-75.5 44,-75.5 44,-56.5 0,-56.5"/>
<text text-anchor="middle" x="22" y="-63.5" font-family="Helvetica,sans-Serif" font-size="10.00">string</text>
</a>
</g>
</g>
<!-- Node1&#45;&gt;Node2 -->
<g id="edge1" class="edge">
<title>Node1&#45;&gt;Node2</title>
<path fill="none" stroke="midnightblue" d="M150.09,-168.37C126.44,-149.65 70.21,-105.15 40.74,-81.83"/>
<polygon fill="midnightblue" stroke="midnightblue" points="42.87,-79.05 32.86,-75.59 38.53,-84.54 42.87,-79.05"/>
</g>
<!-- Node3 -->
<g id="node3" class="node">
<title>Node3</title>
<g id="a_node3"><a xlink:href="ui_8h.html" target="_top" xlink:title=" ">
<polygon fill="white" stroke="black" points="144.5,-112.5 144.5,-131.5 269.5,-131.5 269.5,-112.5 144.5,-112.5"/>
<text text-anchor="middle" x="207" y="-119.5" font-family="Helvetica,sans-Serif" font-size="10.00">src/user_interface/ui.h</text>
</a>
</g>
</g>
<!-- Node1&#45;&gt;Node3 -->
<g id="edge2" class="edge">
<title>Node1&#45;&gt;Node3</title>
<path fill="none" stroke="midnightblue" d="M168.6,-168.08C175.23,-160.3 185.02,-148.8 193.06,-139.37"/>
<polygon fill="midnightblue" stroke="midnightblue" points="195.73,-141.63 199.55,-131.75 190.4,-137.09 195.73,-141.63"/>
</g>
<!-- Node7 -->
<g id="node7" class="node">
<title>Node7</title>
<g id="a_node7"><a xlink:href="callback_8h.html" target="_top" xlink:title=" ">
<polygon fill="white" stroke="black" points="62.5,-56.5 62.5,-75.5 169.5,-75.5 169.5,-56.5 62.5,-56.5"/>
<text text-anchor="middle" x="116" y="-63.5" font-family="Helvetica,sans-Serif" font-size="10.00">src/utils/callback.h</text>
</a>
</g>
</g>
<!-- Node1&#45;&gt;Node7 -->
<g id="edge12" class="edge">
<title>Node1&#45;&gt;Node7</title>
<path fill="none" stroke="midnightblue" d="M155.17,-168.36C149.41,-159.53 140.68,-145.27 135,-132 128.5,-116.8 123.41,-98.68 120.14,-85.44"/>
<polygon fill="midnightblue" stroke="midnightblue" points="123.53,-84.57 117.83,-75.64 116.71,-86.18 123.53,-84.57"/>
</g>
<!-- Node9 -->
<g id="node9" class="node">
<title>Node9</title>
<g id="a_node9"><a xlink:href="imgui_8h.html" target="_top" xlink:title=" ">
<polygon fill="white" stroke="black" points="402.5,-56.5 402.5,-75.5 497.5,-75.5 497.5,-56.5 402.5,-56.5"/>
<text text-anchor="middle" x="450" y="-63.5" font-family="Helvetica,sans-Serif" font-size="10.00">src/utils/imgui.h</text>
</a>
</g>
</g>
<!-- Node1&#45;&gt;Node9 -->
<g id="edge13" class="edge">
<title>Node1&#45;&gt;Node9</title>
<path fill="none" stroke="midnightblue" d="M183.68,-168.37C234.75,-148.93 358.9,-101.67 417.87,-79.23"/>
<polygon fill="midnightblue" stroke="midnightblue" points="419.33,-82.42 427.43,-75.59 416.84,-75.88 419.33,-82.42"/>
</g>
<!-- Node3&#45;&gt;Node2 -->
<g id="edge4" class="edge">
<title>Node3&#45;&gt;Node2</title>
<path fill="none" stroke="midnightblue" d="M177.69,-112.44C143.93,-102.59 88.68,-86.46 53.88,-76.3"/>
<polygon fill="midnightblue" stroke="midnightblue" points="54.79,-72.92 44.21,-73.48 52.83,-79.64 54.79,-72.92"/>
</g>
<!-- Node4 -->
<g id="node4" class="node">
<title>Node4</title>
<g id="a_node4"><a xlink:title=" ">
<polygon fill="white" stroke="#bfbfbf" points="161,-0.5 161,-19.5 219,-19.5 219,-0.5 161,-0.5"/>
<text text-anchor="middle" x="190" y="-7.5" font-family="Helvetica,sans-Serif" font-size="10.00">memory</text>
</a>
</g>
</g>
<!-- Node3&#45;&gt;Node4 -->
<g id="edge3" class="edge">
<title>Node3&#45;&gt;Node4</title>
<path fill="none" stroke="midnightblue" d="M205.67,-112.37C202.92,-94.62 196.59,-53.67 192.87,-29.6"/>
<polygon fill="midnightblue" stroke="midnightblue" points="196.31,-28.94 191.33,-19.59 189.4,-30.01 196.31,-28.94"/>
</g>
<!-- Node5 -->
<g id="node5" class="node">
<title>Node5</title>
<g id="a_node5"><a xlink:title=" ">
<polygon fill="white" stroke="#bfbfbf" points="226.5,-56.5 226.5,-75.5 319.5,-75.5 319.5,-56.5 226.5,-56.5"/>
<text text-anchor="middle" x="273" y="-63.5" font-family="Helvetica,sans-Serif" font-size="10.00">unordered_map</text>
</a>
</g>
</g>
<!-- Node3&#45;&gt;Node5 -->
<g id="edge5" class="edge">
<title>Node3&#45;&gt;Node5</title>
<path fill="none" stroke="midnightblue" d="M217.6,-112.32C227.46,-104.26 242.35,-92.08 254.22,-82.37"/>
<polygon fill="midnightblue" stroke="midnightblue" points="256.68,-84.88 262.2,-75.83 252.25,-79.46 256.68,-84.88"/>
</g>
<!-- Node6 -->
<g id="node6" class="node">
<title>Node6</title>
<g id="a_node6"><a xlink:title=" ">
<polygon fill="white" stroke="#bfbfbf" points="337.5,-56.5 337.5,-75.5 384.5,-75.5 384.5,-56.5 337.5,-56.5"/>
<text text-anchor="middle" x="361" y="-63.5" font-family="Helvetica,sans-Serif" font-size="10.00">vector</text>
</a>
</g>
</g>
<!-- Node3&#45;&gt;Node6 -->
<g id="edge6" class="edge">
<title>Node3&#45;&gt;Node6</title>
<path fill="none" stroke="midnightblue" d="M231.4,-112.44C257.42,-103.32 298.8,-88.81 327.78,-78.65"/>
<polygon fill="midnightblue" stroke="midnightblue" points="329.19,-81.86 337.47,-75.25 326.88,-75.26 329.19,-81.86"/>
</g>
<!-- Node3&#45;&gt;Node7 -->
<g id="edge7" class="edge">
<title>Node3&#45;&gt;Node7</title>
<path fill="none" stroke="midnightblue" d="M192.38,-112.32C178.05,-103.82 155.99,-90.73 139.25,-80.8"/>
<polygon fill="midnightblue" stroke="midnightblue" points="140.97,-77.75 130.58,-75.65 137.4,-83.77 140.97,-77.75"/>
</g>
<!-- Node3&#45;&gt;Node9 -->
<g id="edge10" class="edge">
<title>Node3&#45;&gt;Node9</title>
<path fill="none" stroke="midnightblue" d="M245.5,-112.44C287.81,-103.04 355.82,-87.93 401.67,-77.74"/>
<polygon fill="midnightblue" stroke="midnightblue" points="402.67,-81.1 411.68,-75.52 401.15,-74.27 402.67,-81.1"/>
</g>
<!-- Node7&#45;&gt;Node4 -->
<g id="edge9" class="edge">
<title>Node7&#45;&gt;Node4</title>
<path fill="none" stroke="midnightblue" d="M127.89,-56.32C139.15,-48.11 156.29,-35.6 169.71,-25.81"/>
<polygon fill="midnightblue" stroke="midnightblue" points="171.88,-28.56 177.89,-19.83 167.75,-22.9 171.88,-28.56"/>
</g>
<!-- Node8 -->
<g id="node8" class="node">
<title>Node8</title>
<g id="a_node8"><a xlink:title=" ">
<polygon fill="white" stroke="#bfbfbf" points="98.5,-0.5 98.5,-19.5 133.5,-19.5 133.5,-0.5 98.5,-0.5"/>
<text text-anchor="middle" x="116" y="-7.5" font-family="Helvetica,sans-Serif" font-size="10.00">any</text>
</a>
</g>
</g>
<!-- Node7&#45;&gt;Node8 -->
<g id="edge8" class="edge">
<title>Node7&#45;&gt;Node8</title>
<path fill="none" stroke="midnightblue" d="M116,-56.08C116,-49.01 116,-38.86 116,-29.99"/>
<polygon fill="midnightblue" stroke="midnightblue" points="119.5,-29.75 116,-19.75 112.5,-29.75 119.5,-29.75"/>
</g>
<!-- Node10 -->
<g id="node10" class="node">
<title>Node10</title>
<g id="a_node10"><a xlink:title=" ">
<polygon fill="white" stroke="#bfbfbf" points="401,-0.5 401,-19.5 499,-19.5 499,-0.5 401,-0.5"/>
<text text-anchor="middle" x="450" y="-7.5" font-family="Helvetica,sans-Serif" font-size="10.00">bindings/imgui.h</text>
</a>
</g>
</g>
<!-- Node9&#45;&gt;Node10 -->
<g id="edge11" class="edge">
<title>Node9&#45;&gt;Node10</title>
<path fill="none" stroke="midnightblue" d="M450,-56.08C450,-49.01 450,-38.86 450,-29.99"/>
<polygon fill="midnightblue" stroke="midnightblue" points="453.5,-29.75 450,-19.75 446.5,-29.75 453.5,-29.75"/>
</g>
</g>
</svg>
