<?xml version="1.0" encoding="UTF-8" standalone="no"?>
<!DOCTYPE svg PUBLIC "-//W3C//DTD SVG 1.1//EN"
 "http://www.w3.org/Graphics/SVG/1.1/DTD/svg11.dtd">
<!-- Generated by graphviz version 2.43.0 (0)
 -->
<!-- Title: src/user_interface/button.cpp Pages: 1 -->
<svg width="568pt" height="252pt"
 viewBox="0.00 0.00 567.50 252.00" xmlns="http://www.w3.org/2000/svg" xmlns:xlink="http://www.w3.org/1999/xlink">
<g id="graph0" class="graph" transform="scale(1 1) rotate(0) translate(4 248)">
<title>src/user_interface/button.cpp</title>
<polygon fill="white" stroke="transparent" points="-4,4 -4,-248 563.5,-248 563.5,4 -4,4"/>
<!-- Node1 -->
<g id="node1" class="node">
<title>Node1</title>
<g id="a_node1"><a xlink:title=" ">
<polygon fill="#bfbfbf" stroke="black" points="370.5,-224.5 370.5,-243.5 528.5,-243.5 528.5,-224.5 370.5,-224.5"/>
<text text-anchor="middle" x="449.5" y="-231.5" font-family="Helvetica,sans-Serif" font-size="10.00">src/user_interface/button.cpp</text>
</a>
</g>
</g>
<!-- Node2 -->
<g id="node2" class="node">
<title>Node2</title>
<g id="a_node2"><a xlink:href="button_8h.html" target="_top" xlink:title=" ">
<polygon fill="white" stroke="black" points="274,-168.5 274,-187.5 421,-187.5 421,-168.5 274,-168.5"/>
<text text-anchor="middle" x="347.5" y="-175.5" font-family="Helvetica,sans-Serif" font-size="10.00">src/user_interface/button.h</text>
</a>
</g>
</g>
<!-- Node1&#45;&gt;Node2 -->
<g id="edge1" class="edge">
<title>Node1&#45;&gt;Node2</title>
<path fill="none" stroke="midnightblue" d="M433.11,-224.32C416.83,-215.7 391.63,-202.36 372.78,-192.39"/>
<polygon fill="midnightblue" stroke="midnightblue" points="374.32,-189.24 363.85,-187.65 371.05,-195.43 374.32,-189.24"/>
</g>
<!-- Node10 -->
<g id="node10" class="node">
<title>Node10</title>
<g id="a_node10"><a xlink:href="imgui_8h.html" target="_top" xlink:title=" ">
<polygon fill="white" stroke="black" points="402,-56.5 402,-75.5 497,-75.5 497,-56.5 402,-56.5"/>
<text text-anchor="middle" x="449.5" y="-63.5" font-family="Helvetica,sans-Serif" font-size="10.00">src/utils/imgui.h</text>
</a>
</g>
</g>
<!-- Node1&#45;&gt;Node10 -->
<g id="edge15" class="edge">
<title>Node1&#45;&gt;Node10</title>
<path fill="none" stroke="midnightblue" d="M449.5,-224.08C449.5,-197.95 449.5,-121.21 449.5,-85.58"/>
<polygon fill="midnightblue" stroke="midnightblue" points="453,-85.57 449.5,-75.57 446,-85.57 453,-85.57"/>
</g>
<!-- Node12 -->
<g id="node12" class="node">
<title>Node12</title>
<g id="a_node12"><a xlink:href="log_8h.html" target="_top" xlink:title=" ">
<polygon fill="white" stroke="black" points="477.5,-168.5 477.5,-187.5 559.5,-187.5 559.5,-168.5 477.5,-168.5"/>
<text text-anchor="middle" x="518.5" y="-175.5" font-family="Helvetica,sans-Serif" font-size="10.00">src/utils/log.h</text>
</a>
</g>
</g>
<!-- Node1&#45;&gt;Node12 -->
<g id="edge16" class="edge">
<title>Node1&#45;&gt;Node12</title>
<path fill="none" stroke="midnightblue" d="M460.59,-224.32C470.99,-216.18 486.76,-203.84 499.22,-194.09"/>
<polygon fill="midnightblue" stroke="midnightblue" points="501.49,-196.75 507.21,-187.83 497.18,-191.24 501.49,-196.75"/>
</g>
<!-- Node3 -->
<g id="node3" class="node">
<title>Node3</title>
<g id="a_node3"><a xlink:title=" ">
<polygon fill="white" stroke="#bfbfbf" points="339.5,-56.5 339.5,-75.5 383.5,-75.5 383.5,-56.5 339.5,-56.5"/>
<text text-anchor="middle" x="361.5" y="-63.5" font-family="Helvetica,sans-Serif" font-size="10.00">string</text>
</a>
</g>
</g>
<!-- Node2&#45;&gt;Node3 -->
<g id="edge2" class="edge">
<title>Node2&#45;&gt;Node3</title>
<path fill="none" stroke="midnightblue" d="M348.6,-168.37C350.86,-150.62 356.07,-109.67 359.13,-85.6"/>
<polygon fill="midnightblue" stroke="midnightblue" points="362.62,-85.95 360.41,-75.59 355.67,-85.07 362.62,-85.95"/>
</g>
<!-- Node4 -->
<g id="node4" class="node">
<title>Node4</title>
<g id="a_node4"><a xlink:href="ui_8h.html" target="_top" xlink:title=" ">
<polygon fill="white" stroke="black" points="208,-112.5 208,-131.5 333,-131.5 333,-112.5 208,-112.5"/>
<text text-anchor="middle" x="270.5" y="-119.5" font-family="Helvetica,sans-Serif" font-size="10.00">src/user_interface/ui.h</text>
</a>
</g>
</g>
<!-- Node2&#45;&gt;Node4 -->
<g id="edge3" class="edge">
<title>Node2&#45;&gt;Node4</title>
<path fill="none" stroke="midnightblue" d="M335.13,-168.32C323.34,-160.06 305.37,-147.45 291.36,-137.63"/>
<polygon fill="midnightblue" stroke="midnightblue" points="293.04,-134.53 282.84,-131.65 289.02,-140.26 293.04,-134.53"/>
</g>
<!-- Node8 -->
<g id="node8" class="node">
<title>Node8</title>
<g id="a_node8"><a xlink:href="callback_8h.html" target="_top" xlink:title=" ">
<polygon fill="white" stroke="black" points="0,-56.5 0,-75.5 107,-75.5 107,-56.5 0,-56.5"/>
<text text-anchor="middle" x="53.5" y="-63.5" font-family="Helvetica,sans-Serif" font-size="10.00">src/utils/callback.h</text>
</a>
</g>
</g>
<!-- Node2&#45;&gt;Node8 -->
<g id="edge13" class="edge">
<title>Node2&#45;&gt;Node8</title>
<path fill="none" stroke="midnightblue" d="M314.84,-168.44C284.38,-160.14 237.86,-146.7 198.5,-132 156.19,-116.2 108.7,-94.03 79.96,-80.1"/>
<polygon fill="midnightblue" stroke="midnightblue" points="81.13,-76.77 70.61,-75.53 78.06,-83.07 81.13,-76.77"/>
</g>
<!-- Node2&#45;&gt;Node10 -->
<g id="edge14" class="edge">
<title>Node2&#45;&gt;Node10</title>
<path fill="none" stroke="midnightblue" d="M355.5,-168.37C372.56,-149.97 412.71,-106.67 434.62,-83.05"/>
<polygon fill="midnightblue" stroke="midnightblue" points="437.3,-85.3 441.53,-75.59 432.17,-80.54 437.3,-85.3"/>
</g>
<!-- Node4&#45;&gt;Node3 -->
<g id="edge5" class="edge">
<title>Node4&#45;&gt;Node3</title>
<path fill="none" stroke="midnightblue" d="M285.12,-112.32C299.45,-103.82 321.51,-90.73 338.25,-80.8"/>
<polygon fill="midnightblue" stroke="midnightblue" points="340.1,-83.77 346.92,-75.65 336.53,-77.75 340.1,-83.77"/>
</g>
<!-- Node5 -->
<g id="node5" class="node">
<title>Node5</title>
<g id="a_node5"><a xlink:title=" ">
<polygon fill="white" stroke="#bfbfbf" points="186.5,-0.5 186.5,-19.5 244.5,-19.5 244.5,-0.5 186.5,-0.5"/>
<text text-anchor="middle" x="215.5" y="-7.5" font-family="Helvetica,sans-Serif" font-size="10.00">memory</text>
</a>
</g>
</g>
<!-- Node4&#45;&gt;Node5 -->
<g id="edge4" class="edge">
<title>Node4&#45;&gt;Node5</title>
<path fill="none" stroke="midnightblue" d="M277.75,-112.12C287.39,-99.15 302.07,-74.54 291.5,-56 283.09,-41.25 267.73,-30.84 253.02,-23.77"/>
<polygon fill="midnightblue" stroke="midnightblue" points="254.08,-20.42 243.52,-19.6 251.26,-26.83 254.08,-20.42"/>
</g>
<!-- Node6 -->
<g id="node6" class="node">
<title>Node6</title>
<g id="a_node6"><a xlink:title=" ">
<polygon fill="white" stroke="#bfbfbf" points="125,-56.5 125,-75.5 218,-75.5 218,-56.5 125,-56.5"/>
<text text-anchor="middle" x="171.5" y="-63.5" font-family="Helvetica,sans-Serif" font-size="10.00">unordered_map</text>
</a>
</g>
</g>
<!-- Node4&#45;&gt;Node6 -->
<g id="edge6" class="edge">
<title>Node4&#45;&gt;Node6</title>
<path fill="none" stroke="midnightblue" d="M254.59,-112.32C238.86,-103.74 214.56,-90.49 196.29,-80.52"/>
<polygon fill="midnightblue" stroke="midnightblue" points="197.82,-77.37 187.37,-75.65 194.47,-83.52 197.82,-77.37"/>
</g>
<!-- Node7 -->
<g id="node7" class="node">
<title>Node7</title>
<g id="a_node7"><a xlink:title=" ">
<polygon fill="white" stroke="#bfbfbf" points="236,-56.5 236,-75.5 283,-75.5 283,-56.5 236,-56.5"/>
<text text-anchor="middle" x="259.5" y="-63.5" font-family="Helvetica,sans-Serif" font-size="10.00">vector</text>
</a>
</g>
</g>
<!-- Node4&#45;&gt;Node7 -->
<g id="edge7" class="edge">
<title>Node4&#45;&gt;Node7</title>
<path fill="none" stroke="midnightblue" d="M268.68,-112.08C267.23,-104.93 265.13,-94.64 263.31,-85.69"/>
<polygon fill="midnightblue" stroke="midnightblue" points="266.71,-84.85 261.28,-75.75 259.85,-86.25 266.71,-84.85"/>
</g>
<!-- Node4&#45;&gt;Node8 -->
<g id="edge8" class="edge">
<title>Node4&#45;&gt;Node8</title>
<path fill="none" stroke="midnightblue" d="M236.12,-112.44C198.58,-103.1 138.37,-88.12 97.43,-77.93"/>
<polygon fill="midnightblue" stroke="midnightblue" points="98.27,-74.53 87.72,-75.52 96.58,-81.33 98.27,-74.53"/>
</g>
<!-- Node4&#45;&gt;Node10 -->
<g id="edge11" class="edge">
<title>Node4&#45;&gt;Node10</title>
<path fill="none" stroke="midnightblue" d="M298.86,-112.44C329.24,-103.28 377.61,-88.69 411.32,-78.52"/>
<polygon fill="midnightblue" stroke="midnightblue" points="412.71,-81.76 421.27,-75.52 410.68,-75.05 412.71,-81.76"/>
</g>
<!-- Node8&#45;&gt;Node5 -->
<g id="edge10" class="edge">
<title>Node8&#45;&gt;Node5</title>
<path fill="none" stroke="midnightblue" d="M79.17,-56.44C106.42,-47.36 149.68,-32.94 180.15,-22.78"/>
<polygon fill="midnightblue" stroke="midnightblue" points="181.57,-26 189.95,-19.52 179.36,-19.36 181.57,-26"/>
</g>
<!-- Node9 -->
<g id="node9" class="node">
<title>Node9</title>
<g id="a_node9"><a xlink:title=" ">
<polygon fill="white" stroke="#bfbfbf" points="36,-0.5 36,-19.5 71,-19.5 71,-0.5 36,-0.5"/>
<text text-anchor="middle" x="53.5" y="-7.5" font-family="Helvetica,sans-Serif" font-size="10.00">any</text>
</a>
</g>
</g>
<!-- Node8&#45;&gt;Node9 -->
<g id="edge9" class="edge">
<title>Node8&#45;&gt;Node9</title>
<path fill="none" stroke="midnightblue" d="M53.5,-56.08C53.5,-49.01 53.5,-38.86 53.5,-29.99"/>
<polygon fill="midnightblue" stroke="midnightblue" points="57,-29.75 53.5,-19.75 50,-29.75 57,-29.75"/>
</g>
<!-- Node11 -->
<g id="node11" class="node">
<title>Node11</title>
<g id="a_node11"><a xlink:title=" ">
<polygon fill="white" stroke="#bfbfbf" points="400.5,-0.5 400.5,-19.5 498.5,-19.5 498.5,-0.5 400.5,-0.5"/>
<text text-anchor="middle" x="449.5" y="-7.5" font-family="Helvetica,sans-Serif" font-size="10.00">bindings/imgui.h</text>
</a>
</g>
</g>
<!-- Node10&#45;&gt;Node11 -->
<g id="edge12" class="edge">
<title>Node10&#45;&gt;Node11</title>
<path fill="none" stroke="midnightblue" d="M449.5,-56.08C449.5,-49.01 449.5,-38.86 449.5,-29.99"/>
<polygon fill="midnightblue" stroke="midnightblue" points="453,-29.75 449.5,-19.75 446,-29.75 453,-29.75"/>
</g>
<!-- Node13 -->
<g id="node13" class="node">
<title>Node13</title>
<g id="a_node13"><a xlink:title=" ">
<polygon fill="white" stroke="#bfbfbf" points="488.5,-112.5 488.5,-131.5 548.5,-131.5 548.5,-112.5 488.5,-112.5"/>
<text text-anchor="middle" x="518.5" y="-119.5" font-family="Helvetica,sans-Serif" font-size="10.00">iostream</text>
</a>
</g>
</g>
<!-- Node12&#45;&gt;Node13 -->
<g id="edge17" class="edge">
<title>Node12&#45;&gt;Node13</title>
<path fill="none" stroke="midnightblue" d="M518.5,-168.08C518.5,-161.01 518.5,-150.86 518.5,-141.99"/>
<polygon fill="midnightblue" stroke="midnightblue" points="522,-141.75 518.5,-131.75 515,-141.75 522,-141.75"/>
</g>
</g>
</svg>
