<?xml version="1.0" encoding="UTF-8" standalone="no"?>
<!DOCTYPE svg PUBLIC "-//W3C//DTD SVG 1.1//EN"
 "http://www.w3.org/Graphics/SVG/1.1/DTD/svg11.dtd">
<!-- Generated by graphviz version 2.43.0 (0)
 -->
<!-- Title: src/user_interface/button.cpp Pages: 1 -->
<svg width="403pt" height="252pt"
 viewBox="0.00 0.00 403.00 252.00" xmlns="http://www.w3.org/2000/svg" xmlns:xlink="http://www.w3.org/1999/xlink">
<g id="graph0" class="graph" transform="scale(1 1) rotate(0) translate(4 248)">
<title>src/user_interface/button.cpp</title>
<polygon fill="white" stroke="transparent" points="-4,4 -4,-248 399,-248 399,4 -4,4"/>
<!-- Node1 -->
<g id="node1" class="node">
<title>Node1</title>
<g id="a_node1"><a xlink:title=" ">
<polygon fill="#bfbfbf" stroke="black" points="104,-224.5 104,-243.5 262,-243.5 262,-224.5 104,-224.5"/>
<text text-anchor="middle" x="183" y="-231.5" font-family="Helvetica,sans-Serif" font-size="10.00">src/user_interface/button.cpp</text>
</a>
</g>
</g>
<!-- Node2 -->
<g id="node2" class="node">
<title>Node2</title>
<g id="a_node2"><a xlink:href="button_8h.html" target="_top" xlink:title=" ">
<polygon fill="white" stroke="black" points="109.5,-168.5 109.5,-187.5 256.5,-187.5 256.5,-168.5 109.5,-168.5"/>
<text text-anchor="middle" x="183" y="-175.5" font-family="Helvetica,sans-Serif" font-size="10.00">src/user_interface/button.h</text>
</a>
</g>
</g>
<!-- Node1&#45;&gt;Node2 -->
<g id="edge1" class="edge">
<title>Node1&#45;&gt;Node2</title>
<path fill="none" stroke="midnightblue" d="M183,-224.08C183,-217.01 183,-206.86 183,-197.99"/>
<polygon fill="midnightblue" stroke="midnightblue" points="186.5,-197.75 183,-187.75 179.5,-197.75 186.5,-197.75"/>
</g>
<!-- Node9 -->
<g id="node9" class="node">
<title>Node9</title>
<g id="a_node9"><a xlink:href="imgui_8h.html" target="_top" xlink:title=" ">
<polygon fill="white" stroke="black" points="1.5,-56.5 1.5,-75.5 96.5,-75.5 96.5,-56.5 1.5,-56.5"/>
<text text-anchor="middle" x="49" y="-63.5" font-family="Helvetica,sans-Serif" font-size="10.00">src/utils/imgui.h</text>
</a>
</g>
</g>
<!-- Node1&#45;&gt;Node9 -->
<g id="edge14" class="edge">
<title>Node1&#45;&gt;Node9</title>
<path fill="none" stroke="midnightblue" d="M157.58,-224.44C139.46,-217.2 115.63,-205.24 100,-188 72.79,-157.99 58.78,-111.34 52.76,-85.61"/>
<polygon fill="midnightblue" stroke="midnightblue" points="56.14,-84.71 50.59,-75.68 49.3,-86.2 56.14,-84.71"/>
</g>
<!-- Node11 -->
<g id="node11" class="node">
<title>Node11</title>
<g id="a_node11"><a xlink:href="log_8h.html" target="_top" xlink:title=" ">
<polygon fill="white" stroke="black" points="299,-168.5 299,-187.5 381,-187.5 381,-168.5 299,-168.5"/>
<text text-anchor="middle" x="340" y="-175.5" font-family="Helvetica,sans-Serif" font-size="10.00">src/utils/log.h</text>
</a>
</g>
</g>
<!-- Node1&#45;&gt;Node11 -->
<g id="edge15" class="edge">
<title>Node1&#45;&gt;Node11</title>
<path fill="none" stroke="midnightblue" d="M207.88,-224.44C234.29,-215.36 276.22,-200.94 305.74,-190.78"/>
<polygon fill="midnightblue" stroke="midnightblue" points="306.92,-194.08 315.24,-187.52 304.64,-187.46 306.92,-194.08"/>
</g>
<!-- Node3 -->
<g id="node3" class="node">
<title>Node3</title>
<g id="a_node3"><a xlink:title=" ">
<polygon fill="white" stroke="#bfbfbf" points="115,-56.5 115,-75.5 159,-75.5 159,-56.5 115,-56.5"/>
<text text-anchor="middle" x="137" y="-63.5" font-family="Helvetica,sans-Serif" font-size="10.00">string</text>
</a>
</g>
</g>
<!-- Node2&#45;&gt;Node3 -->
<g id="edge2" class="edge">
<title>Node2&#45;&gt;Node3</title>
<path fill="none" stroke="midnightblue" d="M173.06,-168.46C164.1,-160.13 151.39,-146.62 145,-132 138.66,-117.49 136.85,-99.54 136.52,-86.18"/>
<polygon fill="midnightblue" stroke="midnightblue" points="140.02,-85.83 136.53,-75.83 133.02,-85.82 140.02,-85.83"/>
</g>
<!-- Node4 -->
<g id="node4" class="node">
<title>Node4</title>
<g id="a_node4"><a xlink:href="ui_8h.html" target="_top" xlink:title=" ">
<polygon fill="white" stroke="black" points="153.5,-112.5 153.5,-131.5 278.5,-131.5 278.5,-112.5 153.5,-112.5"/>
<text text-anchor="middle" x="216" y="-119.5" font-family="Helvetica,sans-Serif" font-size="10.00">src/user_interface/ui.h</text>
</a>
</g>
</g>
<!-- Node2&#45;&gt;Node4 -->
<g id="edge3" class="edge">
<title>Node2&#45;&gt;Node4</title>
<path fill="none" stroke="midnightblue" d="M188.45,-168.08C193.01,-160.61 199.67,-149.72 205.29,-140.52"/>
<polygon fill="midnightblue" stroke="midnightblue" points="208.42,-142.11 210.65,-131.75 202.45,-138.46 208.42,-142.11"/>
</g>
<!-- Node7 -->
<g id="node7" class="node">
<title>Node7</title>
<g id="a_node7"><a xlink:href="callback_8h.html" target="_top" xlink:title=" ">
<polygon fill="white" stroke="black" points="281.5,-56.5 281.5,-75.5 388.5,-75.5 388.5,-56.5 281.5,-56.5"/>
<text text-anchor="middle" x="335" y="-63.5" font-family="Helvetica,sans-Serif" font-size="10.00">src/utils/callback.h</text>
</a>
</g>
</g>
<!-- Node2&#45;&gt;Node7 -->
<g id="edge12" class="edge">
<title>Node2&#45;&gt;Node7</title>
<path fill="none" stroke="midnightblue" d="M214.31,-168.49C236.53,-161.35 266.17,-149.47 288,-132 304.26,-118.99 317.55,-99.01 325.81,-84.64"/>
<polygon fill="midnightblue" stroke="midnightblue" points="328.95,-86.19 330.69,-75.73 322.81,-82.82 328.95,-86.19"/>
</g>
<!-- Node2&#45;&gt;Node9 -->
<g id="edge13" class="edge">
<title>Node2&#45;&gt;Node9</title>
<path fill="none" stroke="midnightblue" d="M172.49,-168.37C149.78,-149.73 95.94,-105.53 67.44,-82.13"/>
<polygon fill="midnightblue" stroke="midnightblue" points="69.42,-79.23 59.47,-75.59 64.97,-84.64 69.42,-79.23"/>
</g>
<!-- Node4&#45;&gt;Node3 -->
<g id="edge5" class="edge">
<title>Node4&#45;&gt;Node3</title>
<path fill="none" stroke="midnightblue" d="M203.31,-112.32C191.1,-103.98 172.42,-91.21 158,-81.35"/>
<polygon fill="midnightblue" stroke="midnightblue" points="159.89,-78.41 149.66,-75.65 155.94,-84.19 159.89,-78.41"/>
</g>
<!-- Node5 -->
<g id="node5" class="node">
<title>Node5</title>
<g id="a_node5"><a xlink:title=" ">
<polygon fill="white" stroke="#bfbfbf" points="232,-0.5 232,-19.5 290,-19.5 290,-0.5 232,-0.5"/>
<text text-anchor="middle" x="261" y="-7.5" font-family="Helvetica,sans-Serif" font-size="10.00">memory</text>
</a>
</g>
</g>
<!-- Node4&#45;&gt;Node5 -->
<g id="edge4" class="edge">
<title>Node4&#45;&gt;Node5</title>
<path fill="none" stroke="midnightblue" d="M219.53,-112.37C226.86,-94.46 243.85,-52.92 253.66,-28.95"/>
<polygon fill="midnightblue" stroke="midnightblue" points="256.94,-30.17 257.49,-19.59 250.46,-27.52 256.94,-30.17"/>
</g>
<!-- Node6 -->
<g id="node6" class="node">
<title>Node6</title>
<g id="a_node6"><a xlink:title=" ">
<polygon fill="white" stroke="#bfbfbf" points="177.5,-56.5 177.5,-75.5 224.5,-75.5 224.5,-56.5 177.5,-56.5"/>
<text text-anchor="middle" x="201" y="-63.5" font-family="Helvetica,sans-Serif" font-size="10.00">vector</text>
</a>
</g>
</g>
<!-- Node4&#45;&gt;Node6 -->
<g id="edge6" class="edge">
<title>Node4&#45;&gt;Node6</title>
<path fill="none" stroke="midnightblue" d="M213.52,-112.08C211.51,-104.85 208.61,-94.41 206.11,-85.4"/>
<polygon fill="midnightblue" stroke="midnightblue" points="209.48,-84.45 203.43,-75.75 202.74,-86.32 209.48,-84.45"/>
</g>
<!-- Node4&#45;&gt;Node7 -->
<g id="edge7" class="edge">
<title>Node4&#45;&gt;Node7</title>
<path fill="none" stroke="midnightblue" d="M234.86,-112.44C254.27,-103.64 284.73,-89.81 306.96,-79.72"/>
<polygon fill="midnightblue" stroke="midnightblue" points="308.57,-82.84 316.23,-75.52 305.68,-76.46 308.57,-82.84"/>
</g>
<!-- Node4&#45;&gt;Node9 -->
<g id="edge10" class="edge">
<title>Node4&#45;&gt;Node9</title>
<path fill="none" stroke="midnightblue" d="M189.54,-112.44C161.32,-103.32 116.46,-88.81 85.03,-78.65"/>
<polygon fill="midnightblue" stroke="midnightblue" points="85.93,-75.26 75.34,-75.52 83.78,-81.92 85.93,-75.26"/>
</g>
<!-- Node7&#45;&gt;Node5 -->
<g id="edge9" class="edge">
<title>Node7&#45;&gt;Node5</title>
<path fill="none" stroke="midnightblue" d="M323.11,-56.32C311.85,-48.11 294.71,-35.6 281.29,-25.81"/>
<polygon fill="midnightblue" stroke="midnightblue" points="283.25,-22.9 273.11,-19.83 279.12,-28.56 283.25,-22.9"/>
</g>
<!-- Node8 -->
<g id="node8" class="node">
<title>Node8</title>
<g id="a_node8"><a xlink:title=" ">
<polygon fill="white" stroke="#bfbfbf" points="317.5,-0.5 317.5,-19.5 352.5,-19.5 352.5,-0.5 317.5,-0.5"/>
<text text-anchor="middle" x="335" y="-7.5" font-family="Helvetica,sans-Serif" font-size="10.00">any</text>
</a>
</g>
</g>
<!-- Node7&#45;&gt;Node8 -->
<g id="edge8" class="edge">
<title>Node7&#45;&gt;Node8</title>
<path fill="none" stroke="midnightblue" d="M335,-56.08C335,-49.01 335,-38.86 335,-29.99"/>
<polygon fill="midnightblue" stroke="midnightblue" points="338.5,-29.75 335,-19.75 331.5,-29.75 338.5,-29.75"/>
</g>
<!-- Node10 -->
<g id="node10" class="node">
<title>Node10</title>
<g id="a_node10"><a xlink:title=" ">
<polygon fill="white" stroke="#bfbfbf" points="0,-0.5 0,-19.5 98,-19.5 98,-0.5 0,-0.5"/>
<text text-anchor="middle" x="49" y="-7.5" font-family="Helvetica,sans-Serif" font-size="10.00">bindings/imgui.h</text>
</a>
</g>
</g>
<!-- Node9&#45;&gt;Node10 -->
<g id="edge11" class="edge">
<title>Node9&#45;&gt;Node10</title>
<path fill="none" stroke="midnightblue" d="M49,-56.08C49,-49.01 49,-38.86 49,-29.99"/>
<polygon fill="midnightblue" stroke="midnightblue" points="52.5,-29.75 49,-19.75 45.5,-29.75 52.5,-29.75"/>
</g>
<!-- Node12 -->
<g id="node12" class="node">
<title>Node12</title>
<g id="a_node12"><a xlink:title=" ">
<polygon fill="white" stroke="#bfbfbf" points="335,-112.5 335,-131.5 395,-131.5 395,-112.5 335,-112.5"/>
<text text-anchor="middle" x="365" y="-119.5" font-family="Helvetica,sans-Serif" font-size="10.00">iostream</text>
</a>
</g>
</g>
<!-- Node11&#45;&gt;Node12 -->
<g id="edge16" class="edge">
<title>Node11&#45;&gt;Node12</title>
<path fill="none" stroke="midnightblue" d="M344.13,-168.08C347.51,-160.77 352.42,-150.18 356.62,-141.1"/>
<polygon fill="midnightblue" stroke="midnightblue" points="359.92,-142.3 360.95,-131.75 353.57,-139.36 359.92,-142.3"/>
</g>
</g>
</svg>
