<?xml version="1.0" encoding="UTF-8" standalone="no"?>
<!DOCTYPE svg PUBLIC "-//W3C//DTD SVG 1.1//EN"
 "http://www.w3.org/Graphics/SVG/1.1/DTD/svg11.dtd">
<!-- Generated by graphviz version 2.43.0 (0)
 -->
<!-- Title: src/user_interface/button.h Pages: 1 -->
<svg width="268pt" height="84pt"
 viewBox="0.00 0.00 267.50 84.00" xmlns="http://www.w3.org/2000/svg" xmlns:xlink="http://www.w3.org/1999/xlink">
<g id="graph0" class="graph" transform="scale(1 1) rotate(0) translate(4 80)">
<title>src/user_interface/button.h</title>
<polygon fill="white" stroke="transparent" points="-4,4 -4,-80 263.5,-80 263.5,4 -4,4"/>
<!-- Node1 -->
<g id="node1" class="node">
<title>Node1</title>
<g id="a_node1"><a xlink:title=" ">
<polygon fill="#bfbfbf" stroke="black" points="37,-56.5 37,-75.5 184,-75.5 184,-56.5 37,-56.5"/>
<text text-anchor="middle" x="110.5" y="-63.5" font-family="Helvetica,sans-Serif" font-size="10.00">src/user_interface/button.h</text>
</a>
</g>
</g>
<!-- Node2 -->
<g id="node2" class="node">
<title>Node2</title>
<g id="a_node2"><a xlink:href="app_2main_8cpp.html" target="_top" xlink:title=" ">
<polygon fill="white" stroke="black" points="0,-0.5 0,-19.5 83,-19.5 83,-0.5 0,-0.5"/>
<text text-anchor="middle" x="41.5" y="-7.5" font-family="Helvetica,sans-Serif" font-size="10.00">app/main.cpp</text>
</a>
</g>
</g>
<!-- Node1&#45;&gt;Node2 -->
<g id="edge1" class="edge">
<title>Node1&#45;&gt;Node2</title>
<path fill="none" stroke="midnightblue" d="M91.46,-50.1C79.04,-40.38 63.26,-28.03 52.79,-19.83"/>
<polygon fill="midnightblue" stroke="midnightblue" points="89.38,-52.92 99.41,-56.32 93.7,-47.4 89.38,-52.92"/>
</g>
<!-- Node3 -->
<g id="node3" class="node">
<title>Node3</title>
<g id="a_node3"><a xlink:href="button_8cpp.html" target="_top" xlink:title=" ">
<polygon fill="white" stroke="black" points="101.5,-0.5 101.5,-19.5 259.5,-19.5 259.5,-0.5 101.5,-0.5"/>
<text text-anchor="middle" x="180.5" y="-7.5" font-family="Helvetica,sans-Serif" font-size="10.00">src/user_interface/button.cpp</text>
</a>
</g>
</g>
<!-- Node1&#45;&gt;Node3 -->
<g id="edge2" class="edge">
<title>Node1&#45;&gt;Node3</title>
<path fill="none" stroke="midnightblue" d="M129.81,-50.1C142.41,-40.38 158.43,-28.03 169.05,-19.83"/>
<polygon fill="midnightblue" stroke="midnightblue" points="127.53,-47.44 121.75,-56.32 131.8,-52.99 127.53,-47.44"/>
</g>
</g>
</svg>
