<?xml version="1.0" encoding="UTF-8" standalone="no"?>
<!DOCTYPE svg PUBLIC "-//W3C//DTD SVG 1.1//EN"
 "http://www.w3.org/Graphics/SVG/1.1/DTD/svg11.dtd">
<!-- Generated by graphviz version 2.43.0 (0)
 -->
<!-- Title: src/utils/callback.h Pages: 1 -->
<svg width="475pt" height="196pt"
 viewBox="0.00 0.00 474.50 196.00" xmlns="http://www.w3.org/2000/svg" xmlns:xlink="http://www.w3.org/1999/xlink">
<g id="graph0" class="graph" transform="scale(1 1) rotate(0) translate(4 192)">
<title>src/utils/callback.h</title>
<polygon fill="white" stroke="transparent" points="-4,4 -4,-192 470.5,-192 470.5,4 -4,4"/>
<!-- Node1 -->
<g id="node1" class="node">
<title>Node1</title>
<g id="a_node1"><a xlink:title=" ">
<polygon fill="#bfbfbf" stroke="black" points="190.5,-168.5 190.5,-187.5 297.5,-187.5 297.5,-168.5 190.5,-168.5"/>
<text text-anchor="middle" x="244" y="-175.5" font-family="Helvetica,sans-Serif" font-size="10.00">src/utils/callback.h</text>
</a>
</g>
</g>
<!-- Node2 -->
<g id="node2" class="node">
<title>Node2</title>
<g id="a_node2"><a xlink:href="app_2main_8cpp.html" target="_top" xlink:title=" ">
<polygon fill="white" stroke="black" points="176.5,-0.5 176.5,-19.5 259.5,-19.5 259.5,-0.5 176.5,-0.5"/>
<text text-anchor="middle" x="218" y="-7.5" font-family="Helvetica,sans-Serif" font-size="10.00">app/main.cpp</text>
</a>
</g>
</g>
<!-- Node1&#45;&gt;Node2 -->
<g id="edge1" class="edge">
<title>Node1&#45;&gt;Node2</title>
<path fill="none" stroke="midnightblue" d="M232.4,-159.73C227.63,-151.66 222.61,-141.71 220,-132 209.03,-91.22 214.05,-39.88 216.72,-19.71"/>
<polygon fill="midnightblue" stroke="midnightblue" points="229.45,-161.61 237.74,-168.2 235.38,-157.88 229.45,-161.61"/>
</g>
<!-- Node3 -->
<g id="node3" class="node">
<title>Node3</title>
<g id="a_node3"><a xlink:href="button_8h.html" target="_top" xlink:title=" ">
<polygon fill="white" stroke="black" points="23.5,-56.5 23.5,-75.5 170.5,-75.5 170.5,-56.5 23.5,-56.5"/>
<text text-anchor="middle" x="97" y="-63.5" font-family="Helvetica,sans-Serif" font-size="10.00">src/user_interface/button.h</text>
</a>
</g>
</g>
<!-- Node1&#45;&gt;Node3 -->
<g id="edge2" class="edge">
<title>Node1&#45;&gt;Node3</title>
<path fill="none" stroke="midnightblue" d="M224.11,-162.12C192.91,-138.77 133.44,-94.27 108.48,-75.59"/>
<polygon fill="midnightblue" stroke="midnightblue" points="222.36,-165.18 232.47,-168.37 226.56,-159.57 222.36,-165.18"/>
</g>
<!-- Node5 -->
<g id="node5" class="node">
<title>Node5</title>
<g id="a_node5"><a xlink:href="ui_8h.html" target="_top" xlink:title=" ">
<polygon fill="white" stroke="black" points="229.5,-112.5 229.5,-131.5 354.5,-131.5 354.5,-112.5 229.5,-112.5"/>
<text text-anchor="middle" x="292" y="-119.5" font-family="Helvetica,sans-Serif" font-size="10.00">src/user_interface/ui.h</text>
</a>
</g>
</g>
<!-- Node1&#45;&gt;Node5 -->
<g id="edge5" class="edge">
<title>Node1&#45;&gt;Node5</title>
<path fill="none" stroke="midnightblue" d="M258.73,-160.43C267.14,-150.97 277.35,-139.48 284.22,-131.75"/>
<polygon fill="midnightblue" stroke="midnightblue" points="255.95,-158.28 251.93,-168.08 261.19,-162.93 255.95,-158.28"/>
</g>
<!-- Node7 -->
<g id="node7" class="node">
<title>Node7</title>
<g id="a_node7"><a xlink:href="window_8h.html" target="_top" xlink:title=" ">
<polygon fill="white" stroke="black" points="381,-56.5 381,-75.5 461,-75.5 461,-56.5 381,-56.5"/>
<text text-anchor="middle" x="421" y="-63.5" font-family="Helvetica,sans-Serif" font-size="10.00">src/window.h</text>
</a>
</g>
</g>
<!-- Node1&#45;&gt;Node7 -->
<g id="edge11" class="edge">
<title>Node1&#45;&gt;Node7</title>
<path fill="none" stroke="midnightblue" d="M289.14,-165.55C312.49,-158.28 340.7,-147.32 363,-132 385.94,-116.24 405.87,-89.56 415.26,-75.79"/>
<polygon fill="midnightblue" stroke="midnightblue" points="288.04,-162.22 279.46,-168.44 290.04,-168.93 288.04,-162.22"/>
</g>
<!-- Node3&#45;&gt;Node2 -->
<g id="edge3" class="edge">
<title>Node3&#45;&gt;Node2</title>
<path fill="none" stroke="midnightblue" d="M125.31,-52.37C147.97,-42.26 179.13,-28.35 198.92,-19.52"/>
<polygon fill="midnightblue" stroke="midnightblue" points="123.88,-49.17 116.17,-56.44 126.73,-55.56 123.88,-49.17"/>
</g>
<!-- Node4 -->
<g id="node4" class="node">
<title>Node4</title>
<g id="a_node4"><a xlink:href="button_8cpp.html" target="_top" xlink:title=" ">
<polygon fill="white" stroke="black" points="0,-0.5 0,-19.5 158,-19.5 158,-0.5 0,-0.5"/>
<text text-anchor="middle" x="79" y="-7.5" font-family="Helvetica,sans-Serif" font-size="10.00">src/user_interface/button.cpp</text>
</a>
</g>
</g>
<!-- Node3&#45;&gt;Node4 -->
<g id="edge4" class="edge">
<title>Node3&#45;&gt;Node4</title>
<path fill="none" stroke="midnightblue" d="M90.8,-46.4C87.79,-37.36 84.31,-26.94 81.92,-19.75"/>
<polygon fill="midnightblue" stroke="midnightblue" points="87.54,-47.7 94.03,-56.08 94.19,-45.49 87.54,-47.7"/>
</g>
<!-- Node5&#45;&gt;Node3 -->
<g id="edge6" class="edge">
<title>Node5&#45;&gt;Node3</title>
<path fill="none" stroke="midnightblue" d="M251.19,-109.7C214.39,-99.51 161.07,-84.74 127.75,-75.52"/>
<polygon fill="midnightblue" stroke="midnightblue" points="250.53,-113.15 261.1,-112.44 252.4,-106.4 250.53,-113.15"/>
</g>
<!-- Node6 -->
<g id="node6" class="node">
<title>Node6</title>
<g id="a_node6"><a xlink:href="ui_8cpp.html" target="_top" xlink:title=" ">
<polygon fill="white" stroke="black" points="227,-56.5 227,-75.5 363,-75.5 363,-56.5 227,-56.5"/>
<text text-anchor="middle" x="295" y="-63.5" font-family="Helvetica,sans-Serif" font-size="10.00">src/user_interface/ui.cpp</text>
</a>
</g>
</g>
<!-- Node5&#45;&gt;Node6 -->
<g id="edge7" class="edge">
<title>Node5&#45;&gt;Node6</title>
<path fill="none" stroke="midnightblue" d="M293.07,-101.8C293.56,-92.91 294.12,-82.78 294.51,-75.75"/>
<polygon fill="midnightblue" stroke="midnightblue" points="289.56,-101.9 292.5,-112.08 296.54,-102.29 289.56,-101.9"/>
</g>
<!-- Node5&#45;&gt;Node7 -->
<g id="edge8" class="edge">
<title>Node5&#45;&gt;Node7</title>
<path fill="none" stroke="midnightblue" d="M321.85,-108.5C346.04,-98.38 379.46,-84.39 400.66,-75.52"/>
<polygon fill="midnightblue" stroke="midnightblue" points="320.31,-105.35 312.44,-112.44 323.02,-111.81 320.31,-105.35"/>
</g>
<!-- Node7&#45;&gt;Node2 -->
<g id="edge9" class="edge">
<title>Node7&#45;&gt;Node2</title>
<path fill="none" stroke="midnightblue" d="M379.01,-53.83C340.68,-43.63 284.85,-28.78 250.02,-19.52"/>
<polygon fill="midnightblue" stroke="midnightblue" points="378.27,-57.26 388.83,-56.44 380.07,-50.49 378.27,-57.26"/>
</g>
<!-- Node8 -->
<g id="node8" class="node">
<title>Node8</title>
<g id="a_node8"><a xlink:href="window_8cpp.html" target="_top" xlink:title=" ">
<polygon fill="white" stroke="black" points="375.5,-0.5 375.5,-19.5 466.5,-19.5 466.5,-0.5 375.5,-0.5"/>
<text text-anchor="middle" x="421" y="-7.5" font-family="Helvetica,sans-Serif" font-size="10.00">src/window.cpp</text>
</a>
</g>
</g>
<!-- Node7&#45;&gt;Node8 -->
<g id="edge10" class="edge">
<title>Node7&#45;&gt;Node8</title>
<path fill="none" stroke="midnightblue" d="M421,-45.8C421,-36.91 421,-26.78 421,-19.75"/>
<polygon fill="midnightblue" stroke="midnightblue" points="417.5,-46.08 421,-56.08 424.5,-46.08 417.5,-46.08"/>
</g>
</g>
</svg>
