<?xml version="1.0" encoding="UTF-8" standalone="no"?>
<!DOCTYPE svg PUBLIC "-//W3C//DTD SVG 1.1//EN"
 "http://www.w3.org/Graphics/SVG/1.1/DTD/svg11.dtd">
<!-- Generated by graphviz version 2.43.0 (0)
 -->
<!-- Title: src/utils/callback.h Pages: 1 -->
<svg width="651pt" height="252pt"
 viewBox="0.00 0.00 650.66 252.00" xmlns="http://www.w3.org/2000/svg" xmlns:xlink="http://www.w3.org/1999/xlink">
<g id="graph0" class="graph" transform="scale(1 1) rotate(0) translate(4 248)">
<title>src/utils/callback.h</title>
<polygon fill="white" stroke="transparent" points="-4,4 -4,-248 646.66,-248 646.66,4 -4,4"/>
<!-- Node1 -->
<g id="node1" class="node">
<title>Node1</title>
<g id="a_node1"><a xlink:title=" ">
<polygon fill="#bfbfbf" stroke="black" points="103.66,-224.5 103.66,-243.5 210.66,-243.5 210.66,-224.5 103.66,-224.5"/>
<text text-anchor="middle" x="157.16" y="-231.5" font-family="Helvetica,sans-Serif" font-size="10.00">src/utils/callback.h</text>
</a>
</g>
</g>
<!-- Node2 -->
<g id="node2" class="node">
<title>Node2</title>
<g id="a_node2"><a xlink:href="app_2main_8cpp.html" target="_top" xlink:title=" ">
<polygon fill="white" stroke="black" points="213.66,-0.5 213.66,-19.5 296.66,-19.5 296.66,-0.5 213.66,-0.5"/>
<text text-anchor="middle" x="255.16" y="-7.5" font-family="Helvetica,sans-Serif" font-size="10.00">app/main.cpp</text>
</a>
</g>
</g>
<!-- Node1&#45;&gt;Node2 -->
<g id="edge1" class="edge">
<title>Node1&#45;&gt;Node2</title>
<path fill="none" stroke="midnightblue" d="M131.47,-219.62C77.79,-189.99 -37.24,-116.64 13.16,-56 38.16,-25.93 151.08,-15.86 213.45,-12.56"/>
<polygon fill="midnightblue" stroke="midnightblue" points="129.97,-222.79 140.43,-224.47 133.3,-216.63 129.97,-222.79"/>
</g>
<!-- Node3 -->
<g id="node3" class="node">
<title>Node3</title>
<g id="a_node3"><a xlink:href="button_8h.html" target="_top" xlink:title=" ">
<polygon fill="white" stroke="black" points="27.66,-112.5 27.66,-131.5 174.66,-131.5 174.66,-112.5 27.66,-112.5"/>
<text text-anchor="middle" x="101.16" y="-119.5" font-family="Helvetica,sans-Serif" font-size="10.00">src/user_interface/button.h</text>
</a>
</g>
</g>
<!-- Node1&#45;&gt;Node3 -->
<g id="edge2" class="edge">
<title>Node1&#45;&gt;Node3</title>
<path fill="none" stroke="midnightblue" d="M148.16,-215.32C135.97,-191.37 114.68,-149.55 105.54,-131.59"/>
<polygon fill="midnightblue" stroke="midnightblue" points="145.11,-217.04 152.77,-224.37 151.35,-213.87 145.11,-217.04"/>
</g>
<!-- Node6 -->
<g id="node6" class="node">
<title>Node6</title>
<g id="a_node6"><a xlink:href="ui_8h.html" target="_top" xlink:title=" ">
<polygon fill="white" stroke="black" points="192.66,-168.5 192.66,-187.5 317.66,-187.5 317.66,-168.5 192.66,-168.5"/>
<text text-anchor="middle" x="255.16" y="-175.5" font-family="Helvetica,sans-Serif" font-size="10.00">src/user_interface/ui.h</text>
</a>
</g>
</g>
<!-- Node1&#45;&gt;Node6 -->
<g id="edge6" class="edge">
<title>Node1&#45;&gt;Node6</title>
<path fill="none" stroke="midnightblue" d="M181.75,-219.45C199.84,-209.48 223.9,-196.23 239.46,-187.65"/>
<polygon fill="midnightblue" stroke="midnightblue" points="179.98,-216.43 172.91,-224.32 183.36,-222.56 179.98,-216.43"/>
</g>
<!-- Node10 -->
<g id="node10" class="node">
<title>Node10</title>
<g id="a_node10"><a xlink:href="window_8h.html" target="_top" xlink:title=" ">
<polygon fill="white" stroke="black" points="557.16,-112.5 557.16,-131.5 637.16,-131.5 637.16,-112.5 557.16,-112.5"/>
<text text-anchor="middle" x="597.16" y="-119.5" font-family="Helvetica,sans-Serif" font-size="10.00">src/window.h</text>
</a>
</g>
</g>
<!-- Node1&#45;&gt;Node10 -->
<g id="edge16" class="edge">
<title>Node1&#45;&gt;Node10</title>
<path fill="none" stroke="midnightblue" d="M201.23,-221.98C289.03,-200.03 484.09,-151.27 563.02,-131.53"/>
<polygon fill="midnightblue" stroke="midnightblue" points="200.18,-218.64 191.32,-224.46 201.87,-225.43 200.18,-218.64"/>
</g>
<!-- Node4 -->
<g id="node4" class="node">
<title>Node4</title>
<g id="a_node4"><a xlink:href="button_8cpp.html" target="_top" xlink:title=" ">
<polygon fill="white" stroke="black" points="22.16,-56.5 22.16,-75.5 180.16,-75.5 180.16,-56.5 22.16,-56.5"/>
<text text-anchor="middle" x="101.16" y="-63.5" font-family="Helvetica,sans-Serif" font-size="10.00">src/user_interface/button.cpp</text>
</a>
</g>
</g>
<!-- Node3&#45;&gt;Node4 -->
<g id="edge3" class="edge">
<title>Node3&#45;&gt;Node4</title>
<path fill="none" stroke="midnightblue" d="M101.16,-101.8C101.16,-92.91 101.16,-82.78 101.16,-75.75"/>
<polygon fill="midnightblue" stroke="midnightblue" points="97.66,-102.08 101.16,-112.08 104.66,-102.08 97.66,-102.08"/>
</g>
<!-- Node5 -->
<g id="node5" class="node">
<title>Node5</title>
<g id="a_node5"><a xlink:href="user__interface_8h.html" target="_top" xlink:title=" ">
<polygon fill="white" stroke="black" points="198.66,-56.5 198.66,-75.5 311.66,-75.5 311.66,-56.5 198.66,-56.5"/>
<text text-anchor="middle" x="255.16" y="-63.5" font-family="Helvetica,sans-Serif" font-size="10.00">src/user_interface.h</text>
</a>
</g>
</g>
<!-- Node3&#45;&gt;Node5 -->
<g id="edge4" class="edge">
<title>Node3&#45;&gt;Node5</title>
<path fill="none" stroke="midnightblue" d="M135.27,-109.04C164.25,-98.88 205.12,-84.55 230.88,-75.52"/>
<polygon fill="midnightblue" stroke="midnightblue" points="133.84,-105.83 125.56,-112.44 136.16,-112.44 133.84,-105.83"/>
</g>
<!-- Node5&#45;&gt;Node2 -->
<g id="edge5" class="edge">
<title>Node5&#45;&gt;Node2</title>
<path fill="none" stroke="midnightblue" d="M255.16,-45.8C255.16,-36.91 255.16,-26.78 255.16,-19.75"/>
<polygon fill="midnightblue" stroke="midnightblue" points="251.66,-46.08 255.16,-56.08 258.66,-46.08 251.66,-46.08"/>
</g>
<!-- Node6&#45;&gt;Node3 -->
<g id="edge7" class="edge">
<title>Node6&#45;&gt;Node3</title>
<path fill="none" stroke="midnightblue" d="M221.05,-165.04C192.08,-154.88 151.2,-140.55 125.45,-131.52"/>
<polygon fill="midnightblue" stroke="midnightblue" points="220.17,-168.44 230.76,-168.44 222.48,-161.83 220.17,-168.44"/>
</g>
<!-- Node6&#45;&gt;Node5 -->
<g id="edge12" class="edge">
<title>Node6&#45;&gt;Node5</title>
<path fill="none" stroke="midnightblue" d="M239.45,-160.88C232.74,-152.88 225.65,-142.66 222.16,-132 215.23,-110.83 233.43,-88.05 245.48,-75.87"/>
<polygon fill="midnightblue" stroke="midnightblue" points="236.86,-163.24 246.14,-168.34 242.07,-158.56 236.86,-163.24"/>
</g>
<!-- Node7 -->
<g id="node7" class="node">
<title>Node7</title>
<g id="a_node7"><a xlink:href="selector_8h.html" target="_top" xlink:title=" ">
<polygon fill="white" stroke="black" points="231.16,-112.5 231.16,-131.5 385.16,-131.5 385.16,-112.5 231.16,-112.5"/>
<text text-anchor="middle" x="308.16" y="-119.5" font-family="Helvetica,sans-Serif" font-size="10.00">src/user_interface/selector.h</text>
</a>
</g>
</g>
<!-- Node6&#45;&gt;Node7 -->
<g id="edge8" class="edge">
<title>Node6&#45;&gt;Node7</title>
<path fill="none" stroke="midnightblue" d="M271.14,-160.72C280.49,-151.2 291.91,-139.56 299.57,-131.75"/>
<polygon fill="midnightblue" stroke="midnightblue" points="268.42,-158.49 263.91,-168.08 273.42,-163.4 268.42,-158.49"/>
</g>
<!-- Node9 -->
<g id="node9" class="node">
<title>Node9</title>
<g id="a_node9"><a xlink:href="ui_8cpp.html" target="_top" xlink:title=" ">
<polygon fill="white" stroke="black" points="403.16,-112.5 403.16,-131.5 539.16,-131.5 539.16,-112.5 403.16,-112.5"/>
<text text-anchor="middle" x="471.16" y="-119.5" font-family="Helvetica,sans-Serif" font-size="10.00">src/user_interface/ui.cpp</text>
</a>
</g>
</g>
<!-- Node6&#45;&gt;Node9 -->
<g id="edge11" class="edge">
<title>Node6&#45;&gt;Node9</title>
<path fill="none" stroke="midnightblue" d="M299.33,-165.96C340.12,-155.76 399.88,-140.82 437.1,-131.52"/>
<polygon fill="midnightblue" stroke="midnightblue" points="298.24,-162.62 289.39,-168.44 299.94,-169.41 298.24,-162.62"/>
</g>
<!-- Node6&#45;&gt;Node10 -->
<g id="edge13" class="edge">
<title>Node6&#45;&gt;Node10</title>
<path fill="none" stroke="midnightblue" d="M323.91,-167.02C383.35,-158.26 471.53,-144.92 548.16,-132 551.06,-131.51 554.06,-130.99 557.07,-130.46"/>
<polygon fill="midnightblue" stroke="midnightblue" points="323.28,-163.58 313.89,-168.5 324.3,-170.5 323.28,-163.58"/>
</g>
<!-- Node7&#45;&gt;Node5 -->
<g id="edge10" class="edge">
<title>Node7&#45;&gt;Node5</title>
<path fill="none" stroke="midnightblue" d="M292.18,-104.72C282.84,-95.2 271.42,-83.56 263.75,-75.75"/>
<polygon fill="midnightblue" stroke="midnightblue" points="289.91,-107.4 299.41,-112.08 294.9,-102.49 289.91,-107.4"/>
</g>
<!-- Node8 -->
<g id="node8" class="node">
<title>Node8</title>
<g id="a_node8"><a xlink:href="selector_8cpp.html" target="_top" xlink:title=" ">
<polygon fill="white" stroke="black" points="329.66,-56.5 329.66,-75.5 494.66,-75.5 494.66,-56.5 329.66,-56.5"/>
<text text-anchor="middle" x="412.16" y="-63.5" font-family="Helvetica,sans-Serif" font-size="10.00">src/user_interface/selector.cpp</text>
</a>
</g>
</g>
<!-- Node7&#45;&gt;Node8 -->
<g id="edge9" class="edge">
<title>Node7&#45;&gt;Node8</title>
<path fill="none" stroke="midnightblue" d="M333.99,-107.59C353.22,-97.61 378.91,-84.27 395.49,-75.65"/>
<polygon fill="midnightblue" stroke="midnightblue" points="332.13,-104.61 324.87,-112.32 335.36,-110.82 332.13,-104.61"/>
</g>
<!-- Node10&#45;&gt;Node2 -->
<g id="edge14" class="edge">
<title>Node10&#45;&gt;Node2</title>
<path fill="none" stroke="midnightblue" d="M580.25,-105.74C562.57,-90.67 533.39,-68.16 504.16,-56 435.01,-27.22 347.52,-16.81 296.79,-13.07"/>
<polygon fill="midnightblue" stroke="midnightblue" points="578.11,-108.53 587.95,-112.46 582.72,-103.25 578.11,-108.53"/>
</g>
<!-- Node11 -->
<g id="node11" class="node">
<title>Node11</title>
<g id="a_node11"><a xlink:href="window_8cpp.html" target="_top" xlink:title=" ">
<polygon fill="white" stroke="black" points="551.66,-56.5 551.66,-75.5 642.66,-75.5 642.66,-56.5 551.66,-56.5"/>
<text text-anchor="middle" x="597.16" y="-63.5" font-family="Helvetica,sans-Serif" font-size="10.00">src/window.cpp</text>
</a>
</g>
</g>
<!-- Node10&#45;&gt;Node11 -->
<g id="edge15" class="edge">
<title>Node10&#45;&gt;Node11</title>
<path fill="none" stroke="midnightblue" d="M597.16,-101.8C597.16,-92.91 597.16,-82.78 597.16,-75.75"/>
<polygon fill="midnightblue" stroke="midnightblue" points="593.66,-102.08 597.16,-112.08 600.66,-102.08 593.66,-102.08"/>
</g>
</g>
</svg>
