<?xml version="1.0" encoding="UTF-8" standalone="no"?>
<!DOCTYPE svg PUBLIC "-//W3C//DTD SVG 1.1//EN"
 "http://www.w3.org/Graphics/SVG/1.1/DTD/svg11.dtd">
<!-- Generated by graphviz version 2.43.0 (0)
 -->
<!-- Title: src/utils/callback.h Pages: 1 -->
<svg width="1030pt" height="308pt"
 viewBox="0.00 0.00 1030.46 308.00" xmlns="http://www.w3.org/2000/svg" xmlns:xlink="http://www.w3.org/1999/xlink">
<g id="graph0" class="graph" transform="scale(1 1) rotate(0) translate(4 304)">
<title>src/utils/callback.h</title>
<polygon fill="white" stroke="transparent" points="-4,4 -4,-304 1026.46,-304 1026.46,4 -4,4"/>
<!-- Node1 -->
<g id="node1" class="node">
<title>Node1</title>
<g id="a_node1"><a xlink:title=" ">
<polygon fill="#bfbfbf" stroke="black" points="295.08,-280.5 295.08,-299.5 402.08,-299.5 402.08,-280.5 295.08,-280.5"/>
<text text-anchor="middle" x="348.58" y="-287.5" font-family="Helvetica,sans-Serif" font-size="10.00">src/utils/callback.h</text>
</a>
</g>
</g>
<!-- Node2 -->
<g id="node2" class="node">
<title>Node2</title>
<g id="a_node2"><a xlink:href="app_2main_8cpp.html" target="_top" xlink:title=" ">
<polygon fill="white" stroke="black" points="472.08,-56.5 472.08,-75.5 555.08,-75.5 555.08,-56.5 472.08,-56.5"/>
<text text-anchor="middle" x="513.58" y="-63.5" font-family="Helvetica,sans-Serif" font-size="10.00">app/main.cpp</text>
</a>
</g>
</g>
<!-- Node1&#45;&gt;Node2 -->
<g id="edge1" class="edge">
<title>Node1&#45;&gt;Node2</title>
<path fill="none" stroke="midnightblue" d="M284.65,-279.22C166.53,-258.68 -66.41,-205.06 18.58,-112 48.91,-78.79 358.18,-69.82 471.91,-67.64"/>
<polygon fill="midnightblue" stroke="midnightblue" points="284.22,-282.7 294.67,-280.94 285.4,-275.8 284.22,-282.7"/>
</g>
<!-- Node3 -->
<g id="node3" class="node">
<title>Node3</title>
<g id="a_node3"><a xlink:href="button_8h.html" target="_top" xlink:title=" ">
<polygon fill="white" stroke="black" points="70.08,-168.5 70.08,-187.5 217.08,-187.5 217.08,-168.5 70.08,-168.5"/>
<text text-anchor="middle" x="143.58" y="-175.5" font-family="Helvetica,sans-Serif" font-size="10.00">src/user_interface/button.h</text>
</a>
</g>
</g>
<!-- Node1&#45;&gt;Node3 -->
<g id="edge2" class="edge">
<title>Node1&#45;&gt;Node3</title>
<path fill="none" stroke="midnightblue" d="M323.59,-275.59C280.91,-252.69 195.15,-206.67 159.59,-187.59"/>
<polygon fill="midnightblue" stroke="midnightblue" points="322.03,-278.72 332.49,-280.37 325.34,-272.56 322.03,-278.72"/>
</g>
<!-- Node8 -->
<g id="node8" class="node">
<title>Node8</title>
<g id="a_node8"><a xlink:href="ui_8h.html" target="_top" xlink:title=" ">
<polygon fill="white" stroke="black" points="411.08,-224.5 411.08,-243.5 536.08,-243.5 536.08,-224.5 411.08,-224.5"/>
<text text-anchor="middle" x="473.58" y="-231.5" font-family="Helvetica,sans-Serif" font-size="10.00">src/user_interface/ui.h</text>
</a>
</g>
</g>
<!-- Node1&#45;&gt;Node8 -->
<g id="edge9" class="edge">
<title>Node1&#45;&gt;Node8</title>
<path fill="none" stroke="midnightblue" d="M377.82,-276.37C401.23,-266.26 433.42,-252.35 453.86,-243.52"/>
<polygon fill="midnightblue" stroke="midnightblue" points="376.18,-273.26 368.38,-280.44 378.95,-279.69 376.18,-273.26"/>
</g>
<!-- Node16 -->
<g id="node16" class="node">
<title>Node16</title>
<g id="a_node16"><a xlink:href="window_8h.html" target="_top" xlink:title=" ">
<polygon fill="white" stroke="black" points="930.58,-112.5 930.58,-131.5 1010.58,-131.5 1010.58,-112.5 930.58,-112.5"/>
<text text-anchor="middle" x="970.58" y="-119.5" font-family="Helvetica,sans-Serif" font-size="10.00">src/window.h</text>
</a>
</g>
</g>
<!-- Node1&#45;&gt;Node16 -->
<g id="edge27" class="edge">
<title>Node1&#45;&gt;Node16</title>
<path fill="none" stroke="midnightblue" d="M412.27,-289.43C563.95,-288.95 939.74,-278.47 1017.58,-188 1034.02,-168.89 1003.72,-144.31 984.55,-131.55"/>
<polygon fill="midnightblue" stroke="midnightblue" points="412.17,-285.93 402.17,-289.45 412.18,-292.93 412.17,-285.93"/>
</g>
<!-- Node4 -->
<g id="node4" class="node">
<title>Node4</title>
<g id="a_node4"><a xlink:href="button_8cpp.html" target="_top" xlink:title=" ">
<polygon fill="white" stroke="black" points="27.58,-112.5 27.58,-131.5 185.58,-131.5 185.58,-112.5 27.58,-112.5"/>
<text text-anchor="middle" x="106.58" y="-119.5" font-family="Helvetica,sans-Serif" font-size="10.00">src/user_interface/button.cpp</text>
</a>
</g>
</g>
<!-- Node3&#45;&gt;Node4 -->
<g id="edge3" class="edge">
<title>Node3&#45;&gt;Node4</title>
<path fill="none" stroke="midnightblue" d="M131.63,-159.57C125.27,-150.27 117.71,-139.25 112.57,-131.75"/>
<polygon fill="midnightblue" stroke="midnightblue" points="128.93,-161.81 137.47,-168.08 134.7,-157.86 128.93,-161.81"/>
</g>
<!-- Node5 -->
<g id="node5" class="node">
<title>Node5</title>
<g id="a_node5"><a xlink:href="user__interface_8h.html" target="_top" xlink:title=" ">
<polygon fill="white" stroke="black" points="387.08,-112.5 387.08,-131.5 500.08,-131.5 500.08,-112.5 387.08,-112.5"/>
<text text-anchor="middle" x="443.58" y="-119.5" font-family="Helvetica,sans-Serif" font-size="10.00">src/user_interface.h</text>
</a>
</g>
</g>
<!-- Node3&#45;&gt;Node5 -->
<g id="edge4" class="edge">
<title>Node3&#45;&gt;Node5</title>
<path fill="none" stroke="midnightblue" d="M201,-166.66C257.69,-156.46 343.36,-141.04 396.26,-131.52"/>
<polygon fill="midnightblue" stroke="midnightblue" points="200.34,-163.23 191.11,-168.44 201.58,-170.12 200.34,-163.23"/>
</g>
<!-- Node5&#45;&gt;Node2 -->
<g id="edge5" class="edge">
<title>Node5&#45;&gt;Node2</title>
<path fill="none" stroke="midnightblue" d="M462.89,-106.1C475.49,-96.38 491.51,-84.03 502.13,-75.83"/>
<polygon fill="midnightblue" stroke="midnightblue" points="460.61,-103.44 454.83,-112.32 464.88,-108.99 460.61,-103.44"/>
</g>
<!-- Node6 -->
<g id="node6" class="node">
<title>Node6</title>
<g id="a_node6"><a xlink:href="application_8cpp.html" target="_top" xlink:title=" ">
<polygon fill="white" stroke="black" points="617.58,-0.5 617.58,-19.5 725.58,-19.5 725.58,-0.5 617.58,-0.5"/>
<text text-anchor="middle" x="671.58" y="-7.5" font-family="Helvetica,sans-Serif" font-size="10.00">src/application.cpp</text>
</a>
</g>
</g>
<!-- Node5&#45;&gt;Node6 -->
<g id="edge6" class="edge">
<title>Node5&#45;&gt;Node6</title>
<path fill="none" stroke="midnightblue" d="M444.1,-102.02C445.55,-87.39 449.94,-67.75 462.58,-56 484.66,-35.46 562.92,-22.86 617.14,-16.4"/>
<polygon fill="midnightblue" stroke="midnightblue" points="440.58,-102.23 443.47,-112.42 447.57,-102.65 440.58,-102.23"/>
</g>
<!-- Node7 -->
<g id="node7" class="node">
<title>Node7</title>
<g id="a_node7"><a xlink:href="application_8h.html" target="_top" xlink:title=" ">
<polygon fill="white" stroke="black" points="623.08,-56.5 623.08,-75.5 720.08,-75.5 720.08,-56.5 623.08,-56.5"/>
<text text-anchor="middle" x="671.58" y="-63.5" font-family="Helvetica,sans-Serif" font-size="10.00">src/application.h</text>
</a>
</g>
</g>
<!-- Node5&#45;&gt;Node7 -->
<g id="edge7" class="edge">
<title>Node5&#45;&gt;Node7</title>
<path fill="none" stroke="midnightblue" d="M489.65,-110.09C532.72,-99.89 596.16,-84.86 635.62,-75.52"/>
<polygon fill="midnightblue" stroke="midnightblue" points="488.63,-106.73 479.71,-112.44 490.24,-113.54 488.63,-106.73"/>
</g>
<!-- Node7&#45;&gt;Node6 -->
<g id="edge8" class="edge">
<title>Node7&#45;&gt;Node6</title>
<path fill="none" stroke="midnightblue" d="M671.58,-45.8C671.58,-36.91 671.58,-26.78 671.58,-19.75"/>
<polygon fill="midnightblue" stroke="midnightblue" points="668.08,-46.08 671.58,-56.08 675.08,-46.08 668.08,-46.08"/>
</g>
<!-- Node8&#45;&gt;Node3 -->
<g id="edge10" class="edge">
<title>Node8&#45;&gt;Node3</title>
<path fill="none" stroke="midnightblue" d="M411.19,-222.79C348.83,-212.59 254.06,-197.08 195.62,-187.52"/>
<polygon fill="midnightblue" stroke="midnightblue" points="410.85,-226.28 421.29,-224.44 411.99,-219.37 410.85,-226.28"/>
</g>
<!-- Node8&#45;&gt;Node5 -->
<g id="edge21" class="edge">
<title>Node8&#45;&gt;Node5</title>
<path fill="none" stroke="midnightblue" d="M455.94,-217.15C448.44,-209.23 440.52,-199 436.58,-188 429.69,-168.77 435.95,-144.45 440.27,-131.7"/>
<polygon fill="midnightblue" stroke="midnightblue" points="453.56,-219.72 463.14,-224.24 458.47,-214.73 453.56,-219.72"/>
</g>
<!-- Node9 -->
<g id="node9" class="node">
<title>Node9</title>
<g id="a_node9"><a xlink:href="image__viewer_8h.html" target="_top" xlink:title=" ">
<polygon fill="white" stroke="black" points="632.58,-168.5 632.58,-187.5 816.58,-187.5 816.58,-168.5 632.58,-168.5"/>
<text text-anchor="middle" x="724.58" y="-175.5" font-family="Helvetica,sans-Serif" font-size="10.00">src/user_interface/image_viewer.h</text>
</a>
</g>
</g>
<!-- Node8&#45;&gt;Node9 -->
<g id="edge11" class="edge">
<title>Node8&#45;&gt;Node9</title>
<path fill="none" stroke="midnightblue" d="M523.4,-222.28C570.83,-212.08 641.28,-196.92 684.99,-187.52"/>
<polygon fill="midnightblue" stroke="midnightblue" points="522.39,-218.92 513.35,-224.44 523.86,-225.76 522.39,-218.92"/>
</g>
<!-- Node11 -->
<g id="node11" class="node">
<title>Node11</title>
<g id="a_node11"><a xlink:href="selector_8h.html" target="_top" xlink:title=" ">
<polygon fill="white" stroke="black" points="235.58,-168.5 235.58,-187.5 389.58,-187.5 389.58,-168.5 235.58,-168.5"/>
<text text-anchor="middle" x="312.58" y="-175.5" font-family="Helvetica,sans-Serif" font-size="10.00">src/user_interface/selector.h</text>
</a>
</g>
</g>
<!-- Node8&#45;&gt;Node11 -->
<g id="edge14" class="edge">
<title>Node8&#45;&gt;Node11</title>
<path fill="none" stroke="midnightblue" d="M438.31,-221.17C408,-211 365.01,-196.59 337.97,-187.52"/>
<polygon fill="midnightblue" stroke="midnightblue" points="437.47,-224.58 448.07,-224.44 439.7,-217.95 437.47,-224.58"/>
</g>
<!-- Node13 -->
<g id="node13" class="node">
<title>Node13</title>
<g id="a_node13"><a xlink:href="top__viewer_8h.html" target="_top" xlink:title=" ">
<polygon fill="white" stroke="black" points="445.08,-168.5 445.08,-187.5 614.08,-187.5 614.08,-168.5 445.08,-168.5"/>
<text text-anchor="middle" x="529.58" y="-175.5" font-family="Helvetica,sans-Serif" font-size="10.00">src/user_interface/top_viewer.h</text>
</a>
</g>
</g>
<!-- Node8&#45;&gt;Node13 -->
<g id="edge17" class="edge">
<title>Node8&#45;&gt;Node13</title>
<path fill="none" stroke="midnightblue" d="M489.91,-217.25C499.84,-207.67 512.17,-195.79 520.42,-187.83"/>
<polygon fill="midnightblue" stroke="midnightblue" points="487.34,-214.86 482.58,-224.32 492.2,-219.9 487.34,-214.86"/>
</g>
<!-- Node15 -->
<g id="node15" class="node">
<title>Node15</title>
<g id="a_node15"><a xlink:href="ui_8cpp.html" target="_top" xlink:title=" ">
<polygon fill="white" stroke="black" points="872.58,-168.5 872.58,-187.5 1008.58,-187.5 1008.58,-168.5 872.58,-168.5"/>
<text text-anchor="middle" x="940.58" y="-175.5" font-family="Helvetica,sans-Serif" font-size="10.00">src/user_interface/ui.cpp</text>
</a>
</g>
</g>
<!-- Node8&#45;&gt;Node15 -->
<g id="edge20" class="edge">
<title>Node8&#45;&gt;Node15</title>
<path fill="none" stroke="midnightblue" d="M546.6,-224.56C635.84,-214.24 785.64,-196.92 872.55,-186.87"/>
<polygon fill="midnightblue" stroke="midnightblue" points="546.09,-221.09 536.56,-225.72 546.9,-228.05 546.09,-221.09"/>
</g>
<!-- Node8&#45;&gt;Node16 -->
<g id="edge22" class="edge">
<title>Node8&#45;&gt;Node16</title>
<path fill="none" stroke="midnightblue" d="M546.75,-231.21C619.1,-227.7 732.2,-217.48 825.58,-188 843.78,-182.25 846.32,-176.15 863.58,-168 892.55,-154.31 926.81,-140.27 948.61,-131.59"/>
<polygon fill="midnightblue" stroke="midnightblue" points="546.21,-227.73 536.38,-231.68 546.52,-234.73 546.21,-227.73"/>
</g>
<!-- Node9&#45;&gt;Node5 -->
<g id="edge13" class="edge">
<title>Node9&#45;&gt;Node5</title>
<path fill="none" stroke="midnightblue" d="M670.13,-166.54C617.03,-156.33 537.24,-141 487.9,-131.52"/>
<polygon fill="midnightblue" stroke="midnightblue" points="669.57,-169.99 680.05,-168.44 670.89,-163.12 669.57,-169.99"/>
</g>
<!-- Node10 -->
<g id="node10" class="node">
<title>Node10</title>
<g id="a_node10"><a xlink:href="image__viewer_8cpp.html" target="_top" xlink:title=" ">
<polygon fill="white" stroke="black" points="717.08,-112.5 717.08,-131.5 912.08,-131.5 912.08,-112.5 717.08,-112.5"/>
<text text-anchor="middle" x="814.58" y="-119.5" font-family="Helvetica,sans-Serif" font-size="10.00">src/user_interface/image_viewer.cpp</text>
</a>
</g>
</g>
<!-- Node9&#45;&gt;Node10 -->
<g id="edge12" class="edge">
<title>Node9&#45;&gt;Node10</title>
<path fill="none" stroke="midnightblue" d="M747.62,-163.18C764.18,-153.24 786,-140.15 800.15,-131.65"/>
<polygon fill="midnightblue" stroke="midnightblue" points="745.81,-160.18 739.04,-168.32 749.41,-166.18 745.81,-160.18"/>
</g>
<!-- Node11&#45;&gt;Node5 -->
<g id="edge16" class="edge">
<title>Node11&#45;&gt;Node5</title>
<path fill="none" stroke="midnightblue" d="M342.9,-164.5C367.45,-154.38 401.4,-140.39 422.92,-131.52"/>
<polygon fill="midnightblue" stroke="midnightblue" points="341.25,-161.4 333.34,-168.44 343.91,-167.87 341.25,-161.4"/>
</g>
<!-- Node12 -->
<g id="node12" class="node">
<title>Node12</title>
<g id="a_node12"><a xlink:href="selector_8cpp.html" target="_top" xlink:title=" ">
<polygon fill="white" stroke="black" points="204.08,-112.5 204.08,-131.5 369.08,-131.5 369.08,-112.5 204.08,-112.5"/>
<text text-anchor="middle" x="286.58" y="-119.5" font-family="Helvetica,sans-Serif" font-size="10.00">src/user_interface/selector.cpp</text>
</a>
</g>
</g>
<!-- Node11&#45;&gt;Node12 -->
<g id="edge15" class="edge">
<title>Node11&#45;&gt;Node12</title>
<path fill="none" stroke="midnightblue" d="M303.9,-158.98C299.49,-149.82 294.33,-139.09 290.79,-131.75"/>
<polygon fill="midnightblue" stroke="midnightblue" points="300.79,-160.59 308.28,-168.08 307.1,-157.55 300.79,-160.59"/>
</g>
<!-- Node13&#45;&gt;Node5 -->
<g id="edge19" class="edge">
<title>Node13&#45;&gt;Node5</title>
<path fill="none" stroke="midnightblue" d="M507.12,-162.9C491.35,-153 470.76,-140.07 457.36,-131.65"/>
<polygon fill="midnightblue" stroke="midnightblue" points="505.43,-165.97 515.76,-168.32 509.15,-160.04 505.43,-165.97"/>
</g>
<!-- Node14 -->
<g id="node14" class="node">
<title>Node14</title>
<g id="a_node14"><a xlink:href="top__viewer_8cpp.html" target="_top" xlink:title=" ">
<polygon fill="white" stroke="black" points="518.58,-112.5 518.58,-131.5 698.58,-131.5 698.58,-112.5 518.58,-112.5"/>
<text text-anchor="middle" x="608.58" y="-119.5" font-family="Helvetica,sans-Serif" font-size="10.00">src/user_interface/top_viewer.cpp</text>
</a>
</g>
</g>
<!-- Node13&#45;&gt;Node14 -->
<g id="edge18" class="edge">
<title>Node13&#45;&gt;Node14</title>
<path fill="none" stroke="midnightblue" d="M550.61,-162.62C565.04,-152.76 583.72,-139.99 595.92,-131.65"/>
<polygon fill="midnightblue" stroke="midnightblue" points="548.55,-159.79 542.27,-168.32 552.5,-165.57 548.55,-159.79"/>
</g>
<!-- Node16&#45;&gt;Node2 -->
<g id="edge23" class="edge">
<title>Node16&#45;&gt;Node2</title>
<path fill="none" stroke="midnightblue" d="M920.47,-111.93C780.73,-91.7 627.29,-77.04 555.11,-70.59"/>
<polygon fill="midnightblue" stroke="midnightblue" points="920.1,-115.42 930.51,-113.4 921.12,-108.49 920.1,-115.42"/>
</g>
<!-- Node16&#45;&gt;Node6 -->
<g id="edge24" class="edge">
<title>Node16&#45;&gt;Node6</title>
<path fill="none" stroke="midnightblue" d="M937.59,-108.86C876.64,-86.44 747.77,-39.03 694.93,-19.59"/>
<polygon fill="midnightblue" stroke="midnightblue" points="936.52,-112.2 947.12,-112.37 938.94,-105.63 936.52,-112.2"/>
</g>
<!-- Node16&#45;&gt;Node7 -->
<g id="edge25" class="edge">
<title>Node16&#45;&gt;Node7</title>
<path fill="none" stroke="midnightblue" d="M920.25,-111.76C844.35,-97.97 767.68,-84.21 719.51,-75.58"/>
<polygon fill="midnightblue" stroke="midnightblue" points="920,-115.28 930.47,-113.62 921.26,-108.39 920,-115.28"/>
</g>
<!-- Node17 -->
<g id="node17" class="node">
<title>Node17</title>
<g id="a_node17"><a xlink:href="window_8cpp.html" target="_top" xlink:title=" ">
<polygon fill="white" stroke="black" points="925.08,-56.5 925.08,-75.5 1016.08,-75.5 1016.08,-56.5 925.08,-56.5"/>
<text text-anchor="middle" x="970.58" y="-63.5" font-family="Helvetica,sans-Serif" font-size="10.00">src/window.cpp</text>
</a>
</g>
</g>
<!-- Node16&#45;&gt;Node17 -->
<g id="edge26" class="edge">
<title>Node16&#45;&gt;Node17</title>
<path fill="none" stroke="midnightblue" d="M970.58,-101.8C970.58,-92.91 970.58,-82.78 970.58,-75.75"/>
<polygon fill="midnightblue" stroke="midnightblue" points="967.08,-102.08 970.58,-112.08 974.08,-102.08 967.08,-102.08"/>
</g>
</g>
</svg>
