<?xml version="1.0" encoding="UTF-8" standalone="no"?>
<!DOCTYPE svg PUBLIC "-//W3C//DTD SVG 1.1//EN"
 "http://www.w3.org/Graphics/SVG/1.1/DTD/svg11.dtd">
<!-- Generated by graphviz version 2.43.0 (0)
 -->
<!-- Title: src/utils/callback.h Pages: 1 -->
<svg width="891pt" height="252pt"
 viewBox="0.00 0.00 890.50 252.00" xmlns="http://www.w3.org/2000/svg" xmlns:xlink="http://www.w3.org/1999/xlink">
<g id="graph0" class="graph" transform="scale(1 1) rotate(0) translate(4 248)">
<title>src/utils/callback.h</title>
<polygon fill="white" stroke="transparent" points="-4,4 -4,-248 886.5,-248 886.5,4 -4,4"/>
<!-- Node1 -->
<g id="node1" class="node">
<title>Node1</title>
<g id="a_node1"><a xlink:title=" ">
<polygon fill="#bfbfbf" stroke="black" points="621.5,-224.5 621.5,-243.5 728.5,-243.5 728.5,-224.5 621.5,-224.5"/>
<text text-anchor="middle" x="675" y="-231.5" font-family="Helvetica,sans-Serif" font-size="10.00">src/utils/callback.h</text>
</a>
</g>
</g>
<!-- Node2 -->
<g id="node2" class="node">
<title>Node2</title>
<g id="a_node2"><a xlink:href="app_2main_8cpp.html" target="_top" xlink:title=" ">
<polygon fill="white" stroke="black" points="799.5,-0.5 799.5,-19.5 882.5,-19.5 882.5,-0.5 799.5,-0.5"/>
<text text-anchor="middle" x="841" y="-7.5" font-family="Helvetica,sans-Serif" font-size="10.00">app/main.cpp</text>
</a>
</g>
</g>
<!-- Node1&#45;&gt;Node2 -->
<g id="edge1" class="edge">
<title>Node1&#45;&gt;Node2</title>
<path fill="none" stroke="midnightblue" d="M727.4,-221.77C773.69,-208.77 838.44,-182.36 869,-132 891.71,-94.58 860.8,-40.42 847.02,-19.6"/>
<polygon fill="midnightblue" stroke="midnightblue" points="726.28,-218.44 717.53,-224.42 728.1,-225.21 726.28,-218.44"/>
</g>
<!-- Node3 -->
<g id="node3" class="node">
<title>Node3</title>
<g id="a_node3"><a xlink:href="button_8h.html" target="_top" xlink:title=" ">
<polygon fill="white" stroke="black" points="48.5,-112.5 48.5,-131.5 195.5,-131.5 195.5,-112.5 48.5,-112.5"/>
<text text-anchor="middle" x="122" y="-119.5" font-family="Helvetica,sans-Serif" font-size="10.00">src/user_interface/button.h</text>
</a>
</g>
</g>
<!-- Node1&#45;&gt;Node3 -->
<g id="edge2" class="edge">
<title>Node1&#45;&gt;Node3</title>
<path fill="none" stroke="midnightblue" d="M621.94,-222.45C512.76,-200.73 264.81,-151.41 164.91,-131.53"/>
<polygon fill="midnightblue" stroke="midnightblue" points="621.58,-225.94 632.07,-224.46 622.94,-219.08 621.58,-225.94"/>
</g>
<!-- Node6 -->
<g id="node6" class="node">
<title>Node6</title>
<g id="a_node6"><a xlink:href="ui_8h.html" target="_top" xlink:title=" ">
<polygon fill="white" stroke="black" points="468.5,-168.5 468.5,-187.5 593.5,-187.5 593.5,-168.5 468.5,-168.5"/>
<text text-anchor="middle" x="531" y="-175.5" font-family="Helvetica,sans-Serif" font-size="10.00">src/user_interface/ui.h</text>
</a>
</g>
</g>
<!-- Node1&#45;&gt;Node6 -->
<g id="edge6" class="edge">
<title>Node1&#45;&gt;Node6</title>
<path fill="none" stroke="midnightblue" d="M642.75,-220.91C615.68,-210.75 577.68,-196.51 553.71,-187.52"/>
<polygon fill="midnightblue" stroke="midnightblue" points="641.59,-224.21 652.18,-224.44 644.05,-217.66 641.59,-224.21"/>
</g>
<!-- Node12 -->
<g id="node12" class="node">
<title>Node12</title>
<g id="a_node12"><a xlink:href="window_8h.html" target="_top" xlink:title=" ">
<polygon fill="white" stroke="black" points="780,-112.5 780,-131.5 860,-131.5 860,-112.5 780,-112.5"/>
<text text-anchor="middle" x="820" y="-119.5" font-family="Helvetica,sans-Serif" font-size="10.00">src/window.h</text>
</a>
</g>
</g>
<!-- Node1&#45;&gt;Node12 -->
<g id="edge19" class="edge">
<title>Node1&#45;&gt;Node12</title>
<path fill="none" stroke="midnightblue" d="M694.62,-218.12C725.4,-194.77 784.05,-150.27 808.67,-131.59"/>
<polygon fill="midnightblue" stroke="midnightblue" points="692.23,-215.54 686.38,-224.37 696.46,-221.11 692.23,-215.54"/>
</g>
<!-- Node4 -->
<g id="node4" class="node">
<title>Node4</title>
<g id="a_node4"><a xlink:href="button_8cpp.html" target="_top" xlink:title=" ">
<polygon fill="white" stroke="black" points="0,-56.5 0,-75.5 158,-75.5 158,-56.5 0,-56.5"/>
<text text-anchor="middle" x="79" y="-63.5" font-family="Helvetica,sans-Serif" font-size="10.00">src/user_interface/button.cpp</text>
</a>
</g>
</g>
<!-- Node3&#45;&gt;Node4 -->
<g id="edge3" class="edge">
<title>Node3&#45;&gt;Node4</title>
<path fill="none" stroke="midnightblue" d="M108.58,-104.14C101.09,-94.74 92.06,-83.4 85.97,-75.75"/>
<polygon fill="midnightblue" stroke="midnightblue" points="105.93,-106.44 114.9,-112.08 111.41,-102.08 105.93,-106.44"/>
</g>
<!-- Node5 -->
<g id="node5" class="node">
<title>Node5</title>
<g id="a_node5"><a xlink:href="user__interface_8h.html" target="_top" xlink:title=" ">
<polygon fill="white" stroke="black" points="176.5,-56.5 176.5,-75.5 289.5,-75.5 289.5,-56.5 176.5,-56.5"/>
<text text-anchor="middle" x="233" y="-63.5" font-family="Helvetica,sans-Serif" font-size="10.00">src/user_interface.h</text>
</a>
</g>
</g>
<!-- Node3&#45;&gt;Node5 -->
<g id="edge4" class="edge">
<title>Node3&#45;&gt;Node5</title>
<path fill="none" stroke="midnightblue" d="M149.01,-107.86C169.59,-97.85 197.34,-84.35 215.21,-75.65"/>
<polygon fill="midnightblue" stroke="midnightblue" points="147.3,-104.8 139.83,-112.32 150.36,-111.1 147.3,-104.8"/>
</g>
<!-- Node5&#45;&gt;Node2 -->
<g id="edge5" class="edge">
<title>Node5&#45;&gt;Node2</title>
<path fill="none" stroke="midnightblue" d="M299.72,-55.86C492.24,-34.83 709.86,-19.57 799.37,-13.67"/>
<polygon fill="midnightblue" stroke="midnightblue" points="299.25,-52.39 289.7,-56.96 300.02,-59.35 299.25,-52.39"/>
</g>
<!-- Node6&#45;&gt;Node3 -->
<g id="edge7" class="edge">
<title>Node6&#45;&gt;Node3</title>
<path fill="none" stroke="midnightblue" d="M458.32,-167.4C381.19,-157.22 260.48,-141.28 186.58,-131.53"/>
<polygon fill="midnightblue" stroke="midnightblue" points="458.06,-170.9 468.44,-168.74 458.98,-163.96 458.06,-170.9"/>
</g>
<!-- Node6&#45;&gt;Node5 -->
<g id="edge15" class="edge">
<title>Node6&#45;&gt;Node5</title>
<path fill="none" stroke="midnightblue" d="M457.88,-175.14C382.63,-171.62 272.36,-161.43 243,-132 228,-116.97 229.52,-89.47 231.47,-75.55"/>
<polygon fill="midnightblue" stroke="midnightblue" points="458.11,-178.66 468.25,-175.6 458.42,-171.66 458.11,-178.66"/>
</g>
<!-- Node7 -->
<g id="node7" class="node">
<title>Node7</title>
<g id="a_node7"><a xlink:href="image__viewer_8h.html" target="_top" xlink:title=" ">
<polygon fill="white" stroke="black" points="252,-112.5 252,-131.5 436,-131.5 436,-112.5 252,-112.5"/>
<text text-anchor="middle" x="344" y="-119.5" font-family="Helvetica,sans-Serif" font-size="10.00">src/user_interface/image_viewer.h</text>
</a>
</g>
</g>
<!-- Node6&#45;&gt;Node7 -->
<g id="edge8" class="edge">
<title>Node6&#45;&gt;Node7</title>
<path fill="none" stroke="midnightblue" d="M491.41,-165.57C456.13,-155.38 405.31,-140.7 373.49,-131.52"/>
<polygon fill="midnightblue" stroke="midnightblue" points="490.79,-169.03 501.37,-168.44 492.73,-162.31 490.79,-169.03"/>
</g>
<!-- Node9 -->
<g id="node9" class="node">
<title>Node9</title>
<g id="a_node9"><a xlink:href="selector_8h.html" target="_top" xlink:title=" ">
<polygon fill="white" stroke="black" points="454,-112.5 454,-131.5 608,-131.5 608,-112.5 454,-112.5"/>
<text text-anchor="middle" x="531" y="-119.5" font-family="Helvetica,sans-Serif" font-size="10.00">src/user_interface/selector.h</text>
</a>
</g>
</g>
<!-- Node6&#45;&gt;Node9 -->
<g id="edge11" class="edge">
<title>Node6&#45;&gt;Node9</title>
<path fill="none" stroke="midnightblue" d="M531,-157.8C531,-148.91 531,-138.78 531,-131.75"/>
<polygon fill="midnightblue" stroke="midnightblue" points="527.5,-158.08 531,-168.08 534.5,-158.08 527.5,-158.08"/>
</g>
<!-- Node11 -->
<g id="node11" class="node">
<title>Node11</title>
<g id="a_node11"><a xlink:href="ui_8cpp.html" target="_top" xlink:title=" ">
<polygon fill="white" stroke="black" points="626,-112.5 626,-131.5 762,-131.5 762,-112.5 626,-112.5"/>
<text text-anchor="middle" x="694" y="-119.5" font-family="Helvetica,sans-Serif" font-size="10.00">src/user_interface/ui.cpp</text>
</a>
</g>
</g>
<!-- Node6&#45;&gt;Node11 -->
<g id="edge14" class="edge">
<title>Node6&#45;&gt;Node11</title>
<path fill="none" stroke="midnightblue" d="M566.7,-165.17C597.4,-155 640.92,-140.59 668.29,-131.52"/>
<polygon fill="midnightblue" stroke="midnightblue" points="565.22,-161.98 556.83,-168.44 567.42,-168.62 565.22,-161.98"/>
</g>
<!-- Node6&#45;&gt;Node12 -->
<g id="edge16" class="edge">
<title>Node6&#45;&gt;Node12</title>
<path fill="none" stroke="midnightblue" d="M586.63,-166.6C643.13,-156.05 729.25,-139.96 779.55,-130.56"/>
<polygon fill="midnightblue" stroke="midnightblue" points="585.98,-163.17 576.79,-168.44 587.27,-170.05 585.98,-163.17"/>
</g>
<!-- Node7&#45;&gt;Node5 -->
<g id="edge10" class="edge">
<title>Node7&#45;&gt;Node5</title>
<path fill="none" stroke="midnightblue" d="M316.99,-107.86C296.41,-97.85 268.66,-84.35 250.79,-75.65"/>
<polygon fill="midnightblue" stroke="midnightblue" points="315.64,-111.1 326.17,-112.32 318.7,-104.8 315.64,-111.1"/>
</g>
<!-- Node8 -->
<g id="node8" class="node">
<title>Node8</title>
<g id="a_node8"><a xlink:href="image__viewer_8cpp.html" target="_top" xlink:title=" ">
<polygon fill="white" stroke="black" points="307.5,-56.5 307.5,-75.5 502.5,-75.5 502.5,-56.5 307.5,-56.5"/>
<text text-anchor="middle" x="405" y="-63.5" font-family="Helvetica,sans-Serif" font-size="10.00">src/user_interface/image_viewer.cpp</text>
</a>
</g>
</g>
<!-- Node7&#45;&gt;Node8 -->
<g id="edge9" class="edge">
<title>Node7&#45;&gt;Node8</title>
<path fill="none" stroke="midnightblue" d="M361.47,-105.54C372.34,-95.91 385.94,-83.87 395.02,-75.83"/>
<polygon fill="midnightblue" stroke="midnightblue" points="358.97,-103.07 353.8,-112.32 363.61,-108.32 358.97,-103.07"/>
</g>
<!-- Node9&#45;&gt;Node5 -->
<g id="edge13" class="edge">
<title>Node9&#45;&gt;Node5</title>
<path fill="none" stroke="midnightblue" d="M473.61,-110.6C417.29,-100.4 332.44,-85.02 280,-75.52"/>
<polygon fill="midnightblue" stroke="midnightblue" points="473.32,-114.1 483.78,-112.44 474.57,-107.22 473.32,-114.1"/>
</g>
<!-- Node10 -->
<g id="node10" class="node">
<title>Node10</title>
<g id="a_node10"><a xlink:href="selector_8cpp.html" target="_top" xlink:title=" ">
<polygon fill="white" stroke="black" points="520.5,-56.5 520.5,-75.5 685.5,-75.5 685.5,-56.5 520.5,-56.5"/>
<text text-anchor="middle" x="603" y="-63.5" font-family="Helvetica,sans-Serif" font-size="10.00">src/user_interface/selector.cpp</text>
</a>
</g>
</g>
<!-- Node9&#45;&gt;Node10 -->
<g id="edge12" class="edge">
<title>Node9&#45;&gt;Node10</title>
<path fill="none" stroke="midnightblue" d="M550.87,-106.1C563.82,-96.38 580.3,-84.03 591.22,-75.83"/>
<polygon fill="midnightblue" stroke="midnightblue" points="548.47,-103.52 542.57,-112.32 552.67,-109.12 548.47,-103.52"/>
</g>
<!-- Node12&#45;&gt;Node2 -->
<g id="edge17" class="edge">
<title>Node12&#45;&gt;Node2</title>
<path fill="none" stroke="midnightblue" d="M823.56,-102.35C828.16,-78.25 835.98,-37.31 839.36,-19.59"/>
<polygon fill="midnightblue" stroke="midnightblue" points="820.09,-101.89 821.65,-112.37 826.96,-103.2 820.09,-101.89"/>
</g>
<!-- Node13 -->
<g id="node13" class="node">
<title>Node13</title>
<g id="a_node13"><a xlink:href="window_8cpp.html" target="_top" xlink:title=" ">
<polygon fill="white" stroke="black" points="721.5,-56.5 721.5,-75.5 812.5,-75.5 812.5,-56.5 721.5,-56.5"/>
<text text-anchor="middle" x="767" y="-63.5" font-family="Helvetica,sans-Serif" font-size="10.00">src/window.cpp</text>
</a>
</g>
</g>
<!-- Node12&#45;&gt;Node13 -->
<g id="edge18" class="edge">
<title>Node12&#45;&gt;Node13</title>
<path fill="none" stroke="midnightblue" d="M804.02,-104.72C794.68,-95.2 783.25,-83.56 775.59,-75.75"/>
<polygon fill="midnightblue" stroke="midnightblue" points="801.75,-107.4 811.25,-112.08 806.74,-102.49 801.75,-107.4"/>
</g>
</g>
</svg>
