<?xml version="1.0" encoding="UTF-8" standalone="no"?>
<!DOCTYPE svg PUBLIC "-//W3C//DTD SVG 1.1//EN"
 "http://www.w3.org/Graphics/SVG/1.1/DTD/svg11.dtd">
<!-- Generated by graphviz version 2.43.0 (0)
 -->
<!-- Title: src/utils/callback.h Pages: 1 -->
<svg width="1075pt" height="252pt"
 viewBox="0.00 0.00 1075.12 252.00" xmlns="http://www.w3.org/2000/svg" xmlns:xlink="http://www.w3.org/1999/xlink">
<g id="graph0" class="graph" transform="scale(1 1) rotate(0) translate(4 248)">
<title>src/utils/callback.h</title>
<polygon fill="white" stroke="transparent" points="-4,4 -4,-248 1071.12,-248 1071.12,4 -4,4"/>
<!-- Node1 -->
<g id="node1" class="node">
<title>Node1</title>
<g id="a_node1"><a xlink:title=" ">
<polygon fill="#bfbfbf" stroke="black" points="248.12,-224.5 248.12,-243.5 355.12,-243.5 355.12,-224.5 248.12,-224.5"/>
<text text-anchor="middle" x="301.62" y="-231.5" font-family="Helvetica,sans-Serif" font-size="10.00">src/utils/callback.h</text>
</a>
</g>
</g>
<!-- Node2 -->
<g id="node2" class="node">
<title>Node2</title>
<g id="a_node2"><a xlink:href="app_2main_8cpp.html" target="_top" xlink:title=" ">
<polygon fill="white" stroke="black" points="204.12,-0.5 204.12,-19.5 287.12,-19.5 287.12,-0.5 204.12,-0.5"/>
<text text-anchor="middle" x="245.62" y="-7.5" font-family="Helvetica,sans-Serif" font-size="10.00">app/main.cpp</text>
</a>
</g>
</g>
<!-- Node1&#45;&gt;Node2 -->
<g id="edge1" class="edge">
<title>Node1&#45;&gt;Node2</title>
<path fill="none" stroke="midnightblue" d="M237.89,-223.8C161.4,-208.67 39,-170.17 3.62,-76 0.5,-67.68 -2.06,-62.84 3.62,-56 28.62,-25.93 141.54,-15.86 203.91,-12.56"/>
<polygon fill="midnightblue" stroke="midnightblue" points="237.42,-227.27 247.9,-225.7 238.73,-220.4 237.42,-227.27"/>
</g>
<!-- Node3 -->
<g id="node3" class="node">
<title>Node3</title>
<g id="a_node3"><a xlink:href="button_8h.html" target="_top" xlink:title=" ">
<polygon fill="white" stroke="black" points="62.12,-112.5 62.12,-131.5 209.12,-131.5 209.12,-112.5 62.12,-112.5"/>
<text text-anchor="middle" x="135.62" y="-119.5" font-family="Helvetica,sans-Serif" font-size="10.00">src/user_interface/button.h</text>
</a>
</g>
</g>
<!-- Node1&#45;&gt;Node3 -->
<g id="edge2" class="edge">
<title>Node1&#45;&gt;Node3</title>
<path fill="none" stroke="midnightblue" d="M280.06,-218.71C245.08,-195.53 177.02,-150.43 148.59,-131.59"/>
<polygon fill="midnightblue" stroke="midnightblue" points="278.33,-221.76 288.6,-224.37 282.19,-215.93 278.33,-221.76"/>
</g>
<!-- Node6 -->
<g id="node6" class="node">
<title>Node6</title>
<g id="a_node6"><a xlink:href="ui_8h.html" target="_top" xlink:title=" ">
<polygon fill="white" stroke="black" points="388.12,-168.5 388.12,-187.5 513.12,-187.5 513.12,-168.5 388.12,-168.5"/>
<text text-anchor="middle" x="450.62" y="-175.5" font-family="Helvetica,sans-Serif" font-size="10.00">src/user_interface/ui.h</text>
</a>
</g>
</g>
<!-- Node1&#45;&gt;Node6 -->
<g id="edge6" class="edge">
<title>Node1&#45;&gt;Node6</title>
<path fill="none" stroke="midnightblue" d="M334.99,-220.91C363.01,-210.75 402.32,-196.51 427.12,-187.52"/>
<polygon fill="midnightblue" stroke="midnightblue" points="333.44,-217.75 325.23,-224.44 335.83,-224.33 333.44,-217.75"/>
</g>
<!-- Node14 -->
<g id="node14" class="node">
<title>Node14</title>
<g id="a_node14"><a xlink:href="window_8h.html" target="_top" xlink:title=" ">
<polygon fill="white" stroke="black" points="981.62,-112.5 981.62,-131.5 1061.62,-131.5 1061.62,-112.5 981.62,-112.5"/>
<text text-anchor="middle" x="1021.62" y="-119.5" font-family="Helvetica,sans-Serif" font-size="10.00">src/window.h</text>
</a>
</g>
</g>
<!-- Node1&#45;&gt;Node14 -->
<g id="edge21" class="edge">
<title>Node1&#45;&gt;Node14</title>
<path fill="none" stroke="midnightblue" d="M365.26,-224.12C484.57,-207.31 749.92,-169.2 972.62,-132 975.52,-131.52 978.52,-131 981.53,-130.47"/>
<polygon fill="midnightblue" stroke="midnightblue" points="364.62,-220.67 355.21,-225.53 365.6,-227.61 364.62,-220.67"/>
</g>
<!-- Node4 -->
<g id="node4" class="node">
<title>Node4</title>
<g id="a_node4"><a xlink:href="button_8cpp.html" target="_top" xlink:title=" ">
<polygon fill="white" stroke="black" points="12.62,-56.5 12.62,-75.5 170.62,-75.5 170.62,-56.5 12.62,-56.5"/>
<text text-anchor="middle" x="91.62" y="-63.5" font-family="Helvetica,sans-Serif" font-size="10.00">src/user_interface/button.cpp</text>
</a>
</g>
</g>
<!-- Node3&#45;&gt;Node4 -->
<g id="edge3" class="edge">
<title>Node3&#45;&gt;Node4</title>
<path fill="none" stroke="midnightblue" d="M121.89,-104.14C114.22,-94.74 104.99,-83.4 98.75,-75.75"/>
<polygon fill="midnightblue" stroke="midnightblue" points="119.33,-106.54 128.36,-112.08 124.75,-102.12 119.33,-106.54"/>
</g>
<!-- Node5 -->
<g id="node5" class="node">
<title>Node5</title>
<g id="a_node5"><a xlink:href="user__interface_8h.html" target="_top" xlink:title=" ">
<polygon fill="white" stroke="black" points="189.12,-56.5 189.12,-75.5 302.12,-75.5 302.12,-56.5 189.12,-56.5"/>
<text text-anchor="middle" x="245.62" y="-63.5" font-family="Helvetica,sans-Serif" font-size="10.00">src/user_interface.h</text>
</a>
</g>
</g>
<!-- Node3&#45;&gt;Node5 -->
<g id="edge4" class="edge">
<title>Node3&#45;&gt;Node5</title>
<path fill="none" stroke="midnightblue" d="M162.38,-107.86C182.78,-97.85 210.29,-84.35 227.99,-75.65"/>
<polygon fill="midnightblue" stroke="midnightblue" points="160.73,-104.78 153.3,-112.32 163.82,-111.06 160.73,-104.78"/>
</g>
<!-- Node5&#45;&gt;Node2 -->
<g id="edge5" class="edge">
<title>Node5&#45;&gt;Node2</title>
<path fill="none" stroke="midnightblue" d="M245.62,-45.8C245.62,-36.91 245.62,-26.78 245.62,-19.75"/>
<polygon fill="midnightblue" stroke="midnightblue" points="242.12,-46.08 245.62,-56.08 249.12,-46.08 242.12,-46.08"/>
</g>
<!-- Node6&#45;&gt;Node3 -->
<g id="edge7" class="edge">
<title>Node6&#45;&gt;Node3</title>
<path fill="none" stroke="midnightblue" d="M390.7,-166.73C331.17,-156.52 240.96,-141.06 185.3,-131.52"/>
<polygon fill="midnightblue" stroke="midnightblue" points="390.26,-170.2 400.71,-168.44 391.45,-163.3 390.26,-170.2"/>
</g>
<!-- Node6&#45;&gt;Node5 -->
<g id="edge17" class="edge">
<title>Node6&#45;&gt;Node5</title>
<path fill="none" stroke="midnightblue" d="M377.96,-168.59C330.09,-161.51 273.27,-149.69 256.62,-132 242.19,-116.67 242.82,-89.8 244.32,-75.89"/>
<polygon fill="midnightblue" stroke="midnightblue" points="377.63,-172.07 388.02,-170.02 378.62,-165.14 377.63,-172.07"/>
</g>
<!-- Node7 -->
<g id="node7" class="node">
<title>Node7</title>
<g id="a_node7"><a xlink:href="image__viewer_8h.html" target="_top" xlink:title=" ">
<polygon fill="white" stroke="black" points="265.62,-112.5 265.62,-131.5 449.62,-131.5 449.62,-112.5 265.62,-112.5"/>
<text text-anchor="middle" x="357.62" y="-119.5" font-family="Helvetica,sans-Serif" font-size="10.00">src/user_interface/image_viewer.h</text>
</a>
</g>
</g>
<!-- Node6&#45;&gt;Node7 -->
<g id="edge8" class="edge">
<title>Node6&#45;&gt;Node7</title>
<path fill="none" stroke="midnightblue" d="M426.82,-163.18C409.7,-153.24 387.16,-140.15 372.53,-131.65"/>
<polygon fill="midnightblue" stroke="midnightblue" points="425.28,-166.33 435.68,-168.32 428.79,-160.28 425.28,-166.33"/>
</g>
<!-- Node9 -->
<g id="node9" class="node">
<title>Node9</title>
<g id="a_node9"><a xlink:href="selector_8h.html" target="_top" xlink:title=" ">
<polygon fill="white" stroke="black" points="467.62,-112.5 467.62,-131.5 621.62,-131.5 621.62,-112.5 467.62,-112.5"/>
<text text-anchor="middle" x="544.62" y="-119.5" font-family="Helvetica,sans-Serif" font-size="10.00">src/user_interface/selector.h</text>
</a>
</g>
</g>
<!-- Node6&#45;&gt;Node9 -->
<g id="edge11" class="edge">
<title>Node6&#45;&gt;Node9</title>
<path fill="none" stroke="midnightblue" d="M474.68,-163.18C491.98,-153.24 514.77,-140.15 529.56,-131.65"/>
<polygon fill="midnightblue" stroke="midnightblue" points="472.65,-160.31 465.73,-168.32 476.14,-166.38 472.65,-160.31"/>
</g>
<!-- Node11 -->
<g id="node11" class="node">
<title>Node11</title>
<g id="a_node11"><a xlink:href="top__viewer_8h.html" target="_top" xlink:title=" ">
<polygon fill="white" stroke="black" points="640.12,-112.5 640.12,-131.5 809.12,-131.5 809.12,-112.5 640.12,-112.5"/>
<text text-anchor="middle" x="724.62" y="-119.5" font-family="Helvetica,sans-Serif" font-size="10.00">src/user_interface/top_viewer.h</text>
</a>
</g>
</g>
<!-- Node6&#45;&gt;Node11 -->
<g id="edge14" class="edge">
<title>Node6&#45;&gt;Node11</title>
<path fill="none" stroke="midnightblue" d="M504.04,-166.47C555.82,-156.27 633.39,-140.98 681.41,-131.52"/>
<polygon fill="midnightblue" stroke="midnightblue" points="503.17,-163.08 494.04,-168.44 504.53,-169.94 503.17,-163.08"/>
</g>
<!-- Node13 -->
<g id="node13" class="node">
<title>Node13</title>
<g id="a_node13"><a xlink:href="ui_8cpp.html" target="_top" xlink:title=" ">
<polygon fill="white" stroke="black" points="827.62,-112.5 827.62,-131.5 963.62,-131.5 963.62,-112.5 827.62,-112.5"/>
<text text-anchor="middle" x="895.62" y="-119.5" font-family="Helvetica,sans-Serif" font-size="10.00">src/user_interface/ui.cpp</text>
</a>
</g>
</g>
<!-- Node6&#45;&gt;Node13 -->
<g id="edge16" class="edge">
<title>Node6&#45;&gt;Node13</title>
<path fill="none" stroke="midnightblue" d="M523.43,-168.17C607.6,-157.95 745.07,-141.27 827.29,-131.29"/>
<polygon fill="midnightblue" stroke="midnightblue" points="522.94,-164.7 513.44,-169.38 523.79,-171.65 522.94,-164.7"/>
</g>
<!-- Node6&#45;&gt;Node14 -->
<g id="edge18" class="edge">
<title>Node6&#45;&gt;Node14</title>
<path fill="none" stroke="midnightblue" d="M523.62,-172.92C624.77,-166.76 813.13,-153.47 972.62,-132 975.54,-131.61 978.54,-131.16 981.56,-130.68"/>
<polygon fill="midnightblue" stroke="midnightblue" points="523.28,-169.43 513.51,-173.53 523.7,-176.42 523.28,-169.43"/>
</g>
<!-- Node7&#45;&gt;Node5 -->
<g id="edge10" class="edge">
<title>Node7&#45;&gt;Node5</title>
<path fill="none" stroke="midnightblue" d="M330.37,-107.86C309.61,-97.85 281.6,-84.35 263.57,-75.65"/>
<polygon fill="midnightblue" stroke="midnightblue" points="329.1,-111.13 339.63,-112.32 332.14,-104.83 329.1,-111.13"/>
</g>
<!-- Node8 -->
<g id="node8" class="node">
<title>Node8</title>
<g id="a_node8"><a xlink:href="image__viewer_8cpp.html" target="_top" xlink:title=" ">
<polygon fill="white" stroke="black" points="320.12,-56.5 320.12,-75.5 515.12,-75.5 515.12,-56.5 320.12,-56.5"/>
<text text-anchor="middle" x="417.62" y="-63.5" font-family="Helvetica,sans-Serif" font-size="10.00">src/user_interface/image_viewer.cpp</text>
</a>
</g>
</g>
<!-- Node7&#45;&gt;Node8 -->
<g id="edge9" class="edge">
<title>Node7&#45;&gt;Node8</title>
<path fill="none" stroke="midnightblue" d="M374.8,-105.54C385.5,-95.91 398.88,-83.87 407.81,-75.83"/>
<polygon fill="midnightblue" stroke="midnightblue" points="372.35,-103.03 367.26,-112.32 377.04,-108.24 372.35,-103.03"/>
</g>
<!-- Node9&#45;&gt;Node5 -->
<g id="edge13" class="edge">
<title>Node9&#45;&gt;Node5</title>
<path fill="none" stroke="midnightblue" d="M487.39,-110.66C430.89,-100.46 345.5,-85.04 292.78,-75.52"/>
<polygon fill="midnightblue" stroke="midnightblue" points="486.78,-114.11 497.25,-112.44 488.03,-107.22 486.78,-114.11"/>
</g>
<!-- Node10 -->
<g id="node10" class="node">
<title>Node10</title>
<g id="a_node10"><a xlink:href="selector_8cpp.html" target="_top" xlink:title=" ">
<polygon fill="white" stroke="black" points="533.12,-56.5 533.12,-75.5 698.12,-75.5 698.12,-56.5 533.12,-56.5"/>
<text text-anchor="middle" x="615.62" y="-63.5" font-family="Helvetica,sans-Serif" font-size="10.00">src/user_interface/selector.cpp</text>
</a>
</g>
</g>
<!-- Node9&#45;&gt;Node10 -->
<g id="edge12" class="edge">
<title>Node9&#45;&gt;Node10</title>
<path fill="none" stroke="midnightblue" d="M564.21,-106.1C576.99,-96.38 593.24,-84.03 604.01,-75.83"/>
<polygon fill="midnightblue" stroke="midnightblue" points="561.87,-103.48 556.03,-112.32 566.11,-109.06 561.87,-103.48"/>
</g>
<!-- Node12 -->
<g id="node12" class="node">
<title>Node12</title>
<g id="a_node12"><a xlink:href="top__viewer_8cpp.html" target="_top" xlink:title=" ">
<polygon fill="white" stroke="black" points="716.62,-56.5 716.62,-75.5 896.62,-75.5 896.62,-56.5 716.62,-56.5"/>
<text text-anchor="middle" x="806.62" y="-63.5" font-family="Helvetica,sans-Serif" font-size="10.00">src/user_interface/top_viewer.cpp</text>
</a>
</g>
</g>
<!-- Node11&#45;&gt;Node12 -->
<g id="edge15" class="edge">
<title>Node11&#45;&gt;Node12</title>
<path fill="none" stroke="midnightblue" d="M746.46,-106.62C761.44,-96.76 780.82,-83.99 793.48,-75.65"/>
<polygon fill="midnightblue" stroke="midnightblue" points="744.22,-103.9 737.8,-112.32 748.07,-109.75 744.22,-103.9"/>
</g>
<!-- Node14&#45;&gt;Node2 -->
<g id="edge19" class="edge">
<title>Node14&#45;&gt;Node2</title>
<path fill="none" stroke="midnightblue" d="M1002,-106.39C979.87,-90.8 942.18,-66.89 905.62,-56 789.08,-21.3 413.78,-13.22 287.52,-11.46"/>
<polygon fill="midnightblue" stroke="midnightblue" points="1000.06,-109.3 1010.22,-112.3 1004.15,-103.62 1000.06,-109.3"/>
</g>
<!-- Node15 -->
<g id="node15" class="node">
<title>Node15</title>
<g id="a_node15"><a xlink:href="window_8cpp.html" target="_top" xlink:title=" ">
<polygon fill="white" stroke="black" points="976.12,-56.5 976.12,-75.5 1067.12,-75.5 1067.12,-56.5 976.12,-56.5"/>
<text text-anchor="middle" x="1021.62" y="-63.5" font-family="Helvetica,sans-Serif" font-size="10.00">src/window.cpp</text>
</a>
</g>
</g>
<!-- Node14&#45;&gt;Node15 -->
<g id="edge20" class="edge">
<title>Node14&#45;&gt;Node15</title>
<path fill="none" stroke="midnightblue" d="M1021.62,-101.8C1021.62,-92.91 1021.62,-82.78 1021.62,-75.75"/>
<polygon fill="midnightblue" stroke="midnightblue" points="1018.12,-102.08 1021.62,-112.08 1025.12,-102.08 1018.12,-102.08"/>
</g>
</g>
</svg>
