<?xml version="1.0" encoding="UTF-8" standalone="no"?>
<!DOCTYPE svg PUBLIC "-//W3C//DTD SVG 1.1//EN"
 "http://www.w3.org/Graphics/SVG/1.1/DTD/svg11.dtd">
<!-- Generated by graphviz version 2.43.0 (0)
 -->
<!-- Title: src/application/user_interface/pannel/cam_view_pannel.cpp Pages: 1 -->
<svg width="1243pt" height="308pt"
 viewBox="0.00 0.00 1242.50 308.00" xmlns="http://www.w3.org/2000/svg" xmlns:xlink="http://www.w3.org/1999/xlink">
<g id="graph0" class="graph" transform="scale(1 1) rotate(0) translate(4 304)">
<title>src/application/user_interface/pannel/cam_view_pannel.cpp</title>
<polygon fill="white" stroke="transparent" points="-4,4 -4,-304 1238.5,-304 1238.5,4 -4,4"/>
<!-- Node1 -->
<g id="node1" class="node">
<title>Node1</title>
<g id="a_node1"><a xlink:title=" ">
<polygon fill="#bfbfbf" stroke="black" points="624.5,-280.5 624.5,-299.5 932.5,-299.5 932.5,-280.5 624.5,-280.5"/>
<text text-anchor="middle" x="778.5" y="-287.5" font-family="Helvetica,sans-Serif" font-size="10.00">src/application/user_interface/pannel/cam_view_pannel.cpp</text>
</a>
</g>
</g>
<!-- Node2 -->
<g id="node2" class="node">
<title>Node2</title>
<g id="a_node2"><a xlink:href="cam__view__pannel_8h.html" target="_top" xlink:title=" ">
<polygon fill="white" stroke="black" points="273.5,-224.5 273.5,-243.5 569.5,-243.5 569.5,-224.5 273.5,-224.5"/>
<text text-anchor="middle" x="421.5" y="-231.5" font-family="Helvetica,sans-Serif" font-size="10.00">src/application/user_interface/pannel/cam_view_pannel.h</text>
</a>
</g>
</g>
<!-- Node1&#45;&gt;Node2 -->
<g id="edge1" class="edge">
<title>Node1&#45;&gt;Node2</title>
<path fill="none" stroke="midnightblue" d="M721.93,-280.44C658.35,-270.83 555.23,-255.23 487.88,-245.04"/>
<polygon fill="midnightblue" stroke="midnightblue" points="488.21,-241.55 477.8,-243.52 487.17,-248.47 488.21,-241.55"/>
</g>
<!-- Node6 -->
<g id="node6" class="node">
<title>Node6</title>
<g id="a_node6"><a xlink:title=" ">
<polygon fill="white" stroke="#bfbfbf" points="468.5,-56.5 468.5,-75.5 512.5,-75.5 512.5,-56.5 468.5,-56.5"/>
<text text-anchor="middle" x="490.5" y="-63.5" font-family="Helvetica,sans-Serif" font-size="10.00">string</text>
</a>
</g>
</g>
<!-- Node1&#45;&gt;Node6 -->
<g id="edge21" class="edge">
<title>Node1&#45;&gt;Node6</title>
<path fill="none" stroke="midnightblue" d="M700.31,-280.49C671.79,-274.15 640.84,-263.14 617.5,-244 566.63,-202.28 592.81,-162.38 550.5,-112 540.29,-99.84 526.2,-89.06 514.23,-81.1"/>
<polygon fill="midnightblue" stroke="midnightblue" points="515.91,-78.02 505.6,-75.58 512.14,-83.92 515.91,-78.02"/>
</g>
<!-- Node13 -->
<g id="node13" class="node">
<title>Node13</title>
<g id="a_node13"><a xlink:title=" ">
<polygon fill="white" stroke="#bfbfbf" points="626,-224.5 626,-243.5 709,-243.5 709,-224.5 626,-224.5"/>
<text text-anchor="middle" x="667.5" y="-231.5" font-family="Helvetica,sans-Serif" font-size="10.00">GLFW/glfw3.h</text>
</a>
</g>
</g>
<!-- Node1&#45;&gt;Node13 -->
<g id="edge17" class="edge">
<title>Node1&#45;&gt;Node13</title>
<path fill="none" stroke="midnightblue" d="M760.67,-280.32C742.78,-271.62 715.02,-258.12 694.45,-248.11"/>
<polygon fill="midnightblue" stroke="midnightblue" points="695.81,-244.88 685.29,-243.65 692.75,-251.18 695.81,-244.88"/>
</g>
<!-- Node14 -->
<g id="node14" class="node">
<title>Node14</title>
<g id="a_node14"><a xlink:title=" ">
<polygon fill="white" stroke="#bfbfbf" points="727,-224.5 727,-243.5 830,-243.5 830,-224.5 727,-224.5"/>
<text text-anchor="middle" x="778.5" y="-231.5" font-family="Helvetica,sans-Serif" font-size="10.00">opencv2/core.hpp</text>
</a>
</g>
</g>
<!-- Node1&#45;&gt;Node14 -->
<g id="edge18" class="edge">
<title>Node1&#45;&gt;Node14</title>
<path fill="none" stroke="midnightblue" d="M778.5,-280.08C778.5,-273.01 778.5,-262.86 778.5,-253.99"/>
<polygon fill="midnightblue" stroke="midnightblue" points="782,-253.75 778.5,-243.75 775,-253.75 782,-253.75"/>
</g>
<!-- Node15 -->
<g id="node15" class="node">
<title>Node15</title>
<g id="a_node15"><a xlink:title=" ">
<polygon fill="white" stroke="#bfbfbf" points="848.5,-224.5 848.5,-243.5 966.5,-243.5 966.5,-224.5 848.5,-224.5"/>
<text text-anchor="middle" x="907.5" y="-231.5" font-family="Helvetica,sans-Serif" font-size="10.00">opencv2/highgui.hpp</text>
</a>
</g>
</g>
<!-- Node1&#45;&gt;Node15 -->
<g id="edge19" class="edge">
<title>Node1&#45;&gt;Node15</title>
<path fill="none" stroke="midnightblue" d="M798.94,-280.44C820.17,-271.56 853.6,-257.56 877.75,-247.45"/>
<polygon fill="midnightblue" stroke="midnightblue" points="879.28,-250.61 887.16,-243.52 876.58,-244.15 879.28,-250.61"/>
</g>
<!-- Node16 -->
<g id="node16" class="node">
<title>Node16</title>
<g id="a_node16"><a xlink:title=" ">
<polygon fill="white" stroke="#bfbfbf" points="984.5,-224.5 984.5,-243.5 1118.5,-243.5 1118.5,-224.5 984.5,-224.5"/>
<text text-anchor="middle" x="1051.5" y="-231.5" font-family="Helvetica,sans-Serif" font-size="10.00">opencv2/imgcodecs.hpp</text>
</a>
</g>
</g>
<!-- Node1&#45;&gt;Node16 -->
<g id="edge20" class="edge">
<title>Node1&#45;&gt;Node16</title>
<path fill="none" stroke="midnightblue" d="M821.76,-280.44C869.68,-270.96 946.98,-255.67 998.5,-245.48"/>
<polygon fill="midnightblue" stroke="midnightblue" points="999.31,-248.89 1008.44,-243.52 997.96,-242.02 999.31,-248.89"/>
</g>
<!-- Node17 -->
<g id="node17" class="node">
<title>Node17</title>
<g id="a_node17"><a xlink:title=" ">
<polygon fill="white" stroke="#bfbfbf" points="1136.5,-224.5 1136.5,-243.5 1234.5,-243.5 1234.5,-224.5 1136.5,-224.5"/>
<text text-anchor="middle" x="1185.5" y="-231.5" font-family="Helvetica,sans-Serif" font-size="10.00">bindings/imgui.h</text>
</a>
</g>
</g>
<!-- Node1&#45;&gt;Node17 -->
<g id="edge22" class="edge">
<title>Node1&#45;&gt;Node17</title>
<path fill="none" stroke="midnightblue" d="M848.76,-280.48C917.09,-272.07 1024.08,-258.58 1126.56,-244.1"/>
<polygon fill="midnightblue" stroke="midnightblue" points="1127.06,-247.57 1136.47,-242.7 1126.07,-240.64 1127.06,-247.57"/>
</g>
<!-- Node3 -->
<g id="node3" class="node">
<title>Node3</title>
<g id="a_node3"><a xlink:title=" ">
<polygon fill="white" stroke="#bfbfbf" points="488,-112.5 488,-131.5 541,-131.5 541,-112.5 488,-112.5"/>
<text text-anchor="middle" x="514.5" y="-119.5" font-family="Helvetica,sans-Serif" font-size="10.00">imgui.h</text>
</a>
</g>
</g>
<!-- Node2&#45;&gt;Node3 -->
<g id="edge2" class="edge">
<title>Node2&#45;&gt;Node3</title>
<path fill="none" stroke="midnightblue" d="M437.17,-224.35C450.57,-216.33 469.67,-203.35 482.5,-188 494.2,-174 502.91,-155 508.27,-141.16"/>
<polygon fill="midnightblue" stroke="midnightblue" points="511.56,-142.35 511.71,-131.75 504.99,-139.95 511.56,-142.35"/>
</g>
<!-- Node4 -->
<g id="node4" class="node">
<title>Node4</title>
<g id="a_node4"><a xlink:href="abstract__pannel_8h.html" target="_top" xlink:title=" ">
<polygon fill="white" stroke="black" points="369.5,-168.5 369.5,-187.5 473.5,-187.5 473.5,-168.5 369.5,-168.5"/>
<text text-anchor="middle" x="421.5" y="-175.5" font-family="Helvetica,sans-Serif" font-size="10.00">abstract_pannel.h</text>
</a>
</g>
</g>
<!-- Node2&#45;&gt;Node4 -->
<g id="edge3" class="edge">
<title>Node2&#45;&gt;Node4</title>
<path fill="none" stroke="midnightblue" d="M421.5,-224.08C421.5,-217.01 421.5,-206.86 421.5,-197.99"/>
<polygon fill="midnightblue" stroke="midnightblue" points="425,-197.75 421.5,-187.75 418,-197.75 425,-197.75"/>
</g>
<!-- Node4&#45;&gt;Node3 -->
<g id="edge4" class="edge">
<title>Node4&#45;&gt;Node3</title>
<path fill="none" stroke="midnightblue" d="M436.44,-168.32C451.09,-159.82 473.63,-146.73 490.74,-136.8"/>
<polygon fill="midnightblue" stroke="midnightblue" points="492.7,-139.7 499.6,-131.65 489.19,-133.65 492.7,-139.7"/>
</g>
<!-- Node5 -->
<g id="node5" class="node">
<title>Node5</title>
<g id="a_node5"><a xlink:title=" ">
<polygon fill="white" stroke="#bfbfbf" points="392.5,-56.5 392.5,-75.5 450.5,-75.5 450.5,-56.5 392.5,-56.5"/>
<text text-anchor="middle" x="421.5" y="-63.5" font-family="Helvetica,sans-Serif" font-size="10.00">memory</text>
</a>
</g>
</g>
<!-- Node4&#45;&gt;Node5 -->
<g id="edge5" class="edge">
<title>Node4&#45;&gt;Node5</title>
<path fill="none" stroke="midnightblue" d="M421.5,-168.37C421.5,-150.62 421.5,-109.67 421.5,-85.6"/>
<polygon fill="midnightblue" stroke="midnightblue" points="425,-85.59 421.5,-75.59 418,-85.59 425,-85.59"/>
</g>
<!-- Node4&#45;&gt;Node6 -->
<g id="edge6" class="edge">
<title>Node4&#45;&gt;Node6</title>
<path fill="none" stroke="midnightblue" d="M426.91,-168.37C438.25,-150.3 464.67,-108.18 479.64,-84.31"/>
<polygon fill="midnightblue" stroke="midnightblue" points="482.76,-85.92 485.11,-75.59 476.83,-82.2 482.76,-85.92"/>
</g>
<!-- Node7 -->
<g id="node7" class="node">
<title>Node7</title>
<g id="a_node7"><a xlink:href="dataloader_8h.html" target="_top" xlink:title=" ">
<polygon fill="white" stroke="black" points="241.5,-112.5 241.5,-131.5 393.5,-131.5 393.5,-112.5 241.5,-112.5"/>
<text text-anchor="middle" x="317.5" y="-119.5" font-family="Helvetica,sans-Serif" font-size="10.00">src/application/dataloader.h</text>
</a>
</g>
</g>
<!-- Node4&#45;&gt;Node7 -->
<g id="edge7" class="edge">
<title>Node4&#45;&gt;Node7</title>
<path fill="none" stroke="midnightblue" d="M404.79,-168.32C388.19,-159.7 362.5,-146.36 343.28,-136.39"/>
<polygon fill="midnightblue" stroke="midnightblue" points="344.66,-133.16 334.17,-131.65 341.43,-139.37 344.66,-133.16"/>
</g>
<!-- Node11 -->
<g id="node11" class="node">
<title>Node11</title>
<g id="a_node11"><a xlink:href="abstract__data__reader_8h.html" target="_top" xlink:title=" ">
<polygon fill="white" stroke="black" points="0,-112.5 0,-131.5 207,-131.5 207,-112.5 0,-112.5"/>
<text text-anchor="middle" x="103.5" y="-119.5" font-family="Helvetica,sans-Serif" font-size="10.00">src/data_reader/abstract_data_reader.h</text>
</a>
</g>
</g>
<!-- Node4&#45;&gt;Node11 -->
<g id="edge13" class="edge">
<title>Node4&#45;&gt;Node11</title>
<path fill="none" stroke="midnightblue" d="M371.11,-168.44C314.82,-158.89 223.75,-143.42 163.74,-133.23"/>
<polygon fill="midnightblue" stroke="midnightblue" points="164.1,-129.74 153.65,-131.52 162.93,-136.64 164.1,-129.74"/>
</g>
<!-- Node7&#45;&gt;Node5 -->
<g id="edge10" class="edge">
<title>Node7&#45;&gt;Node5</title>
<path fill="none" stroke="midnightblue" d="M334.21,-112.32C350.81,-103.7 376.5,-90.36 395.72,-80.39"/>
<polygon fill="midnightblue" stroke="midnightblue" points="397.57,-83.37 404.83,-75.65 394.34,-77.16 397.57,-83.37"/>
</g>
<!-- Node7&#45;&gt;Node6 -->
<g id="edge11" class="edge">
<title>Node7&#45;&gt;Node6</title>
<path fill="none" stroke="midnightblue" d="M344.91,-112.44C375.78,-102.81 425.86,-87.18 458.5,-76.99"/>
<polygon fill="midnightblue" stroke="midnightblue" points="459.93,-80.21 468.43,-73.89 457.84,-73.53 459.93,-80.21"/>
</g>
<!-- Node8 -->
<g id="node8" class="node">
<title>Node8</title>
<g id="a_node8"><a xlink:title=" ">
<polygon fill="white" stroke="#bfbfbf" points="182.5,-56.5 182.5,-75.5 224.5,-75.5 224.5,-56.5 182.5,-56.5"/>
<text text-anchor="middle" x="203.5" y="-63.5" font-family="Helvetica,sans-Serif" font-size="10.00">array</text>
</a>
</g>
</g>
<!-- Node7&#45;&gt;Node8 -->
<g id="edge8" class="edge">
<title>Node7&#45;&gt;Node8</title>
<path fill="none" stroke="midnightblue" d="M299.44,-112.44C280.93,-103.68 251.92,-89.94 230.64,-79.86"/>
<polygon fill="midnightblue" stroke="midnightblue" points="232.01,-76.63 221.48,-75.52 229.02,-82.96 232.01,-76.63"/>
</g>
<!-- Node9 -->
<g id="node9" class="node">
<title>Node9</title>
<g id="a_node9"><a xlink:title=" ">
<polygon fill="white" stroke="#bfbfbf" points="69.5,-0.5 69.5,-19.5 137.5,-19.5 137.5,-0.5 69.5,-0.5"/>
<text text-anchor="middle" x="103.5" y="-7.5" font-family="Helvetica,sans-Serif" font-size="10.00">filesystem</text>
</a>
</g>
</g>
<!-- Node7&#45;&gt;Node9 -->
<g id="edge9" class="edge">
<title>Node7&#45;&gt;Node9</title>
<path fill="none" stroke="midnightblue" d="M326.53,-112.13C339.07,-98.74 358.71,-73.11 344.5,-56 319.96,-26.46 210.27,-16.2 147.67,-12.73"/>
<polygon fill="midnightblue" stroke="midnightblue" points="147.84,-9.23 137.67,-12.21 147.47,-16.22 147.84,-9.23"/>
</g>
<!-- Node10 -->
<g id="node10" class="node">
<title>Node10</title>
<g id="a_node10"><a xlink:title=" ">
<polygon fill="white" stroke="#bfbfbf" points="243,-56.5 243,-75.5 336,-75.5 336,-56.5 243,-56.5"/>
<text text-anchor="middle" x="289.5" y="-63.5" font-family="Helvetica,sans-Serif" font-size="10.00">unordered_map</text>
</a>
</g>
</g>
<!-- Node7&#45;&gt;Node10 -->
<g id="edge12" class="edge">
<title>Node7&#45;&gt;Node10</title>
<path fill="none" stroke="midnightblue" d="M312.88,-112.08C309.04,-104.69 303.48,-93.95 298.74,-84.81"/>
<polygon fill="midnightblue" stroke="midnightblue" points="301.75,-83.02 294.04,-75.75 295.53,-86.24 301.75,-83.02"/>
</g>
<!-- Node11&#45;&gt;Node9 -->
<g id="edge14" class="edge">
<title>Node11&#45;&gt;Node9</title>
<path fill="none" stroke="midnightblue" d="M79.03,-112.44C62.93,-105.38 43.12,-93.63 33.5,-76 21.5,-54.03 48,-35.36 71.76,-23.75"/>
<polygon fill="midnightblue" stroke="midnightblue" points="73.36,-26.87 80.98,-19.51 70.43,-20.51 73.36,-26.87"/>
</g>
<!-- Node12 -->
<g id="node12" class="node">
<title>Node12</title>
<g id="a_node12"><a xlink:href="types_8h.html" target="_top" xlink:title=" ">
<polygon fill="white" stroke="black" points="42.5,-56.5 42.5,-75.5 164.5,-75.5 164.5,-56.5 42.5,-56.5"/>
<text text-anchor="middle" x="103.5" y="-63.5" font-family="Helvetica,sans-Serif" font-size="10.00">src/data_type/types.h</text>
</a>
</g>
</g>
<!-- Node11&#45;&gt;Node12 -->
<g id="edge15" class="edge">
<title>Node11&#45;&gt;Node12</title>
<path fill="none" stroke="midnightblue" d="M103.5,-112.08C103.5,-105.01 103.5,-94.86 103.5,-85.99"/>
<polygon fill="midnightblue" stroke="midnightblue" points="107,-85.75 103.5,-75.75 100,-85.75 107,-85.75"/>
</g>
<!-- Node12&#45;&gt;Node9 -->
<g id="edge16" class="edge">
<title>Node12&#45;&gt;Node9</title>
<path fill="none" stroke="midnightblue" d="M103.5,-56.08C103.5,-49.01 103.5,-38.86 103.5,-29.99"/>
<polygon fill="midnightblue" stroke="midnightblue" points="107,-29.75 103.5,-19.75 100,-29.75 107,-29.75"/>
</g>
</g>
</svg>
