<?xml version="1.0" encoding="UTF-8" standalone="no"?>
<!DOCTYPE svg PUBLIC "-//W3C//DTD SVG 1.1//EN"
 "http://www.w3.org/Graphics/SVG/1.1/DTD/svg11.dtd">
<!-- Generated by graphviz version 2.43.0 (0)
 -->
<!-- Title: src/application/user_interface/pannel/cam_view_pannel.h Pages: 1 -->
<svg width="540pt" height="140pt"
 viewBox="0.00 0.00 540.00 140.00" xmlns="http://www.w3.org/2000/svg" xmlns:xlink="http://www.w3.org/1999/xlink">
<g id="graph0" class="graph" transform="scale(1 1) rotate(0) translate(4 136)">
<title>src/application/user_interface/pannel/cam_view_pannel.h</title>
<polygon fill="white" stroke="transparent" points="-4,4 -4,-136 536,-136 536,4 -4,4"/>
<!-- Node1 -->
<g id="node1" class="node">
<title>Node1</title>
<g id="a_node1"><a xlink:title=" ">
<polygon fill="#bfbfbf" stroke="black" points="143,-112.5 143,-131.5 439,-131.5 439,-112.5 143,-112.5"/>
<text text-anchor="middle" x="291" y="-119.5" font-family="Helvetica,sans-Serif" font-size="10.00">src/application/user_interface/pannel/cam_view_pannel.h</text>
</a>
</g>
</g>
<!-- Node2 -->
<g id="node2" class="node">
<title>Node2</title>
<g id="a_node2"><a xlink:href="cam__view__pannel_8cpp.html" target="_top" xlink:title=" ">
<polygon fill="white" stroke="black" points="0,-56.5 0,-75.5 308,-75.5 308,-56.5 0,-56.5"/>
<text text-anchor="middle" x="154" y="-63.5" font-family="Helvetica,sans-Serif" font-size="10.00">src/application/user_interface/pannel/cam_view_pannel.cpp</text>
</a>
</g>
</g>
<!-- Node1&#45;&gt;Node2 -->
<g id="edge1" class="edge">
<title>Node1&#45;&gt;Node2</title>
<path fill="none" stroke="midnightblue" d="M259.98,-108.77C234.24,-98.63 198.31,-84.47 175.61,-75.52"/>
<polygon fill="midnightblue" stroke="midnightblue" points="258.71,-112.03 269.29,-112.44 261.27,-105.52 258.71,-112.03"/>
</g>
<!-- Node3 -->
<g id="node3" class="node">
<title>Node3</title>
<g id="a_node3"><a xlink:href="pannel_8h.html" target="_top" xlink:title=" ">
<polygon fill="white" stroke="black" points="326,-56.5 326,-75.5 532,-75.5 532,-56.5 326,-56.5"/>
<text text-anchor="middle" x="429" y="-63.5" font-family="Helvetica,sans-Serif" font-size="10.00">src/application/user_interface/pannel.h</text>
</a>
</g>
</g>
<!-- Node1&#45;&gt;Node3 -->
<g id="edge2" class="edge">
<title>Node1&#45;&gt;Node3</title>
<path fill="none" stroke="midnightblue" d="M322.25,-108.77C348.17,-98.63 384.36,-84.47 407.24,-75.52"/>
<polygon fill="midnightblue" stroke="midnightblue" points="320.9,-105.54 312.87,-112.44 323.45,-112.06 320.9,-105.54"/>
</g>
<!-- Node4 -->
<g id="node4" class="node">
<title>Node4</title>
<g id="a_node4"><a xlink:href="user__interface_8cpp.html" target="_top" xlink:title=" ">
<polygon fill="white" stroke="black" points="338.5,-0.5 338.5,-19.5 519.5,-19.5 519.5,-0.5 338.5,-0.5"/>
<text text-anchor="middle" x="429" y="-7.5" font-family="Helvetica,sans-Serif" font-size="10.00">src/application/user_interface.cpp</text>
</a>
</g>
</g>
<!-- Node3&#45;&gt;Node4 -->
<g id="edge3" class="edge">
<title>Node3&#45;&gt;Node4</title>
<path fill="none" stroke="midnightblue" d="M429,-45.8C429,-36.91 429,-26.78 429,-19.75"/>
<polygon fill="midnightblue" stroke="midnightblue" points="425.5,-46.08 429,-56.08 432.5,-46.08 425.5,-46.08"/>
</g>
</g>
</svg>
