<?xml version="1.0" encoding="UTF-8" standalone="no"?>
<!DOCTYPE svg PUBLIC "-//W3C//DTD SVG 1.1//EN"
 "http://www.w3.org/Graphics/SVG/1.1/DTD/svg11.dtd">
<!-- Generated by graphviz version 2.43.0 (0)
 -->
<!-- Title: ad_framework::ui::UserInterface::Size Pages: 1 -->
<svg width="447pt" height="66pt"
 viewBox="0.00 0.00 447.00 66.00" xmlns="http://www.w3.org/2000/svg" xmlns:xlink="http://www.w3.org/1999/xlink">
<g id="graph0" class="graph" transform="scale(1 1) rotate(0) translate(4 62)">
<title>ad_framework::ui::UserInterface::Size</title>
<polygon fill="white" stroke="transparent" points="-4,4 -4,-62 443,-62 443,4 -4,4"/>
<!-- Node1 -->
<g id="node1" class="node">
<title>Node1</title>
<g id="a_node1"><a xlink:title=" ">
<polygon fill="#bfbfbf" stroke="black" points="239,-19.5 239,-38.5 439,-38.5 439,-19.5 239,-19.5"/>
<text text-anchor="middle" x="339" y="-26.5" font-family="Helvetica,sans-Serif" font-size="10.00">ad_framework::ui::UserInterface::Size</text>
</a>
</g>
</g>
<!-- Node2 -->
<g id="node2" class="node">
<title>Node2</title>
<g id="a_node2"><a xlink:href="classad__framework_1_1ui_1_1Button.html#a87bdaf93ee039c7252bd91f12215dcdc" target="_top" xlink:title=" ">
<polygon fill="white" stroke="black" points="4,-38.5 4,-57.5 199,-57.5 199,-38.5 4,-38.5"/>
<text text-anchor="middle" x="101.5" y="-45.5" font-family="Helvetica,sans-Serif" font-size="10.00">ad_framework::ui::Button::operator()</text>
</a>
</g>
</g>
<!-- Node1&#45;&gt;Node2 -->
<g id="edge1" class="edge">
<title>Node1&#45;&gt;Node2</title>
<path fill="none" stroke="midnightblue" d="M228.65,-37.82C218.86,-38.61 208.99,-39.41 199.32,-40.19"/>
<polygon fill="midnightblue" stroke="midnightblue" points="229.12,-41.3 238.81,-37 228.56,-34.32 229.12,-41.3"/>
</g>
<!-- Node3 -->
<g id="node3" class="node">
<title>Node3</title>
<g id="a_node3"><a xlink:href="classad__framework_1_1ui_1_1Selector.html#ae6bc6a470d499974e5a9b53c65d9e1b1" target="_top" xlink:title=" ">
<polygon fill="white" stroke="black" points="0,-0.5 0,-19.5 203,-19.5 203,-0.5 0,-0.5"/>
<text text-anchor="middle" x="101.5" y="-7.5" font-family="Helvetica,sans-Serif" font-size="10.00">ad_framework::ui::Selector::operator()</text>
</a>
</g>
</g>
<!-- Node1&#45;&gt;Node3 -->
<g id="edge2" class="edge">
<title>Node1&#45;&gt;Node3</title>
<path fill="none" stroke="midnightblue" d="M228.79,-20.19C220.22,-19.5 211.59,-18.8 203.09,-18.12"/>
<polygon fill="midnightblue" stroke="midnightblue" points="228.56,-23.68 238.81,-21 229.12,-16.7 228.56,-23.68"/>
</g>
</g>
</svg>
