<?xml version="1.0" encoding="UTF-8" standalone="no"?>
<!DOCTYPE svg PUBLIC "-//W3C//DTD SVG 1.1//EN"
 "http://www.w3.org/Graphics/SVG/1.1/DTD/svg11.dtd">
<!-- Generated by graphviz version 2.43.0 (0)
 -->
<!-- Title: ad_framework::data_structure::Polygon Pages: 1 -->
<svg width="306pt" height="226pt"
 viewBox="0.00 0.00 306.00 226.00" xmlns="http://www.w3.org/2000/svg" xmlns:xlink="http://www.w3.org/1999/xlink">
<g id="graph0" class="graph" transform="scale(1 1) rotate(0) translate(4 222)">
<title>ad_framework::data_structure::Polygon</title>
<polygon fill="white" stroke="transparent" points="-4,4 -4,-222 302,-222 302,4 -4,4"/>
<!-- Node1 -->
<g id="node1" class="node">
<title>Node1</title>
<g id="a_node1"><a xlink:title=" ">
<polygon fill="#bfbfbf" stroke="black" points="2,-0.5 2,-90.5 296,-90.5 296,-0.5 2,-0.5"/>
<text text-anchor="middle" x="149" y="-78.5" font-family="Helvetica,sans-Serif" font-size="10.00">ad_framework::data_structure::Polygon</text>
<polyline fill="none" stroke="black" points="2,-71.5 296,-71.5 "/>
<text text-anchor="start" x="10" y="-59.5" font-family="Helvetica,sans-Serif" font-size="10.00">+ std::vector&lt; Point &gt; points</text>
<text text-anchor="start" x="10" y="-48.5" font-family="Helvetica,sans-Serif" font-size="10.00">&#45; std::vector&lt; Eigen::Vector3d &gt; points_</text>
<polyline fill="none" stroke="black" points="2,-41.5 296,-41.5 "/>
<text text-anchor="start" x="10" y="-29.5" font-family="Helvetica,sans-Serif" font-size="10.00">+ Polygon(const std::vector&lt; Eigen::Vector3d &gt; &amp;points)</text>
<text text-anchor="start" x="10" y="-18.5" font-family="Helvetica,sans-Serif" font-size="10.00">+ bool IsIn(const Eigen::Vector3d &amp;point) const override</text>
<text text-anchor="start" x="10" y="-7.5" font-family="Helvetica,sans-Serif" font-size="10.00">+ std::string ToString() const override</text>
</a>
</g>
</g>
<!-- Node2 -->
<g id="node2" class="node">
<title>Node2</title>
<g id="a_node2"><a xlink:href="classad__framework_1_1data__structure_1_1Shape.html" target="_top" xlink:title=" ">
<polygon fill="white" stroke="black" points="0,-127.5 0,-217.5 298,-217.5 298,-127.5 0,-127.5"/>
<text text-anchor="middle" x="149" y="-205.5" font-family="Helvetica,sans-Serif" font-size="10.00">ad_framework::data_structure::Shape</text>
<polyline fill="none" stroke="black" points="0,-198.5 298,-198.5 "/>
<text text-anchor="middle" x="149" y="-186.5" font-family="Helvetica,sans-Serif" font-size="10.00"> </text>
<polyline fill="none" stroke="black" points="0,-179.5 298,-179.5 "/>
<text text-anchor="start" x="8" y="-167.5" font-family="Helvetica,sans-Serif" font-size="10.00">+ virtual ~Shape()=default</text>
<text text-anchor="start" x="8" y="-156.5" font-family="Helvetica,sans-Serif" font-size="10.00">+ virtual bool IsIn(const Eigen::Vector3d &amp;point) const =0</text>
<text text-anchor="start" x="8" y="-145.5" font-family="Helvetica,sans-Serif" font-size="10.00">+ virtual std::string ToString() const =0</text>
<text text-anchor="start" x="8" y="-134.5" font-family="Helvetica,sans-Serif" font-size="10.00">+ virtual ~Shape()=default</text>
</a>
</g>
</g>
<!-- Node2&#45;&gt;Node1 -->
<g id="edge1" class="edge">
<title>Node2&#45;&gt;Node1</title>
<path fill="none" stroke="midnightblue" d="M142.3,-117.16C142.19,-108.28 142.26,-99.18 142.52,-90.59"/>
<polygon fill="none" stroke="midnightblue" points="138.81,-117.51 142.52,-127.43 145.81,-117.36 138.81,-117.51"/>
</g>
<!-- Node2&#45;&gt;Node1 -->
<g id="edge2" class="edge">
<title>Node2&#45;&gt;Node1</title>
<path fill="none" stroke="midnightblue" d="M155.7,-117.16C155.81,-108.28 155.74,-99.18 155.48,-90.59"/>
<polygon fill="none" stroke="midnightblue" points="152.19,-117.36 155.48,-127.43 159.19,-117.51 152.19,-117.36"/>
</g>
</g>
</svg>
