<?xml version="1.0" encoding="UTF-8" standalone="no"?>
<!DOCTYPE svg PUBLIC "-//W3C//DTD SVG 1.1//EN"
 "http://www.w3.org/Graphics/SVG/1.1/DTD/svg11.dtd">
<!-- Generated by graphviz version 2.43.0 (0)
 -->
<!-- Title: ad_framwork::data_structure::Polygon Pages: 1 -->
<svg width="538pt" height="403pt"
 viewBox="0.00 0.00 538.00 403.00" xmlns="http://www.w3.org/2000/svg" xmlns:xlink="http://www.w3.org/1999/xlink">
<g id="graph0" class="graph" transform="scale(1 1) rotate(0) translate(4 399)">
<title>ad_framwork::data_structure::Polygon</title>
<polygon fill="white" stroke="transparent" points="-4,4 -4,-399 534,-399 534,4 -4,4"/>
<!-- Node1 -->
<g id="node1" class="node">
<title>Node1</title>
<g id="a_node1"><a xlink:title=" ">
<polygon fill="#bfbfbf" stroke="black" points="72,-0.5 72,-68.5 366,-68.5 366,-0.5 72,-0.5"/>
<text text-anchor="middle" x="219" y="-56.5" font-family="Helvetica,sans-Serif" font-size="10.00">ad_framwork::data_structure::Polygon</text>
<polyline fill="none" stroke="black" points="72,-49.5 366,-49.5 "/>
<text text-anchor="middle" x="219" y="-37.5" font-family="Helvetica,sans-Serif" font-size="10.00"> </text>
<polyline fill="none" stroke="black" points="72,-30.5 366,-30.5 "/>
<text text-anchor="start" x="80" y="-18.5" font-family="Helvetica,sans-Serif" font-size="10.00">+ Polygon(const std::vector&lt; Eigen::Vector3d &gt; &amp;points)</text>
<text text-anchor="start" x="80" y="-7.5" font-family="Helvetica,sans-Serif" font-size="10.00">+ bool IsIn(const Eigen::Vector3d &amp;point) const override</text>
</a>
</g>
</g>
<!-- Node2 -->
<g id="node2" class="node">
<title>Node2</title>
<g id="a_node2"><a xlink:href="classad__framwork_1_1data__structure_1_1Shape.html" target="_top" xlink:title=" ">
<polygon fill="white" stroke="black" points="0,-116.5 0,-184.5 298,-184.5 298,-116.5 0,-116.5"/>
<text text-anchor="middle" x="149" y="-172.5" font-family="Helvetica,sans-Serif" font-size="10.00">ad_framwork::data_structure::Shape</text>
<polyline fill="none" stroke="black" points="0,-165.5 298,-165.5 "/>
<text text-anchor="middle" x="149" y="-153.5" font-family="Helvetica,sans-Serif" font-size="10.00"> </text>
<polyline fill="none" stroke="black" points="0,-146.5 298,-146.5 "/>
<text text-anchor="start" x="8" y="-134.5" font-family="Helvetica,sans-Serif" font-size="10.00">+ virtual ~Shape()=default</text>
<text text-anchor="start" x="8" y="-123.5" font-family="Helvetica,sans-Serif" font-size="10.00">+ virtual bool IsIn(const Eigen::Vector3d &amp;point) const =0</text>
</a>
</g>
</g>
<!-- Node2&#45;&gt;Node1 -->
<g id="edge1" class="edge">
<title>Node2&#45;&gt;Node1</title>
<path fill="none" stroke="midnightblue" d="M174.76,-107.55C182.64,-94.71 191.19,-80.78 198.66,-68.62"/>
<polygon fill="none" stroke="midnightblue" points="171.69,-105.87 169.44,-116.22 177.65,-109.53 171.69,-105.87"/>
</g>
<!-- Node3 -->
<g id="node3" class="node">
<title>Node3</title>
<g id="a_node3"><a xlink:title=" ">
<polygon fill="white" stroke="#bfbfbf" points="315.5,-122 315.5,-179 482.5,-179 482.5,-122 315.5,-122"/>
<text text-anchor="middle" x="399" y="-167" font-family="Helvetica,sans-Serif" font-size="10.00">std::vector&lt; Eigen::Vector3d &gt;</text>
<polyline fill="none" stroke="#bfbfbf" points="315.5,-160 482.5,-160 "/>
<text text-anchor="middle" x="399" y="-148" font-family="Helvetica,sans-Serif" font-size="10.00"> </text>
<polyline fill="none" stroke="#bfbfbf" points="315.5,-141 482.5,-141 "/>
<text text-anchor="middle" x="399" y="-129" font-family="Helvetica,sans-Serif" font-size="10.00"> </text>
</a>
</g>
</g>
<!-- Node3&#45;&gt;Node1 -->
<g id="edge2" class="edge">
<title>Node3&#45;&gt;Node1</title>
<path fill="none" stroke="#404040" d="M355.43,-121.9C333.21,-107.84 305.8,-90.48 281.39,-75.02"/>
<polygon fill="none" stroke="#404040" points="281.28,-74.94 274.07,-75.11 271.14,-68.52 278.35,-68.35 281.28,-74.94"/>
<text text-anchor="middle" x="336.5" y="-90" font-family="Helvetica,sans-Serif" font-size="10.00"> &#45;points_</text>
</g>
<!-- Node4 -->
<g id="node4" class="node">
<title>Node4</title>
<g id="a_node4"><a xlink:title=" ">
<polygon fill="white" stroke="#bfbfbf" points="325.5,-232.5 325.5,-289.5 384.5,-289.5 384.5,-232.5 325.5,-232.5"/>
<text text-anchor="middle" x="355" y="-277.5" font-family="Helvetica,sans-Serif" font-size="10.00">Vector3d</text>
<polyline fill="none" stroke="#bfbfbf" points="325.5,-270.5 384.5,-270.5 "/>
<text text-anchor="middle" x="355" y="-258.5" font-family="Helvetica,sans-Serif" font-size="10.00"> </text>
<polyline fill="none" stroke="#bfbfbf" points="325.5,-251.5 384.5,-251.5 "/>
<text text-anchor="middle" x="355" y="-239.5" font-family="Helvetica,sans-Serif" font-size="10.00"> </text>
</a>
</g>
</g>
<!-- Node4&#45;&gt;Node3 -->
<g id="edge3" class="edge">
<title>Node4&#45;&gt;Node3</title>
<path fill="none" stroke="#404040" d="M356.25,-232.37C357.36,-222.82 359.38,-212.21 363,-203 364.77,-198.5 367,-194.02 369.49,-189.68"/>
<polygon fill="none" stroke="#404040" points="369.66,-189.41 369.48,-182.2 376.07,-179.27 376.24,-186.48 369.66,-189.41"/>
<text text-anchor="middle" x="392" y="-206" font-family="Helvetica,sans-Serif" font-size="10.00"> +elements</text>
</g>
<!-- Node5 -->
<g id="node5" class="node">
<title>Node5</title>
<g id="a_node5"><a xlink:title=" ">
<polygon fill="white" stroke="#bfbfbf" points="402.5,-232.5 402.5,-289.5 499.5,-289.5 499.5,-232.5 402.5,-232.5"/>
<text text-anchor="middle" x="451" y="-277.5" font-family="Helvetica,sans-Serif" font-size="10.00">std::vector&lt; T &gt;</text>
<polyline fill="none" stroke="#bfbfbf" points="402.5,-270.5 499.5,-270.5 "/>
<text text-anchor="middle" x="451" y="-258.5" font-family="Helvetica,sans-Serif" font-size="10.00"> </text>
<polyline fill="none" stroke="#bfbfbf" points="402.5,-251.5 499.5,-251.5 "/>
<text text-anchor="middle" x="451" y="-239.5" font-family="Helvetica,sans-Serif" font-size="10.00"> </text>
</a>
</g>
</g>
<!-- Node5&#45;&gt;Node3 -->
<g id="edge4" class="edge">
<title>Node5&#45;&gt;Node3</title>
<path fill="none" stroke="orange" d="M433.35,-223.18C426.44,-208.75 418.65,-192.49 412.23,-179.11"/>
<polygon fill="orange" stroke="orange" points="430.27,-224.83 437.74,-232.34 436.58,-221.81 430.27,-224.83"/>
<text text-anchor="middle" x="479" y="-206" font-family="Helvetica,sans-Serif" font-size="10.00"> &lt; Eigen::Vector3d &gt;</text>
</g>
<!-- Node6 -->
<g id="node6" class="node">
<title>Node6</title>
<g id="a_node6"><a xlink:title=" ">
<polygon fill="white" stroke="#bfbfbf" points="436.5,-337.5 436.5,-394.5 465.5,-394.5 465.5,-337.5 436.5,-337.5"/>
<text text-anchor="middle" x="451" y="-382.5" font-family="Helvetica,sans-Serif" font-size="10.00">T</text>
<polyline fill="none" stroke="#bfbfbf" points="436.5,-375.5 465.5,-375.5 "/>
<text text-anchor="middle" x="451" y="-363.5" font-family="Helvetica,sans-Serif" font-size="10.00"> </text>
<polyline fill="none" stroke="#bfbfbf" points="436.5,-356.5 465.5,-356.5 "/>
<text text-anchor="middle" x="451" y="-344.5" font-family="Helvetica,sans-Serif" font-size="10.00"> </text>
</a>
</g>
</g>
<!-- Node6&#45;&gt;Node5 -->
<g id="edge5" class="edge">
<title>Node6&#45;&gt;Node5</title>
<path fill="none" stroke="#404040" d="M451,-337.4C451,-326.55 451,-313.87 451,-302.05"/>
<polygon fill="none" stroke="#404040" points="451,-301.68 447,-295.68 451,-289.68 455,-295.68 451,-301.68"/>
<text text-anchor="middle" x="480" y="-311" font-family="Helvetica,sans-Serif" font-size="10.00"> +elements</text>
</g>
</g>
</svg>
