<?xml version="1.0" encoding="UTF-8" standalone="no"?>
<!DOCTYPE svg PUBLIC "-//W3C//DTD SVG 1.1//EN"
 "http://www.w3.org/Graphics/SVG/1.1/DTD/svg11.dtd">
<!-- Generated by graphviz version 2.43.0 (0)
 -->
<!-- Title: ad_framwork::data_structure::Node Pages: 1 -->
<svg width="305pt" height="425pt"
 viewBox="0.00 0.00 304.50 425.00" xmlns="http://www.w3.org/2000/svg" xmlns:xlink="http://www.w3.org/1999/xlink">
<g id="graph0" class="graph" transform="scale(1 1) rotate(0) translate(4 421)">
<title>ad_framwork::data_structure::Node</title>
<polygon fill="white" stroke="transparent" points="-4,4 -4,-421 300.5,-421 300.5,4 -4,4"/>
<!-- Node1 -->
<g id="node1" class="node">
<title>Node1</title>
<g id="a_node1"><a xlink:title=" ">
<polygon fill="#bfbfbf" stroke="black" points="12.5,-0.5 12.5,-90.5 296.5,-90.5 296.5,-0.5 12.5,-0.5"/>
<text text-anchor="middle" x="154.5" y="-78.5" font-family="Helvetica,sans-Serif" font-size="10.00">ad_framwork::data_structure::Node</text>
<polyline fill="none" stroke="black" points="12.5,-71.5 296.5,-71.5 "/>
<text text-anchor="middle" x="154.5" y="-59.5" font-family="Helvetica,sans-Serif" font-size="10.00"> </text>
<polyline fill="none" stroke="black" points="12.5,-52.5 296.5,-52.5 "/>
<text text-anchor="start" x="20.5" y="-40.5" font-family="Helvetica,sans-Serif" font-size="10.00">+ Node()=default</text>
<text text-anchor="start" x="20.5" y="-29.5" font-family="Helvetica,sans-Serif" font-size="10.00">+ Node(const Eigen::Vector3d &amp;point)</text>
<text text-anchor="start" x="20.5" y="-18.5" font-family="Helvetica,sans-Serif" font-size="10.00">+ double Distance(const Eigen::Vector3d &amp;point) const</text>
<text text-anchor="start" x="20.5" y="-7.5" font-family="Helvetica,sans-Serif" font-size="10.00">+ double Distance(const Node &amp;point) const</text>
</a>
</g>
</g>
<!-- Node2 -->
<g id="node2" class="node">
<title>Node2</title>
<g id="a_node2"><a xlink:title=" ">
<polygon fill="white" stroke="#bfbfbf" points="0,-149.5 0,-206.5 137,-206.5 137,-149.5 0,-149.5"/>
<text text-anchor="middle" x="68.5" y="-194.5" font-family="Helvetica,sans-Serif" font-size="10.00">std::shared_ptr&lt; Node &gt;</text>
<polyline fill="none" stroke="#bfbfbf" points="0,-187.5 137,-187.5 "/>
<text text-anchor="start" x="8" y="-175.5" font-family="Helvetica,sans-Serif" font-size="10.00">+ Node ptr</text>
<polyline fill="none" stroke="#bfbfbf" points="0,-168.5 137,-168.5 "/>
<text text-anchor="start" x="8" y="-156.5" font-family="Helvetica,sans-Serif" font-size="10.00">+ Node * operator&#45;&gt;()</text>
</a>
</g>
</g>
<!-- Node2&#45;&gt;Node1 -->
<g id="edge1" class="edge">
<title>Node2&#45;&gt;Node1</title>
<path fill="none" stroke="#404040" d="M86.74,-149.32C96.05,-135.2 107.71,-117.51 118.72,-100.8"/>
<polygon fill="none" stroke="#404040" points="118.86,-100.59 118.82,-93.38 125.46,-90.57 125.5,-97.78 118.86,-100.59"/>
<text text-anchor="middle" x="130" y="-123" font-family="Helvetica,sans-Serif" font-size="10.00"> +left_</text>
<text text-anchor="middle" x="130" y="-112" font-family="Helvetica,sans-Serif" font-size="10.00">+right_</text>
</g>
<!-- Node3 -->
<g id="node3" class="node">
<title>Node3</title>
<g id="a_node3"><a xlink:title=" ">
<polygon fill="white" stroke="#bfbfbf" points="9.5,-254.5 9.5,-311.5 127.5,-311.5 127.5,-254.5 9.5,-254.5"/>
<text text-anchor="middle" x="68.5" y="-299.5" font-family="Helvetica,sans-Serif" font-size="10.00">std::shared_ptr&lt; T &gt;</text>
<polyline fill="none" stroke="#bfbfbf" points="9.5,-292.5 127.5,-292.5 "/>
<text text-anchor="middle" x="68.5" y="-280.5" font-family="Helvetica,sans-Serif" font-size="10.00"> </text>
<polyline fill="none" stroke="#bfbfbf" points="9.5,-273.5 127.5,-273.5 "/>
<text text-anchor="start" x="17.5" y="-261.5" font-family="Helvetica,sans-Serif" font-size="10.00">+ T * operator&#45;&gt;()</text>
</a>
</g>
</g>
<!-- Node3&#45;&gt;Node2 -->
<g id="edge2" class="edge">
<title>Node3&#45;&gt;Node2</title>
<path fill="none" stroke="orange" d="M68.5,-244.29C68.5,-231.84 68.5,-218.23 68.5,-206.68"/>
<polygon fill="orange" stroke="orange" points="65,-244.4 68.5,-254.4 72,-244.4 65,-244.4"/>
<text text-anchor="middle" x="94.5" y="-228" font-family="Helvetica,sans-Serif" font-size="10.00"> &lt; Node &gt;</text>
</g>
<!-- Node4 -->
<g id="node4" class="node">
<title>Node4</title>
<g id="a_node4"><a xlink:title=" ">
<polygon fill="white" stroke="#bfbfbf" points="54,-359.5 54,-416.5 83,-416.5 83,-359.5 54,-359.5"/>
<text text-anchor="middle" x="68.5" y="-404.5" font-family="Helvetica,sans-Serif" font-size="10.00">T</text>
<polyline fill="none" stroke="#bfbfbf" points="54,-397.5 83,-397.5 "/>
<text text-anchor="middle" x="68.5" y="-385.5" font-family="Helvetica,sans-Serif" font-size="10.00"> </text>
<polyline fill="none" stroke="#bfbfbf" points="54,-378.5 83,-378.5 "/>
<text text-anchor="middle" x="68.5" y="-366.5" font-family="Helvetica,sans-Serif" font-size="10.00"> </text>
</a>
</g>
</g>
<!-- Node4&#45;&gt;Node3 -->
<g id="edge3" class="edge">
<title>Node4&#45;&gt;Node3</title>
<path fill="none" stroke="#404040" d="M68.5,-359.4C68.5,-348.55 68.5,-335.87 68.5,-324.05"/>
<polygon fill="none" stroke="#404040" points="68.5,-323.68 64.5,-317.68 68.5,-311.68 72.5,-317.68 68.5,-323.68"/>
<text text-anchor="middle" x="81" y="-333" font-family="Helvetica,sans-Serif" font-size="10.00"> +ptr</text>
</g>
<!-- Node5 -->
<g id="node5" class="node">
<title>Node5</title>
<g id="a_node5"><a xlink:title=" ">
<polygon fill="white" stroke="#bfbfbf" points="155,-149.5 155,-206.5 214,-206.5 214,-149.5 155,-149.5"/>
<text text-anchor="middle" x="184.5" y="-194.5" font-family="Helvetica,sans-Serif" font-size="10.00">Vector3d</text>
<polyline fill="none" stroke="#bfbfbf" points="155,-187.5 214,-187.5 "/>
<text text-anchor="middle" x="184.5" y="-175.5" font-family="Helvetica,sans-Serif" font-size="10.00"> </text>
<polyline fill="none" stroke="#bfbfbf" points="155,-168.5 214,-168.5 "/>
<text text-anchor="middle" x="184.5" y="-156.5" font-family="Helvetica,sans-Serif" font-size="10.00"> </text>
</a>
</g>
</g>
<!-- Node5&#45;&gt;Node1 -->
<g id="edge4" class="edge">
<title>Node5&#45;&gt;Node1</title>
<path fill="none" stroke="#404040" d="M178.14,-149.32C175.01,-135.73 171.13,-118.84 167.42,-102.7"/>
<polygon fill="none" stroke="#404040" points="167.32,-102.26 162.08,-97.31 164.63,-90.57 169.87,-95.52 167.32,-102.26"/>
<text text-anchor="middle" x="193.5" y="-117.5" font-family="Helvetica,sans-Serif" font-size="10.00"> +point_</text>
</g>
</g>
</svg>
