<?xml version="1.0" encoding="UTF-8" standalone="no"?>
<!DOCTYPE svg PUBLIC "-//W3C//DTD SVG 1.1//EN"
 "http://www.w3.org/Graphics/SVG/1.1/DTD/svg11.dtd">
<!-- Generated by graphviz version 2.43.0 (0)
 -->
<!-- Title: ad_framework::DataReader Pages: 1 -->
<svg width="830pt" height="612pt"
 viewBox="0.00 0.00 829.50 612.00" xmlns="http://www.w3.org/2000/svg" xmlns:xlink="http://www.w3.org/1999/xlink">
<g id="graph0" class="graph" transform="scale(1 1) rotate(0) translate(4 608)">
<title>ad_framework::DataReader</title>
<polygon fill="white" stroke="transparent" points="-4,4 -4,-608 825.5,-608 825.5,4 -4,4"/>
<!-- Node1 -->
<g id="node1" class="node">
<title>Node1</title>
<g id="a_node1"><a xlink:title=" ">
<polygon fill="#bfbfbf" stroke="black" points="185.5,-0.5 185.5,-277.5 610.5,-277.5 610.5,-0.5 185.5,-0.5"/>
<text text-anchor="middle" x="398" y="-265.5" font-family="Helvetica,sans-Serif" font-size="10.00">ad_framework::DataReader</text>
<polyline fill="none" stroke="black" points="185.5,-258.5 610.5,-258.5 "/>
<text text-anchor="middle" x="398" y="-246.5" font-family="Helvetica,sans-Serif" font-size="10.00"> </text>
<polyline fill="none" stroke="black" points="185.5,-239.5 610.5,-239.5 "/>
<text text-anchor="start" x="193.5" y="-227.5" font-family="Helvetica,sans-Serif" font-size="10.00">+ DataReader(const fs::path path)</text>
<text text-anchor="start" x="193.5" y="-216.5" font-family="Helvetica,sans-Serif" font-size="10.00">+ virtual ~DataReader()=default</text>
<text text-anchor="start" x="193.5" y="-205.5" font-family="Helvetica,sans-Serif" font-size="10.00">+ size_t GetSize() const</text>
<text text-anchor="start" x="193.5" y="-194.5" font-family="Helvetica,sans-Serif" font-size="10.00">+ bool LoadIndex(size_t index)</text>
<text text-anchor="start" x="193.5" y="-183.5" font-family="Helvetica,sans-Serif" font-size="10.00">+ size_t GetIndex() const</text>
<text text-anchor="start" x="193.5" y="-172.5" font-family="Helvetica,sans-Serif" font-size="10.00">+ fs::path GetPath() const</text>
<text text-anchor="start" x="193.5" y="-161.5" font-family="Helvetica,sans-Serif" font-size="10.00">+ const ImagePtr GetGrayImage() const</text>
<text text-anchor="start" x="193.5" y="-150.5" font-family="Helvetica,sans-Serif" font-size="10.00">+ const ImagePtr GetColorImage() const</text>
<text text-anchor="start" x="193.5" y="-139.5" font-family="Helvetica,sans-Serif" font-size="10.00">+ const StereoImagePtr GetGrayStereoImage() const</text>
<text text-anchor="start" x="193.5" y="-128.5" font-family="Helvetica,sans-Serif" font-size="10.00">+ const StereoImagePtr GetColorStereoImage() const</text>
<text text-anchor="start" x="193.5" y="-117.5" font-family="Helvetica,sans-Serif" font-size="10.00">+ const PointCloudPtr GetPointCloud() const</text>
<text text-anchor="start" x="193.5" y="-106.5" font-family="Helvetica,sans-Serif" font-size="10.00">+ const CalibrationPtr GetCalibration() const</text>
<text text-anchor="start" x="193.5" y="-95.5" font-family="Helvetica,sans-Serif" font-size="10.00"># void SetSize(size_t size)</text>
<text text-anchor="start" x="193.5" y="-84.5" font-family="Helvetica,sans-Serif" font-size="10.00"># void SetCalibration(CalibrationPtr calibration)</text>
<text text-anchor="start" x="193.5" y="-73.5" font-family="Helvetica,sans-Serif" font-size="10.00">&#45; virtual size_t ReadSize()=0</text>
<text text-anchor="start" x="193.5" y="-62.5" font-family="Helvetica,sans-Serif" font-size="10.00">&#45; virtual ImagePtr ReadGrayImage(size_t index, fs::path base_path)=0</text>
<text text-anchor="start" x="193.5" y="-51.5" font-family="Helvetica,sans-Serif" font-size="10.00">&#45; virtual ImagePtr ReadColorImage(size_t index, fs::path base_path)=0</text>
<text text-anchor="start" x="193.5" y="-40.5" font-family="Helvetica,sans-Serif" font-size="10.00">&#45; virtual StereoImagePtr ReadGrayStereoImage(size_t index, fs::path base_path)=0</text>
<text text-anchor="start" x="193.5" y="-29.5" font-family="Helvetica,sans-Serif" font-size="10.00">&#45; virtual StereoImagePtr ReadColorStereoImage(size_t index, fs::path base_path)=0</text>
<text text-anchor="start" x="193.5" y="-18.5" font-family="Helvetica,sans-Serif" font-size="10.00">&#45; virtual PointCloudPtr ReadPointCloud(size_t index, fs::path base_path)=0</text>
<text text-anchor="start" x="193.5" y="-7.5" font-family="Helvetica,sans-Serif" font-size="10.00">&#45; virtual CalibrationPtr ReadCalibration(fs::path base_path)=0</text>
</a>
</g>
</g>
<!-- Node2 -->
<g id="node2" class="node">
<title>Node2</title>
<g id="a_node2"><a xlink:title=" ">
<polygon fill="white" stroke="#bfbfbf" points="0,-336.5 0,-393.5 38,-393.5 38,-336.5 0,-336.5"/>
<text text-anchor="middle" x="19" y="-381.5" font-family="Helvetica,sans-Serif" font-size="10.00">path</text>
<polyline fill="none" stroke="#bfbfbf" points="0,-374.5 38,-374.5 "/>
<text text-anchor="middle" x="19" y="-362.5" font-family="Helvetica,sans-Serif" font-size="10.00"> </text>
<polyline fill="none" stroke="#bfbfbf" points="0,-355.5 38,-355.5 "/>
<text text-anchor="middle" x="19" y="-343.5" font-family="Helvetica,sans-Serif" font-size="10.00"> </text>
</a>
</g>
</g>
<!-- Node2&#45;&gt;Node1 -->
<g id="edge1" class="edge">
<title>Node2&#45;&gt;Node1</title>
<path fill="none" stroke="#404040" d="M38.26,-343.39C41.08,-340.78 44.04,-338.24 47,-336 86.43,-306.19 130.91,-277.87 174.62,-252.51"/>
<polygon fill="none" stroke="#404040" points="174.72,-252.45 177.92,-245.99 185.12,-246.46 181.91,-252.92 174.72,-252.45"/>
<text text-anchor="middle" x="118" y="-304.5" font-family="Helvetica,sans-Serif" font-size="10.00"> &#45;path_</text>
</g>
<!-- Node3 -->
<g id="node3" class="node">
<title>Node3</title>
<g id="a_node3"><a xlink:title=" ">
<polygon fill="white" stroke="#bfbfbf" points="56.5,-336.5 56.5,-393.5 199.5,-393.5 199.5,-336.5 56.5,-336.5"/>
<text text-anchor="middle" x="128" y="-381.5" font-family="Helvetica,sans-Serif" font-size="10.00">std::shared_ptr&lt; Image &gt;</text>
<polyline fill="none" stroke="#bfbfbf" points="56.5,-374.5 199.5,-374.5 "/>
<text text-anchor="start" x="64.5" y="-362.5" font-family="Helvetica,sans-Serif" font-size="10.00">+ Image ptr</text>
<polyline fill="none" stroke="#bfbfbf" points="56.5,-355.5 199.5,-355.5 "/>
<text text-anchor="start" x="64.5" y="-343.5" font-family="Helvetica,sans-Serif" font-size="10.00">+ Image * operator&#45;&gt;()</text>
</a>
</g>
</g>
<!-- Node3&#45;&gt;Node1 -->
<g id="edge2" class="edge">
<title>Node3&#45;&gt;Node1</title>
<path fill="none" stroke="#404040" d="M161.38,-336.31C178.01,-322.51 199.52,-304.67 222.78,-285.37"/>
<polygon fill="none" stroke="#404040" points="222.9,-285.27 224.96,-278.36 232.13,-277.61 230.07,-284.52 222.9,-285.27"/>
<text text-anchor="middle" x="253.5" y="-310" font-family="Helvetica,sans-Serif" font-size="10.00"> &#45;color_image_ptr_</text>
<text text-anchor="middle" x="253.5" y="-299" font-family="Helvetica,sans-Serif" font-size="10.00">&#45;gray_image_ptr_</text>
</g>
<!-- Node4 -->
<g id="node4" class="node">
<title>Node4</title>
<g id="a_node4"><a xlink:title=" ">
<polygon fill="white" stroke="#bfbfbf" points="339,-441.5 339,-498.5 457,-498.5 457,-441.5 339,-441.5"/>
<text text-anchor="middle" x="398" y="-486.5" font-family="Helvetica,sans-Serif" font-size="10.00">std::shared_ptr&lt; T &gt;</text>
<polyline fill="none" stroke="#bfbfbf" points="339,-479.5 457,-479.5 "/>
<text text-anchor="middle" x="398" y="-467.5" font-family="Helvetica,sans-Serif" font-size="10.00"> </text>
<polyline fill="none" stroke="#bfbfbf" points="339,-460.5 457,-460.5 "/>
<text text-anchor="start" x="347" y="-448.5" font-family="Helvetica,sans-Serif" font-size="10.00">+ T * operator&#45;&gt;()</text>
</a>
</g>
</g>
<!-- Node4&#45;&gt;Node3 -->
<g id="edge3" class="edge">
<title>Node4&#45;&gt;Node3</title>
<path fill="none" stroke="orange" d="M329.15,-442.74C289.49,-427.61 239.71,-408.61 199.59,-393.31"/>
<polygon fill="orange" stroke="orange" points="328.16,-446.1 338.75,-446.4 330.65,-439.56 328.16,-446.1"/>
<text text-anchor="middle" x="300.5" y="-415" font-family="Helvetica,sans-Serif" font-size="10.00"> &lt; Image &gt;</text>
</g>
<!-- Node6 -->
<g id="node6" class="node">
<title>Node6</title>
<g id="a_node6"><a xlink:title=" ">
<polygon fill="white" stroke="#bfbfbf" points="218,-336.5 218,-393.5 392,-393.5 392,-336.5 218,-336.5"/>
<text text-anchor="middle" x="305" y="-381.5" font-family="Helvetica,sans-Serif" font-size="10.00">std::shared_ptr&lt; StereoImage &gt;</text>
<polyline fill="none" stroke="#bfbfbf" points="218,-374.5 392,-374.5 "/>
<text text-anchor="start" x="226" y="-362.5" font-family="Helvetica,sans-Serif" font-size="10.00">+ StereoImage ptr</text>
<polyline fill="none" stroke="#bfbfbf" points="218,-355.5 392,-355.5 "/>
<text text-anchor="start" x="226" y="-343.5" font-family="Helvetica,sans-Serif" font-size="10.00">+ StereoImage * operator&#45;&gt;()</text>
</a>
</g>
</g>
<!-- Node4&#45;&gt;Node6 -->
<g id="edge6" class="edge">
<title>Node4&#45;&gt;Node6</title>
<path fill="none" stroke="orange" d="M366.29,-433.88C354.44,-420.75 341.15,-406.04 329.99,-393.68"/>
<polygon fill="orange" stroke="orange" points="363.78,-436.32 373.08,-441.4 368.97,-431.63 363.78,-436.32"/>
<text text-anchor="middle" x="398" y="-415" font-family="Helvetica,sans-Serif" font-size="10.00"> &lt; StereoImage &gt;</text>
</g>
<!-- Node8 -->
<g id="node8" class="node">
<title>Node8</title>
<g id="a_node8"><a xlink:title=" ">
<polygon fill="white" stroke="#bfbfbf" points="410.5,-336.5 410.5,-393.5 575.5,-393.5 575.5,-336.5 410.5,-336.5"/>
<text text-anchor="middle" x="493" y="-381.5" font-family="Helvetica,sans-Serif" font-size="10.00">std::shared_ptr&lt; Calibration &gt;</text>
<polyline fill="none" stroke="#bfbfbf" points="410.5,-374.5 575.5,-374.5 "/>
<text text-anchor="start" x="418.5" y="-362.5" font-family="Helvetica,sans-Serif" font-size="10.00">+ Calibration ptr</text>
<polyline fill="none" stroke="#bfbfbf" points="410.5,-355.5 575.5,-355.5 "/>
<text text-anchor="start" x="418.5" y="-343.5" font-family="Helvetica,sans-Serif" font-size="10.00">+ Calibration * operator&#45;&gt;()</text>
</a>
</g>
</g>
<!-- Node4&#45;&gt;Node8 -->
<g id="edge9" class="edge">
<title>Node4&#45;&gt;Node8</title>
<path fill="none" stroke="orange" d="M435.16,-434.24C438.88,-430.5 442.56,-426.71 446,-423 454.64,-413.69 463.62,-403.06 471.4,-393.52"/>
<polygon fill="orange" stroke="orange" points="432.65,-431.8 427.98,-441.31 437.56,-436.78 432.65,-431.8"/>
<text text-anchor="middle" x="494.5" y="-415" font-family="Helvetica,sans-Serif" font-size="10.00"> &lt; Calibration &gt;</text>
</g>
<!-- Node9 -->
<g id="node9" class="node">
<title>Node9</title>
<g id="a_node9"><a xlink:title=" ">
<polygon fill="white" stroke="#bfbfbf" points="594,-336.5 594,-393.5 758,-393.5 758,-336.5 594,-336.5"/>
<text text-anchor="middle" x="676" y="-381.5" font-family="Helvetica,sans-Serif" font-size="10.00">std::shared_ptr&lt; PointCloud &gt;</text>
<polyline fill="none" stroke="#bfbfbf" points="594,-374.5 758,-374.5 "/>
<text text-anchor="start" x="602" y="-362.5" font-family="Helvetica,sans-Serif" font-size="10.00">+ PointCloud ptr</text>
<polyline fill="none" stroke="#bfbfbf" points="594,-355.5 758,-355.5 "/>
<text text-anchor="start" x="602" y="-343.5" font-family="Helvetica,sans-Serif" font-size="10.00">+ PointCloud * operator&#45;&gt;()</text>
</a>
</g>
</g>
<!-- Node4&#45;&gt;Node9 -->
<g id="edge11" class="edge">
<title>Node4&#45;&gt;Node9</title>
<path fill="none" stroke="orange" d="M466.85,-447.5C489.62,-440.09 515.01,-431.51 538,-423 562.43,-413.96 588.95,-403.23 612.15,-393.53"/>
<polygon fill="orange" stroke="orange" points="465.7,-444.2 457.26,-450.6 467.85,-450.86 465.7,-444.2"/>
<text text-anchor="middle" x="603.5" y="-415" font-family="Helvetica,sans-Serif" font-size="10.00"> &lt; PointCloud &gt;</text>
</g>
<!-- Node5 -->
<g id="node5" class="node">
<title>Node5</title>
<g id="a_node5"><a xlink:title=" ">
<polygon fill="white" stroke="#bfbfbf" points="383.5,-546.5 383.5,-603.5 412.5,-603.5 412.5,-546.5 383.5,-546.5"/>
<text text-anchor="middle" x="398" y="-591.5" font-family="Helvetica,sans-Serif" font-size="10.00">T</text>
<polyline fill="none" stroke="#bfbfbf" points="383.5,-584.5 412.5,-584.5 "/>
<text text-anchor="middle" x="398" y="-572.5" font-family="Helvetica,sans-Serif" font-size="10.00"> </text>
<polyline fill="none" stroke="#bfbfbf" points="383.5,-565.5 412.5,-565.5 "/>
<text text-anchor="middle" x="398" y="-553.5" font-family="Helvetica,sans-Serif" font-size="10.00"> </text>
</a>
</g>
</g>
<!-- Node5&#45;&gt;Node4 -->
<g id="edge4" class="edge">
<title>Node5&#45;&gt;Node4</title>
<path fill="none" stroke="#404040" d="M398,-546.4C398,-535.55 398,-522.87 398,-511.05"/>
<polygon fill="none" stroke="#404040" points="398,-510.68 394,-504.68 398,-498.68 402,-504.68 398,-510.68"/>
<text text-anchor="middle" x="410.5" y="-520" font-family="Helvetica,sans-Serif" font-size="10.00"> +ptr</text>
</g>
<!-- Node6&#45;&gt;Node1 -->
<g id="edge5" class="edge">
<title>Node6&#45;&gt;Node1</title>
<path fill="none" stroke="#404040" d="M312.14,-336.22C315.6,-323.78 320.08,-309 325,-296 325.89,-293.65 326.8,-291.29 327.73,-288.92"/>
<polygon fill="none" stroke="#404040" points="327.74,-288.89 326.25,-281.84 332.19,-277.75 333.68,-284.8 327.74,-288.89"/>
<text text-anchor="middle" x="388.5" y="-310" font-family="Helvetica,sans-Serif" font-size="10.00"> &#45;color_stereo_image_ptr_</text>
<text text-anchor="middle" x="388.5" y="-299" font-family="Helvetica,sans-Serif" font-size="10.00">&#45;gray_stereo_image_ptr_</text>
</g>
<!-- Node7 -->
<g id="node7" class="node">
<title>Node7</title>
<g id="a_node7"><a xlink:title=" ">
<polygon fill="white" stroke="#bfbfbf" points="776.5,-336.5 776.5,-393.5 821.5,-393.5 821.5,-336.5 776.5,-336.5"/>
<text text-anchor="middle" x="799" y="-381.5" font-family="Helvetica,sans-Serif" font-size="10.00">size_t</text>
<polyline fill="none" stroke="#bfbfbf" points="776.5,-374.5 821.5,-374.5 "/>
<text text-anchor="middle" x="799" y="-362.5" font-family="Helvetica,sans-Serif" font-size="10.00"> </text>
<polyline fill="none" stroke="#bfbfbf" points="776.5,-355.5 821.5,-355.5 "/>
<text text-anchor="middle" x="799" y="-343.5" font-family="Helvetica,sans-Serif" font-size="10.00"> </text>
</a>
</g>
</g>
<!-- Node7&#45;&gt;Node1 -->
<g id="edge7" class="edge">
<title>Node7&#45;&gt;Node1</title>
<path fill="none" stroke="#404040" d="M776.45,-343.15C773.36,-340.63 770.16,-338.18 767,-336 721.65,-304.74 670.74,-274.78 621.56,-248.1"/>
<polygon fill="none" stroke="#404040" points="621.33,-247.98 614.15,-248.65 610.77,-242.28 617.95,-241.61 621.33,-247.98"/>
<text text-anchor="middle" x="777.5" y="-310" font-family="Helvetica,sans-Serif" font-size="10.00"> &#45;current_index_</text>
<text text-anchor="middle" x="777.5" y="-299" font-family="Helvetica,sans-Serif" font-size="10.00">&#45;size_</text>
</g>
<!-- Node8&#45;&gt;Node1 -->
<g id="edge8" class="edge">
<title>Node8&#45;&gt;Node1</title>
<path fill="none" stroke="#404040" d="M481.16,-336.08C475.68,-323.17 468.71,-306.73 461.15,-288.89"/>
<polygon fill="none" stroke="#404040" points="461.05,-288.67 455.03,-284.71 456.37,-277.62 462.39,-281.58 461.05,-288.67"/>
<text text-anchor="middle" x="504" y="-304.5" font-family="Helvetica,sans-Serif" font-size="10.00"> &#45;calibration_</text>
</g>
<!-- Node9&#45;&gt;Node1 -->
<g id="edge10" class="edge">
<title>Node9&#45;&gt;Node1</title>
<path fill="none" stroke="#404040" d="M641.63,-336.31C624.51,-322.51 602.36,-304.67 578.41,-285.37"/>
<polygon fill="none" stroke="#404040" points="578.13,-285.14 570.95,-284.49 568.78,-277.61 575.96,-278.26 578.13,-285.14"/>
<text text-anchor="middle" x="649.5" y="-304.5" font-family="Helvetica,sans-Serif" font-size="10.00"> &#45;point_cloud_</text>
</g>
</g>
</svg>
