<?xml version="1.0" encoding="UTF-8" standalone="no"?>
<!DOCTYPE svg PUBLIC "-//W3C//DTD SVG 1.1//EN"
 "http://www.w3.org/Graphics/SVG/1.1/DTD/svg11.dtd">
<!-- Generated by graphviz version 2.43.0 (0)
 -->
<!-- Title: ad_framework::data_structure::Circle Pages: 1 -->
<svg width="306pt" height="248pt"
 viewBox="0.00 0.00 306.00 248.00" xmlns="http://www.w3.org/2000/svg" xmlns:xlink="http://www.w3.org/1999/xlink">
<g id="graph0" class="graph" transform="scale(1 1) rotate(0) translate(4 244)">
<title>ad_framework::data_structure::Circle</title>
<polygon fill="white" stroke="transparent" points="-4,4 -4,-244 302,-244 302,4 -4,4"/>
<!-- Node1 -->
<g id="node1" class="node">
<title>Node1</title>
<g id="a_node1"><a xlink:title=" ">
<polygon fill="#bfbfbf" stroke="black" points="4,-0.5 4,-112.5 294,-112.5 294,-0.5 4,-0.5"/>
<text text-anchor="middle" x="149" y="-100.5" font-family="Helvetica,sans-Serif" font-size="10.00">ad_framework::data_structure::Circle</text>
<polyline fill="none" stroke="black" points="4,-93.5 294,-93.5 "/>
<text text-anchor="start" x="12" y="-81.5" font-family="Helvetica,sans-Serif" font-size="10.00">+ Point center</text>
<text text-anchor="start" x="12" y="-70.5" font-family="Helvetica,sans-Serif" font-size="10.00">+ double radius</text>
<text text-anchor="start" x="12" y="-59.5" font-family="Helvetica,sans-Serif" font-size="10.00">&#45; Eigen::Vector3d center_</text>
<text text-anchor="start" x="12" y="-48.5" font-family="Helvetica,sans-Serif" font-size="10.00">&#45; double radius_</text>
<polyline fill="none" stroke="black" points="4,-41.5 294,-41.5 "/>
<text text-anchor="start" x="12" y="-29.5" font-family="Helvetica,sans-Serif" font-size="10.00">+ Circle(const Eigen::Vector3d &amp;center, double radius)</text>
<text text-anchor="start" x="12" y="-18.5" font-family="Helvetica,sans-Serif" font-size="10.00">+ bool IsIn(const Eigen::Vector3d &amp;point) const override</text>
<text text-anchor="start" x="12" y="-7.5" font-family="Helvetica,sans-Serif" font-size="10.00">+ std::string ToString() const override</text>
</a>
</g>
</g>
<!-- Node2 -->
<g id="node2" class="node">
<title>Node2</title>
<g id="a_node2"><a xlink:href="classad__framework_1_1data__structure_1_1Shape.html" target="_top" xlink:title=" ">
<polygon fill="white" stroke="black" points="0,-149.5 0,-239.5 298,-239.5 298,-149.5 0,-149.5"/>
<text text-anchor="middle" x="149" y="-227.5" font-family="Helvetica,sans-Serif" font-size="10.00">ad_framework::data_structure::Shape</text>
<polyline fill="none" stroke="black" points="0,-220.5 298,-220.5 "/>
<text text-anchor="middle" x="149" y="-208.5" font-family="Helvetica,sans-Serif" font-size="10.00"> </text>
<polyline fill="none" stroke="black" points="0,-201.5 298,-201.5 "/>
<text text-anchor="start" x="8" y="-189.5" font-family="Helvetica,sans-Serif" font-size="10.00">+ virtual ~Shape()=default</text>
<text text-anchor="start" x="8" y="-178.5" font-family="Helvetica,sans-Serif" font-size="10.00">+ virtual bool IsIn(const Eigen::Vector3d &amp;point) const =0</text>
<text text-anchor="start" x="8" y="-167.5" font-family="Helvetica,sans-Serif" font-size="10.00">+ virtual std::string ToString() const =0</text>
<text text-anchor="start" x="8" y="-156.5" font-family="Helvetica,sans-Serif" font-size="10.00">+ virtual ~Shape()=default</text>
</a>
</g>
</g>
<!-- Node2&#45;&gt;Node1 -->
<g id="edge1" class="edge">
<title>Node2&#45;&gt;Node1</title>
<path fill="none" stroke="midnightblue" d="M142.38,-139.31C142.22,-130.61 142.21,-121.59 142.35,-112.87"/>
<polygon fill="none" stroke="midnightblue" points="138.88,-139.44 142.63,-149.34 145.87,-139.26 138.88,-139.44"/>
</g>
<!-- Node2&#45;&gt;Node1 -->
<g id="edge2" class="edge">
<title>Node2&#45;&gt;Node1</title>
<path fill="none" stroke="midnightblue" d="M155.62,-139.31C155.78,-130.61 155.79,-121.59 155.65,-112.87"/>
<polygon fill="none" stroke="midnightblue" points="152.13,-139.26 155.37,-149.34 159.12,-139.44 152.13,-139.26"/>
</g>
</g>
</svg>
