<?xml version="1.0" encoding="UTF-8" standalone="no"?>
<!DOCTYPE svg PUBLIC "-//W3C//DTD SVG 1.1//EN"
 "http://www.w3.org/Graphics/SVG/1.1/DTD/svg11.dtd">
<!-- Generated by graphviz version 2.43.0 (0)
 -->
<!-- Title: ad_framework::data_structure::Polygon Pages: 1 -->
<svg width="539pt" height="425pt"
 viewBox="0.00 0.00 539.00 425.00" xmlns="http://www.w3.org/2000/svg" xmlns:xlink="http://www.w3.org/1999/xlink">
<g id="graph0" class="graph" transform="scale(1 1) rotate(0) translate(4 421)">
<title>ad_framework::data_structure::Polygon</title>
<polygon fill="white" stroke="transparent" points="-4,4 -4,-421 535,-421 535,4 -4,4"/>
<!-- Node1 -->
<g id="node1" class="node">
<title>Node1</title>
<g id="a_node1"><a xlink:title=" ">
<polygon fill="#bfbfbf" stroke="black" points="72,-0.5 72,-79.5 366,-79.5 366,-0.5 72,-0.5"/>
<text text-anchor="middle" x="219" y="-67.5" font-family="Helvetica,sans-Serif" font-size="10.00">ad_framework::data_structure::Polygon</text>
<polyline fill="none" stroke="black" points="72,-60.5 366,-60.5 "/>
<text text-anchor="middle" x="219" y="-48.5" font-family="Helvetica,sans-Serif" font-size="10.00"> </text>
<polyline fill="none" stroke="black" points="72,-41.5 366,-41.5 "/>
<text text-anchor="start" x="80" y="-29.5" font-family="Helvetica,sans-Serif" font-size="10.00">+ Polygon(const std::vector&lt; Eigen::Vector3d &gt; &amp;points)</text>
<text text-anchor="start" x="80" y="-18.5" font-family="Helvetica,sans-Serif" font-size="10.00">+ bool IsIn(const Eigen::Vector3d &amp;point) const override</text>
<text text-anchor="start" x="80" y="-7.5" font-family="Helvetica,sans-Serif" font-size="10.00">+ std::string ToString() const override</text>
</a>
</g>
</g>
<!-- Node2 -->
<g id="node2" class="node">
<title>Node2</title>
<g id="a_node2"><a xlink:href="classad__framework_1_1data__structure_1_1Shape.html" target="_top" xlink:title=" ">
<polygon fill="white" stroke="black" points="0,-127.5 0,-206.5 298,-206.5 298,-127.5 0,-127.5"/>
<text text-anchor="middle" x="149" y="-194.5" font-family="Helvetica,sans-Serif" font-size="10.00">ad_framework::data_structure::Shape</text>
<polyline fill="none" stroke="black" points="0,-187.5 298,-187.5 "/>
<text text-anchor="middle" x="149" y="-175.5" font-family="Helvetica,sans-Serif" font-size="10.00"> </text>
<polyline fill="none" stroke="black" points="0,-168.5 298,-168.5 "/>
<text text-anchor="start" x="8" y="-156.5" font-family="Helvetica,sans-Serif" font-size="10.00">+ virtual ~Shape()=default</text>
<text text-anchor="start" x="8" y="-145.5" font-family="Helvetica,sans-Serif" font-size="10.00">+ virtual bool IsIn(const Eigen::Vector3d &amp;point) const =0</text>
<text text-anchor="start" x="8" y="-134.5" font-family="Helvetica,sans-Serif" font-size="10.00">+ virtual std::string ToString() const =0</text>
</a>
</g>
</g>
<!-- Node2&#45;&gt;Node1 -->
<g id="edge1" class="edge">
<title>Node2&#45;&gt;Node1</title>
<path fill="none" stroke="midnightblue" d="M175.48,-118.72C182.71,-105.81 190.45,-91.98 197.38,-79.61"/>
<polygon fill="none" stroke="midnightblue" points="172.41,-117.04 170.57,-127.48 178.51,-120.46 172.41,-117.04"/>
</g>
<!-- Node3 -->
<g id="node3" class="node">
<title>Node3</title>
<g id="a_node3"><a xlink:title=" ">
<polygon fill="white" stroke="#bfbfbf" points="315.5,-138.5 315.5,-195.5 482.5,-195.5 482.5,-138.5 315.5,-138.5"/>
<text text-anchor="middle" x="399" y="-183.5" font-family="Helvetica,sans-Serif" font-size="10.00">std::vector&lt; Eigen::Vector3d &gt;</text>
<polyline fill="none" stroke="#bfbfbf" points="315.5,-176.5 482.5,-176.5 "/>
<text text-anchor="middle" x="399" y="-164.5" font-family="Helvetica,sans-Serif" font-size="10.00"> </text>
<polyline fill="none" stroke="#bfbfbf" points="315.5,-157.5 482.5,-157.5 "/>
<text text-anchor="middle" x="399" y="-145.5" font-family="Helvetica,sans-Serif" font-size="10.00"> </text>
</a>
</g>
</g>
<!-- Node3&#45;&gt;Node1 -->
<g id="edge2" class="edge">
<title>Node3&#45;&gt;Node1</title>
<path fill="none" stroke="#404040" d="M359.05,-138.26C337.2,-123.09 309.59,-103.91 284.66,-86.6"/>
<polygon fill="none" stroke="#404040" points="284.39,-86.41 277.18,-86.27 274.54,-79.57 281.75,-79.7 284.39,-86.41"/>
<text text-anchor="middle" x="336.5" y="-101" font-family="Helvetica,sans-Serif" font-size="10.00"> &#45;points_</text>
</g>
<!-- Node4 -->
<g id="node4" class="node">
<title>Node4</title>
<g id="a_node4"><a xlink:title=" ">
<polygon fill="white" stroke="#bfbfbf" points="325.5,-254.5 325.5,-311.5 384.5,-311.5 384.5,-254.5 325.5,-254.5"/>
<text text-anchor="middle" x="355" y="-299.5" font-family="Helvetica,sans-Serif" font-size="10.00">Vector3d</text>
<polyline fill="none" stroke="#bfbfbf" points="325.5,-292.5 384.5,-292.5 "/>
<text text-anchor="middle" x="355" y="-280.5" font-family="Helvetica,sans-Serif" font-size="10.00"> </text>
<polyline fill="none" stroke="#bfbfbf" points="325.5,-273.5 384.5,-273.5 "/>
<text text-anchor="middle" x="355" y="-261.5" font-family="Helvetica,sans-Serif" font-size="10.00"> </text>
</a>
</g>
</g>
<!-- Node4&#45;&gt;Node3 -->
<g id="edge3" class="edge">
<title>Node4&#45;&gt;Node3</title>
<path fill="none" stroke="#404040" d="M356.49,-254.46C357.63,-244.92 359.59,-234.29 363,-225 365.32,-218.68 368.41,-212.33 371.81,-206.27"/>
<polygon fill="none" stroke="#404040" points="371.96,-206.03 371.64,-198.82 378.17,-195.76 378.49,-202.96 371.96,-206.03"/>
<text text-anchor="middle" x="392" y="-228" font-family="Helvetica,sans-Serif" font-size="10.00"> +elements</text>
</g>
<!-- Node5 -->
<g id="node5" class="node">
<title>Node5</title>
<g id="a_node5"><a xlink:title=" ">
<polygon fill="white" stroke="#bfbfbf" points="402.5,-254.5 402.5,-311.5 499.5,-311.5 499.5,-254.5 402.5,-254.5"/>
<text text-anchor="middle" x="451" y="-299.5" font-family="Helvetica,sans-Serif" font-size="10.00">std::vector&lt; T &gt;</text>
<polyline fill="none" stroke="#bfbfbf" points="402.5,-292.5 499.5,-292.5 "/>
<text text-anchor="middle" x="451" y="-280.5" font-family="Helvetica,sans-Serif" font-size="10.00"> </text>
<polyline fill="none" stroke="#bfbfbf" points="402.5,-273.5 499.5,-273.5 "/>
<text text-anchor="middle" x="451" y="-261.5" font-family="Helvetica,sans-Serif" font-size="10.00"> </text>
</a>
</g>
</g>
<!-- Node5&#45;&gt;Node3 -->
<g id="edge4" class="edge">
<title>Node5&#45;&gt;Node3</title>
<path fill="none" stroke="orange" d="M434.25,-245.27C426.91,-229.19 418.45,-210.63 411.65,-195.74"/>
<polygon fill="orange" stroke="orange" points="431.08,-246.76 438.41,-254.4 437.45,-243.85 431.08,-246.76"/>
<text text-anchor="middle" x="480" y="-228" font-family="Helvetica,sans-Serif" font-size="10.00"> &lt; Eigen::Vector3d &gt;</text>
</g>
<!-- Node6 -->
<g id="node6" class="node">
<title>Node6</title>
<g id="a_node6"><a xlink:title=" ">
<polygon fill="white" stroke="#bfbfbf" points="436.5,-359.5 436.5,-416.5 465.5,-416.5 465.5,-359.5 436.5,-359.5"/>
<text text-anchor="middle" x="451" y="-404.5" font-family="Helvetica,sans-Serif" font-size="10.00">T</text>
<polyline fill="none" stroke="#bfbfbf" points="436.5,-397.5 465.5,-397.5 "/>
<text text-anchor="middle" x="451" y="-385.5" font-family="Helvetica,sans-Serif" font-size="10.00"> </text>
<polyline fill="none" stroke="#bfbfbf" points="436.5,-378.5 465.5,-378.5 "/>
<text text-anchor="middle" x="451" y="-366.5" font-family="Helvetica,sans-Serif" font-size="10.00"> </text>
</a>
</g>
</g>
<!-- Node6&#45;&gt;Node5 -->
<g id="edge5" class="edge">
<title>Node6&#45;&gt;Node5</title>
<path fill="none" stroke="#404040" d="M451,-359.4C451,-348.55 451,-335.87 451,-324.05"/>
<polygon fill="none" stroke="#404040" points="451,-323.68 447,-317.68 451,-311.68 455,-317.68 451,-323.68"/>
<text text-anchor="middle" x="480" y="-333" font-family="Helvetica,sans-Serif" font-size="10.00"> +elements</text>
</g>
</g>
</svg>
