<?xml version="1.0" encoding="UTF-8" standalone="no"?>
<!DOCTYPE svg PUBLIC "-//W3C//DTD SVG 1.1//EN"
 "http://www.w3.org/Graphics/SVG/1.1/DTD/svg11.dtd">
<!-- Generated by graphviz version 2.43.0 (0)
 -->
<!-- Title: ad_framework::ui::UserInterface Pages: 1 -->
<svg width="904pt" height="524pt"
 viewBox="0.00 0.00 904.00 524.00" xmlns="http://www.w3.org/2000/svg" xmlns:xlink="http://www.w3.org/1999/xlink">
<g id="graph0" class="graph" transform="scale(1 1) rotate(0) translate(4 520)">
<title>ad_framework::ui::UserInterface</title>
<polygon fill="white" stroke="transparent" points="-4,4 -4,-520 900,-520 900,4 -4,4"/>
<!-- Node1 -->
<g id="node1" class="node">
<title>Node1</title>
<g id="a_node1"><a xlink:title=" ">
<polygon fill="#bfbfbf" stroke="black" points="307,-0.5 307,-189.5 658,-189.5 658,-0.5 307,-0.5"/>
<text text-anchor="middle" x="482.5" y="-177.5" font-family="Helvetica,sans-Serif" font-size="10.00">ad_framework::ui::UserInterface</text>
<polyline fill="none" stroke="black" points="307,-170.5 658,-170.5 "/>
<text text-anchor="middle" x="482.5" y="-158.5" font-family="Helvetica,sans-Serif" font-size="10.00"> </text>
<polyline fill="none" stroke="black" points="307,-151.5 658,-151.5 "/>
<text text-anchor="start" x="315" y="-139.5" font-family="Helvetica,sans-Serif" font-size="10.00">+ UserInterface(std::string title, ImVec2 size, ImVec2 pos)</text>
<text text-anchor="start" x="315" y="-128.5" font-family="Helvetica,sans-Serif" font-size="10.00">+ virtual ~UserInterface()=default</text>
<text text-anchor="start" x="315" y="-117.5" font-family="Helvetica,sans-Serif" font-size="10.00">+ virtual void operator()()=0</text>
<text text-anchor="start" x="315" y="-106.5" font-family="Helvetica,sans-Serif" font-size="10.00">+ std::string Title() const</text>
<text text-anchor="start" x="315" y="-95.5" font-family="Helvetica,sans-Serif" font-size="10.00">+ void Rename(std::string title)</text>
<text text-anchor="start" x="315" y="-84.5" font-family="Helvetica,sans-Serif" font-size="10.00">+ ImVec2 Size() const</text>
<text text-anchor="start" x="315" y="-73.5" font-family="Helvetica,sans-Serif" font-size="10.00">+ ImVec2 Pos() const</text>
<text text-anchor="start" x="315" y="-62.5" font-family="Helvetica,sans-Serif" font-size="10.00">+ void Resize(ImVec2 size)</text>
<text text-anchor="start" x="315" y="-51.5" font-family="Helvetica,sans-Serif" font-size="10.00">+ void Move(ImVec2 pos)</text>
<text text-anchor="start" x="315" y="-40.5" font-family="Helvetica,sans-Serif" font-size="10.00">+ void SetParent(UserInterfacePtr parent)</text>
<text text-anchor="start" x="315" y="-29.5" font-family="Helvetica,sans-Serif" font-size="10.00">+ UserInterfacePtr GetParent() const</text>
<text text-anchor="start" x="315" y="-18.5" font-family="Helvetica,sans-Serif" font-size="10.00">+ void AddCallback(std::string name, callback::CallbackPtr callback)</text>
<text text-anchor="start" x="315" y="-7.5" font-family="Helvetica,sans-Serif" font-size="10.00">+ CallbackMap GetCallbacks() const</text>
</a>
</g>
</g>
<!-- Node2 -->
<g id="node2" class="node">
<title>Node2</title>
<g id="a_node2"><a xlink:title=" ">
<polygon fill="white" stroke="#bfbfbf" points="0,-248.5 0,-305.5 249,-305.5 249,-248.5 0,-248.5"/>
<text text-anchor="middle" x="124.5" y="-293.5" font-family="Helvetica,sans-Serif" font-size="10.00">std::enable_shared_from_this&lt; UserInterface &gt;</text>
<polyline fill="none" stroke="#bfbfbf" points="0,-286.5 249,-286.5 "/>
<text text-anchor="middle" x="124.5" y="-274.5" font-family="Helvetica,sans-Serif" font-size="10.00"> </text>
<polyline fill="none" stroke="#bfbfbf" points="0,-267.5 249,-267.5 "/>
<text text-anchor="middle" x="124.5" y="-255.5" font-family="Helvetica,sans-Serif" font-size="10.00"> </text>
</a>
</g>
</g>
<!-- Node2&#45;&gt;Node1 -->
<g id="edge1" class="edge">
<title>Node2&#45;&gt;Node1</title>
<path fill="none" stroke="midnightblue" d="M188.41,-243.87C221.74,-227.11 264.32,-205.7 306.66,-184.41"/>
<polygon fill="none" stroke="midnightblue" points="186.62,-240.85 179.26,-248.47 189.77,-247.1 186.62,-240.85"/>
</g>
<!-- Node3 -->
<g id="node3" class="node">
<title>Node3</title>
<g id="a_node3"><a xlink:title=" ">
<polygon fill="white" stroke="#bfbfbf" points="647.5,-248.5 647.5,-305.5 825.5,-305.5 825.5,-248.5 647.5,-248.5"/>
<text text-anchor="middle" x="736.5" y="-293.5" font-family="Helvetica,sans-Serif" font-size="10.00">std::shared_ptr&lt; UserInterface &gt;</text>
<polyline fill="none" stroke="#bfbfbf" points="647.5,-286.5 825.5,-286.5 "/>
<text text-anchor="start" x="655.5" y="-274.5" font-family="Helvetica,sans-Serif" font-size="10.00">+ UserInterface ptr</text>
<polyline fill="none" stroke="#bfbfbf" points="647.5,-267.5 825.5,-267.5 "/>
<text text-anchor="start" x="655.5" y="-255.5" font-family="Helvetica,sans-Serif" font-size="10.00">+ UserInterface * operator&#45;&gt;()</text>
</a>
</g>
</g>
<!-- Node3&#45;&gt;Node1 -->
<g id="edge2" class="edge">
<title>Node3&#45;&gt;Node1</title>
<path fill="none" stroke="#404040" d="M697.65,-248.47C677.47,-234.17 651.44,-215.72 624.5,-196.63"/>
<polygon fill="none" stroke="#404040" points="624.33,-196.51 617.12,-196.3 614.54,-189.57 621.75,-189.78 624.33,-196.51"/>
<text text-anchor="middle" x="689.5" y="-216.5" font-family="Helvetica,sans-Serif" font-size="10.00"> &#45;parent_</text>
</g>
<!-- Node4 -->
<g id="node4" class="node">
<title>Node4</title>
<g id="a_node4"><a xlink:title=" ">
<polygon fill="white" stroke="#bfbfbf" points="596.5,-353.5 596.5,-410.5 714.5,-410.5 714.5,-353.5 596.5,-353.5"/>
<text text-anchor="middle" x="655.5" y="-398.5" font-family="Helvetica,sans-Serif" font-size="10.00">std::shared_ptr&lt; T &gt;</text>
<polyline fill="none" stroke="#bfbfbf" points="596.5,-391.5 714.5,-391.5 "/>
<text text-anchor="middle" x="655.5" y="-379.5" font-family="Helvetica,sans-Serif" font-size="10.00"> </text>
<polyline fill="none" stroke="#bfbfbf" points="596.5,-372.5 714.5,-372.5 "/>
<text text-anchor="start" x="604.5" y="-360.5" font-family="Helvetica,sans-Serif" font-size="10.00">+ T * operator&#45;&gt;()</text>
</a>
</g>
</g>
<!-- Node4&#45;&gt;Node3 -->
<g id="edge3" class="edge">
<title>Node4&#45;&gt;Node3</title>
<path fill="none" stroke="orange" d="M704.3,-346.65C708.01,-342.96 711.48,-339.07 714.5,-335 720.95,-326.31 725.75,-315.5 729.19,-305.63"/>
<polygon fill="orange" stroke="orange" points="701.9,-344.1 696.92,-353.45 706.65,-349.25 701.9,-344.1"/>
<text text-anchor="middle" x="766.5" y="-327" font-family="Helvetica,sans-Serif" font-size="10.00"> &lt; UserInterface &gt;</text>
</g>
<!-- Node9 -->
<g id="node9" class="node">
<title>Node9</title>
<g id="a_node9"><a xlink:title=" ">
<polygon fill="white" stroke="#bfbfbf" points="336,-248.5 336,-305.5 629,-305.5 629,-248.5 336,-248.5"/>
<text text-anchor="middle" x="482.5" y="-293.5" font-family="Helvetica,sans-Serif" font-size="10.00">std::unordered_map&lt; std::string, callback::CallbackPtr &gt;</text>
<polyline fill="none" stroke="#bfbfbf" points="336,-286.5 629,-286.5 "/>
<text text-anchor="middle" x="482.5" y="-274.5" font-family="Helvetica,sans-Serif" font-size="10.00"> </text>
<polyline fill="none" stroke="#bfbfbf" points="336,-267.5 629,-267.5 "/>
<text text-anchor="middle" x="482.5" y="-255.5" font-family="Helvetica,sans-Serif" font-size="10.00"> </text>
</a>
</g>
</g>
<!-- Node4&#45;&gt;Node9 -->
<g id="edge9" class="edge">
<title>Node4&#45;&gt;Node9</title>
<path fill="none" stroke="#404040" d="M650.26,-353.4C647.02,-342.95 641.81,-331.73 633.5,-324 628.67,-319.51 623.42,-315.46 617.86,-311.8"/>
<polygon fill="none" stroke="#404040" points="617.85,-311.79 610.65,-312.15 607.55,-305.63 614.75,-305.28 617.85,-311.79"/>
<text text-anchor="middle" x="671.5" y="-327" font-family="Helvetica,sans-Serif" font-size="10.00"> +elements</text>
</g>
<!-- Node5 -->
<g id="node5" class="node">
<title>Node5</title>
<g id="a_node5"><a xlink:title=" ">
<polygon fill="white" stroke="#bfbfbf" points="580,-458.5 580,-515.5 609,-515.5 609,-458.5 580,-458.5"/>
<text text-anchor="middle" x="594.5" y="-503.5" font-family="Helvetica,sans-Serif" font-size="10.00">T</text>
<polyline fill="none" stroke="#bfbfbf" points="580,-496.5 609,-496.5 "/>
<text text-anchor="middle" x="594.5" y="-484.5" font-family="Helvetica,sans-Serif" font-size="10.00"> </text>
<polyline fill="none" stroke="#bfbfbf" points="580,-477.5 609,-477.5 "/>
<text text-anchor="middle" x="594.5" y="-465.5" font-family="Helvetica,sans-Serif" font-size="10.00"> </text>
</a>
</g>
</g>
<!-- Node5&#45;&gt;Node4 -->
<g id="edge4" class="edge">
<title>Node5&#45;&gt;Node4</title>
<path fill="none" stroke="#404040" d="M609.11,-461.33C616.23,-449.31 624.95,-434.58 632.91,-421.15"/>
<polygon fill="none" stroke="#404040" points="632.96,-421.06 632.57,-413.86 639.07,-410.74 639.46,-417.94 632.96,-421.06"/>
<text text-anchor="middle" x="640" y="-432" font-family="Helvetica,sans-Serif" font-size="10.00"> +ptr</text>
</g>
<!-- Node10 -->
<g id="node10" class="node">
<title>Node10</title>
<g id="a_node10"><a xlink:title=" ">
<polygon fill="white" stroke="#bfbfbf" points="401,-353.5 401,-410.5 556,-410.5 556,-353.5 401,-353.5"/>
<text text-anchor="middle" x="478.5" y="-398.5" font-family="Helvetica,sans-Serif" font-size="10.00">std::unordered_map&lt; K, T &gt;</text>
<polyline fill="none" stroke="#bfbfbf" points="401,-391.5 556,-391.5 "/>
<text text-anchor="middle" x="478.5" y="-379.5" font-family="Helvetica,sans-Serif" font-size="10.00"> </text>
<polyline fill="none" stroke="#bfbfbf" points="401,-372.5 556,-372.5 "/>
<text text-anchor="middle" x="478.5" y="-360.5" font-family="Helvetica,sans-Serif" font-size="10.00"> </text>
</a>
</g>
</g>
<!-- Node5&#45;&gt;Node10 -->
<g id="edge13" class="edge">
<title>Node5&#45;&gt;Node10</title>
<path fill="none" stroke="#404040" d="M579.81,-472.95C564.51,-459.37 539.88,-437.51 518.74,-418.73"/>
<polygon fill="none" stroke="#404040" points="518.6,-418.6 511.45,-417.61 509.62,-410.64 516.77,-411.63 518.6,-418.6"/>
<text text-anchor="middle" x="569.5" y="-432" font-family="Helvetica,sans-Serif" font-size="10.00"> +elements</text>
</g>
<!-- Node6 -->
<g id="node6" class="node">
<title>Node6</title>
<g id="a_node6"><a xlink:title=" ">
<polygon fill="white" stroke="#bfbfbf" points="843,-248.5 843,-305.5 896,-305.5 896,-248.5 843,-248.5"/>
<text text-anchor="middle" x="869.5" y="-293.5" font-family="Helvetica,sans-Serif" font-size="10.00">ImVec2</text>
<polyline fill="none" stroke="#bfbfbf" points="843,-286.5 896,-286.5 "/>
<text text-anchor="middle" x="869.5" y="-274.5" font-family="Helvetica,sans-Serif" font-size="10.00"> </text>
<polyline fill="none" stroke="#bfbfbf" points="843,-267.5 896,-267.5 "/>
<text text-anchor="middle" x="869.5" y="-255.5" font-family="Helvetica,sans-Serif" font-size="10.00"> </text>
</a>
</g>
</g>
<!-- Node6&#45;&gt;Node1 -->
<g id="edge5" class="edge">
<title>Node6&#45;&gt;Node1</title>
<path fill="none" stroke="#404040" d="M842.89,-253.54C840.13,-251.57 837.3,-249.68 834.5,-248 782.99,-217.04 724.04,-189.01 669.29,-165.7"/>
<polygon fill="none" stroke="#404040" points="669.1,-165.62 662.01,-166.97 658.04,-160.95 665.12,-159.6 669.1,-165.62"/>
<text text-anchor="middle" x="812.5" y="-222" font-family="Helvetica,sans-Serif" font-size="10.00"> &#45;pos_</text>
<text text-anchor="middle" x="812.5" y="-211" font-family="Helvetica,sans-Serif" font-size="10.00">&#45;size_</text>
</g>
<!-- Node7 -->
<g id="node7" class="node">
<title>Node7</title>
<g id="a_node7"><a xlink:title=" ">
<polygon fill="white" stroke="#bfbfbf" points="296,-353.5 296,-410.5 361,-410.5 361,-353.5 296,-353.5"/>
<text text-anchor="middle" x="328.5" y="-398.5" font-family="Helvetica,sans-Serif" font-size="10.00">std::string</text>
<polyline fill="none" stroke="#bfbfbf" points="296,-391.5 361,-391.5 "/>
<text text-anchor="middle" x="328.5" y="-379.5" font-family="Helvetica,sans-Serif" font-size="10.00"> </text>
<polyline fill="none" stroke="#bfbfbf" points="296,-372.5 361,-372.5 "/>
<text text-anchor="middle" x="328.5" y="-360.5" font-family="Helvetica,sans-Serif" font-size="10.00"> </text>
</a>
</g>
</g>
<!-- Node7&#45;&gt;Node1 -->
<g id="edge6" class="edge">
<title>Node7&#45;&gt;Node1</title>
<path fill="none" stroke="#404040" d="M310.81,-353.44C295.46,-325.76 278.07,-282.41 294.5,-248 303.04,-230.12 314.82,-213.67 328.35,-198.72"/>
<polygon fill="none" stroke="#404040" points="328.74,-198.32 329.97,-191.21 337,-189.61 335.77,-196.72 328.74,-198.32"/>
<text text-anchor="middle" x="310.5" y="-274.5" font-family="Helvetica,sans-Serif" font-size="10.00"> &#45;title_</text>
</g>
<!-- Node7&#45;&gt;Node9 -->
<g id="edge10" class="edge">
<title>Node7&#45;&gt;Node9</title>
<path fill="none" stroke="#404040" d="M361.08,-358.33C376.33,-347.79 394.78,-335.16 411.5,-324 417.29,-320.14 423.37,-316.13 429.44,-312.16"/>
<polygon fill="none" stroke="#404040" points="429.53,-312.1 432.37,-305.47 439.58,-305.55 436.74,-312.17 429.53,-312.1"/>
<text text-anchor="middle" x="428.5" y="-327" font-family="Helvetica,sans-Serif" font-size="10.00"> +keys</text>
</g>
<!-- Node8 -->
<g id="node8" class="node">
<title>Node8</title>
<g id="a_node8"><a xlink:title=" ">
<polygon fill="white" stroke="#bfbfbf" points="258,-458.5 258,-515.5 399,-515.5 399,-458.5 258,-458.5"/>
<text text-anchor="middle" x="328.5" y="-503.5" font-family="Helvetica,sans-Serif" font-size="10.00">std::basic_string&lt; Char &gt;</text>
<polyline fill="none" stroke="#bfbfbf" points="258,-496.5 399,-496.5 "/>
<text text-anchor="middle" x="328.5" y="-484.5" font-family="Helvetica,sans-Serif" font-size="10.00"> </text>
<polyline fill="none" stroke="#bfbfbf" points="258,-477.5 399,-477.5 "/>
<text text-anchor="middle" x="328.5" y="-465.5" font-family="Helvetica,sans-Serif" font-size="10.00"> </text>
</a>
</g>
</g>
<!-- Node8&#45;&gt;Node7 -->
<g id="edge7" class="edge">
<title>Node8&#45;&gt;Node7</title>
<path fill="none" stroke="midnightblue" d="M328.5,-448.29C328.5,-435.84 328.5,-422.23 328.5,-410.68"/>
<polygon fill="none" stroke="midnightblue" points="325,-448.4 328.5,-458.4 332,-448.4 325,-448.4"/>
</g>
<!-- Node9&#45;&gt;Node1 -->
<g id="edge8" class="edge">
<title>Node9&#45;&gt;Node1</title>
<path fill="none" stroke="#404040" d="M482.5,-248.27C482.5,-235.41 482.5,-219.23 482.5,-202.26"/>
<polygon fill="none" stroke="#404040" points="482.5,-201.79 478.5,-195.79 482.5,-189.79 486.5,-195.79 482.5,-201.79"/>
<text text-anchor="middle" x="511.5" y="-216.5" font-family="Helvetica,sans-Serif" font-size="10.00"> &#45;callbacks_</text>
</g>
<!-- Node10&#45;&gt;Node9 -->
<g id="edge11" class="edge">
<title>Node10&#45;&gt;Node9</title>
<path fill="none" stroke="orange" d="M451.22,-344.01C449.06,-337.48 448.42,-330.64 450.5,-324 452.51,-317.59 455.76,-311.3 459.44,-305.52"/>
<polygon fill="orange" stroke="orange" points="448.08,-345.56 455.33,-353.29 454.49,-342.73 448.08,-345.56"/>
<text text-anchor="middle" x="542" y="-327" font-family="Helvetica,sans-Serif" font-size="10.00"> &lt; std::string, callback::CallbackPtr &gt;</text>
</g>
<!-- Node11 -->
<g id="node11" class="node">
<title>Node11</title>
<g id="a_node11"><a xlink:title=" ">
<polygon fill="white" stroke="#bfbfbf" points="464,-458.5 464,-515.5 493,-515.5 493,-458.5 464,-458.5"/>
<text text-anchor="middle" x="478.5" y="-503.5" font-family="Helvetica,sans-Serif" font-size="10.00">K</text>
<polyline fill="none" stroke="#bfbfbf" points="464,-496.5 493,-496.5 "/>
<text text-anchor="middle" x="478.5" y="-484.5" font-family="Helvetica,sans-Serif" font-size="10.00"> </text>
<polyline fill="none" stroke="#bfbfbf" points="464,-477.5 493,-477.5 "/>
<text text-anchor="middle" x="478.5" y="-465.5" font-family="Helvetica,sans-Serif" font-size="10.00"> </text>
</a>
</g>
</g>
<!-- Node11&#45;&gt;Node10 -->
<g id="edge12" class="edge">
<title>Node11&#45;&gt;Node10</title>
<path fill="none" stroke="#404040" d="M478.5,-458.4C478.5,-447.55 478.5,-434.87 478.5,-423.05"/>
<polygon fill="none" stroke="#404040" points="478.5,-422.68 474.5,-416.68 478.5,-410.68 482.5,-416.68 478.5,-422.68"/>
<text text-anchor="middle" x="495.5" y="-432" font-family="Helvetica,sans-Serif" font-size="10.00"> +keys</text>
</g>
</g>
</svg>
