<?xml version="1.0" encoding="UTF-8" standalone="no"?>
<!DOCTYPE svg PUBLIC "-//W3C//DTD SVG 1.1//EN"
 "http://www.w3.org/Graphics/SVG/1.1/DTD/svg11.dtd">
<!-- Generated by graphviz version 2.43.0 (0)
 -->
<!-- Title: ad_framework::ui::Frame Pages: 1 -->
<!--zoomable 652 -->
<svg id="main" version="1.1" xmlns="http://www.w3.org/2000/svg" xmlns:xlink="http://www.w3.org/1999/xlink" xml:space="preserve" onload="init(evt)">
<style type="text/css"><![CDATA[
.edge:hover path { stroke: red; }
.edge:hover polygon { stroke: red; fill: red; }
]]></style>
<script type="text/javascript"><![CDATA[
var edges = document.getElementsByTagName('g');
if (edges && edges.length) {
  for (var i=0;i<edges.length;i++) {
    if (edges[i].id.substr(0,4)=='edge') {
      edges[i].setAttribute('class','edge');
    }
  }
}
]]></script>
        <defs>
                <circle id="rim" cx="0" cy="0" r="7"/>
                <circle id="rim2" cx="0" cy="0" r="3.5"/>
                <g id="zoomPlus">
                        <use xlink:href="#rim" fill="#404040">
                                <set attributeName="fill" to="#808080" begin="zoomplus.mouseover" end="zoomplus.mouseout"/>
                        </use>
                        <path d="M-4,0h8M0,-4v8" fill="none" stroke="white" stroke-width="1.5" pointer-events="none"/>
                </g>
                <g id="zoomMin">
                        <use xlink:href="#rim" fill="#404040">
                                <set attributeName="fill" to="#808080" begin="zoomminus.mouseover" end="zoomminus.mouseout"/>
                        </use>
                        <path d="M-4,0h8" fill="none" stroke="white" stroke-width="1.5" pointer-events="none"/>
                </g>
                <g id="dirArrow">
                        <path fill="none" stroke="white" stroke-width="1.5" d="M0,-3.0v7 M-2.5,-0.5L0,-3.0L2.5,-0.5"/>
                </g>
               <g id="resetDef">
                       <use xlink:href="#rim2" fill="#404040">
                               <set attributeName="fill" to="#808080" begin="reset.mouseover" end="reset.mouseout"/>
                       </use>
               </g>
        </defs>

<script type="text/javascript">
var viewWidth = 1074;
var viewHeight = 652;
var sectionId = 'dynsection-1';
</script>
<script xlink:href="svgpan.js"/>
<svg id="graph" class="graph">
<g id="viewport">
<title>ad_framework::ui::Frame</title>
<polygon fill="white" stroke="transparent" points="-4,4 -4,-648 1070.36,-648 1070.36,4 -4,4"/>
<!-- Node1 -->
<g id="node1" class="node">
<title>Node1</title>
<g id="a_node1"><a xlink:title=" ">
<polygon fill="#bfbfbf" stroke="black" points="619.36,-0.5 619.36,-90.5 883.36,-90.5 883.36,-0.5 619.36,-0.5"/>
<text text-anchor="middle" x="751.36" y="-78.5" font-family="Helvetica,sans-Serif" font-size="10.00">ad_framework::ui::Frame</text>
<polyline fill="none" stroke="black" points="619.36,-71.5 883.36,-71.5 "/>
<text text-anchor="middle" x="751.36" y="-59.5" font-family="Helvetica,sans-Serif" font-size="10.00"> </text>
<polyline fill="none" stroke="black" points="619.36,-52.5 883.36,-52.5 "/>
<text text-anchor="start" x="627.36" y="-40.5" font-family="Helvetica,sans-Serif" font-size="10.00">+ Frame(std::string title, ImVec2 size, ImVec2 pos)</text>
<text text-anchor="start" x="627.36" y="-29.5" font-family="Helvetica,sans-Serif" font-size="10.00">+ Frame(std::string title)</text>
<text text-anchor="start" x="627.36" y="-18.5" font-family="Helvetica,sans-Serif" font-size="10.00">+ void operator()() override</text>
<text text-anchor="start" x="627.36" y="-7.5" font-family="Helvetica,sans-Serif" font-size="10.00">+ void AddUI(UserInterfacePtr ui)</text>
</a>
</g>
</g>
<!-- Node2 -->
<g id="node2" class="node">
<title>Node2</title>
<g id="a_node2"><a xlink:href="classad__framework_1_1ui_1_1UserInterface.html" target="_top" xlink:title=" ">
<polygon fill="white" stroke="black" points="176.86,-128.5 176.86,-317.5 527.86,-317.5 527.86,-128.5 176.86,-128.5"/>
<text text-anchor="middle" x="352.36" y="-305.5" font-family="Helvetica,sans-Serif" font-size="10.00">ad_framework::ui::UserInterface</text>
<polyline fill="none" stroke="black" points="176.86,-298.5 527.86,-298.5 "/>
<text text-anchor="middle" x="352.36" y="-286.5" font-family="Helvetica,sans-Serif" font-size="10.00"> </text>
<polyline fill="none" stroke="black" points="176.86,-279.5 527.86,-279.5 "/>
<text text-anchor="start" x="184.86" y="-267.5" font-family="Helvetica,sans-Serif" font-size="10.00">+ UserInterface(std::string title, ImVec2 size, ImVec2 pos)</text>
<text text-anchor="start" x="184.86" y="-256.5" font-family="Helvetica,sans-Serif" font-size="10.00">+ virtual ~UserInterface()=default</text>
<text text-anchor="start" x="184.86" y="-245.5" font-family="Helvetica,sans-Serif" font-size="10.00">+ virtual void operator()()=0</text>
<text text-anchor="start" x="184.86" y="-234.5" font-family="Helvetica,sans-Serif" font-size="10.00">+ std::string Title() const</text>
<text text-anchor="start" x="184.86" y="-223.5" font-family="Helvetica,sans-Serif" font-size="10.00">+ void Rename(std::string title)</text>
<text text-anchor="start" x="184.86" y="-212.5" font-family="Helvetica,sans-Serif" font-size="10.00">+ ImVec2 Size() const</text>
<text text-anchor="start" x="184.86" y="-201.5" font-family="Helvetica,sans-Serif" font-size="10.00">+ ImVec2 Pos() const</text>
<text text-anchor="start" x="184.86" y="-190.5" font-family="Helvetica,sans-Serif" font-size="10.00">+ void Resize(ImVec2 size)</text>
<text text-anchor="start" x="184.86" y="-179.5" font-family="Helvetica,sans-Serif" font-size="10.00">+ void Move(ImVec2 pos)</text>
<text text-anchor="start" x="184.86" y="-168.5" font-family="Helvetica,sans-Serif" font-size="10.00">+ void SetParent(UserInterfacePtr parent)</text>
<text text-anchor="start" x="184.86" y="-157.5" font-family="Helvetica,sans-Serif" font-size="10.00">+ UserInterfacePtr GetParent() const</text>
<text text-anchor="start" x="184.86" y="-146.5" font-family="Helvetica,sans-Serif" font-size="10.00">+ void AddCallback(std::string name, callback::CallbackPtr callback)</text>
<text text-anchor="start" x="184.86" y="-135.5" font-family="Helvetica,sans-Serif" font-size="10.00">+ CallbackMap GetCallbacks() const</text>
</a>
</g>
</g>
<!-- Node2&#45;&gt;Node1 -->
<g id="edge1" class="edge">
<title>Node2&#45;&gt;Node1</title>
<path fill="none" stroke="midnightblue" d="M537.37,-140.62C576.63,-123.35 616.64,-105.76 651.28,-90.52"/>
<polygon fill="none" stroke="midnightblue" points="535.69,-137.54 527.95,-144.77 538.51,-143.95 535.69,-137.54"/>
</g>
<!-- Node3 -->
<g id="node3" class="node">
<title>Node3</title>
<g id="a_node3"><a xlink:title=" ">
<polygon fill="white" stroke="#bfbfbf" points="628.86,-376.5 628.86,-433.5 877.86,-433.5 877.86,-376.5 628.86,-376.5"/>
<text text-anchor="middle" x="753.36" y="-421.5" font-family="Helvetica,sans-Serif" font-size="10.00">std::enable_shared_from_this&lt; UserInterface &gt;</text>
<polyline fill="none" stroke="#bfbfbf" points="628.86,-414.5 877.86,-414.5 "/>
<text text-anchor="middle" x="753.36" y="-402.5" font-family="Helvetica,sans-Serif" font-size="10.00"> </text>
<polyline fill="none" stroke="#bfbfbf" points="628.86,-395.5 877.86,-395.5 "/>
<text text-anchor="middle" x="753.36" y="-383.5" font-family="Helvetica,sans-Serif" font-size="10.00"> </text>
</a>
</g>
</g>
<!-- Node3&#45;&gt;Node2 -->
<g id="edge2" class="edge">
<title>Node3&#45;&gt;Node2</title>
<path fill="none" stroke="midnightblue" d="M682.78,-372.32C639.76,-353.01 582.71,-327.4 528.15,-302.91"/>
<polygon fill="none" stroke="midnightblue" points="681.47,-375.56 692.02,-376.47 684.33,-369.18 681.47,-375.56"/>
</g>
<!-- Node4 -->
<g id="node4" class="node">
<title>Node4</title>
<g id="a_node4"><a xlink:title=" ">
<polygon fill="white" stroke="#bfbfbf" points="433.36,-376.5 433.36,-433.5 611.36,-433.5 611.36,-376.5 433.36,-376.5"/>
<text text-anchor="middle" x="522.36" y="-421.5" font-family="Helvetica,sans-Serif" font-size="10.00">std::shared_ptr&lt; UserInterface &gt;</text>
<polyline fill="none" stroke="#bfbfbf" points="433.36,-414.5 611.36,-414.5 "/>
<text text-anchor="start" x="441.36" y="-402.5" font-family="Helvetica,sans-Serif" font-size="10.00">+ UserInterface ptr</text>
<polyline fill="none" stroke="#bfbfbf" points="433.36,-395.5 611.36,-395.5 "/>
<text text-anchor="start" x="441.36" y="-383.5" font-family="Helvetica,sans-Serif" font-size="10.00">+ UserInterface * operator&#45;&gt;()</text>
</a>
</g>
</g>
<!-- Node4&#45;&gt;Node2 -->
<g id="edge3" class="edge">
<title>Node4&#45;&gt;Node2</title>
<path fill="none" stroke="#404040" d="M496.17,-376.27C483.21,-362.54 466.66,-345.02 449.44,-326.78"/>
<polygon fill="none" stroke="#404040" points="449.18,-326.51 442.15,-324.9 440.94,-317.79 447.97,-319.4 449.18,-326.51"/>
<text text-anchor="middle" x="498.36" y="-344.5" font-family="Helvetica,sans-Serif" font-size="10.00"> &#45;parent_</text>
</g>
<!-- Node5 -->
<g id="node5" class="node">
<title>Node5</title>
<g id="a_node5"><a xlink:title=" ">
<polygon fill="white" stroke="#bfbfbf" points="496.36,-481.5 496.36,-538.5 614.36,-538.5 614.36,-481.5 496.36,-481.5"/>
<text text-anchor="middle" x="555.36" y="-526.5" font-family="Helvetica,sans-Serif" font-size="10.00">std::shared_ptr&lt; T &gt;</text>
<polyline fill="none" stroke="#bfbfbf" points="496.36,-519.5 614.36,-519.5 "/>
<text text-anchor="middle" x="555.36" y="-507.5" font-family="Helvetica,sans-Serif" font-size="10.00"> </text>
<polyline fill="none" stroke="#bfbfbf" points="496.36,-500.5 614.36,-500.5 "/>
<text text-anchor="start" x="504.36" y="-488.5" font-family="Helvetica,sans-Serif" font-size="10.00">+ T * operator&#45;&gt;()</text>
</a>
</g>
</g>
<!-- Node5&#45;&gt;Node4 -->
<g id="edge4" class="edge">
<title>Node5&#45;&gt;Node4</title>
<path fill="none" stroke="orange" d="M543.4,-471.66C539.38,-459.11 534.97,-445.35 531.23,-433.68"/>
<polygon fill="orange" stroke="orange" points="540.13,-472.94 546.52,-481.4 546.8,-470.81 540.13,-472.94"/>
<text text-anchor="middle" x="585.36" y="-455" font-family="Helvetica,sans-Serif" font-size="10.00"> &lt; UserInterface &gt;</text>
</g>
<!-- Node10 -->
<g id="node10" class="node">
<title>Node10</title>
<g id="a_node10"><a xlink:title=" ">
<polygon fill="white" stroke="#bfbfbf" points="121.86,-376.5 121.86,-433.5 414.86,-433.5 414.86,-376.5 121.86,-376.5"/>
<text text-anchor="middle" x="268.36" y="-421.5" font-family="Helvetica,sans-Serif" font-size="10.00">std::unordered_map&lt; std::string, callback::CallbackPtr &gt;</text>
<polyline fill="none" stroke="#bfbfbf" points="121.86,-414.5 414.86,-414.5 "/>
<text text-anchor="middle" x="268.36" y="-402.5" font-family="Helvetica,sans-Serif" font-size="10.00"> </text>
<polyline fill="none" stroke="#bfbfbf" points="121.86,-395.5 414.86,-395.5 "/>
<text text-anchor="middle" x="268.36" y="-383.5" font-family="Helvetica,sans-Serif" font-size="10.00"> </text>
</a>
</g>
</g>
<!-- Node5&#45;&gt;Node10 -->
<g id="edge10" class="edge">
<title>Node5&#45;&gt;Node10</title>
<path fill="none" stroke="#404040" d="M508.43,-481.48C486.92,-469.19 463.72,-456.48 452.36,-452 438.46,-446.53 423.71,-441.55 408.84,-437.06"/>
<polygon fill="none" stroke="#404040" points="408.43,-436.94 401.54,-439.09 396.91,-433.57 403.79,-431.41 408.43,-436.94"/>
<text text-anchor="middle" x="503.36" y="-455" font-family="Helvetica,sans-Serif" font-size="10.00"> +elements</text>
</g>
<!-- Node13 -->
<g id="node13" class="node">
<title>Node13</title>
<g id="a_node13"><a xlink:title=" ">
<polygon fill="white" stroke="#bfbfbf" points="896.36,-376.5 896.36,-433.5 1066.36,-433.5 1066.36,-376.5 896.36,-376.5"/>
<text text-anchor="middle" x="981.36" y="-421.5" font-family="Helvetica,sans-Serif" font-size="10.00">std::vector&lt; UserInterfacePtr &gt;</text>
<polyline fill="none" stroke="#bfbfbf" points="896.36,-414.5 1066.36,-414.5 "/>
<text text-anchor="middle" x="981.36" y="-402.5" font-family="Helvetica,sans-Serif" font-size="10.00"> </text>
<polyline fill="none" stroke="#bfbfbf" points="896.36,-395.5 1066.36,-395.5 "/>
<text text-anchor="middle" x="981.36" y="-383.5" font-family="Helvetica,sans-Serif" font-size="10.00"> </text>
</a>
</g>
</g>
<!-- Node5&#45;&gt;Node13 -->
<g id="edge16" class="edge">
<title>Node5&#45;&gt;Node13</title>
<path fill="none" stroke="#404040" d="M614.39,-492.7C629.05,-488.77 644.76,-484.65 659.36,-481 715.12,-467.08 729.05,-463.44 785.36,-452 826.95,-443.55 840.47,-444.38 884.33,-434.57"/>
<polygon fill="none" stroke="#404040" points="884.48,-434.54 889.42,-429.29 896.17,-431.84 891.22,-437.09 884.48,-434.54"/>
<text text-anchor="middle" x="814.36" y="-455" font-family="Helvetica,sans-Serif" font-size="10.00"> +elements</text>
</g>
<!-- Node6 -->
<g id="node6" class="node">
<title>Node6</title>
<g id="a_node6"><a xlink:title=" ">
<polygon fill="white" stroke="#bfbfbf" points="540.86,-586.5 540.86,-643.5 569.86,-643.5 569.86,-586.5 540.86,-586.5"/>
<text text-anchor="middle" x="555.36" y="-631.5" font-family="Helvetica,sans-Serif" font-size="10.00">T</text>
<polyline fill="none" stroke="#bfbfbf" points="540.86,-624.5 569.86,-624.5 "/>
<text text-anchor="middle" x="555.36" y="-612.5" font-family="Helvetica,sans-Serif" font-size="10.00"> </text>
<polyline fill="none" stroke="#bfbfbf" points="540.86,-605.5 569.86,-605.5 "/>
<text text-anchor="middle" x="555.36" y="-593.5" font-family="Helvetica,sans-Serif" font-size="10.00"> </text>
</a>
</g>
</g>
<!-- Node6&#45;&gt;Node5 -->
<g id="edge5" class="edge">
<title>Node6&#45;&gt;Node5</title>
<path fill="none" stroke="#404040" d="M555.36,-586.4C555.36,-575.55 555.36,-562.87 555.36,-551.05"/>
<polygon fill="none" stroke="#404040" points="555.36,-550.68 551.36,-544.68 555.36,-538.68 559.36,-544.68 555.36,-550.68"/>
<text text-anchor="middle" x="567.86" y="-560" font-family="Helvetica,sans-Serif" font-size="10.00"> +ptr</text>
</g>
<!-- Node11 -->
<g id="node11" class="node">
<title>Node11</title>
<g id="a_node11"><a xlink:title=" ">
<polygon fill="white" stroke="#bfbfbf" points="254.86,-481.5 254.86,-538.5 409.86,-538.5 409.86,-481.5 254.86,-481.5"/>
<text text-anchor="middle" x="332.36" y="-526.5" font-family="Helvetica,sans-Serif" font-size="10.00">std::unordered_map&lt; K, T &gt;</text>
<polyline fill="none" stroke="#bfbfbf" points="254.86,-519.5 409.86,-519.5 "/>
<text text-anchor="middle" x="332.36" y="-507.5" font-family="Helvetica,sans-Serif" font-size="10.00"> </text>
<polyline fill="none" stroke="#bfbfbf" points="254.86,-500.5 409.86,-500.5 "/>
<text text-anchor="middle" x="332.36" y="-488.5" font-family="Helvetica,sans-Serif" font-size="10.00"> </text>
</a>
</g>
</g>
<!-- Node6&#45;&gt;Node11 -->
<g id="edge14" class="edge">
<title>Node6&#45;&gt;Node11</title>
<path fill="none" stroke="#404040" d="M540.73,-607.24C513.22,-594.54 452.16,-566.33 403.21,-543.72"/>
<polygon fill="none" stroke="#404040" points="402.91,-543.58 395.78,-544.7 392.01,-538.55 399.14,-537.44 402.91,-543.58"/>
<text text-anchor="middle" x="479.36" y="-560" font-family="Helvetica,sans-Serif" font-size="10.00"> +elements</text>
</g>
<!-- Node14 -->
<g id="node14" class="node">
<title>Node14</title>
<g id="a_node14"><a xlink:title=" ">
<polygon fill="white" stroke="#bfbfbf" points="667.86,-481.5 667.86,-538.5 764.86,-538.5 764.86,-481.5 667.86,-481.5"/>
<text text-anchor="middle" x="716.36" y="-526.5" font-family="Helvetica,sans-Serif" font-size="10.00">std::vector&lt; T &gt;</text>
<polyline fill="none" stroke="#bfbfbf" points="667.86,-519.5 764.86,-519.5 "/>
<text text-anchor="middle" x="716.36" y="-507.5" font-family="Helvetica,sans-Serif" font-size="10.00"> </text>
<polyline fill="none" stroke="#bfbfbf" points="667.86,-500.5 764.86,-500.5 "/>
<text text-anchor="middle" x="716.36" y="-488.5" font-family="Helvetica,sans-Serif" font-size="10.00"> </text>
</a>
</g>
</g>
<!-- Node6&#45;&gt;Node14 -->
<g id="edge18" class="edge">
<title>Node6&#45;&gt;Node14</title>
<path fill="none" stroke="#404040" d="M569.93,-604.68C590.75,-591.36 630.09,-566.19 662.75,-545.3"/>
<polygon fill="none" stroke="#404040" points="662.98,-545.15 665.88,-538.55 673.09,-538.68 670.19,-545.28 662.98,-545.15"/>
<text text-anchor="middle" x="669.36" y="-560" font-family="Helvetica,sans-Serif" font-size="10.00"> +elements</text>
</g>
<!-- Node7 -->
<g id="node7" class="node">
<title>Node7</title>
<g id="a_node7"><a xlink:title=" ">
<polygon fill="white" stroke="#bfbfbf" points="50.86,-376.5 50.86,-433.5 103.86,-433.5 103.86,-376.5 50.86,-376.5"/>
<text text-anchor="middle" x="77.36" y="-421.5" font-family="Helvetica,sans-Serif" font-size="10.00">ImVec2</text>
<polyline fill="none" stroke="#bfbfbf" points="50.86,-414.5 103.86,-414.5 "/>
<text text-anchor="middle" x="77.36" y="-402.5" font-family="Helvetica,sans-Serif" font-size="10.00"> </text>
<polyline fill="none" stroke="#bfbfbf" points="50.86,-395.5 103.86,-395.5 "/>
<text text-anchor="middle" x="77.36" y="-383.5" font-family="Helvetica,sans-Serif" font-size="10.00"> </text>
</a>
</g>
</g>
<!-- Node7&#45;&gt;Node2 -->
<g id="edge6" class="edge">
<title>Node7&#45;&gt;Node2</title>
<path fill="none" stroke="#404040" d="M103.89,-382.92C107.05,-380.54 110.26,-378.19 113.36,-376 137.85,-358.75 164.21,-341.1 190.18,-324.22"/>
<polygon fill="none" stroke="#404040" points="190.42,-324.07 193.28,-317.45 200.49,-317.54 197.63,-324.16 190.42,-324.07"/>
<text text-anchor="middle" x="185.36" y="-350" font-family="Helvetica,sans-Serif" font-size="10.00"> &#45;pos_</text>
<text text-anchor="middle" x="185.36" y="-339" font-family="Helvetica,sans-Serif" font-size="10.00">&#45;size_</text>
</g>
<!-- Node8 -->
<g id="node8" class="node">
<title>Node8</title>
<g id="a_node8"><a xlink:title=" ">
<polygon fill="white" stroke="#bfbfbf" points="125.86,-481.5 125.86,-538.5 190.86,-538.5 190.86,-481.5 125.86,-481.5"/>
<text text-anchor="middle" x="158.36" y="-526.5" font-family="Helvetica,sans-Serif" font-size="10.00">std::string</text>
<polyline fill="none" stroke="#bfbfbf" points="125.86,-519.5 190.86,-519.5 "/>
<text text-anchor="middle" x="158.36" y="-507.5" font-family="Helvetica,sans-Serif" font-size="10.00"> </text>
<polyline fill="none" stroke="#bfbfbf" points="125.86,-500.5 190.86,-500.5 "/>
<text text-anchor="middle" x="158.36" y="-488.5" font-family="Helvetica,sans-Serif" font-size="10.00"> </text>
</a>
</g>
</g>
<!-- Node8&#45;&gt;Node2 -->
<g id="edge7" class="edge">
<title>Node8&#45;&gt;Node2</title>
<path fill="none" stroke="#404040" d="M125.63,-502.82C90.19,-494.18 35.39,-474.74 10.36,-434 -3.13,-412.04 -3.68,-397.61 10.36,-376 45.7,-321.62 105.48,-286.54 165.26,-263.97"/>
<polygon fill="none" stroke="#404040" points="165.54,-263.87 169.81,-258.06 176.81,-259.76 172.55,-265.57 165.54,-263.87"/>
<text text-anchor="middle" x="26.36" y="-402.5" font-family="Helvetica,sans-Serif" font-size="10.00"> &#45;title_</text>
</g>
<!-- Node8&#45;&gt;Node10 -->
<g id="edge11" class="edge">
<title>Node8&#45;&gt;Node10</title>
<path fill="none" stroke="#404040" d="M187.84,-481.4C200.79,-469.28 216.16,-454.88 229.98,-441.94"/>
<polygon fill="none" stroke="#404040" points="230.04,-441.88 231.69,-434.86 238.8,-433.68 237.16,-440.7 230.04,-441.88"/>
<text text-anchor="middle" x="233.36" y="-455" font-family="Helvetica,sans-Serif" font-size="10.00"> +keys</text>
</g>
<!-- Node9 -->
<g id="node9" class="node">
<title>Node9</title>
<g id="a_node9"><a xlink:title=" ">
<polygon fill="white" stroke="#bfbfbf" points="87.86,-586.5 87.86,-643.5 228.86,-643.5 228.86,-586.5 87.86,-586.5"/>
<text text-anchor="middle" x="158.36" y="-631.5" font-family="Helvetica,sans-Serif" font-size="10.00">std::basic_string&lt; Char &gt;</text>
<polyline fill="none" stroke="#bfbfbf" points="87.86,-624.5 228.86,-624.5 "/>
<text text-anchor="middle" x="158.36" y="-612.5" font-family="Helvetica,sans-Serif" font-size="10.00"> </text>
<polyline fill="none" stroke="#bfbfbf" points="87.86,-605.5 228.86,-605.5 "/>
<text text-anchor="middle" x="158.36" y="-593.5" font-family="Helvetica,sans-Serif" font-size="10.00"> </text>
</a>
</g>
</g>
<!-- Node9&#45;&gt;Node8 -->
<g id="edge8" class="edge">
<title>Node9&#45;&gt;Node8</title>
<path fill="none" stroke="midnightblue" d="M158.36,-576.29C158.36,-563.84 158.36,-550.23 158.36,-538.68"/>
<polygon fill="none" stroke="midnightblue" points="154.86,-576.4 158.36,-586.4 161.86,-576.4 154.86,-576.4"/>
</g>
<!-- Node10&#45;&gt;Node2 -->
<g id="edge9" class="edge">
<title>Node10&#45;&gt;Node2</title>
<path fill="none" stroke="#404040" d="M281.3,-376.27C287.48,-363.04 295.29,-346.29 303.47,-328.77"/>
<polygon fill="none" stroke="#404040" points="303.52,-328.66 302.43,-321.53 308.59,-317.79 309.68,-324.92 303.52,-328.66"/>
<text text-anchor="middle" x="326.36" y="-344.5" font-family="Helvetica,sans-Serif" font-size="10.00"> &#45;callbacks_</text>
</g>
<!-- Node11&#45;&gt;Node10 -->
<g id="edge12" class="edge">
<title>Node11&#45;&gt;Node10</title>
<path fill="none" stroke="orange" d="M276.67,-473.83C273.85,-470.46 271.36,-466.85 269.36,-463 264.76,-454.13 263.63,-443.38 263.95,-433.63"/>
<polygon fill="orange" stroke="orange" points="274.34,-476.45 283.79,-481.25 279.39,-471.61 274.34,-476.45"/>
<text text-anchor="middle" x="360.86" y="-455" font-family="Helvetica,sans-Serif" font-size="10.00"> &lt; std::string, callback::CallbackPtr &gt;</text>
</g>
<!-- Node12 -->
<g id="node12" class="node">
<title>Node12</title>
<g id="a_node12"><a xlink:title=" ">
<polygon fill="white" stroke="#bfbfbf" points="317.86,-586.5 317.86,-643.5 346.86,-643.5 346.86,-586.5 317.86,-586.5"/>
<text text-anchor="middle" x="332.36" y="-631.5" font-family="Helvetica,sans-Serif" font-size="10.00">K</text>
<polyline fill="none" stroke="#bfbfbf" points="317.86,-624.5 346.86,-624.5 "/>
<text text-anchor="middle" x="332.36" y="-612.5" font-family="Helvetica,sans-Serif" font-size="10.00"> </text>
<polyline fill="none" stroke="#bfbfbf" points="317.86,-605.5 346.86,-605.5 "/>
<text text-anchor="middle" x="332.36" y="-593.5" font-family="Helvetica,sans-Serif" font-size="10.00"> </text>
</a>
</g>
</g>
<!-- Node12&#45;&gt;Node11 -->
<g id="edge13" class="edge">
<title>Node12&#45;&gt;Node11</title>
<path fill="none" stroke="#404040" d="M332.36,-586.4C332.36,-575.55 332.36,-562.87 332.36,-551.05"/>
<polygon fill="none" stroke="#404040" points="332.36,-550.68 328.36,-544.68 332.36,-538.68 336.36,-544.68 332.36,-550.68"/>
<text text-anchor="middle" x="349.36" y="-560" font-family="Helvetica,sans-Serif" font-size="10.00"> +keys</text>
</g>
<!-- Node13&#45;&gt;Node1 -->
<g id="edge15" class="edge">
<title>Node13&#45;&gt;Node1</title>
<path fill="none" stroke="#404040" d="M963.51,-376.25C925.55,-317.25 836.27,-178.48 786.48,-101.08"/>
<polygon fill="none" stroke="#404040" points="786.22,-100.67 779.61,-97.79 779.72,-90.58 786.33,-93.46 786.22,-100.67"/>
<text text-anchor="middle" x="950.36" y="-220.5" font-family="Helvetica,sans-Serif" font-size="10.00"> &#45;children_</text>
</g>
<!-- Node14&#45;&gt;Node13 -->
<g id="edge17" class="edge">
<title>Node14&#45;&gt;Node13</title>
<path fill="none" stroke="orange" d="M774.7,-489.42C797.49,-481.53 823.76,-472.15 847.36,-463 870.93,-453.86 896.54,-443.16 918.99,-433.52"/>
<polygon fill="orange" stroke="orange" points="773.48,-486.14 765.16,-492.7 775.76,-492.76 773.48,-486.14"/>
<text text-anchor="middle" x="925.36" y="-455" font-family="Helvetica,sans-Serif" font-size="10.00"> &lt; UserInterfacePtr &gt;</text>
</g>
</g>
</svg>
        <g id="navigator" transform="translate(0 0)" fill="#404254">
                <rect fill="#f2f5e9" fill-opacity="0.5" stroke="#606060" stroke-width=".5" x="0" y="0" width="60" height="60"/>
                <use id="zoomplus" xlink:href="#zoomPlus" x="17" y="9" onmousedown="handleZoom(evt,'in')"/>
                <use id="zoomminus" xlink:href="#zoomMin" x="42" y="9" onmousedown="handleZoom(evt,'out')"/>
                <use id="reset" xlink:href="#resetDef" x="30" y="36" onmousedown="handleReset()"/>
                <g id="arrowUp" xlink:href="#dirArrow" transform="translate(30 24)" onmousedown="handlePan(0,-1)">
                  <use xlink:href="#rim" fill="#404040">
                        <set attributeName="fill" to="#808080" begin="arrowUp.mouseover" end="arrowUp.mouseout"/>
                  </use>
                  <path fill="none" stroke="white" stroke-width="1.5" d="M0,-3.0v7 M-2.5,-0.5L0,-3.0L2.5,-0.5"/>
                </g>
                <g id="arrowRight" xlink:href="#dirArrow" transform="rotate(90) translate(36 -43)" onmousedown="handlePan(1,0)">
                  <use xlink:href="#rim" fill="#404040">
                        <set attributeName="fill" to="#808080" begin="arrowRight.mouseover" end="arrowRight.mouseout"/>
                  </use>
                  <path fill="none" stroke="white" stroke-width="1.5" d="M0,-3.0v7 M-2.5,-0.5L0,-3.0L2.5,-0.5"/>
                </g>
                <g id="arrowDown" xlink:href="#dirArrow" transform="rotate(180) translate(-30 -48)" onmousedown="handlePan(0,1)">
                  <use xlink:href="#rim" fill="#404040">
                        <set attributeName="fill" to="#808080" begin="arrowDown.mouseover" end="arrowDown.mouseout"/>
                  </use>
                  <path fill="none" stroke="white" stroke-width="1.5" d="M0,-3.0v7 M-2.5,-0.5L0,-3.0L2.5,-0.5"/>
                </g>
                <g id="arrowLeft" xlink:href="#dirArrow" transform="rotate(270) translate(-36 17)" onmousedown="handlePan(-1,0)">
                  <use xlink:href="#rim" fill="#404040">
                        <set attributeName="fill" to="#808080" begin="arrowLeft.mouseover" end="arrowLeft.mouseout"/>
                  </use>
                  <path fill="none" stroke="white" stroke-width="1.5" d="M0,-3.0v7 M-2.5,-0.5L0,-3.0L2.5,-0.5"/>
                </g>
        </g>
        <svg viewBox="0 0 15 15" width="100%" height="30px" preserveAspectRatio="xMaxYMin meet">
         <g id="arrow_out" transform="scale(0.3 0.3)">
          <a xlink:href="classad__framework_1_1ui_1_1Frame__coll__graph_org.svg" target="_base">
           <rect id="button" ry="5" rx="5" y="6" x="6" height="38" width="38"
                fill="#f2f5e9" fill-opacity="0.5" stroke="#606060" stroke-width="1.0"/>
           <path id="arrow"
             d="M 11.500037,31.436501 C 11.940474,20.09759 22.043105,11.32322 32.158766,21.979434 L 37.068811,17.246167 C 37.068811,17.246167 37.088388,32 37.088388,32 L 22.160133,31.978069 C 22.160133,31.978069 26.997745,27.140456 26.997745,27.140456 C 18.528582,18.264221 13.291696,25.230495 11.500037,31.436501 z"
             style="fill:#404040;"/>
          </a>
         </g>
        </svg>
</svg>
