<?xml version="1.0" encoding="UTF-8" standalone="no"?>
<!DOCTYPE svg PUBLIC "-//W3C//DTD SVG 1.1//EN"
 "http://www.w3.org/Graphics/SVG/1.1/DTD/svg11.dtd">
<!-- Generated by graphviz version 2.43.0 (0)
 -->
<!-- Title: ad_framework::Image::ReadFromFile Pages: 1 -->
<svg width="531pt" height="142pt"
 viewBox="0.00 0.00 531.00 142.00" xmlns="http://www.w3.org/2000/svg" xmlns:xlink="http://www.w3.org/1999/xlink">
<g id="graph0" class="graph" transform="scale(1 1) rotate(0) translate(4 138)">
<title>ad_framework::Image::ReadFromFile</title>
<polygon fill="white" stroke="transparent" points="-4,4 -4,-138 527,-138 527,4 -4,4"/>
<!-- Node1 -->
<g id="node1" class="node">
<title>Node1</title>
<g id="a_node1"><a xlink:title=" ">
<polygon fill="#bfbfbf" stroke="black" points="326,-57.5 326,-76.5 523,-76.5 523,-57.5 326,-57.5"/>
<text text-anchor="middle" x="424.5" y="-64.5" font-family="Helvetica,sans-Serif" font-size="10.00">ad_framework::Image::ReadFromFile</text>
</a>
</g>
</g>
<!-- Node2 -->
<g id="node2" class="node">
<title>Node2</title>
<g id="a_node2"><a xlink:href="classad__framework_1_1KittiDataReader.html#afe4f9602f160304238f8ad0636d9c5f9" target="_top" xlink:title=" ">
<polygon fill="white" stroke="black" points="16,-114.5 16,-133.5 274,-133.5 274,-114.5 16,-114.5"/>
<text text-anchor="middle" x="145" y="-121.5" font-family="Helvetica,sans-Serif" font-size="10.00">ad_framework::KittiDataReader::ReadColorImage</text>
</a>
</g>
</g>
<!-- Node1&#45;&gt;Node2 -->
<g id="edge1" class="edge">
<title>Node1&#45;&gt;Node2</title>
<path fill="none" stroke="midnightblue" d="M384.99,-79.58C358.52,-87.82 322.43,-98.28 290,-105 271.97,-108.73 252.52,-111.88 233.92,-114.48"/>
<polygon fill="midnightblue" stroke="midnightblue" points="386.15,-82.88 394.64,-76.54 384.05,-76.21 386.15,-82.88"/>
</g>
<!-- Node3 -->
<g id="node3" class="node">
<title>Node3</title>
<g id="a_node3"><a xlink:href="classad__framework_1_1KittiDataReader.html#a4b29a0eb541b483c0af914b419c2ebc6" target="_top" xlink:title=" ">
<polygon fill="white" stroke="black" points="0,-76.5 0,-95.5 290,-95.5 290,-76.5 0,-76.5"/>
<text text-anchor="middle" x="145" y="-83.5" font-family="Helvetica,sans-Serif" font-size="10.00">ad_framework::KittiDataReader::ReadColorStereoImage</text>
</a>
</g>
</g>
<!-- Node1&#45;&gt;Node3 -->
<g id="edge2" class="edge">
<title>Node1&#45;&gt;Node3</title>
<path fill="none" stroke="midnightblue" d="M315.62,-74.39C305.49,-75.08 295.14,-75.79 284.78,-76.5"/>
<polygon fill="midnightblue" stroke="midnightblue" points="315.93,-77.87 325.66,-73.7 315.45,-70.89 315.93,-77.87"/>
</g>
<!-- Node4 -->
<g id="node4" class="node">
<title>Node4</title>
<g id="a_node4"><a xlink:href="classad__framework_1_1KittiDataReader.html#a03e0ea040f299f7bf9ea0d912bc703a2" target="_top" xlink:title=" ">
<polygon fill="white" stroke="black" points="17,-38.5 17,-57.5 273,-57.5 273,-38.5 17,-38.5"/>
<text text-anchor="middle" x="145" y="-45.5" font-family="Helvetica,sans-Serif" font-size="10.00">ad_framework::KittiDataReader::ReadGrayImage</text>
</a>
</g>
</g>
<!-- Node1&#45;&gt;Node4 -->
<g id="edge3" class="edge">
<title>Node1&#45;&gt;Node4</title>
<path fill="none" stroke="midnightblue" d="M315.6,-59.61C301.67,-58.66 287.3,-57.67 273.09,-56.7"/>
<polygon fill="midnightblue" stroke="midnightblue" points="315.45,-63.11 325.66,-60.3 315.93,-56.13 315.45,-63.11"/>
</g>
<!-- Node5 -->
<g id="node5" class="node">
<title>Node5</title>
<g id="a_node5"><a xlink:href="classad__framework_1_1KittiDataReader.html#ae15af30f4c87bb8a6bdc890018e4ec02" target="_top" xlink:title=" ">
<polygon fill="white" stroke="black" points="1.5,-0.5 1.5,-19.5 288.5,-19.5 288.5,-0.5 1.5,-0.5"/>
<text text-anchor="middle" x="145" y="-7.5" font-family="Helvetica,sans-Serif" font-size="10.00">ad_framework::KittiDataReader::ReadGrayStereoImage</text>
</a>
</g>
</g>
<!-- Node1&#45;&gt;Node5 -->
<g id="edge4" class="edge">
<title>Node1&#45;&gt;Node5</title>
<path fill="none" stroke="midnightblue" d="M384.99,-54.42C358.52,-46.18 322.43,-35.72 290,-29 271.97,-25.27 252.52,-22.12 233.92,-19.52"/>
<polygon fill="midnightblue" stroke="midnightblue" points="384.05,-57.79 394.64,-57.46 386.15,-51.12 384.05,-57.79"/>
</g>
</g>
</svg>
