<?xml version="1.0" encoding="UTF-8" standalone="no"?>
<!DOCTYPE svg PUBLIC "-//W3C//DTD SVG 1.1//EN"
 "http://www.w3.org/Graphics/SVG/1.1/DTD/svg11.dtd">
<!-- Generated by graphviz version 2.43.0 (0)
 -->
<!-- Title: ad_framework::user_interface::ShapeDrawer Pages: 1 -->
<svg width="485pt" height="392pt"
 viewBox="0.00 0.00 484.50 392.00" xmlns="http://www.w3.org/2000/svg" xmlns:xlink="http://www.w3.org/1999/xlink">
<g id="graph0" class="graph" transform="scale(1 1) rotate(0) translate(4 388)">
<title>ad_framework::user_interface::ShapeDrawer</title>
<polygon fill="white" stroke="transparent" points="-4,4 -4,-388 480.5,-388 480.5,4 -4,4"/>
<!-- Node1 -->
<g id="node1" class="node">
<title>Node1</title>
<g id="a_node1"><a xlink:title=" ">
<polygon fill="#bfbfbf" stroke="black" points="70.5,-0.5 70.5,-68.5 304.5,-68.5 304.5,-0.5 70.5,-0.5"/>
<text text-anchor="middle" x="187.5" y="-56.5" font-family="Helvetica,sans-Serif" font-size="10.00">ad_framework::user_interface::ShapeDrawer</text>
<polyline fill="none" stroke="black" points="70.5,-49.5 304.5,-49.5 "/>
<text text-anchor="middle" x="187.5" y="-37.5" font-family="Helvetica,sans-Serif" font-size="10.00"> </text>
<polyline fill="none" stroke="black" points="70.5,-30.5 304.5,-30.5 "/>
<text text-anchor="start" x="78.5" y="-18.5" font-family="Helvetica,sans-Serif" font-size="10.00">+ ShapeDrawer(ShapeT shape)</text>
<text text-anchor="start" x="78.5" y="-7.5" font-family="Helvetica,sans-Serif" font-size="10.00">+ void Draw(ShapeT shape)</text>
</a>
</g>
</g>
<!-- Node2 -->
<g id="node2" class="node">
<title>Node2</title>
<g id="a_node2"><a xlink:title=" ">
<polygon fill="white" stroke="#bfbfbf" points="0,-116.5 0,-173.5 375,-173.5 375,-116.5 0,-116.5"/>
<text text-anchor="middle" x="187.5" y="-161.5" font-family="Helvetica,sans-Serif" font-size="10.00">std::unique_ptr&lt; ad_framework::user_interface::ShapeDrawer::Concept &gt;</text>
<polyline fill="none" stroke="#bfbfbf" points="0,-154.5 375,-154.5 "/>
<text text-anchor="start" x="8" y="-142.5" font-family="Helvetica,sans-Serif" font-size="10.00">+ ad_framework::user_interface::ShapeDrawer::Concept ptr</text>
<polyline fill="none" stroke="#bfbfbf" points="0,-135.5 375,-135.5 "/>
<text text-anchor="start" x="8" y="-123.5" font-family="Helvetica,sans-Serif" font-size="10.00">+ ad_framework::user_interface::ShapeDrawer::Concept * operator&#45;&gt;()</text>
</a>
</g>
</g>
<!-- Node2&#45;&gt;Node1 -->
<g id="edge1" class="edge">
<title>Node2&#45;&gt;Node1</title>
<path fill="none" stroke="#404040" d="M187.5,-116.34C187.5,-105.53 187.5,-92.85 187.5,-80.77"/>
<polygon fill="none" stroke="#404040" points="187.5,-80.52 183.5,-74.52 187.5,-68.52 191.5,-74.52 187.5,-80.52"/>
<text text-anchor="middle" x="207.5" y="-90" font-family="Helvetica,sans-Serif" font-size="10.00"> &#45;pimpl_</text>
</g>
<!-- Node3 -->
<g id="node3" class="node">
<title>Node3</title>
<g id="a_node3"><a xlink:title=" ">
<polygon fill="white" stroke="#bfbfbf" points="128.5,-221.5 128.5,-278.5 246.5,-278.5 246.5,-221.5 128.5,-221.5"/>
<text text-anchor="middle" x="187.5" y="-266.5" font-family="Helvetica,sans-Serif" font-size="10.00">std::unique_ptr&lt; T &gt;</text>
<polyline fill="none" stroke="#bfbfbf" points="128.5,-259.5 246.5,-259.5 "/>
<text text-anchor="middle" x="187.5" y="-247.5" font-family="Helvetica,sans-Serif" font-size="10.00"> </text>
<polyline fill="none" stroke="#bfbfbf" points="128.5,-240.5 246.5,-240.5 "/>
<text text-anchor="start" x="136.5" y="-228.5" font-family="Helvetica,sans-Serif" font-size="10.00">+ T * operator&#45;&gt;()</text>
</a>
</g>
</g>
<!-- Node3&#45;&gt;Node2 -->
<g id="edge2" class="edge">
<title>Node3&#45;&gt;Node2</title>
<path fill="none" stroke="orange" d="M187.5,-211.29C187.5,-198.84 187.5,-185.23 187.5,-173.68"/>
<polygon fill="orange" stroke="orange" points="184,-211.4 187.5,-221.4 191,-211.4 184,-211.4"/>
<text text-anchor="middle" x="332" y="-195" font-family="Helvetica,sans-Serif" font-size="10.00"> &lt; ad_framework::user_interface::ShapeDrawer::Concept &gt;</text>
</g>
<!-- Node4 -->
<g id="node4" class="node">
<title>Node4</title>
<g id="a_node4"><a xlink:title=" ">
<polygon fill="white" stroke="#bfbfbf" points="173,-326.5 173,-383.5 202,-383.5 202,-326.5 173,-326.5"/>
<text text-anchor="middle" x="187.5" y="-371.5" font-family="Helvetica,sans-Serif" font-size="10.00">T</text>
<polyline fill="none" stroke="#bfbfbf" points="173,-364.5 202,-364.5 "/>
<text text-anchor="middle" x="187.5" y="-352.5" font-family="Helvetica,sans-Serif" font-size="10.00"> </text>
<polyline fill="none" stroke="#bfbfbf" points="173,-345.5 202,-345.5 "/>
<text text-anchor="middle" x="187.5" y="-333.5" font-family="Helvetica,sans-Serif" font-size="10.00"> </text>
</a>
</g>
</g>
<!-- Node4&#45;&gt;Node3 -->
<g id="edge3" class="edge">
<title>Node4&#45;&gt;Node3</title>
<path fill="none" stroke="#404040" d="M187.5,-326.4C187.5,-315.55 187.5,-302.87 187.5,-291.05"/>
<polygon fill="none" stroke="#404040" points="187.5,-290.68 183.5,-284.68 187.5,-278.68 191.5,-284.68 187.5,-290.68"/>
<text text-anchor="middle" x="200" y="-300" font-family="Helvetica,sans-Serif" font-size="10.00"> +ptr</text>
</g>
</g>
</svg>
