<?xml version="1.0" encoding="UTF-8" standalone="no"?>
<!DOCTYPE svg PUBLIC "-//W3C//DTD SVG 1.1//EN"
 "http://www.w3.org/Graphics/SVG/1.1/DTD/svg11.dtd">
<!-- Generated by graphviz version 2.43.0 (0)
 -->
<!-- Title: ad_framework::application::TopViewDrawer Pages: 1 -->
<svg width="237pt" height="204pt"
 viewBox="0.00 0.00 237.00 204.00" xmlns="http://www.w3.org/2000/svg" xmlns:xlink="http://www.w3.org/1999/xlink">
<g id="graph0" class="graph" transform="scale(1 1) rotate(0) translate(4 200)">
<title>ad_framework::application::TopViewDrawer</title>
<polygon fill="white" stroke="transparent" points="-4,4 -4,-200 233,-200 233,4 -4,4"/>
<!-- Node1 -->
<g id="node1" class="node">
<title>Node1</title>
<g id="a_node1"><a xlink:title=" ">
<polygon fill="#bfbfbf" stroke="black" points="0,-0.5 0,-79.5 229,-79.5 229,-0.5 0,-0.5"/>
<text text-anchor="middle" x="114.5" y="-67.5" font-family="Helvetica,sans-Serif" font-size="10.00">ad_framework::application::TopViewDrawer</text>
<polyline fill="none" stroke="black" points="0,-60.5 229,-60.5 "/>
<text text-anchor="middle" x="114.5" y="-48.5" font-family="Helvetica,sans-Serif" font-size="10.00"> </text>
<polyline fill="none" stroke="black" points="0,-41.5 229,-41.5 "/>
<text text-anchor="start" x="8" y="-29.5" font-family="Helvetica,sans-Serif" font-size="10.00">+ TopViewDrawer()=default</text>
<text text-anchor="start" x="8" y="-18.5" font-family="Helvetica,sans-Serif" font-size="10.00">+ ~TopViewDrawer()=default</text>
<text text-anchor="start" x="8" y="-7.5" font-family="Helvetica,sans-Serif" font-size="10.00">+ void Draw() const</text>
</a>
</g>
</g>
<!-- Node2 -->
<g id="node2" class="node">
<title>Node2</title>
<g id="a_node2"><a xlink:title=" ">
<polygon fill="white" stroke="#bfbfbf" points="88,-138.5 88,-195.5 141,-195.5 141,-138.5 88,-138.5"/>
<text text-anchor="middle" x="114.5" y="-183.5" font-family="Helvetica,sans-Serif" font-size="10.00">ImVec2</text>
<polyline fill="none" stroke="#bfbfbf" points="88,-176.5 141,-176.5 "/>
<text text-anchor="middle" x="114.5" y="-164.5" font-family="Helvetica,sans-Serif" font-size="10.00"> </text>
<polyline fill="none" stroke="#bfbfbf" points="88,-157.5 141,-157.5 "/>
<text text-anchor="middle" x="114.5" y="-145.5" font-family="Helvetica,sans-Serif" font-size="10.00"> </text>
</a>
</g>
</g>
<!-- Node2&#45;&gt;Node1 -->
<g id="edge1" class="edge">
<title>Node2&#45;&gt;Node1</title>
<path fill="none" stroke="#404040" d="M114.5,-138.26C114.5,-124.64 114.5,-107.79 114.5,-91.96"/>
<polygon fill="none" stroke="#404040" points="114.5,-91.57 110.5,-85.57 114.5,-79.57 118.5,-85.57 114.5,-91.57"/>
<text text-anchor="middle" x="154" y="-112" font-family="Helvetica,sans-Serif" font-size="10.00"> &#45;axes_range_x_</text>
<text text-anchor="middle" x="154" y="-101" font-family="Helvetica,sans-Serif" font-size="10.00">&#45;axes_range_y_</text>
</g>
</g>
</svg>
