<?xml version="1.0" encoding="UTF-8" standalone="no"?>
<!DOCTYPE svg PUBLIC "-//W3C//DTD SVG 1.1//EN"
 "http://www.w3.org/Graphics/SVG/1.1/DTD/svg11.dtd">
<!-- Generated by graphviz version 2.43.0 (0)
 -->
<!-- Title: ad_framework::ui::TopViewer::operator() Pages: 1 -->
<svg width="502pt" height="142pt"
 viewBox="0.00 0.00 502.00 142.00" xmlns="http://www.w3.org/2000/svg" xmlns:xlink="http://www.w3.org/1999/xlink">
<g id="graph0" class="graph" transform="scale(1 1) rotate(0) translate(4 138)">
<title>ad_framework::ui::TopViewer::operator()</title>
<polygon fill="white" stroke="transparent" points="-4,4 -4,-138 498,-138 498,4 -4,4"/>
<!-- Node1 -->
<g id="node1" class="node">
<title>Node1</title>
<g id="a_node1"><a xlink:title=" ">
<polygon fill="#bfbfbf" stroke="black" points="0,-57.5 0,-76.5 213,-76.5 213,-57.5 0,-57.5"/>
<text text-anchor="middle" x="106.5" y="-64.5" font-family="Helvetica,sans-Serif" font-size="10.00">ad_framework::ui::TopViewer::operator()</text>
</a>
</g>
</g>
<!-- Node2 -->
<g id="node2" class="node">
<title>Node2</title>
<g id="a_node2"><a xlink:href="classad__framework_1_1ui_1_1UserInterface.html#a611ad02195c288f0eb58c26b94a6ddd4" target="_top" xlink:title=" ">
<polygon fill="white" stroke="black" points="249,-114.5 249,-133.5 494,-133.5 494,-114.5 249,-114.5"/>
<text text-anchor="middle" x="371.5" y="-121.5" font-family="Helvetica,sans-Serif" font-size="10.00">ad_framework::ui::UserInterface::GetCallbacks</text>
</a>
</g>
</g>
<!-- Node1&#45;&gt;Node2 -->
<g id="edge1" class="edge">
<title>Node1&#45;&gt;Node2</title>
<path fill="none" stroke="midnightblue" d="M139.02,-76.51C167.54,-84.86 210.8,-96.91 249,-105 262.53,-107.87 276.99,-110.5 291.05,-112.83"/>
<polygon fill="midnightblue" stroke="midnightblue" points="290.76,-116.33 301.19,-114.48 291.88,-109.42 290.76,-116.33"/>
</g>
<!-- Node3 -->
<g id="node3" class="node">
<title>Node3</title>
<g id="a_node3"><a xlink:href="classad__framework_1_1ui_1_1UserInterface.html#a425b365380f3b505eac6e6c5861f6457" target="_top" xlink:title=" ">
<polygon fill="white" stroke="black" points="273,-76.5 273,-95.5 470,-95.5 470,-76.5 273,-76.5"/>
<text text-anchor="middle" x="371.5" y="-83.5" font-family="Helvetica,sans-Serif" font-size="10.00">ad_framework::ui::UserInterface::Pos</text>
</a>
</g>
</g>
<!-- Node1&#45;&gt;Node3 -->
<g id="edge2" class="edge">
<title>Node1&#45;&gt;Node3</title>
<path fill="none" stroke="midnightblue" d="M213.34,-74.65C229.65,-75.82 246.51,-77.04 262.86,-78.22"/>
<polygon fill="midnightblue" stroke="midnightblue" points="262.74,-81.72 272.96,-78.95 263.24,-74.74 262.74,-81.72"/>
</g>
<!-- Node4 -->
<g id="node4" class="node">
<title>Node4</title>
<g id="a_node4"><a xlink:href="classad__framework_1_1ui_1_1UserInterface.html#a54aca8b9b70563522f1d992bc0d03f37" target="_top" xlink:title=" ">
<polygon fill="white" stroke="black" points="271.5,-38.5 271.5,-57.5 471.5,-57.5 471.5,-38.5 271.5,-38.5"/>
<text text-anchor="middle" x="371.5" y="-45.5" font-family="Helvetica,sans-Serif" font-size="10.00">ad_framework::ui::UserInterface::Size</text>
</a>
</g>
</g>
<!-- Node1&#45;&gt;Node4 -->
<g id="edge3" class="edge">
<title>Node1&#45;&gt;Node4</title>
<path fill="none" stroke="midnightblue" d="M213.34,-59.35C229.03,-58.22 245.22,-57.05 260.99,-55.91"/>
<polygon fill="midnightblue" stroke="midnightblue" points="261.55,-59.38 271.27,-55.17 261.05,-52.4 261.55,-59.38"/>
</g>
<!-- Node5 -->
<g id="node5" class="node">
<title>Node5</title>
<g id="a_node5"><a xlink:href="classad__framework_1_1ui_1_1UserInterface.html#acec7bc1f8dbcafa56a310a3be3a048fe" target="_top" xlink:title=" ">
<polygon fill="white" stroke="black" points="270.5,-0.5 270.5,-19.5 472.5,-19.5 472.5,-0.5 270.5,-0.5"/>
<text text-anchor="middle" x="371.5" y="-7.5" font-family="Helvetica,sans-Serif" font-size="10.00">ad_framework::ui::UserInterface::Title</text>
</a>
</g>
</g>
<!-- Node1&#45;&gt;Node5 -->
<g id="edge4" class="edge">
<title>Node1&#45;&gt;Node5</title>
<path fill="none" stroke="midnightblue" d="M139.02,-57.49C167.54,-49.14 210.8,-37.09 249,-29 262.53,-26.13 276.99,-23.5 291.05,-21.17"/>
<polygon fill="midnightblue" stroke="midnightblue" points="291.88,-24.58 301.19,-19.52 290.76,-17.67 291.88,-24.58"/>
</g>
</g>
</svg>
