<?xml version="1.0" encoding="UTF-8" standalone="no"?>
<!DOCTYPE svg PUBLIC "-//W3C//DTD SVG 1.1//EN"
 "http://www.w3.org/Graphics/SVG/1.1/DTD/svg11.dtd">
<!-- Generated by graphviz version 2.43.0 (0)
 -->
<!-- Title: ad_framework::ui::TopViewer Pages: 1 -->
<svg width="359pt" height="441pt"
 viewBox="0.00 0.00 359.00 441.00" xmlns="http://www.w3.org/2000/svg" xmlns:xlink="http://www.w3.org/1999/xlink">
<g id="graph0" class="graph" transform="scale(1 1) rotate(0) translate(4 437)">
<title>ad_framework::ui::TopViewer</title>
<polygon fill="white" stroke="transparent" points="-4,4 -4,-437 355,-437 355,4 -4,4"/>
<!-- Node1 -->
<g id="node1" class="node">
<title>Node1</title>
<g id="a_node1"><a xlink:title=" ">
<polygon fill="#bfbfbf" stroke="black" points="33.5,-0.5 33.5,-68.5 317.5,-68.5 317.5,-0.5 33.5,-0.5"/>
<text text-anchor="middle" x="175.5" y="-56.5" font-family="Helvetica,sans-Serif" font-size="10.00">ad_framework::ui::TopViewer</text>
<polyline fill="none" stroke="black" points="33.5,-49.5 317.5,-49.5 "/>
<text text-anchor="middle" x="175.5" y="-37.5" font-family="Helvetica,sans-Serif" font-size="10.00"> </text>
<polyline fill="none" stroke="black" points="33.5,-30.5 317.5,-30.5 "/>
<text text-anchor="start" x="41.5" y="-18.5" font-family="Helvetica,sans-Serif" font-size="10.00">+ TopViewer(std::string title, ImVec2 size, ImVec2 pos)</text>
<text text-anchor="start" x="41.5" y="-7.5" font-family="Helvetica,sans-Serif" font-size="10.00">+ void operator()() override</text>
</a>
</g>
</g>
<!-- Node2 -->
<g id="node2" class="node">
<title>Node2</title>
<g id="a_node2"><a xlink:href="classad__framework_1_1ui_1_1UserInterface.html" target="_top" xlink:title=" ">
<polygon fill="white" stroke="black" points="0,-105.5 0,-338.5 351,-338.5 351,-105.5 0,-105.5"/>
<text text-anchor="middle" x="175.5" y="-326.5" font-family="Helvetica,sans-Serif" font-size="10.00">ad_framework::ui::UserInterface</text>
<polyline fill="none" stroke="black" points="0,-319.5 351,-319.5 "/>
<text text-anchor="start" x="8" y="-307.5" font-family="Helvetica,sans-Serif" font-size="10.00">&#45; std::string title_</text>
<text text-anchor="start" x="8" y="-296.5" font-family="Helvetica,sans-Serif" font-size="10.00">&#45; ImVec2 size_</text>
<text text-anchor="start" x="8" y="-285.5" font-family="Helvetica,sans-Serif" font-size="10.00">&#45; ImVec2 pos_</text>
<text text-anchor="start" x="8" y="-274.5" font-family="Helvetica,sans-Serif" font-size="10.00">&#45; UserInterfacePtr parent_</text>
<text text-anchor="start" x="8" y="-263.5" font-family="Helvetica,sans-Serif" font-size="10.00">&#45; CallbackMap callbacks_</text>
<polyline fill="none" stroke="black" points="0,-256.5 351,-256.5 "/>
<text text-anchor="start" x="8" y="-244.5" font-family="Helvetica,sans-Serif" font-size="10.00">+ UserInterface(std::string title, ImVec2 size, ImVec2 pos)</text>
<text text-anchor="start" x="8" y="-233.5" font-family="Helvetica,sans-Serif" font-size="10.00">+ virtual ~UserInterface()=default</text>
<text text-anchor="start" x="8" y="-222.5" font-family="Helvetica,sans-Serif" font-size="10.00">+ virtual void operator()()=0</text>
<text text-anchor="start" x="8" y="-211.5" font-family="Helvetica,sans-Serif" font-size="10.00">+ std::string Title() const</text>
<text text-anchor="start" x="8" y="-200.5" font-family="Helvetica,sans-Serif" font-size="10.00">+ void Rename(std::string title)</text>
<text text-anchor="start" x="8" y="-189.5" font-family="Helvetica,sans-Serif" font-size="10.00">+ ImVec2 Size() const</text>
<text text-anchor="start" x="8" y="-178.5" font-family="Helvetica,sans-Serif" font-size="10.00">+ ImVec2 Pos() const</text>
<text text-anchor="start" x="8" y="-167.5" font-family="Helvetica,sans-Serif" font-size="10.00">+ void Resize(ImVec2 size)</text>
<text text-anchor="start" x="8" y="-156.5" font-family="Helvetica,sans-Serif" font-size="10.00">+ void Move(ImVec2 pos)</text>
<text text-anchor="start" x="8" y="-145.5" font-family="Helvetica,sans-Serif" font-size="10.00">+ void SetParent(UserInterfacePtr parent)</text>
<text text-anchor="start" x="8" y="-134.5" font-family="Helvetica,sans-Serif" font-size="10.00">+ UserInterfacePtr GetParent() const</text>
<text text-anchor="start" x="8" y="-123.5" font-family="Helvetica,sans-Serif" font-size="10.00">+ void AddCallback(std::string name, callback::CallbackPtr callback)</text>
<text text-anchor="start" x="8" y="-112.5" font-family="Helvetica,sans-Serif" font-size="10.00">+ CallbackMap GetCallbacks() const</text>
</a>
</g>
</g>
<!-- Node2&#45;&gt;Node1 -->
<g id="edge1" class="edge">
<title>Node2&#45;&gt;Node1</title>
<path fill="none" stroke="midnightblue" d="M175.5,-95.29C175.5,-85.79 175.5,-76.82 175.5,-68.85"/>
<polygon fill="none" stroke="midnightblue" points="172,-95.37 175.5,-105.37 179,-95.37 172,-95.37"/>
</g>
<!-- Node3 -->
<g id="node3" class="node">
<title>Node3</title>
<g id="a_node3"><a xlink:title=" ">
<polygon fill="white" stroke="#bfbfbf" points="51,-375.5 51,-432.5 300,-432.5 300,-375.5 51,-375.5"/>
<text text-anchor="middle" x="175.5" y="-420.5" font-family="Helvetica,sans-Serif" font-size="10.00">std::enable_shared_from_this&lt; UserInterface &gt;</text>
<polyline fill="none" stroke="#bfbfbf" points="51,-413.5 300,-413.5 "/>
<text text-anchor="middle" x="175.5" y="-401.5" font-family="Helvetica,sans-Serif" font-size="10.00"> </text>
<polyline fill="none" stroke="#bfbfbf" points="51,-394.5 300,-394.5 "/>
<text text-anchor="middle" x="175.5" y="-382.5" font-family="Helvetica,sans-Serif" font-size="10.00"> </text>
</a>
</g>
</g>
<!-- Node3&#45;&gt;Node2 -->
<g id="edge2" class="edge">
<title>Node3&#45;&gt;Node2</title>
<path fill="none" stroke="midnightblue" d="M175.5,-365.14C175.5,-357.03 175.5,-348.05 175.5,-338.67"/>
<polygon fill="none" stroke="midnightblue" points="172,-365.27 175.5,-375.27 179,-365.27 172,-365.27"/>
</g>
</g>
</svg>
