<?xml version="1.0" encoding="UTF-8" standalone="no"?>
<!DOCTYPE svg PUBLIC "-//W3C//DTD SVG 1.1//EN"
 "http://www.w3.org/Graphics/SVG/1.1/DTD/svg11.dtd">
<!-- Generated by graphviz version 2.43.0 (0)
 -->
<!-- Title: ad_framework::ui::TopViewer::FrameSender Pages: 1 -->
<svg width="677pt" height="563pt"
 viewBox="0.00 0.00 677.00 563.00" xmlns="http://www.w3.org/2000/svg" xmlns:xlink="http://www.w3.org/1999/xlink">
<g id="graph0" class="graph" transform="scale(1 1) rotate(0) translate(4 559)">
<title>ad_framework::ui::TopViewer::FrameSender</title>
<polygon fill="white" stroke="transparent" points="-4,4 -4,-559 673,-559 673,4 -4,4"/>
<!-- Node1 -->
<g id="node1" class="node">
<title>Node1</title>
<g id="a_node1"><a xlink:title=" ">
<polygon fill="#bfbfbf" stroke="black" points="178,-0.5 178,-79.5 460,-79.5 460,-0.5 178,-0.5"/>
<text text-anchor="middle" x="319" y="-67.5" font-family="Helvetica,sans-Serif" font-size="10.00">ad_framework::ui::TopViewer::FrameSender</text>
<polyline fill="none" stroke="black" points="178,-60.5 460,-60.5 "/>
<text text-anchor="middle" x="319" y="-48.5" font-family="Helvetica,sans-Serif" font-size="10.00"> </text>
<polyline fill="none" stroke="black" points="178,-41.5 460,-41.5 "/>
<text text-anchor="start" x="186" y="-29.5" font-family="Helvetica,sans-Serif" font-size="10.00">+ FrameSender()=default</text>
<text text-anchor="start" x="186" y="-18.5" font-family="Helvetica,sans-Serif" font-size="10.00">+ std::any operator()(const std::any &amp;src) override</text>
<text text-anchor="start" x="186" y="-7.5" font-family="Helvetica,sans-Serif" font-size="10.00">+ void SetFrame(const data_structure::Frame &amp;frame)</text>
</a>
</g>
</g>
<!-- Node2 -->
<g id="node2" class="node">
<title>Node2</title>
<g id="a_node2"><a xlink:href="structad__framework_1_1callback_1_1Callback.html" target="_top" xlink:title=" ">
<polygon fill="white" stroke="black" points="0,-149.5 0,-217.5 268,-217.5 268,-149.5 0,-149.5"/>
<text text-anchor="middle" x="134" y="-205.5" font-family="Helvetica,sans-Serif" font-size="10.00">ad_framework::callback::Callback</text>
<polyline fill="none" stroke="black" points="0,-198.5 268,-198.5 "/>
<text text-anchor="middle" x="134" y="-186.5" font-family="Helvetica,sans-Serif" font-size="10.00"> </text>
<polyline fill="none" stroke="black" points="0,-179.5 268,-179.5 "/>
<text text-anchor="start" x="8" y="-167.5" font-family="Helvetica,sans-Serif" font-size="10.00">+ virtual ~Callback()=default</text>
<text text-anchor="start" x="8" y="-156.5" font-family="Helvetica,sans-Serif" font-size="10.00">+ virtual std::any operator()(const std::any &amp;src)=0</text>
</a>
</g>
</g>
<!-- Node2&#45;&gt;Node1 -->
<g id="edge1" class="edge">
<title>Node2&#45;&gt;Node1</title>
<path fill="none" stroke="midnightblue" d="M185.57,-143.06C211.43,-123.28 242.63,-99.41 268.36,-79.73"/>
<polygon fill="none" stroke="midnightblue" points="183.19,-140.47 177.37,-149.32 187.44,-146.03 183.19,-140.47"/>
</g>
<!-- Node3 -->
<g id="node3" class="node">
<title>Node3</title>
<g id="a_node3"><a xlink:title=" ">
<polygon fill="white" stroke="#bfbfbf" points="286.5,-155 286.5,-212 351.5,-212 351.5,-155 286.5,-155"/>
<text text-anchor="middle" x="319" y="-200" font-family="Helvetica,sans-Serif" font-size="10.00">std::string</text>
<polyline fill="none" stroke="#bfbfbf" points="286.5,-193 351.5,-193 "/>
<text text-anchor="middle" x="319" y="-181" font-family="Helvetica,sans-Serif" font-size="10.00"> </text>
<polyline fill="none" stroke="#bfbfbf" points="286.5,-174 351.5,-174 "/>
<text text-anchor="middle" x="319" y="-162" font-family="Helvetica,sans-Serif" font-size="10.00"> </text>
</a>
</g>
</g>
<!-- Node3&#45;&gt;Node1 -->
<g id="edge2" class="edge">
<title>Node3&#45;&gt;Node1</title>
<path fill="none" stroke="#404040" d="M319,-154.88C319,-136.93 319,-112.99 319,-91.69"/>
<polygon fill="none" stroke="#404040" points="319,-91.52 315,-85.52 319,-79.52 323,-85.52 319,-91.52"/>
<text text-anchor="middle" x="335" y="-101" font-family="Helvetica,sans-Serif" font-size="10.00"> &#45;title_</text>
</g>
<!-- Node4 -->
<g id="node4" class="node">
<title>Node4</title>
<g id="a_node4"><a xlink:title=" ">
<polygon fill="white" stroke="#bfbfbf" points="248.5,-287.5 248.5,-344.5 389.5,-344.5 389.5,-287.5 248.5,-287.5"/>
<text text-anchor="middle" x="319" y="-332.5" font-family="Helvetica,sans-Serif" font-size="10.00">std::basic_string&lt; Char &gt;</text>
<polyline fill="none" stroke="#bfbfbf" points="248.5,-325.5 389.5,-325.5 "/>
<text text-anchor="middle" x="319" y="-313.5" font-family="Helvetica,sans-Serif" font-size="10.00"> </text>
<polyline fill="none" stroke="#bfbfbf" points="248.5,-306.5 389.5,-306.5 "/>
<text text-anchor="middle" x="319" y="-294.5" font-family="Helvetica,sans-Serif" font-size="10.00"> </text>
</a>
</g>
</g>
<!-- Node4&#45;&gt;Node3 -->
<g id="edge3" class="edge">
<title>Node4&#45;&gt;Node3</title>
<path fill="none" stroke="midnightblue" d="M319,-277.23C319,-256.43 319,-231.07 319,-212.14"/>
<polygon fill="none" stroke="midnightblue" points="315.5,-277.32 319,-287.32 322.5,-277.32 315.5,-277.32"/>
</g>
<!-- Node5 -->
<g id="node5" class="node">
<title>Node5</title>
<g id="a_node5"><a xlink:href="classad__framework_1_1data__structure_1_1Frame.html" target="_top" xlink:title=" ">
<polygon fill="white" stroke="black" points="369,-127.5 369,-239.5 669,-239.5 669,-127.5 369,-127.5"/>
<text text-anchor="middle" x="519" y="-227.5" font-family="Helvetica,sans-Serif" font-size="10.00">ad_framework::data_structure::Frame</text>
<polyline fill="none" stroke="black" points="369,-220.5 669,-220.5 "/>
<text text-anchor="middle" x="519" y="-208.5" font-family="Helvetica,sans-Serif" font-size="10.00"> </text>
<polyline fill="none" stroke="black" points="369,-201.5 669,-201.5 "/>
<text text-anchor="start" x="377" y="-189.5" font-family="Helvetica,sans-Serif" font-size="10.00">+ Frame()=default</text>
<text text-anchor="start" x="377" y="-178.5" font-family="Helvetica,sans-Serif" font-size="10.00">+ Frame(const std::vector&lt; ShapePtr &gt; &amp;shapes)</text>
<text text-anchor="start" x="377" y="-167.5" font-family="Helvetica,sans-Serif" font-size="10.00">+ void AddShape(ShapePtr shape)</text>
<text text-anchor="start" x="377" y="-156.5" font-family="Helvetica,sans-Serif" font-size="10.00">+ void AddShape(const std::vector&lt; ShapePtr &gt; &amp;shapes)</text>
<text text-anchor="start" x="377" y="-145.5" font-family="Helvetica,sans-Serif" font-size="10.00">+ void Clear()</text>
<text text-anchor="start" x="377" y="-134.5" font-family="Helvetica,sans-Serif" font-size="10.00">+ std::vector&lt; ShapePtr &gt; GetShapes() const</text>
</a>
</g>
</g>
<!-- Node5&#45;&gt;Node1 -->
<g id="edge4" class="edge">
<title>Node5&#45;&gt;Node1</title>
<path fill="none" stroke="#404040" d="M441.1,-127.39C422.04,-113.9 401.85,-99.61 383.49,-86.63"/>
<polygon fill="none" stroke="#404040" points="383.29,-86.49 376.09,-86.29 373.5,-79.56 380.71,-79.76 383.29,-86.49"/>
<text text-anchor="middle" x="435" y="-101" font-family="Helvetica,sans-Serif" font-size="10.00"> &#45;frame_</text>
</g>
<!-- Node6 -->
<g id="node6" class="node">
<title>Node6</title>
<g id="a_node6"><a xlink:title=" ">
<polygon fill="white" stroke="#bfbfbf" points="452,-287.5 452,-344.5 586,-344.5 586,-287.5 452,-287.5"/>
<text text-anchor="middle" x="519" y="-332.5" font-family="Helvetica,sans-Serif" font-size="10.00">std::vector&lt; ShapePtr &gt;</text>
<polyline fill="none" stroke="#bfbfbf" points="452,-325.5 586,-325.5 "/>
<text text-anchor="middle" x="519" y="-313.5" font-family="Helvetica,sans-Serif" font-size="10.00"> </text>
<polyline fill="none" stroke="#bfbfbf" points="452,-306.5 586,-306.5 "/>
<text text-anchor="middle" x="519" y="-294.5" font-family="Helvetica,sans-Serif" font-size="10.00"> </text>
</a>
</g>
</g>
<!-- Node6&#45;&gt;Node5 -->
<g id="edge5" class="edge">
<title>Node6&#45;&gt;Node5</title>
<path fill="none" stroke="#404040" d="M519,-287.32C519,-276.78 519,-264.25 519,-251.62"/>
<polygon fill="none" stroke="#404040" points="519,-251.55 515,-245.55 519,-239.55 523,-245.55 519,-251.55"/>
<text text-anchor="middle" x="542.5" y="-261" font-family="Helvetica,sans-Serif" font-size="10.00"> &#45;shapes_</text>
</g>
<!-- Node7 -->
<g id="node7" class="node">
<title>Node7</title>
<g id="a_node7"><a xlink:title=" ">
<polygon fill="white" stroke="#bfbfbf" points="392,-392.5 392,-449.5 510,-449.5 510,-392.5 392,-392.5"/>
<text text-anchor="middle" x="451" y="-437.5" font-family="Helvetica,sans-Serif" font-size="10.00">std::shared_ptr&lt; T &gt;</text>
<polyline fill="none" stroke="#bfbfbf" points="392,-430.5 510,-430.5 "/>
<text text-anchor="middle" x="451" y="-418.5" font-family="Helvetica,sans-Serif" font-size="10.00"> </text>
<polyline fill="none" stroke="#bfbfbf" points="392,-411.5 510,-411.5 "/>
<text text-anchor="start" x="400" y="-399.5" font-family="Helvetica,sans-Serif" font-size="10.00">+ T * operator&#45;&gt;()</text>
</a>
</g>
</g>
<!-- Node7&#45;&gt;Node6 -->
<g id="edge6" class="edge">
<title>Node7&#45;&gt;Node6</title>
<path fill="none" stroke="#404040" d="M466.1,-392.32C471.5,-382.87 477.79,-372.33 484,-363 485.81,-360.28 487.74,-357.5 489.71,-354.73"/>
<polygon fill="none" stroke="#404040" points="489.87,-354.5 490.19,-347.29 496.96,-344.81 496.64,-352.02 489.87,-354.5"/>
<text text-anchor="middle" x="513" y="-366" font-family="Helvetica,sans-Serif" font-size="10.00"> +elements</text>
</g>
<!-- Node8 -->
<g id="node8" class="node">
<title>Node8</title>
<g id="a_node8"><a xlink:title=" ">
<polygon fill="white" stroke="#bfbfbf" points="499.5,-497.5 499.5,-554.5 528.5,-554.5 528.5,-497.5 499.5,-497.5"/>
<text text-anchor="middle" x="514" y="-542.5" font-family="Helvetica,sans-Serif" font-size="10.00">T</text>
<polyline fill="none" stroke="#bfbfbf" points="499.5,-535.5 528.5,-535.5 "/>
<text text-anchor="middle" x="514" y="-523.5" font-family="Helvetica,sans-Serif" font-size="10.00"> </text>
<polyline fill="none" stroke="#bfbfbf" points="499.5,-516.5 528.5,-516.5 "/>
<text text-anchor="middle" x="514" y="-504.5" font-family="Helvetica,sans-Serif" font-size="10.00"> </text>
</a>
</g>
</g>
<!-- Node8&#45;&gt;Node7 -->
<g id="edge7" class="edge">
<title>Node8&#45;&gt;Node7</title>
<path fill="none" stroke="#404040" d="M499.39,-501.11C491.99,-489.01 482.82,-474.03 474.47,-460.37"/>
<polygon fill="none" stroke="#404040" points="474.25,-460.01 467.7,-456.98 467.99,-449.77 474.53,-452.8 474.25,-460.01"/>
<text text-anchor="middle" x="497.5" y="-471" font-family="Helvetica,sans-Serif" font-size="10.00"> +ptr</text>
</g>
<!-- Node9 -->
<g id="node9" class="node">
<title>Node9</title>
<g id="a_node9"><a xlink:title=" ">
<polygon fill="white" stroke="#bfbfbf" points="528.5,-392.5 528.5,-449.5 625.5,-449.5 625.5,-392.5 528.5,-392.5"/>
<text text-anchor="middle" x="577" y="-437.5" font-family="Helvetica,sans-Serif" font-size="10.00">std::vector&lt; T &gt;</text>
<polyline fill="none" stroke="#bfbfbf" points="528.5,-430.5 625.5,-430.5 "/>
<text text-anchor="middle" x="577" y="-418.5" font-family="Helvetica,sans-Serif" font-size="10.00"> </text>
<polyline fill="none" stroke="#bfbfbf" points="528.5,-411.5 625.5,-411.5 "/>
<text text-anchor="middle" x="577" y="-399.5" font-family="Helvetica,sans-Serif" font-size="10.00"> </text>
</a>
</g>
</g>
<!-- Node8&#45;&gt;Node9 -->
<g id="edge9" class="edge">
<title>Node8&#45;&gt;Node9</title>
<path fill="none" stroke="#404040" d="M528.61,-501.11C536.01,-489.01 545.18,-474.03 553.53,-460.37"/>
<polygon fill="none" stroke="#404040" points="553.75,-460.01 553.47,-452.8 560.01,-449.77 560.3,-456.98 553.75,-460.01"/>
<text text-anchor="middle" x="576" y="-471" font-family="Helvetica,sans-Serif" font-size="10.00"> +elements</text>
</g>
<!-- Node9&#45;&gt;Node6 -->
<g id="edge8" class="edge">
<title>Node9&#45;&gt;Node6</title>
<path fill="none" stroke="orange" d="M556.39,-383.4C549.21,-370.66 541.29,-356.58 534.59,-344.68"/>
<polygon fill="orange" stroke="orange" points="553.5,-385.4 561.46,-392.4 559.6,-381.97 553.5,-385.4"/>
<text text-anchor="middle" x="584" y="-366" font-family="Helvetica,sans-Serif" font-size="10.00"> &lt; ShapePtr &gt;</text>
</g>
</g>
</svg>
