<?xml version="1.0" encoding="UTF-8" standalone="no"?>
<!DOCTYPE svg PUBLIC "-//W3C//DTD SVG 1.1//EN"
 "http://www.w3.org/Graphics/SVG/1.1/DTD/svg11.dtd">
<!-- Generated by graphviz version 2.43.0 (0)
 -->
<!-- Title: ad_framework::data_structure::Shape Pages: 1 -->
<svg width="1660pt" height="248pt"
 viewBox="0.00 0.00 1659.50 248.00" xmlns="http://www.w3.org/2000/svg" xmlns:xlink="http://www.w3.org/1999/xlink">
<g id="graph0" class="graph" transform="scale(1 1) rotate(0) translate(4 244)">
<title>ad_framework::data_structure::Shape</title>
<polygon fill="white" stroke="transparent" points="-4,4 -4,-244 1655.5,-244 1655.5,4 -4,4"/>
<!-- Node1 -->
<g id="node1" class="node">
<title>Node1</title>
<g id="a_node1"><a xlink:title=" ">
<polygon fill="#bfbfbf" stroke="black" points="690,-149.5 690,-239.5 988,-239.5 988,-149.5 690,-149.5"/>
<text text-anchor="middle" x="839" y="-227.5" font-family="Helvetica,sans-Serif" font-size="10.00">ad_framework::data_structure::Shape</text>
<polyline fill="none" stroke="black" points="690,-220.5 988,-220.5 "/>
<text text-anchor="middle" x="839" y="-208.5" font-family="Helvetica,sans-Serif" font-size="10.00"> </text>
<polyline fill="none" stroke="black" points="690,-201.5 988,-201.5 "/>
<text text-anchor="start" x="698" y="-189.5" font-family="Helvetica,sans-Serif" font-size="10.00">+ virtual ~Shape()=default</text>
<text text-anchor="start" x="698" y="-178.5" font-family="Helvetica,sans-Serif" font-size="10.00">+ virtual bool IsIn(const Eigen::Vector3d &amp;point) const =0</text>
<text text-anchor="start" x="698" y="-167.5" font-family="Helvetica,sans-Serif" font-size="10.00">+ virtual std::string ToString() const =0</text>
<text text-anchor="start" x="698" y="-156.5" font-family="Helvetica,sans-Serif" font-size="10.00">+ virtual ~Shape()=default</text>
</a>
</g>
</g>
<!-- Node2 -->
<g id="node2" class="node">
<title>Node2</title>
<g id="a_node2"><a xlink:href="classad__framework_1_1data__structure_1_1Circle.html" target="_top" xlink:title=" ">
<polygon fill="white" stroke="black" points="0,-0.5 0,-112.5 290,-112.5 290,-0.5 0,-0.5"/>
<text text-anchor="middle" x="145" y="-100.5" font-family="Helvetica,sans-Serif" font-size="10.00">ad_framework::data_structure::Circle</text>
<polyline fill="none" stroke="black" points="0,-93.5 290,-93.5 "/>
<text text-anchor="start" x="8" y="-81.5" font-family="Helvetica,sans-Serif" font-size="10.00">+ Point center</text>
<text text-anchor="start" x="8" y="-70.5" font-family="Helvetica,sans-Serif" font-size="10.00">+ double radius</text>
<text text-anchor="start" x="8" y="-59.5" font-family="Helvetica,sans-Serif" font-size="10.00">&#45; Eigen::Vector3d center_</text>
<text text-anchor="start" x="8" y="-48.5" font-family="Helvetica,sans-Serif" font-size="10.00">&#45; double radius_</text>
<polyline fill="none" stroke="black" points="0,-41.5 290,-41.5 "/>
<text text-anchor="start" x="8" y="-29.5" font-family="Helvetica,sans-Serif" font-size="10.00">+ Circle(const Eigen::Vector3d &amp;center, double radius)</text>
<text text-anchor="start" x="8" y="-18.5" font-family="Helvetica,sans-Serif" font-size="10.00">+ bool IsIn(const Eigen::Vector3d &amp;point) const override</text>
<text text-anchor="start" x="8" y="-7.5" font-family="Helvetica,sans-Serif" font-size="10.00">+ std::string ToString() const override</text>
</a>
</g>
</g>
<!-- Node1&#45;&gt;Node2 -->
<g id="edge1" class="edge">
<title>Node1&#45;&gt;Node2</title>
<path fill="none" stroke="midnightblue" d="M679.75,-179C569.16,-166.62 419.12,-145.55 290,-113 289.45,-112.86 288.9,-112.72 288.34,-112.58"/>
<polygon fill="none" stroke="midnightblue" points="679.66,-182.52 689.99,-180.14 680.43,-175.56 679.66,-182.52"/>
</g>
<!-- Node1&#45;&gt;Node2 -->
<g id="edge2" class="edge">
<title>Node1&#45;&gt;Node2</title>
<path fill="none" stroke="midnightblue" d="M679.71,-177.25C573.45,-164.66 431.21,-144.06 308,-113 302.08,-111.51 296.06,-109.87 290,-108.13"/>
<polygon fill="none" stroke="midnightblue" points="679.54,-180.75 689.88,-178.44 680.36,-173.8 679.54,-180.75"/>
</g>
<!-- Node3 -->
<g id="node3" class="node">
<title>Node3</title>
<g id="a_node3"><a xlink:href="structad__framework_1_1data__structure_1_1Line.html" target="_top" xlink:title=" ">
<polygon fill="white" stroke="black" points="308,-22.5 308,-90.5 498,-90.5 498,-22.5 308,-22.5"/>
<text text-anchor="middle" x="403" y="-78.5" font-family="Helvetica,sans-Serif" font-size="10.00">ad_framework::data_structure::Line</text>
<polyline fill="none" stroke="black" points="308,-71.5 498,-71.5 "/>
<text text-anchor="start" x="316" y="-59.5" font-family="Helvetica,sans-Serif" font-size="10.00">+ Point start_point</text>
<text text-anchor="start" x="316" y="-48.5" font-family="Helvetica,sans-Serif" font-size="10.00">+ Point end_point</text>
<polyline fill="none" stroke="black" points="308,-41.5 498,-41.5 "/>
<text text-anchor="middle" x="403" y="-29.5" font-family="Helvetica,sans-Serif" font-size="10.00"> </text>
</a>
</g>
</g>
<!-- Node1&#45;&gt;Node3 -->
<g id="edge3" class="edge">
<title>Node1&#45;&gt;Node3</title>
<path fill="none" stroke="midnightblue" d="M679.95,-163.51C624.31,-150.78 562.03,-133.97 507,-113 490.84,-106.84 474.02,-98.7 458.73,-90.56"/>
<polygon fill="none" stroke="midnightblue" points="679.37,-166.96 689.89,-165.75 680.91,-160.14 679.37,-166.96"/>
</g>
<!-- Node4 -->
<g id="node4" class="node">
<title>Node4</title>
<g id="a_node4"><a xlink:href="structad__framework_1_1data__structure_1_1Point.html" target="_top" xlink:title=" ">
<polygon fill="white" stroke="black" points="516,-28 516,-85 710,-85 710,-28 516,-28"/>
<text text-anchor="middle" x="613" y="-73" font-family="Helvetica,sans-Serif" font-size="10.00">ad_framework::data_structure::Point</text>
<polyline fill="none" stroke="black" points="516,-66 710,-66 "/>
<text text-anchor="start" x="524" y="-54" font-family="Helvetica,sans-Serif" font-size="10.00">+ Eigen::Vector3d point</text>
<polyline fill="none" stroke="black" points="516,-47 710,-47 "/>
<text text-anchor="middle" x="613" y="-35" font-family="Helvetica,sans-Serif" font-size="10.00"> </text>
</a>
</g>
</g>
<!-- Node1&#45;&gt;Node4 -->
<g id="edge4" class="edge">
<title>Node1&#45;&gt;Node4</title>
<path fill="none" stroke="midnightblue" d="M756.86,-144.07C723.77,-124.16 686.87,-101.95 658.72,-85.01"/>
<polygon fill="none" stroke="midnightblue" points="755.25,-147.19 765.62,-149.34 758.86,-141.19 755.25,-147.19"/>
</g>
<!-- Node5 -->
<g id="node5" class="node">
<title>Node5</title>
<g id="a_node5"><a xlink:href="structad__framework_1_1data__structure_1_1PointCloud.html" target="_top" xlink:title=" ">
<polygon fill="white" stroke="black" points="728,-28 728,-85 950,-85 950,-28 728,-28"/>
<text text-anchor="middle" x="839" y="-73" font-family="Helvetica,sans-Serif" font-size="10.00">ad_framework::data_structure::PointCloud</text>
<polyline fill="none" stroke="black" points="728,-66 950,-66 "/>
<text text-anchor="start" x="736" y="-54" font-family="Helvetica,sans-Serif" font-size="10.00">+ std::vector&lt; Point &gt; points</text>
<polyline fill="none" stroke="black" points="728,-47 950,-47 "/>
<text text-anchor="middle" x="839" y="-35" font-family="Helvetica,sans-Serif" font-size="10.00"> </text>
</a>
</g>
</g>
<!-- Node1&#45;&gt;Node5 -->
<g id="edge5" class="edge">
<title>Node1&#45;&gt;Node5</title>
<path fill="none" stroke="midnightblue" d="M839,-139.24C839,-120.71 839,-100.77 839,-85.22"/>
<polygon fill="none" stroke="midnightblue" points="835.5,-139.34 839,-149.34 842.5,-139.34 835.5,-139.34"/>
</g>
<!-- Node6 -->
<g id="node6" class="node">
<title>Node6</title>
<g id="a_node6"><a xlink:href="classad__framework_1_1data__structure_1_1Polygon.html" target="_top" xlink:title=" ">
<polygon fill="white" stroke="black" points="968,-11.5 968,-101.5 1262,-101.5 1262,-11.5 968,-11.5"/>
<text text-anchor="middle" x="1115" y="-89.5" font-family="Helvetica,sans-Serif" font-size="10.00">ad_framework::data_structure::Polygon</text>
<polyline fill="none" stroke="black" points="968,-82.5 1262,-82.5 "/>
<text text-anchor="start" x="976" y="-70.5" font-family="Helvetica,sans-Serif" font-size="10.00">+ std::vector&lt; Point &gt; points</text>
<text text-anchor="start" x="976" y="-59.5" font-family="Helvetica,sans-Serif" font-size="10.00">&#45; std::vector&lt; Eigen::Vector3d &gt; points_</text>
<polyline fill="none" stroke="black" points="968,-52.5 1262,-52.5 "/>
<text text-anchor="start" x="976" y="-40.5" font-family="Helvetica,sans-Serif" font-size="10.00">+ Polygon(const std::vector&lt; Eigen::Vector3d &gt; &amp;points)</text>
<text text-anchor="start" x="976" y="-29.5" font-family="Helvetica,sans-Serif" font-size="10.00">+ bool IsIn(const Eigen::Vector3d &amp;point) const override</text>
<text text-anchor="start" x="976" y="-18.5" font-family="Helvetica,sans-Serif" font-size="10.00">+ std::string ToString() const override</text>
</a>
</g>
</g>
<!-- Node1&#45;&gt;Node6 -->
<g id="edge6" class="edge">
<title>Node1&#45;&gt;Node6</title>
<path fill="none" stroke="midnightblue" d="M931.29,-144.82C959.49,-130.74 990.56,-115.45 1019,-101.67"/>
<polygon fill="none" stroke="midnightblue" points="929.62,-141.74 922.24,-149.34 932.75,-148 929.62,-141.74"/>
</g>
<!-- Node1&#45;&gt;Node6 -->
<g id="edge7" class="edge">
<title>Node1&#45;&gt;Node6</title>
<path fill="none" stroke="midnightblue" d="M944.3,-144.82C973.24,-130.74 1004.21,-115.45 1031.74,-101.67"/>
<polygon fill="none" stroke="midnightblue" points="942.44,-141.83 934.98,-149.34 945.5,-148.12 942.44,-141.83"/>
</g>
<!-- Node7 -->
<g id="node7" class="node">
<title>Node7</title>
<g id="a_node7"><a xlink:href="classad__framework_1_1data__structure_1_1Rectangle.html" target="_top" xlink:title=" ">
<polygon fill="white" stroke="black" points="1280.5,-0.5 1280.5,-112.5 1651.5,-112.5 1651.5,-0.5 1280.5,-0.5"/>
<text text-anchor="middle" x="1466" y="-100.5" font-family="Helvetica,sans-Serif" font-size="10.00">ad_framework::data_structure::Rectangle</text>
<polyline fill="none" stroke="black" points="1280.5,-93.5 1651.5,-93.5 "/>
<text text-anchor="start" x="1288.5" y="-81.5" font-family="Helvetica,sans-Serif" font-size="10.00">+ Point center</text>
<text text-anchor="start" x="1288.5" y="-70.5" font-family="Helvetica,sans-Serif" font-size="10.00">+ Point size</text>
<text text-anchor="start" x="1288.5" y="-59.5" font-family="Helvetica,sans-Serif" font-size="10.00">&#45; Eigen::Vector3d center_</text>
<text text-anchor="start" x="1288.5" y="-48.5" font-family="Helvetica,sans-Serif" font-size="10.00">&#45; Eigen::Vector3d size_</text>
<polyline fill="none" stroke="black" points="1280.5,-41.5 1651.5,-41.5 "/>
<text text-anchor="start" x="1288.5" y="-29.5" font-family="Helvetica,sans-Serif" font-size="10.00">+ Rectangle(const Eigen::Vector3d &amp;center, const Eigen::Vector3d &amp;size)</text>
<text text-anchor="start" x="1288.5" y="-18.5" font-family="Helvetica,sans-Serif" font-size="10.00">+ bool IsIn(const Eigen::Vector3d &amp;point) const override</text>
<text text-anchor="start" x="1288.5" y="-7.5" font-family="Helvetica,sans-Serif" font-size="10.00">+ std::string ToString() const override</text>
</a>
</g>
</g>
<!-- Node1&#45;&gt;Node7 -->
<g id="edge8" class="edge">
<title>Node1&#45;&gt;Node7</title>
<path fill="none" stroke="midnightblue" d="M998.28,-166.04C1077.81,-151.91 1175.29,-133.37 1262,-113 1268.08,-111.57 1274.26,-110.07 1280.49,-108.52"/>
<polygon fill="none" stroke="midnightblue" points="997.41,-162.64 988.17,-167.83 998.63,-169.53 997.41,-162.64"/>
</g>
<!-- Node1&#45;&gt;Node7 -->
<g id="edge9" class="edge">
<title>Node1&#45;&gt;Node7</title>
<path fill="none" stroke="midnightblue" d="M998,-168.9C1082.31,-154.45 1187.31,-134.78 1280,-113 1280.69,-112.84 1281.37,-112.68 1282.06,-112.51"/>
<polygon fill="none" stroke="midnightblue" points="997.36,-165.46 988.09,-170.59 998.53,-172.36 997.36,-165.46"/>
</g>
</g>
</svg>
