<?xml version="1.0" encoding="UTF-8" standalone="no"?>
<!DOCTYPE svg PUBLIC "-//W3C//DTD SVG 1.1//EN"
 "http://www.w3.org/Graphics/SVG/1.1/DTD/svg11.dtd">
<!-- Generated by graphviz version 2.43.0 (0)
 -->
<!-- Title: ad_framework::application::UserInterface Pages: 1 -->
<svg width="954pt" height="480pt"
 viewBox="0.00 0.00 954.00 480.00" xmlns="http://www.w3.org/2000/svg" xmlns:xlink="http://www.w3.org/1999/xlink">
<g id="graph0" class="graph" transform="scale(1 1) rotate(0) translate(4 476)">
<title>ad_framework::application::UserInterface</title>
<polygon fill="white" stroke="transparent" points="-4,4 -4,-476 950,-476 950,4 -4,4"/>
<!-- Node1 -->
<g id="node1" class="node">
<title>Node1</title>
<g id="a_node1"><a xlink:title=" ">
<polygon fill="#bfbfbf" stroke="black" points="297.5,-0.5 297.5,-90.5 516.5,-90.5 516.5,-0.5 297.5,-0.5"/>
<text text-anchor="middle" x="407" y="-78.5" font-family="Helvetica,sans-Serif" font-size="10.00">ad_framework::application::UserInterface</text>
<polyline fill="none" stroke="black" points="297.5,-71.5 516.5,-71.5 "/>
<text text-anchor="middle" x="407" y="-59.5" font-family="Helvetica,sans-Serif" font-size="10.00"> </text>
<polyline fill="none" stroke="black" points="297.5,-52.5 516.5,-52.5 "/>
<text text-anchor="start" x="305.5" y="-40.5" font-family="Helvetica,sans-Serif" font-size="10.00">+ UserInterface()</text>
<text text-anchor="start" x="305.5" y="-29.5" font-family="Helvetica,sans-Serif" font-size="10.00">+ ~UserInterface()=default</text>
<text text-anchor="start" x="305.5" y="-18.5" font-family="Helvetica,sans-Serif" font-size="10.00">+ void Execute()</text>
<text text-anchor="start" x="305.5" y="-7.5" font-family="Helvetica,sans-Serif" font-size="10.00">+ void UpdateDataReader()</text>
</a>
</g>
</g>
<!-- Node2 -->
<g id="node2" class="node">
<title>Node2</title>
<g id="a_node2"><a xlink:title=" ">
<polygon fill="white" stroke="#bfbfbf" points="0,-166 0,-223 168,-223 168,-166 0,-166"/>
<text text-anchor="middle" x="84" y="-211" font-family="Helvetica,sans-Serif" font-size="10.00">std::shared_ptr&lt; DataLoader &gt;</text>
<polyline fill="none" stroke="#bfbfbf" points="0,-204 168,-204 "/>
<text text-anchor="start" x="8" y="-192" font-family="Helvetica,sans-Serif" font-size="10.00">+ DataLoader ptr</text>
<polyline fill="none" stroke="#bfbfbf" points="0,-185 168,-185 "/>
<text text-anchor="start" x="8" y="-173" font-family="Helvetica,sans-Serif" font-size="10.00">+ DataLoader * operator&#45;&gt;()</text>
</a>
</g>
</g>
<!-- Node2&#45;&gt;Node1 -->
<g id="edge1" class="edge">
<title>Node2&#45;&gt;Node1</title>
<path fill="none" stroke="#404040" d="M127.2,-165.77C142.62,-156.4 160.31,-146.24 177,-138 211.6,-120.93 250.22,-104.58 285.79,-90.54"/>
<polygon fill="none" stroke="#404040" points="286.04,-90.44 290.17,-84.53 297.22,-86.07 293.09,-91.98 286.04,-90.44"/>
<text text-anchor="middle" x="281" y="-112" font-family="Helvetica,sans-Serif" font-size="10.00"> &#45;dataloader_ptr_</text>
</g>
<!-- Node3 -->
<g id="node3" class="node">
<title>Node3</title>
<g id="a_node3"><a xlink:title=" ">
<polygon fill="white" stroke="#bfbfbf" points="202,-309.5 202,-366.5 320,-366.5 320,-309.5 202,-309.5"/>
<text text-anchor="middle" x="261" y="-354.5" font-family="Helvetica,sans-Serif" font-size="10.00">std::shared_ptr&lt; T &gt;</text>
<polyline fill="none" stroke="#bfbfbf" points="202,-347.5 320,-347.5 "/>
<text text-anchor="middle" x="261" y="-335.5" font-family="Helvetica,sans-Serif" font-size="10.00"> </text>
<polyline fill="none" stroke="#bfbfbf" points="202,-328.5 320,-328.5 "/>
<text text-anchor="start" x="210" y="-316.5" font-family="Helvetica,sans-Serif" font-size="10.00">+ T * operator&#45;&gt;()</text>
</a>
</g>
</g>
<!-- Node3&#45;&gt;Node2 -->
<g id="edge2" class="edge">
<title>Node3&#45;&gt;Node2</title>
<path fill="none" stroke="orange" d="M192.67,-309.74C182.27,-304.25 172.02,-297.99 163,-291 138.34,-271.89 116.27,-243.79 101.77,-223.01"/>
<polygon fill="orange" stroke="orange" points="191.31,-312.97 201.81,-314.36 194.47,-306.72 191.31,-312.97"/>
<text text-anchor="middle" x="204" y="-277.5" font-family="Helvetica,sans-Serif" font-size="10.00"> &lt; DataLoader &gt;</text>
</g>
<!-- Node5 -->
<g id="node5" class="node">
<title>Node5</title>
<g id="a_node5"><a xlink:title=" ">
<polygon fill="white" stroke="#bfbfbf" points="186,-166 186,-223 350,-223 350,-166 186,-166"/>
<text text-anchor="middle" x="268" y="-211" font-family="Helvetica,sans-Serif" font-size="10.00">std::forward_list&lt; PannelPtr &gt;</text>
<polyline fill="none" stroke="#bfbfbf" points="186,-204 350,-204 "/>
<text text-anchor="middle" x="268" y="-192" font-family="Helvetica,sans-Serif" font-size="10.00"> </text>
<polyline fill="none" stroke="#bfbfbf" points="186,-185 350,-185 "/>
<text text-anchor="middle" x="268" y="-173" font-family="Helvetica,sans-Serif" font-size="10.00"> </text>
</a>
</g>
</g>
<!-- Node3&#45;&gt;Node5 -->
<g id="edge5" class="edge">
<title>Node3&#45;&gt;Node5</title>
<path fill="none" stroke="#404040" d="M252.61,-309.49C251.11,-303.46 249.78,-297.06 249,-291 246.63,-272.52 249.82,-252.24 254.23,-235.15"/>
<polygon fill="none" stroke="#404040" points="254.31,-234.87 252.1,-228.01 257.59,-223.33 259.8,-230.2 254.31,-234.87"/>
<text text-anchor="middle" x="278" y="-277.5" font-family="Helvetica,sans-Serif" font-size="10.00"> +elements</text>
</g>
<!-- Node8 -->
<g id="node8" class="node">
<title>Node8</title>
<g id="a_node8"><a xlink:title=" ">
<polygon fill="white" stroke="#bfbfbf" points="464,-166 464,-223 634,-223 634,-166 464,-166"/>
<text text-anchor="middle" x="549" y="-211" font-family="Helvetica,sans-Serif" font-size="10.00">std::shared_ptr&lt; DataReader &gt;</text>
<polyline fill="none" stroke="#bfbfbf" points="464,-204 634,-204 "/>
<text text-anchor="start" x="472" y="-192" font-family="Helvetica,sans-Serif" font-size="10.00">+ DataReader ptr</text>
<polyline fill="none" stroke="#bfbfbf" points="464,-185 634,-185 "/>
<text text-anchor="start" x="472" y="-173" font-family="Helvetica,sans-Serif" font-size="10.00">+ DataReader * operator&#45;&gt;()</text>
</a>
</g>
</g>
<!-- Node3&#45;&gt;Node8 -->
<g id="edge10" class="edge">
<title>Node3&#45;&gt;Node8</title>
<path fill="none" stroke="orange" d="M296.74,-301.78C300.24,-298.17 303.71,-294.54 307,-291 315.8,-281.54 314.66,-275.18 326,-269 376.44,-241.5 399.73,-269.84 454,-251 473.31,-244.3 493.07,-233.5 509.54,-223.2"/>
<polygon fill="orange" stroke="orange" points="294.06,-299.51 289.55,-309.1 299.05,-304.42 294.06,-299.51"/>
<text text-anchor="middle" x="368" y="-277.5" font-family="Helvetica,sans-Serif" font-size="10.00"> &lt; DataReader &gt;</text>
</g>
<!-- Node4 -->
<g id="node4" class="node">
<title>Node4</title>
<g id="a_node4"><a xlink:title=" ">
<polygon fill="white" stroke="#bfbfbf" points="315.5,-414.5 315.5,-471.5 344.5,-471.5 344.5,-414.5 315.5,-414.5"/>
<text text-anchor="middle" x="330" y="-459.5" font-family="Helvetica,sans-Serif" font-size="10.00">T</text>
<polyline fill="none" stroke="#bfbfbf" points="315.5,-452.5 344.5,-452.5 "/>
<text text-anchor="middle" x="330" y="-440.5" font-family="Helvetica,sans-Serif" font-size="10.00"> </text>
<polyline fill="none" stroke="#bfbfbf" points="315.5,-433.5 344.5,-433.5 "/>
<text text-anchor="middle" x="330" y="-421.5" font-family="Helvetica,sans-Serif" font-size="10.00"> </text>
</a>
</g>
</g>
<!-- Node4&#45;&gt;Node3 -->
<g id="edge3" class="edge">
<title>Node4&#45;&gt;Node3</title>
<path fill="none" stroke="#404040" d="M315.37,-420.16C306.96,-407.61 296.17,-391.51 286.42,-376.95"/>
<polygon fill="none" stroke="#404040" points="286.24,-376.67 279.57,-373.91 279.56,-366.7 286.22,-369.46 286.24,-376.67"/>
<text text-anchor="middle" x="310.5" y="-388" font-family="Helvetica,sans-Serif" font-size="10.00"> +ptr</text>
</g>
<!-- Node6 -->
<g id="node6" class="node">
<title>Node6</title>
<g id="a_node6"><a xlink:title=" ">
<polygon fill="white" stroke="#bfbfbf" points="362,-309.5 362,-366.5 486,-366.5 486,-309.5 362,-309.5"/>
<text text-anchor="middle" x="424" y="-354.5" font-family="Helvetica,sans-Serif" font-size="10.00">std::forward_list&lt; T &gt;</text>
<polyline fill="none" stroke="#bfbfbf" points="362,-347.5 486,-347.5 "/>
<text text-anchor="middle" x="424" y="-335.5" font-family="Helvetica,sans-Serif" font-size="10.00"> </text>
<polyline fill="none" stroke="#bfbfbf" points="362,-328.5 486,-328.5 "/>
<text text-anchor="middle" x="424" y="-316.5" font-family="Helvetica,sans-Serif" font-size="10.00"> </text>
</a>
</g>
</g>
<!-- Node4&#45;&gt;Node6 -->
<g id="edge7" class="edge">
<title>Node4&#45;&gt;Node6</title>
<path fill="none" stroke="#404040" d="M344.69,-425.91C356.89,-412.54 374.71,-393 390.38,-375.84"/>
<polygon fill="none" stroke="#404040" points="390.72,-375.47 391.81,-368.34 398.81,-366.6 397.72,-373.73 390.72,-375.47"/>
<text text-anchor="middle" x="409" y="-388" font-family="Helvetica,sans-Serif" font-size="10.00"> +elements</text>
</g>
<!-- Node5&#45;&gt;Node1 -->
<g id="edge4" class="edge">
<title>Node5&#45;&gt;Node1</title>
<path fill="none" stroke="#404040" d="M294.14,-165.85C311.78,-147.2 335.61,-121.99 356.84,-99.55"/>
<polygon fill="none" stroke="#404040" points="356.88,-99.5 358.1,-92.39 365.13,-90.78 363.91,-97.89 356.88,-99.5"/>
<text text-anchor="middle" x="371.5" y="-112" font-family="Helvetica,sans-Serif" font-size="10.00"> &#45;pannels_</text>
</g>
<!-- Node6&#45;&gt;Node5 -->
<g id="edge6" class="edge">
<title>Node6&#45;&gt;Node5</title>
<path fill="none" stroke="orange" d="M425.64,-299.26C424.33,-288.46 421.05,-277.37 414,-269 397.43,-249.33 382.36,-261.77 359,-251 341.86,-243.1 323.93,-232.68 308.56,-223.01"/>
<polygon fill="orange" stroke="orange" points="422.16,-299.69 426.35,-309.42 429.15,-299.21 422.16,-299.69"/>
<text text-anchor="middle" x="461" y="-277.5" font-family="Helvetica,sans-Serif" font-size="10.00"> &lt; PannelPtr &gt;</text>
</g>
<!-- Node7 -->
<g id="node7" class="node">
<title>Node7</title>
<g id="a_node7"><a xlink:title=" ">
<polygon fill="white" stroke="#bfbfbf" points="368.5,-166 368.5,-223 445.5,-223 445.5,-166 368.5,-166"/>
<text text-anchor="middle" x="407" y="-211" font-family="Helvetica,sans-Serif" font-size="10.00">DatasetType</text>
<polyline fill="none" stroke="#bfbfbf" points="368.5,-204 445.5,-204 "/>
<text text-anchor="middle" x="407" y="-192" font-family="Helvetica,sans-Serif" font-size="10.00"> </text>
<polyline fill="none" stroke="#bfbfbf" points="368.5,-185 445.5,-185 "/>
<text text-anchor="middle" x="407" y="-173" font-family="Helvetica,sans-Serif" font-size="10.00"> </text>
</a>
</g>
</g>
<!-- Node7&#45;&gt;Node1 -->
<g id="edge8" class="edge">
<title>Node7&#45;&gt;Node1</title>
<path fill="none" stroke="#404040" d="M407,-165.85C407,-148.11 407,-124.43 407,-102.85"/>
<polygon fill="none" stroke="#404040" points="407,-102.78 403,-96.78 407,-90.78 411,-96.78 407,-102.78"/>
<text text-anchor="middle" x="445" y="-112" font-family="Helvetica,sans-Serif" font-size="10.00"> &#45;dataset_type_</text>
</g>
<!-- Node8&#45;&gt;Node1 -->
<g id="edge9" class="edge">
<title>Node8&#45;&gt;Node1</title>
<path fill="none" stroke="#404040" d="M531.49,-165.75C519.93,-148.5 503.85,-126.37 487,-109 483.71,-105.61 480.23,-102.25 476.64,-98.94"/>
<polygon fill="none" stroke="#404040" points="476.51,-98.82 469.37,-97.82 467.53,-90.85 474.68,-91.84 476.51,-98.82"/>
<text text-anchor="middle" x="539.5" y="-112" font-family="Helvetica,sans-Serif" font-size="10.00"> &#45;datareader_ptr_</text>
</g>
<!-- Node9 -->
<g id="node9" class="node">
<title>Node9</title>
<g id="a_node9"><a xlink:href="classad__framework_1_1application_1_1Window.html" target="_top" xlink:title=" ">
<polygon fill="white" stroke="black" points="652,-138.5 652,-250.5 844,-250.5 844,-138.5 652,-138.5"/>
<text text-anchor="middle" x="748" y="-238.5" font-family="Helvetica,sans-Serif" font-size="10.00">ad_framework::application::Window</text>
<polyline fill="none" stroke="black" points="652,-231.5 844,-231.5 "/>
<text text-anchor="middle" x="748" y="-219.5" font-family="Helvetica,sans-Serif" font-size="10.00"> </text>
<polyline fill="none" stroke="black" points="652,-212.5 844,-212.5 "/>
<text text-anchor="start" x="660" y="-200.5" font-family="Helvetica,sans-Serif" font-size="10.00">+ Window()</text>
<text text-anchor="start" x="660" y="-189.5" font-family="Helvetica,sans-Serif" font-size="10.00">+ ~Window()=default</text>
<text text-anchor="start" x="660" y="-178.5" font-family="Helvetica,sans-Serif" font-size="10.00">+ bool IsOpen() const</text>
<text text-anchor="start" x="660" y="-167.5" font-family="Helvetica,sans-Serif" font-size="10.00">+ void Render() const</text>
<text text-anchor="start" x="660" y="-156.5" font-family="Helvetica,sans-Serif" font-size="10.00">+ void NewFrame() const</text>
<text text-anchor="start" x="660" y="-145.5" font-family="Helvetica,sans-Serif" font-size="10.00">+ ImVec2 GetSize() const</text>
</a>
</g>
</g>
<!-- Node9&#45;&gt;Node1 -->
<g id="edge11" class="edge">
<title>Node9&#45;&gt;Node1</title>
<path fill="none" stroke="#404040" d="M651.9,-142.63C648.9,-141.06 645.93,-139.52 643,-138 617.77,-124.91 612.14,-120.15 586,-109 567.52,-101.12 547.69,-93.44 528.18,-86.32"/>
<polygon fill="none" stroke="#404040" points="528.04,-86.27 521.04,-88 516.75,-82.2 523.76,-80.47 528.04,-86.27"/>
<text text-anchor="middle" x="635" y="-112" font-family="Helvetica,sans-Serif" font-size="10.00"> &#45;window_</text>
</g>
<!-- Node10 -->
<g id="node10" class="node">
<title>Node10</title>
<g id="a_node10"><a xlink:title=" ">
<polygon fill="white" stroke="#bfbfbf" points="574,-309.5 574,-366.5 684,-366.5 684,-309.5 574,-309.5"/>
<text text-anchor="middle" x="629" y="-354.5" font-family="Helvetica,sans-Serif" font-size="10.00">static constexpr int</text>
<polyline fill="none" stroke="#bfbfbf" points="574,-347.5 684,-347.5 "/>
<text text-anchor="middle" x="629" y="-335.5" font-family="Helvetica,sans-Serif" font-size="10.00"> </text>
<polyline fill="none" stroke="#bfbfbf" points="574,-328.5 684,-328.5 "/>
<text text-anchor="middle" x="629" y="-316.5" font-family="Helvetica,sans-Serif" font-size="10.00"> </text>
</a>
</g>
</g>
<!-- Node10&#45;&gt;Node9 -->
<g id="edge12" class="edge">
<title>Node10&#45;&gt;Node9</title>
<path fill="none" stroke="#404040" d="M652.23,-309.38C664.1,-295.27 679.08,-277.45 693.65,-260.12"/>
<polygon fill="none" stroke="#404040" points="693.96,-259.76 694.76,-252.59 701.68,-250.57 700.88,-257.74 693.96,-259.76"/>
<text text-anchor="middle" x="708" y="-283" font-family="Helvetica,sans-Serif" font-size="10.00"> &#45;kHeight</text>
<text text-anchor="middle" x="708" y="-272" font-family="Helvetica,sans-Serif" font-size="10.00">&#45;kWidth</text>
</g>
<!-- Node11 -->
<g id="node11" class="node">
<title>Node11</title>
<g id="a_node11"><a xlink:title=" ">
<polygon fill="white" stroke="#bfbfbf" points="702.5,-309.5 702.5,-366.5 793.5,-366.5 793.5,-309.5 702.5,-309.5"/>
<text text-anchor="middle" x="748" y="-354.5" font-family="Helvetica,sans-Serif" font-size="10.00">GLFWwindow *</text>
<polyline fill="none" stroke="#bfbfbf" points="702.5,-347.5 793.5,-347.5 "/>
<text text-anchor="middle" x="748" y="-335.5" font-family="Helvetica,sans-Serif" font-size="10.00"> </text>
<polyline fill="none" stroke="#bfbfbf" points="702.5,-328.5 793.5,-328.5 "/>
<text text-anchor="middle" x="748" y="-316.5" font-family="Helvetica,sans-Serif" font-size="10.00"> </text>
</a>
</g>
</g>
<!-- Node11&#45;&gt;Node9 -->
<g id="edge13" class="edge">
<title>Node11&#45;&gt;Node9</title>
<path fill="none" stroke="#404040" d="M748,-309.38C748,-296.05 748,-279.42 748,-263.01"/>
<polygon fill="none" stroke="#404040" points="748,-262.57 744,-256.57 748,-250.57 752,-256.57 748,-262.57"/>
<text text-anchor="middle" x="773" y="-277.5" font-family="Helvetica,sans-Serif" font-size="10.00"> &#45;window_</text>
</g>
<!-- Node12 -->
<g id="node12" class="node">
<title>Node12</title>
<g id="a_node12"><a xlink:title=" ">
<polygon fill="white" stroke="#bfbfbf" points="812,-309.5 812,-366.5 946,-366.5 946,-309.5 812,-309.5"/>
<text text-anchor="middle" x="879" y="-354.5" font-family="Helvetica,sans-Serif" font-size="10.00">static constexpr ImVec4</text>
<polyline fill="none" stroke="#bfbfbf" points="812,-347.5 946,-347.5 "/>
<text text-anchor="middle" x="879" y="-335.5" font-family="Helvetica,sans-Serif" font-size="10.00"> </text>
<polyline fill="none" stroke="#bfbfbf" points="812,-328.5 946,-328.5 "/>
<text text-anchor="middle" x="879" y="-316.5" font-family="Helvetica,sans-Serif" font-size="10.00"> </text>
</a>
</g>
</g>
<!-- Node12&#45;&gt;Node9 -->
<g id="edge14" class="edge">
<title>Node12&#45;&gt;Node9</title>
<path fill="none" stroke="#404040" d="M853.43,-309.38C840.24,-295.14 823.56,-277.12 807.38,-259.64"/>
<polygon fill="none" stroke="#404040" points="807.14,-259.38 800.13,-257.7 798.99,-250.57 806,-252.26 807.14,-259.38"/>
<text text-anchor="middle" x="865" y="-277.5" font-family="Helvetica,sans-Serif" font-size="10.00"> &#45;kClearColor</text>
</g>
</g>
</svg>
