<?xml version="1.0" encoding="UTF-8" standalone="no"?>
<!DOCTYPE svg PUBLIC "-//W3C//DTD SVG 1.1//EN"
 "http://www.w3.org/Graphics/SVG/1.1/DTD/svg11.dtd">
<!-- Generated by graphviz version 2.43.0 (0)
 -->
<!-- Title: ad_framework::ui::Frame Pages: 1 -->
<svg width="359pt" height="463pt"
 viewBox="0.00 0.00 359.00 463.00" xmlns="http://www.w3.org/2000/svg" xmlns:xlink="http://www.w3.org/1999/xlink">
<g id="graph0" class="graph" transform="scale(1 1) rotate(0) translate(4 459)">
<title>ad_framework::ui::Frame</title>
<polygon fill="white" stroke="transparent" points="-4,4 -4,-459 355,-459 355,4 -4,4"/>
<!-- Node1 -->
<g id="node1" class="node">
<title>Node1</title>
<g id="a_node1"><a xlink:title=" ">
<polygon fill="#bfbfbf" stroke="black" points="43.5,-0.5 43.5,-90.5 307.5,-90.5 307.5,-0.5 43.5,-0.5"/>
<text text-anchor="middle" x="175.5" y="-78.5" font-family="Helvetica,sans-Serif" font-size="10.00">ad_framework::ui::Frame</text>
<polyline fill="none" stroke="black" points="43.5,-71.5 307.5,-71.5 "/>
<text text-anchor="start" x="51.5" y="-59.5" font-family="Helvetica,sans-Serif" font-size="10.00">&#45; std::vector&lt; UserInterfacePtr &gt; children_</text>
<polyline fill="none" stroke="black" points="43.5,-52.5 307.5,-52.5 "/>
<text text-anchor="start" x="51.5" y="-40.5" font-family="Helvetica,sans-Serif" font-size="10.00">+ Frame(std::string title, ImVec2 size, ImVec2 pos)</text>
<text text-anchor="start" x="51.5" y="-29.5" font-family="Helvetica,sans-Serif" font-size="10.00">+ Frame(std::string title)</text>
<text text-anchor="start" x="51.5" y="-18.5" font-family="Helvetica,sans-Serif" font-size="10.00">+ void operator()() override</text>
<text text-anchor="start" x="51.5" y="-7.5" font-family="Helvetica,sans-Serif" font-size="10.00">+ void AddUI(UserInterfacePtr ui)</text>
</a>
</g>
</g>
<!-- Node2 -->
<g id="node2" class="node">
<title>Node2</title>
<g id="a_node2"><a xlink:href="classad__framework_1_1ui_1_1UserInterface.html" target="_top" xlink:title=" ">
<polygon fill="white" stroke="black" points="0,-127.5 0,-360.5 351,-360.5 351,-127.5 0,-127.5"/>
<text text-anchor="middle" x="175.5" y="-348.5" font-family="Helvetica,sans-Serif" font-size="10.00">ad_framework::ui::UserInterface</text>
<polyline fill="none" stroke="black" points="0,-341.5 351,-341.5 "/>
<text text-anchor="start" x="8" y="-329.5" font-family="Helvetica,sans-Serif" font-size="10.00">&#45; std::string title_</text>
<text text-anchor="start" x="8" y="-318.5" font-family="Helvetica,sans-Serif" font-size="10.00">&#45; ImVec2 size_</text>
<text text-anchor="start" x="8" y="-307.5" font-family="Helvetica,sans-Serif" font-size="10.00">&#45; ImVec2 pos_</text>
<text text-anchor="start" x="8" y="-296.5" font-family="Helvetica,sans-Serif" font-size="10.00">&#45; UserInterfacePtr parent_</text>
<text text-anchor="start" x="8" y="-285.5" font-family="Helvetica,sans-Serif" font-size="10.00">&#45; CallbackMap callbacks_</text>
<polyline fill="none" stroke="black" points="0,-278.5 351,-278.5 "/>
<text text-anchor="start" x="8" y="-266.5" font-family="Helvetica,sans-Serif" font-size="10.00">+ UserInterface(std::string title, ImVec2 size, ImVec2 pos)</text>
<text text-anchor="start" x="8" y="-255.5" font-family="Helvetica,sans-Serif" font-size="10.00">+ virtual ~UserInterface()=default</text>
<text text-anchor="start" x="8" y="-244.5" font-family="Helvetica,sans-Serif" font-size="10.00">+ virtual void operator()()=0</text>
<text text-anchor="start" x="8" y="-233.5" font-family="Helvetica,sans-Serif" font-size="10.00">+ std::string Title() const</text>
<text text-anchor="start" x="8" y="-222.5" font-family="Helvetica,sans-Serif" font-size="10.00">+ void Rename(std::string title)</text>
<text text-anchor="start" x="8" y="-211.5" font-family="Helvetica,sans-Serif" font-size="10.00">+ ImVec2 Size() const</text>
<text text-anchor="start" x="8" y="-200.5" font-family="Helvetica,sans-Serif" font-size="10.00">+ ImVec2 Pos() const</text>
<text text-anchor="start" x="8" y="-189.5" font-family="Helvetica,sans-Serif" font-size="10.00">+ void Resize(ImVec2 size)</text>
<text text-anchor="start" x="8" y="-178.5" font-family="Helvetica,sans-Serif" font-size="10.00">+ void Move(ImVec2 pos)</text>
<text text-anchor="start" x="8" y="-167.5" font-family="Helvetica,sans-Serif" font-size="10.00">+ void SetParent(UserInterfacePtr parent)</text>
<text text-anchor="start" x="8" y="-156.5" font-family="Helvetica,sans-Serif" font-size="10.00">+ UserInterfacePtr GetParent() const</text>
<text text-anchor="start" x="8" y="-145.5" font-family="Helvetica,sans-Serif" font-size="10.00">+ void AddCallback(std::string name, callback::CallbackPtr callback)</text>
<text text-anchor="start" x="8" y="-134.5" font-family="Helvetica,sans-Serif" font-size="10.00">+ CallbackMap GetCallbacks() const</text>
</a>
</g>
</g>
<!-- Node2&#45;&gt;Node1 -->
<g id="edge1" class="edge">
<title>Node2&#45;&gt;Node1</title>
<path fill="none" stroke="midnightblue" d="M175.5,-117.15C175.5,-107.94 175.5,-99.08 175.5,-90.93"/>
<polygon fill="none" stroke="midnightblue" points="172,-117.27 175.5,-127.27 179,-117.27 172,-117.27"/>
</g>
<!-- Node3 -->
<g id="node3" class="node">
<title>Node3</title>
<g id="a_node3"><a xlink:title=" ">
<polygon fill="white" stroke="#bfbfbf" points="51,-397.5 51,-454.5 300,-454.5 300,-397.5 51,-397.5"/>
<text text-anchor="middle" x="175.5" y="-442.5" font-family="Helvetica,sans-Serif" font-size="10.00">std::enable_shared_from_this&lt; UserInterface &gt;</text>
<polyline fill="none" stroke="#bfbfbf" points="51,-435.5 300,-435.5 "/>
<text text-anchor="middle" x="175.5" y="-423.5" font-family="Helvetica,sans-Serif" font-size="10.00"> </text>
<polyline fill="none" stroke="#bfbfbf" points="51,-416.5 300,-416.5 "/>
<text text-anchor="middle" x="175.5" y="-404.5" font-family="Helvetica,sans-Serif" font-size="10.00"> </text>
</a>
</g>
</g>
<!-- Node3&#45;&gt;Node2 -->
<g id="edge2" class="edge">
<title>Node3&#45;&gt;Node2</title>
<path fill="none" stroke="midnightblue" d="M175.5,-387.14C175.5,-379.03 175.5,-370.05 175.5,-360.67"/>
<polygon fill="none" stroke="midnightblue" points="172,-387.27 175.5,-397.27 179,-387.27 172,-387.27"/>
</g>
</g>
</svg>
