<?xml version="1.0" encoding="UTF-8" standalone="no"?>
<!DOCTYPE svg PUBLIC "-//W3C//DTD SVG 1.1//EN"
 "http://www.w3.org/Graphics/SVG/1.1/DTD/svg11.dtd">
<!-- Generated by graphviz version 2.43.0 (0)
 -->
<!-- Title: ad_framework::data_structure::Rectangle Pages: 1 -->
<svg width="441pt" height="226pt"
 viewBox="0.00 0.00 440.50 226.00" xmlns="http://www.w3.org/2000/svg" xmlns:xlink="http://www.w3.org/1999/xlink">
<g id="graph0" class="graph" transform="scale(1 1) rotate(0) translate(4 222)">
<title>ad_framework::data_structure::Rectangle</title>
<polygon fill="white" stroke="transparent" points="-4,4 -4,-222 436.5,-222 436.5,4 -4,4"/>
<!-- Node1 -->
<g id="node1" class="node">
<title>Node1</title>
<g id="a_node1"><a xlink:title=" ">
<polygon fill="#bfbfbf" stroke="black" points="61.5,-0.5 61.5,-79.5 432.5,-79.5 432.5,-0.5 61.5,-0.5"/>
<text text-anchor="middle" x="247" y="-67.5" font-family="Helvetica,sans-Serif" font-size="10.00">ad_framework::data_structure::Rectangle</text>
<polyline fill="none" stroke="black" points="61.5,-60.5 432.5,-60.5 "/>
<text text-anchor="middle" x="247" y="-48.5" font-family="Helvetica,sans-Serif" font-size="10.00"> </text>
<polyline fill="none" stroke="black" points="61.5,-41.5 432.5,-41.5 "/>
<text text-anchor="start" x="69.5" y="-29.5" font-family="Helvetica,sans-Serif" font-size="10.00">+ Rectangle(const Eigen::Vector3d &amp;center, const Eigen::Vector3d &amp;size)</text>
<text text-anchor="start" x="69.5" y="-18.5" font-family="Helvetica,sans-Serif" font-size="10.00">+ bool IsIn(const Eigen::Vector3d &amp;point) const override</text>
<text text-anchor="start" x="69.5" y="-7.5" font-family="Helvetica,sans-Serif" font-size="10.00">+ std::string ToString() const override</text>
</a>
</g>
</g>
<!-- Node2 -->
<g id="node2" class="node">
<title>Node2</title>
<g id="a_node2"><a xlink:href="classad__framework_1_1data__structure_1_1Shape.html" target="_top" xlink:title=" ">
<polygon fill="white" stroke="black" points="0,-138.5 0,-217.5 298,-217.5 298,-138.5 0,-138.5"/>
<text text-anchor="middle" x="149" y="-205.5" font-family="Helvetica,sans-Serif" font-size="10.00">ad_framework::data_structure::Shape</text>
<polyline fill="none" stroke="black" points="0,-198.5 298,-198.5 "/>
<text text-anchor="middle" x="149" y="-186.5" font-family="Helvetica,sans-Serif" font-size="10.00"> </text>
<polyline fill="none" stroke="black" points="0,-179.5 298,-179.5 "/>
<text text-anchor="start" x="8" y="-167.5" font-family="Helvetica,sans-Serif" font-size="10.00">+ virtual ~Shape()=default</text>
<text text-anchor="start" x="8" y="-156.5" font-family="Helvetica,sans-Serif" font-size="10.00">+ virtual bool IsIn(const Eigen::Vector3d &amp;point) const =0</text>
<text text-anchor="start" x="8" y="-145.5" font-family="Helvetica,sans-Serif" font-size="10.00">+ virtual std::string ToString() const =0</text>
</a>
</g>
</g>
<!-- Node2&#45;&gt;Node1 -->
<g id="edge1" class="edge">
<title>Node2&#45;&gt;Node1</title>
<path fill="none" stroke="midnightblue" d="M182.87,-130C194.7,-113.59 207.83,-95.36 219.11,-79.7"/>
<polygon fill="none" stroke="midnightblue" points="179.83,-128.23 176.82,-138.39 185.51,-132.32 179.83,-128.23"/>
</g>
<!-- Node3 -->
<g id="node3" class="node">
<title>Node3</title>
<g id="a_node3"><a xlink:title=" ">
<polygon fill="white" stroke="#bfbfbf" points="315.5,-149.5 315.5,-206.5 374.5,-206.5 374.5,-149.5 315.5,-149.5"/>
<text text-anchor="middle" x="345" y="-194.5" font-family="Helvetica,sans-Serif" font-size="10.00">Vector3d</text>
<polyline fill="none" stroke="#bfbfbf" points="315.5,-187.5 374.5,-187.5 "/>
<text text-anchor="middle" x="345" y="-175.5" font-family="Helvetica,sans-Serif" font-size="10.00"> </text>
<polyline fill="none" stroke="#bfbfbf" points="315.5,-168.5 374.5,-168.5 "/>
<text text-anchor="middle" x="345" y="-156.5" font-family="Helvetica,sans-Serif" font-size="10.00"> </text>
</a>
</g>
</g>
<!-- Node3&#45;&gt;Node1 -->
<g id="edge2" class="edge">
<title>Node3&#45;&gt;Node1</title>
<path fill="none" stroke="#404040" d="M325.17,-149.48C312.78,-132.28 296.47,-109.65 281.96,-89.52"/>
<polygon fill="none" stroke="#404040" points="281.8,-89.3 275.05,-86.77 274.79,-79.56 281.54,-82.09 281.8,-89.3"/>
<text text-anchor="middle" x="323.5" y="-112" font-family="Helvetica,sans-Serif" font-size="10.00"> &#45;center_</text>
<text text-anchor="middle" x="323.5" y="-101" font-family="Helvetica,sans-Serif" font-size="10.00">&#45;size_</text>
</g>
</g>
</svg>
