<?xml version="1.0" encoding="UTF-8" standalone="no"?>
<!DOCTYPE svg PUBLIC "-//W3C//DTD SVG 1.1//EN"
 "http://www.w3.org/Graphics/SVG/1.1/DTD/svg11.dtd">
<!-- Generated by graphviz version 2.43.0 (0)
 -->
<!-- Title: ad_framework::KittiDataReader::ReadGrayStereoImage Pages: 1 -->
<svg width="546pt" height="66pt"
 viewBox="0.00 0.00 546.00 66.00" xmlns="http://www.w3.org/2000/svg" xmlns:xlink="http://www.w3.org/1999/xlink">
<g id="graph0" class="graph" transform="scale(1 1) rotate(0) translate(4 62)">
<title>ad_framework::KittiDataReader::ReadGrayStereoImage</title>
<polygon fill="white" stroke="transparent" points="-4,4 -4,-62 542,-62 542,4 -4,4"/>
<!-- Node1 -->
<g id="node1" class="node">
<title>Node1</title>
<g id="a_node1"><a xlink:title=" ">
<polygon fill="#bfbfbf" stroke="black" points="0,-19.5 0,-38.5 287,-38.5 287,-19.5 0,-19.5"/>
<text text-anchor="middle" x="143.5" y="-26.5" font-family="Helvetica,sans-Serif" font-size="10.00">ad_framework::KittiDataReader::ReadGrayStereoImage</text>
</a>
</g>
</g>
<!-- Node2 -->
<g id="node2" class="node">
<title>Node2</title>
<g id="a_node2"><a xlink:href="classad__framework_1_1Image.html#ad75bed2f079cd1269e845eb49fbb2245" target="_top" xlink:title=" ">
<polygon fill="white" stroke="black" points="332,-38.5 332,-57.5 529,-57.5 529,-38.5 332,-38.5"/>
<text text-anchor="middle" x="430.5" y="-45.5" font-family="Helvetica,sans-Serif" font-size="10.00">ad_framework::Image::ReadFromFile</text>
</a>
</g>
</g>
<!-- Node1&#45;&gt;Node2 -->
<g id="edge1" class="edge">
<title>Node1&#45;&gt;Node2</title>
<path fill="none" stroke="midnightblue" d="M287.42,-38.53C298.9,-39.29 310.38,-40.06 321.56,-40.8"/>
<polygon fill="midnightblue" stroke="midnightblue" points="321.52,-44.31 331.73,-41.48 321.99,-37.32 321.52,-44.31"/>
</g>
<!-- Node3 -->
<g id="node3" class="node">
<title>Node3</title>
<g id="a_node3"><a xlink:href="namespacead__framework.html#a95f1c9b148110c6c0ba58f27e01468d7" target="_top" xlink:title=" ">
<polygon fill="white" stroke="black" points="323,-0.5 323,-19.5 538,-19.5 538,-0.5 323,-0.5"/>
<text text-anchor="middle" x="430.5" y="-7.5" font-family="Helvetica,sans-Serif" font-size="10.00">ad_framework::ToStringWithZeroPadding</text>
</a>
</g>
</g>
<!-- Node1&#45;&gt;Node3 -->
<g id="edge2" class="edge">
<title>Node1&#45;&gt;Node3</title>
<path fill="none" stroke="midnightblue" d="M287.42,-19.47C295.91,-18.91 304.4,-18.34 312.77,-17.78"/>
<polygon fill="midnightblue" stroke="midnightblue" points="313.16,-21.26 322.9,-17.11 312.69,-14.28 313.16,-21.26"/>
</g>
</g>
</svg>
