<?xml version="1.0" encoding="UTF-8" standalone="no"?>
<!DOCTYPE svg PUBLIC "-//W3C//DTD SVG 1.1//EN"
 "http://www.w3.org/Graphics/SVG/1.1/DTD/svg11.dtd">
<!-- Generated by graphviz version 2.43.0 (0)
 -->
<!-- Title: ad_framework::ui::UserInterface::Title Pages: 1 -->
<svg width="459pt" height="142pt"
 viewBox="0.00 0.00 459.00 142.00" xmlns="http://www.w3.org/2000/svg" xmlns:xlink="http://www.w3.org/1999/xlink">
<g id="graph0" class="graph" transform="scale(1 1) rotate(0) translate(4 138)">
<title>ad_framework::ui::UserInterface::Title</title>
<polygon fill="white" stroke="transparent" points="-4,4 -4,-138 455,-138 455,4 -4,4"/>
<!-- Node1 -->
<g id="node1" class="node">
<title>Node1</title>
<g id="a_node1"><a xlink:title=" ">
<polygon fill="#bfbfbf" stroke="black" points="249,-57.5 249,-76.5 451,-76.5 451,-57.5 249,-57.5"/>
<text text-anchor="middle" x="350" y="-64.5" font-family="Helvetica,sans-Serif" font-size="10.00">ad_framework::ui::UserInterface::Title</text>
</a>
</g>
</g>
<!-- Node2 -->
<g id="node2" class="node">
<title>Node2</title>
<g id="a_node2"><a xlink:href="classad__framework_1_1ui_1_1Button.html#a87bdaf93ee039c7252bd91f12215dcdc" target="_top" xlink:title=" ">
<polygon fill="white" stroke="black" points="9,-114.5 9,-133.5 204,-133.5 204,-114.5 9,-114.5"/>
<text text-anchor="middle" x="106.5" y="-121.5" font-family="Helvetica,sans-Serif" font-size="10.00">ad_framework::ui::Button::operator()</text>
</a>
</g>
</g>
<!-- Node1&#45;&gt;Node2 -->
<g id="edge1" class="edge">
<title>Node1&#45;&gt;Node2</title>
<path fill="none" stroke="midnightblue" d="M308.33,-79.45C281.44,-87.41 245.31,-97.59 213,-105 197.85,-108.47 181.36,-111.7 166.02,-114.47"/>
<polygon fill="midnightblue" stroke="midnightblue" points="309.57,-82.73 318.15,-76.52 307.57,-76.02 309.57,-82.73"/>
</g>
<!-- Node3 -->
<g id="node3" class="node">
<title>Node3</title>
<g id="a_node3"><a xlink:href="classad__framework_1_1ui_1_1Selector.html#ae6bc6a470d499974e5a9b53c65d9e1b1" target="_top" xlink:title=" ">
<polygon fill="white" stroke="black" points="5,-76.5 5,-95.5 208,-95.5 208,-76.5 5,-76.5"/>
<text text-anchor="middle" x="106.5" y="-83.5" font-family="Helvetica,sans-Serif" font-size="10.00">ad_framework::ui::Selector::operator()</text>
</a>
</g>
</g>
<!-- Node1&#45;&gt;Node3 -->
<g id="edge2" class="edge">
<title>Node1&#45;&gt;Node3</title>
<path fill="none" stroke="midnightblue" d="M238.62,-75.68C228.51,-76.48 218.3,-77.28 208.29,-78.07"/>
<polygon fill="midnightblue" stroke="midnightblue" points="238.99,-79.17 248.68,-74.89 238.44,-72.19 238.99,-79.17"/>
</g>
<!-- Node4 -->
<g id="node4" class="node">
<title>Node4</title>
<g id="a_node4"><a xlink:href="classad__framework_1_1ui_1_1TopViewer.html#a57fd54d9bb406d6a2e90905fac75b3d4" target="_top" xlink:title=" ">
<polygon fill="white" stroke="black" points="0,-38.5 0,-57.5 213,-57.5 213,-38.5 0,-38.5"/>
<text text-anchor="middle" x="106.5" y="-45.5" font-family="Helvetica,sans-Serif" font-size="10.00">ad_framework::ui::TopViewer::operator()</text>
</a>
</g>
</g>
<!-- Node1&#45;&gt;Node4 -->
<g id="edge3" class="edge">
<title>Node1&#45;&gt;Node4</title>
<path fill="none" stroke="midnightblue" d="M238.51,-58.31C230.14,-57.65 221.7,-56.98 213.36,-56.33"/>
<polygon fill="midnightblue" stroke="midnightblue" points="238.44,-61.81 248.68,-59.11 238.99,-54.83 238.44,-61.81"/>
</g>
<!-- Node5 -->
<g id="node5" class="node">
<title>Node5</title>
<g id="a_node5"><a xlink:href="classad__framework_1_1ui_1_1Frame.html#a4afa78942b9618a75173faa6474451fb" target="_top" xlink:title=" ">
<polygon fill="white" stroke="black" points="9.5,-0.5 9.5,-19.5 203.5,-19.5 203.5,-0.5 9.5,-0.5"/>
<text text-anchor="middle" x="106.5" y="-7.5" font-family="Helvetica,sans-Serif" font-size="10.00">ad_framework::ui::Frame::operator()</text>
</a>
</g>
</g>
<!-- Node1&#45;&gt;Node5 -->
<g id="edge4" class="edge">
<title>Node1&#45;&gt;Node5</title>
<path fill="none" stroke="midnightblue" d="M308.33,-54.55C281.44,-46.59 245.31,-36.41 213,-29 197.85,-25.53 181.36,-22.3 166.02,-19.53"/>
<polygon fill="midnightblue" stroke="midnightblue" points="307.57,-57.98 318.15,-57.48 309.57,-51.27 307.57,-57.98"/>
</g>
</g>
</svg>
