<?xml version="1.0" encoding="UTF-8" standalone="no"?>
<!DOCTYPE svg PUBLIC "-//W3C//DTD SVG 1.1//EN"
 "http://www.w3.org/Graphics/SVG/1.1/DTD/svg11.dtd">
<!-- Generated by graphviz version 2.43.0 (0)
 -->
<!-- Title: ad_framework::ui::UserInterface Pages: 1 -->
<svg width="1164pt" height="463pt"
 viewBox="0.00 0.00 1163.50 463.00" xmlns="http://www.w3.org/2000/svg" xmlns:xlink="http://www.w3.org/1999/xlink">
<g id="graph0" class="graph" transform="scale(1 1) rotate(0) translate(4 459)">
<title>ad_framework::ui::UserInterface</title>
<polygon fill="white" stroke="transparent" points="-4,4 -4,-459 1159.5,-459 1159.5,4 -4,4"/>
<!-- Node1 -->
<g id="node1" class="node">
<title>Node1</title>
<g id="a_node1"><a xlink:title=" ">
<polygon fill="#bfbfbf" stroke="black" points="389.5,-127.5 389.5,-360.5 740.5,-360.5 740.5,-127.5 389.5,-127.5"/>
<text text-anchor="middle" x="565" y="-348.5" font-family="Helvetica,sans-Serif" font-size="10.00">ad_framework::ui::UserInterface</text>
<polyline fill="none" stroke="black" points="389.5,-341.5 740.5,-341.5 "/>
<text text-anchor="start" x="397.5" y="-329.5" font-family="Helvetica,sans-Serif" font-size="10.00">&#45; std::string title_</text>
<text text-anchor="start" x="397.5" y="-318.5" font-family="Helvetica,sans-Serif" font-size="10.00">&#45; ImVec2 size_</text>
<text text-anchor="start" x="397.5" y="-307.5" font-family="Helvetica,sans-Serif" font-size="10.00">&#45; ImVec2 pos_</text>
<text text-anchor="start" x="397.5" y="-296.5" font-family="Helvetica,sans-Serif" font-size="10.00">&#45; UserInterfacePtr parent_</text>
<text text-anchor="start" x="397.5" y="-285.5" font-family="Helvetica,sans-Serif" font-size="10.00">&#45; CallbackMap callbacks_</text>
<polyline fill="none" stroke="black" points="389.5,-278.5 740.5,-278.5 "/>
<text text-anchor="start" x="397.5" y="-266.5" font-family="Helvetica,sans-Serif" font-size="10.00">+ UserInterface(std::string title, ImVec2 size, ImVec2 pos)</text>
<text text-anchor="start" x="397.5" y="-255.5" font-family="Helvetica,sans-Serif" font-size="10.00">+ virtual ~UserInterface()=default</text>
<text text-anchor="start" x="397.5" y="-244.5" font-family="Helvetica,sans-Serif" font-size="10.00">+ virtual void operator()()=0</text>
<text text-anchor="start" x="397.5" y="-233.5" font-family="Helvetica,sans-Serif" font-size="10.00">+ std::string Title() const</text>
<text text-anchor="start" x="397.5" y="-222.5" font-family="Helvetica,sans-Serif" font-size="10.00">+ void Rename(std::string title)</text>
<text text-anchor="start" x="397.5" y="-211.5" font-family="Helvetica,sans-Serif" font-size="10.00">+ ImVec2 Size() const</text>
<text text-anchor="start" x="397.5" y="-200.5" font-family="Helvetica,sans-Serif" font-size="10.00">+ ImVec2 Pos() const</text>
<text text-anchor="start" x="397.5" y="-189.5" font-family="Helvetica,sans-Serif" font-size="10.00">+ void Resize(ImVec2 size)</text>
<text text-anchor="start" x="397.5" y="-178.5" font-family="Helvetica,sans-Serif" font-size="10.00">+ void Move(ImVec2 pos)</text>
<text text-anchor="start" x="397.5" y="-167.5" font-family="Helvetica,sans-Serif" font-size="10.00">+ void SetParent(UserInterfacePtr parent)</text>
<text text-anchor="start" x="397.5" y="-156.5" font-family="Helvetica,sans-Serif" font-size="10.00">+ UserInterfacePtr GetParent() const</text>
<text text-anchor="start" x="397.5" y="-145.5" font-family="Helvetica,sans-Serif" font-size="10.00">+ void AddCallback(std::string name, callback::CallbackPtr callback)</text>
<text text-anchor="start" x="397.5" y="-134.5" font-family="Helvetica,sans-Serif" font-size="10.00">+ CallbackMap GetCallbacks() const</text>
</a>
</g>
</g>
<!-- Node3 -->
<g id="node3" class="node">
<title>Node3</title>
<g id="a_node3"><a xlink:href="classad__framework_1_1ui_1_1Button.html" target="_top" xlink:title=" ">
<polygon fill="white" stroke="black" points="0,-6 0,-85 266,-85 266,-6 0,-6"/>
<text text-anchor="middle" x="133" y="-73" font-family="Helvetica,sans-Serif" font-size="10.00">ad_framework::ui::Button</text>
<polyline fill="none" stroke="black" points="0,-66 266,-66 "/>
<text text-anchor="middle" x="133" y="-54" font-family="Helvetica,sans-Serif" font-size="10.00"> </text>
<polyline fill="none" stroke="black" points="0,-47 266,-47 "/>
<text text-anchor="start" x="8" y="-35" font-family="Helvetica,sans-Serif" font-size="10.00">+ Button(std::string title, ImVec2 size, ImVec2 pos)</text>
<text text-anchor="start" x="8" y="-24" font-family="Helvetica,sans-Serif" font-size="10.00">+ Button(std::string title)</text>
<text text-anchor="start" x="8" y="-13" font-family="Helvetica,sans-Serif" font-size="10.00">+ void operator()() override</text>
</a>
</g>
</g>
<!-- Node1&#45;&gt;Node3 -->
<g id="edge2" class="edge">
<title>Node1&#45;&gt;Node3</title>
<path fill="none" stroke="midnightblue" d="M379.89,-158.8C323.43,-133.12 264.09,-106.13 217.74,-85.04"/>
<polygon fill="none" stroke="midnightblue" points="378.74,-162.12 389.29,-163.08 381.64,-155.75 378.74,-162.12"/>
</g>
<!-- Node4 -->
<g id="node4" class="node">
<title>Node4</title>
<g id="a_node4"><a xlink:href="classad__framework_1_1ui_1_1Frame.html" target="_top" xlink:title=" ">
<polygon fill="white" stroke="black" points="284,-0.5 284,-90.5 548,-90.5 548,-0.5 284,-0.5"/>
<text text-anchor="middle" x="416" y="-78.5" font-family="Helvetica,sans-Serif" font-size="10.00">ad_framework::ui::Frame</text>
<polyline fill="none" stroke="black" points="284,-71.5 548,-71.5 "/>
<text text-anchor="start" x="292" y="-59.5" font-family="Helvetica,sans-Serif" font-size="10.00">&#45; std::vector&lt; UserInterfacePtr &gt; children_</text>
<polyline fill="none" stroke="black" points="284,-52.5 548,-52.5 "/>
<text text-anchor="start" x="292" y="-40.5" font-family="Helvetica,sans-Serif" font-size="10.00">+ Frame(std::string title, ImVec2 size, ImVec2 pos)</text>
<text text-anchor="start" x="292" y="-29.5" font-family="Helvetica,sans-Serif" font-size="10.00">+ Frame(std::string title)</text>
<text text-anchor="start" x="292" y="-18.5" font-family="Helvetica,sans-Serif" font-size="10.00">+ void operator()() override</text>
<text text-anchor="start" x="292" y="-7.5" font-family="Helvetica,sans-Serif" font-size="10.00">+ void AddUI(UserInterfacePtr ui)</text>
</a>
</g>
</g>
<!-- Node1&#45;&gt;Node4 -->
<g id="edge3" class="edge">
<title>Node1&#45;&gt;Node4</title>
<path fill="none" stroke="midnightblue" d="M471.14,-119.22C463.59,-109.26 456.33,-99.68 449.69,-90.93"/>
<polygon fill="none" stroke="midnightblue" points="468.42,-121.42 477.25,-127.27 474,-117.19 468.42,-121.42"/>
</g>
<!-- Node5 -->
<g id="node5" class="node">
<title>Node5</title>
<g id="a_node5"><a xlink:href="classad__framework_1_1ui_1_1ImageViewer.html" target="_top" xlink:title=" ">
<polygon fill="white" stroke="black" points="566,-6 566,-85 864,-85 864,-6 566,-6"/>
<text text-anchor="middle" x="715" y="-73" font-family="Helvetica,sans-Serif" font-size="10.00">ad_framework::ui::ImageViewer</text>
<polyline fill="none" stroke="black" points="566,-66 864,-66 "/>
<text text-anchor="middle" x="715" y="-54" font-family="Helvetica,sans-Serif" font-size="10.00"> </text>
<polyline fill="none" stroke="black" points="566,-47 864,-47 "/>
<text text-anchor="start" x="574" y="-35" font-family="Helvetica,sans-Serif" font-size="10.00">+ ImageViewer(std::string title, ImVec2 size, ImVec2 pos)</text>
<text text-anchor="start" x="574" y="-24" font-family="Helvetica,sans-Serif" font-size="10.00">+ ImageViewer(std::string title)</text>
<text text-anchor="start" x="574" y="-13" font-family="Helvetica,sans-Serif" font-size="10.00">+ void operator()() override</text>
</a>
</g>
</g>
<!-- Node1&#45;&gt;Node5 -->
<g id="edge4" class="edge">
<title>Node1&#45;&gt;Node5</title>
<path fill="none" stroke="midnightblue" d="M659.53,-119.16C668.87,-106.94 677.77,-95.27 685.6,-85.01"/>
<polygon fill="none" stroke="midnightblue" points="656.63,-117.2 653.34,-127.27 662.19,-121.45 656.63,-117.2"/>
</g>
<!-- Node6 -->
<g id="node6" class="node">
<title>Node6</title>
<g id="a_node6"><a xlink:href="classad__framework_1_1ui_1_1Selector.html" target="_top" xlink:title=" ">
<polygon fill="white" stroke="black" points="882.5,-0.5 882.5,-90.5 1155.5,-90.5 1155.5,-0.5 882.5,-0.5"/>
<text text-anchor="middle" x="1019" y="-78.5" font-family="Helvetica,sans-Serif" font-size="10.00">ad_framework::ui::Selector</text>
<polyline fill="none" stroke="black" points="882.5,-71.5 1155.5,-71.5 "/>
<text text-anchor="start" x="890.5" y="-59.5" font-family="Helvetica,sans-Serif" font-size="10.00">&#45; std::vector&lt; const char * &gt; items_</text>
<text text-anchor="start" x="890.5" y="-48.5" font-family="Helvetica,sans-Serif" font-size="10.00">&#45; const char * current_item_</text>
<polyline fill="none" stroke="black" points="882.5,-41.5 1155.5,-41.5 "/>
<text text-anchor="start" x="890.5" y="-29.5" font-family="Helvetica,sans-Serif" font-size="10.00">+ Selector(std::string title, ImVec2 size, ImVec2 pos)</text>
<text text-anchor="start" x="890.5" y="-18.5" font-family="Helvetica,sans-Serif" font-size="10.00">+ Selector(std::string title)</text>
<text text-anchor="start" x="890.5" y="-7.5" font-family="Helvetica,sans-Serif" font-size="10.00">+ void operator()() override</text>
</a>
</g>
</g>
<!-- Node1&#45;&gt;Node6 -->
<g id="edge5" class="edge">
<title>Node1&#45;&gt;Node6</title>
<path fill="none" stroke="midnightblue" d="M750.02,-162.92C807.09,-138.22 867.82,-111.93 917.11,-90.6"/>
<polygon fill="none" stroke="midnightblue" points="748.32,-159.84 740.53,-167.03 751.1,-166.27 748.32,-159.84"/>
</g>
<!-- Node2 -->
<g id="node2" class="node">
<title>Node2</title>
<g id="a_node2"><a xlink:title=" ">
<polygon fill="white" stroke="#bfbfbf" points="440.5,-397.5 440.5,-454.5 689.5,-454.5 689.5,-397.5 440.5,-397.5"/>
<text text-anchor="middle" x="565" y="-442.5" font-family="Helvetica,sans-Serif" font-size="10.00">std::enable_shared_from_this&lt; UserInterface &gt;</text>
<polyline fill="none" stroke="#bfbfbf" points="440.5,-435.5 689.5,-435.5 "/>
<text text-anchor="middle" x="565" y="-423.5" font-family="Helvetica,sans-Serif" font-size="10.00"> </text>
<polyline fill="none" stroke="#bfbfbf" points="440.5,-416.5 689.5,-416.5 "/>
<text text-anchor="middle" x="565" y="-404.5" font-family="Helvetica,sans-Serif" font-size="10.00"> </text>
</a>
</g>
</g>
<!-- Node2&#45;&gt;Node1 -->
<g id="edge1" class="edge">
<title>Node2&#45;&gt;Node1</title>
<path fill="none" stroke="midnightblue" d="M565,-387.14C565,-379.03 565,-370.05 565,-360.67"/>
<polygon fill="none" stroke="midnightblue" points="561.5,-387.27 565,-397.27 568.5,-387.27 561.5,-387.27"/>
</g>
</g>
</svg>
