<?xml version="1.0" encoding="UTF-8" standalone="no"?>
<!DOCTYPE svg PUBLIC "-//W3C//DTD SVG 1.1//EN"
 "http://www.w3.org/Graphics/SVG/1.1/DTD/svg11.dtd">
<!-- Generated by graphviz version 2.43.0 (0)
 -->
<!-- Title: ad_framework::application::UserInterface::Execute Pages: 1 -->
<svg width="625pt" height="180pt"
 viewBox="0.00 0.00 625.00 180.00" xmlns="http://www.w3.org/2000/svg" xmlns:xlink="http://www.w3.org/1999/xlink">
<g id="graph0" class="graph" transform="scale(1 1) rotate(0) translate(4 176)">
<title>ad_framework::application::UserInterface::Execute</title>
<polygon fill="white" stroke="transparent" points="-4,4 -4,-176 621,-176 621,4 -4,4"/>
<!-- Node1 -->
<g id="node1" class="node">
<title>Node1</title>
<g id="a_node1"><a xlink:title=" ">
<polygon fill="#bfbfbf" stroke="black" points="0,-76.5 0,-95.5 263,-95.5 263,-76.5 0,-76.5"/>
<text text-anchor="middle" x="131.5" y="-83.5" font-family="Helvetica,sans-Serif" font-size="10.00">ad_framework::application::UserInterface::Execute</text>
</a>
</g>
</g>
<!-- Node2 -->
<g id="node2" class="node">
<title>Node2</title>
<g id="a_node2"><a xlink:href="classad__framework_1_1application_1_1Window.html#a5180c05c72e0c026613df66965a12c09" target="_top" xlink:title=" ">
<polygon fill="white" stroke="black" points="340.5,-152.5 340.5,-171.5 575.5,-171.5 575.5,-152.5 340.5,-152.5"/>
<text text-anchor="middle" x="458" y="-159.5" font-family="Helvetica,sans-Serif" font-size="10.00">ad_framework::application::Window::GetSize</text>
</a>
</g>
</g>
<!-- Node1&#45;&gt;Node2 -->
<g id="edge1" class="edge">
<title>Node1&#45;&gt;Node2</title>
<path fill="none" stroke="midnightblue" d="M155.49,-95.6C187.2,-108.44 246.43,-130.98 299,-143 312.68,-146.13 327.15,-148.76 341.55,-150.97"/>
<polygon fill="midnightblue" stroke="midnightblue" points="341.1,-154.45 351.51,-152.44 342.12,-147.52 341.1,-154.45"/>
</g>
<!-- Node3 -->
<g id="node3" class="node">
<title>Node3</title>
<g id="a_node3"><a xlink:href="classad__framework_1_1application_1_1Window.html#a9569910e63065451d43ad6d955ec07d4" target="_top" xlink:title=" ">
<polygon fill="white" stroke="black" points="342.5,-114.5 342.5,-133.5 573.5,-133.5 573.5,-114.5 342.5,-114.5"/>
<text text-anchor="middle" x="458" y="-121.5" font-family="Helvetica,sans-Serif" font-size="10.00">ad_framework::application::Window::IsOpen</text>
</a>
</g>
</g>
<!-- Node1&#45;&gt;Node3 -->
<g id="edge2" class="edge">
<title>Node1&#45;&gt;Node3</title>
<path fill="none" stroke="midnightblue" d="M213.97,-95.54C260.15,-100.95 318.06,-107.73 365.76,-113.32"/>
<polygon fill="midnightblue" stroke="midnightblue" points="365.44,-116.8 375.78,-114.49 366.26,-109.85 365.44,-116.8"/>
</g>
<!-- Node4 -->
<g id="node4" class="node">
<title>Node4</title>
<g id="a_node4"><a xlink:href="classad__framework_1_1application_1_1Window.html#aa26d85e7b58a197aca840c4c555bbca3" target="_top" xlink:title=" ">
<polygon fill="white" stroke="black" points="333,-76.5 333,-95.5 583,-95.5 583,-76.5 333,-76.5"/>
<text text-anchor="middle" x="458" y="-83.5" font-family="Helvetica,sans-Serif" font-size="10.00">ad_framework::application::Window::NewFrame</text>
</a>
</g>
</g>
<!-- Node1&#45;&gt;Node4 -->
<g id="edge3" class="edge">
<title>Node1&#45;&gt;Node4</title>
<path fill="none" stroke="midnightblue" d="M263.08,-86C282.73,-86 303.02,-86 322.74,-86"/>
<polygon fill="midnightblue" stroke="midnightblue" points="323,-89.5 333,-86 323,-82.5 323,-89.5"/>
</g>
<!-- Node5 -->
<g id="node5" class="node">
<title>Node5</title>
<g id="a_node5"><a xlink:href="classad__framework_1_1application_1_1Window.html#a7f5991bdfb43dd781dff432388f1be9b" target="_top" xlink:title=" ">
<polygon fill="white" stroke="black" points="342,-38.5 342,-57.5 574,-57.5 574,-38.5 342,-38.5"/>
<text text-anchor="middle" x="458" y="-45.5" font-family="Helvetica,sans-Serif" font-size="10.00">ad_framework::application::Window::Render</text>
</a>
</g>
</g>
<!-- Node1&#45;&gt;Node5 -->
<g id="edge4" class="edge">
<title>Node1&#45;&gt;Node5</title>
<path fill="none" stroke="midnightblue" d="M213.97,-76.46C260.15,-71.05 318.06,-64.27 365.76,-58.68"/>
<polygon fill="midnightblue" stroke="midnightblue" points="366.26,-62.15 375.78,-57.51 365.44,-55.2 366.26,-62.15"/>
</g>
<!-- Node6 -->
<g id="node6" class="node">
<title>Node6</title>
<g id="a_node6"><a xlink:href="classad__framework_1_1application_1_1UserInterface.html#a32ced87fe9b11703ef77dfbe886e923d" target="_top" xlink:title=" ">
<polygon fill="white" stroke="black" points="299,-0.5 299,-19.5 617,-19.5 617,-0.5 299,-0.5"/>
<text text-anchor="middle" x="458" y="-7.5" font-family="Helvetica,sans-Serif" font-size="10.00">ad_framework::application::UserInterface::UpdateDataReader</text>
</a>
</g>
</g>
<!-- Node1&#45;&gt;Node6 -->
<g id="edge5" class="edge">
<title>Node1&#45;&gt;Node6</title>
<path fill="none" stroke="midnightblue" d="M155.49,-76.4C187.2,-63.56 246.43,-41.02 299,-29 312.68,-25.87 327.15,-23.24 341.55,-21.03"/>
<polygon fill="midnightblue" stroke="midnightblue" points="342.12,-24.48 351.51,-19.56 341.1,-17.55 342.12,-24.48"/>
</g>
</g>
</svg>
