<?xml version="1.0" encoding="UTF-8" standalone="no"?>
<!DOCTYPE svg PUBLIC "-//W3C//DTD SVG 1.1//EN"
 "http://www.w3.org/Graphics/SVG/1.1/DTD/svg11.dtd">
<!-- Generated by graphviz version 2.43.0 (0)
 -->
<!-- Title: ad_framework::ui::UserInterface::Size Pages: 1 -->
<svg width="471pt" height="142pt"
 viewBox="0.00 0.00 471.00 142.00" xmlns="http://www.w3.org/2000/svg" xmlns:xlink="http://www.w3.org/1999/xlink">
<g id="graph0" class="graph" transform="scale(1 1) rotate(0) translate(4 138)">
<title>ad_framework::ui::UserInterface::Size</title>
<polygon fill="white" stroke="transparent" points="-4,4 -4,-138 467,-138 467,4 -4,4"/>
<!-- Node1 -->
<g id="node1" class="node">
<title>Node1</title>
<g id="a_node1"><a xlink:title=" ">
<polygon fill="#bfbfbf" stroke="black" points="263,-57.5 263,-76.5 463,-76.5 463,-57.5 263,-57.5"/>
<text text-anchor="middle" x="363" y="-64.5" font-family="Helvetica,sans-Serif" font-size="10.00">ad_framework::ui::UserInterface::Size</text>
</a>
</g>
</g>
<!-- Node2 -->
<g id="node2" class="node">
<title>Node2</title>
<g id="a_node2"><a xlink:href="classad__framework_1_1ui_1_1Button.html#a87bdaf93ee039c7252bd91f12215dcdc" target="_top" xlink:title=" ">
<polygon fill="white" stroke="black" points="16,-114.5 16,-133.5 211,-133.5 211,-114.5 16,-114.5"/>
<text text-anchor="middle" x="113.5" y="-121.5" font-family="Helvetica,sans-Serif" font-size="10.00">ad_framework::ui::Button::operator()</text>
</a>
</g>
</g>
<!-- Node1&#45;&gt;Node2 -->
<g id="edge1" class="edge">
<title>Node1&#45;&gt;Node2</title>
<path fill="none" stroke="midnightblue" d="M321.92,-79.5C295.21,-87.53 259.23,-97.76 227,-105 211.25,-108.54 194.12,-111.75 178.1,-114.48"/>
<polygon fill="midnightblue" stroke="midnightblue" points="323.12,-82.79 331.68,-76.54 321.09,-76.09 323.12,-82.79"/>
</g>
<!-- Node3 -->
<g id="node3" class="node">
<title>Node3</title>
<g id="a_node3"><a xlink:href="classad__framework_1_1ui_1_1ImageViewer.html#aed2cb542bd963b4c3150aea353d896dd" target="_top" xlink:title=" ">
<polygon fill="white" stroke="black" points="0,-76.5 0,-95.5 227,-95.5 227,-76.5 0,-76.5"/>
<text text-anchor="middle" x="113.5" y="-83.5" font-family="Helvetica,sans-Serif" font-size="10.00">ad_framework::ui::ImageViewer::operator()</text>
</a>
</g>
</g>
<!-- Node1&#45;&gt;Node3 -->
<g id="edge2" class="edge">
<title>Node1&#45;&gt;Node3</title>
<path fill="none" stroke="midnightblue" d="M252.55,-75.4C244.13,-76.05 235.62,-76.7 227.19,-77.35"/>
<polygon fill="midnightblue" stroke="midnightblue" points="253.06,-78.87 262.76,-74.62 252.52,-71.89 253.06,-78.87"/>
</g>
<!-- Node4 -->
<g id="node4" class="node">
<title>Node4</title>
<g id="a_node4"><a xlink:href="classad__framework_1_1ui_1_1Selector.html#ae6bc6a470d499974e5a9b53c65d9e1b1" target="_top" xlink:title=" ">
<polygon fill="white" stroke="black" points="12,-38.5 12,-57.5 215,-57.5 215,-38.5 12,-38.5"/>
<text text-anchor="middle" x="113.5" y="-45.5" font-family="Helvetica,sans-Serif" font-size="10.00">ad_framework::ui::Selector::operator()</text>
</a>
</g>
</g>
<!-- Node1&#45;&gt;Node4 -->
<g id="edge3" class="edge">
<title>Node1&#45;&gt;Node4</title>
<path fill="none" stroke="midnightblue" d="M252.45,-58.59C240.12,-57.64 227.6,-56.68 215.38,-55.74"/>
<polygon fill="midnightblue" stroke="midnightblue" points="252.52,-62.11 262.76,-59.38 253.06,-55.13 252.52,-62.11"/>
</g>
<!-- Node5 -->
<g id="node5" class="node">
<title>Node5</title>
<g id="a_node5"><a xlink:href="classad__framework_1_1ui_1_1TopViewer.html#a57fd54d9bb406d6a2e90905fac75b3d4" target="_top" xlink:title=" ">
<polygon fill="white" stroke="black" points="7,-0.5 7,-19.5 220,-19.5 220,-0.5 7,-0.5"/>
<text text-anchor="middle" x="113.5" y="-7.5" font-family="Helvetica,sans-Serif" font-size="10.00">ad_framework::ui::TopViewer::operator()</text>
</a>
</g>
</g>
<!-- Node1&#45;&gt;Node5 -->
<g id="edge4" class="edge">
<title>Node1&#45;&gt;Node5</title>
<path fill="none" stroke="midnightblue" d="M321.92,-54.5C295.21,-46.47 259.23,-36.24 227,-29 211.25,-25.46 194.12,-22.25 178.1,-19.52"/>
<polygon fill="midnightblue" stroke="midnightblue" points="321.09,-57.91 331.68,-57.46 323.12,-51.21 321.09,-57.91"/>
</g>
</g>
</svg>
