<?xml version="1.0" encoding="UTF-8" standalone="no"?>
<!DOCTYPE svg PUBLIC "-//W3C//DTD SVG 1.1//EN"
 "http://www.w3.org/Graphics/SVG/1.1/DTD/svg11.dtd">
<!-- Generated by graphviz version 2.43.0 (0)
 -->
<!-- Title: ad_framework::data_structure::KdTree::Insert Pages: 1 -->
<svg width="516pt" height="66pt"
 viewBox="0.00 0.00 516.00 66.00" xmlns="http://www.w3.org/2000/svg" xmlns:xlink="http://www.w3.org/1999/xlink">
<g id="graph0" class="graph" transform="scale(1 1) rotate(0) translate(4 62)">
<title>ad_framework::data_structure::KdTree::Insert</title>
<polygon fill="white" stroke="transparent" points="-4,4 -4,-62 512,-62 512,4 -4,4"/>
<!-- Node1 -->
<g id="node1" class="node">
<title>Node1</title>
<g id="a_node1"><a xlink:title=" ">
<polygon fill="#bfbfbf" stroke="black" points="272,-19.5 272,-38.5 508,-38.5 508,-19.5 272,-19.5"/>
<text text-anchor="middle" x="390" y="-26.5" font-family="Helvetica,sans-Serif" font-size="10.00">ad_framework::data_structure::KdTree::Insert</text>
</a>
</g>
</g>
<!-- Node2 -->
<g id="node2" class="node">
<title>Node2</title>
<g id="a_node2"><a xlink:href="classad__framework_1_1data__structure_1_1KdTree.html#a1a25f907c297ba485df6cb2fcd9b99af" target="_top" xlink:title=" ">
<polygon fill="white" stroke="black" points="0,-38.5 0,-57.5 236,-57.5 236,-38.5 0,-38.5"/>
<text text-anchor="middle" x="118" y="-45.5" font-family="Helvetica,sans-Serif" font-size="10.00">ad_framework::data_structure::KdTree::Insert</text>
</a>
</g>
</g>
<!-- Node1&#45;&gt;Node2 -->
<g id="edge1" class="edge">
<title>Node1&#45;&gt;Node2</title>
<path fill="none" stroke="midnightblue" d="M261.75,-37.95C253.21,-38.56 244.62,-39.16 236.13,-39.76"/>
<polygon fill="midnightblue" stroke="midnightblue" points="262.02,-41.44 271.75,-37.25 261.53,-34.46 262.02,-41.44"/>
</g>
<!-- Node3 -->
<g id="node3" class="node">
<title>Node3</title>
<g id="a_node3"><a xlink:href="namespacead__framework_1_1data__structure.html#a377d116c8751406760991a41f830b8b4" target="_top" xlink:title=" ">
<polygon fill="white" stroke="black" points="21,-0.5 21,-19.5 215,-19.5 215,-0.5 21,-0.5"/>
<text text-anchor="middle" x="118" y="-7.5" font-family="Helvetica,sans-Serif" font-size="10.00">ad_framework::data_structure::TEST</text>
</a>
</g>
</g>
<!-- Node1&#45;&gt;Node3 -->
<g id="edge2" class="edge">
<title>Node1&#45;&gt;Node3</title>
<path fill="none" stroke="midnightblue" d="M261.51,-20.03C245.89,-18.93 230.12,-17.82 215.07,-16.76"/>
<polygon fill="midnightblue" stroke="midnightblue" points="261.53,-23.54 271.75,-20.75 262.02,-16.56 261.53,-23.54"/>
</g>
</g>
</svg>
