<?xml version="1.0" encoding="UTF-8" standalone="no"?>
<!DOCTYPE svg PUBLIC "-//W3C//DTD SVG 1.1//EN"
 "http://www.w3.org/Graphics/SVG/1.1/DTD/svg11.dtd">
<!-- Generated by graphviz version 2.43.0 (0)
 -->
<!-- Title: ad_framework::KittiDataReader Pages: 1 -->
<svg width="989pt" height="860pt"
 viewBox="0.00 0.00 988.50 860.00" xmlns="http://www.w3.org/2000/svg" xmlns:xlink="http://www.w3.org/1999/xlink">
<g id="graph0" class="graph" transform="scale(1 1) rotate(0) translate(4 856)">
<title>ad_framework::KittiDataReader</title>
<polygon fill="white" stroke="transparent" points="-4,4 -4,-856 984.5,-856 984.5,4 -4,4"/>
<!-- Node1 -->
<g id="node1" class="node">
<title>Node1</title>
<g id="a_node1"><a xlink:title=" ">
<polygon fill="#bfbfbf" stroke="black" points="414,-0.5 414,-134.5 834,-134.5 834,-0.5 414,-0.5"/>
<text text-anchor="middle" x="624" y="-122.5" font-family="Helvetica,sans-Serif" font-size="10.00">ad_framework::KittiDataReader</text>
<polyline fill="none" stroke="black" points="414,-115.5 834,-115.5 "/>
<text text-anchor="middle" x="624" y="-103.5" font-family="Helvetica,sans-Serif" font-size="10.00"> </text>
<polyline fill="none" stroke="black" points="414,-96.5 834,-96.5 "/>
<text text-anchor="start" x="422" y="-84.5" font-family="Helvetica,sans-Serif" font-size="10.00">+ KittiDataReader(const fs::path path)</text>
<text text-anchor="start" x="422" y="-73.5" font-family="Helvetica,sans-Serif" font-size="10.00">&#45; size_t ReadSize() override</text>
<text text-anchor="start" x="422" y="-62.5" font-family="Helvetica,sans-Serif" font-size="10.00">&#45; ImagePtr ReadGrayImage(size_t index, fs::path base_path) override</text>
<text text-anchor="start" x="422" y="-51.5" font-family="Helvetica,sans-Serif" font-size="10.00">&#45; ImagePtr ReadColorImage(size_t index, fs::path base_path) override</text>
<text text-anchor="start" x="422" y="-40.5" font-family="Helvetica,sans-Serif" font-size="10.00">&#45; StereoImagePtr ReadGrayStereoImage(size_t index, fs::path base_path) override</text>
<text text-anchor="start" x="422" y="-29.5" font-family="Helvetica,sans-Serif" font-size="10.00">&#45; StereoImagePtr ReadColorStereoImage(size_t index, fs::path base_path) override</text>
<text text-anchor="start" x="422" y="-18.5" font-family="Helvetica,sans-Serif" font-size="10.00">&#45; PointCloudPtr ReadPointCloud(size_t index, fs::path base_path) override</text>
<text text-anchor="start" x="422" y="-7.5" font-family="Helvetica,sans-Serif" font-size="10.00">&#45; CalibrationPtr ReadCalibration(fs::path base_path) override</text>
</a>
</g>
</g>
<!-- Node2 -->
<g id="node2" class="node">
<title>Node2</title>
<g id="a_node2"><a xlink:href="classad__framework_1_1DataReader.html" target="_top" xlink:title=" ">
<polygon fill="white" stroke="black" points="280.5,-248.5 280.5,-525.5 705.5,-525.5 705.5,-248.5 280.5,-248.5"/>
<text text-anchor="middle" x="493" y="-513.5" font-family="Helvetica,sans-Serif" font-size="10.00">ad_framework::DataReader</text>
<polyline fill="none" stroke="black" points="280.5,-506.5 705.5,-506.5 "/>
<text text-anchor="middle" x="493" y="-494.5" font-family="Helvetica,sans-Serif" font-size="10.00"> </text>
<polyline fill="none" stroke="black" points="280.5,-487.5 705.5,-487.5 "/>
<text text-anchor="start" x="288.5" y="-475.5" font-family="Helvetica,sans-Serif" font-size="10.00">+ DataReader(const fs::path path)</text>
<text text-anchor="start" x="288.5" y="-464.5" font-family="Helvetica,sans-Serif" font-size="10.00">+ virtual ~DataReader()=default</text>
<text text-anchor="start" x="288.5" y="-453.5" font-family="Helvetica,sans-Serif" font-size="10.00">+ size_t GetSize() const</text>
<text text-anchor="start" x="288.5" y="-442.5" font-family="Helvetica,sans-Serif" font-size="10.00">+ bool LoadIndex(size_t index)</text>
<text text-anchor="start" x="288.5" y="-431.5" font-family="Helvetica,sans-Serif" font-size="10.00">+ size_t GetIndex() const</text>
<text text-anchor="start" x="288.5" y="-420.5" font-family="Helvetica,sans-Serif" font-size="10.00">+ fs::path GetPath() const</text>
<text text-anchor="start" x="288.5" y="-409.5" font-family="Helvetica,sans-Serif" font-size="10.00">+ const ImagePtr GetGrayImage() const</text>
<text text-anchor="start" x="288.5" y="-398.5" font-family="Helvetica,sans-Serif" font-size="10.00">+ const ImagePtr GetColorImage() const</text>
<text text-anchor="start" x="288.5" y="-387.5" font-family="Helvetica,sans-Serif" font-size="10.00">+ const StereoImagePtr GetGrayStereoImage() const</text>
<text text-anchor="start" x="288.5" y="-376.5" font-family="Helvetica,sans-Serif" font-size="10.00">+ const StereoImagePtr GetColorStereoImage() const</text>
<text text-anchor="start" x="288.5" y="-365.5" font-family="Helvetica,sans-Serif" font-size="10.00">+ const PointCloudPtr GetPointCloud() const</text>
<text text-anchor="start" x="288.5" y="-354.5" font-family="Helvetica,sans-Serif" font-size="10.00">+ const CalibrationPtr GetCalibration() const</text>
<text text-anchor="start" x="288.5" y="-343.5" font-family="Helvetica,sans-Serif" font-size="10.00"># void SetSize(size_t size)</text>
<text text-anchor="start" x="288.5" y="-332.5" font-family="Helvetica,sans-Serif" font-size="10.00"># void SetCalibration(CalibrationPtr calibration)</text>
<text text-anchor="start" x="288.5" y="-321.5" font-family="Helvetica,sans-Serif" font-size="10.00">&#45; virtual size_t ReadSize()=0</text>
<text text-anchor="start" x="288.5" y="-310.5" font-family="Helvetica,sans-Serif" font-size="10.00">&#45; virtual ImagePtr ReadGrayImage(size_t index, fs::path base_path)=0</text>
<text text-anchor="start" x="288.5" y="-299.5" font-family="Helvetica,sans-Serif" font-size="10.00">&#45; virtual ImagePtr ReadColorImage(size_t index, fs::path base_path)=0</text>
<text text-anchor="start" x="288.5" y="-288.5" font-family="Helvetica,sans-Serif" font-size="10.00">&#45; virtual StereoImagePtr ReadGrayStereoImage(size_t index, fs::path base_path)=0</text>
<text text-anchor="start" x="288.5" y="-277.5" font-family="Helvetica,sans-Serif" font-size="10.00">&#45; virtual StereoImagePtr ReadColorStereoImage(size_t index, fs::path base_path)=0</text>
<text text-anchor="start" x="288.5" y="-266.5" font-family="Helvetica,sans-Serif" font-size="10.00">&#45; virtual PointCloudPtr ReadPointCloud(size_t index, fs::path base_path)=0</text>
<text text-anchor="start" x="288.5" y="-255.5" font-family="Helvetica,sans-Serif" font-size="10.00">&#45; virtual CalibrationPtr ReadCalibration(fs::path base_path)=0</text>
</a>
</g>
</g>
<!-- Node2&#45;&gt;Node1 -->
<g id="edge1" class="edge">
<title>Node2&#45;&gt;Node1</title>
<path fill="none" stroke="midnightblue" d="M553.7,-238.88C568.74,-202.43 584.12,-165.16 596.64,-134.81"/>
<polygon fill="none" stroke="midnightblue" points="550.47,-237.55 549.89,-248.13 556.94,-240.22 550.47,-237.55"/>
</g>
<!-- Node3 -->
<g id="node3" class="node">
<title>Node3</title>
<g id="a_node3"><a xlink:title=" ">
<polygon fill="white" stroke="#bfbfbf" points="0,-584.5 0,-641.5 38,-641.5 38,-584.5 0,-584.5"/>
<text text-anchor="middle" x="19" y="-629.5" font-family="Helvetica,sans-Serif" font-size="10.00">path</text>
<polyline fill="none" stroke="#bfbfbf" points="0,-622.5 38,-622.5 "/>
<text text-anchor="middle" x="19" y="-610.5" font-family="Helvetica,sans-Serif" font-size="10.00"> </text>
<polyline fill="none" stroke="#bfbfbf" points="0,-603.5 38,-603.5 "/>
<text text-anchor="middle" x="19" y="-591.5" font-family="Helvetica,sans-Serif" font-size="10.00"> </text>
</a>
</g>
</g>
<!-- Node3&#45;&gt;Node2 -->
<g id="edge2" class="edge">
<title>Node3&#45;&gt;Node2</title>
<path fill="none" stroke="#404040" d="M38.06,-591.13C40.92,-588.55 43.94,-586.1 47,-584 114.74,-537.69 195.19,-498.32 268.99,-467.3"/>
<polygon fill="none" stroke="#404040" points="269.22,-467.2 273.22,-461.2 280.3,-462.59 276.3,-468.59 269.22,-467.2"/>
<text text-anchor="middle" x="120" y="-552.5" font-family="Helvetica,sans-Serif" font-size="10.00"> &#45;path_</text>
</g>
<!-- Node4 -->
<g id="node4" class="node">
<title>Node4</title>
<g id="a_node4"><a xlink:title=" ">
<polygon fill="white" stroke="#bfbfbf" points="56.5,-584.5 56.5,-641.5 199.5,-641.5 199.5,-584.5 56.5,-584.5"/>
<text text-anchor="middle" x="128" y="-629.5" font-family="Helvetica,sans-Serif" font-size="10.00">std::shared_ptr&lt; Image &gt;</text>
<polyline fill="none" stroke="#bfbfbf" points="56.5,-622.5 199.5,-622.5 "/>
<text text-anchor="start" x="64.5" y="-610.5" font-family="Helvetica,sans-Serif" font-size="10.00">+ Image ptr</text>
<polyline fill="none" stroke="#bfbfbf" points="56.5,-603.5 199.5,-603.5 "/>
<text text-anchor="start" x="64.5" y="-591.5" font-family="Helvetica,sans-Serif" font-size="10.00">+ Image * operator&#45;&gt;()</text>
</a>
</g>
</g>
<!-- Node4&#45;&gt;Node2 -->
<g id="edge3" class="edge">
<title>Node4&#45;&gt;Node2</title>
<path fill="none" stroke="#404040" d="M173.12,-584.31C198.84,-568.53 233.19,-547.44 269.85,-524.95"/>
<polygon fill="none" stroke="#404040" points="270.02,-524.84 273.04,-518.3 280.25,-518.57 277.22,-525.11 270.02,-524.84"/>
<text text-anchor="middle" x="281.5" y="-558" font-family="Helvetica,sans-Serif" font-size="10.00"> &#45;color_image_ptr_</text>
<text text-anchor="middle" x="281.5" y="-547" font-family="Helvetica,sans-Serif" font-size="10.00">&#45;gray_image_ptr_</text>
</g>
<!-- Node5 -->
<g id="node5" class="node">
<title>Node5</title>
<g id="a_node5"><a xlink:title=" ">
<polygon fill="white" stroke="#bfbfbf" points="339,-689.5 339,-746.5 457,-746.5 457,-689.5 339,-689.5"/>
<text text-anchor="middle" x="398" y="-734.5" font-family="Helvetica,sans-Serif" font-size="10.00">std::shared_ptr&lt; T &gt;</text>
<polyline fill="none" stroke="#bfbfbf" points="339,-727.5 457,-727.5 "/>
<text text-anchor="middle" x="398" y="-715.5" font-family="Helvetica,sans-Serif" font-size="10.00"> </text>
<polyline fill="none" stroke="#bfbfbf" points="339,-708.5 457,-708.5 "/>
<text text-anchor="start" x="347" y="-696.5" font-family="Helvetica,sans-Serif" font-size="10.00">+ T * operator&#45;&gt;()</text>
</a>
</g>
</g>
<!-- Node5&#45;&gt;Node4 -->
<g id="edge4" class="edge">
<title>Node5&#45;&gt;Node4</title>
<path fill="none" stroke="orange" d="M329.15,-690.74C289.49,-675.61 239.71,-656.61 199.59,-641.31"/>
<polygon fill="orange" stroke="orange" points="328.16,-694.1 338.75,-694.4 330.65,-687.56 328.16,-694.1"/>
<text text-anchor="middle" x="300.5" y="-663" font-family="Helvetica,sans-Serif" font-size="10.00"> &lt; Image &gt;</text>
</g>
<!-- Node7 -->
<g id="node7" class="node">
<title>Node7</title>
<g id="a_node7"><a xlink:title=" ">
<polygon fill="white" stroke="#bfbfbf" points="218,-584.5 218,-641.5 392,-641.5 392,-584.5 218,-584.5"/>
<text text-anchor="middle" x="305" y="-629.5" font-family="Helvetica,sans-Serif" font-size="10.00">std::shared_ptr&lt; StereoImage &gt;</text>
<polyline fill="none" stroke="#bfbfbf" points="218,-622.5 392,-622.5 "/>
<text text-anchor="start" x="226" y="-610.5" font-family="Helvetica,sans-Serif" font-size="10.00">+ StereoImage ptr</text>
<polyline fill="none" stroke="#bfbfbf" points="218,-603.5 392,-603.5 "/>
<text text-anchor="start" x="226" y="-591.5" font-family="Helvetica,sans-Serif" font-size="10.00">+ StereoImage * operator&#45;&gt;()</text>
</a>
</g>
</g>
<!-- Node5&#45;&gt;Node7 -->
<g id="edge7" class="edge">
<title>Node5&#45;&gt;Node7</title>
<path fill="none" stroke="orange" d="M366.29,-681.88C354.44,-668.75 341.15,-654.04 329.99,-641.68"/>
<polygon fill="orange" stroke="orange" points="363.78,-684.32 373.08,-689.4 368.97,-679.63 363.78,-684.32"/>
<text text-anchor="middle" x="399" y="-663" font-family="Helvetica,sans-Serif" font-size="10.00"> &lt; StereoImage &gt;</text>
</g>
<!-- Node9 -->
<g id="node9" class="node">
<title>Node9</title>
<g id="a_node9"><a xlink:title=" ">
<polygon fill="white" stroke="#bfbfbf" points="410.5,-584.5 410.5,-641.5 575.5,-641.5 575.5,-584.5 410.5,-584.5"/>
<text text-anchor="middle" x="493" y="-629.5" font-family="Helvetica,sans-Serif" font-size="10.00">std::shared_ptr&lt; Calibration &gt;</text>
<polyline fill="none" stroke="#bfbfbf" points="410.5,-622.5 575.5,-622.5 "/>
<text text-anchor="start" x="418.5" y="-610.5" font-family="Helvetica,sans-Serif" font-size="10.00">+ Calibration ptr</text>
<polyline fill="none" stroke="#bfbfbf" points="410.5,-603.5 575.5,-603.5 "/>
<text text-anchor="start" x="418.5" y="-591.5" font-family="Helvetica,sans-Serif" font-size="10.00">+ Calibration * operator&#45;&gt;()</text>
</a>
</g>
</g>
<!-- Node5&#45;&gt;Node9 -->
<g id="edge10" class="edge">
<title>Node5&#45;&gt;Node9</title>
<path fill="none" stroke="orange" d="M436,-682.32C439.79,-678.57 443.52,-674.75 447,-671 455.56,-661.77 464.38,-651.16 471.98,-641.61"/>
<polygon fill="orange" stroke="orange" points="433.43,-679.94 428.7,-689.41 438.31,-684.96 433.43,-679.94"/>
<text text-anchor="middle" x="496.5" y="-663" font-family="Helvetica,sans-Serif" font-size="10.00"> &lt; Calibration &gt;</text>
</g>
<!-- Node10 -->
<g id="node10" class="node">
<title>Node10</title>
<g id="a_node10"><a xlink:title=" ">
<polygon fill="white" stroke="#bfbfbf" points="594,-584.5 594,-641.5 758,-641.5 758,-584.5 594,-584.5"/>
<text text-anchor="middle" x="676" y="-629.5" font-family="Helvetica,sans-Serif" font-size="10.00">std::shared_ptr&lt; PointCloud &gt;</text>
<polyline fill="none" stroke="#bfbfbf" points="594,-622.5 758,-622.5 "/>
<text text-anchor="start" x="602" y="-610.5" font-family="Helvetica,sans-Serif" font-size="10.00">+ PointCloud ptr</text>
<polyline fill="none" stroke="#bfbfbf" points="594,-603.5 758,-603.5 "/>
<text text-anchor="start" x="602" y="-591.5" font-family="Helvetica,sans-Serif" font-size="10.00">+ PointCloud * operator&#45;&gt;()</text>
</a>
</g>
</g>
<!-- Node5&#45;&gt;Node10 -->
<g id="edge12" class="edge">
<title>Node5&#45;&gt;Node10</title>
<path fill="none" stroke="orange" d="M466.92,-695.95C490.27,-688.48 516.4,-679.75 540,-671 564.12,-662.05 590.27,-651.35 613.13,-641.64"/>
<polygon fill="orange" stroke="orange" points="465.57,-692.71 457.1,-699.07 467.69,-699.38 465.57,-692.71"/>
<text text-anchor="middle" x="606.5" y="-663" font-family="Helvetica,sans-Serif" font-size="10.00"> &lt; PointCloud &gt;</text>
</g>
<!-- Node6 -->
<g id="node6" class="node">
<title>Node6</title>
<g id="a_node6"><a xlink:title=" ">
<polygon fill="white" stroke="#bfbfbf" points="383.5,-794.5 383.5,-851.5 412.5,-851.5 412.5,-794.5 383.5,-794.5"/>
<text text-anchor="middle" x="398" y="-839.5" font-family="Helvetica,sans-Serif" font-size="10.00">T</text>
<polyline fill="none" stroke="#bfbfbf" points="383.5,-832.5 412.5,-832.5 "/>
<text text-anchor="middle" x="398" y="-820.5" font-family="Helvetica,sans-Serif" font-size="10.00"> </text>
<polyline fill="none" stroke="#bfbfbf" points="383.5,-813.5 412.5,-813.5 "/>
<text text-anchor="middle" x="398" y="-801.5" font-family="Helvetica,sans-Serif" font-size="10.00"> </text>
</a>
</g>
</g>
<!-- Node6&#45;&gt;Node5 -->
<g id="edge5" class="edge">
<title>Node6&#45;&gt;Node5</title>
<path fill="none" stroke="#404040" d="M398,-794.4C398,-783.55 398,-770.87 398,-759.05"/>
<polygon fill="none" stroke="#404040" points="398,-758.68 394,-752.68 398,-746.68 402,-752.68 398,-758.68"/>
<text text-anchor="middle" x="410.5" y="-768" font-family="Helvetica,sans-Serif" font-size="10.00"> +ptr</text>
</g>
<!-- Node7&#45;&gt;Node2 -->
<g id="edge6" class="edge">
<title>Node7&#45;&gt;Node2</title>
<path fill="none" stroke="#404040" d="M328.29,-584.2C338.61,-571.89 350.91,-557.22 362,-544 364.42,-541.11 366.87,-538.2 369.34,-535.26"/>
<polygon fill="none" stroke="#404040" points="369.56,-534.99 370.35,-527.83 377.27,-525.8 376.48,-532.97 369.56,-534.99"/>
<text text-anchor="middle" x="425.5" y="-558" font-family="Helvetica,sans-Serif" font-size="10.00"> &#45;color_stereo_image_ptr_</text>
<text text-anchor="middle" x="425.5" y="-547" font-family="Helvetica,sans-Serif" font-size="10.00">&#45;gray_stereo_image_ptr_</text>
</g>
<!-- Node8 -->
<g id="node8" class="node">
<title>Node8</title>
<g id="a_node8"><a xlink:title=" ">
<polygon fill="white" stroke="#bfbfbf" points="776.5,-584.5 776.5,-641.5 821.5,-641.5 821.5,-584.5 776.5,-584.5"/>
<text text-anchor="middle" x="799" y="-629.5" font-family="Helvetica,sans-Serif" font-size="10.00">size_t</text>
<polyline fill="none" stroke="#bfbfbf" points="776.5,-622.5 821.5,-622.5 "/>
<text text-anchor="middle" x="799" y="-610.5" font-family="Helvetica,sans-Serif" font-size="10.00"> </text>
<polyline fill="none" stroke="#bfbfbf" points="776.5,-603.5 821.5,-603.5 "/>
<text text-anchor="middle" x="799" y="-591.5" font-family="Helvetica,sans-Serif" font-size="10.00"> </text>
</a>
</g>
</g>
<!-- Node8&#45;&gt;Node2 -->
<g id="edge8" class="edge">
<title>Node8&#45;&gt;Node2</title>
<path fill="none" stroke="#404040" d="M776.16,-591.54C773.12,-588.95 770.01,-586.38 767,-584 745.64,-567.08 722.98,-549.83 700.19,-532.92"/>
<polygon fill="none" stroke="#404040" points="700.07,-532.83 692.87,-532.48 690.43,-525.7 697.63,-526.05 700.07,-532.83"/>
<text text-anchor="middle" x="777.5" y="-558" font-family="Helvetica,sans-Serif" font-size="10.00"> &#45;current_index_</text>
<text text-anchor="middle" x="777.5" y="-547" font-family="Helvetica,sans-Serif" font-size="10.00">&#45;size_</text>
</g>
<!-- Node9&#45;&gt;Node2 -->
<g id="edge9" class="edge">
<title>Node9&#45;&gt;Node2</title>
<path fill="none" stroke="#404040" d="M493,-584.08C493,-571.35 493,-555.2 493,-537.65"/>
<polygon fill="none" stroke="#404040" points="493,-537.62 489,-531.62 493,-525.62 497,-531.62 493,-537.62"/>
<text text-anchor="middle" x="525" y="-552.5" font-family="Helvetica,sans-Serif" font-size="10.00"> &#45;calibration_</text>
</g>
<!-- Node10&#45;&gt;Node2 -->
<g id="edge11" class="edge">
<title>Node10&#45;&gt;Node2</title>
<path fill="none" stroke="#404040" d="M653.19,-584.08C642.29,-570.74 628.32,-553.64 613.19,-535.12"/>
<polygon fill="none" stroke="#404040" points="613.02,-534.92 606.13,-532.8 605.43,-525.62 612.33,-527.74 613.02,-534.92"/>
<text text-anchor="middle" x="670.5" y="-552.5" font-family="Helvetica,sans-Serif" font-size="10.00"> &#45;point_cloud_</text>
</g>
<!-- Node11 -->
<g id="node11" class="node">
<title>Node11</title>
<g id="a_node11"><a xlink:title=" ">
<polygon fill="white" stroke="#bfbfbf" points="800.5,-358.5 800.5,-415.5 865.5,-415.5 865.5,-358.5 800.5,-358.5"/>
<text text-anchor="middle" x="833" y="-403.5" font-family="Helvetica,sans-Serif" font-size="10.00">std::string</text>
<polyline fill="none" stroke="#bfbfbf" points="800.5,-396.5 865.5,-396.5 "/>
<text text-anchor="middle" x="833" y="-384.5" font-family="Helvetica,sans-Serif" font-size="10.00"> </text>
<polyline fill="none" stroke="#bfbfbf" points="800.5,-377.5 865.5,-377.5 "/>
<text text-anchor="middle" x="833" y="-365.5" font-family="Helvetica,sans-Serif" font-size="10.00"> </text>
</a>
</g>
</g>
<!-- Node11&#45;&gt;Node1 -->
<g id="edge13" class="edge">
<title>Node11&#45;&gt;Node1</title>
<path fill="none" stroke="#404040" d="M814.82,-358.38C783.83,-311.31 719.76,-213.97 674.43,-145.1"/>
<polygon fill="none" stroke="#404040" points="674.2,-144.76 667.56,-141.94 667.6,-134.73 674.24,-137.54 674.2,-144.76"/>
<text text-anchor="middle" x="789" y="-222" font-family="Helvetica,sans-Serif" font-size="10.00"> &#45;kCalibrationFile</text>
<text text-anchor="middle" x="789" y="-211" font-family="Helvetica,sans-Serif" font-size="10.00">&#45;kColorLeftImageFolder</text>
<text text-anchor="middle" x="789" y="-200" font-family="Helvetica,sans-Serif" font-size="10.00">&#45;kColorRightImageFolder</text>
<text text-anchor="middle" x="789" y="-189" font-family="Helvetica,sans-Serif" font-size="10.00">&#45;kGrayLeftImageFolder</text>
<text text-anchor="middle" x="789" y="-178" font-family="Helvetica,sans-Serif" font-size="10.00">&#45;kGrayRightImageFolder</text>
<text text-anchor="middle" x="789" y="-167" font-family="Helvetica,sans-Serif" font-size="10.00">&#45;kPointCloudFolder</text>
<text text-anchor="middle" x="789" y="-156" font-family="Helvetica,sans-Serif" font-size="10.00">&#45;kTimesFile</text>
</g>
<!-- Node12 -->
<g id="node12" class="node">
<title>Node12</title>
<g id="a_node12"><a xlink:title=" ">
<polygon fill="white" stroke="#bfbfbf" points="839.5,-584.5 839.5,-641.5 980.5,-641.5 980.5,-584.5 839.5,-584.5"/>
<text text-anchor="middle" x="910" y="-629.5" font-family="Helvetica,sans-Serif" font-size="10.00">std::basic_string&lt; Char &gt;</text>
<polyline fill="none" stroke="#bfbfbf" points="839.5,-622.5 980.5,-622.5 "/>
<text text-anchor="middle" x="910" y="-610.5" font-family="Helvetica,sans-Serif" font-size="10.00"> </text>
<polyline fill="none" stroke="#bfbfbf" points="839.5,-603.5 980.5,-603.5 "/>
<text text-anchor="middle" x="910" y="-591.5" font-family="Helvetica,sans-Serif" font-size="10.00"> </text>
</a>
</g>
</g>
<!-- Node12&#45;&gt;Node11 -->
<g id="edge14" class="edge">
<title>Node12&#45;&gt;Node11</title>
<path fill="none" stroke="midnightblue" d="M897.08,-574.42C881.65,-529.53 856.2,-455.49 842.48,-415.56"/>
<polygon fill="none" stroke="midnightblue" points="893.84,-575.76 900.4,-584.08 900.46,-573.49 893.84,-575.76"/>
</g>
</g>
</svg>
