<?xml version="1.0" encoding="UTF-8" standalone="no"?>
<!DOCTYPE svg PUBLIC "-//W3C//DTD SVG 1.1//EN"
 "http://www.w3.org/Graphics/SVG/1.1/DTD/svg11.dtd">
<!-- Generated by graphviz version 2.43.0 (0)
 -->
<!-- Title: ad_framework::ui::Button::ButtonChanger Pages: 1 -->
<svg width="276pt" height="182pt"
 viewBox="0.00 0.00 276.00 182.00" xmlns="http://www.w3.org/2000/svg" xmlns:xlink="http://www.w3.org/1999/xlink">
<g id="graph0" class="graph" transform="scale(1 1) rotate(0) translate(4 178)">
<title>ad_framework::ui::Button::ButtonChanger</title>
<polygon fill="white" stroke="transparent" points="-4,4 -4,-178 272,-178 272,4 -4,4"/>
<!-- Node1 -->
<g id="node1" class="node">
<title>Node1</title>
<g id="a_node1"><a xlink:title=" ">
<polygon fill="#bfbfbf" stroke="black" points="2.5,-0.5 2.5,-68.5 265.5,-68.5 265.5,-0.5 2.5,-0.5"/>
<text text-anchor="middle" x="134" y="-56.5" font-family="Helvetica,sans-Serif" font-size="10.00">ad_framework::ui::Button::ButtonChanger</text>
<polyline fill="none" stroke="black" points="2.5,-49.5 265.5,-49.5 "/>
<text text-anchor="middle" x="134" y="-37.5" font-family="Helvetica,sans-Serif" font-size="10.00"> </text>
<polyline fill="none" stroke="black" points="2.5,-30.5 265.5,-30.5 "/>
<text text-anchor="start" x="10.5" y="-18.5" font-family="Helvetica,sans-Serif" font-size="10.00">+ ButtonChanger()=default</text>
<text text-anchor="start" x="10.5" y="-7.5" font-family="Helvetica,sans-Serif" font-size="10.00">+ std::any operator()(const std::any &amp;src) override</text>
</a>
</g>
</g>
<!-- Node2 -->
<g id="node2" class="node">
<title>Node2</title>
<g id="a_node2"><a xlink:href="structad__framework_1_1callback_1_1Callback.html" target="_top" xlink:title=" ">
<polygon fill="white" stroke="black" points="0,-105.5 0,-173.5 268,-173.5 268,-105.5 0,-105.5"/>
<text text-anchor="middle" x="134" y="-161.5" font-family="Helvetica,sans-Serif" font-size="10.00">ad_framework::callback::Callback</text>
<polyline fill="none" stroke="black" points="0,-154.5 268,-154.5 "/>
<text text-anchor="middle" x="134" y="-142.5" font-family="Helvetica,sans-Serif" font-size="10.00"> </text>
<polyline fill="none" stroke="black" points="0,-135.5 268,-135.5 "/>
<text text-anchor="start" x="8" y="-123.5" font-family="Helvetica,sans-Serif" font-size="10.00">+ virtual ~Callback()=default</text>
<text text-anchor="start" x="8" y="-112.5" font-family="Helvetica,sans-Serif" font-size="10.00">+ virtual std::any operator()(const std::any &amp;src)=0</text>
</a>
</g>
</g>
<!-- Node2&#45;&gt;Node1 -->
<g id="edge1" class="edge">
<title>Node2&#45;&gt;Node1</title>
<path fill="none" stroke="midnightblue" d="M134,-95.14C134,-86.26 134,-77.04 134,-68.59"/>
<polygon fill="none" stroke="midnightblue" points="130.5,-95.34 134,-105.34 137.5,-95.34 130.5,-95.34"/>
</g>
</g>
</svg>
