<?xml version="1.0" encoding="UTF-8" standalone="no"?>
<!DOCTYPE svg PUBLIC "-//W3C//DTD SVG 1.1//EN"
 "http://www.w3.org/Graphics/SVG/1.1/DTD/svg11.dtd">
<!-- Generated by graphviz version 2.43.0 (0)
 -->
<!-- Title: ad_framework::ui::UserInterface::Pos Pages: 1 -->
<svg width="468pt" height="104pt"
 viewBox="0.00 0.00 468.00 104.00" xmlns="http://www.w3.org/2000/svg" xmlns:xlink="http://www.w3.org/1999/xlink">
<g id="graph0" class="graph" transform="scale(1 1) rotate(0) translate(4 100)">
<title>ad_framework::ui::UserInterface::Pos</title>
<polygon fill="white" stroke="transparent" points="-4,4 -4,-100 464,-100 464,4 -4,4"/>
<!-- Node1 -->
<g id="node1" class="node">
<title>Node1</title>
<g id="a_node1"><a xlink:title=" ">
<polygon fill="#bfbfbf" stroke="black" points="263,-38.5 263,-57.5 460,-57.5 460,-38.5 263,-38.5"/>
<text text-anchor="middle" x="361.5" y="-45.5" font-family="Helvetica,sans-Serif" font-size="10.00">ad_framework::ui::UserInterface::Pos</text>
</a>
</g>
</g>
<!-- Node2 -->
<g id="node2" class="node">
<title>Node2</title>
<g id="a_node2"><a xlink:href="classad__framework_1_1ui_1_1Button.html#a87bdaf93ee039c7252bd91f12215dcdc" target="_top" xlink:title=" ">
<polygon fill="white" stroke="black" points="16,-76.5 16,-95.5 211,-95.5 211,-76.5 16,-76.5"/>
<text text-anchor="middle" x="113.5" y="-83.5" font-family="Helvetica,sans-Serif" font-size="10.00">ad_framework::ui::Button::operator()</text>
</a>
</g>
</g>
<!-- Node1&#45;&gt;Node2 -->
<g id="edge1" class="edge">
<title>Node1&#45;&gt;Node2</title>
<path fill="none" stroke="midnightblue" d="M288.42,-59.13C252.84,-64.63 210.36,-71.19 176.28,-76.46"/>
<polygon fill="midnightblue" stroke="midnightblue" points="289.39,-62.53 298.74,-57.54 288.32,-55.61 289.39,-62.53"/>
</g>
<!-- Node3 -->
<g id="node3" class="node">
<title>Node3</title>
<g id="a_node3"><a xlink:href="classad__framework_1_1ui_1_1ImageViewer.html#aed2cb542bd963b4c3150aea353d896dd" target="_top" xlink:title=" ">
<polygon fill="white" stroke="black" points="0,-38.5 0,-57.5 227,-57.5 227,-38.5 0,-38.5"/>
<text text-anchor="middle" x="113.5" y="-45.5" font-family="Helvetica,sans-Serif" font-size="10.00">ad_framework::ui::ImageViewer::operator()</text>
</a>
</g>
</g>
<!-- Node1&#45;&gt;Node3 -->
<g id="edge2" class="edge">
<title>Node1&#45;&gt;Node3</title>
<path fill="none" stroke="midnightblue" d="M252.73,-48C244.33,-48 235.83,-48 227.4,-48"/>
<polygon fill="midnightblue" stroke="midnightblue" points="252.92,-51.5 262.92,-48 252.92,-44.5 252.92,-51.5"/>
</g>
<!-- Node4 -->
<g id="node4" class="node">
<title>Node4</title>
<g id="a_node4"><a xlink:href="classad__framework_1_1ui_1_1Selector.html#ae6bc6a470d499974e5a9b53c65d9e1b1" target="_top" xlink:title=" ">
<polygon fill="white" stroke="black" points="12,-0.5 12,-19.5 215,-19.5 215,-0.5 12,-0.5"/>
<text text-anchor="middle" x="113.5" y="-7.5" font-family="Helvetica,sans-Serif" font-size="10.00">ad_framework::ui::Selector::operator()</text>
</a>
</g>
</g>
<!-- Node1&#45;&gt;Node4 -->
<g id="edge3" class="edge">
<title>Node1&#45;&gt;Node4</title>
<path fill="none" stroke="midnightblue" d="M288.42,-36.87C252.84,-31.37 210.36,-24.81 176.28,-19.54"/>
<polygon fill="midnightblue" stroke="midnightblue" points="288.32,-40.39 298.74,-38.46 289.39,-33.47 288.32,-40.39"/>
</g>
</g>
</svg>
