<?xml version="1.0" encoding="UTF-8" standalone="no"?>
<!DOCTYPE svg PUBLIC "-//W3C//DTD SVG 1.1//EN"
 "http://www.w3.org/Graphics/SVG/1.1/DTD/svg11.dtd">
<!-- Generated by graphviz version 2.43.0 (0)
 -->
<!-- Title: ad_framework::application::MediaPannel Pages: 1 -->
<svg width="686pt" height="586pt"
 viewBox="0.00 0.00 685.50 586.00" xmlns="http://www.w3.org/2000/svg" xmlns:xlink="http://www.w3.org/1999/xlink">
<g id="graph0" class="graph" transform="scale(1 1) rotate(0) translate(4 582)">
<title>ad_framework::application::MediaPannel</title>
<polygon fill="white" stroke="transparent" points="-4,4 -4,-582 681.5,-582 681.5,4 -4,4"/>
<!-- Node1 -->
<g id="node1" class="node">
<title>Node1</title>
<g id="a_node1"><a xlink:title=" ">
<polygon fill="#bfbfbf" stroke="black" points="244,-0.5 244,-79.5 558,-79.5 558,-0.5 244,-0.5"/>
<text text-anchor="middle" x="401" y="-67.5" font-family="Helvetica,sans-Serif" font-size="10.00">ad_framework::application::MediaPannel</text>
<polyline fill="none" stroke="black" points="244,-60.5 558,-60.5 "/>
<text text-anchor="middle" x="401" y="-48.5" font-family="Helvetica,sans-Serif" font-size="10.00"> </text>
<polyline fill="none" stroke="black" points="244,-41.5 558,-41.5 "/>
<text text-anchor="start" x="252" y="-29.5" font-family="Helvetica,sans-Serif" font-size="10.00">+ MediaPannel(const ImVec2 &amp;position, const ImVec2 &amp;size)</text>
<text text-anchor="start" x="252" y="-18.5" font-family="Helvetica,sans-Serif" font-size="10.00">+ ~MediaPannel()=default</text>
<text text-anchor="start" x="252" y="-7.5" font-family="Helvetica,sans-Serif" font-size="10.00">&#45; void RenderInterface(bool &amp;open) override</text>
</a>
</g>
</g>
<!-- Node2 -->
<g id="node2" class="node">
<title>Node2</title>
<g id="a_node2"><a xlink:href="classad__framework_1_1application_1_1Pannel.html" target="_top" xlink:title=" ">
<polygon fill="white" stroke="black" points="205.5,-117.5 205.5,-251.5 596.5,-251.5 596.5,-117.5 205.5,-117.5"/>
<text text-anchor="middle" x="401" y="-239.5" font-family="Helvetica,sans-Serif" font-size="10.00">ad_framework::application::Pannel</text>
<polyline fill="none" stroke="black" points="205.5,-232.5 596.5,-232.5 "/>
<text text-anchor="middle" x="401" y="-220.5" font-family="Helvetica,sans-Serif" font-size="10.00"> </text>
<polyline fill="none" stroke="black" points="205.5,-213.5 596.5,-213.5 "/>
<text text-anchor="start" x="213.5" y="-201.5" font-family="Helvetica,sans-Serif" font-size="10.00">+ Pannel(std::string name, const ImVec2 &amp;position_, const ImVec2 &amp;size_)</text>
<text text-anchor="start" x="213.5" y="-190.5" font-family="Helvetica,sans-Serif" font-size="10.00">+ virtual ~Pannel()=default</text>
<text text-anchor="start" x="213.5" y="-179.5" font-family="Helvetica,sans-Serif" font-size="10.00">+ void Update(DataLoaderPtr dataloader_ptr, DataReaderPtr datareader_ptr)</text>
<text text-anchor="start" x="213.5" y="-168.5" font-family="Helvetica,sans-Serif" font-size="10.00">+ void Render(bool &amp;open, const ImVec2 &amp;window_size)</text>
<text text-anchor="start" x="213.5" y="-157.5" font-family="Helvetica,sans-Serif" font-size="10.00">+ std::string GetName() const</text>
<text text-anchor="start" x="213.5" y="-146.5" font-family="Helvetica,sans-Serif" font-size="10.00"># virtual void RenderInterface(bool &amp;open)=0</text>
<text text-anchor="start" x="213.5" y="-135.5" font-family="Helvetica,sans-Serif" font-size="10.00">&#45; void SetSize(const ImVec2 &amp;window_size) const</text>
<text text-anchor="start" x="213.5" y="-124.5" font-family="Helvetica,sans-Serif" font-size="10.00">&#45; void SetPosition(const ImVec2 &amp;window_size) const</text>
</a>
</g>
</g>
<!-- Node2&#45;&gt;Node1 -->
<g id="edge1" class="edge">
<title>Node2&#45;&gt;Node1</title>
<path fill="none" stroke="midnightblue" d="M401,-107.05C401,-97.66 401,-88.38 401,-79.89"/>
<polygon fill="none" stroke="midnightblue" points="397.5,-107.26 401,-117.26 404.5,-107.26 397.5,-107.26"/>
</g>
<!-- Node3 -->
<g id="node3" class="node">
<title>Node3</title>
<g id="a_node3"><a xlink:title=" ">
<polygon fill="white" stroke="#bfbfbf" points="0,-310.5 0,-367.5 168,-367.5 168,-310.5 0,-310.5"/>
<text text-anchor="middle" x="84" y="-355.5" font-family="Helvetica,sans-Serif" font-size="10.00">std::shared_ptr&lt; DataLoader &gt;</text>
<polyline fill="none" stroke="#bfbfbf" points="0,-348.5 168,-348.5 "/>
<text text-anchor="start" x="8" y="-336.5" font-family="Helvetica,sans-Serif" font-size="10.00">+ DataLoader ptr</text>
<polyline fill="none" stroke="#bfbfbf" points="0,-329.5 168,-329.5 "/>
<text text-anchor="start" x="8" y="-317.5" font-family="Helvetica,sans-Serif" font-size="10.00">+ DataLoader * operator&#45;&gt;()</text>
</a>
</g>
</g>
<!-- Node3&#45;&gt;Node2 -->
<g id="edge2" class="edge">
<title>Node3&#45;&gt;Node2</title>
<path fill="none" stroke="#404040" d="M128.97,-310.37C150.69,-297.47 177.34,-282.28 202,-270 210.93,-265.55 220.16,-261.11 229.52,-256.73"/>
<polygon fill="none" stroke="#404040" points="229.67,-256.66 233.44,-250.51 240.56,-251.62 236.8,-257.77 229.67,-256.66"/>
<text text-anchor="middle" x="246" y="-278.5" font-family="Helvetica,sans-Serif" font-size="10.00"> #dataloader_ptr_</text>
</g>
<!-- Node4 -->
<g id="node4" class="node">
<title>Node4</title>
<g id="a_node4"><a xlink:title=" ">
<polygon fill="white" stroke="#bfbfbf" points="109,-415.5 109,-472.5 227,-472.5 227,-415.5 109,-415.5"/>
<text text-anchor="middle" x="168" y="-460.5" font-family="Helvetica,sans-Serif" font-size="10.00">std::shared_ptr&lt; T &gt;</text>
<polyline fill="none" stroke="#bfbfbf" points="109,-453.5 227,-453.5 "/>
<text text-anchor="middle" x="168" y="-441.5" font-family="Helvetica,sans-Serif" font-size="10.00"> </text>
<polyline fill="none" stroke="#bfbfbf" points="109,-434.5 227,-434.5 "/>
<text text-anchor="start" x="117" y="-422.5" font-family="Helvetica,sans-Serif" font-size="10.00">+ T * operator&#45;&gt;()</text>
</a>
</g>
</g>
<!-- Node4&#45;&gt;Node3 -->
<g id="edge3" class="edge">
<title>Node4&#45;&gt;Node3</title>
<path fill="none" stroke="orange" d="M134.98,-407.57C131.89,-404.04 128.86,-400.48 126,-397 118.36,-387.69 110.41,-377.16 103.51,-367.7"/>
<polygon fill="orange" stroke="orange" points="132.5,-410.05 141.76,-415.2 137.73,-405.4 132.5,-410.05"/>
<text text-anchor="middle" x="167" y="-389" font-family="Helvetica,sans-Serif" font-size="10.00"> &lt; DataLoader &gt;</text>
</g>
<!-- Node7 -->
<g id="node7" class="node">
<title>Node7</title>
<g id="a_node7"><a xlink:title=" ">
<polygon fill="white" stroke="#bfbfbf" points="186,-310.5 186,-367.5 356,-367.5 356,-310.5 186,-310.5"/>
<text text-anchor="middle" x="271" y="-355.5" font-family="Helvetica,sans-Serif" font-size="10.00">std::shared_ptr&lt; DataReader &gt;</text>
<polyline fill="none" stroke="#bfbfbf" points="186,-348.5 356,-348.5 "/>
<text text-anchor="start" x="194" y="-336.5" font-family="Helvetica,sans-Serif" font-size="10.00">+ DataReader ptr</text>
<polyline fill="none" stroke="#bfbfbf" points="186,-329.5 356,-329.5 "/>
<text text-anchor="start" x="194" y="-317.5" font-family="Helvetica,sans-Serif" font-size="10.00">+ DataReader * operator&#45;&gt;()</text>
</a>
</g>
</g>
<!-- Node4&#45;&gt;Node7 -->
<g id="edge7" class="edge">
<title>Node4&#45;&gt;Node7</title>
<path fill="none" stroke="orange" d="M202.75,-408.25C215.97,-395.03 230.84,-380.16 243.32,-367.68"/>
<polygon fill="orange" stroke="orange" points="200.2,-405.85 195.6,-415.4 205.15,-410.8 200.2,-405.85"/>
<text text-anchor="middle" x="265" y="-389" font-family="Helvetica,sans-Serif" font-size="10.00"> &lt; DataReader &gt;</text>
</g>
<!-- Node5 -->
<g id="node5" class="node">
<title>Node5</title>
<g id="a_node5"><a xlink:title=" ">
<polygon fill="white" stroke="#bfbfbf" points="153.5,-520.5 153.5,-577.5 182.5,-577.5 182.5,-520.5 153.5,-520.5"/>
<text text-anchor="middle" x="168" y="-565.5" font-family="Helvetica,sans-Serif" font-size="10.00">T</text>
<polyline fill="none" stroke="#bfbfbf" points="153.5,-558.5 182.5,-558.5 "/>
<text text-anchor="middle" x="168" y="-546.5" font-family="Helvetica,sans-Serif" font-size="10.00"> </text>
<polyline fill="none" stroke="#bfbfbf" points="153.5,-539.5 182.5,-539.5 "/>
<text text-anchor="middle" x="168" y="-527.5" font-family="Helvetica,sans-Serif" font-size="10.00"> </text>
</a>
</g>
</g>
<!-- Node5&#45;&gt;Node4 -->
<g id="edge4" class="edge">
<title>Node5&#45;&gt;Node4</title>
<path fill="none" stroke="#404040" d="M168,-520.4C168,-509.55 168,-496.87 168,-485.05"/>
<polygon fill="none" stroke="#404040" points="168,-484.68 164,-478.68 168,-472.68 172,-478.68 168,-484.68"/>
<text text-anchor="middle" x="180.5" y="-494" font-family="Helvetica,sans-Serif" font-size="10.00"> +ptr</text>
</g>
<!-- Node6 -->
<g id="node6" class="node">
<title>Node6</title>
<g id="a_node6"><a xlink:title=" ">
<polygon fill="white" stroke="#bfbfbf" points="374.5,-310.5 374.5,-367.5 427.5,-367.5 427.5,-310.5 374.5,-310.5"/>
<text text-anchor="middle" x="401" y="-355.5" font-family="Helvetica,sans-Serif" font-size="10.00">ImVec2</text>
<polyline fill="none" stroke="#bfbfbf" points="374.5,-348.5 427.5,-348.5 "/>
<text text-anchor="middle" x="401" y="-336.5" font-family="Helvetica,sans-Serif" font-size="10.00"> </text>
<polyline fill="none" stroke="#bfbfbf" points="374.5,-329.5 427.5,-329.5 "/>
<text text-anchor="middle" x="401" y="-317.5" font-family="Helvetica,sans-Serif" font-size="10.00"> </text>
</a>
</g>
</g>
<!-- Node6&#45;&gt;Node2 -->
<g id="edge5" class="edge">
<title>Node6&#45;&gt;Node2</title>
<path fill="none" stroke="#404040" d="M401,-310.38C401,-297.12 401,-280.49 401,-263.74"/>
<polygon fill="none" stroke="#404040" points="401,-263.56 397,-257.56 401,-251.56 405,-257.56 401,-263.56"/>
<text text-anchor="middle" x="427" y="-284" font-family="Helvetica,sans-Serif" font-size="10.00"> &#45;position_</text>
<text text-anchor="middle" x="427" y="-273" font-family="Helvetica,sans-Serif" font-size="10.00">&#45;size_</text>
</g>
<!-- Node7&#45;&gt;Node2 -->
<g id="edge6" class="edge">
<title>Node7&#45;&gt;Node2</title>
<path fill="none" stroke="#404040" d="M283.45,-310.23C289.87,-297.37 298.37,-282.26 308,-270 310.43,-266.91 312.97,-263.84 315.6,-260.8"/>
<polygon fill="none" stroke="#404040" points="315.71,-260.68 316.76,-253.55 323.75,-251.77 322.7,-258.91 315.71,-260.68"/>
<text text-anchor="middle" x="352.5" y="-278.5" font-family="Helvetica,sans-Serif" font-size="10.00"> #datareader_ptr_</text>
</g>
<!-- Node8 -->
<g id="node8" class="node">
<title>Node8</title>
<g id="a_node8"><a xlink:title=" ">
<polygon fill="white" stroke="#bfbfbf" points="445.5,-310.5 445.5,-367.5 556.5,-367.5 556.5,-310.5 445.5,-310.5"/>
<text text-anchor="middle" x="501" y="-355.5" font-family="Helvetica,sans-Serif" font-size="10.00">ImGuiWindowFlags</text>
<polyline fill="none" stroke="#bfbfbf" points="445.5,-348.5 556.5,-348.5 "/>
<text text-anchor="middle" x="501" y="-336.5" font-family="Helvetica,sans-Serif" font-size="10.00"> </text>
<polyline fill="none" stroke="#bfbfbf" points="445.5,-329.5 556.5,-329.5 "/>
<text text-anchor="middle" x="501" y="-317.5" font-family="Helvetica,sans-Serif" font-size="10.00"> </text>
</a>
</g>
</g>
<!-- Node8&#45;&gt;Node2 -->
<g id="edge8" class="edge">
<title>Node8&#45;&gt;Node2</title>
<path fill="none" stroke="#404040" d="M483.3,-310.49C475.3,-298.1 465.7,-283.29 457,-270 455.31,-267.42 453.59,-264.8 451.86,-262.16"/>
<polygon fill="none" stroke="#404040" points="451.69,-261.9 445.05,-259.09 445.09,-251.88 451.73,-254.69 451.69,-261.9"/>
<text text-anchor="middle" x="510.5" y="-278.5" font-family="Helvetica,sans-Serif" font-size="10.00"> &#45;window_flags_</text>
</g>
<!-- Node9 -->
<g id="node9" class="node">
<title>Node9</title>
<g id="a_node9"><a xlink:title=" ">
<polygon fill="white" stroke="#bfbfbf" points="574.5,-310.5 574.5,-367.5 639.5,-367.5 639.5,-310.5 574.5,-310.5"/>
<text text-anchor="middle" x="607" y="-355.5" font-family="Helvetica,sans-Serif" font-size="10.00">std::string</text>
<polyline fill="none" stroke="#bfbfbf" points="574.5,-348.5 639.5,-348.5 "/>
<text text-anchor="middle" x="607" y="-336.5" font-family="Helvetica,sans-Serif" font-size="10.00"> </text>
<polyline fill="none" stroke="#bfbfbf" points="574.5,-329.5 639.5,-329.5 "/>
<text text-anchor="middle" x="607" y="-317.5" font-family="Helvetica,sans-Serif" font-size="10.00"> </text>
</a>
</g>
</g>
<!-- Node9&#45;&gt;Node2 -->
<g id="edge9" class="edge">
<title>Node9&#45;&gt;Node2</title>
<path fill="none" stroke="#404040" d="M589.35,-310.36C579.95,-297.07 567.55,-281.57 554,-270 549.55,-266.2 544.9,-262.49 540.1,-258.88"/>
<polygon fill="none" stroke="#404040" points="539.8,-258.66 532.59,-258.38 530.08,-251.62 537.28,-251.9 539.8,-258.66"/>
<text text-anchor="middle" x="594" y="-278.5" font-family="Helvetica,sans-Serif" font-size="10.00"> &#45;name_</text>
</g>
<!-- Node10 -->
<g id="node10" class="node">
<title>Node10</title>
<g id="a_node10"><a xlink:title=" ">
<polygon fill="white" stroke="#bfbfbf" points="536.5,-415.5 536.5,-472.5 677.5,-472.5 677.5,-415.5 536.5,-415.5"/>
<text text-anchor="middle" x="607" y="-460.5" font-family="Helvetica,sans-Serif" font-size="10.00">std::basic_string&lt; Char &gt;</text>
<polyline fill="none" stroke="#bfbfbf" points="536.5,-453.5 677.5,-453.5 "/>
<text text-anchor="middle" x="607" y="-441.5" font-family="Helvetica,sans-Serif" font-size="10.00"> </text>
<polyline fill="none" stroke="#bfbfbf" points="536.5,-434.5 677.5,-434.5 "/>
<text text-anchor="middle" x="607" y="-422.5" font-family="Helvetica,sans-Serif" font-size="10.00"> </text>
</a>
</g>
</g>
<!-- Node10&#45;&gt;Node9 -->
<g id="edge10" class="edge">
<title>Node10&#45;&gt;Node9</title>
<path fill="none" stroke="midnightblue" d="M607,-405.29C607,-392.84 607,-379.23 607,-367.68"/>
<polygon fill="none" stroke="midnightblue" points="603.5,-405.4 607,-415.4 610.5,-405.4 603.5,-405.4"/>
</g>
</g>
</svg>
