<?xml version="1.0" encoding="UTF-8" standalone="no"?>
<!DOCTYPE svg PUBLIC "-//W3C//DTD SVG 1.1//EN"
 "http://www.w3.org/Graphics/SVG/1.1/DTD/svg11.dtd">
<!-- Generated by graphviz version 2.43.0 (0)
 -->
<!-- Title: ad_framwork::data_structure::Circle Pages: 1 -->
<svg width="306pt" height="193pt"
 viewBox="0.00 0.00 306.00 193.00" xmlns="http://www.w3.org/2000/svg" xmlns:xlink="http://www.w3.org/1999/xlink">
<g id="graph0" class="graph" transform="scale(1 1) rotate(0) translate(4 189)">
<title>ad_framwork::data_structure::Circle</title>
<polygon fill="white" stroke="transparent" points="-4,4 -4,-189 302,-189 302,4 -4,4"/>
<!-- Node1 -->
<g id="node1" class="node">
<title>Node1</title>
<g id="a_node1"><a xlink:title=" ">
<polygon fill="#bfbfbf" stroke="black" points="4,-0.5 4,-79.5 294,-79.5 294,-0.5 4,-0.5"/>
<text text-anchor="middle" x="149" y="-67.5" font-family="Helvetica,sans-Serif" font-size="10.00">ad_framwork::data_structure::Circle</text>
<polyline fill="none" stroke="black" points="4,-60.5 294,-60.5 "/>
<text text-anchor="start" x="12" y="-48.5" font-family="Helvetica,sans-Serif" font-size="10.00">&#45; Eigen::Vector3d center_</text>
<text text-anchor="start" x="12" y="-37.5" font-family="Helvetica,sans-Serif" font-size="10.00">&#45; double radius_</text>
<polyline fill="none" stroke="black" points="4,-30.5 294,-30.5 "/>
<text text-anchor="start" x="12" y="-18.5" font-family="Helvetica,sans-Serif" font-size="10.00">+ Circle(const Eigen::Vector3d &amp;center, double radius)</text>
<text text-anchor="start" x="12" y="-7.5" font-family="Helvetica,sans-Serif" font-size="10.00">+ bool IsIn(const Eigen::Vector3d &amp;point) const override</text>
</a>
</g>
</g>
<!-- Node2 -->
<g id="node2" class="node">
<title>Node2</title>
<g id="a_node2"><a xlink:href="classad__framwork_1_1data__structure_1_1Shape.html" target="_top" xlink:title=" ">
<polygon fill="white" stroke="black" points="0,-116.5 0,-184.5 298,-184.5 298,-116.5 0,-116.5"/>
<text text-anchor="middle" x="149" y="-172.5" font-family="Helvetica,sans-Serif" font-size="10.00">ad_framwork::data_structure::Shape</text>
<polyline fill="none" stroke="black" points="0,-165.5 298,-165.5 "/>
<text text-anchor="middle" x="149" y="-153.5" font-family="Helvetica,sans-Serif" font-size="10.00"> </text>
<polyline fill="none" stroke="black" points="0,-146.5 298,-146.5 "/>
<text text-anchor="start" x="8" y="-134.5" font-family="Helvetica,sans-Serif" font-size="10.00">+ virtual ~Shape()=default</text>
<text text-anchor="start" x="8" y="-123.5" font-family="Helvetica,sans-Serif" font-size="10.00">+ virtual bool IsIn(const Eigen::Vector3d &amp;point) const =0</text>
</a>
</g>
</g>
<!-- Node2&#45;&gt;Node1 -->
<g id="edge1" class="edge">
<title>Node2&#45;&gt;Node1</title>
<path fill="none" stroke="midnightblue" d="M149,-106.27C149,-97.48 149,-88.28 149,-79.65"/>
<polygon fill="none" stroke="midnightblue" points="145.5,-106.36 149,-116.36 152.5,-106.36 145.5,-106.36"/>
</g>
</g>
</svg>
