<?xml version="1.0" encoding="UTF-8" standalone="no"?>
<!DOCTYPE svg PUBLIC "-//W3C//DTD SVG 1.1//EN"
 "http://www.w3.org/Graphics/SVG/1.1/DTD/svg11.dtd">
<!-- Generated by graphviz version 2.43.0 (0)
 -->
<!-- Title: ad_framwork::data_structure::Rectangle Pages: 1 -->
<svg width="441pt" height="204pt"
 viewBox="0.00 0.00 440.50 204.00" xmlns="http://www.w3.org/2000/svg" xmlns:xlink="http://www.w3.org/1999/xlink">
<g id="graph0" class="graph" transform="scale(1 1) rotate(0) translate(4 200)">
<title>ad_framwork::data_structure::Rectangle</title>
<polygon fill="white" stroke="transparent" points="-4,4 -4,-200 436.5,-200 436.5,4 -4,4"/>
<!-- Node1 -->
<g id="node1" class="node">
<title>Node1</title>
<g id="a_node1"><a xlink:title=" ">
<polygon fill="#bfbfbf" stroke="black" points="61.5,-0.5 61.5,-68.5 432.5,-68.5 432.5,-0.5 61.5,-0.5"/>
<text text-anchor="middle" x="247" y="-56.5" font-family="Helvetica,sans-Serif" font-size="10.00">ad_framwork::data_structure::Rectangle</text>
<polyline fill="none" stroke="black" points="61.5,-49.5 432.5,-49.5 "/>
<text text-anchor="middle" x="247" y="-37.5" font-family="Helvetica,sans-Serif" font-size="10.00"> </text>
<polyline fill="none" stroke="black" points="61.5,-30.5 432.5,-30.5 "/>
<text text-anchor="start" x="69.5" y="-18.5" font-family="Helvetica,sans-Serif" font-size="10.00">+ Rectangle(const Eigen::Vector3d &amp;center, const Eigen::Vector3d &amp;size)</text>
<text text-anchor="start" x="69.5" y="-7.5" font-family="Helvetica,sans-Serif" font-size="10.00">+ bool IsIn(const Eigen::Vector3d &amp;point) const override</text>
</a>
</g>
</g>
<!-- Node2 -->
<g id="node2" class="node">
<title>Node2</title>
<g id="a_node2"><a xlink:href="classad__framwork_1_1data__structure_1_1Shape.html" target="_top" xlink:title=" ">
<polygon fill="white" stroke="black" points="0,-127.5 0,-195.5 298,-195.5 298,-127.5 0,-127.5"/>
<text text-anchor="middle" x="149" y="-183.5" font-family="Helvetica,sans-Serif" font-size="10.00">ad_framwork::data_structure::Shape</text>
<polyline fill="none" stroke="black" points="0,-176.5 298,-176.5 "/>
<text text-anchor="middle" x="149" y="-164.5" font-family="Helvetica,sans-Serif" font-size="10.00"> </text>
<polyline fill="none" stroke="black" points="0,-157.5 298,-157.5 "/>
<text text-anchor="start" x="8" y="-145.5" font-family="Helvetica,sans-Serif" font-size="10.00">+ virtual ~Shape()=default</text>
<text text-anchor="start" x="8" y="-134.5" font-family="Helvetica,sans-Serif" font-size="10.00">+ virtual bool IsIn(const Eigen::Vector3d &amp;point) const =0</text>
</a>
</g>
</g>
<!-- Node2&#45;&gt;Node1 -->
<g id="edge1" class="edge">
<title>Node2&#45;&gt;Node1</title>
<path fill="none" stroke="midnightblue" d="M181.52,-119.03C194.3,-102.72 208.79,-84.24 220.87,-68.82"/>
<polygon fill="none" stroke="midnightblue" points="178.42,-117.3 175,-127.33 183.93,-121.62 178.42,-117.3"/>
</g>
<!-- Node3 -->
<g id="node3" class="node">
<title>Node3</title>
<g id="a_node3"><a xlink:title=" ">
<polygon fill="white" stroke="#bfbfbf" points="315.5,-133 315.5,-190 374.5,-190 374.5,-133 315.5,-133"/>
<text text-anchor="middle" x="345" y="-178" font-family="Helvetica,sans-Serif" font-size="10.00">Vector3d</text>
<polyline fill="none" stroke="#bfbfbf" points="315.5,-171 374.5,-171 "/>
<text text-anchor="middle" x="345" y="-159" font-family="Helvetica,sans-Serif" font-size="10.00"> </text>
<polyline fill="none" stroke="#bfbfbf" points="315.5,-152 374.5,-152 "/>
<text text-anchor="middle" x="345" y="-140" font-family="Helvetica,sans-Serif" font-size="10.00"> </text>
</a>
</g>
</g>
<!-- Node3&#45;&gt;Node1 -->
<g id="edge2" class="edge">
<title>Node3&#45;&gt;Node1</title>
<path fill="none" stroke="#404040" d="M323.25,-132.76C310.78,-116.86 294.87,-96.56 280.81,-78.62"/>
<polygon fill="none" stroke="#404040" points="280.62,-78.38 273.77,-76.13 273.22,-68.94 280.07,-71.2 280.62,-78.38"/>
<text text-anchor="middle" x="323.5" y="-101" font-family="Helvetica,sans-Serif" font-size="10.00"> &#45;center_</text>
<text text-anchor="middle" x="323.5" y="-90" font-family="Helvetica,sans-Serif" font-size="10.00">&#45;size_</text>
</g>
</g>
</svg>
