<?xml version="1.0" encoding="UTF-8" standalone="no"?>
<!DOCTYPE svg PUBLIC "-//W3C//DTD SVG 1.1//EN"
 "http://www.w3.org/Graphics/SVG/1.1/DTD/svg11.dtd">
<!-- Generated by graphviz version 2.43.0 (0)
 -->
<!-- Title: ad_framework::application::TopViewPannel Pages: 1 -->
<!--zoomable 622 -->
<svg id="main" version="1.1" xmlns="http://www.w3.org/2000/svg" xmlns:xlink="http://www.w3.org/1999/xlink" xml:space="preserve" onload="init(evt)">
<style type="text/css"><![CDATA[
.edge:hover path { stroke: red; }
.edge:hover polygon { stroke: red; fill: red; }
]]></style>
<script type="text/javascript"><![CDATA[
var edges = document.getElementsByTagName('g');
if (edges && edges.length) {
  for (var i=0;i<edges.length;i++) {
    if (edges[i].id.substr(0,4)=='edge') {
      edges[i].setAttribute('class','edge');
    }
  }
}
]]></script>
        <defs>
                <circle id="rim" cx="0" cy="0" r="7"/>
                <circle id="rim2" cx="0" cy="0" r="3.5"/>
                <g id="zoomPlus">
                        <use xlink:href="#rim" fill="#404040">
                                <set attributeName="fill" to="#808080" begin="zoomplus.mouseover" end="zoomplus.mouseout"/>
                        </use>
                        <path d="M-4,0h8M0,-4v8" fill="none" stroke="white" stroke-width="1.5" pointer-events="none"/>
                </g>
                <g id="zoomMin">
                        <use xlink:href="#rim" fill="#404040">
                                <set attributeName="fill" to="#808080" begin="zoomminus.mouseover" end="zoomminus.mouseout"/>
                        </use>
                        <path d="M-4,0h8" fill="none" stroke="white" stroke-width="1.5" pointer-events="none"/>
                </g>
                <g id="dirArrow">
                        <path fill="none" stroke="white" stroke-width="1.5" d="M0,-3.0v7 M-2.5,-0.5L0,-3.0L2.5,-0.5"/>
                </g>
               <g id="resetDef">
                       <use xlink:href="#rim2" fill="#404040">
                               <set attributeName="fill" to="#808080" begin="reset.mouseover" end="reset.mouseout"/>
                       </use>
               </g>
        </defs>

<script type="text/javascript">
var viewWidth = 935;
var viewHeight = 622;
var sectionId = 'dynsection-1';
</script>
<script xlink:href="svgpan.js"/>
<svg id="graph" class="graph">
<g id="viewport">
<title>ad_framework::application::TopViewPannel</title>
<polygon fill="white" stroke="transparent" points="-4,4 -4,-618 931,-618 931,4 -4,4"/>
<!-- Node1 -->
<g id="node1" class="node">
<title>Node1</title>
<g id="a_node1"><a xlink:title="This class is for rendering the top view of measurements (from lidar, camera, radar,...">
<polygon fill="#bfbfbf" stroke="black" points="107,-0.5 107,-79.5 431,-79.5 431,-0.5 107,-0.5"/>
<text text-anchor="middle" x="269" y="-67.5" font-family="Helvetica,sans-Serif" font-size="10.00">ad_framework::application::TopViewPannel</text>
<polyline fill="none" stroke="black" points="107,-60.5 431,-60.5 "/>
<text text-anchor="middle" x="269" y="-48.5" font-family="Helvetica,sans-Serif" font-size="10.00"> </text>
<polyline fill="none" stroke="black" points="107,-41.5 431,-41.5 "/>
<text text-anchor="start" x="115" y="-29.5" font-family="Helvetica,sans-Serif" font-size="10.00">+ TopViewPannel(const ImVec2 &amp;position, const ImVec2 &amp;size)</text>
<text text-anchor="start" x="115" y="-18.5" font-family="Helvetica,sans-Serif" font-size="10.00">+ ~TopViewPannel()=default</text>
<text text-anchor="start" x="115" y="-7.5" font-family="Helvetica,sans-Serif" font-size="10.00">&#45; void RenderInterface(bool &amp;open) override</text>
</a>
</g>
</g>
<!-- Node2 -->
<g id="node2" class="node">
<title>Node2</title>
<g id="a_node2"><a xlink:href="classad__framework_1_1application_1_1Pannel.html" target="_top" xlink:title=" ">
<polygon fill="white" stroke="black" points="279.5,-117.5 279.5,-251.5 670.5,-251.5 670.5,-117.5 279.5,-117.5"/>
<text text-anchor="middle" x="475" y="-239.5" font-family="Helvetica,sans-Serif" font-size="10.00">ad_framework::application::Pannel</text>
<polyline fill="none" stroke="black" points="279.5,-232.5 670.5,-232.5 "/>
<text text-anchor="middle" x="475" y="-220.5" font-family="Helvetica,sans-Serif" font-size="10.00"> </text>
<polyline fill="none" stroke="black" points="279.5,-213.5 670.5,-213.5 "/>
<text text-anchor="start" x="287.5" y="-201.5" font-family="Helvetica,sans-Serif" font-size="10.00">+ Pannel(std::string name, const ImVec2 &amp;position_, const ImVec2 &amp;size_)</text>
<text text-anchor="start" x="287.5" y="-190.5" font-family="Helvetica,sans-Serif" font-size="10.00">+ virtual ~Pannel()=default</text>
<text text-anchor="start" x="287.5" y="-179.5" font-family="Helvetica,sans-Serif" font-size="10.00">+ void Update(DataLoaderPtr dataloader_ptr, DataReaderPtr datareader_ptr)</text>
<text text-anchor="start" x="287.5" y="-168.5" font-family="Helvetica,sans-Serif" font-size="10.00">+ void Render(bool &amp;open, const ImVec2 &amp;window_size)</text>
<text text-anchor="start" x="287.5" y="-157.5" font-family="Helvetica,sans-Serif" font-size="10.00">+ std::string GetName() const</text>
<text text-anchor="start" x="287.5" y="-146.5" font-family="Helvetica,sans-Serif" font-size="10.00"># virtual void RenderInterface(bool &amp;open)=0</text>
<text text-anchor="start" x="287.5" y="-135.5" font-family="Helvetica,sans-Serif" font-size="10.00">&#45; void SetSize(const ImVec2 &amp;window_size) const</text>
<text text-anchor="start" x="287.5" y="-124.5" font-family="Helvetica,sans-Serif" font-size="10.00">&#45; void SetPosition(const ImVec2 &amp;window_size) const</text>
</a>
</g>
</g>
<!-- Node2&#45;&gt;Node1 -->
<g id="edge1" class="edge">
<title>Node2&#45;&gt;Node1</title>
<path fill="none" stroke="midnightblue" d="M371.18,-111.68C355.19,-100.62 339.23,-89.58 324.83,-79.62"/>
<polygon fill="none" stroke="midnightblue" points="369.32,-114.65 379.54,-117.46 373.31,-108.9 369.32,-114.65"/>
</g>
<!-- Node3 -->
<g id="node3" class="node">
<title>Node3</title>
<g id="a_node3"><a xlink:title=" ">
<polygon fill="white" stroke="#bfbfbf" points="759,-346.5 759,-403.5 927,-403.5 927,-346.5 759,-346.5"/>
<text text-anchor="middle" x="843" y="-391.5" font-family="Helvetica,sans-Serif" font-size="10.00">std::shared_ptr&lt; DataLoader &gt;</text>
<polyline fill="none" stroke="#bfbfbf" points="759,-384.5 927,-384.5 "/>
<text text-anchor="start" x="767" y="-372.5" font-family="Helvetica,sans-Serif" font-size="10.00">+ DataLoader ptr</text>
<polyline fill="none" stroke="#bfbfbf" points="759,-365.5 927,-365.5 "/>
<text text-anchor="start" x="767" y="-353.5" font-family="Helvetica,sans-Serif" font-size="10.00">+ DataLoader * operator&#45;&gt;()</text>
</a>
</g>
</g>
<!-- Node3&#45;&gt;Node2 -->
<g id="edge2" class="edge">
<title>Node3&#45;&gt;Node2</title>
<path fill="none" stroke="#404040" d="M814.61,-346.07C789.98,-323.08 752.47,-290.98 715,-270 704.34,-264.03 693.18,-258.36 681.75,-253.01"/>
<polygon fill="none" stroke="#404040" points="681.64,-252.95 674.52,-254.1 670.73,-247.96 677.85,-246.82 681.64,-252.95"/>
<text text-anchor="middle" x="838" y="-296.5" font-family="Helvetica,sans-Serif" font-size="10.00"> #dataloader_ptr_</text>
</g>
<!-- Node4 -->
<g id="node4" class="node">
<title>Node4</title>
<g id="a_node4"><a xlink:title=" ">
<polygon fill="white" stroke="#bfbfbf" points="597,-451.5 597,-508.5 715,-508.5 715,-451.5 597,-451.5"/>
<text text-anchor="middle" x="656" y="-496.5" font-family="Helvetica,sans-Serif" font-size="10.00">std::shared_ptr&lt; T &gt;</text>
<polyline fill="none" stroke="#bfbfbf" points="597,-489.5 715,-489.5 "/>
<text text-anchor="middle" x="656" y="-477.5" font-family="Helvetica,sans-Serif" font-size="10.00"> </text>
<polyline fill="none" stroke="#bfbfbf" points="597,-470.5 715,-470.5 "/>
<text text-anchor="start" x="605" y="-458.5" font-family="Helvetica,sans-Serif" font-size="10.00">+ T * operator&#45;&gt;()</text>
</a>
</g>
</g>
<!-- Node4&#45;&gt;Node3 -->
<g id="edge3" class="edge">
<title>Node4&#45;&gt;Node3</title>
<path fill="none" stroke="orange" d="M718.58,-446.69C727.15,-442.15 735.81,-437.49 744,-433 761.04,-423.65 779.54,-413.1 795.89,-403.65"/>
<polygon fill="orange" stroke="orange" points="716.91,-443.61 709.7,-451.37 720.18,-449.8 716.91,-443.61"/>
<text text-anchor="middle" x="804" y="-425" font-family="Helvetica,sans-Serif" font-size="10.00"> &lt; DataLoader &gt;</text>
</g>
<!-- Node7 -->
<g id="node7" class="node">
<title>Node7</title>
<g id="a_node7"><a xlink:title=" ">
<polygon fill="white" stroke="#bfbfbf" points="571,-346.5 571,-403.5 741,-403.5 741,-346.5 571,-346.5"/>
<text text-anchor="middle" x="656" y="-391.5" font-family="Helvetica,sans-Serif" font-size="10.00">std::shared_ptr&lt; DataReader &gt;</text>
<polyline fill="none" stroke="#bfbfbf" points="571,-384.5 741,-384.5 "/>
<text text-anchor="start" x="579" y="-372.5" font-family="Helvetica,sans-Serif" font-size="10.00">+ DataReader ptr</text>
<polyline fill="none" stroke="#bfbfbf" points="571,-365.5 741,-365.5 "/>
<text text-anchor="start" x="579" y="-353.5" font-family="Helvetica,sans-Serif" font-size="10.00">+ DataReader * operator&#45;&gt;()</text>
</a>
</g>
</g>
<!-- Node4&#45;&gt;Node7 -->
<g id="edge7" class="edge">
<title>Node4&#45;&gt;Node7</title>
<path fill="none" stroke="orange" d="M656,-441.29C656,-428.84 656,-415.23 656,-403.68"/>
<polygon fill="orange" stroke="orange" points="652.5,-441.4 656,-451.4 659.5,-441.4 652.5,-441.4"/>
<text text-anchor="middle" x="698" y="-425" font-family="Helvetica,sans-Serif" font-size="10.00"> &lt; DataReader &gt;</text>
</g>
<!-- Node5 -->
<g id="node5" class="node">
<title>Node5</title>
<g id="a_node5"><a xlink:title=" ">
<polygon fill="white" stroke="#bfbfbf" points="388.5,-556.5 388.5,-613.5 417.5,-613.5 417.5,-556.5 388.5,-556.5"/>
<text text-anchor="middle" x="403" y="-601.5" font-family="Helvetica,sans-Serif" font-size="10.00">T</text>
<polyline fill="none" stroke="#bfbfbf" points="388.5,-594.5 417.5,-594.5 "/>
<text text-anchor="middle" x="403" y="-582.5" font-family="Helvetica,sans-Serif" font-size="10.00"> </text>
<polyline fill="none" stroke="#bfbfbf" points="388.5,-575.5 417.5,-575.5 "/>
<text text-anchor="middle" x="403" y="-563.5" font-family="Helvetica,sans-Serif" font-size="10.00"> </text>
</a>
</g>
</g>
<!-- Node5&#45;&gt;Node4 -->
<g id="edge4" class="edge">
<title>Node5&#45;&gt;Node4</title>
<path fill="none" stroke="#404040" d="M417.7,-578.02C449.68,-565 527.39,-533.36 585.43,-509.73"/>
<polygon fill="none" stroke="#404040" points="585.64,-509.64 589.69,-503.68 596.75,-505.12 592.71,-511.09 585.64,-509.64"/>
<text text-anchor="middle" x="549.5" y="-530" font-family="Helvetica,sans-Serif" font-size="10.00"> +ptr</text>
</g>
<!-- Node12 -->
<g id="node12" class="node">
<title>Node12</title>
<g id="a_node12"><a xlink:title=" ">
<polygon fill="white" stroke="#bfbfbf" points="156,-451.5 156,-508.5 274,-508.5 274,-451.5 156,-451.5"/>
<text text-anchor="middle" x="215" y="-496.5" font-family="Helvetica,sans-Serif" font-size="10.00">std::unique_ptr&lt; T &gt;</text>
<polyline fill="none" stroke="#bfbfbf" points="156,-489.5 274,-489.5 "/>
<text text-anchor="middle" x="215" y="-477.5" font-family="Helvetica,sans-Serif" font-size="10.00"> </text>
<polyline fill="none" stroke="#bfbfbf" points="156,-470.5 274,-470.5 "/>
<text text-anchor="start" x="164" y="-458.5" font-family="Helvetica,sans-Serif" font-size="10.00">+ T * operator&#45;&gt;()</text>
</a>
</g>
</g>
<!-- Node5&#45;&gt;Node12 -->
<g id="edge13" class="edge">
<title>Node5&#45;&gt;Node12</title>
<path fill="none" stroke="#404040" d="M388.25,-575.92C364.3,-562.8 315.66,-536.15 275.99,-514.42"/>
<polygon fill="none" stroke="#404040" points="275.86,-514.34 268.67,-514.97 265.33,-508.58 272.52,-507.95 275.86,-514.34"/>
<text text-anchor="middle" x="327.5" y="-530" font-family="Helvetica,sans-Serif" font-size="10.00"> +ptr</text>
</g>
<!-- Node6 -->
<g id="node6" class="node">
<title>Node6</title>
<g id="a_node6"><a xlink:title=" ">
<polygon fill="white" stroke="#bfbfbf" points="370.5,-346.5 370.5,-403.5 423.5,-403.5 423.5,-346.5 370.5,-346.5"/>
<text text-anchor="middle" x="397" y="-391.5" font-family="Helvetica,sans-Serif" font-size="10.00">ImVec2</text>
<polyline fill="none" stroke="#bfbfbf" points="370.5,-384.5 423.5,-384.5 "/>
<text text-anchor="middle" x="397" y="-372.5" font-family="Helvetica,sans-Serif" font-size="10.00"> </text>
<polyline fill="none" stroke="#bfbfbf" points="370.5,-365.5 423.5,-365.5 "/>
<text text-anchor="middle" x="397" y="-353.5" font-family="Helvetica,sans-Serif" font-size="10.00"> </text>
</a>
</g>
</g>
<!-- Node6&#45;&gt;Node2 -->
<g id="edge5" class="edge">
<title>Node6&#45;&gt;Node2</title>
<path fill="none" stroke="#404040" d="M403.95,-346.1C409.64,-324.84 418.44,-295.07 429,-270 429.99,-267.65 431.02,-265.29 432.09,-262.91"/>
<polygon fill="none" stroke="#404040" points="432.22,-262.63 431.15,-255.5 437.33,-251.77 438.39,-258.9 432.22,-262.63"/>
<text text-anchor="middle" x="455" y="-302" font-family="Helvetica,sans-Serif" font-size="10.00"> &#45;position_</text>
<text text-anchor="middle" x="455" y="-291" font-family="Helvetica,sans-Serif" font-size="10.00">&#45;size_</text>
</g>
<!-- Node7&#45;&gt;Node2 -->
<g id="edge6" class="edge">
<title>Node7&#45;&gt;Node2</title>
<path fill="none" stroke="#404040" d="M636.48,-346.3C620.67,-324.62 597.27,-294.19 574,-270 570.74,-266.62 567.37,-263.22 563.9,-259.85"/>
<polygon fill="none" stroke="#404040" points="563.84,-259.79 556.74,-258.54 555.15,-251.5 562.26,-252.75 563.84,-259.79"/>
<text text-anchor="middle" x="666.5" y="-296.5" font-family="Helvetica,sans-Serif" font-size="10.00"> #datareader_ptr_</text>
</g>
<!-- Node8 -->
<g id="node8" class="node">
<title>Node8</title>
<g id="a_node8"><a xlink:title=" ">
<polygon fill="white" stroke="#bfbfbf" points="441.5,-346.5 441.5,-403.5 552.5,-403.5 552.5,-346.5 441.5,-346.5"/>
<text text-anchor="middle" x="497" y="-391.5" font-family="Helvetica,sans-Serif" font-size="10.00">ImGuiWindowFlags</text>
<polyline fill="none" stroke="#bfbfbf" points="441.5,-384.5 552.5,-384.5 "/>
<text text-anchor="middle" x="497" y="-372.5" font-family="Helvetica,sans-Serif" font-size="10.00"> </text>
<polyline fill="none" stroke="#bfbfbf" points="441.5,-365.5 552.5,-365.5 "/>
<text text-anchor="middle" x="497" y="-353.5" font-family="Helvetica,sans-Serif" font-size="10.00"> </text>
</a>
</g>
</g>
<!-- Node8&#45;&gt;Node2 -->
<g id="edge8" class="edge">
<title>Node8&#45;&gt;Node2</title>
<path fill="none" stroke="#404040" d="M493.75,-346.19C491.21,-324.4 487.55,-292.99 484.13,-263.7"/>
<polygon fill="none" stroke="#404040" points="484.12,-263.67 479.45,-258.17 482.73,-251.75 487.4,-257.25 484.12,-263.67"/>
<text text-anchor="middle" x="530.5" y="-296.5" font-family="Helvetica,sans-Serif" font-size="10.00"> &#45;window_flags_</text>
</g>
<!-- Node9 -->
<g id="node9" class="node">
<title>Node9</title>
<g id="a_node9"><a xlink:title=" ">
<polygon fill="white" stroke="#bfbfbf" points="287.5,-346.5 287.5,-403.5 352.5,-403.5 352.5,-346.5 287.5,-346.5"/>
<text text-anchor="middle" x="320" y="-391.5" font-family="Helvetica,sans-Serif" font-size="10.00">std::string</text>
<polyline fill="none" stroke="#bfbfbf" points="287.5,-384.5 352.5,-384.5 "/>
<text text-anchor="middle" x="320" y="-372.5" font-family="Helvetica,sans-Serif" font-size="10.00"> </text>
<polyline fill="none" stroke="#bfbfbf" points="287.5,-365.5 352.5,-365.5 "/>
<text text-anchor="middle" x="320" y="-353.5" font-family="Helvetica,sans-Serif" font-size="10.00"> </text>
</a>
</g>
</g>
<!-- Node9&#45;&gt;Node2 -->
<g id="edge9" class="edge">
<title>Node9&#45;&gt;Node2</title>
<path fill="none" stroke="#404040" d="M327.71,-346.35C334.86,-324.14 347.1,-292.96 365,-270 367.56,-266.72 370.27,-263.5 373.11,-260.34"/>
<polygon fill="none" stroke="#404040" points="373.13,-260.31 374.36,-253.21 381.4,-251.62 380.16,-258.72 373.13,-260.31"/>
<text text-anchor="middle" x="385" y="-296.5" font-family="Helvetica,sans-Serif" font-size="10.00"> &#45;name_</text>
</g>
<!-- Node10 -->
<g id="node10" class="node">
<title>Node10</title>
<g id="a_node10"><a xlink:title=" ">
<polygon fill="white" stroke="#bfbfbf" points="344.5,-451.5 344.5,-508.5 485.5,-508.5 485.5,-451.5 344.5,-451.5"/>
<text text-anchor="middle" x="415" y="-496.5" font-family="Helvetica,sans-Serif" font-size="10.00">std::basic_string&lt; Char &gt;</text>
<polyline fill="none" stroke="#bfbfbf" points="344.5,-489.5 485.5,-489.5 "/>
<text text-anchor="middle" x="415" y="-477.5" font-family="Helvetica,sans-Serif" font-size="10.00"> </text>
<polyline fill="none" stroke="#bfbfbf" points="344.5,-470.5 485.5,-470.5 "/>
<text text-anchor="middle" x="415" y="-458.5" font-family="Helvetica,sans-Serif" font-size="10.00"> </text>
</a>
</g>
</g>
<!-- Node10&#45;&gt;Node9 -->
<g id="edge10" class="edge">
<title>Node10&#45;&gt;Node9</title>
<path fill="none" stroke="midnightblue" d="M410.74,-441.13C408.63,-434.23 405.53,-427.49 401,-422 388.85,-407.27 378.66,-413.32 362,-404 358.94,-402.29 355.81,-400.43 352.71,-398.51"/>
<polygon fill="none" stroke="midnightblue" points="407.43,-442.33 413.19,-451.23 414.24,-440.68 407.43,-442.33"/>
</g>
<!-- Node11 -->
<g id="node11" class="node">
<title>Node11</title>
<g id="a_node11"><a xlink:title=" ">
<polygon fill="white" stroke="#bfbfbf" points="0,-270.5 0,-327.5 324,-327.5 324,-270.5 0,-270.5"/>
<text text-anchor="middle" x="162" y="-315.5" font-family="Helvetica,sans-Serif" font-size="10.00">std::unique_ptr&lt; ad_framework::application::TopViewDrawer &gt;</text>
<polyline fill="none" stroke="#bfbfbf" points="0,-308.5 324,-308.5 "/>
<text text-anchor="start" x="8" y="-296.5" font-family="Helvetica,sans-Serif" font-size="10.00">+ ad_framework::application::TopViewDrawer ptr</text>
<polyline fill="none" stroke="#bfbfbf" points="0,-289.5 324,-289.5 "/>
<text text-anchor="start" x="8" y="-277.5" font-family="Helvetica,sans-Serif" font-size="10.00">+ ad_framework::application::TopViewDrawer * operator&#45;&gt;()</text>
</a>
</g>
</g>
<!-- Node11&#45;&gt;Node1 -->
<g id="edge11" class="edge">
<title>Node11&#45;&gt;Node1</title>
<path fill="none" stroke="#404040" d="M169.56,-270.34C179.85,-234.24 199.79,-169.48 224,-117 228.11,-108.09 232.98,-98.89 237.97,-90.09"/>
<polygon fill="none" stroke="#404040" points="238.03,-89.99 237.59,-82.79 244.07,-79.62 244.5,-86.82 238.03,-89.99"/>
<text text-anchor="middle" x="247" y="-182" font-family="Helvetica,sans-Serif" font-size="10.00"> &#45;drawer_</text>
</g>
<!-- Node12&#45;&gt;Node11 -->
<g id="edge12" class="edge">
<title>Node12&#45;&gt;Node11</title>
<path fill="none" stroke="orange" d="M165.77,-443.87C163.12,-440.47 160.81,-436.84 159,-433 143.16,-399.49 148.36,-355.72 154.45,-327.73"/>
<polygon fill="orange" stroke="orange" points="163.2,-446.25 172.46,-451.4 168.43,-441.6 163.2,-446.25"/>
<text text-anchor="middle" x="278" y="-425" font-family="Helvetica,sans-Serif" font-size="10.00"> &lt; ad_framework::application::TopViewDrawer &gt;</text>
</g>
</g>
</svg>
        <g id="navigator" transform="translate(0 0)" fill="#404254">
                <rect fill="#f2f5e9" fill-opacity="0.5" stroke="#606060" stroke-width=".5" x="0" y="0" width="60" height="60"/>
                <use id="zoomplus" xlink:href="#zoomPlus" x="17" y="9" onmousedown="handleZoom(evt,'in')"/>
                <use id="zoomminus" xlink:href="#zoomMin" x="42" y="9" onmousedown="handleZoom(evt,'out')"/>
                <use id="reset" xlink:href="#resetDef" x="30" y="36" onmousedown="handleReset()"/>
                <g id="arrowUp" xlink:href="#dirArrow" transform="translate(30 24)" onmousedown="handlePan(0,-1)">
                  <use xlink:href="#rim" fill="#404040">
                        <set attributeName="fill" to="#808080" begin="arrowUp.mouseover" end="arrowUp.mouseout"/>
                  </use>
                  <path fill="none" stroke="white" stroke-width="1.5" d="M0,-3.0v7 M-2.5,-0.5L0,-3.0L2.5,-0.5"/>
                </g>
                <g id="arrowRight" xlink:href="#dirArrow" transform="rotate(90) translate(36 -43)" onmousedown="handlePan(1,0)">
                  <use xlink:href="#rim" fill="#404040">
                        <set attributeName="fill" to="#808080" begin="arrowRight.mouseover" end="arrowRight.mouseout"/>
                  </use>
                  <path fill="none" stroke="white" stroke-width="1.5" d="M0,-3.0v7 M-2.5,-0.5L0,-3.0L2.5,-0.5"/>
                </g>
                <g id="arrowDown" xlink:href="#dirArrow" transform="rotate(180) translate(-30 -48)" onmousedown="handlePan(0,1)">
                  <use xlink:href="#rim" fill="#404040">
                        <set attributeName="fill" to="#808080" begin="arrowDown.mouseover" end="arrowDown.mouseout"/>
                  </use>
                  <path fill="none" stroke="white" stroke-width="1.5" d="M0,-3.0v7 M-2.5,-0.5L0,-3.0L2.5,-0.5"/>
                </g>
                <g id="arrowLeft" xlink:href="#dirArrow" transform="rotate(270) translate(-36 17)" onmousedown="handlePan(-1,0)">
                  <use xlink:href="#rim" fill="#404040">
                        <set attributeName="fill" to="#808080" begin="arrowLeft.mouseover" end="arrowLeft.mouseout"/>
                  </use>
                  <path fill="none" stroke="white" stroke-width="1.5" d="M0,-3.0v7 M-2.5,-0.5L0,-3.0L2.5,-0.5"/>
                </g>
        </g>
        <svg viewBox="0 0 15 15" width="100%" height="30px" preserveAspectRatio="xMaxYMin meet">
         <g id="arrow_out" transform="scale(0.3 0.3)">
          <a xlink:href="classad__framework_1_1application_1_1TopViewPannel__coll__graph_org.svg" target="_base">
           <rect id="button" ry="5" rx="5" y="6" x="6" height="38" width="38"
                fill="#f2f5e9" fill-opacity="0.5" stroke="#606060" stroke-width="1.0"/>
           <path id="arrow"
             d="M 11.500037,31.436501 C 11.940474,20.09759 22.043105,11.32322 32.158766,21.979434 L 37.068811,17.246167 C 37.068811,17.246167 37.088388,32 37.088388,32 L 22.160133,31.978069 C 22.160133,31.978069 26.997745,27.140456 26.997745,27.140456 C 18.528582,18.264221 13.291696,25.230495 11.500037,31.436501 z"
             style="fill:#404040;"/>
          </a>
         </g>
        </svg>
</svg>
