<?xml version="1.0" encoding="UTF-8" standalone="no"?>
<!DOCTYPE svg PUBLIC "-//W3C//DTD SVG 1.1//EN"
 "http://www.w3.org/Graphics/SVG/1.1/DTD/svg11.dtd">
<!-- Generated by graphviz version 2.43.0 (0)
 -->
<!-- Title: ad_framework::data_structure::Rectangle Pages: 1 -->
<svg width="453pt" height="342pt"
 viewBox="0.00 0.00 453.00 342.00" xmlns="http://www.w3.org/2000/svg" xmlns:xlink="http://www.w3.org/1999/xlink">
<g id="graph0" class="graph" transform="scale(1 1) rotate(0) translate(4 338)">
<title>ad_framework::data_structure::Rectangle</title>
<polygon fill="white" stroke="transparent" points="-4,4 -4,-338 449,-338 449,4 -4,4"/>
<!-- Node1 -->
<g id="node1" class="node">
<title>Node1</title>
<g id="a_node1"><a xlink:title=" ">
<polygon fill="#bfbfbf" stroke="black" points="30.5,-0.5 30.5,-79.5 401.5,-79.5 401.5,-0.5 30.5,-0.5"/>
<text text-anchor="middle" x="216" y="-67.5" font-family="Helvetica,sans-Serif" font-size="10.00">ad_framework::data_structure::Rectangle</text>
<polyline fill="none" stroke="black" points="30.5,-60.5 401.5,-60.5 "/>
<text text-anchor="middle" x="216" y="-48.5" font-family="Helvetica,sans-Serif" font-size="10.00"> </text>
<polyline fill="none" stroke="black" points="30.5,-41.5 401.5,-41.5 "/>
<text text-anchor="start" x="38.5" y="-29.5" font-family="Helvetica,sans-Serif" font-size="10.00">+ Rectangle(const Eigen::Vector3d &amp;center, const Eigen::Vector3d &amp;size)</text>
<text text-anchor="start" x="38.5" y="-18.5" font-family="Helvetica,sans-Serif" font-size="10.00">+ bool IsIn(const Eigen::Vector3d &amp;point) const override</text>
<text text-anchor="start" x="38.5" y="-7.5" font-family="Helvetica,sans-Serif" font-size="10.00">+ std::string ToString() const override</text>
</a>
</g>
</g>
<!-- Node2 -->
<g id="node2" class="node">
<title>Node2</title>
<g id="a_node2"><a xlink:href="classad__framework_1_1data__structure_1_1Shape.html" target="_top" xlink:title=" ">
<polygon fill="white" stroke="black" points="0,-243.5 0,-333.5 298,-333.5 298,-243.5 0,-243.5"/>
<text text-anchor="middle" x="149" y="-321.5" font-family="Helvetica,sans-Serif" font-size="10.00">ad_framework::data_structure::Shape</text>
<polyline fill="none" stroke="black" points="0,-314.5 298,-314.5 "/>
<text text-anchor="middle" x="149" y="-302.5" font-family="Helvetica,sans-Serif" font-size="10.00"> </text>
<polyline fill="none" stroke="black" points="0,-295.5 298,-295.5 "/>
<text text-anchor="start" x="8" y="-283.5" font-family="Helvetica,sans-Serif" font-size="10.00">+ virtual ~Shape()=default</text>
<text text-anchor="start" x="8" y="-272.5" font-family="Helvetica,sans-Serif" font-size="10.00">+ virtual bool IsIn(const Eigen::Vector3d &amp;point) const =0</text>
<text text-anchor="start" x="8" y="-261.5" font-family="Helvetica,sans-Serif" font-size="10.00">+ virtual std::string ToString() const =0</text>
<text text-anchor="start" x="8" y="-250.5" font-family="Helvetica,sans-Serif" font-size="10.00">+ virtual ~Shape()=default</text>
</a>
</g>
</g>
<!-- Node2&#45;&gt;Node1 -->
<g id="edge1" class="edge">
<title>Node2&#45;&gt;Node1</title>
<path fill="none" stroke="midnightblue" d="M148.5,-233.24C152.15,-204.6 158.95,-169.04 168,-138 173.74,-118.31 182.01,-97.1 190.24,-79.55"/>
<polygon fill="none" stroke="midnightblue" points="144.99,-233.12 147.31,-243.46 151.95,-233.94 144.99,-233.12"/>
</g>
<!-- Node2&#45;&gt;Node1 -->
<g id="edge2" class="edge">
<title>Node2&#45;&gt;Node1</title>
<path fill="none" stroke="midnightblue" d="M164.46,-233.62C170.09,-204.91 176.91,-169.18 186,-138 191.74,-118.31 200.01,-97.1 206.69,-79.55"/>
<polygon fill="none" stroke="midnightblue" points="161.02,-232.97 162.52,-243.46 167.89,-234.33 161.02,-232.97"/>
</g>
<!-- Node3 -->
<g id="node3" class="node">
<title>Node3</title>
<g id="a_node3"><a xlink:href="structad__framework_1_1data__structure_1_1Point.html" target="_top" xlink:title=" ">
<polygon fill="white" stroke="black" points="186,-138.5 186,-195.5 380,-195.5 380,-138.5 186,-138.5"/>
<text text-anchor="middle" x="283" y="-183.5" font-family="Helvetica,sans-Serif" font-size="10.00">ad_framework::data_structure::Point</text>
<polyline fill="none" stroke="black" points="186,-176.5 380,-176.5 "/>
<text text-anchor="middle" x="283" y="-164.5" font-family="Helvetica,sans-Serif" font-size="10.00"> </text>
<polyline fill="none" stroke="black" points="186,-157.5 380,-157.5 "/>
<text text-anchor="middle" x="283" y="-145.5" font-family="Helvetica,sans-Serif" font-size="10.00"> </text>
</a>
</g>
</g>
<!-- Node2&#45;&gt;Node3 -->
<g id="edge4" class="edge">
<title>Node2&#45;&gt;Node3</title>
<path fill="none" stroke="midnightblue" d="M206.16,-236.53C221.87,-222.52 238.32,-207.84 251.95,-195.69"/>
<polygon fill="none" stroke="midnightblue" points="203.65,-234.07 198.52,-243.34 208.31,-239.3 203.65,-234.07"/>
</g>
<!-- Node3&#45;&gt;Node1 -->
<g id="edge3" class="edge">
<title>Node3&#45;&gt;Node1</title>
<path fill="none" stroke="#404040" d="M268.13,-138.26C260.61,-124.23 251.26,-106.78 242.56,-90.55"/>
<polygon fill="none" stroke="#404040" points="242.34,-90.14 235.98,-86.74 236.67,-79.57 243.03,-82.97 242.34,-90.14"/>
<text text-anchor="middle" x="278.5" y="-112" font-family="Helvetica,sans-Serif" font-size="10.00"> +center</text>
<text text-anchor="middle" x="278.5" y="-101" font-family="Helvetica,sans-Serif" font-size="10.00">+size</text>
</g>
<!-- Node4 -->
<g id="node4" class="node">
<title>Node4</title>
<g id="a_node4"><a xlink:title=" ">
<polygon fill="white" stroke="#bfbfbf" points="351.5,-260 351.5,-317 410.5,-317 410.5,-260 351.5,-260"/>
<text text-anchor="middle" x="381" y="-305" font-family="Helvetica,sans-Serif" font-size="10.00">Vector3d</text>
<polyline fill="none" stroke="#bfbfbf" points="351.5,-298 410.5,-298 "/>
<text text-anchor="middle" x="381" y="-286" font-family="Helvetica,sans-Serif" font-size="10.00"> </text>
<polyline fill="none" stroke="#bfbfbf" points="351.5,-279 410.5,-279 "/>
<text text-anchor="middle" x="381" y="-267" font-family="Helvetica,sans-Serif" font-size="10.00"> </text>
</a>
</g>
</g>
<!-- Node4&#45;&gt;Node1 -->
<g id="edge6" class="edge">
<title>Node4&#45;&gt;Node1</title>
<path fill="none" stroke="#404040" d="M391.1,-259.72C400.79,-227.98 411.01,-175.57 389,-138 376.44,-116.55 357.2,-99.49 336.06,-86.04"/>
<polygon fill="none" stroke="#404040" points="335.83,-85.9 328.63,-86.24 325.55,-79.72 332.75,-79.38 335.83,-85.9"/>
<text text-anchor="middle" x="423.5" y="-170" font-family="Helvetica,sans-Serif" font-size="10.00"> &#45;center_</text>
<text text-anchor="middle" x="423.5" y="-159" font-family="Helvetica,sans-Serif" font-size="10.00">&#45;size_</text>
</g>
<!-- Node4&#45;&gt;Node3 -->
<g id="edge5" class="edge">
<title>Node4&#45;&gt;Node3</title>
<path fill="none" stroke="#404040" d="M358.27,-259.78C344.91,-243.49 327.86,-222.7 313.36,-205.02"/>
<polygon fill="none" stroke="#404040" points="313.22,-204.84 306.32,-202.74 305.61,-195.57 312.5,-197.67 313.22,-204.84"/>
<text text-anchor="middle" x="347.5" y="-217" font-family="Helvetica,sans-Serif" font-size="10.00"> +point</text>
</g>
</g>
</svg>
