<?xml version="1.0" encoding="UTF-8" standalone="no"?>
<!DOCTYPE svg PUBLIC "-//W3C//DTD SVG 1.1//EN"
 "http://www.w3.org/Graphics/SVG/1.1/DTD/svg11.dtd">
<!-- Generated by graphviz version 2.43.0 (0)
 -->
<!-- Title: ad_framework::ui::TopViewer Pages: 1 -->
<svg width="904pt" height="630pt"
 viewBox="0.00 0.00 904.00 630.00" xmlns="http://www.w3.org/2000/svg" xmlns:xlink="http://www.w3.org/1999/xlink">
<g id="graph0" class="graph" transform="scale(1 1) rotate(0) translate(4 626)">
<title>ad_framework::ui::TopViewer</title>
<polygon fill="white" stroke="transparent" points="-4,4 -4,-626 900,-626 900,4 -4,4"/>
<!-- Node1 -->
<g id="node1" class="node">
<title>Node1</title>
<g id="a_node1"><a xlink:title=" ">
<polygon fill="#bfbfbf" stroke="black" points="340.5,-0.5 340.5,-68.5 624.5,-68.5 624.5,-0.5 340.5,-0.5"/>
<text text-anchor="middle" x="482.5" y="-56.5" font-family="Helvetica,sans-Serif" font-size="10.00">ad_framework::ui::TopViewer</text>
<polyline fill="none" stroke="black" points="340.5,-49.5 624.5,-49.5 "/>
<text text-anchor="middle" x="482.5" y="-37.5" font-family="Helvetica,sans-Serif" font-size="10.00"> </text>
<polyline fill="none" stroke="black" points="340.5,-30.5 624.5,-30.5 "/>
<text text-anchor="start" x="348.5" y="-18.5" font-family="Helvetica,sans-Serif" font-size="10.00">+ TopViewer(std::string title, ImVec2 size, ImVec2 pos)</text>
<text text-anchor="start" x="348.5" y="-7.5" font-family="Helvetica,sans-Serif" font-size="10.00">+ void operator()() override</text>
</a>
</g>
</g>
<!-- Node2 -->
<g id="node2" class="node">
<title>Node2</title>
<g id="a_node2"><a xlink:href="classad__framework_1_1ui_1_1UserInterface.html" target="_top" xlink:title=" ">
<polygon fill="white" stroke="black" points="307,-106.5 307,-295.5 658,-295.5 658,-106.5 307,-106.5"/>
<text text-anchor="middle" x="482.5" y="-283.5" font-family="Helvetica,sans-Serif" font-size="10.00">ad_framework::ui::UserInterface</text>
<polyline fill="none" stroke="black" points="307,-276.5 658,-276.5 "/>
<text text-anchor="middle" x="482.5" y="-264.5" font-family="Helvetica,sans-Serif" font-size="10.00"> </text>
<polyline fill="none" stroke="black" points="307,-257.5 658,-257.5 "/>
<text text-anchor="start" x="315" y="-245.5" font-family="Helvetica,sans-Serif" font-size="10.00">+ UserInterface(std::string title, ImVec2 size, ImVec2 pos)</text>
<text text-anchor="start" x="315" y="-234.5" font-family="Helvetica,sans-Serif" font-size="10.00">+ virtual ~UserInterface()=default</text>
<text text-anchor="start" x="315" y="-223.5" font-family="Helvetica,sans-Serif" font-size="10.00">+ virtual void operator()()=0</text>
<text text-anchor="start" x="315" y="-212.5" font-family="Helvetica,sans-Serif" font-size="10.00">+ std::string Title() const</text>
<text text-anchor="start" x="315" y="-201.5" font-family="Helvetica,sans-Serif" font-size="10.00">+ void Rename(std::string title)</text>
<text text-anchor="start" x="315" y="-190.5" font-family="Helvetica,sans-Serif" font-size="10.00">+ ImVec2 Size() const</text>
<text text-anchor="start" x="315" y="-179.5" font-family="Helvetica,sans-Serif" font-size="10.00">+ ImVec2 Pos() const</text>
<text text-anchor="start" x="315" y="-168.5" font-family="Helvetica,sans-Serif" font-size="10.00">+ void Resize(ImVec2 size)</text>
<text text-anchor="start" x="315" y="-157.5" font-family="Helvetica,sans-Serif" font-size="10.00">+ void Move(ImVec2 pos)</text>
<text text-anchor="start" x="315" y="-146.5" font-family="Helvetica,sans-Serif" font-size="10.00">+ void SetParent(UserInterfacePtr parent)</text>
<text text-anchor="start" x="315" y="-135.5" font-family="Helvetica,sans-Serif" font-size="10.00">+ UserInterfacePtr GetParent() const</text>
<text text-anchor="start" x="315" y="-124.5" font-family="Helvetica,sans-Serif" font-size="10.00">+ void AddCallback(std::string name, callback::CallbackPtr callback)</text>
<text text-anchor="start" x="315" y="-113.5" font-family="Helvetica,sans-Serif" font-size="10.00">+ CallbackMap GetCallbacks() const</text>
</a>
</g>
</g>
<!-- Node2&#45;&gt;Node1 -->
<g id="edge1" class="edge">
<title>Node2&#45;&gt;Node1</title>
<path fill="none" stroke="midnightblue" d="M482.5,-95.95C482.5,-86.22 482.5,-76.93 482.5,-68.68"/>
<polygon fill="none" stroke="midnightblue" points="479,-96.22 482.5,-106.22 486,-96.22 479,-96.22"/>
</g>
<!-- Node3 -->
<g id="node3" class="node">
<title>Node3</title>
<g id="a_node3"><a xlink:title=" ">
<polygon fill="white" stroke="#bfbfbf" points="0,-354.5 0,-411.5 249,-411.5 249,-354.5 0,-354.5"/>
<text text-anchor="middle" x="124.5" y="-399.5" font-family="Helvetica,sans-Serif" font-size="10.00">std::enable_shared_from_this&lt; UserInterface &gt;</text>
<polyline fill="none" stroke="#bfbfbf" points="0,-392.5 249,-392.5 "/>
<text text-anchor="middle" x="124.5" y="-380.5" font-family="Helvetica,sans-Serif" font-size="10.00"> </text>
<polyline fill="none" stroke="#bfbfbf" points="0,-373.5 249,-373.5 "/>
<text text-anchor="middle" x="124.5" y="-361.5" font-family="Helvetica,sans-Serif" font-size="10.00"> </text>
</a>
</g>
</g>
<!-- Node3&#45;&gt;Node2 -->
<g id="edge2" class="edge">
<title>Node3&#45;&gt;Node2</title>
<path fill="none" stroke="midnightblue" d="M188.41,-349.87C221.74,-333.11 264.32,-311.7 306.66,-290.41"/>
<polygon fill="none" stroke="midnightblue" points="186.62,-346.85 179.26,-354.47 189.77,-353.1 186.62,-346.85"/>
</g>
<!-- Node4 -->
<g id="node4" class="node">
<title>Node4</title>
<g id="a_node4"><a xlink:title=" ">
<polygon fill="white" stroke="#bfbfbf" points="647.5,-354.5 647.5,-411.5 825.5,-411.5 825.5,-354.5 647.5,-354.5"/>
<text text-anchor="middle" x="736.5" y="-399.5" font-family="Helvetica,sans-Serif" font-size="10.00">std::shared_ptr&lt; UserInterface &gt;</text>
<polyline fill="none" stroke="#bfbfbf" points="647.5,-392.5 825.5,-392.5 "/>
<text text-anchor="start" x="655.5" y="-380.5" font-family="Helvetica,sans-Serif" font-size="10.00">+ UserInterface ptr</text>
<polyline fill="none" stroke="#bfbfbf" points="647.5,-373.5 825.5,-373.5 "/>
<text text-anchor="start" x="655.5" y="-361.5" font-family="Helvetica,sans-Serif" font-size="10.00">+ UserInterface * operator&#45;&gt;()</text>
</a>
</g>
</g>
<!-- Node4&#45;&gt;Node2 -->
<g id="edge3" class="edge">
<title>Node4&#45;&gt;Node2</title>
<path fill="none" stroke="#404040" d="M697.65,-354.47C677.47,-340.17 651.44,-321.72 624.5,-302.63"/>
<polygon fill="none" stroke="#404040" points="624.33,-302.51 617.12,-302.3 614.54,-295.57 621.75,-295.78 624.33,-302.51"/>
<text text-anchor="middle" x="689.5" y="-322.5" font-family="Helvetica,sans-Serif" font-size="10.00"> &#45;parent_</text>
</g>
<!-- Node5 -->
<g id="node5" class="node">
<title>Node5</title>
<g id="a_node5"><a xlink:title=" ">
<polygon fill="white" stroke="#bfbfbf" points="596.5,-459.5 596.5,-516.5 714.5,-516.5 714.5,-459.5 596.5,-459.5"/>
<text text-anchor="middle" x="655.5" y="-504.5" font-family="Helvetica,sans-Serif" font-size="10.00">std::shared_ptr&lt; T &gt;</text>
<polyline fill="none" stroke="#bfbfbf" points="596.5,-497.5 714.5,-497.5 "/>
<text text-anchor="middle" x="655.5" y="-485.5" font-family="Helvetica,sans-Serif" font-size="10.00"> </text>
<polyline fill="none" stroke="#bfbfbf" points="596.5,-478.5 714.5,-478.5 "/>
<text text-anchor="start" x="604.5" y="-466.5" font-family="Helvetica,sans-Serif" font-size="10.00">+ T * operator&#45;&gt;()</text>
</a>
</g>
</g>
<!-- Node5&#45;&gt;Node4 -->
<g id="edge4" class="edge">
<title>Node5&#45;&gt;Node4</title>
<path fill="none" stroke="orange" d="M704.3,-452.65C708.01,-448.96 711.48,-445.07 714.5,-441 720.95,-432.31 725.75,-421.5 729.19,-411.63"/>
<polygon fill="orange" stroke="orange" points="701.9,-450.1 696.92,-459.45 706.65,-455.25 701.9,-450.1"/>
<text text-anchor="middle" x="766.5" y="-433" font-family="Helvetica,sans-Serif" font-size="10.00"> &lt; UserInterface &gt;</text>
</g>
<!-- Node10 -->
<g id="node10" class="node">
<title>Node10</title>
<g id="a_node10"><a xlink:title=" ">
<polygon fill="white" stroke="#bfbfbf" points="336,-354.5 336,-411.5 629,-411.5 629,-354.5 336,-354.5"/>
<text text-anchor="middle" x="482.5" y="-399.5" font-family="Helvetica,sans-Serif" font-size="10.00">std::unordered_map&lt; std::string, callback::CallbackPtr &gt;</text>
<polyline fill="none" stroke="#bfbfbf" points="336,-392.5 629,-392.5 "/>
<text text-anchor="middle" x="482.5" y="-380.5" font-family="Helvetica,sans-Serif" font-size="10.00"> </text>
<polyline fill="none" stroke="#bfbfbf" points="336,-373.5 629,-373.5 "/>
<text text-anchor="middle" x="482.5" y="-361.5" font-family="Helvetica,sans-Serif" font-size="10.00"> </text>
</a>
</g>
</g>
<!-- Node5&#45;&gt;Node10 -->
<g id="edge10" class="edge">
<title>Node5&#45;&gt;Node10</title>
<path fill="none" stroke="#404040" d="M650.26,-459.4C647.02,-448.95 641.81,-437.73 633.5,-430 628.67,-425.51 623.42,-421.46 617.86,-417.8"/>
<polygon fill="none" stroke="#404040" points="617.85,-417.79 610.65,-418.15 607.55,-411.63 614.75,-411.28 617.85,-417.79"/>
<text text-anchor="middle" x="671.5" y="-433" font-family="Helvetica,sans-Serif" font-size="10.00"> +elements</text>
</g>
<!-- Node6 -->
<g id="node6" class="node">
<title>Node6</title>
<g id="a_node6"><a xlink:title=" ">
<polygon fill="white" stroke="#bfbfbf" points="580,-564.5 580,-621.5 609,-621.5 609,-564.5 580,-564.5"/>
<text text-anchor="middle" x="594.5" y="-609.5" font-family="Helvetica,sans-Serif" font-size="10.00">T</text>
<polyline fill="none" stroke="#bfbfbf" points="580,-602.5 609,-602.5 "/>
<text text-anchor="middle" x="594.5" y="-590.5" font-family="Helvetica,sans-Serif" font-size="10.00"> </text>
<polyline fill="none" stroke="#bfbfbf" points="580,-583.5 609,-583.5 "/>
<text text-anchor="middle" x="594.5" y="-571.5" font-family="Helvetica,sans-Serif" font-size="10.00"> </text>
</a>
</g>
</g>
<!-- Node6&#45;&gt;Node5 -->
<g id="edge5" class="edge">
<title>Node6&#45;&gt;Node5</title>
<path fill="none" stroke="#404040" d="M609.11,-567.33C616.23,-555.31 624.95,-540.58 632.91,-527.15"/>
<polygon fill="none" stroke="#404040" points="632.96,-527.06 632.57,-519.86 639.07,-516.74 639.46,-523.94 632.96,-527.06"/>
<text text-anchor="middle" x="640" y="-538" font-family="Helvetica,sans-Serif" font-size="10.00"> +ptr</text>
</g>
<!-- Node11 -->
<g id="node11" class="node">
<title>Node11</title>
<g id="a_node11"><a xlink:title=" ">
<polygon fill="white" stroke="#bfbfbf" points="401,-459.5 401,-516.5 556,-516.5 556,-459.5 401,-459.5"/>
<text text-anchor="middle" x="478.5" y="-504.5" font-family="Helvetica,sans-Serif" font-size="10.00">std::unordered_map&lt; K, T &gt;</text>
<polyline fill="none" stroke="#bfbfbf" points="401,-497.5 556,-497.5 "/>
<text text-anchor="middle" x="478.5" y="-485.5" font-family="Helvetica,sans-Serif" font-size="10.00"> </text>
<polyline fill="none" stroke="#bfbfbf" points="401,-478.5 556,-478.5 "/>
<text text-anchor="middle" x="478.5" y="-466.5" font-family="Helvetica,sans-Serif" font-size="10.00"> </text>
</a>
</g>
</g>
<!-- Node6&#45;&gt;Node11 -->
<g id="edge14" class="edge">
<title>Node6&#45;&gt;Node11</title>
<path fill="none" stroke="#404040" d="M579.81,-578.95C564.51,-565.37 539.88,-543.51 518.74,-524.73"/>
<polygon fill="none" stroke="#404040" points="518.6,-524.6 511.45,-523.61 509.62,-516.64 516.77,-517.63 518.6,-524.6"/>
<text text-anchor="middle" x="569.5" y="-538" font-family="Helvetica,sans-Serif" font-size="10.00"> +elements</text>
</g>
<!-- Node7 -->
<g id="node7" class="node">
<title>Node7</title>
<g id="a_node7"><a xlink:title=" ">
<polygon fill="white" stroke="#bfbfbf" points="843,-354.5 843,-411.5 896,-411.5 896,-354.5 843,-354.5"/>
<text text-anchor="middle" x="869.5" y="-399.5" font-family="Helvetica,sans-Serif" font-size="10.00">ImVec2</text>
<polyline fill="none" stroke="#bfbfbf" points="843,-392.5 896,-392.5 "/>
<text text-anchor="middle" x="869.5" y="-380.5" font-family="Helvetica,sans-Serif" font-size="10.00"> </text>
<polyline fill="none" stroke="#bfbfbf" points="843,-373.5 896,-373.5 "/>
<text text-anchor="middle" x="869.5" y="-361.5" font-family="Helvetica,sans-Serif" font-size="10.00"> </text>
</a>
</g>
</g>
<!-- Node7&#45;&gt;Node2 -->
<g id="edge6" class="edge">
<title>Node7&#45;&gt;Node2</title>
<path fill="none" stroke="#404040" d="M842.89,-359.54C840.13,-357.57 837.3,-355.68 834.5,-354 782.99,-323.04 724.04,-295.01 669.29,-271.7"/>
<polygon fill="none" stroke="#404040" points="669.1,-271.62 662.01,-272.97 658.04,-266.95 665.12,-265.6 669.1,-271.62"/>
<text text-anchor="middle" x="812.5" y="-328" font-family="Helvetica,sans-Serif" font-size="10.00"> &#45;pos_</text>
<text text-anchor="middle" x="812.5" y="-317" font-family="Helvetica,sans-Serif" font-size="10.00">&#45;size_</text>
</g>
<!-- Node8 -->
<g id="node8" class="node">
<title>Node8</title>
<g id="a_node8"><a xlink:title=" ">
<polygon fill="white" stroke="#bfbfbf" points="296,-459.5 296,-516.5 361,-516.5 361,-459.5 296,-459.5"/>
<text text-anchor="middle" x="328.5" y="-504.5" font-family="Helvetica,sans-Serif" font-size="10.00">std::string</text>
<polyline fill="none" stroke="#bfbfbf" points="296,-497.5 361,-497.5 "/>
<text text-anchor="middle" x="328.5" y="-485.5" font-family="Helvetica,sans-Serif" font-size="10.00"> </text>
<polyline fill="none" stroke="#bfbfbf" points="296,-478.5 361,-478.5 "/>
<text text-anchor="middle" x="328.5" y="-466.5" font-family="Helvetica,sans-Serif" font-size="10.00"> </text>
</a>
</g>
</g>
<!-- Node8&#45;&gt;Node2 -->
<g id="edge7" class="edge">
<title>Node8&#45;&gt;Node2</title>
<path fill="none" stroke="#404040" d="M310.81,-459.44C295.46,-431.76 278.07,-388.41 294.5,-354 303.04,-336.12 314.82,-319.67 328.35,-304.72"/>
<polygon fill="none" stroke="#404040" points="328.74,-304.32 329.97,-297.21 337,-295.61 335.77,-302.72 328.74,-304.32"/>
<text text-anchor="middle" x="310.5" y="-380.5" font-family="Helvetica,sans-Serif" font-size="10.00"> &#45;title_</text>
</g>
<!-- Node8&#45;&gt;Node10 -->
<g id="edge11" class="edge">
<title>Node8&#45;&gt;Node10</title>
<path fill="none" stroke="#404040" d="M361.08,-464.33C376.33,-453.79 394.78,-441.16 411.5,-430 417.29,-426.14 423.37,-422.13 429.44,-418.16"/>
<polygon fill="none" stroke="#404040" points="429.53,-418.1 432.37,-411.47 439.58,-411.55 436.74,-418.17 429.53,-418.1"/>
<text text-anchor="middle" x="428.5" y="-433" font-family="Helvetica,sans-Serif" font-size="10.00"> +keys</text>
</g>
<!-- Node9 -->
<g id="node9" class="node">
<title>Node9</title>
<g id="a_node9"><a xlink:title=" ">
<polygon fill="white" stroke="#bfbfbf" points="258,-564.5 258,-621.5 399,-621.5 399,-564.5 258,-564.5"/>
<text text-anchor="middle" x="328.5" y="-609.5" font-family="Helvetica,sans-Serif" font-size="10.00">std::basic_string&lt; Char &gt;</text>
<polyline fill="none" stroke="#bfbfbf" points="258,-602.5 399,-602.5 "/>
<text text-anchor="middle" x="328.5" y="-590.5" font-family="Helvetica,sans-Serif" font-size="10.00"> </text>
<polyline fill="none" stroke="#bfbfbf" points="258,-583.5 399,-583.5 "/>
<text text-anchor="middle" x="328.5" y="-571.5" font-family="Helvetica,sans-Serif" font-size="10.00"> </text>
</a>
</g>
</g>
<!-- Node9&#45;&gt;Node8 -->
<g id="edge8" class="edge">
<title>Node9&#45;&gt;Node8</title>
<path fill="none" stroke="midnightblue" d="M328.5,-554.29C328.5,-541.84 328.5,-528.23 328.5,-516.68"/>
<polygon fill="none" stroke="midnightblue" points="325,-554.4 328.5,-564.4 332,-554.4 325,-554.4"/>
</g>
<!-- Node10&#45;&gt;Node2 -->
<g id="edge9" class="edge">
<title>Node10&#45;&gt;Node2</title>
<path fill="none" stroke="#404040" d="M482.5,-354.27C482.5,-341.41 482.5,-325.23 482.5,-308.26"/>
<polygon fill="none" stroke="#404040" points="482.5,-307.79 478.5,-301.79 482.5,-295.79 486.5,-301.79 482.5,-307.79"/>
<text text-anchor="middle" x="511.5" y="-322.5" font-family="Helvetica,sans-Serif" font-size="10.00"> &#45;callbacks_</text>
</g>
<!-- Node11&#45;&gt;Node10 -->
<g id="edge12" class="edge">
<title>Node11&#45;&gt;Node10</title>
<path fill="none" stroke="orange" d="M451.22,-450.01C449.06,-443.48 448.42,-436.64 450.5,-430 452.51,-423.59 455.76,-417.3 459.44,-411.52"/>
<polygon fill="orange" stroke="orange" points="448.08,-451.56 455.33,-459.29 454.49,-448.73 448.08,-451.56"/>
<text text-anchor="middle" x="542" y="-433" font-family="Helvetica,sans-Serif" font-size="10.00"> &lt; std::string, callback::CallbackPtr &gt;</text>
</g>
<!-- Node12 -->
<g id="node12" class="node">
<title>Node12</title>
<g id="a_node12"><a xlink:title=" ">
<polygon fill="white" stroke="#bfbfbf" points="464,-564.5 464,-621.5 493,-621.5 493,-564.5 464,-564.5"/>
<text text-anchor="middle" x="478.5" y="-609.5" font-family="Helvetica,sans-Serif" font-size="10.00">K</text>
<polyline fill="none" stroke="#bfbfbf" points="464,-602.5 493,-602.5 "/>
<text text-anchor="middle" x="478.5" y="-590.5" font-family="Helvetica,sans-Serif" font-size="10.00"> </text>
<polyline fill="none" stroke="#bfbfbf" points="464,-583.5 493,-583.5 "/>
<text text-anchor="middle" x="478.5" y="-571.5" font-family="Helvetica,sans-Serif" font-size="10.00"> </text>
</a>
</g>
</g>
<!-- Node12&#45;&gt;Node11 -->
<g id="edge13" class="edge">
<title>Node12&#45;&gt;Node11</title>
<path fill="none" stroke="#404040" d="M478.5,-564.4C478.5,-553.55 478.5,-540.87 478.5,-529.05"/>
<polygon fill="none" stroke="#404040" points="478.5,-528.68 474.5,-522.68 478.5,-516.68 482.5,-522.68 478.5,-528.68"/>
<text text-anchor="middle" x="495.5" y="-538" font-family="Helvetica,sans-Serif" font-size="10.00"> +keys</text>
</g>
</g>
</svg>
