<?xml version="1.0" encoding="UTF-8" standalone="no"?>
<!DOCTYPE svg PUBLIC "-//W3C//DTD SVG 1.1//EN"
 "http://www.w3.org/Graphics/SVG/1.1/DTD/svg11.dtd">
<!-- Generated by graphviz version 2.43.0 (0)
 -->
<!-- Title: ad_framework::data_structure::KdTree::Nearest Pages: 1 -->
<svg width="538pt" height="66pt"
 viewBox="0.00 0.00 538.00 66.00" xmlns="http://www.w3.org/2000/svg" xmlns:xlink="http://www.w3.org/1999/xlink">
<g id="graph0" class="graph" transform="scale(1 1) rotate(0) translate(4 62)">
<title>ad_framework::data_structure::KdTree::Nearest</title>
<polygon fill="white" stroke="transparent" points="-4,4 -4,-62 534,-62 534,4 -4,4"/>
<!-- Node1 -->
<g id="node1" class="node">
<title>Node1</title>
<g id="a_node1"><a xlink:title=" ">
<polygon fill="#bfbfbf" stroke="black" points="283,-19.5 283,-38.5 530,-38.5 530,-19.5 283,-19.5"/>
<text text-anchor="middle" x="406.5" y="-26.5" font-family="Helvetica,sans-Serif" font-size="10.00">ad_framework::data_structure::KdTree::Nearest</text>
</a>
</g>
</g>
<!-- Node2 -->
<g id="node2" class="node">
<title>Node2</title>
<g id="a_node2"><a xlink:href="classad__framework_1_1data__structure_1_1KdTree.html#a4d5576b7e111b34ac7c07402e2fc9723" target="_top" xlink:title=" ">
<polygon fill="white" stroke="black" points="0,-38.5 0,-57.5 247,-57.5 247,-38.5 0,-38.5"/>
<text text-anchor="middle" x="123.5" y="-45.5" font-family="Helvetica,sans-Serif" font-size="10.00">ad_framework::data_structure::KdTree::Nearest</text>
</a>
</g>
</g>
<!-- Node1&#45;&gt;Node2 -->
<g id="edge1" class="edge">
<title>Node1&#45;&gt;Node2</title>
<path fill="none" stroke="midnightblue" d="M272.66,-37.98C264.12,-38.56 255.54,-39.14 247.05,-39.71"/>
<polygon fill="midnightblue" stroke="midnightblue" points="272.92,-41.47 282.66,-37.31 272.44,-34.49 272.92,-41.47"/>
</g>
<!-- Node3 -->
<g id="node3" class="node">
<title>Node3</title>
<g id="a_node3"><a xlink:href="namespacead__framework_1_1data__structure.html#a377d116c8751406760991a41f830b8b4" target="_top" xlink:title=" ">
<polygon fill="white" stroke="black" points="26.5,-0.5 26.5,-19.5 220.5,-19.5 220.5,-0.5 26.5,-0.5"/>
<text text-anchor="middle" x="123.5" y="-7.5" font-family="Helvetica,sans-Serif" font-size="10.00">ad_framework::data_structure::TEST</text>
</a>
</g>
</g>
<!-- Node1&#45;&gt;Node3 -->
<g id="edge2" class="edge">
<title>Node1&#45;&gt;Node3</title>
<path fill="none" stroke="midnightblue" d="M272.45,-20C255.06,-18.83 237.53,-17.64 220.91,-16.52"/>
<polygon fill="midnightblue" stroke="midnightblue" points="272.44,-23.51 282.66,-20.69 272.92,-16.53 272.44,-23.51"/>
</g>
</g>
</svg>
