<?xml version="1.0" encoding="UTF-8" standalone="no"?>
<!DOCTYPE svg PUBLIC "-//W3C//DTD SVG 1.1//EN"
 "http://www.w3.org/Graphics/SVG/1.1/DTD/svg11.dtd">
<!-- Generated by graphviz version 2.43.0 (0)
 -->
<!-- Title: ad_framework::data_structure::Node Pages: 1 -->
<svg width="305pt" height="436pt"
 viewBox="0.00 0.00 304.50 436.00" xmlns="http://www.w3.org/2000/svg" xmlns:xlink="http://www.w3.org/1999/xlink">
<g id="graph0" class="graph" transform="scale(1 1) rotate(0) translate(4 432)">
<title>ad_framework::data_structure::Node</title>
<polygon fill="white" stroke="transparent" points="-4,4 -4,-432 300.5,-432 300.5,4 -4,4"/>
<!-- Node1 -->
<g id="node1" class="node">
<title>Node1</title>
<g id="a_node1"><a xlink:title=" ">
<polygon fill="#bfbfbf" stroke="black" points="12.5,-0.5 12.5,-101.5 296.5,-101.5 296.5,-0.5 12.5,-0.5"/>
<text text-anchor="middle" x="154.5" y="-89.5" font-family="Helvetica,sans-Serif" font-size="10.00">ad_framework::data_structure::Node</text>
<polyline fill="none" stroke="black" points="12.5,-82.5 296.5,-82.5 "/>
<text text-anchor="middle" x="154.5" y="-70.5" font-family="Helvetica,sans-Serif" font-size="10.00"> </text>
<polyline fill="none" stroke="black" points="12.5,-63.5 296.5,-63.5 "/>
<text text-anchor="start" x="20.5" y="-51.5" font-family="Helvetica,sans-Serif" font-size="10.00">+ Node()=default</text>
<text text-anchor="start" x="20.5" y="-40.5" font-family="Helvetica,sans-Serif" font-size="10.00">+ Node(const Eigen::Vector3d &amp;point)</text>
<text text-anchor="start" x="20.5" y="-29.5" font-family="Helvetica,sans-Serif" font-size="10.00">+ double Distance(const Eigen::Vector3d &amp;point) const</text>
<text text-anchor="start" x="20.5" y="-18.5" font-family="Helvetica,sans-Serif" font-size="10.00">+ double Distance(const Node &amp;point) const</text>
<text text-anchor="start" x="20.5" y="-7.5" font-family="Helvetica,sans-Serif" font-size="10.00">+ std::string ToString() const</text>
</a>
</g>
</g>
<!-- Node2 -->
<g id="node2" class="node">
<title>Node2</title>
<g id="a_node2"><a xlink:title=" ">
<polygon fill="white" stroke="#bfbfbf" points="0,-160.5 0,-217.5 137,-217.5 137,-160.5 0,-160.5"/>
<text text-anchor="middle" x="68.5" y="-205.5" font-family="Helvetica,sans-Serif" font-size="10.00">std::shared_ptr&lt; Node &gt;</text>
<polyline fill="none" stroke="#bfbfbf" points="0,-198.5 137,-198.5 "/>
<text text-anchor="start" x="8" y="-186.5" font-family="Helvetica,sans-Serif" font-size="10.00">+ Node ptr</text>
<polyline fill="none" stroke="#bfbfbf" points="0,-179.5 137,-179.5 "/>
<text text-anchor="start" x="8" y="-167.5" font-family="Helvetica,sans-Serif" font-size="10.00">+ Node * operator&#45;&gt;()</text>
</a>
</g>
</g>
<!-- Node2&#45;&gt;Node1 -->
<g id="edge1" class="edge">
<title>Node2&#45;&gt;Node1</title>
<path fill="none" stroke="#404040" d="M85.9,-160.48C94.72,-146.53 105.8,-129.01 116.47,-112.14"/>
<polygon fill="none" stroke="#404040" points="116.62,-111.91 116.44,-104.7 123.03,-101.76 123.21,-108.97 116.62,-111.91"/>
<text text-anchor="middle" x="130" y="-134" font-family="Helvetica,sans-Serif" font-size="10.00"> +left_</text>
<text text-anchor="middle" x="130" y="-123" font-family="Helvetica,sans-Serif" font-size="10.00">+right_</text>
</g>
<!-- Node3 -->
<g id="node3" class="node">
<title>Node3</title>
<g id="a_node3"><a xlink:title=" ">
<polygon fill="white" stroke="#bfbfbf" points="9.5,-265.5 9.5,-322.5 127.5,-322.5 127.5,-265.5 9.5,-265.5"/>
<text text-anchor="middle" x="68.5" y="-310.5" font-family="Helvetica,sans-Serif" font-size="10.00">std::shared_ptr&lt; T &gt;</text>
<polyline fill="none" stroke="#bfbfbf" points="9.5,-303.5 127.5,-303.5 "/>
<text text-anchor="middle" x="68.5" y="-291.5" font-family="Helvetica,sans-Serif" font-size="10.00"> </text>
<polyline fill="none" stroke="#bfbfbf" points="9.5,-284.5 127.5,-284.5 "/>
<text text-anchor="start" x="17.5" y="-272.5" font-family="Helvetica,sans-Serif" font-size="10.00">+ T * operator&#45;&gt;()</text>
</a>
</g>
</g>
<!-- Node3&#45;&gt;Node2 -->
<g id="edge2" class="edge">
<title>Node3&#45;&gt;Node2</title>
<path fill="none" stroke="orange" d="M68.5,-255.29C68.5,-242.84 68.5,-229.23 68.5,-217.68"/>
<polygon fill="orange" stroke="orange" points="65,-255.4 68.5,-265.4 72,-255.4 65,-255.4"/>
<text text-anchor="middle" x="94.5" y="-239" font-family="Helvetica,sans-Serif" font-size="10.00"> &lt; Node &gt;</text>
</g>
<!-- Node4 -->
<g id="node4" class="node">
<title>Node4</title>
<g id="a_node4"><a xlink:title=" ">
<polygon fill="white" stroke="#bfbfbf" points="54,-370.5 54,-427.5 83,-427.5 83,-370.5 54,-370.5"/>
<text text-anchor="middle" x="68.5" y="-415.5" font-family="Helvetica,sans-Serif" font-size="10.00">T</text>
<polyline fill="none" stroke="#bfbfbf" points="54,-408.5 83,-408.5 "/>
<text text-anchor="middle" x="68.5" y="-396.5" font-family="Helvetica,sans-Serif" font-size="10.00"> </text>
<polyline fill="none" stroke="#bfbfbf" points="54,-389.5 83,-389.5 "/>
<text text-anchor="middle" x="68.5" y="-377.5" font-family="Helvetica,sans-Serif" font-size="10.00"> </text>
</a>
</g>
</g>
<!-- Node4&#45;&gt;Node3 -->
<g id="edge3" class="edge">
<title>Node4&#45;&gt;Node3</title>
<path fill="none" stroke="#404040" d="M68.5,-370.4C68.5,-359.55 68.5,-346.87 68.5,-335.05"/>
<polygon fill="none" stroke="#404040" points="68.5,-334.68 64.5,-328.68 68.5,-322.68 72.5,-328.68 68.5,-334.68"/>
<text text-anchor="middle" x="81" y="-344" font-family="Helvetica,sans-Serif" font-size="10.00"> +ptr</text>
</g>
<!-- Node5 -->
<g id="node5" class="node">
<title>Node5</title>
<g id="a_node5"><a xlink:title=" ">
<polygon fill="white" stroke="#bfbfbf" points="155,-160.5 155,-217.5 214,-217.5 214,-160.5 155,-160.5"/>
<text text-anchor="middle" x="184.5" y="-205.5" font-family="Helvetica,sans-Serif" font-size="10.00">Vector3d</text>
<polyline fill="none" stroke="#bfbfbf" points="155,-198.5 214,-198.5 "/>
<text text-anchor="middle" x="184.5" y="-186.5" font-family="Helvetica,sans-Serif" font-size="10.00"> </text>
<polyline fill="none" stroke="#bfbfbf" points="155,-179.5 214,-179.5 "/>
<text text-anchor="middle" x="184.5" y="-167.5" font-family="Helvetica,sans-Serif" font-size="10.00"> </text>
</a>
</g>
</g>
<!-- Node5&#45;&gt;Node1 -->
<g id="edge4" class="edge">
<title>Node5&#45;&gt;Node1</title>
<path fill="none" stroke="#404040" d="M178.43,-160.48C175.44,-146.93 171.71,-130 168.08,-113.58"/>
<polygon fill="none" stroke="#404040" points="168.06,-113.48 162.86,-108.48 165.48,-101.76 170.68,-106.76 168.06,-113.48"/>
<text text-anchor="middle" x="194.5" y="-128.5" font-family="Helvetica,sans-Serif" font-size="10.00"> +point_</text>
</g>
</g>
</svg>
