<?xml version="1.0" encoding="UTF-8" standalone="no"?>
<!DOCTYPE svg PUBLIC "-//W3C//DTD SVG 1.1//EN"
 "http://www.w3.org/Graphics/SVG/1.1/DTD/svg11.dtd">
<!-- Generated by graphviz version 2.43.0 (0)
 -->
<!-- Title: ad_framework::data_structure::Rectangle Pages: 1 -->
<svg width="379pt" height="248pt"
 viewBox="0.00 0.00 379.00 248.00" xmlns="http://www.w3.org/2000/svg" xmlns:xlink="http://www.w3.org/1999/xlink">
<g id="graph0" class="graph" transform="scale(1 1) rotate(0) translate(4 244)">
<title>ad_framework::data_structure::Rectangle</title>
<polygon fill="white" stroke="transparent" points="-4,4 -4,-244 375,-244 375,4 -4,4"/>
<!-- Node1 -->
<g id="node1" class="node">
<title>Node1</title>
<g id="a_node1"><a xlink:title=" ">
<polygon fill="#bfbfbf" stroke="black" points="0,-0.5 0,-112.5 371,-112.5 371,-0.5 0,-0.5"/>
<text text-anchor="middle" x="185.5" y="-100.5" font-family="Helvetica,sans-Serif" font-size="10.00">ad_framework::data_structure::Rectangle</text>
<polyline fill="none" stroke="black" points="0,-93.5 371,-93.5 "/>
<text text-anchor="start" x="8" y="-81.5" font-family="Helvetica,sans-Serif" font-size="10.00">+ Point center</text>
<text text-anchor="start" x="8" y="-70.5" font-family="Helvetica,sans-Serif" font-size="10.00">+ Point size</text>
<text text-anchor="start" x="8" y="-59.5" font-family="Helvetica,sans-Serif" font-size="10.00">&#45; Eigen::Vector3d center_</text>
<text text-anchor="start" x="8" y="-48.5" font-family="Helvetica,sans-Serif" font-size="10.00">&#45; Eigen::Vector3d size_</text>
<polyline fill="none" stroke="black" points="0,-41.5 371,-41.5 "/>
<text text-anchor="start" x="8" y="-29.5" font-family="Helvetica,sans-Serif" font-size="10.00">+ Rectangle(const Eigen::Vector3d &amp;center, const Eigen::Vector3d &amp;size)</text>
<text text-anchor="start" x="8" y="-18.5" font-family="Helvetica,sans-Serif" font-size="10.00">+ bool IsIn(const Eigen::Vector3d &amp;point) const override</text>
<text text-anchor="start" x="8" y="-7.5" font-family="Helvetica,sans-Serif" font-size="10.00">+ std::string ToString() const override</text>
</a>
</g>
</g>
<!-- Node2 -->
<g id="node2" class="node">
<title>Node2</title>
<g id="a_node2"><a xlink:href="classad__framework_1_1data__structure_1_1Shape.html" target="_top" xlink:title=" ">
<polygon fill="white" stroke="black" points="36.5,-149.5 36.5,-239.5 334.5,-239.5 334.5,-149.5 36.5,-149.5"/>
<text text-anchor="middle" x="185.5" y="-227.5" font-family="Helvetica,sans-Serif" font-size="10.00">ad_framework::data_structure::Shape</text>
<polyline fill="none" stroke="black" points="36.5,-220.5 334.5,-220.5 "/>
<text text-anchor="middle" x="185.5" y="-208.5" font-family="Helvetica,sans-Serif" font-size="10.00"> </text>
<polyline fill="none" stroke="black" points="36.5,-201.5 334.5,-201.5 "/>
<text text-anchor="start" x="44.5" y="-189.5" font-family="Helvetica,sans-Serif" font-size="10.00">+ virtual ~Shape()=default</text>
<text text-anchor="start" x="44.5" y="-178.5" font-family="Helvetica,sans-Serif" font-size="10.00">+ virtual bool IsIn(const Eigen::Vector3d &amp;point) const =0</text>
<text text-anchor="start" x="44.5" y="-167.5" font-family="Helvetica,sans-Serif" font-size="10.00">+ virtual std::string ToString() const =0</text>
<text text-anchor="start" x="44.5" y="-156.5" font-family="Helvetica,sans-Serif" font-size="10.00">+ virtual ~Shape()=default</text>
</a>
</g>
</g>
<!-- Node2&#45;&gt;Node1 -->
<g id="edge1" class="edge">
<title>Node2&#45;&gt;Node1</title>
<path fill="none" stroke="midnightblue" d="M178.88,-139.31C178.72,-130.61 178.71,-121.59 178.85,-112.87"/>
<polygon fill="none" stroke="midnightblue" points="175.38,-139.44 179.13,-149.34 182.37,-139.26 175.38,-139.44"/>
</g>
<!-- Node2&#45;&gt;Node1 -->
<g id="edge2" class="edge">
<title>Node2&#45;&gt;Node1</title>
<path fill="none" stroke="midnightblue" d="M192.12,-139.31C192.28,-130.61 192.29,-121.59 192.15,-112.87"/>
<polygon fill="none" stroke="midnightblue" points="188.63,-139.26 191.87,-149.34 195.62,-139.44 188.63,-139.26"/>
</g>
</g>
</svg>
