<?xml version="1.0" encoding="UTF-8" standalone="no"?>
<!DOCTYPE svg PUBLIC "-//W3C//DTD SVG 1.1//EN"
 "http://www.w3.org/Graphics/SVG/1.1/DTD/svg11.dtd">
<!-- Generated by graphviz version 2.43.0 (0)
 -->
<!-- Title: ad_framework::application::Window Pages: 1 -->
<svg width="380pt" height="237pt"
 viewBox="0.00 0.00 380.00 237.00" xmlns="http://www.w3.org/2000/svg" xmlns:xlink="http://www.w3.org/1999/xlink">
<g id="graph0" class="graph" transform="scale(1 1) rotate(0) translate(4 233)">
<title>ad_framework::application::Window</title>
<polygon fill="white" stroke="transparent" points="-4,4 -4,-233 376,-233 376,4 -4,4"/>
<!-- Node1 -->
<g id="node1" class="node">
<title>Node1</title>
<g id="a_node1"><a xlink:title=" ">
<polygon fill="#bfbfbf" stroke="black" points="78,-0.5 78,-112.5 270,-112.5 270,-0.5 78,-0.5"/>
<text text-anchor="middle" x="174" y="-100.5" font-family="Helvetica,sans-Serif" font-size="10.00">ad_framework::application::Window</text>
<polyline fill="none" stroke="black" points="78,-93.5 270,-93.5 "/>
<text text-anchor="middle" x="174" y="-81.5" font-family="Helvetica,sans-Serif" font-size="10.00"> </text>
<polyline fill="none" stroke="black" points="78,-74.5 270,-74.5 "/>
<text text-anchor="start" x="86" y="-62.5" font-family="Helvetica,sans-Serif" font-size="10.00">+ Window()</text>
<text text-anchor="start" x="86" y="-51.5" font-family="Helvetica,sans-Serif" font-size="10.00">+ ~Window()=default</text>
<text text-anchor="start" x="86" y="-40.5" font-family="Helvetica,sans-Serif" font-size="10.00">+ bool IsOpen() const</text>
<text text-anchor="start" x="86" y="-29.5" font-family="Helvetica,sans-Serif" font-size="10.00">+ void Render() const</text>
<text text-anchor="start" x="86" y="-18.5" font-family="Helvetica,sans-Serif" font-size="10.00">+ void NewFrame() const</text>
<text text-anchor="start" x="86" y="-7.5" font-family="Helvetica,sans-Serif" font-size="10.00">+ ImVec2 GetSize() const</text>
</a>
</g>
</g>
<!-- Node2 -->
<g id="node2" class="node">
<title>Node2</title>
<g id="a_node2"><a xlink:title=" ">
<polygon fill="white" stroke="#bfbfbf" points="0,-171.5 0,-228.5 110,-228.5 110,-171.5 0,-171.5"/>
<text text-anchor="middle" x="55" y="-216.5" font-family="Helvetica,sans-Serif" font-size="10.00">static constexpr int</text>
<polyline fill="none" stroke="#bfbfbf" points="0,-209.5 110,-209.5 "/>
<text text-anchor="middle" x="55" y="-197.5" font-family="Helvetica,sans-Serif" font-size="10.00"> </text>
<polyline fill="none" stroke="#bfbfbf" points="0,-190.5 110,-190.5 "/>
<text text-anchor="middle" x="55" y="-178.5" font-family="Helvetica,sans-Serif" font-size="10.00"> </text>
</a>
</g>
</g>
<!-- Node2&#45;&gt;Node1 -->
<g id="edge1" class="edge">
<title>Node2&#45;&gt;Node1</title>
<path fill="none" stroke="#404040" d="M78.23,-171.38C90.1,-157.27 105.08,-139.45 119.65,-122.12"/>
<polygon fill="none" stroke="#404040" points="119.96,-121.76 120.76,-114.59 127.68,-112.57 126.88,-119.74 119.96,-121.76"/>
<text text-anchor="middle" x="134" y="-145" font-family="Helvetica,sans-Serif" font-size="10.00"> &#45;kHeight</text>
<text text-anchor="middle" x="134" y="-134" font-family="Helvetica,sans-Serif" font-size="10.00">&#45;kWidth</text>
</g>
<!-- Node3 -->
<g id="node3" class="node">
<title>Node3</title>
<g id="a_node3"><a xlink:title=" ">
<polygon fill="white" stroke="#bfbfbf" points="128.5,-171.5 128.5,-228.5 219.5,-228.5 219.5,-171.5 128.5,-171.5"/>
<text text-anchor="middle" x="174" y="-216.5" font-family="Helvetica,sans-Serif" font-size="10.00">GLFWwindow *</text>
<polyline fill="none" stroke="#bfbfbf" points="128.5,-209.5 219.5,-209.5 "/>
<text text-anchor="middle" x="174" y="-197.5" font-family="Helvetica,sans-Serif" font-size="10.00"> </text>
<polyline fill="none" stroke="#bfbfbf" points="128.5,-190.5 219.5,-190.5 "/>
<text text-anchor="middle" x="174" y="-178.5" font-family="Helvetica,sans-Serif" font-size="10.00"> </text>
</a>
</g>
</g>
<!-- Node3&#45;&gt;Node1 -->
<g id="edge2" class="edge">
<title>Node3&#45;&gt;Node1</title>
<path fill="none" stroke="#404040" d="M174,-171.38C174,-158.05 174,-141.42 174,-125.01"/>
<polygon fill="none" stroke="#404040" points="174,-124.57 170,-118.57 174,-112.57 178,-118.57 174,-124.57"/>
<text text-anchor="middle" x="199" y="-139.5" font-family="Helvetica,sans-Serif" font-size="10.00"> &#45;window_</text>
</g>
<!-- Node4 -->
<g id="node4" class="node">
<title>Node4</title>
<g id="a_node4"><a xlink:title=" ">
<polygon fill="white" stroke="#bfbfbf" points="238,-171.5 238,-228.5 372,-228.5 372,-171.5 238,-171.5"/>
<text text-anchor="middle" x="305" y="-216.5" font-family="Helvetica,sans-Serif" font-size="10.00">static constexpr ImVec4</text>
<polyline fill="none" stroke="#bfbfbf" points="238,-209.5 372,-209.5 "/>
<text text-anchor="middle" x="305" y="-197.5" font-family="Helvetica,sans-Serif" font-size="10.00"> </text>
<polyline fill="none" stroke="#bfbfbf" points="238,-190.5 372,-190.5 "/>
<text text-anchor="middle" x="305" y="-178.5" font-family="Helvetica,sans-Serif" font-size="10.00"> </text>
</a>
</g>
</g>
<!-- Node4&#45;&gt;Node1 -->
<g id="edge3" class="edge">
<title>Node4&#45;&gt;Node1</title>
<path fill="none" stroke="#404040" d="M279.43,-171.38C266.24,-157.14 249.56,-139.12 233.38,-121.64"/>
<polygon fill="none" stroke="#404040" points="233.14,-121.38 226.13,-119.7 224.99,-112.57 232,-114.26 233.14,-121.38"/>
<text text-anchor="middle" x="290" y="-139.5" font-family="Helvetica,sans-Serif" font-size="10.00"> &#45;kClearColor</text>
</g>
</g>
</svg>
