<?xml version="1.0" encoding="UTF-8" standalone="no"?>
<!DOCTYPE svg PUBLIC "-//W3C//DTD SVG 1.1//EN"
 "http://www.w3.org/Graphics/SVG/1.1/DTD/svg11.dtd">
<!-- Generated by graphviz version 2.43.0 (0)
 -->
<!-- Title: ad_framework::ui::UserInterface Pages: 1 -->
<svg width="662pt" height="419pt"
 viewBox="0.00 0.00 661.50 419.00" xmlns="http://www.w3.org/2000/svg" xmlns:xlink="http://www.w3.org/1999/xlink">
<g id="graph0" class="graph" transform="scale(1 1) rotate(0) translate(4 415)">
<title>ad_framework::ui::UserInterface</title>
<polygon fill="white" stroke="transparent" points="-4,4 -4,-415 657.5,-415 657.5,4 -4,4"/>
<!-- Node1 -->
<g id="node1" class="node">
<title>Node1</title>
<g id="a_node1"><a xlink:title=" ">
<polygon fill="#bfbfbf" stroke="black" points="144,-138.5 144,-316.5 563,-316.5 563,-138.5 144,-138.5"/>
<text text-anchor="middle" x="353.5" y="-304.5" font-family="Helvetica,sans-Serif" font-size="10.00">ad_framework::ui::UserInterface</text>
<polyline fill="none" stroke="black" points="144,-297.5 563,-297.5 "/>
<text text-anchor="start" x="152" y="-285.5" font-family="Helvetica,sans-Serif" font-size="10.00">&#45; std::string title_</text>
<text text-anchor="start" x="152" y="-274.5" font-family="Helvetica,sans-Serif" font-size="10.00">&#45; UserInterfacePtr parent_</text>
<text text-anchor="start" x="152" y="-263.5" font-family="Helvetica,sans-Serif" font-size="10.00">&#45; ImVec2 size_</text>
<text text-anchor="start" x="152" y="-252.5" font-family="Helvetica,sans-Serif" font-size="10.00">&#45; ImVec2 pos_</text>
<polyline fill="none" stroke="black" points="144,-245.5 563,-245.5 "/>
<text text-anchor="start" x="152" y="-233.5" font-family="Helvetica,sans-Serif" font-size="10.00">+ UserInterface(std::string title, ImVec2 size, ImVec2 pos, UserInterfacePtr parent)</text>
<text text-anchor="start" x="152" y="-222.5" font-family="Helvetica,sans-Serif" font-size="10.00">+ virtual ~UserInterface()=default</text>
<text text-anchor="start" x="152" y="-211.5" font-family="Helvetica,sans-Serif" font-size="10.00">+ virtual void operator()()=0</text>
<text text-anchor="start" x="152" y="-200.5" font-family="Helvetica,sans-Serif" font-size="10.00">+ std::string Title() const</text>
<text text-anchor="start" x="152" y="-189.5" font-family="Helvetica,sans-Serif" font-size="10.00">+ void Rename(std::string title)</text>
<text text-anchor="start" x="152" y="-178.5" font-family="Helvetica,sans-Serif" font-size="10.00">+ ImVec2 Size() const</text>
<text text-anchor="start" x="152" y="-167.5" font-family="Helvetica,sans-Serif" font-size="10.00">+ ImVec2 Pos() const</text>
<text text-anchor="start" x="152" y="-156.5" font-family="Helvetica,sans-Serif" font-size="10.00">+ void Resize(ImVec2 size)</text>
<text text-anchor="start" x="152" y="-145.5" font-family="Helvetica,sans-Serif" font-size="10.00">+ void Move(ImVec2 pos)</text>
</a>
</g>
</g>
<!-- Node3 -->
<g id="node3" class="node">
<title>Node3</title>
<g id="a_node3"><a xlink:href="classad__framework_1_1ui_1_1Button.html" target="_top" xlink:title=" ">
<polygon fill="white" stroke="black" points="0,-0.5 0,-101.5 371,-101.5 371,-0.5 0,-0.5"/>
<text text-anchor="middle" x="185.5" y="-89.5" font-family="Helvetica,sans-Serif" font-size="10.00">ad_framework::ui::Button</text>
<polyline fill="none" stroke="black" points="0,-82.5 371,-82.5 "/>
<text text-anchor="start" x="8" y="-70.5" font-family="Helvetica,sans-Serif" font-size="10.00">&#45; CallbackPtr callback_</text>
<polyline fill="none" stroke="black" points="0,-63.5 371,-63.5 "/>
<text text-anchor="start" x="8" y="-51.5" font-family="Helvetica,sans-Serif" font-size="10.00">+ Button(std::string title, ImVec2 size, ImVec2 pos, CallbackPtr callback)</text>
<text text-anchor="start" x="8" y="-40.5" font-family="Helvetica,sans-Serif" font-size="10.00">+ Button(std::string title, ImVec2 size, ImVec2 pos)</text>
<text text-anchor="start" x="8" y="-29.5" font-family="Helvetica,sans-Serif" font-size="10.00">+ Button(std::string title, CallbackPtr callback)</text>
<text text-anchor="start" x="8" y="-18.5" font-family="Helvetica,sans-Serif" font-size="10.00">+ Button(std::string title)</text>
<text text-anchor="start" x="8" y="-7.5" font-family="Helvetica,sans-Serif" font-size="10.00">+ void operator()() override</text>
</a>
</g>
</g>
<!-- Node1&#45;&gt;Node3 -->
<g id="edge2" class="edge">
<title>Node1&#45;&gt;Node3</title>
<path fill="none" stroke="midnightblue" d="M261.6,-131.05C251.8,-120.87 242.14,-110.83 233.17,-101.51"/>
<polygon fill="none" stroke="midnightblue" points="259.3,-133.71 268.76,-138.48 264.35,-128.85 259.3,-133.71"/>
</g>
<!-- Node4 -->
<g id="node4" class="node">
<title>Node4</title>
<g id="a_node4"><a xlink:href="classad__framework_1_1ui_1_1Frame.html" target="_top" xlink:title=" ">
<polygon fill="white" stroke="black" points="389.5,-6 389.5,-96 653.5,-96 653.5,-6 389.5,-6"/>
<text text-anchor="middle" x="521.5" y="-84" font-family="Helvetica,sans-Serif" font-size="10.00">ad_framework::ui::Frame</text>
<polyline fill="none" stroke="black" points="389.5,-77 653.5,-77 "/>
<text text-anchor="start" x="397.5" y="-65" font-family="Helvetica,sans-Serif" font-size="10.00">&#45; std::vector&lt; UserInterfacePtr &gt; uis_</text>
<polyline fill="none" stroke="black" points="389.5,-58 653.5,-58 "/>
<text text-anchor="start" x="397.5" y="-46" font-family="Helvetica,sans-Serif" font-size="10.00">+ Frame(std::string title, ImVec2 size, ImVec2 pos)</text>
<text text-anchor="start" x="397.5" y="-35" font-family="Helvetica,sans-Serif" font-size="10.00">+ Frame(std::string title)</text>
<text text-anchor="start" x="397.5" y="-24" font-family="Helvetica,sans-Serif" font-size="10.00">+ void operator()() override</text>
<text text-anchor="start" x="397.5" y="-13" font-family="Helvetica,sans-Serif" font-size="10.00">+ void AddUI(UserInterfacePtr ui)</text>
</a>
</g>
</g>
<!-- Node1&#45;&gt;Node4 -->
<g id="edge3" class="edge">
<title>Node1&#45;&gt;Node4</title>
<path fill="none" stroke="midnightblue" d="M445.21,-131.24C457.03,-118.96 468.64,-106.9 479.1,-96.04"/>
<polygon fill="none" stroke="midnightblue" points="442.65,-128.85 438.24,-138.48 447.7,-133.71 442.65,-128.85"/>
</g>
<!-- Node2 -->
<g id="node2" class="node">
<title>Node2</title>
<g id="a_node2"><a xlink:title=" ">
<polygon fill="white" stroke="#bfbfbf" points="229,-353.5 229,-410.5 478,-410.5 478,-353.5 229,-353.5"/>
<text text-anchor="middle" x="353.5" y="-398.5" font-family="Helvetica,sans-Serif" font-size="10.00">std::enable_shared_from_this&lt; UserInterface &gt;</text>
<polyline fill="none" stroke="#bfbfbf" points="229,-391.5 478,-391.5 "/>
<text text-anchor="middle" x="353.5" y="-379.5" font-family="Helvetica,sans-Serif" font-size="10.00"> </text>
<polyline fill="none" stroke="#bfbfbf" points="229,-372.5 478,-372.5 "/>
<text text-anchor="middle" x="353.5" y="-360.5" font-family="Helvetica,sans-Serif" font-size="10.00"> </text>
</a>
</g>
</g>
<!-- Node2&#45;&gt;Node1 -->
<g id="edge1" class="edge">
<title>Node2&#45;&gt;Node1</title>
<path fill="none" stroke="midnightblue" d="M353.5,-343.37C353.5,-335.09 353.5,-325.98 353.5,-316.62"/>
<polygon fill="none" stroke="midnightblue" points="350,-343.38 353.5,-353.38 357,-343.38 350,-343.38"/>
</g>
</g>
</svg>
