<?xml version="1.0" encoding="UTF-8" standalone="no"?>
<!DOCTYPE svg PUBLIC "-//W3C//DTD SVG 1.1//EN"
 "http://www.w3.org/Graphics/SVG/1.1/DTD/svg11.dtd">
<!-- Generated by graphviz version 2.43.0 (0)
 -->
<!-- Title: ad_framework::DataReader::LoadIndex Pages: 1 -->
<svg width="520pt" height="180pt"
 viewBox="0.00 0.00 520.00 180.00" xmlns="http://www.w3.org/2000/svg" xmlns:xlink="http://www.w3.org/1999/xlink">
<g id="graph0" class="graph" transform="scale(1 1) rotate(0) translate(4 176)">
<title>ad_framework::DataReader::LoadIndex</title>
<polygon fill="white" stroke="transparent" points="-4,4 -4,-176 516,-176 516,4 -4,4"/>
<!-- Node1 -->
<g id="node1" class="node">
<title>Node1</title>
<g id="a_node1"><a xlink:title=" ">
<polygon fill="#bfbfbf" stroke="black" points="0,-76.5 0,-95.5 207,-95.5 207,-76.5 0,-76.5"/>
<text text-anchor="middle" x="103.5" y="-83.5" font-family="Helvetica,sans-Serif" font-size="10.00">ad_framework::DataReader::LoadIndex</text>
</a>
</g>
</g>
<!-- Node2 -->
<g id="node2" class="node">
<title>Node2</title>
<g id="a_node2"><a xlink:href="classad__framework_1_1DataReader.html#a1ecaf04ac61406db32f4607e2c512aaf" target="_top" xlink:title=" ">
<polygon fill="white" stroke="black" points="258.5,-152.5 258.5,-171.5 496.5,-171.5 496.5,-152.5 258.5,-152.5"/>
<text text-anchor="middle" x="377.5" y="-159.5" font-family="Helvetica,sans-Serif" font-size="10.00">ad_framework::DataReader::ReadColorImage</text>
</a>
</g>
</g>
<!-- Node1&#45;&gt;Node2 -->
<g id="edge1" class="edge">
<title>Node1&#45;&gt;Node2</title>
<path fill="none" stroke="midnightblue" d="M123.69,-95.7C149.94,-108.54 198.85,-130.97 243,-143 254.12,-146.03 265.89,-148.59 277.67,-150.76"/>
<polygon fill="midnightblue" stroke="midnightblue" points="277.09,-154.21 287.54,-152.49 278.29,-147.32 277.09,-154.21"/>
</g>
<!-- Node3 -->
<g id="node3" class="node">
<title>Node3</title>
<g id="a_node3"><a xlink:href="classad__framework_1_1DataReader.html#ac4dd904424174b4457a25fff79b763cd" target="_top" xlink:title=" ">
<polygon fill="white" stroke="black" points="243,-114.5 243,-133.5 512,-133.5 512,-114.5 243,-114.5"/>
<text text-anchor="middle" x="377.5" y="-121.5" font-family="Helvetica,sans-Serif" font-size="10.00">ad_framework::DataReader::ReadColorStereoImage</text>
</a>
</g>
</g>
<!-- Node1&#45;&gt;Node3 -->
<g id="edge2" class="edge">
<title>Node1&#45;&gt;Node3</title>
<path fill="none" stroke="midnightblue" d="M172.79,-95.54C210.86,-100.86 258.44,-107.51 298.04,-113.04"/>
<polygon fill="midnightblue" stroke="midnightblue" points="297.8,-116.54 308.19,-114.46 298.77,-109.61 297.8,-116.54"/>
</g>
<!-- Node4 -->
<g id="node4" class="node">
<title>Node4</title>
<g id="a_node4"><a xlink:href="classad__framework_1_1DataReader.html#af8f4e793fb6b724f950a213c362d375b" target="_top" xlink:title=" ">
<polygon fill="white" stroke="black" points="259.5,-76.5 259.5,-95.5 495.5,-95.5 495.5,-76.5 259.5,-76.5"/>
<text text-anchor="middle" x="377.5" y="-83.5" font-family="Helvetica,sans-Serif" font-size="10.00">ad_framework::DataReader::ReadGrayImage</text>
</a>
</g>
</g>
<!-- Node1&#45;&gt;Node4 -->
<g id="edge3" class="edge">
<title>Node1&#45;&gt;Node4</title>
<path fill="none" stroke="midnightblue" d="M207.33,-86C221.01,-86 235.17,-86 249.2,-86"/>
<polygon fill="midnightblue" stroke="midnightblue" points="249.39,-89.5 259.39,-86 249.39,-82.5 249.39,-89.5"/>
</g>
<!-- Node5 -->
<g id="node5" class="node">
<title>Node5</title>
<g id="a_node5"><a xlink:href="classad__framework_1_1DataReader.html#a20df4e12f0bc208ed61e281403caa975" target="_top" xlink:title=" ">
<polygon fill="white" stroke="black" points="244,-38.5 244,-57.5 511,-57.5 511,-38.5 244,-38.5"/>
<text text-anchor="middle" x="377.5" y="-45.5" font-family="Helvetica,sans-Serif" font-size="10.00">ad_framework::DataReader::ReadGrayStereoImage</text>
</a>
</g>
</g>
<!-- Node1&#45;&gt;Node5 -->
<g id="edge4" class="edge">
<title>Node1&#45;&gt;Node5</title>
<path fill="none" stroke="midnightblue" d="M172.79,-76.46C210.86,-71.14 258.44,-64.49 298.04,-58.96"/>
<polygon fill="midnightblue" stroke="midnightblue" points="298.77,-62.39 308.19,-57.54 297.8,-55.46 298.77,-62.39"/>
</g>
<!-- Node6 -->
<g id="node6" class="node">
<title>Node6</title>
<g id="a_node6"><a xlink:href="classad__framework_1_1DataReader.html#ae8743f742e91e4b0105df800f81dd9a5" target="_top" xlink:title=" ">
<polygon fill="white" stroke="black" points="260.5,-0.5 260.5,-19.5 494.5,-19.5 494.5,-0.5 260.5,-0.5"/>
<text text-anchor="middle" x="377.5" y="-7.5" font-family="Helvetica,sans-Serif" font-size="10.00">ad_framework::DataReader::ReadPointCloud</text>
</a>
</g>
</g>
<!-- Node1&#45;&gt;Node6 -->
<g id="edge5" class="edge">
<title>Node1&#45;&gt;Node6</title>
<path fill="none" stroke="midnightblue" d="M123.69,-76.3C149.94,-63.46 198.85,-41.03 243,-29 254.12,-25.97 265.89,-23.41 277.67,-21.24"/>
<polygon fill="midnightblue" stroke="midnightblue" points="278.29,-24.68 287.54,-19.51 277.09,-17.79 278.29,-24.68"/>
</g>
</g>
</svg>
