<?xml version="1.0" encoding="UTF-8" standalone="no"?>
<!DOCTYPE svg PUBLIC "-//W3C//DTD SVG 1.1//EN"
 "http://www.w3.org/Graphics/SVG/1.1/DTD/svg11.dtd">
<!-- Generated by graphviz version 2.43.0 (0)
 -->
<!-- Title: ad_framework::data_structure::Circle Pages: 1 -->
<svg width="494pt" height="215pt"
 viewBox="0.00 0.00 494.00 215.00" xmlns="http://www.w3.org/2000/svg" xmlns:xlink="http://www.w3.org/1999/xlink">
<g id="graph0" class="graph" transform="scale(1 1) rotate(0) translate(4 211)">
<title>ad_framework::data_structure::Circle</title>
<polygon fill="white" stroke="transparent" points="-4,4 -4,-211 490,-211 490,4 -4,4"/>
<!-- Node1 -->
<g id="node1" class="node">
<title>Node1</title>
<g id="a_node1"><a xlink:title=" ">
<polygon fill="#bfbfbf" stroke="black" points="196,-0.5 196,-79.5 486,-79.5 486,-0.5 196,-0.5"/>
<text text-anchor="middle" x="341" y="-67.5" font-family="Helvetica,sans-Serif" font-size="10.00">ad_framework::data_structure::Circle</text>
<polyline fill="none" stroke="black" points="196,-60.5 486,-60.5 "/>
<text text-anchor="middle" x="341" y="-48.5" font-family="Helvetica,sans-Serif" font-size="10.00"> </text>
<polyline fill="none" stroke="black" points="196,-41.5 486,-41.5 "/>
<text text-anchor="start" x="204" y="-29.5" font-family="Helvetica,sans-Serif" font-size="10.00">+ Circle(const Eigen::Vector3d &amp;center, double radius)</text>
<text text-anchor="start" x="204" y="-18.5" font-family="Helvetica,sans-Serif" font-size="10.00">+ bool IsIn(const Eigen::Vector3d &amp;point) const override</text>
<text text-anchor="start" x="204" y="-7.5" font-family="Helvetica,sans-Serif" font-size="10.00">+ std::string ToString() const override</text>
</a>
</g>
</g>
<!-- Node2 -->
<g id="node2" class="node">
<title>Node2</title>
<g id="a_node2"><a xlink:href="classad__framework_1_1data__structure_1_1Shape.html" target="_top" xlink:title=" ">
<polygon fill="white" stroke="black" points="0,-127.5 0,-206.5 298,-206.5 298,-127.5 0,-127.5"/>
<text text-anchor="middle" x="149" y="-194.5" font-family="Helvetica,sans-Serif" font-size="10.00">ad_framework::data_structure::Shape</text>
<polyline fill="none" stroke="black" points="0,-187.5 298,-187.5 "/>
<text text-anchor="middle" x="149" y="-175.5" font-family="Helvetica,sans-Serif" font-size="10.00"> </text>
<polyline fill="none" stroke="black" points="0,-168.5 298,-168.5 "/>
<text text-anchor="start" x="8" y="-156.5" font-family="Helvetica,sans-Serif" font-size="10.00">+ virtual ~Shape()=default</text>
<text text-anchor="start" x="8" y="-145.5" font-family="Helvetica,sans-Serif" font-size="10.00">+ virtual bool IsIn(const Eigen::Vector3d &amp;point) const =0</text>
<text text-anchor="start" x="8" y="-134.5" font-family="Helvetica,sans-Serif" font-size="10.00">+ virtual std::string ToString() const =0</text>
</a>
</g>
</g>
<!-- Node2&#45;&gt;Node1 -->
<g id="edge1" class="edge">
<title>Node2&#45;&gt;Node1</title>
<path fill="none" stroke="midnightblue" d="M216.8,-121.86C237.97,-108.08 261.15,-92.99 281.69,-79.61"/>
<polygon fill="none" stroke="midnightblue" points="214.64,-119.09 208.17,-127.48 218.46,-124.95 214.64,-119.09"/>
</g>
<!-- Node3 -->
<g id="node3" class="node">
<title>Node3</title>
<g id="a_node3"><a xlink:title=" ">
<polygon fill="white" stroke="#bfbfbf" points="316,-138.5 316,-195.5 366,-195.5 366,-138.5 316,-138.5"/>
<text text-anchor="middle" x="341" y="-183.5" font-family="Helvetica,sans-Serif" font-size="10.00">double</text>
<polyline fill="none" stroke="#bfbfbf" points="316,-176.5 366,-176.5 "/>
<text text-anchor="middle" x="341" y="-164.5" font-family="Helvetica,sans-Serif" font-size="10.00"> </text>
<polyline fill="none" stroke="#bfbfbf" points="316,-157.5 366,-157.5 "/>
<text text-anchor="middle" x="341" y="-145.5" font-family="Helvetica,sans-Serif" font-size="10.00"> </text>
</a>
</g>
</g>
<!-- Node3&#45;&gt;Node1 -->
<g id="edge2" class="edge">
<title>Node3&#45;&gt;Node1</title>
<path fill="none" stroke="#404040" d="M341,-138.26C341,-124.64 341,-107.79 341,-91.96"/>
<polygon fill="none" stroke="#404040" points="341,-91.57 337,-85.57 341,-79.57 345,-85.57 341,-91.57"/>
<text text-anchor="middle" x="362.5" y="-101" font-family="Helvetica,sans-Serif" font-size="10.00"> &#45;radius_</text>
</g>
<!-- Node4 -->
<g id="node4" class="node">
<title>Node4</title>
<g id="a_node4"><a xlink:title=" ">
<polygon fill="white" stroke="#bfbfbf" points="384.5,-138.5 384.5,-195.5 443.5,-195.5 443.5,-138.5 384.5,-138.5"/>
<text text-anchor="middle" x="414" y="-183.5" font-family="Helvetica,sans-Serif" font-size="10.00">Vector3d</text>
<polyline fill="none" stroke="#bfbfbf" points="384.5,-176.5 443.5,-176.5 "/>
<text text-anchor="middle" x="414" y="-164.5" font-family="Helvetica,sans-Serif" font-size="10.00"> </text>
<polyline fill="none" stroke="#bfbfbf" points="384.5,-157.5 443.5,-157.5 "/>
<text text-anchor="middle" x="414" y="-145.5" font-family="Helvetica,sans-Serif" font-size="10.00"> </text>
</a>
</g>
</g>
<!-- Node4&#45;&gt;Node1 -->
<g id="edge3" class="edge">
<title>Node4&#45;&gt;Node1</title>
<path fill="none" stroke="#404040" d="M405.68,-138.27C401.3,-125.56 395.31,-110.56 388,-98 386.36,-95.19 384.59,-92.37 382.72,-89.58"/>
<polygon fill="none" stroke="#404040" points="382.59,-89.41 375.85,-86.85 375.62,-79.65 382.36,-82.2 382.59,-89.41"/>
<text text-anchor="middle" x="414.5" y="-101" font-family="Helvetica,sans-Serif" font-size="10.00"> &#45;center_</text>
</g>
</g>
</svg>
