<?xml version="1.0" encoding="UTF-8" standalone="no"?>
<!DOCTYPE svg PUBLIC "-//W3C//DTD SVG 1.1//EN"
 "http://www.w3.org/Graphics/SVG/1.1/DTD/svg11.dtd">
<!-- Generated by graphviz version 2.43.0 (0)
 -->
<!-- Title: ad_framework::ui::Button Pages: 1 -->
<svg width="733pt" height="619pt"
 viewBox="0.00 0.00 733.00 619.00" xmlns="http://www.w3.org/2000/svg" xmlns:xlink="http://www.w3.org/1999/xlink">
<g id="graph0" class="graph" transform="scale(1 1) rotate(0) translate(4 615)">
<title>ad_framework::ui::Button</title>
<polygon fill="white" stroke="transparent" points="-4,4 -4,-615 729,-615 729,4 -4,4"/>
<!-- Node1 -->
<g id="node1" class="node">
<title>Node1</title>
<g id="a_node1"><a xlink:title=" ">
<polygon fill="#bfbfbf" stroke="black" points="354,-0.5 354,-101.5 725,-101.5 725,-0.5 354,-0.5"/>
<text text-anchor="middle" x="539.5" y="-89.5" font-family="Helvetica,sans-Serif" font-size="10.00">ad_framework::ui::Button</text>
<polyline fill="none" stroke="black" points="354,-82.5 725,-82.5 "/>
<text text-anchor="middle" x="539.5" y="-70.5" font-family="Helvetica,sans-Serif" font-size="10.00"> </text>
<polyline fill="none" stroke="black" points="354,-63.5 725,-63.5 "/>
<text text-anchor="start" x="362" y="-51.5" font-family="Helvetica,sans-Serif" font-size="10.00">+ Button(std::string title, ImVec2 size, ImVec2 pos, CallbackPtr callback)</text>
<text text-anchor="start" x="362" y="-40.5" font-family="Helvetica,sans-Serif" font-size="10.00">+ Button(std::string title, ImVec2 size, ImVec2 pos)</text>
<text text-anchor="start" x="362" y="-29.5" font-family="Helvetica,sans-Serif" font-size="10.00">+ Button(std::string title, CallbackPtr callback)</text>
<text text-anchor="start" x="362" y="-18.5" font-family="Helvetica,sans-Serif" font-size="10.00">+ Button(std::string title)</text>
<text text-anchor="start" x="362" y="-7.5" font-family="Helvetica,sans-Serif" font-size="10.00">+ void operator()() override</text>
</a>
</g>
</g>
<!-- Node2 -->
<g id="node2" class="node">
<title>Node2</title>
<g id="a_node2"><a xlink:href="classad__framework_1_1ui_1_1UserInterface.html" target="_top" xlink:title=" ">
<polygon fill="white" stroke="black" points="205,-139.5 205,-284.5 624,-284.5 624,-139.5 205,-139.5"/>
<text text-anchor="middle" x="414.5" y="-272.5" font-family="Helvetica,sans-Serif" font-size="10.00">ad_framework::ui::UserInterface</text>
<polyline fill="none" stroke="black" points="205,-265.5 624,-265.5 "/>
<text text-anchor="middle" x="414.5" y="-253.5" font-family="Helvetica,sans-Serif" font-size="10.00"> </text>
<polyline fill="none" stroke="black" points="205,-246.5 624,-246.5 "/>
<text text-anchor="start" x="213" y="-234.5" font-family="Helvetica,sans-Serif" font-size="10.00">+ UserInterface(std::string title, ImVec2 size, ImVec2 pos, UserInterfacePtr parent)</text>
<text text-anchor="start" x="213" y="-223.5" font-family="Helvetica,sans-Serif" font-size="10.00">+ virtual ~UserInterface()=default</text>
<text text-anchor="start" x="213" y="-212.5" font-family="Helvetica,sans-Serif" font-size="10.00">+ virtual void operator()()=0</text>
<text text-anchor="start" x="213" y="-201.5" font-family="Helvetica,sans-Serif" font-size="10.00">+ std::string Title() const</text>
<text text-anchor="start" x="213" y="-190.5" font-family="Helvetica,sans-Serif" font-size="10.00">+ void Rename(std::string title)</text>
<text text-anchor="start" x="213" y="-179.5" font-family="Helvetica,sans-Serif" font-size="10.00">+ ImVec2 Size() const</text>
<text text-anchor="start" x="213" y="-168.5" font-family="Helvetica,sans-Serif" font-size="10.00">+ ImVec2 Pos() const</text>
<text text-anchor="start" x="213" y="-157.5" font-family="Helvetica,sans-Serif" font-size="10.00">+ void Resize(ImVec2 size)</text>
<text text-anchor="start" x="213" y="-146.5" font-family="Helvetica,sans-Serif" font-size="10.00">+ void Move(ImVec2 pos)</text>
</a>
</g>
</g>
<!-- Node2&#45;&gt;Node1 -->
<g id="edge1" class="edge">
<title>Node2&#45;&gt;Node1</title>
<path fill="none" stroke="midnightblue" d="M477.12,-131.35C485.03,-121.29 492.93,-111.23 500.33,-101.82"/>
<polygon fill="none" stroke="midnightblue" points="474.21,-129.38 470.78,-139.41 479.72,-133.71 474.21,-129.38"/>
</g>
<!-- Node3 -->
<g id="node3" class="node">
<title>Node3</title>
<g id="a_node3"><a xlink:title=" ">
<polygon fill="white" stroke="#bfbfbf" points="121,-343.5 121,-400.5 370,-400.5 370,-343.5 121,-343.5"/>
<text text-anchor="middle" x="245.5" y="-388.5" font-family="Helvetica,sans-Serif" font-size="10.00">std::enable_shared_from_this&lt; UserInterface &gt;</text>
<polyline fill="none" stroke="#bfbfbf" points="121,-381.5 370,-381.5 "/>
<text text-anchor="middle" x="245.5" y="-369.5" font-family="Helvetica,sans-Serif" font-size="10.00"> </text>
<polyline fill="none" stroke="#bfbfbf" points="121,-362.5 370,-362.5 "/>
<text text-anchor="middle" x="245.5" y="-350.5" font-family="Helvetica,sans-Serif" font-size="10.00"> </text>
</a>
</g>
</g>
<!-- Node3&#45;&gt;Node2 -->
<g id="edge2" class="edge">
<title>Node3&#45;&gt;Node2</title>
<path fill="none" stroke="midnightblue" d="M282.63,-336.29C298.91,-321.07 318.65,-302.61 337.84,-284.67"/>
<polygon fill="none" stroke="midnightblue" points="279.85,-334.09 274.94,-343.48 284.63,-339.21 279.85,-334.09"/>
</g>
<!-- Node4 -->
<g id="node4" class="node">
<title>Node4</title>
<g id="a_node4"><a xlink:title=" ">
<polygon fill="white" stroke="#bfbfbf" points="388,-343.5 388,-400.5 441,-400.5 441,-343.5 388,-343.5"/>
<text text-anchor="middle" x="414.5" y="-388.5" font-family="Helvetica,sans-Serif" font-size="10.00">ImVec2</text>
<polyline fill="none" stroke="#bfbfbf" points="388,-381.5 441,-381.5 "/>
<text text-anchor="middle" x="414.5" y="-369.5" font-family="Helvetica,sans-Serif" font-size="10.00"> </text>
<polyline fill="none" stroke="#bfbfbf" points="388,-362.5 441,-362.5 "/>
<text text-anchor="middle" x="414.5" y="-350.5" font-family="Helvetica,sans-Serif" font-size="10.00"> </text>
</a>
</g>
</g>
<!-- Node4&#45;&gt;Node2 -->
<g id="edge3" class="edge">
<title>Node4&#45;&gt;Node2</title>
<path fill="none" stroke="#404040" d="M414.5,-343.48C414.5,-330.32 414.5,-313.78 414.5,-296.94"/>
<polygon fill="none" stroke="#404040" points="414.5,-296.67 410.5,-290.67 414.5,-284.67 418.5,-290.67 414.5,-296.67"/>
<text text-anchor="middle" x="429.5" y="-317" font-family="Helvetica,sans-Serif" font-size="10.00"> &#45;pos_</text>
<text text-anchor="middle" x="429.5" y="-306" font-family="Helvetica,sans-Serif" font-size="10.00">&#45;size_</text>
</g>
<!-- Node5 -->
<g id="node5" class="node">
<title>Node5</title>
<g id="a_node5"><a xlink:title=" ">
<polygon fill="white" stroke="#bfbfbf" points="459.5,-343.5 459.5,-400.5 637.5,-400.5 637.5,-343.5 459.5,-343.5"/>
<text text-anchor="middle" x="548.5" y="-388.5" font-family="Helvetica,sans-Serif" font-size="10.00">std::shared_ptr&lt; UserInterface &gt;</text>
<polyline fill="none" stroke="#bfbfbf" points="459.5,-381.5 637.5,-381.5 "/>
<text text-anchor="start" x="467.5" y="-369.5" font-family="Helvetica,sans-Serif" font-size="10.00">+ UserInterface ptr</text>
<polyline fill="none" stroke="#bfbfbf" points="459.5,-362.5 637.5,-362.5 "/>
<text text-anchor="start" x="467.5" y="-350.5" font-family="Helvetica,sans-Serif" font-size="10.00">+ UserInterface * operator&#45;&gt;()</text>
</a>
</g>
</g>
<!-- Node5&#45;&gt;Node2 -->
<g id="edge4" class="edge">
<title>Node5&#45;&gt;Node2</title>
<path fill="none" stroke="#404040" d="M525.16,-343.48C513.35,-329.55 498.33,-311.84 483.19,-293.99"/>
<polygon fill="none" stroke="#404040" points="483.04,-293.82 476.11,-291.83 475.28,-284.67 482.21,-286.66 483.04,-293.82"/>
<text text-anchor="middle" x="530.5" y="-311.5" font-family="Helvetica,sans-Serif" font-size="10.00"> &#45;parent_</text>
</g>
<!-- Node6 -->
<g id="node6" class="node">
<title>Node6</title>
<g id="a_node6"><a xlink:title=" ">
<polygon fill="white" stroke="#bfbfbf" points="550.5,-448.5 550.5,-505.5 668.5,-505.5 668.5,-448.5 550.5,-448.5"/>
<text text-anchor="middle" x="609.5" y="-493.5" font-family="Helvetica,sans-Serif" font-size="10.00">std::shared_ptr&lt; T &gt;</text>
<polyline fill="none" stroke="#bfbfbf" points="550.5,-486.5 668.5,-486.5 "/>
<text text-anchor="middle" x="609.5" y="-474.5" font-family="Helvetica,sans-Serif" font-size="10.00"> </text>
<polyline fill="none" stroke="#bfbfbf" points="550.5,-467.5 668.5,-467.5 "/>
<text text-anchor="start" x="558.5" y="-455.5" font-family="Helvetica,sans-Serif" font-size="10.00">+ T * operator&#45;&gt;()</text>
</a>
</g>
</g>
<!-- Node6&#45;&gt;Node1 -->
<g id="edge9" class="edge">
<title>Node6&#45;&gt;Node1</title>
<path fill="none" stroke="#404040" d="M640.51,-448.33C645,-442.74 648.96,-436.55 651.5,-430 653.27,-425.44 651.66,-423.89 651.5,-419 647.5,-294.36 687.08,-251.6 633.5,-139 628.73,-128.97 622.24,-119.55 614.89,-110.87"/>
<polygon fill="none" stroke="#404040" points="614.68,-110.64 607.69,-108.89 606.61,-101.75 613.61,-103.51 614.68,-110.64"/>
<text text-anchor="middle" x="684" y="-311.5" font-family="Helvetica,sans-Serif" font-size="10.00"> &#45;callback_</text>
</g>
<!-- Node6&#45;&gt;Node5 -->
<g id="edge5" class="edge">
<title>Node6&#45;&gt;Node5</title>
<path fill="none" stroke="orange" d="M566.77,-440.69C564.04,-437.28 561.57,-433.71 559.5,-430 554.54,-421.11 551.78,-410.36 550.26,-400.61"/>
<polygon fill="orange" stroke="orange" points="564.27,-443.14 573.52,-448.31 569.51,-438.5 564.27,-443.14"/>
<text text-anchor="middle" x="605.5" y="-422" font-family="Helvetica,sans-Serif" font-size="10.00"> &lt; UserInterface &gt;</text>
</g>
<!-- Node7 -->
<g id="node7" class="node">
<title>Node7</title>
<g id="a_node7"><a xlink:title=" ">
<polygon fill="white" stroke="#bfbfbf" points="595,-553.5 595,-610.5 624,-610.5 624,-553.5 595,-553.5"/>
<text text-anchor="middle" x="609.5" y="-598.5" font-family="Helvetica,sans-Serif" font-size="10.00">T</text>
<polyline fill="none" stroke="#bfbfbf" points="595,-591.5 624,-591.5 "/>
<text text-anchor="middle" x="609.5" y="-579.5" font-family="Helvetica,sans-Serif" font-size="10.00"> </text>
<polyline fill="none" stroke="#bfbfbf" points="595,-572.5 624,-572.5 "/>
<text text-anchor="middle" x="609.5" y="-560.5" font-family="Helvetica,sans-Serif" font-size="10.00"> </text>
</a>
</g>
</g>
<!-- Node7&#45;&gt;Node6 -->
<g id="edge6" class="edge">
<title>Node7&#45;&gt;Node6</title>
<path fill="none" stroke="#404040" d="M609.5,-553.4C609.5,-542.55 609.5,-529.87 609.5,-518.05"/>
<polygon fill="none" stroke="#404040" points="609.5,-517.68 605.5,-511.68 609.5,-505.68 613.5,-511.68 609.5,-517.68"/>
<text text-anchor="middle" x="622" y="-527" font-family="Helvetica,sans-Serif" font-size="10.00"> +ptr</text>
</g>
<!-- Node8 -->
<g id="node8" class="node">
<title>Node8</title>
<g id="a_node8"><a xlink:title=" ">
<polygon fill="white" stroke="#bfbfbf" points="38,-343.5 38,-400.5 103,-400.5 103,-343.5 38,-343.5"/>
<text text-anchor="middle" x="70.5" y="-388.5" font-family="Helvetica,sans-Serif" font-size="10.00">std::string</text>
<polyline fill="none" stroke="#bfbfbf" points="38,-381.5 103,-381.5 "/>
<text text-anchor="middle" x="70.5" y="-369.5" font-family="Helvetica,sans-Serif" font-size="10.00"> </text>
<polyline fill="none" stroke="#bfbfbf" points="38,-362.5 103,-362.5 "/>
<text text-anchor="middle" x="70.5" y="-350.5" font-family="Helvetica,sans-Serif" font-size="10.00"> </text>
</a>
</g>
</g>
<!-- Node8&#45;&gt;Node2 -->
<g id="edge7" class="edge">
<title>Node8&#45;&gt;Node2</title>
<path fill="none" stroke="#404040" d="M103.16,-348.41C106.28,-346.51 109.42,-344.67 112.5,-343 147.17,-324.18 185.12,-306.06 222.07,-289.61"/>
<polygon fill="none" stroke="#404040" points="222.52,-289.41 226.39,-283.33 233.5,-284.56 229.62,-290.65 222.52,-289.41"/>
<text text-anchor="middle" x="201.5" y="-311.5" font-family="Helvetica,sans-Serif" font-size="10.00"> &#45;title_</text>
</g>
<!-- Node9 -->
<g id="node9" class="node">
<title>Node9</title>
<g id="a_node9"><a xlink:title=" ">
<polygon fill="white" stroke="#bfbfbf" points="0,-448.5 0,-505.5 141,-505.5 141,-448.5 0,-448.5"/>
<text text-anchor="middle" x="70.5" y="-493.5" font-family="Helvetica,sans-Serif" font-size="10.00">std::basic_string&lt; Char &gt;</text>
<polyline fill="none" stroke="#bfbfbf" points="0,-486.5 141,-486.5 "/>
<text text-anchor="middle" x="70.5" y="-474.5" font-family="Helvetica,sans-Serif" font-size="10.00"> </text>
<polyline fill="none" stroke="#bfbfbf" points="0,-467.5 141,-467.5 "/>
<text text-anchor="middle" x="70.5" y="-455.5" font-family="Helvetica,sans-Serif" font-size="10.00"> </text>
</a>
</g>
</g>
<!-- Node9&#45;&gt;Node8 -->
<g id="edge8" class="edge">
<title>Node9&#45;&gt;Node8</title>
<path fill="none" stroke="midnightblue" d="M70.5,-438.29C70.5,-425.84 70.5,-412.23 70.5,-400.68"/>
<polygon fill="none" stroke="midnightblue" points="67,-438.4 70.5,-448.4 74,-438.4 67,-438.4"/>
</g>
</g>
</svg>
