<?xml version="1.0" encoding="UTF-8" standalone="no"?>
<!DOCTYPE svg PUBLIC "-//W3C//DTD SVG 1.1//EN"
 "http://www.w3.org/Graphics/SVG/1.1/DTD/svg11.dtd">
<!-- Generated by graphviz version 2.43.0 (0)
 -->
<!-- Title: ad_framework::application::Pannel Pages: 1 -->
<svg width="686pt" height="469pt"
 viewBox="0.00 0.00 685.50 469.00" xmlns="http://www.w3.org/2000/svg" xmlns:xlink="http://www.w3.org/1999/xlink">
<g id="graph0" class="graph" transform="scale(1 1) rotate(0) translate(4 465)">
<title>ad_framework::application::Pannel</title>
<polygon fill="white" stroke="transparent" points="-4,4 -4,-465 681.5,-465 681.5,4 -4,4"/>
<!-- Node1 -->
<g id="node1" class="node">
<title>Node1</title>
<g id="a_node1"><a xlink:title=" ">
<polygon fill="#bfbfbf" stroke="black" points="205.5,-0.5 205.5,-134.5 596.5,-134.5 596.5,-0.5 205.5,-0.5"/>
<text text-anchor="middle" x="401" y="-122.5" font-family="Helvetica,sans-Serif" font-size="10.00">ad_framework::application::Pannel</text>
<polyline fill="none" stroke="black" points="205.5,-115.5 596.5,-115.5 "/>
<text text-anchor="middle" x="401" y="-103.5" font-family="Helvetica,sans-Serif" font-size="10.00"> </text>
<polyline fill="none" stroke="black" points="205.5,-96.5 596.5,-96.5 "/>
<text text-anchor="start" x="213.5" y="-84.5" font-family="Helvetica,sans-Serif" font-size="10.00">+ Pannel(std::string name, const ImVec2 &amp;position_, const ImVec2 &amp;size_)</text>
<text text-anchor="start" x="213.5" y="-73.5" font-family="Helvetica,sans-Serif" font-size="10.00">+ virtual ~Pannel()=default</text>
<text text-anchor="start" x="213.5" y="-62.5" font-family="Helvetica,sans-Serif" font-size="10.00">+ void Update(DataLoaderPtr dataloader_ptr, DataReaderPtr datareader_ptr)</text>
<text text-anchor="start" x="213.5" y="-51.5" font-family="Helvetica,sans-Serif" font-size="10.00">+ void Render(bool &amp;open, const ImVec2 &amp;window_size)</text>
<text text-anchor="start" x="213.5" y="-40.5" font-family="Helvetica,sans-Serif" font-size="10.00">+ std::string GetName() const</text>
<text text-anchor="start" x="213.5" y="-29.5" font-family="Helvetica,sans-Serif" font-size="10.00"># virtual void RenderInterface(bool &amp;open)=0</text>
<text text-anchor="start" x="213.5" y="-18.5" font-family="Helvetica,sans-Serif" font-size="10.00">&#45; void SetSize(const ImVec2 &amp;window_size) const</text>
<text text-anchor="start" x="213.5" y="-7.5" font-family="Helvetica,sans-Serif" font-size="10.00">&#45; void SetPosition(const ImVec2 &amp;window_size) const</text>
</a>
</g>
</g>
<!-- Node2 -->
<g id="node2" class="node">
<title>Node2</title>
<g id="a_node2"><a xlink:title=" ">
<polygon fill="white" stroke="#bfbfbf" points="0,-193.5 0,-250.5 168,-250.5 168,-193.5 0,-193.5"/>
<text text-anchor="middle" x="84" y="-238.5" font-family="Helvetica,sans-Serif" font-size="10.00">std::shared_ptr&lt; DataLoader &gt;</text>
<polyline fill="none" stroke="#bfbfbf" points="0,-231.5 168,-231.5 "/>
<text text-anchor="start" x="8" y="-219.5" font-family="Helvetica,sans-Serif" font-size="10.00">+ DataLoader ptr</text>
<polyline fill="none" stroke="#bfbfbf" points="0,-212.5 168,-212.5 "/>
<text text-anchor="start" x="8" y="-200.5" font-family="Helvetica,sans-Serif" font-size="10.00">+ DataLoader * operator&#45;&gt;()</text>
</a>
</g>
</g>
<!-- Node2&#45;&gt;Node1 -->
<g id="edge1" class="edge">
<title>Node2&#45;&gt;Node1</title>
<path fill="none" stroke="#404040" d="M128.97,-193.37C150.69,-180.47 177.34,-165.28 202,-153 210.93,-148.55 220.16,-144.11 229.52,-139.73"/>
<polygon fill="none" stroke="#404040" points="229.67,-139.66 233.44,-133.51 240.56,-134.62 236.8,-140.77 229.67,-139.66"/>
<text text-anchor="middle" x="246" y="-161.5" font-family="Helvetica,sans-Serif" font-size="10.00"> #dataloader_ptr_</text>
</g>
<!-- Node3 -->
<g id="node3" class="node">
<title>Node3</title>
<g id="a_node3"><a xlink:title=" ">
<polygon fill="white" stroke="#bfbfbf" points="109,-298.5 109,-355.5 227,-355.5 227,-298.5 109,-298.5"/>
<text text-anchor="middle" x="168" y="-343.5" font-family="Helvetica,sans-Serif" font-size="10.00">std::shared_ptr&lt; T &gt;</text>
<polyline fill="none" stroke="#bfbfbf" points="109,-336.5 227,-336.5 "/>
<text text-anchor="middle" x="168" y="-324.5" font-family="Helvetica,sans-Serif" font-size="10.00"> </text>
<polyline fill="none" stroke="#bfbfbf" points="109,-317.5 227,-317.5 "/>
<text text-anchor="start" x="117" y="-305.5" font-family="Helvetica,sans-Serif" font-size="10.00">+ T * operator&#45;&gt;()</text>
</a>
</g>
</g>
<!-- Node3&#45;&gt;Node2 -->
<g id="edge2" class="edge">
<title>Node3&#45;&gt;Node2</title>
<path fill="none" stroke="orange" d="M134.98,-290.57C131.89,-287.04 128.86,-283.48 126,-280 118.36,-270.69 110.41,-260.16 103.51,-250.7"/>
<polygon fill="orange" stroke="orange" points="132.5,-293.05 141.76,-298.2 137.73,-288.4 132.5,-293.05"/>
<text text-anchor="middle" x="167" y="-272" font-family="Helvetica,sans-Serif" font-size="10.00"> &lt; DataLoader &gt;</text>
</g>
<!-- Node6 -->
<g id="node6" class="node">
<title>Node6</title>
<g id="a_node6"><a xlink:title=" ">
<polygon fill="white" stroke="#bfbfbf" points="186,-193.5 186,-250.5 356,-250.5 356,-193.5 186,-193.5"/>
<text text-anchor="middle" x="271" y="-238.5" font-family="Helvetica,sans-Serif" font-size="10.00">std::shared_ptr&lt; DataReader &gt;</text>
<polyline fill="none" stroke="#bfbfbf" points="186,-231.5 356,-231.5 "/>
<text text-anchor="start" x="194" y="-219.5" font-family="Helvetica,sans-Serif" font-size="10.00">+ DataReader ptr</text>
<polyline fill="none" stroke="#bfbfbf" points="186,-212.5 356,-212.5 "/>
<text text-anchor="start" x="194" y="-200.5" font-family="Helvetica,sans-Serif" font-size="10.00">+ DataReader * operator&#45;&gt;()</text>
</a>
</g>
</g>
<!-- Node3&#45;&gt;Node6 -->
<g id="edge6" class="edge">
<title>Node3&#45;&gt;Node6</title>
<path fill="none" stroke="orange" d="M202.75,-291.25C215.97,-278.03 230.84,-263.16 243.32,-250.68"/>
<polygon fill="orange" stroke="orange" points="200.2,-288.85 195.6,-298.4 205.15,-293.8 200.2,-288.85"/>
<text text-anchor="middle" x="265" y="-272" font-family="Helvetica,sans-Serif" font-size="10.00"> &lt; DataReader &gt;</text>
</g>
<!-- Node4 -->
<g id="node4" class="node">
<title>Node4</title>
<g id="a_node4"><a xlink:title=" ">
<polygon fill="white" stroke="#bfbfbf" points="153.5,-403.5 153.5,-460.5 182.5,-460.5 182.5,-403.5 153.5,-403.5"/>
<text text-anchor="middle" x="168" y="-448.5" font-family="Helvetica,sans-Serif" font-size="10.00">T</text>
<polyline fill="none" stroke="#bfbfbf" points="153.5,-441.5 182.5,-441.5 "/>
<text text-anchor="middle" x="168" y="-429.5" font-family="Helvetica,sans-Serif" font-size="10.00"> </text>
<polyline fill="none" stroke="#bfbfbf" points="153.5,-422.5 182.5,-422.5 "/>
<text text-anchor="middle" x="168" y="-410.5" font-family="Helvetica,sans-Serif" font-size="10.00"> </text>
</a>
</g>
</g>
<!-- Node4&#45;&gt;Node3 -->
<g id="edge3" class="edge">
<title>Node4&#45;&gt;Node3</title>
<path fill="none" stroke="#404040" d="M168,-403.4C168,-392.55 168,-379.87 168,-368.05"/>
<polygon fill="none" stroke="#404040" points="168,-367.68 164,-361.68 168,-355.68 172,-361.68 168,-367.68"/>
<text text-anchor="middle" x="180.5" y="-377" font-family="Helvetica,sans-Serif" font-size="10.00"> +ptr</text>
</g>
<!-- Node5 -->
<g id="node5" class="node">
<title>Node5</title>
<g id="a_node5"><a xlink:title=" ">
<polygon fill="white" stroke="#bfbfbf" points="374.5,-193.5 374.5,-250.5 427.5,-250.5 427.5,-193.5 374.5,-193.5"/>
<text text-anchor="middle" x="401" y="-238.5" font-family="Helvetica,sans-Serif" font-size="10.00">ImVec2</text>
<polyline fill="none" stroke="#bfbfbf" points="374.5,-231.5 427.5,-231.5 "/>
<text text-anchor="middle" x="401" y="-219.5" font-family="Helvetica,sans-Serif" font-size="10.00"> </text>
<polyline fill="none" stroke="#bfbfbf" points="374.5,-212.5 427.5,-212.5 "/>
<text text-anchor="middle" x="401" y="-200.5" font-family="Helvetica,sans-Serif" font-size="10.00"> </text>
</a>
</g>
</g>
<!-- Node5&#45;&gt;Node1 -->
<g id="edge4" class="edge">
<title>Node5&#45;&gt;Node1</title>
<path fill="none" stroke="#404040" d="M401,-193.38C401,-180.12 401,-163.49 401,-146.74"/>
<polygon fill="none" stroke="#404040" points="401,-146.56 397,-140.56 401,-134.56 405,-140.56 401,-146.56"/>
<text text-anchor="middle" x="427" y="-167" font-family="Helvetica,sans-Serif" font-size="10.00"> &#45;position_</text>
<text text-anchor="middle" x="427" y="-156" font-family="Helvetica,sans-Serif" font-size="10.00">&#45;size_</text>
</g>
<!-- Node6&#45;&gt;Node1 -->
<g id="edge5" class="edge">
<title>Node6&#45;&gt;Node1</title>
<path fill="none" stroke="#404040" d="M283.45,-193.23C289.87,-180.37 298.37,-165.26 308,-153 310.43,-149.91 312.97,-146.84 315.6,-143.8"/>
<polygon fill="none" stroke="#404040" points="315.71,-143.68 316.76,-136.55 323.75,-134.77 322.7,-141.91 315.71,-143.68"/>
<text text-anchor="middle" x="352.5" y="-161.5" font-family="Helvetica,sans-Serif" font-size="10.00"> #datareader_ptr_</text>
</g>
<!-- Node7 -->
<g id="node7" class="node">
<title>Node7</title>
<g id="a_node7"><a xlink:title=" ">
<polygon fill="white" stroke="#bfbfbf" points="445.5,-193.5 445.5,-250.5 556.5,-250.5 556.5,-193.5 445.5,-193.5"/>
<text text-anchor="middle" x="501" y="-238.5" font-family="Helvetica,sans-Serif" font-size="10.00">ImGuiWindowFlags</text>
<polyline fill="none" stroke="#bfbfbf" points="445.5,-231.5 556.5,-231.5 "/>
<text text-anchor="middle" x="501" y="-219.5" font-family="Helvetica,sans-Serif" font-size="10.00"> </text>
<polyline fill="none" stroke="#bfbfbf" points="445.5,-212.5 556.5,-212.5 "/>
<text text-anchor="middle" x="501" y="-200.5" font-family="Helvetica,sans-Serif" font-size="10.00"> </text>
</a>
</g>
</g>
<!-- Node7&#45;&gt;Node1 -->
<g id="edge7" class="edge">
<title>Node7&#45;&gt;Node1</title>
<path fill="none" stroke="#404040" d="M483.3,-193.49C475.3,-181.1 465.7,-166.29 457,-153 455.31,-150.42 453.59,-147.8 451.86,-145.16"/>
<polygon fill="none" stroke="#404040" points="451.69,-144.9 445.05,-142.09 445.09,-134.88 451.73,-137.69 451.69,-144.9"/>
<text text-anchor="middle" x="510.5" y="-161.5" font-family="Helvetica,sans-Serif" font-size="10.00"> &#45;window_flags_</text>
</g>
<!-- Node8 -->
<g id="node8" class="node">
<title>Node8</title>
<g id="a_node8"><a xlink:title=" ">
<polygon fill="white" stroke="#bfbfbf" points="574.5,-193.5 574.5,-250.5 639.5,-250.5 639.5,-193.5 574.5,-193.5"/>
<text text-anchor="middle" x="607" y="-238.5" font-family="Helvetica,sans-Serif" font-size="10.00">std::string</text>
<polyline fill="none" stroke="#bfbfbf" points="574.5,-231.5 639.5,-231.5 "/>
<text text-anchor="middle" x="607" y="-219.5" font-family="Helvetica,sans-Serif" font-size="10.00"> </text>
<polyline fill="none" stroke="#bfbfbf" points="574.5,-212.5 639.5,-212.5 "/>
<text text-anchor="middle" x="607" y="-200.5" font-family="Helvetica,sans-Serif" font-size="10.00"> </text>
</a>
</g>
</g>
<!-- Node8&#45;&gt;Node1 -->
<g id="edge8" class="edge">
<title>Node8&#45;&gt;Node1</title>
<path fill="none" stroke="#404040" d="M589.35,-193.36C579.95,-180.07 567.55,-164.57 554,-153 549.55,-149.2 544.9,-145.49 540.1,-141.88"/>
<polygon fill="none" stroke="#404040" points="539.8,-141.66 532.59,-141.38 530.08,-134.62 537.28,-134.9 539.8,-141.66"/>
<text text-anchor="middle" x="594" y="-161.5" font-family="Helvetica,sans-Serif" font-size="10.00"> &#45;name_</text>
</g>
<!-- Node9 -->
<g id="node9" class="node">
<title>Node9</title>
<g id="a_node9"><a xlink:title=" ">
<polygon fill="white" stroke="#bfbfbf" points="536.5,-298.5 536.5,-355.5 677.5,-355.5 677.5,-298.5 536.5,-298.5"/>
<text text-anchor="middle" x="607" y="-343.5" font-family="Helvetica,sans-Serif" font-size="10.00">std::basic_string&lt; Char &gt;</text>
<polyline fill="none" stroke="#bfbfbf" points="536.5,-336.5 677.5,-336.5 "/>
<text text-anchor="middle" x="607" y="-324.5" font-family="Helvetica,sans-Serif" font-size="10.00"> </text>
<polyline fill="none" stroke="#bfbfbf" points="536.5,-317.5 677.5,-317.5 "/>
<text text-anchor="middle" x="607" y="-305.5" font-family="Helvetica,sans-Serif" font-size="10.00"> </text>
</a>
</g>
</g>
<!-- Node9&#45;&gt;Node8 -->
<g id="edge9" class="edge">
<title>Node9&#45;&gt;Node8</title>
<path fill="none" stroke="midnightblue" d="M607,-288.29C607,-275.84 607,-262.23 607,-250.68"/>
<polygon fill="none" stroke="midnightblue" points="603.5,-288.4 607,-298.4 610.5,-288.4 603.5,-288.4"/>
</g>
</g>
</svg>
