<?xml version="1.0" encoding="UTF-8" standalone="no"?>
<!DOCTYPE svg PUBLIC "-//W3C//DTD SVG 1.1//EN"
 "http://www.w3.org/Graphics/SVG/1.1/DTD/svg11.dtd">
<!-- Generated by graphviz version 2.43.0 (0)
 -->
<!-- Title: ad_framework::log::Log Pages: 1 -->
<svg width="353pt" height="478pt"
 viewBox="0.00 0.00 353.00 478.00" xmlns="http://www.w3.org/2000/svg" xmlns:xlink="http://www.w3.org/1999/xlink">
<g id="graph0" class="graph" transform="scale(1 1) rotate(0) translate(4 474)">
<title>ad_framework::log::Log</title>
<polygon fill="white" stroke="transparent" points="-4,4 -4,-474 349,-474 349,4 -4,4"/>
<!-- Node1 -->
<g id="node1" class="node">
<title>Node1</title>
<g id="a_node1"><a xlink:title=" ">
<polygon fill="#bfbfbf" stroke="black" points="0,-0.5 0,-79.5 345,-79.5 345,-0.5 0,-0.5"/>
<text text-anchor="middle" x="172.5" y="-67.5" font-family="Helvetica,sans-Serif" font-size="10.00">ad_framework::log::Log</text>
<polyline fill="none" stroke="black" points="0,-60.5 345,-60.5 "/>
<text text-anchor="middle" x="172.5" y="-48.5" font-family="Helvetica,sans-Serif" font-size="10.00"> </text>
<polyline fill="none" stroke="black" points="0,-41.5 345,-41.5 "/>
<text text-anchor="start" x="8" y="-29.5" font-family="Helvetica,sans-Serif" font-size="10.00">+ Log(LogLevel level, const char *file, int line, const char *msg=&quot;&quot;)</text>
<text text-anchor="start" x="8" y="-18.5" font-family="Helvetica,sans-Serif" font-size="10.00">+ ~Log()</text>
<text text-anchor="start" x="8" y="-7.5" font-family="Helvetica,sans-Serif" font-size="10.00">+ std::ostream &amp; stream()</text>
</a>
</g>
</g>
<!-- Node2 -->
<g id="node2" class="node">
<title>Node2</title>
<g id="a_node2"><a xlink:title=" ">
<polygon fill="white" stroke="#bfbfbf" points="133.5,-127.5 133.5,-184.5 211.5,-184.5 211.5,-127.5 133.5,-127.5"/>
<text text-anchor="middle" x="172.5" y="-172.5" font-family="Helvetica,sans-Serif" font-size="10.00">std::ostream</text>
<polyline fill="none" stroke="#bfbfbf" points="133.5,-165.5 211.5,-165.5 "/>
<text text-anchor="middle" x="172.5" y="-153.5" font-family="Helvetica,sans-Serif" font-size="10.00"> </text>
<polyline fill="none" stroke="#bfbfbf" points="133.5,-146.5 211.5,-146.5 "/>
<text text-anchor="middle" x="172.5" y="-134.5" font-family="Helvetica,sans-Serif" font-size="10.00"> </text>
</a>
</g>
</g>
<!-- Node2&#45;&gt;Node1 -->
<g id="edge1" class="edge">
<title>Node2&#45;&gt;Node1</title>
<path fill="none" stroke="#404040" d="M172.5,-127.4C172.5,-116.63 172.5,-103.93 172.5,-91.62"/>
<polygon fill="none" stroke="#404040" points="172.5,-91.54 168.5,-85.54 172.5,-79.54 176.5,-85.54 172.5,-91.54"/>
<text text-anchor="middle" x="196" y="-101" font-family="Helvetica,sans-Serif" font-size="10.00"> &#45;stream_</text>
</g>
<!-- Node3 -->
<g id="node3" class="node">
<title>Node3</title>
<g id="a_node3"><a xlink:title=" ">
<polygon fill="white" stroke="#bfbfbf" points="95.5,-222.5 95.5,-279.5 249.5,-279.5 249.5,-222.5 95.5,-222.5"/>
<text text-anchor="middle" x="172.5" y="-267.5" font-family="Helvetica,sans-Serif" font-size="10.00">std::basic_ostream&lt; Char &gt;</text>
<polyline fill="none" stroke="#bfbfbf" points="95.5,-260.5 249.5,-260.5 "/>
<text text-anchor="middle" x="172.5" y="-248.5" font-family="Helvetica,sans-Serif" font-size="10.00"> </text>
<polyline fill="none" stroke="#bfbfbf" points="95.5,-241.5 249.5,-241.5 "/>
<text text-anchor="middle" x="172.5" y="-229.5" font-family="Helvetica,sans-Serif" font-size="10.00"> </text>
</a>
</g>
</g>
<!-- Node3&#45;&gt;Node2 -->
<g id="edge2" class="edge">
<title>Node3&#45;&gt;Node2</title>
<path fill="none" stroke="midnightblue" d="M172.5,-212.24C172.5,-203.03 172.5,-193.35 172.5,-184.71"/>
<polygon fill="none" stroke="midnightblue" points="169,-212.35 172.5,-222.35 176,-212.35 169,-212.35"/>
</g>
<!-- Node4 -->
<g id="node4" class="node">
<title>Node4</title>
<g id="a_node4"><a xlink:title=" ">
<polygon fill="white" stroke="#bfbfbf" points="108.5,-317.5 108.5,-374.5 236.5,-374.5 236.5,-317.5 108.5,-317.5"/>
<text text-anchor="middle" x="172.5" y="-362.5" font-family="Helvetica,sans-Serif" font-size="10.00">std::basic_ios&lt; Char &gt;</text>
<polyline fill="none" stroke="#bfbfbf" points="108.5,-355.5 236.5,-355.5 "/>
<text text-anchor="middle" x="172.5" y="-343.5" font-family="Helvetica,sans-Serif" font-size="10.00"> </text>
<polyline fill="none" stroke="#bfbfbf" points="108.5,-336.5 236.5,-336.5 "/>
<text text-anchor="middle" x="172.5" y="-324.5" font-family="Helvetica,sans-Serif" font-size="10.00"> </text>
</a>
</g>
</g>
<!-- Node4&#45;&gt;Node3 -->
<g id="edge3" class="edge">
<title>Node4&#45;&gt;Node3</title>
<path fill="none" stroke="midnightblue" d="M172.5,-307.24C172.5,-298.03 172.5,-288.35 172.5,-279.71"/>
<polygon fill="none" stroke="midnightblue" points="169,-307.35 172.5,-317.35 176,-307.35 169,-307.35"/>
</g>
<!-- Node5 -->
<g id="node5" class="node">
<title>Node5</title>
<g id="a_node5"><a xlink:title=" ">
<polygon fill="white" stroke="#bfbfbf" points="132.5,-412.5 132.5,-469.5 212.5,-469.5 212.5,-412.5 132.5,-412.5"/>
<text text-anchor="middle" x="172.5" y="-457.5" font-family="Helvetica,sans-Serif" font-size="10.00">std::ios_base</text>
<polyline fill="none" stroke="#bfbfbf" points="132.5,-450.5 212.5,-450.5 "/>
<text text-anchor="middle" x="172.5" y="-438.5" font-family="Helvetica,sans-Serif" font-size="10.00"> </text>
<polyline fill="none" stroke="#bfbfbf" points="132.5,-431.5 212.5,-431.5 "/>
<text text-anchor="middle" x="172.5" y="-419.5" font-family="Helvetica,sans-Serif" font-size="10.00"> </text>
</a>
</g>
</g>
<!-- Node5&#45;&gt;Node4 -->
<g id="edge4" class="edge">
<title>Node5&#45;&gt;Node4</title>
<path fill="none" stroke="midnightblue" d="M172.5,-402.24C172.5,-393.03 172.5,-383.35 172.5,-374.71"/>
<polygon fill="none" stroke="midnightblue" points="169,-402.35 172.5,-412.35 176,-402.35 169,-402.35"/>
</g>
</g>
</svg>
