<?xml version="1.0" encoding="UTF-8" standalone="no"?>
<!DOCTYPE svg PUBLIC "-//W3C//DTD SVG 1.1//EN"
 "http://www.w3.org/Graphics/SVG/1.1/DTD/svg11.dtd">
<!-- Generated by graphviz version 2.43.0 (0)
 -->
<!-- Title: ad_framework::ui::UserInterface::GetCallbacks Pages: 1 -->
<svg width="492pt" height="66pt"
 viewBox="0.00 0.00 492.00 66.00" xmlns="http://www.w3.org/2000/svg" xmlns:xlink="http://www.w3.org/1999/xlink">
<g id="graph0" class="graph" transform="scale(1 1) rotate(0) translate(4 62)">
<title>ad_framework::ui::UserInterface::GetCallbacks</title>
<polygon fill="white" stroke="transparent" points="-4,4 -4,-62 488,-62 488,4 -4,4"/>
<!-- Node1 -->
<g id="node1" class="node">
<title>Node1</title>
<g id="a_node1"><a xlink:title=" ">
<polygon fill="#bfbfbf" stroke="black" points="239,-19.5 239,-38.5 484,-38.5 484,-19.5 239,-19.5"/>
<text text-anchor="middle" x="361.5" y="-26.5" font-family="Helvetica,sans-Serif" font-size="10.00">ad_framework::ui::UserInterface::GetCallbacks</text>
</a>
</g>
</g>
<!-- Node2 -->
<g id="node2" class="node">
<title>Node2</title>
<g id="a_node2"><a xlink:href="classad__framework_1_1ui_1_1Button.html#a87bdaf93ee039c7252bd91f12215dcdc" target="_top" xlink:title=" ">
<polygon fill="white" stroke="black" points="4,-38.5 4,-57.5 199,-57.5 199,-38.5 4,-38.5"/>
<text text-anchor="middle" x="101.5" y="-45.5" font-family="Helvetica,sans-Serif" font-size="10.00">ad_framework::ui::Button::operator()</text>
</a>
</g>
</g>
<!-- Node1&#45;&gt;Node2 -->
<g id="edge1" class="edge">
<title>Node1&#45;&gt;Node2</title>
<path fill="none" stroke="midnightblue" d="M228.69,-38.71C218.69,-39.44 208.72,-40.18 199.02,-40.89"/>
<polygon fill="midnightblue" stroke="midnightblue" points="228.96,-42.2 238.68,-37.97 228.45,-35.22 228.96,-42.2"/>
</g>
<!-- Node3 -->
<g id="node3" class="node">
<title>Node3</title>
<g id="a_node3"><a xlink:href="classad__framework_1_1ui_1_1Selector.html#ae6bc6a470d499974e5a9b53c65d9e1b1" target="_top" xlink:title=" ">
<polygon fill="white" stroke="black" points="0,-0.5 0,-19.5 203,-19.5 203,-0.5 0,-0.5"/>
<text text-anchor="middle" x="101.5" y="-7.5" font-family="Helvetica,sans-Serif" font-size="10.00">ad_framework::ui::Selector::operator()</text>
</a>
</g>
</g>
<!-- Node1&#45;&gt;Node3 -->
<g id="edge2" class="edge">
<title>Node1&#45;&gt;Node3</title>
<path fill="none" stroke="midnightblue" d="M228.65,-19.29C220.11,-18.66 211.58,-18.03 203.22,-17.42"/>
<polygon fill="midnightblue" stroke="midnightblue" points="228.45,-22.78 238.68,-20.03 228.96,-15.8 228.45,-22.78"/>
</g>
</g>
</svg>
