<?xml version="1.0" encoding="UTF-8" standalone="no"?>
<!DOCTYPE svg PUBLIC "-//W3C//DTD SVG 1.1//EN"
 "http://www.w3.org/Graphics/SVG/1.1/DTD/svg11.dtd">
<!-- Generated by graphviz version 2.43.0 (0)
 -->
<!-- Title: ad_framework::ui::UserInterface Pages: 1 -->
<!--zoomable 419 -->
<svg id="main" version="1.1" xmlns="http://www.w3.org/2000/svg" xmlns:xlink="http://www.w3.org/1999/xlink" xml:space="preserve" onload="init(evt)">
<style type="text/css"><![CDATA[
.edge:hover path { stroke: red; }
.edge:hover polygon { stroke: red; fill: red; }
]]></style>
<script type="text/javascript"><![CDATA[
var edges = document.getElementsByTagName('g');
if (edges && edges.length) {
  for (var i=0;i<edges.length;i++) {
    if (edges[i].id.substr(0,4)=='edge') {
      edges[i].setAttribute('class','edge');
    }
  }
}
]]></script>
        <defs>
                <circle id="rim" cx="0" cy="0" r="7"/>
                <circle id="rim2" cx="0" cy="0" r="3.5"/>
                <g id="zoomPlus">
                        <use xlink:href="#rim" fill="#404040">
                                <set attributeName="fill" to="#808080" begin="zoomplus.mouseover" end="zoomplus.mouseout"/>
                        </use>
                        <path d="M-4,0h8M0,-4v8" fill="none" stroke="white" stroke-width="1.5" pointer-events="none"/>
                </g>
                <g id="zoomMin">
                        <use xlink:href="#rim" fill="#404040">
                                <set attributeName="fill" to="#808080" begin="zoomminus.mouseover" end="zoomminus.mouseout"/>
                        </use>
                        <path d="M-4,0h8" fill="none" stroke="white" stroke-width="1.5" pointer-events="none"/>
                </g>
                <g id="dirArrow">
                        <path fill="none" stroke="white" stroke-width="1.5" d="M0,-3.0v7 M-2.5,-0.5L0,-3.0L2.5,-0.5"/>
                </g>
               <g id="resetDef">
                       <use xlink:href="#rim2" fill="#404040">
                               <set attributeName="fill" to="#808080" begin="reset.mouseover" end="reset.mouseout"/>
                       </use>
               </g>
        </defs>

<script type="text/javascript">
var viewWidth = 662;
var viewHeight = 419;
var sectionId = 'dynsection-0';
</script>
<script xlink:href="svgpan.js"/>
<svg id="graph" class="graph">
<g id="viewport">
<title>ad_framework::ui::UserInterface</title>
<polygon fill="white" stroke="transparent" points="-4,4 -4,-415 657.5,-415 657.5,4 -4,4"/>
<!-- Node1 -->
<g id="node1" class="node">
<title>Node1</title>
<g id="a_node1"><a xlink:title=" ">
<polygon fill="#bfbfbf" stroke="black" points="144,-138.5 144,-316.5 563,-316.5 563,-138.5 144,-138.5"/>
<text text-anchor="middle" x="353.5" y="-304.5" font-family="Helvetica,sans-Serif" font-size="10.00">ad_framework::ui::UserInterface</text>
<polyline fill="none" stroke="black" points="144,-297.5 563,-297.5 "/>
<text text-anchor="start" x="152" y="-285.5" font-family="Helvetica,sans-Serif" font-size="10.00">&#45; std::string title_</text>
<text text-anchor="start" x="152" y="-274.5" font-family="Helvetica,sans-Serif" font-size="10.00">&#45; UserInterfacePtr parent_</text>
<text text-anchor="start" x="152" y="-263.5" font-family="Helvetica,sans-Serif" font-size="10.00">&#45; ImVec2 size_</text>
<text text-anchor="start" x="152" y="-252.5" font-family="Helvetica,sans-Serif" font-size="10.00">&#45; ImVec2 pos_</text>
<polyline fill="none" stroke="black" points="144,-245.5 563,-245.5 "/>
<text text-anchor="start" x="152" y="-233.5" font-family="Helvetica,sans-Serif" font-size="10.00">+ UserInterface(std::string title, ImVec2 size, ImVec2 pos, UserInterfacePtr parent)</text>
<text text-anchor="start" x="152" y="-222.5" font-family="Helvetica,sans-Serif" font-size="10.00">+ virtual ~UserInterface()=default</text>
<text text-anchor="start" x="152" y="-211.5" font-family="Helvetica,sans-Serif" font-size="10.00">+ virtual void operator()()=0</text>
<text text-anchor="start" x="152" y="-200.5" font-family="Helvetica,sans-Serif" font-size="10.00">+ std::string Title() const</text>
<text text-anchor="start" x="152" y="-189.5" font-family="Helvetica,sans-Serif" font-size="10.00">+ void Rename(std::string title)</text>
<text text-anchor="start" x="152" y="-178.5" font-family="Helvetica,sans-Serif" font-size="10.00">+ ImVec2 Size() const</text>
<text text-anchor="start" x="152" y="-167.5" font-family="Helvetica,sans-Serif" font-size="10.00">+ ImVec2 Pos() const</text>
<text text-anchor="start" x="152" y="-156.5" font-family="Helvetica,sans-Serif" font-size="10.00">+ void Resize(ImVec2 size)</text>
<text text-anchor="start" x="152" y="-145.5" font-family="Helvetica,sans-Serif" font-size="10.00">+ void Move(ImVec2 pos)</text>
</a>
</g>
</g>
<!-- Node3 -->
<g id="node3" class="node">
<title>Node3</title>
<g id="a_node3"><a xlink:href="classad__framework_1_1ui_1_1Button.html" target="_top" xlink:title=" ">
<polygon fill="white" stroke="black" points="0,-0.5 0,-101.5 371,-101.5 371,-0.5 0,-0.5"/>
<text text-anchor="middle" x="185.5" y="-89.5" font-family="Helvetica,sans-Serif" font-size="10.00">ad_framework::ui::Button</text>
<polyline fill="none" stroke="black" points="0,-82.5 371,-82.5 "/>
<text text-anchor="start" x="8" y="-70.5" font-family="Helvetica,sans-Serif" font-size="10.00">&#45; CallbackPtr callback_</text>
<polyline fill="none" stroke="black" points="0,-63.5 371,-63.5 "/>
<text text-anchor="start" x="8" y="-51.5" font-family="Helvetica,sans-Serif" font-size="10.00">+ Button(std::string title, ImVec2 size, ImVec2 pos, CallbackPtr callback)</text>
<text text-anchor="start" x="8" y="-40.5" font-family="Helvetica,sans-Serif" font-size="10.00">+ Button(std::string title, ImVec2 size, ImVec2 pos)</text>
<text text-anchor="start" x="8" y="-29.5" font-family="Helvetica,sans-Serif" font-size="10.00">+ Button(std::string title, CallbackPtr callback)</text>
<text text-anchor="start" x="8" y="-18.5" font-family="Helvetica,sans-Serif" font-size="10.00">+ Button(std::string title)</text>
<text text-anchor="start" x="8" y="-7.5" font-family="Helvetica,sans-Serif" font-size="10.00">+ void operator()() override</text>
</a>
</g>
</g>
<!-- Node1&#45;&gt;Node3 -->
<g id="edge2" class="edge">
<title>Node1&#45;&gt;Node3</title>
<path fill="none" stroke="midnightblue" d="M261.6,-131.05C251.8,-120.87 242.14,-110.83 233.17,-101.51"/>
<polygon fill="none" stroke="midnightblue" points="259.3,-133.71 268.76,-138.48 264.35,-128.85 259.3,-133.71"/>
</g>
<!-- Node4 -->
<g id="node4" class="node">
<title>Node4</title>
<g id="a_node4"><a xlink:href="classad__framework_1_1ui_1_1Frame.html" target="_top" xlink:title=" ">
<polygon fill="white" stroke="black" points="389.5,-6 389.5,-96 653.5,-96 653.5,-6 389.5,-6"/>
<text text-anchor="middle" x="521.5" y="-84" font-family="Helvetica,sans-Serif" font-size="10.00">ad_framework::ui::Frame</text>
<polyline fill="none" stroke="black" points="389.5,-77 653.5,-77 "/>
<text text-anchor="start" x="397.5" y="-65" font-family="Helvetica,sans-Serif" font-size="10.00">&#45; std::vector&lt; UserInterfacePtr &gt; uis_</text>
<polyline fill="none" stroke="black" points="389.5,-58 653.5,-58 "/>
<text text-anchor="start" x="397.5" y="-46" font-family="Helvetica,sans-Serif" font-size="10.00">+ Frame(std::string title, ImVec2 size, ImVec2 pos)</text>
<text text-anchor="start" x="397.5" y="-35" font-family="Helvetica,sans-Serif" font-size="10.00">+ Frame(std::string title)</text>
<text text-anchor="start" x="397.5" y="-24" font-family="Helvetica,sans-Serif" font-size="10.00">+ void operator()() override</text>
<text text-anchor="start" x="397.5" y="-13" font-family="Helvetica,sans-Serif" font-size="10.00">+ void AddUI(UserInterfacePtr ui)</text>
</a>
</g>
</g>
<!-- Node1&#45;&gt;Node4 -->
<g id="edge3" class="edge">
<title>Node1&#45;&gt;Node4</title>
<path fill="none" stroke="midnightblue" d="M445.21,-131.24C457.03,-118.96 468.64,-106.9 479.1,-96.04"/>
<polygon fill="none" stroke="midnightblue" points="442.65,-128.85 438.24,-138.48 447.7,-133.71 442.65,-128.85"/>
</g>
<!-- Node2 -->
<g id="node2" class="node">
<title>Node2</title>
<g id="a_node2"><a xlink:title=" ">
<polygon fill="white" stroke="#bfbfbf" points="229,-353.5 229,-410.5 478,-410.5 478,-353.5 229,-353.5"/>
<text text-anchor="middle" x="353.5" y="-398.5" font-family="Helvetica,sans-Serif" font-size="10.00">std::enable_shared_from_this&lt; UserInterface &gt;</text>
<polyline fill="none" stroke="#bfbfbf" points="229,-391.5 478,-391.5 "/>
<text text-anchor="middle" x="353.5" y="-379.5" font-family="Helvetica,sans-Serif" font-size="10.00"> </text>
<polyline fill="none" stroke="#bfbfbf" points="229,-372.5 478,-372.5 "/>
<text text-anchor="middle" x="353.5" y="-360.5" font-family="Helvetica,sans-Serif" font-size="10.00"> </text>
</a>
</g>
</g>
<!-- Node2&#45;&gt;Node1 -->
<g id="edge1" class="edge">
<title>Node2&#45;&gt;Node1</title>
<path fill="none" stroke="midnightblue" d="M353.5,-343.37C353.5,-335.09 353.5,-325.98 353.5,-316.62"/>
<polygon fill="none" stroke="midnightblue" points="350,-343.38 353.5,-353.38 357,-343.38 350,-343.38"/>
</g>
</g>
</svg>
        <g id="navigator" transform="translate(0 0)" fill="#404254">
                <rect fill="#f2f5e9" fill-opacity="0.5" stroke="#606060" stroke-width=".5" x="0" y="0" width="60" height="60"/>
                <use id="zoomplus" xlink:href="#zoomPlus" x="17" y="9" onmousedown="handleZoom(evt,'in')"/>
                <use id="zoomminus" xlink:href="#zoomMin" x="42" y="9" onmousedown="handleZoom(evt,'out')"/>
                <use id="reset" xlink:href="#resetDef" x="30" y="36" onmousedown="handleReset()"/>
                <g id="arrowUp" xlink:href="#dirArrow" transform="translate(30 24)" onmousedown="handlePan(0,-1)">
                  <use xlink:href="#rim" fill="#404040">
                        <set attributeName="fill" to="#808080" begin="arrowUp.mouseover" end="arrowUp.mouseout"/>
                  </use>
                  <path fill="none" stroke="white" stroke-width="1.5" d="M0,-3.0v7 M-2.5,-0.5L0,-3.0L2.5,-0.5"/>
                </g>
                <g id="arrowRight" xlink:href="#dirArrow" transform="rotate(90) translate(36 -43)" onmousedown="handlePan(1,0)">
                  <use xlink:href="#rim" fill="#404040">
                        <set attributeName="fill" to="#808080" begin="arrowRight.mouseover" end="arrowRight.mouseout"/>
                  </use>
                  <path fill="none" stroke="white" stroke-width="1.5" d="M0,-3.0v7 M-2.5,-0.5L0,-3.0L2.5,-0.5"/>
                </g>
                <g id="arrowDown" xlink:href="#dirArrow" transform="rotate(180) translate(-30 -48)" onmousedown="handlePan(0,1)">
                  <use xlink:href="#rim" fill="#404040">
                        <set attributeName="fill" to="#808080" begin="arrowDown.mouseover" end="arrowDown.mouseout"/>
                  </use>
                  <path fill="none" stroke="white" stroke-width="1.5" d="M0,-3.0v7 M-2.5,-0.5L0,-3.0L2.5,-0.5"/>
                </g>
                <g id="arrowLeft" xlink:href="#dirArrow" transform="rotate(270) translate(-36 17)" onmousedown="handlePan(-1,0)">
                  <use xlink:href="#rim" fill="#404040">
                        <set attributeName="fill" to="#808080" begin="arrowLeft.mouseover" end="arrowLeft.mouseout"/>
                  </use>
                  <path fill="none" stroke="white" stroke-width="1.5" d="M0,-3.0v7 M-2.5,-0.5L0,-3.0L2.5,-0.5"/>
                </g>
        </g>
        <svg viewBox="0 0 15 15" width="100%" height="30px" preserveAspectRatio="xMaxYMin meet">
         <g id="arrow_out" transform="scale(0.3 0.3)">
          <a xlink:href="classad__framework_1_1ui_1_1UserInterface__inherit__graph_org.svg" target="_base">
           <rect id="button" ry="5" rx="5" y="6" x="6" height="38" width="38"
                fill="#f2f5e9" fill-opacity="0.5" stroke="#606060" stroke-width="1.0"/>
           <path id="arrow"
             d="M 11.500037,31.436501 C 11.940474,20.09759 22.043105,11.32322 32.158766,21.979434 L 37.068811,17.246167 C 37.068811,17.246167 37.088388,32 37.088388,32 L 22.160133,31.978069 C 22.160133,31.978069 26.997745,27.140456 26.997745,27.140456 C 18.528582,18.264221 13.291696,25.230495 11.500037,31.436501 z"
             style="fill:#404040;"/>
          </a>
         </g>
        </svg>
</svg>
