<?xml version="1.0" encoding="UTF-8" standalone="no"?>
<!DOCTYPE svg PUBLIC "-//W3C//DTD SVG 1.1//EN"
 "http://www.w3.org/Graphics/SVG/1.1/DTD/svg11.dtd">
<!-- Generated by graphviz version 2.43.0 (0)
 -->
<!-- Title: ad_framwork::data_structure::KdTree::FindInBoundary Pages: 1 -->
<svg width="600pt" height="66pt"
 viewBox="0.00 0.00 600.00 66.00" xmlns="http://www.w3.org/2000/svg" xmlns:xlink="http://www.w3.org/1999/xlink">
<g id="graph0" class="graph" transform="scale(1 1) rotate(0) translate(4 62)">
<title>ad_framwork::data_structure::KdTree::FindInBoundary</title>
<polygon fill="white" stroke="transparent" points="-4,4 -4,-62 596,-62 596,4 -4,4"/>
<!-- Node1 -->
<g id="node1" class="node">
<title>Node1</title>
<g id="a_node1"><a xlink:title=" ">
<polygon fill="#bfbfbf" stroke="black" points="0,-19.5 0,-38.5 278,-38.5 278,-19.5 0,-19.5"/>
<text text-anchor="middle" x="139" y="-26.5" font-family="Helvetica,sans-Serif" font-size="10.00">ad_framwork::data_structure::KdTree::FindInBoundary</text>
</a>
</g>
</g>
<!-- Node2 -->
<g id="node2" class="node">
<title>Node2</title>
<g id="a_node2"><a xlink:href="classad__framwork_1_1data__structure_1_1KdTree.html#ae4efbe3dd4c34eccc8be2dd3979467a4" target="_top" xlink:title=" ">
<polygon fill="white" stroke="black" points="314,-38.5 314,-57.5 592,-57.5 592,-38.5 314,-38.5"/>
<text text-anchor="middle" x="453" y="-45.5" font-family="Helvetica,sans-Serif" font-size="10.00">ad_framwork::data_structure::KdTree::FindInBoundary</text>
</a>
</g>
</g>
<!-- Node1&#45;&gt;Node2 -->
<g id="edge1" class="edge">
<title>Node1&#45;&gt;Node2</title>
<path fill="none" stroke="midnightblue" d="M278.21,-37.42C286.55,-37.92 294.97,-38.44 303.35,-38.95"/>
<polygon fill="midnightblue" stroke="midnightblue" points="303.36,-42.45 313.56,-39.57 303.79,-35.47 303.36,-42.45"/>
</g>
<!-- Node3 -->
<g id="node3" class="node">
<title>Node3</title>
<g id="a_node3"><a xlink:href="classad__framwork_1_1data__structure_1_1Shape.html#aeff76bd62e4efcd70d9126153a4bb4d3" target="_top" xlink:title=" ">
<polygon fill="white" stroke="black" points="344.5,-0.5 344.5,-19.5 561.5,-19.5 561.5,-0.5 344.5,-0.5"/>
<text text-anchor="middle" x="453" y="-7.5" font-family="Helvetica,sans-Serif" font-size="10.00">ad_framwork::data_structure::Shape::IsIn</text>
</a>
</g>
</g>
<!-- Node1&#45;&gt;Node3 -->
<g id="edge2" class="edge">
<title>Node1&#45;&gt;Node3</title>
<path fill="none" stroke="midnightblue" d="M278.21,-20.58C296.91,-19.44 315.96,-18.28 334.26,-17.17"/>
<polygon fill="midnightblue" stroke="midnightblue" points="334.58,-20.66 344.35,-16.56 334.15,-13.67 334.58,-20.66"/>
</g>
</g>
</svg>
