<?xml version="1.0" encoding="UTF-8" standalone="no"?>
<!DOCTYPE svg PUBLIC "-//W3C//DTD SVG 1.1//EN"
 "http://www.w3.org/Graphics/SVG/1.1/DTD/svg11.dtd">
<!-- Generated by graphviz version 2.43.0 (0)
 -->
<!-- Title: ad_framework::data_structure::Node::Distance Pages: 1 -->
<svg width="532pt" height="66pt"
 viewBox="0.00 0.00 532.00 66.00" xmlns="http://www.w3.org/2000/svg" xmlns:xlink="http://www.w3.org/1999/xlink">
<g id="graph0" class="graph" transform="scale(1 1) rotate(0) translate(4 62)">
<title>ad_framework::data_structure::Node::Distance</title>
<polygon fill="white" stroke="transparent" points="-4,4 -4,-62 528,-62 528,4 -4,4"/>
<!-- Node1 -->
<g id="node1" class="node">
<title>Node1</title>
<g id="a_node1"><a xlink:title=" ">
<polygon fill="#bfbfbf" stroke="black" points="280,-19.5 280,-38.5 524,-38.5 524,-19.5 280,-19.5"/>
<text text-anchor="middle" x="402" y="-26.5" font-family="Helvetica,sans-Serif" font-size="10.00">ad_framework::data_structure::Node::Distance</text>
</a>
</g>
</g>
<!-- Node2 -->
<g id="node2" class="node">
<title>Node2</title>
<g id="a_node2"><a xlink:href="classad__framework_1_1data__structure_1_1Node.html#a16b00f679f958e2028e5e252538ae79c" target="_top" xlink:title=" ">
<polygon fill="white" stroke="black" points="0,-38.5 0,-57.5 244,-57.5 244,-38.5 0,-38.5"/>
<text text-anchor="middle" x="122" y="-45.5" font-family="Helvetica,sans-Serif" font-size="10.00">ad_framework::data_structure::Node::Distance</text>
</a>
</g>
</g>
<!-- Node1&#45;&gt;Node2 -->
<g id="edge1" class="edge">
<title>Node1&#45;&gt;Node2</title>
<path fill="none" stroke="midnightblue" d="M269.84,-37.96C261.27,-38.55 252.66,-39.14 244.14,-39.72"/>
<polygon fill="midnightblue" stroke="midnightblue" points="270.14,-41.45 279.87,-37.28 269.66,-34.47 270.14,-41.45"/>
</g>
<!-- Node3 -->
<g id="node3" class="node">
<title>Node3</title>
<g id="a_node3"><a xlink:href="namespacead__framework_1_1data__structure.html#ae31d4822681561b83270bb8adc19976d" target="_top" xlink:title=" ">
<polygon fill="white" stroke="black" points="25,-0.5 25,-19.5 219,-19.5 219,-0.5 25,-0.5"/>
<text text-anchor="middle" x="122" y="-7.5" font-family="Helvetica,sans-Serif" font-size="10.00">ad_framework::data_structure::TEST</text>
</a>
</g>
</g>
<!-- Node1&#45;&gt;Node3 -->
<g id="edge2" class="edge">
<title>Node1&#45;&gt;Node3</title>
<path fill="none" stroke="midnightblue" d="M269.83,-20.04C252.73,-18.87 235.46,-17.69 219.08,-16.57"/>
<polygon fill="midnightblue" stroke="midnightblue" points="269.66,-23.53 279.87,-20.72 270.14,-16.55 269.66,-23.53"/>
</g>
</g>
</svg>
