<?xml version="1.0" encoding="UTF-8" standalone="no"?>
<!DOCTYPE svg PUBLIC "-//W3C//DTD SVG 1.1//EN"
 "http://www.w3.org/Graphics/SVG/1.1/DTD/svg11.dtd">
<!-- Generated by graphviz version 2.43.0 (0)
 -->
<!-- Title: ad_framwork::data_structure::Shape Pages: 1 -->
<svg width="1000pt" height="193pt"
 viewBox="0.00 0.00 999.50 193.00" xmlns="http://www.w3.org/2000/svg" xmlns:xlink="http://www.w3.org/1999/xlink">
<g id="graph0" class="graph" transform="scale(1 1) rotate(0) translate(4 189)">
<title>ad_framwork::data_structure::Shape</title>
<polygon fill="white" stroke="transparent" points="-4,4 -4,-189 995.5,-189 995.5,4 -4,4"/>
<!-- Node1 -->
<g id="node1" class="node">
<title>Node1</title>
<g id="a_node1"><a xlink:title=" ">
<polygon fill="#bfbfbf" stroke="black" points="306,-116.5 306,-184.5 604,-184.5 604,-116.5 306,-116.5"/>
<text text-anchor="middle" x="455" y="-172.5" font-family="Helvetica,sans-Serif" font-size="10.00">ad_framwork::data_structure::Shape</text>
<polyline fill="none" stroke="black" points="306,-165.5 604,-165.5 "/>
<text text-anchor="middle" x="455" y="-153.5" font-family="Helvetica,sans-Serif" font-size="10.00"> </text>
<polyline fill="none" stroke="black" points="306,-146.5 604,-146.5 "/>
<text text-anchor="start" x="314" y="-134.5" font-family="Helvetica,sans-Serif" font-size="10.00">+ virtual ~Shape()=default</text>
<text text-anchor="start" x="314" y="-123.5" font-family="Helvetica,sans-Serif" font-size="10.00">+ virtual bool IsIn(const Eigen::Vector3d &amp;point) const =0</text>
</a>
</g>
</g>
<!-- Node2 -->
<g id="node2" class="node">
<title>Node2</title>
<g id="a_node2"><a xlink:href="classad__framwork_1_1data__structure_1_1Circle.html" target="_top" xlink:title=" ">
<polygon fill="white" stroke="black" points="0,-0.5 0,-79.5 290,-79.5 290,-0.5 0,-0.5"/>
<text text-anchor="middle" x="145" y="-67.5" font-family="Helvetica,sans-Serif" font-size="10.00">ad_framwork::data_structure::Circle</text>
<polyline fill="none" stroke="black" points="0,-60.5 290,-60.5 "/>
<text text-anchor="start" x="8" y="-48.5" font-family="Helvetica,sans-Serif" font-size="10.00">&#45; Eigen::Vector3d center_</text>
<text text-anchor="start" x="8" y="-37.5" font-family="Helvetica,sans-Serif" font-size="10.00">&#45; double radius_</text>
<polyline fill="none" stroke="black" points="0,-30.5 290,-30.5 "/>
<text text-anchor="start" x="8" y="-18.5" font-family="Helvetica,sans-Serif" font-size="10.00">+ Circle(const Eigen::Vector3d &amp;center, double radius)</text>
<text text-anchor="start" x="8" y="-7.5" font-family="Helvetica,sans-Serif" font-size="10.00">+ bool IsIn(const Eigen::Vector3d &amp;point) const override</text>
</a>
</g>
</g>
<!-- Node1&#45;&gt;Node2 -->
<g id="edge1" class="edge">
<title>Node1&#45;&gt;Node2</title>
<path fill="none" stroke="midnightblue" d="M350.86,-113.05C320.08,-102.28 286.29,-90.45 255.15,-79.55"/>
<polygon fill="none" stroke="midnightblue" points="349.71,-116.36 360.31,-116.36 352.02,-109.75 349.71,-116.36"/>
</g>
<!-- Node3 -->
<g id="node3" class="node">
<title>Node3</title>
<g id="a_node3"><a xlink:href="classad__framwork_1_1data__structure_1_1Polygon.html" target="_top" xlink:title=" ">
<polygon fill="white" stroke="black" points="308,-6 308,-74 602,-74 602,-6 308,-6"/>
<text text-anchor="middle" x="455" y="-62" font-family="Helvetica,sans-Serif" font-size="10.00">ad_framwork::data_structure::Polygon</text>
<polyline fill="none" stroke="black" points="308,-55 602,-55 "/>
<text text-anchor="start" x="316" y="-43" font-family="Helvetica,sans-Serif" font-size="10.00">&#45; std::vector&lt; Eigen::Vector3d &gt; points_</text>
<polyline fill="none" stroke="black" points="308,-36 602,-36 "/>
<text text-anchor="start" x="316" y="-24" font-family="Helvetica,sans-Serif" font-size="10.00">+ Polygon(const std::vector&lt; Eigen::Vector3d &gt; &amp;points)</text>
<text text-anchor="start" x="316" y="-13" font-family="Helvetica,sans-Serif" font-size="10.00">+ bool IsIn(const Eigen::Vector3d &amp;point) const override</text>
</a>
</g>
</g>
<!-- Node1&#45;&gt;Node3 -->
<g id="edge2" class="edge">
<title>Node1&#45;&gt;Node3</title>
<path fill="none" stroke="midnightblue" d="M455,-106.04C455,-95.47 455,-84.33 455,-74.31"/>
<polygon fill="none" stroke="midnightblue" points="451.5,-106.36 455,-116.36 458.5,-106.36 451.5,-106.36"/>
</g>
<!-- Node4 -->
<g id="node4" class="node">
<title>Node4</title>
<g id="a_node4"><a xlink:href="classad__framwork_1_1data__structure_1_1Rectangle.html" target="_top" xlink:title=" ">
<polygon fill="white" stroke="black" points="620.5,-0.5 620.5,-79.5 991.5,-79.5 991.5,-0.5 620.5,-0.5"/>
<text text-anchor="middle" x="806" y="-67.5" font-family="Helvetica,sans-Serif" font-size="10.00">ad_framwork::data_structure::Rectangle</text>
<polyline fill="none" stroke="black" points="620.5,-60.5 991.5,-60.5 "/>
<text text-anchor="start" x="628.5" y="-48.5" font-family="Helvetica,sans-Serif" font-size="10.00">&#45; Eigen::Vector3d center_</text>
<text text-anchor="start" x="628.5" y="-37.5" font-family="Helvetica,sans-Serif" font-size="10.00">&#45; Eigen::Vector3d size_</text>
<polyline fill="none" stroke="black" points="620.5,-30.5 991.5,-30.5 "/>
<text text-anchor="start" x="628.5" y="-18.5" font-family="Helvetica,sans-Serif" font-size="10.00">+ Rectangle(const Eigen::Vector3d &amp;center, const Eigen::Vector3d &amp;size)</text>
<text text-anchor="start" x="628.5" y="-7.5" font-family="Helvetica,sans-Serif" font-size="10.00">+ bool IsIn(const Eigen::Vector3d &amp;point) const override</text>
</a>
</g>
</g>
<!-- Node1&#45;&gt;Node4 -->
<g id="edge3" class="edge">
<title>Node1&#45;&gt;Node4</title>
<path fill="none" stroke="midnightblue" d="M572.02,-113.33C607.11,-102.48 645.72,-90.55 681.28,-79.55"/>
<polygon fill="none" stroke="midnightblue" points="570.74,-110.06 562.22,-116.36 572.81,-116.75 570.74,-110.06"/>
</g>
</g>
</svg>
