<?xml version="1.0" encoding="UTF-8" standalone="no"?>
<!DOCTYPE svg PUBLIC "-//W3C//DTD SVG 1.1//EN"
 "http://www.w3.org/Graphics/SVG/1.1/DTD/svg11.dtd">
<!-- Generated by graphviz version 2.43.0 (0)
 -->
<!-- Title: ad_framwork::data_structure::Circle Pages: 1 -->
<svg width="494pt" height="193pt"
 viewBox="0.00 0.00 494.00 193.00" xmlns="http://www.w3.org/2000/svg" xmlns:xlink="http://www.w3.org/1999/xlink">
<g id="graph0" class="graph" transform="scale(1 1) rotate(0) translate(4 189)">
<title>ad_framwork::data_structure::Circle</title>
<polygon fill="white" stroke="transparent" points="-4,4 -4,-189 490,-189 490,4 -4,4"/>
<!-- Node1 -->
<g id="node1" class="node">
<title>Node1</title>
<g id="a_node1"><a xlink:title=" ">
<polygon fill="#bfbfbf" stroke="black" points="196,-0.5 196,-68.5 486,-68.5 486,-0.5 196,-0.5"/>
<text text-anchor="middle" x="341" y="-56.5" font-family="Helvetica,sans-Serif" font-size="10.00">ad_framwork::data_structure::Circle</text>
<polyline fill="none" stroke="black" points="196,-49.5 486,-49.5 "/>
<text text-anchor="middle" x="341" y="-37.5" font-family="Helvetica,sans-Serif" font-size="10.00"> </text>
<polyline fill="none" stroke="black" points="196,-30.5 486,-30.5 "/>
<text text-anchor="start" x="204" y="-18.5" font-family="Helvetica,sans-Serif" font-size="10.00">+ Circle(const Eigen::Vector3d &amp;center, double radius)</text>
<text text-anchor="start" x="204" y="-7.5" font-family="Helvetica,sans-Serif" font-size="10.00">+ bool IsIn(const Eigen::Vector3d &amp;point) const override</text>
</a>
</g>
</g>
<!-- Node2 -->
<g id="node2" class="node">
<title>Node2</title>
<g id="a_node2"><a xlink:href="classad__framwork_1_1data__structure_1_1Shape.html" target="_top" xlink:title=" ">
<polygon fill="white" stroke="black" points="0,-116.5 0,-184.5 298,-184.5 298,-116.5 0,-116.5"/>
<text text-anchor="middle" x="149" y="-172.5" font-family="Helvetica,sans-Serif" font-size="10.00">ad_framwork::data_structure::Shape</text>
<polyline fill="none" stroke="black" points="0,-165.5 298,-165.5 "/>
<text text-anchor="middle" x="149" y="-153.5" font-family="Helvetica,sans-Serif" font-size="10.00"> </text>
<polyline fill="none" stroke="black" points="0,-146.5 298,-146.5 "/>
<text text-anchor="start" x="8" y="-134.5" font-family="Helvetica,sans-Serif" font-size="10.00">+ virtual ~Shape()=default</text>
<text text-anchor="start" x="8" y="-123.5" font-family="Helvetica,sans-Serif" font-size="10.00">+ virtual bool IsIn(const Eigen::Vector3d &amp;point) const =0</text>
</a>
</g>
</g>
<!-- Node2&#45;&gt;Node1 -->
<g id="edge1" class="edge">
<title>Node2&#45;&gt;Node1</title>
<path fill="none" stroke="midnightblue" d="M213.57,-111.16C236.87,-97.33 262.94,-81.85 285.4,-68.51"/>
<polygon fill="none" stroke="midnightblue" points="211.6,-108.26 204.79,-116.37 215.18,-114.28 211.6,-108.26"/>
</g>
<!-- Node3 -->
<g id="node3" class="node">
<title>Node3</title>
<g id="a_node3"><a xlink:title=" ">
<polygon fill="white" stroke="#bfbfbf" points="316,-122 316,-179 366,-179 366,-122 316,-122"/>
<text text-anchor="middle" x="341" y="-167" font-family="Helvetica,sans-Serif" font-size="10.00">double</text>
<polyline fill="none" stroke="#bfbfbf" points="316,-160 366,-160 "/>
<text text-anchor="middle" x="341" y="-148" font-family="Helvetica,sans-Serif" font-size="10.00"> </text>
<polyline fill="none" stroke="#bfbfbf" points="316,-141 366,-141 "/>
<text text-anchor="middle" x="341" y="-129" font-family="Helvetica,sans-Serif" font-size="10.00"> </text>
</a>
</g>
</g>
<!-- Node3&#45;&gt;Node1 -->
<g id="edge2" class="edge">
<title>Node3&#45;&gt;Node1</title>
<path fill="none" stroke="#404040" d="M341,-121.9C341,-109.59 341,-94.76 341,-80.89"/>
<polygon fill="none" stroke="#404040" points="341,-80.52 337,-74.52 341,-68.52 345,-74.52 341,-80.52"/>
<text text-anchor="middle" x="362.5" y="-90" font-family="Helvetica,sans-Serif" font-size="10.00"> &#45;radius_</text>
</g>
<!-- Node4 -->
<g id="node4" class="node">
<title>Node4</title>
<g id="a_node4"><a xlink:title=" ">
<polygon fill="white" stroke="#bfbfbf" points="384.5,-122 384.5,-179 443.5,-179 443.5,-122 384.5,-122"/>
<text text-anchor="middle" x="414" y="-167" font-family="Helvetica,sans-Serif" font-size="10.00">Vector3d</text>
<polyline fill="none" stroke="#bfbfbf" points="384.5,-160 443.5,-160 "/>
<text text-anchor="middle" x="414" y="-148" font-family="Helvetica,sans-Serif" font-size="10.00"> </text>
<polyline fill="none" stroke="#bfbfbf" points="384.5,-141 443.5,-141 "/>
<text text-anchor="middle" x="414" y="-129" font-family="Helvetica,sans-Serif" font-size="10.00"> </text>
</a>
</g>
</g>
<!-- Node4&#45;&gt;Node1 -->
<g id="edge3" class="edge">
<title>Node4&#45;&gt;Node1</title>
<path fill="none" stroke="#404040" d="M404.81,-121.72C400.51,-110.5 394.82,-97.71 388,-87 386.14,-84.08 384.11,-81.17 381.97,-78.3"/>
<polygon fill="none" stroke="#404040" points="381.85,-78.16 374.98,-75.96 374.36,-68.78 381.23,-70.97 381.85,-78.16"/>
<text text-anchor="middle" x="414.5" y="-90" font-family="Helvetica,sans-Serif" font-size="10.00"> &#45;center_</text>
</g>
</g>
</svg>
