<?xml version="1.0" encoding="UTF-8" standalone="no"?>
<!DOCTYPE svg PUBLIC "-//W3C//DTD SVG 1.1//EN"
 "http://www.w3.org/Graphics/SVG/1.1/DTD/svg11.dtd">
<!-- Generated by graphviz version 2.43.0 (0)
 -->
<!-- Title: ad_framework::application::Application::Execute Pages: 1 -->
<svg width="913pt" height="180pt"
 viewBox="0.00 0.00 913.00 180.00" xmlns="http://www.w3.org/2000/svg" xmlns:xlink="http://www.w3.org/1999/xlink">
<g id="graph0" class="graph" transform="scale(1 1) rotate(0) translate(4 176)">
<title>ad_framework::application::Application::Execute</title>
<polygon fill="white" stroke="transparent" points="-4,4 -4,-176 909,-176 909,4 -4,4"/>
<!-- Node1 -->
<g id="node1" class="node">
<title>Node1</title>
<g id="a_node1"><a xlink:title=" ">
<polygon fill="#bfbfbf" stroke="black" points="0,-76.5 0,-95.5 252,-95.5 252,-76.5 0,-76.5"/>
<text text-anchor="middle" x="126" y="-83.5" font-family="Helvetica,sans-Serif" font-size="10.00">ad_framework::application::Application::Execute</text>
</a>
</g>
</g>
<!-- Node2 -->
<g id="node2" class="node">
<title>Node2</title>
<g id="a_node2"><a xlink:href="classad__framework_1_1application_1_1UserInterface.html#a95aec93006c0a8a8652ff20f6ab63b69" target="_top" xlink:title=" ">
<polygon fill="white" stroke="black" points="288,-76.5 288,-95.5 551,-95.5 551,-76.5 288,-76.5"/>
<text text-anchor="middle" x="419.5" y="-83.5" font-family="Helvetica,sans-Serif" font-size="10.00">ad_framework::application::UserInterface::Execute</text>
</a>
</g>
</g>
<!-- Node1&#45;&gt;Node2 -->
<g id="edge1" class="edge">
<title>Node1&#45;&gt;Node2</title>
<path fill="none" stroke="midnightblue" d="M252.31,-86C260.65,-86 269.08,-86 277.49,-86"/>
<polygon fill="midnightblue" stroke="midnightblue" points="277.72,-89.5 287.72,-86 277.72,-82.5 277.72,-89.5"/>
</g>
<!-- Node3 -->
<g id="node3" class="node">
<title>Node3</title>
<g id="a_node3"><a xlink:href="classad__framework_1_1application_1_1Window.html#a5180c05c72e0c026613df66965a12c09" target="_top" xlink:title=" ">
<polygon fill="white" stroke="black" points="628.5,-152.5 628.5,-171.5 863.5,-171.5 863.5,-152.5 628.5,-152.5"/>
<text text-anchor="middle" x="746" y="-159.5" font-family="Helvetica,sans-Serif" font-size="10.00">ad_framework::application::Window::GetSize</text>
</a>
</g>
</g>
<!-- Node2&#45;&gt;Node3 -->
<g id="edge2" class="edge">
<title>Node2&#45;&gt;Node3</title>
<path fill="none" stroke="midnightblue" d="M443.49,-95.6C475.2,-108.44 534.43,-130.98 587,-143 600.68,-146.13 615.15,-148.76 629.55,-150.97"/>
<polygon fill="midnightblue" stroke="midnightblue" points="629.1,-154.45 639.51,-152.44 630.12,-147.52 629.1,-154.45"/>
</g>
<!-- Node4 -->
<g id="node4" class="node">
<title>Node4</title>
<g id="a_node4"><a xlink:href="classad__framework_1_1application_1_1Window.html#a9569910e63065451d43ad6d955ec07d4" target="_top" xlink:title=" ">
<polygon fill="white" stroke="black" points="630.5,-114.5 630.5,-133.5 861.5,-133.5 861.5,-114.5 630.5,-114.5"/>
<text text-anchor="middle" x="746" y="-121.5" font-family="Helvetica,sans-Serif" font-size="10.00">ad_framework::application::Window::IsOpen</text>
</a>
</g>
</g>
<!-- Node2&#45;&gt;Node4 -->
<g id="edge3" class="edge">
<title>Node2&#45;&gt;Node4</title>
<path fill="none" stroke="midnightblue" d="M501.97,-95.54C548.15,-100.95 606.06,-107.73 653.76,-113.32"/>
<polygon fill="midnightblue" stroke="midnightblue" points="653.44,-116.8 663.78,-114.49 654.26,-109.85 653.44,-116.8"/>
</g>
<!-- Node5 -->
<g id="node5" class="node">
<title>Node5</title>
<g id="a_node5"><a xlink:href="classad__framework_1_1application_1_1Window.html#aa26d85e7b58a197aca840c4c555bbca3" target="_top" xlink:title=" ">
<polygon fill="white" stroke="black" points="621,-76.5 621,-95.5 871,-95.5 871,-76.5 621,-76.5"/>
<text text-anchor="middle" x="746" y="-83.5" font-family="Helvetica,sans-Serif" font-size="10.00">ad_framework::application::Window::NewFrame</text>
</a>
</g>
</g>
<!-- Node2&#45;&gt;Node5 -->
<g id="edge4" class="edge">
<title>Node2&#45;&gt;Node5</title>
<path fill="none" stroke="midnightblue" d="M551.08,-86C570.73,-86 591.02,-86 610.74,-86"/>
<polygon fill="midnightblue" stroke="midnightblue" points="611,-89.5 621,-86 611,-82.5 611,-89.5"/>
</g>
<!-- Node6 -->
<g id="node6" class="node">
<title>Node6</title>
<g id="a_node6"><a xlink:href="classad__framework_1_1application_1_1Window.html#a7f5991bdfb43dd781dff432388f1be9b" target="_top" xlink:title=" ">
<polygon fill="white" stroke="black" points="630,-38.5 630,-57.5 862,-57.5 862,-38.5 630,-38.5"/>
<text text-anchor="middle" x="746" y="-45.5" font-family="Helvetica,sans-Serif" font-size="10.00">ad_framework::application::Window::Render</text>
</a>
</g>
</g>
<!-- Node2&#45;&gt;Node6 -->
<g id="edge5" class="edge">
<title>Node2&#45;&gt;Node6</title>
<path fill="none" stroke="midnightblue" d="M501.97,-76.46C548.15,-71.05 606.06,-64.27 653.76,-58.68"/>
<polygon fill="midnightblue" stroke="midnightblue" points="654.26,-62.15 663.78,-57.51 653.44,-55.2 654.26,-62.15"/>
</g>
<!-- Node7 -->
<g id="node7" class="node">
<title>Node7</title>
<g id="a_node7"><a xlink:href="classad__framework_1_1application_1_1UserInterface.html#a32ced87fe9b11703ef77dfbe886e923d" target="_top" xlink:title=" ">
<polygon fill="white" stroke="black" points="587,-0.5 587,-19.5 905,-19.5 905,-0.5 587,-0.5"/>
<text text-anchor="middle" x="746" y="-7.5" font-family="Helvetica,sans-Serif" font-size="10.00">ad_framework::application::UserInterface::UpdateDataReader</text>
</a>
</g>
</g>
<!-- Node2&#45;&gt;Node7 -->
<g id="edge6" class="edge">
<title>Node2&#45;&gt;Node7</title>
<path fill="none" stroke="midnightblue" d="M443.49,-76.4C475.2,-63.56 534.43,-41.02 587,-29 600.68,-25.87 615.15,-23.24 629.55,-21.03"/>
<polygon fill="midnightblue" stroke="midnightblue" points="630.12,-24.48 639.51,-19.56 629.1,-17.55 630.12,-24.48"/>
</g>
</g>
</svg>
