<?xml version="1.0" encoding="UTF-8" standalone="no"?>
<!DOCTYPE svg PUBLIC "-//W3C//DTD SVG 1.1//EN"
 "http://www.w3.org/Graphics/SVG/1.1/DTD/svg11.dtd">
<!-- Generated by graphviz version 2.43.0 (0)
 -->
<!-- Title: ad_framework::KittiDataReader::KittiDataReader Pages: 1 -->
<svg width="809pt" height="142pt"
 viewBox="0.00 0.00 809.00 142.00" xmlns="http://www.w3.org/2000/svg" xmlns:xlink="http://www.w3.org/1999/xlink">
<g id="graph0" class="graph" transform="scale(1 1) rotate(0) translate(4 138)">
<title>ad_framework::KittiDataReader::KittiDataReader</title>
<polygon fill="white" stroke="transparent" points="-4,4 -4,-138 805,-138 805,4 -4,4"/>
<!-- Node1 -->
<g id="node1" class="node">
<title>Node1</title>
<g id="a_node1"><a xlink:title=" ">
<polygon fill="#bfbfbf" stroke="black" points="0,-57.5 0,-76.5 255,-76.5 255,-57.5 0,-57.5"/>
<text text-anchor="middle" x="127.5" y="-64.5" font-family="Helvetica,sans-Serif" font-size="10.00">ad_framework::KittiDataReader::KittiDataReader</text>
</a>
</g>
</g>
<!-- Node2 -->
<g id="node2" class="node">
<title>Node2</title>
<g id="a_node2"><a xlink:href="classad__framework_1_1KittiDataReader.html#a38758a0420b671e85832f4f8e04c668e" target="_top" xlink:title=" ">
<polygon fill="white" stroke="black" points="291,-114.5 291,-133.5 546,-133.5 546,-114.5 291,-114.5"/>
<text text-anchor="middle" x="418.5" y="-121.5" font-family="Helvetica,sans-Serif" font-size="10.00">ad_framework::KittiDataReader::ReadCalibration</text>
</a>
</g>
</g>
<!-- Node1&#45;&gt;Node2 -->
<g id="edge1" class="edge">
<title>Node1&#45;&gt;Node2</title>
<path fill="none" stroke="midnightblue" d="M165.43,-76.53C198.25,-84.79 247.61,-96.68 291,-105 305.85,-107.85 321.75,-110.52 337.09,-112.92"/>
<polygon fill="midnightblue" stroke="midnightblue" points="336.66,-116.39 347.07,-114.45 337.72,-109.47 336.66,-116.39"/>
</g>
<!-- Node4 -->
<g id="node4" class="node">
<title>Node4</title>
<g id="a_node4"><a xlink:href="classad__framework_1_1KittiDataReader.html#a18b736966fd9247798f526d5c9cc8dab" target="_top" xlink:title=" ">
<polygon fill="white" stroke="black" points="307.5,-76.5 307.5,-95.5 529.5,-95.5 529.5,-76.5 307.5,-76.5"/>
<text text-anchor="middle" x="418.5" y="-83.5" font-family="Helvetica,sans-Serif" font-size="10.00">ad_framework::KittiDataReader::ReadSize</text>
</a>
</g>
</g>
<!-- Node1&#45;&gt;Node4 -->
<g id="edge3" class="edge">
<title>Node1&#45;&gt;Node4</title>
<path fill="none" stroke="midnightblue" d="M255.26,-75.33C269.17,-76.25 283.31,-77.18 297.14,-78.09"/>
<polygon fill="midnightblue" stroke="midnightblue" points="296.94,-81.58 307.15,-78.75 297.4,-74.6 296.94,-81.58"/>
</g>
<!-- Node5 -->
<g id="node5" class="node">
<title>Node5</title>
<g id="a_node5"><a xlink:href="classad__framework_1_1DataReader.html#a1923005291974cc2c2f7197f720f5faf" target="_top" xlink:title=" ">
<polygon fill="white" stroke="black" points="305.5,-38.5 305.5,-57.5 531.5,-57.5 531.5,-38.5 305.5,-38.5"/>
<text text-anchor="middle" x="418.5" y="-45.5" font-family="Helvetica,sans-Serif" font-size="10.00">ad_framework::DataReader::SetCalibration</text>
</a>
</g>
</g>
<!-- Node1&#45;&gt;Node5 -->
<g id="edge4" class="edge">
<title>Node1&#45;&gt;Node5</title>
<path fill="none" stroke="midnightblue" d="M255.26,-58.67C268.55,-57.79 282.05,-56.9 295.29,-56.03"/>
<polygon fill="midnightblue" stroke="midnightblue" points="295.61,-59.52 305.36,-55.37 295.15,-52.54 295.61,-59.52"/>
</g>
<!-- Node6 -->
<g id="node6" class="node">
<title>Node6</title>
<g id="a_node6"><a xlink:href="classad__framework_1_1DataReader.html#a7e7c197a4a15dca52e14dbdd26836fc7" target="_top" xlink:title=" ">
<polygon fill="white" stroke="black" points="322,-0.5 322,-19.5 515,-19.5 515,-0.5 322,-0.5"/>
<text text-anchor="middle" x="418.5" y="-7.5" font-family="Helvetica,sans-Serif" font-size="10.00">ad_framework::DataReader::SetSize</text>
</a>
</g>
</g>
<!-- Node1&#45;&gt;Node6 -->
<g id="edge5" class="edge">
<title>Node1&#45;&gt;Node6</title>
<path fill="none" stroke="midnightblue" d="M165.43,-57.47C198.25,-49.21 247.61,-37.32 291,-29 305.85,-26.15 321.75,-23.48 337.09,-21.08"/>
<polygon fill="midnightblue" stroke="midnightblue" points="337.72,-24.53 347.07,-19.55 336.66,-17.61 337.72,-24.53"/>
</g>
<!-- Node3 -->
<g id="node3" class="node">
<title>Node3</title>
<g id="a_node3"><a xlink:href="classad__framework_1_1Calibration.html#a17d65c686ea849702f213e122358f6d2" target="_top" xlink:title=" ">
<polygon fill="white" stroke="black" points="582,-114.5 582,-133.5 801,-133.5 801,-114.5 582,-114.5"/>
<text text-anchor="middle" x="691.5" y="-121.5" font-family="Helvetica,sans-Serif" font-size="10.00">ad_framework::Calibration::ReadFromFile</text>
</a>
</g>
</g>
<!-- Node2&#45;&gt;Node3 -->
<g id="edge2" class="edge">
<title>Node2&#45;&gt;Node3</title>
<path fill="none" stroke="midnightblue" d="M546.27,-124C554.69,-124 563.16,-124 571.54,-124"/>
<polygon fill="midnightblue" stroke="midnightblue" points="571.72,-127.5 581.72,-124 571.72,-120.5 571.72,-127.5"/>
</g>
</g>
</svg>
