<?xml version="1.0" encoding="UTF-8" standalone="no"?>
<!DOCTYPE svg PUBLIC "-//W3C//DTD SVG 1.1//EN"
 "http://www.w3.org/Graphics/SVG/1.1/DTD/svg11.dtd">
<!-- Generated by graphviz version 2.43.0 (0)
 -->
<!-- Title: Application Pages: 1 -->
<svg width="240pt" height="298pt"
 viewBox="0.00 0.00 240.00 298.00" xmlns="http://www.w3.org/2000/svg" xmlns:xlink="http://www.w3.org/1999/xlink">
<g id="graph0" class="graph" transform="scale(1 1) rotate(0) translate(4 294)">
<title>Application</title>
<polygon fill="white" stroke="transparent" points="-4,4 -4,-294 236,-294 236,4 -4,4"/>
<!-- Node1 -->
<g id="node1" class="node">
<title>Node1</title>
<g id="a_node1"><a xlink:title=" ">
<polygon fill="#bfbfbf" stroke="black" points="42,-0.5 42,-79.5 140,-79.5 140,-0.5 42,-0.5"/>
<text text-anchor="middle" x="91" y="-67.5" font-family="Helvetica,sans-Serif" font-size="10.00">Application</text>
<polyline fill="none" stroke="black" points="42,-60.5 140,-60.5 "/>
<text text-anchor="middle" x="91" y="-48.5" font-family="Helvetica,sans-Serif" font-size="10.00"> </text>
<polyline fill="none" stroke="black" points="42,-41.5 140,-41.5 "/>
<text text-anchor="start" x="50" y="-29.5" font-family="Helvetica,sans-Serif" font-size="10.00">+ Application()</text>
<text text-anchor="start" x="50" y="-18.5" font-family="Helvetica,sans-Serif" font-size="10.00">+ ~Application()</text>
<text text-anchor="start" x="50" y="-7.5" font-family="Helvetica,sans-Serif" font-size="10.00">+ void Run()</text>
</a>
</g>
</g>
<!-- Node2 -->
<g id="node2" class="node">
<title>Node2</title>
<g id="a_node2"><a xlink:title=" ">
<polygon fill="white" stroke="#bfbfbf" points="0,-127.5 0,-184.5 96,-184.5 96,-127.5 0,-127.5"/>
<text text-anchor="middle" x="48" y="-172.5" font-family="Helvetica,sans-Serif" font-size="10.00">UserInterfacePtr</text>
<polyline fill="none" stroke="#bfbfbf" points="0,-165.5 96,-165.5 "/>
<text text-anchor="middle" x="48" y="-153.5" font-family="Helvetica,sans-Serif" font-size="10.00"> </text>
<polyline fill="none" stroke="#bfbfbf" points="0,-146.5 96,-146.5 "/>
<text text-anchor="middle" x="48" y="-134.5" font-family="Helvetica,sans-Serif" font-size="10.00"> </text>
</a>
</g>
</g>
<!-- Node2&#45;&gt;Node1 -->
<g id="edge1" class="edge">
<title>Node2&#45;&gt;Node1</title>
<path fill="none" stroke="#404040" d="M58.41,-127.4C62.56,-116.41 67.46,-103.4 72.2,-90.85"/>
<polygon fill="none" stroke="#404040" points="72.23,-90.77 70.6,-83.74 76.46,-79.54 78.09,-86.57 72.23,-90.77"/>
<text text-anchor="middle" x="82.5" y="-101" font-family="Helvetica,sans-Serif" font-size="10.00"> &#45;uis_</text>
</g>
<!-- Node3 -->
<g id="node3" class="node">
<title>Node3</title>
<g id="a_node3"><a xlink:title=" ">
<polygon fill="white" stroke="#bfbfbf" points="114,-127.5 114,-184.5 232,-184.5 232,-127.5 114,-127.5"/>
<text text-anchor="middle" x="173" y="-172.5" font-family="Helvetica,sans-Serif" font-size="10.00">std::shared_ptr&lt; T &gt;</text>
<polyline fill="none" stroke="#bfbfbf" points="114,-165.5 232,-165.5 "/>
<text text-anchor="middle" x="173" y="-153.5" font-family="Helvetica,sans-Serif" font-size="10.00"> </text>
<polyline fill="none" stroke="#bfbfbf" points="114,-146.5 232,-146.5 "/>
<text text-anchor="start" x="122" y="-134.5" font-family="Helvetica,sans-Serif" font-size="10.00">+ T * operator&#45;&gt;()</text>
</a>
</g>
</g>
<!-- Node3&#45;&gt;Node1 -->
<g id="edge2" class="edge">
<title>Node3&#45;&gt;Node1</title>
<path fill="none" stroke="#404040" d="M153.15,-127.4C144.92,-115.96 135.11,-102.33 125.76,-89.32"/>
<polygon fill="none" stroke="#404040" points="125.73,-89.28 118.98,-86.75 118.72,-79.54 125.47,-82.08 125.73,-89.28"/>
<text text-anchor="middle" x="164" y="-101" font-family="Helvetica,sans-Serif" font-size="10.00"> &#45;window_</text>
</g>
<!-- Node4 -->
<g id="node4" class="node">
<title>Node4</title>
<g id="a_node4"><a xlink:title=" ">
<polygon fill="white" stroke="#bfbfbf" points="158.5,-232.5 158.5,-289.5 187.5,-289.5 187.5,-232.5 158.5,-232.5"/>
<text text-anchor="middle" x="173" y="-277.5" font-family="Helvetica,sans-Serif" font-size="10.00">T</text>
<polyline fill="none" stroke="#bfbfbf" points="158.5,-270.5 187.5,-270.5 "/>
<text text-anchor="middle" x="173" y="-258.5" font-family="Helvetica,sans-Serif" font-size="10.00"> </text>
<polyline fill="none" stroke="#bfbfbf" points="158.5,-251.5 187.5,-251.5 "/>
<text text-anchor="middle" x="173" y="-239.5" font-family="Helvetica,sans-Serif" font-size="10.00"> </text>
</a>
</g>
</g>
<!-- Node4&#45;&gt;Node3 -->
<g id="edge3" class="edge">
<title>Node4&#45;&gt;Node3</title>
<path fill="none" stroke="#404040" d="M173,-232.4C173,-221.55 173,-208.87 173,-197.05"/>
<polygon fill="none" stroke="#404040" points="173,-196.68 169,-190.68 173,-184.68 177,-190.68 173,-196.68"/>
<text text-anchor="middle" x="185.5" y="-206" font-family="Helvetica,sans-Serif" font-size="10.00"> +ptr</text>
</g>
</g>
</svg>
