<?xml version="1.0" encoding="UTF-8" standalone="no"?>
<!DOCTYPE svg PUBLIC "-//W3C//DTD SVG 1.1//EN"
 "http://www.w3.org/Graphics/SVG/1.1/DTD/svg11.dtd">
<!-- Generated by graphviz version 2.43.0 (0)
 -->
<!-- Title: ad_framework::ui::UserInterface Pages: 1 -->
<!--zoomable 463 -->
<svg id="main" version="1.1" xmlns="http://www.w3.org/2000/svg" xmlns:xlink="http://www.w3.org/1999/xlink" xml:space="preserve" onload="init(evt)">
<style type="text/css"><![CDATA[
.edge:hover path { stroke: red; }
.edge:hover polygon { stroke: red; fill: red; }
]]></style>
<script type="text/javascript"><![CDATA[
var edges = document.getElementsByTagName('g');
if (edges && edges.length) {
  for (var i=0;i<edges.length;i++) {
    if (edges[i].id.substr(0,4)=='edge') {
      edges[i].setAttribute('class','edge');
    }
  }
}
]]></script>
        <defs>
                <circle id="rim" cx="0" cy="0" r="7"/>
                <circle id="rim2" cx="0" cy="0" r="3.5"/>
                <g id="zoomPlus">
                        <use xlink:href="#rim" fill="#404040">
                                <set attributeName="fill" to="#808080" begin="zoomplus.mouseover" end="zoomplus.mouseout"/>
                        </use>
                        <path d="M-4,0h8M0,-4v8" fill="none" stroke="white" stroke-width="1.5" pointer-events="none"/>
                </g>
                <g id="zoomMin">
                        <use xlink:href="#rim" fill="#404040">
                                <set attributeName="fill" to="#808080" begin="zoomminus.mouseover" end="zoomminus.mouseout"/>
                        </use>
                        <path d="M-4,0h8" fill="none" stroke="white" stroke-width="1.5" pointer-events="none"/>
                </g>
                <g id="dirArrow">
                        <path fill="none" stroke="white" stroke-width="1.5" d="M0,-3.0v7 M-2.5,-0.5L0,-3.0L2.5,-0.5"/>
                </g>
               <g id="resetDef">
                       <use xlink:href="#rim2" fill="#404040">
                               <set attributeName="fill" to="#808080" begin="reset.mouseover" end="reset.mouseout"/>
                       </use>
               </g>
        </defs>

<script type="text/javascript">
var viewWidth = 1466;
var viewHeight = 463;
var sectionId = 'dynsection-0';
</script>
<script xlink:href="svgpan.js"/>
<svg id="graph" class="graph">
<g id="viewport">
<title>ad_framework::ui::UserInterface</title>
<polygon fill="white" stroke="transparent" points="-4,4 -4,-459 1462,-459 1462,4 -4,4"/>
<!-- Node1 -->
<g id="node1" class="node">
<title>Node1</title>
<g id="a_node1"><a xlink:title=" ">
<polygon fill="#bfbfbf" stroke="black" points="539.5,-127.5 539.5,-360.5 890.5,-360.5 890.5,-127.5 539.5,-127.5"/>
<text text-anchor="middle" x="715" y="-348.5" font-family="Helvetica,sans-Serif" font-size="10.00">ad_framework::ui::UserInterface</text>
<polyline fill="none" stroke="black" points="539.5,-341.5 890.5,-341.5 "/>
<text text-anchor="start" x="547.5" y="-329.5" font-family="Helvetica,sans-Serif" font-size="10.00">&#45; std::string title_</text>
<text text-anchor="start" x="547.5" y="-318.5" font-family="Helvetica,sans-Serif" font-size="10.00">&#45; ImVec2 size_</text>
<text text-anchor="start" x="547.5" y="-307.5" font-family="Helvetica,sans-Serif" font-size="10.00">&#45; ImVec2 pos_</text>
<text text-anchor="start" x="547.5" y="-296.5" font-family="Helvetica,sans-Serif" font-size="10.00">&#45; UserInterfacePtr parent_</text>
<text text-anchor="start" x="547.5" y="-285.5" font-family="Helvetica,sans-Serif" font-size="10.00">&#45; CallbackMap callbacks_</text>
<polyline fill="none" stroke="black" points="539.5,-278.5 890.5,-278.5 "/>
<text text-anchor="start" x="547.5" y="-266.5" font-family="Helvetica,sans-Serif" font-size="10.00">+ UserInterface(std::string title, ImVec2 size, ImVec2 pos)</text>
<text text-anchor="start" x="547.5" y="-255.5" font-family="Helvetica,sans-Serif" font-size="10.00">+ virtual ~UserInterface()=default</text>
<text text-anchor="start" x="547.5" y="-244.5" font-family="Helvetica,sans-Serif" font-size="10.00">+ virtual void operator()()=0</text>
<text text-anchor="start" x="547.5" y="-233.5" font-family="Helvetica,sans-Serif" font-size="10.00">+ std::string Title() const</text>
<text text-anchor="start" x="547.5" y="-222.5" font-family="Helvetica,sans-Serif" font-size="10.00">+ void Rename(std::string title)</text>
<text text-anchor="start" x="547.5" y="-211.5" font-family="Helvetica,sans-Serif" font-size="10.00">+ ImVec2 Size() const</text>
<text text-anchor="start" x="547.5" y="-200.5" font-family="Helvetica,sans-Serif" font-size="10.00">+ ImVec2 Pos() const</text>
<text text-anchor="start" x="547.5" y="-189.5" font-family="Helvetica,sans-Serif" font-size="10.00">+ void Resize(ImVec2 size)</text>
<text text-anchor="start" x="547.5" y="-178.5" font-family="Helvetica,sans-Serif" font-size="10.00">+ void Move(ImVec2 pos)</text>
<text text-anchor="start" x="547.5" y="-167.5" font-family="Helvetica,sans-Serif" font-size="10.00">+ void SetParent(UserInterfacePtr parent)</text>
<text text-anchor="start" x="547.5" y="-156.5" font-family="Helvetica,sans-Serif" font-size="10.00">+ UserInterfacePtr GetParent() const</text>
<text text-anchor="start" x="547.5" y="-145.5" font-family="Helvetica,sans-Serif" font-size="10.00">+ void AddCallback(std::string name, callback::CallbackPtr callback)</text>
<text text-anchor="start" x="547.5" y="-134.5" font-family="Helvetica,sans-Serif" font-size="10.00">+ CallbackMap GetCallbacks() const</text>
</a>
</g>
</g>
<!-- Node3 -->
<g id="node3" class="node">
<title>Node3</title>
<g id="a_node3"><a xlink:href="classad__framework_1_1ui_1_1Button.html" target="_top" xlink:title=" ">
<polygon fill="white" stroke="black" points="0,-6 0,-85 266,-85 266,-6 0,-6"/>
<text text-anchor="middle" x="133" y="-73" font-family="Helvetica,sans-Serif" font-size="10.00">ad_framework::ui::Button</text>
<polyline fill="none" stroke="black" points="0,-66 266,-66 "/>
<text text-anchor="middle" x="133" y="-54" font-family="Helvetica,sans-Serif" font-size="10.00"> </text>
<polyline fill="none" stroke="black" points="0,-47 266,-47 "/>
<text text-anchor="start" x="8" y="-35" font-family="Helvetica,sans-Serif" font-size="10.00">+ Button(std::string title, ImVec2 size, ImVec2 pos)</text>
<text text-anchor="start" x="8" y="-24" font-family="Helvetica,sans-Serif" font-size="10.00">+ Button(std::string title)</text>
<text text-anchor="start" x="8" y="-13" font-family="Helvetica,sans-Serif" font-size="10.00">+ void operator()() override</text>
</a>
</g>
</g>
<!-- Node1&#45;&gt;Node3 -->
<g id="edge2" class="edge">
<title>Node1&#45;&gt;Node3</title>
<path fill="none" stroke="midnightblue" d="M529.7,-180.44C436.95,-149.12 327.62,-112.21 247.25,-85.08"/>
<polygon fill="none" stroke="midnightblue" points="528.6,-183.76 539.2,-183.64 530.84,-177.13 528.6,-183.76"/>
</g>
<!-- Node4 -->
<g id="node4" class="node">
<title>Node4</title>
<g id="a_node4"><a xlink:href="classad__framework_1_1ui_1_1Frame.html" target="_top" xlink:title=" ">
<polygon fill="white" stroke="black" points="284,-0.5 284,-90.5 548,-90.5 548,-0.5 284,-0.5"/>
<text text-anchor="middle" x="416" y="-78.5" font-family="Helvetica,sans-Serif" font-size="10.00">ad_framework::ui::Frame</text>
<polyline fill="none" stroke="black" points="284,-71.5 548,-71.5 "/>
<text text-anchor="start" x="292" y="-59.5" font-family="Helvetica,sans-Serif" font-size="10.00">&#45; std::vector&lt; UserInterfacePtr &gt; children_</text>
<polyline fill="none" stroke="black" points="284,-52.5 548,-52.5 "/>
<text text-anchor="start" x="292" y="-40.5" font-family="Helvetica,sans-Serif" font-size="10.00">+ Frame(std::string title, ImVec2 size, ImVec2 pos)</text>
<text text-anchor="start" x="292" y="-29.5" font-family="Helvetica,sans-Serif" font-size="10.00">+ Frame(std::string title)</text>
<text text-anchor="start" x="292" y="-18.5" font-family="Helvetica,sans-Serif" font-size="10.00">+ void operator()() override</text>
<text text-anchor="start" x="292" y="-7.5" font-family="Helvetica,sans-Serif" font-size="10.00">+ void AddUI(UserInterfacePtr ui)</text>
</a>
</g>
</g>
<!-- Node1&#45;&gt;Node4 -->
<g id="edge3" class="edge">
<title>Node1&#45;&gt;Node4</title>
<path fill="none" stroke="midnightblue" d="M530.56,-121.79C513.86,-110.81 497.77,-100.24 483.21,-90.67"/>
<polygon fill="none" stroke="midnightblue" points="529.06,-124.99 539.34,-127.56 532.91,-119.14 529.06,-124.99"/>
</g>
<!-- Node5 -->
<g id="node5" class="node">
<title>Node5</title>
<g id="a_node5"><a xlink:href="classad__framework_1_1ui_1_1ImageViewer.html" target="_top" xlink:title=" ">
<polygon fill="white" stroke="black" points="566,-6 566,-85 864,-85 864,-6 566,-6"/>
<text text-anchor="middle" x="715" y="-73" font-family="Helvetica,sans-Serif" font-size="10.00">ad_framework::ui::ImageViewer</text>
<polyline fill="none" stroke="black" points="566,-66 864,-66 "/>
<text text-anchor="middle" x="715" y="-54" font-family="Helvetica,sans-Serif" font-size="10.00"> </text>
<polyline fill="none" stroke="black" points="566,-47 864,-47 "/>
<text text-anchor="start" x="574" y="-35" font-family="Helvetica,sans-Serif" font-size="10.00">+ ImageViewer(std::string title, ImVec2 size, ImVec2 pos)</text>
<text text-anchor="start" x="574" y="-24" font-family="Helvetica,sans-Serif" font-size="10.00">+ ImageViewer(std::string title)</text>
<text text-anchor="start" x="574" y="-13" font-family="Helvetica,sans-Serif" font-size="10.00">+ void operator()() override</text>
</a>
</g>
</g>
<!-- Node1&#45;&gt;Node5 -->
<g id="edge4" class="edge">
<title>Node1&#45;&gt;Node5</title>
<path fill="none" stroke="midnightblue" d="M715,-117.07C715,-105.61 715,-94.69 715,-85.01"/>
<polygon fill="none" stroke="midnightblue" points="711.5,-117.27 715,-127.27 718.5,-117.27 711.5,-117.27"/>
</g>
<!-- Node6 -->
<g id="node6" class="node">
<title>Node6</title>
<g id="a_node6"><a xlink:href="classad__framework_1_1ui_1_1Selector.html" target="_top" xlink:title=" ">
<polygon fill="white" stroke="black" points="882.5,-0.5 882.5,-90.5 1155.5,-90.5 1155.5,-0.5 882.5,-0.5"/>
<text text-anchor="middle" x="1019" y="-78.5" font-family="Helvetica,sans-Serif" font-size="10.00">ad_framework::ui::Selector</text>
<polyline fill="none" stroke="black" points="882.5,-71.5 1155.5,-71.5 "/>
<text text-anchor="start" x="890.5" y="-59.5" font-family="Helvetica,sans-Serif" font-size="10.00">&#45; std::vector&lt; const char * &gt; items_</text>
<text text-anchor="start" x="890.5" y="-48.5" font-family="Helvetica,sans-Serif" font-size="10.00">&#45; const char * current_item_</text>
<polyline fill="none" stroke="black" points="882.5,-41.5 1155.5,-41.5 "/>
<text text-anchor="start" x="890.5" y="-29.5" font-family="Helvetica,sans-Serif" font-size="10.00">+ Selector(std::string title, ImVec2 size, ImVec2 pos)</text>
<text text-anchor="start" x="890.5" y="-18.5" font-family="Helvetica,sans-Serif" font-size="10.00">+ Selector(std::string title)</text>
<text text-anchor="start" x="890.5" y="-7.5" font-family="Helvetica,sans-Serif" font-size="10.00">+ void operator()() override</text>
</a>
</g>
</g>
<!-- Node1&#45;&gt;Node6 -->
<g id="edge5" class="edge">
<title>Node1&#45;&gt;Node6</title>
<path fill="none" stroke="midnightblue" d="M898.98,-124.08C917.3,-112.24 934.97,-100.81 950.86,-90.54"/>
<polygon fill="none" stroke="midnightblue" points="897.02,-121.18 890.52,-129.55 900.82,-127.06 897.02,-121.18"/>
</g>
<!-- Node7 -->
<g id="node7" class="node">
<title>Node7</title>
<g id="a_node7"><a xlink:href="classad__framework_1_1ui_1_1TopViewer.html" target="_top" xlink:title=" ">
<polygon fill="white" stroke="black" points="1174,-11.5 1174,-79.5 1458,-79.5 1458,-11.5 1174,-11.5"/>
<text text-anchor="middle" x="1316" y="-67.5" font-family="Helvetica,sans-Serif" font-size="10.00">ad_framework::ui::TopViewer</text>
<polyline fill="none" stroke="black" points="1174,-60.5 1458,-60.5 "/>
<text text-anchor="middle" x="1316" y="-48.5" font-family="Helvetica,sans-Serif" font-size="10.00"> </text>
<polyline fill="none" stroke="black" points="1174,-41.5 1458,-41.5 "/>
<text text-anchor="start" x="1182" y="-29.5" font-family="Helvetica,sans-Serif" font-size="10.00">+ TopViewer(std::string title, ImVec2 size, ImVec2 pos)</text>
<text text-anchor="start" x="1182" y="-18.5" font-family="Helvetica,sans-Serif" font-size="10.00">+ void operator()() override</text>
</a>
</g>
</g>
<!-- Node1&#45;&gt;Node7 -->
<g id="edge6" class="edge">
<title>Node1&#45;&gt;Node7</title>
<path fill="none" stroke="midnightblue" d="M900.48,-182.35C1004.01,-148.51 1128.97,-107.65 1214.65,-79.64"/>
<polygon fill="none" stroke="midnightblue" points="899.27,-179.07 890.85,-185.5 901.45,-185.72 899.27,-179.07"/>
</g>
<!-- Node2 -->
<g id="node2" class="node">
<title>Node2</title>
<g id="a_node2"><a xlink:title=" ">
<polygon fill="white" stroke="#bfbfbf" points="590.5,-397.5 590.5,-454.5 839.5,-454.5 839.5,-397.5 590.5,-397.5"/>
<text text-anchor="middle" x="715" y="-442.5" font-family="Helvetica,sans-Serif" font-size="10.00">std::enable_shared_from_this&lt; UserInterface &gt;</text>
<polyline fill="none" stroke="#bfbfbf" points="590.5,-435.5 839.5,-435.5 "/>
<text text-anchor="middle" x="715" y="-423.5" font-family="Helvetica,sans-Serif" font-size="10.00"> </text>
<polyline fill="none" stroke="#bfbfbf" points="590.5,-416.5 839.5,-416.5 "/>
<text text-anchor="middle" x="715" y="-404.5" font-family="Helvetica,sans-Serif" font-size="10.00"> </text>
</a>
</g>
</g>
<!-- Node2&#45;&gt;Node1 -->
<g id="edge1" class="edge">
<title>Node2&#45;&gt;Node1</title>
<path fill="none" stroke="midnightblue" d="M715,-387.14C715,-379.03 715,-370.05 715,-360.67"/>
<polygon fill="none" stroke="midnightblue" points="711.5,-387.27 715,-397.27 718.5,-387.27 711.5,-387.27"/>
</g>
</g>
</svg>
        <g id="navigator" transform="translate(0 0)" fill="#404254">
                <rect fill="#f2f5e9" fill-opacity="0.5" stroke="#606060" stroke-width=".5" x="0" y="0" width="60" height="60"/>
                <use id="zoomplus" xlink:href="#zoomPlus" x="17" y="9" onmousedown="handleZoom(evt,'in')"/>
                <use id="zoomminus" xlink:href="#zoomMin" x="42" y="9" onmousedown="handleZoom(evt,'out')"/>
                <use id="reset" xlink:href="#resetDef" x="30" y="36" onmousedown="handleReset()"/>
                <g id="arrowUp" xlink:href="#dirArrow" transform="translate(30 24)" onmousedown="handlePan(0,-1)">
                  <use xlink:href="#rim" fill="#404040">
                        <set attributeName="fill" to="#808080" begin="arrowUp.mouseover" end="arrowUp.mouseout"/>
                  </use>
                  <path fill="none" stroke="white" stroke-width="1.5" d="M0,-3.0v7 M-2.5,-0.5L0,-3.0L2.5,-0.5"/>
                </g>
                <g id="arrowRight" xlink:href="#dirArrow" transform="rotate(90) translate(36 -43)" onmousedown="handlePan(1,0)">
                  <use xlink:href="#rim" fill="#404040">
                        <set attributeName="fill" to="#808080" begin="arrowRight.mouseover" end="arrowRight.mouseout"/>
                  </use>
                  <path fill="none" stroke="white" stroke-width="1.5" d="M0,-3.0v7 M-2.5,-0.5L0,-3.0L2.5,-0.5"/>
                </g>
                <g id="arrowDown" xlink:href="#dirArrow" transform="rotate(180) translate(-30 -48)" onmousedown="handlePan(0,1)">
                  <use xlink:href="#rim" fill="#404040">
                        <set attributeName="fill" to="#808080" begin="arrowDown.mouseover" end="arrowDown.mouseout"/>
                  </use>
                  <path fill="none" stroke="white" stroke-width="1.5" d="M0,-3.0v7 M-2.5,-0.5L0,-3.0L2.5,-0.5"/>
                </g>
                <g id="arrowLeft" xlink:href="#dirArrow" transform="rotate(270) translate(-36 17)" onmousedown="handlePan(-1,0)">
                  <use xlink:href="#rim" fill="#404040">
                        <set attributeName="fill" to="#808080" begin="arrowLeft.mouseover" end="arrowLeft.mouseout"/>
                  </use>
                  <path fill="none" stroke="white" stroke-width="1.5" d="M0,-3.0v7 M-2.5,-0.5L0,-3.0L2.5,-0.5"/>
                </g>
        </g>
        <svg viewBox="0 0 15 15" width="100%" height="30px" preserveAspectRatio="xMaxYMin meet">
         <g id="arrow_out" transform="scale(0.3 0.3)">
          <a xlink:href="classad__framework_1_1ui_1_1UserInterface__inherit__graph_org.svg" target="_base">
           <rect id="button" ry="5" rx="5" y="6" x="6" height="38" width="38"
                fill="#f2f5e9" fill-opacity="0.5" stroke="#606060" stroke-width="1.0"/>
           <path id="arrow"
             d="M 11.500037,31.436501 C 11.940474,20.09759 22.043105,11.32322 32.158766,21.979434 L 37.068811,17.246167 C 37.068811,17.246167 37.088388,32 37.088388,32 L 22.160133,31.978069 C 22.160133,31.978069 26.997745,27.140456 26.997745,27.140456 C 18.528582,18.264221 13.291696,25.230495 11.500037,31.436501 z"
             style="fill:#404040;"/>
          </a>
         </g>
        </svg>
</svg>
