<?xml version="1.0" encoding="UTF-8" standalone="no"?>
<!DOCTYPE svg PUBLIC "-//W3C//DTD SVG 1.1//EN"
 "http://www.w3.org/Graphics/SVG/1.1/DTD/svg11.dtd">
<!-- Generated by graphviz version 2.43.0 (0)
 -->
<!-- Title: ad_framework::ui::Selector Pages: 1 -->
<svg width="1189pt" height="698pt"
 viewBox="0.00 0.00 1189.33 698.00" xmlns="http://www.w3.org/2000/svg" xmlns:xlink="http://www.w3.org/1999/xlink">
<g id="graph0" class="graph" transform="scale(1 1) rotate(0) translate(4 694)">
<title>ad_framework::ui::Selector</title>
<polygon fill="white" stroke="transparent" points="-4,4 -4,-694 1185.33,-694 1185.33,4 -4,4"/>
<!-- Node1 -->
<g id="node1" class="node">
<title>Node1</title>
<g id="a_node1"><a xlink:title=" ">
<polygon fill="#bfbfbf" stroke="black" points="47.33,-0.5 47.33,-79.5 320.33,-79.5 320.33,-0.5 47.33,-0.5"/>
<text text-anchor="middle" x="183.83" y="-67.5" font-family="Helvetica,sans-Serif" font-size="10.00">ad_framework::ui::Selector</text>
<polyline fill="none" stroke="black" points="47.33,-60.5 320.33,-60.5 "/>
<text text-anchor="middle" x="183.83" y="-48.5" font-family="Helvetica,sans-Serif" font-size="10.00"> </text>
<polyline fill="none" stroke="black" points="47.33,-41.5 320.33,-41.5 "/>
<text text-anchor="start" x="55.33" y="-29.5" font-family="Helvetica,sans-Serif" font-size="10.00">+ Selector(std::string title, ImVec2 size, ImVec2 pos)</text>
<text text-anchor="start" x="55.33" y="-18.5" font-family="Helvetica,sans-Serif" font-size="10.00">+ Selector(std::string title)</text>
<text text-anchor="start" x="55.33" y="-7.5" font-family="Helvetica,sans-Serif" font-size="10.00">+ void operator()() override</text>
</a>
</g>
</g>
<!-- Node2 -->
<g id="node2" class="node">
<title>Node2</title>
<g id="a_node2"><a xlink:href="classad__framework_1_1ui_1_1UserInterface.html" target="_top" xlink:title=" ">
<polygon fill="white" stroke="black" points="429.33,-127.5 429.33,-316.5 780.33,-316.5 780.33,-127.5 429.33,-127.5"/>
<text text-anchor="middle" x="604.83" y="-304.5" font-family="Helvetica,sans-Serif" font-size="10.00">ad_framework::ui::UserInterface</text>
<polyline fill="none" stroke="black" points="429.33,-297.5 780.33,-297.5 "/>
<text text-anchor="middle" x="604.83" y="-285.5" font-family="Helvetica,sans-Serif" font-size="10.00"> </text>
<polyline fill="none" stroke="black" points="429.33,-278.5 780.33,-278.5 "/>
<text text-anchor="start" x="437.33" y="-266.5" font-family="Helvetica,sans-Serif" font-size="10.00">+ UserInterface(std::string title, ImVec2 size, ImVec2 pos)</text>
<text text-anchor="start" x="437.33" y="-255.5" font-family="Helvetica,sans-Serif" font-size="10.00">+ virtual ~UserInterface()=default</text>
<text text-anchor="start" x="437.33" y="-244.5" font-family="Helvetica,sans-Serif" font-size="10.00">+ virtual void operator()()=0</text>
<text text-anchor="start" x="437.33" y="-233.5" font-family="Helvetica,sans-Serif" font-size="10.00">+ std::string Title() const</text>
<text text-anchor="start" x="437.33" y="-222.5" font-family="Helvetica,sans-Serif" font-size="10.00">+ void Rename(std::string title)</text>
<text text-anchor="start" x="437.33" y="-211.5" font-family="Helvetica,sans-Serif" font-size="10.00">+ ImVec2 Size() const</text>
<text text-anchor="start" x="437.33" y="-200.5" font-family="Helvetica,sans-Serif" font-size="10.00">+ ImVec2 Pos() const</text>
<text text-anchor="start" x="437.33" y="-189.5" font-family="Helvetica,sans-Serif" font-size="10.00">+ void Resize(ImVec2 size)</text>
<text text-anchor="start" x="437.33" y="-178.5" font-family="Helvetica,sans-Serif" font-size="10.00">+ void Move(ImVec2 pos)</text>
<text text-anchor="start" x="437.33" y="-167.5" font-family="Helvetica,sans-Serif" font-size="10.00">+ void SetParent(UserInterfacePtr parent)</text>
<text text-anchor="start" x="437.33" y="-156.5" font-family="Helvetica,sans-Serif" font-size="10.00">+ UserInterfacePtr GetParent() const</text>
<text text-anchor="start" x="437.33" y="-145.5" font-family="Helvetica,sans-Serif" font-size="10.00">+ void AddCallback(std::string name, callback::CallbackPtr callback)</text>
<text text-anchor="start" x="437.33" y="-134.5" font-family="Helvetica,sans-Serif" font-size="10.00">+ CallbackMap GetCallbacks() const</text>
</a>
</g>
</g>
<!-- Node2&#45;&gt;Node1 -->
<g id="edge1" class="edge">
<title>Node2&#45;&gt;Node1</title>
<path fill="none" stroke="midnightblue" d="M419.63,-141.82C369.14,-120.23 316.68,-97.8 274.1,-79.59"/>
<polygon fill="none" stroke="midnightblue" points="418.46,-145.12 429.03,-145.84 421.22,-138.69 418.46,-145.12"/>
</g>
<!-- Node3 -->
<g id="node3" class="node">
<title>Node3</title>
<g id="a_node3"><a xlink:title=" ">
<polygon fill="white" stroke="#bfbfbf" points="264.33,-375.5 264.33,-432.5 513.33,-432.5 513.33,-375.5 264.33,-375.5"/>
<text text-anchor="middle" x="388.83" y="-420.5" font-family="Helvetica,sans-Serif" font-size="10.00">std::enable_shared_from_this&lt; UserInterface &gt;</text>
<polyline fill="none" stroke="#bfbfbf" points="264.33,-413.5 513.33,-413.5 "/>
<text text-anchor="middle" x="388.83" y="-401.5" font-family="Helvetica,sans-Serif" font-size="10.00"> </text>
<polyline fill="none" stroke="#bfbfbf" points="264.33,-394.5 513.33,-394.5 "/>
<text text-anchor="middle" x="388.83" y="-382.5" font-family="Helvetica,sans-Serif" font-size="10.00"> </text>
</a>
</g>
</g>
<!-- Node3&#45;&gt;Node2 -->
<g id="edge2" class="edge">
<title>Node3&#45;&gt;Node2</title>
<path fill="none" stroke="midnightblue" d="M430.06,-368.64C448.01,-353.68 470.02,-335.34 492.29,-316.79"/>
<polygon fill="none" stroke="midnightblue" points="427.55,-366.18 422.11,-375.27 432.03,-371.56 427.55,-366.18"/>
</g>
<!-- Node4 -->
<g id="node4" class="node">
<title>Node4</title>
<g id="a_node4"><a xlink:title=" ">
<polygon fill="white" stroke="#bfbfbf" points="602.83,-375.5 602.83,-432.5 780.83,-432.5 780.83,-375.5 602.83,-375.5"/>
<text text-anchor="middle" x="691.83" y="-420.5" font-family="Helvetica,sans-Serif" font-size="10.00">std::shared_ptr&lt; UserInterface &gt;</text>
<polyline fill="none" stroke="#bfbfbf" points="602.83,-413.5 780.83,-413.5 "/>
<text text-anchor="start" x="610.83" y="-401.5" font-family="Helvetica,sans-Serif" font-size="10.00">+ UserInterface ptr</text>
<polyline fill="none" stroke="#bfbfbf" points="602.83,-394.5 780.83,-394.5 "/>
<text text-anchor="start" x="610.83" y="-382.5" font-family="Helvetica,sans-Serif" font-size="10.00">+ UserInterface * operator&#45;&gt;()</text>
</a>
</g>
</g>
<!-- Node4&#45;&gt;Node2 -->
<g id="edge3" class="edge">
<title>Node4&#45;&gt;Node2</title>
<path fill="none" stroke="#404040" d="M678.43,-375.27C672.03,-362.04 663.94,-345.29 655.47,-327.77"/>
<polygon fill="none" stroke="#404040" points="655.38,-327.59 649.17,-323.93 650.16,-316.79 656.38,-320.45 655.38,-327.59"/>
<text text-anchor="middle" x="689.83" y="-343.5" font-family="Helvetica,sans-Serif" font-size="10.00"> &#45;parent_</text>
</g>
<!-- Node5 -->
<g id="node5" class="node">
<title>Node5</title>
<g id="a_node5"><a xlink:title=" ">
<polygon fill="white" stroke="#bfbfbf" points="650.83,-527.5 650.83,-584.5 768.83,-584.5 768.83,-527.5 650.83,-527.5"/>
<text text-anchor="middle" x="709.83" y="-572.5" font-family="Helvetica,sans-Serif" font-size="10.00">std::shared_ptr&lt; T &gt;</text>
<polyline fill="none" stroke="#bfbfbf" points="650.83,-565.5 768.83,-565.5 "/>
<text text-anchor="middle" x="709.83" y="-553.5" font-family="Helvetica,sans-Serif" font-size="10.00"> </text>
<polyline fill="none" stroke="#bfbfbf" points="650.83,-546.5 768.83,-546.5 "/>
<text text-anchor="start" x="658.83" y="-534.5" font-family="Helvetica,sans-Serif" font-size="10.00">+ T * operator&#45;&gt;()</text>
</a>
</g>
</g>
<!-- Node5&#45;&gt;Node4 -->
<g id="edge4" class="edge">
<title>Node5&#45;&gt;Node4</title>
<path fill="none" stroke="orange" d="M688.63,-517.9C687.52,-514.95 686.56,-511.97 685.83,-509 679.63,-483.71 682.3,-453.96 685.83,-432.78"/>
<polygon fill="orange" stroke="orange" points="685.43,-519.34 692.61,-527.14 691.86,-516.57 685.43,-519.34"/>
<text text-anchor="middle" x="731.83" y="-477.5" font-family="Helvetica,sans-Serif" font-size="10.00"> &lt; UserInterface &gt;</text>
</g>
<!-- Node10 -->
<g id="node10" class="node">
<title>Node10</title>
<g id="a_node10"><a xlink:title=" ">
<polygon fill="white" stroke="#bfbfbf" points="799.33,-375.5 799.33,-432.5 1092.33,-432.5 1092.33,-375.5 799.33,-375.5"/>
<text text-anchor="middle" x="945.83" y="-420.5" font-family="Helvetica,sans-Serif" font-size="10.00">std::unordered_map&lt; std::string, callback::CallbackPtr &gt;</text>
<polyline fill="none" stroke="#bfbfbf" points="799.33,-413.5 1092.33,-413.5 "/>
<text text-anchor="middle" x="945.83" y="-401.5" font-family="Helvetica,sans-Serif" font-size="10.00"> </text>
<polyline fill="none" stroke="#bfbfbf" points="799.33,-394.5 1092.33,-394.5 "/>
<text text-anchor="middle" x="945.83" y="-382.5" font-family="Helvetica,sans-Serif" font-size="10.00"> </text>
</a>
</g>
</g>
<!-- Node5&#45;&gt;Node10 -->
<g id="edge10" class="edge">
<title>Node5&#45;&gt;Node10</title>
<path fill="none" stroke="#404040" d="M758.01,-527.44C765.23,-521.95 772.15,-515.77 777.83,-509 796,-487.37 782.81,-469.87 803.83,-451 808.84,-446.51 814.28,-442.46 820.03,-438.8"/>
<polygon fill="none" stroke="#404040" points="820.29,-438.65 823.48,-432.18 830.68,-432.64 827.49,-439.11 820.29,-438.65"/>
<text text-anchor="middle" x="832.83" y="-477.5" font-family="Helvetica,sans-Serif" font-size="10.00"> +elements</text>
</g>
<!-- Node6 -->
<g id="node6" class="node">
<title>Node6</title>
<g id="a_node6"><a xlink:title=" ">
<polygon fill="white" stroke="#bfbfbf" points="695.33,-632.5 695.33,-689.5 724.33,-689.5 724.33,-632.5 695.33,-632.5"/>
<text text-anchor="middle" x="709.83" y="-677.5" font-family="Helvetica,sans-Serif" font-size="10.00">T</text>
<polyline fill="none" stroke="#bfbfbf" points="695.33,-670.5 724.33,-670.5 "/>
<text text-anchor="middle" x="709.83" y="-658.5" font-family="Helvetica,sans-Serif" font-size="10.00"> </text>
<polyline fill="none" stroke="#bfbfbf" points="695.33,-651.5 724.33,-651.5 "/>
<text text-anchor="middle" x="709.83" y="-639.5" font-family="Helvetica,sans-Serif" font-size="10.00"> </text>
</a>
</g>
</g>
<!-- Node6&#45;&gt;Node5 -->
<g id="edge5" class="edge">
<title>Node6&#45;&gt;Node5</title>
<path fill="none" stroke="#404040" d="M709.83,-632.4C709.83,-621.55 709.83,-608.87 709.83,-597.05"/>
<polygon fill="none" stroke="#404040" points="709.83,-596.68 705.83,-590.68 709.83,-584.68 713.83,-590.68 709.83,-596.68"/>
<text text-anchor="middle" x="722.33" y="-606" font-family="Helvetica,sans-Serif" font-size="10.00"> +ptr</text>
</g>
<!-- Node11 -->
<g id="node11" class="node">
<title>Node11</title>
<g id="a_node11"><a xlink:title=" ">
<polygon fill="white" stroke="#bfbfbf" points="790.33,-527.5 790.33,-584.5 945.33,-584.5 945.33,-527.5 790.33,-527.5"/>
<text text-anchor="middle" x="867.83" y="-572.5" font-family="Helvetica,sans-Serif" font-size="10.00">std::unordered_map&lt; K, T &gt;</text>
<polyline fill="none" stroke="#bfbfbf" points="790.33,-565.5 945.33,-565.5 "/>
<text text-anchor="middle" x="867.83" y="-553.5" font-family="Helvetica,sans-Serif" font-size="10.00"> </text>
<polyline fill="none" stroke="#bfbfbf" points="790.33,-546.5 945.33,-546.5 "/>
<text text-anchor="middle" x="867.83" y="-534.5" font-family="Helvetica,sans-Serif" font-size="10.00"> </text>
</a>
</g>
</g>
<!-- Node6&#45;&gt;Node11 -->
<g id="edge14" class="edge">
<title>Node6&#45;&gt;Node11</title>
<path fill="none" stroke="#404040" d="M724.41,-650.49C744.96,-637.1 783.48,-611.99 815.43,-591.16"/>
<polygon fill="none" stroke="#404040" points="815.49,-591.12 818.33,-584.49 825.54,-584.57 822.7,-591.2 815.49,-591.12"/>
<text text-anchor="middle" x="821.83" y="-606" font-family="Helvetica,sans-Serif" font-size="10.00"> +elements</text>
</g>
<!-- Node15 -->
<g id="node15" class="node">
<title>Node15</title>
<g id="a_node15"><a xlink:title=" ">
<polygon fill="white" stroke="#bfbfbf" points="338.33,-451.5 338.33,-508.5 435.33,-508.5 435.33,-451.5 338.33,-451.5"/>
<text text-anchor="middle" x="386.83" y="-496.5" font-family="Helvetica,sans-Serif" font-size="10.00">std::vector&lt; T &gt;</text>
<polyline fill="none" stroke="#bfbfbf" points="338.33,-489.5 435.33,-489.5 "/>
<text text-anchor="middle" x="386.83" y="-477.5" font-family="Helvetica,sans-Serif" font-size="10.00"> </text>
<polyline fill="none" stroke="#bfbfbf" points="338.33,-470.5 435.33,-470.5 "/>
<text text-anchor="middle" x="386.83" y="-458.5" font-family="Helvetica,sans-Serif" font-size="10.00"> </text>
</a>
</g>
</g>
<!-- Node6&#45;&gt;Node15 -->
<g id="edge18" class="edge">
<title>Node6&#45;&gt;Node15</title>
<path fill="none" stroke="#404040" d="M695.11,-651.84C651.83,-627.85 523.17,-556.56 446.42,-514.02"/>
<polygon fill="none" stroke="#404040" points="445.99,-513.78 438.8,-514.37 435.49,-507.97 442.68,-507.38 445.99,-513.78"/>
<text text-anchor="middle" x="650.83" y="-606" font-family="Helvetica,sans-Serif" font-size="10.00"> +elements</text>
</g>
<!-- Node7 -->
<g id="node7" class="node">
<title>Node7</title>
<g id="a_node7"><a xlink:title=" ">
<polygon fill="white" stroke="#bfbfbf" points="531.33,-375.5 531.33,-432.5 584.33,-432.5 584.33,-375.5 531.33,-375.5"/>
<text text-anchor="middle" x="557.83" y="-420.5" font-family="Helvetica,sans-Serif" font-size="10.00">ImVec2</text>
<polyline fill="none" stroke="#bfbfbf" points="531.33,-413.5 584.33,-413.5 "/>
<text text-anchor="middle" x="557.83" y="-401.5" font-family="Helvetica,sans-Serif" font-size="10.00"> </text>
<polyline fill="none" stroke="#bfbfbf" points="531.33,-394.5 584.33,-394.5 "/>
<text text-anchor="middle" x="557.83" y="-382.5" font-family="Helvetica,sans-Serif" font-size="10.00"> </text>
</a>
</g>
</g>
<!-- Node7&#45;&gt;Node2 -->
<g id="edge6" class="edge">
<title>Node7&#45;&gt;Node2</title>
<path fill="none" stroke="#404040" d="M565.07,-375.27C568.46,-362.29 572.74,-345.92 577.22,-328.76"/>
<polygon fill="none" stroke="#404040" points="577.31,-328.4 574.96,-321.58 580.34,-316.79 582.7,-323.6 577.31,-328.4"/>
<text text-anchor="middle" x="588.83" y="-349" font-family="Helvetica,sans-Serif" font-size="10.00"> &#45;pos_</text>
<text text-anchor="middle" x="588.83" y="-338" font-family="Helvetica,sans-Serif" font-size="10.00">&#45;size_</text>
</g>
<!-- Node8 -->
<g id="node8" class="node">
<title>Node8</title>
<g id="a_node8"><a xlink:title=" ">
<polygon fill="white" stroke="#bfbfbf" points="1078.33,-527.5 1078.33,-584.5 1143.33,-584.5 1143.33,-527.5 1078.33,-527.5"/>
<text text-anchor="middle" x="1110.83" y="-572.5" font-family="Helvetica,sans-Serif" font-size="10.00">std::string</text>
<polyline fill="none" stroke="#bfbfbf" points="1078.33,-565.5 1143.33,-565.5 "/>
<text text-anchor="middle" x="1110.83" y="-553.5" font-family="Helvetica,sans-Serif" font-size="10.00"> </text>
<polyline fill="none" stroke="#bfbfbf" points="1078.33,-546.5 1143.33,-546.5 "/>
<text text-anchor="middle" x="1110.83" y="-534.5" font-family="Helvetica,sans-Serif" font-size="10.00"> </text>
</a>
</g>
</g>
<!-- Node8&#45;&gt;Node2 -->
<g id="edge7" class="edge">
<title>Node8&#45;&gt;Node2</title>
<path fill="none" stroke="#404040" d="M1119.33,-527.23C1129.52,-487.69 1140.75,-415.49 1101.83,-375 1021.6,-291.54 896.95,-253.56 792.56,-236.43"/>
<polygon fill="none" stroke="#404040" points="792.44,-236.41 785.89,-239.43 780.58,-234.54 787.13,-231.53 792.44,-236.41"/>
<text text-anchor="middle" x="1142.83" y="-401.5" font-family="Helvetica,sans-Serif" font-size="10.00"> &#45;title_</text>
</g>
<!-- Node8&#45;&gt;Node10 -->
<g id="edge11" class="edge">
<title>Node8&#45;&gt;Node10</title>
<path fill="none" stroke="#404040" d="M1096.58,-527.45C1093.59,-521.42 1090.53,-515.03 1087.83,-509 1076.51,-483.69 1084.53,-470.52 1064.83,-451 1060.42,-446.63 1055.55,-442.66 1050.38,-439.07"/>
<polygon fill="none" stroke="#404040" points="1050.24,-438.98 1043.03,-439.18 1040.08,-432.6 1047.29,-432.4 1050.24,-438.98"/>
<text text-anchor="middle" x="1104.83" y="-477.5" font-family="Helvetica,sans-Serif" font-size="10.00"> +keys</text>
</g>
<!-- Node9 -->
<g id="node9" class="node">
<title>Node9</title>
<g id="a_node9"><a xlink:title=" ">
<polygon fill="white" stroke="#bfbfbf" points="1040.33,-632.5 1040.33,-689.5 1181.33,-689.5 1181.33,-632.5 1040.33,-632.5"/>
<text text-anchor="middle" x="1110.83" y="-677.5" font-family="Helvetica,sans-Serif" font-size="10.00">std::basic_string&lt; Char &gt;</text>
<polyline fill="none" stroke="#bfbfbf" points="1040.33,-670.5 1181.33,-670.5 "/>
<text text-anchor="middle" x="1110.83" y="-658.5" font-family="Helvetica,sans-Serif" font-size="10.00"> </text>
<polyline fill="none" stroke="#bfbfbf" points="1040.33,-651.5 1181.33,-651.5 "/>
<text text-anchor="middle" x="1110.83" y="-639.5" font-family="Helvetica,sans-Serif" font-size="10.00"> </text>
</a>
</g>
</g>
<!-- Node9&#45;&gt;Node8 -->
<g id="edge8" class="edge">
<title>Node9&#45;&gt;Node8</title>
<path fill="none" stroke="midnightblue" d="M1110.83,-622.29C1110.83,-609.84 1110.83,-596.23 1110.83,-584.68"/>
<polygon fill="none" stroke="midnightblue" points="1107.33,-622.4 1110.83,-632.4 1114.33,-622.4 1107.33,-622.4"/>
</g>
<!-- Node10&#45;&gt;Node2 -->
<g id="edge9" class="edge">
<title>Node10&#45;&gt;Node2</title>
<path fill="none" stroke="#404040" d="M893.67,-375.47C865.53,-360.61 828.91,-341.28 791.24,-321.4"/>
<polygon fill="none" stroke="#404040" points="791.21,-321.38 784.03,-322.12 780.59,-315.78 787.77,-315.04 791.21,-321.38"/>
<text text-anchor="middle" x="882.83" y="-343.5" font-family="Helvetica,sans-Serif" font-size="10.00"> &#45;callbacks_</text>
</g>
<!-- Node11&#45;&gt;Node10 -->
<g id="edge12" class="edge">
<title>Node11&#45;&gt;Node10</title>
<path fill="none" stroke="orange" d="M865.85,-517.31C866.41,-496.43 869.96,-470.78 881.83,-451 885.92,-444.2 891.44,-438.11 897.53,-432.78"/>
<polygon fill="orange" stroke="orange" points="862.35,-517.41 865.79,-527.43 869.35,-517.45 862.35,-517.41"/>
<text text-anchor="middle" x="973.33" y="-477.5" font-family="Helvetica,sans-Serif" font-size="10.00"> &lt; std::string, callback::CallbackPtr &gt;</text>
</g>
<!-- Node12 -->
<g id="node12" class="node">
<title>Node12</title>
<g id="a_node12"><a xlink:title=" ">
<polygon fill="white" stroke="#bfbfbf" points="853.33,-632.5 853.33,-689.5 882.33,-689.5 882.33,-632.5 853.33,-632.5"/>
<text text-anchor="middle" x="867.83" y="-677.5" font-family="Helvetica,sans-Serif" font-size="10.00">K</text>
<polyline fill="none" stroke="#bfbfbf" points="853.33,-670.5 882.33,-670.5 "/>
<text text-anchor="middle" x="867.83" y="-658.5" font-family="Helvetica,sans-Serif" font-size="10.00"> </text>
<polyline fill="none" stroke="#bfbfbf" points="853.33,-651.5 882.33,-651.5 "/>
<text text-anchor="middle" x="867.83" y="-639.5" font-family="Helvetica,sans-Serif" font-size="10.00"> </text>
</a>
</g>
</g>
<!-- Node12&#45;&gt;Node11 -->
<g id="edge13" class="edge">
<title>Node12&#45;&gt;Node11</title>
<path fill="none" stroke="#404040" d="M867.83,-632.4C867.83,-621.55 867.83,-608.87 867.83,-597.05"/>
<polygon fill="none" stroke="#404040" points="867.83,-596.68 863.83,-590.68 867.83,-584.68 871.83,-590.68 867.83,-596.68"/>
<text text-anchor="middle" x="884.83" y="-606" font-family="Helvetica,sans-Serif" font-size="10.00"> +keys</text>
</g>
<!-- Node13 -->
<g id="node13" class="node">
<title>Node13</title>
<g id="a_node13"><a xlink:title=" ">
<polygon fill="white" stroke="#bfbfbf" points="109.33,-193.5 109.33,-250.5 258.33,-250.5 258.33,-193.5 109.33,-193.5"/>
<text text-anchor="middle" x="183.83" y="-238.5" font-family="Helvetica,sans-Serif" font-size="10.00">std::vector&lt; const char * &gt;</text>
<polyline fill="none" stroke="#bfbfbf" points="109.33,-231.5 258.33,-231.5 "/>
<text text-anchor="middle" x="183.83" y="-219.5" font-family="Helvetica,sans-Serif" font-size="10.00"> </text>
<polyline fill="none" stroke="#bfbfbf" points="109.33,-212.5 258.33,-212.5 "/>
<text text-anchor="middle" x="183.83" y="-200.5" font-family="Helvetica,sans-Serif" font-size="10.00"> </text>
</a>
</g>
</g>
<!-- Node13&#45;&gt;Node1 -->
<g id="edge15" class="edge">
<title>Node13&#45;&gt;Node1</title>
<path fill="none" stroke="#404040" d="M183.83,-193.27C183.83,-166.34 183.83,-124.81 183.83,-91.92"/>
<polygon fill="none" stroke="#404040" points="183.83,-91.79 179.83,-85.79 183.83,-79.79 187.83,-85.79 183.83,-91.79"/>
<text text-anchor="middle" x="203.83" y="-101" font-family="Helvetica,sans-Serif" font-size="10.00"> &#45;items_</text>
</g>
<!-- Node14 -->
<g id="node14" class="node">
<title>Node14</title>
<g id="a_node14"><a xlink:title=" ">
<polygon fill="white" stroke="#bfbfbf" points="33.33,-375.5 33.33,-432.5 108.33,-432.5 108.33,-375.5 33.33,-375.5"/>
<text text-anchor="middle" x="70.83" y="-420.5" font-family="Helvetica,sans-Serif" font-size="10.00">const char *</text>
<polyline fill="none" stroke="#bfbfbf" points="33.33,-413.5 108.33,-413.5 "/>
<text text-anchor="middle" x="70.83" y="-401.5" font-family="Helvetica,sans-Serif" font-size="10.00"> </text>
<polyline fill="none" stroke="#bfbfbf" points="33.33,-394.5 108.33,-394.5 "/>
<text text-anchor="middle" x="70.83" y="-382.5" font-family="Helvetica,sans-Serif" font-size="10.00"> </text>
</a>
</g>
</g>
<!-- Node14&#45;&gt;Node1 -->
<g id="edge19" class="edge">
<title>Node14&#45;&gt;Node1</title>
<path fill="none" stroke="#404040" d="M51.55,-375.39C41.42,-359.19 30.06,-337.86 24.83,-317 4.3,-235.09 -18.4,-199.54 24.83,-127 34.52,-110.75 48.46,-97.38 64.12,-86.44"/>
<polygon fill="none" stroke="#404040" points="64.58,-86.14 67.42,-79.52 74.63,-79.59 71.79,-86.22 64.58,-86.14"/>
<text text-anchor="middle" x="62.33" y="-219.5" font-family="Helvetica,sans-Serif" font-size="10.00"> &#45;current_item_</text>
</g>
<!-- Node14&#45;&gt;Node13 -->
<g id="edge16" class="edge">
<title>Node14&#45;&gt;Node13</title>
<path fill="none" stroke="#404040" d="M75.21,-375.5C77.97,-362.7 82.28,-347.56 88.83,-335 103.43,-307.04 126.1,-279.95 145.63,-259.42"/>
<polygon fill="none" stroke="#404040" points="145.69,-259.36 147.01,-252.27 154.06,-250.75 152.75,-257.84 145.69,-259.36"/>
<text text-anchor="middle" x="117.83" y="-343.5" font-family="Helvetica,sans-Serif" font-size="10.00"> +elements</text>
</g>
<!-- Node15&#45;&gt;Node13 -->
<g id="edge17" class="edge">
<title>Node15&#45;&gt;Node13</title>
<path fill="none" stroke="orange" d="M328.26,-474.73C270.94,-469.19 189.44,-457.2 169.83,-433 127.39,-380.62 153.4,-294.66 171.23,-250.74"/>
<polygon fill="orange" stroke="orange" points="328.03,-478.22 338.31,-475.66 328.67,-471.25 328.03,-478.22"/>
<text text-anchor="middle" x="212.33" y="-401.5" font-family="Helvetica,sans-Serif" font-size="10.00"> &lt; const char * &gt;</text>
</g>
</g>
</svg>
