<?xml version="1.0" encoding="UTF-8" standalone="no"?>
<!DOCTYPE svg PUBLIC "-//W3C//DTD SVG 1.1//EN"
 "http://www.w3.org/Graphics/SVG/1.1/DTD/svg11.dtd">
<!-- Generated by graphviz version 2.43.0 (0)
 -->
<!-- Title: ad_framework::window::Window Pages: 1 -->
<svg width="715pt" height="436pt"
 viewBox="0.00 0.00 715.00 436.00" xmlns="http://www.w3.org/2000/svg" xmlns:xlink="http://www.w3.org/1999/xlink">
<g id="graph0" class="graph" transform="scale(1 1) rotate(0) translate(4 432)">
<title>ad_framework::window::Window</title>
<polygon fill="white" stroke="transparent" points="-4,4 -4,-432 711,-432 711,4 -4,4"/>
<!-- Node1 -->
<g id="node1" class="node">
<title>Node1</title>
<g id="a_node1"><a xlink:title=" ">
<polygon fill="#bfbfbf" stroke="black" points="160,-0.5 160,-112.5 379,-112.5 379,-0.5 160,-0.5"/>
<text text-anchor="middle" x="269.5" y="-100.5" font-family="Helvetica,sans-Serif" font-size="10.00">ad_framework::window::Window</text>
<polyline fill="none" stroke="black" points="160,-93.5 379,-93.5 "/>
<text text-anchor="middle" x="269.5" y="-81.5" font-family="Helvetica,sans-Serif" font-size="10.00"> </text>
<polyline fill="none" stroke="black" points="160,-74.5 379,-74.5 "/>
<text text-anchor="start" x="168" y="-62.5" font-family="Helvetica,sans-Serif" font-size="10.00">+ Window(std::string title)</text>
<text text-anchor="start" x="168" y="-51.5" font-family="Helvetica,sans-Serif" font-size="10.00">+ ~Window()</text>
<text text-anchor="start" x="168" y="-40.5" font-family="Helvetica,sans-Serif" font-size="10.00">+ void AddCallback(CallbackPtr callback)</text>
<text text-anchor="start" x="168" y="-29.5" font-family="Helvetica,sans-Serif" font-size="10.00">+ void AddUI(UserInterfacePtr ui)</text>
<text text-anchor="start" x="168" y="-18.5" font-family="Helvetica,sans-Serif" font-size="10.00">+ void operator()()</text>
<text text-anchor="start" x="168" y="-7.5" font-family="Helvetica,sans-Serif" font-size="10.00">+ std::string Title() const</text>
</a>
</g>
</g>
<!-- Node2 -->
<g id="node2" class="node">
<title>Node2</title>
<g id="a_node2"><a xlink:title=" ">
<polygon fill="white" stroke="#bfbfbf" points="0,-160.5 0,-217.5 53,-217.5 53,-160.5 0,-160.5"/>
<text text-anchor="middle" x="26.5" y="-205.5" font-family="Helvetica,sans-Serif" font-size="10.00">ImVec2</text>
<polyline fill="none" stroke="#bfbfbf" points="0,-198.5 53,-198.5 "/>
<text text-anchor="middle" x="26.5" y="-186.5" font-family="Helvetica,sans-Serif" font-size="10.00"> </text>
<polyline fill="none" stroke="#bfbfbf" points="0,-179.5 53,-179.5 "/>
<text text-anchor="middle" x="26.5" y="-167.5" font-family="Helvetica,sans-Serif" font-size="10.00"> </text>
</a>
</g>
</g>
<!-- Node2&#45;&gt;Node1 -->
<g id="edge1" class="edge">
<title>Node2&#45;&gt;Node1</title>
<path fill="none" stroke="#404040" d="M53.35,-165.91C56.06,-163.86 58.81,-161.86 61.5,-160 88.49,-141.35 119.38,-124.19 148.94,-109.46"/>
<polygon fill="none" stroke="#404040" points="148.99,-109.43 152.61,-103.2 159.76,-104.14 156.14,-110.38 148.99,-109.43"/>
<text text-anchor="middle" x="120.5" y="-134" font-family="Helvetica,sans-Serif" font-size="10.00"> &#45;size_</text>
</g>
<!-- Node3 -->
<g id="node3" class="node">
<title>Node3</title>
<g id="a_node3"><a xlink:title=" ">
<polygon fill="white" stroke="#bfbfbf" points="71,-160.5 71,-217.5 162,-217.5 162,-160.5 71,-160.5"/>
<text text-anchor="middle" x="116.5" y="-205.5" font-family="Helvetica,sans-Serif" font-size="10.00">GLFWwindow *</text>
<polyline fill="none" stroke="#bfbfbf" points="71,-198.5 162,-198.5 "/>
<text text-anchor="middle" x="116.5" y="-186.5" font-family="Helvetica,sans-Serif" font-size="10.00"> </text>
<polyline fill="none" stroke="#bfbfbf" points="71,-179.5 162,-179.5 "/>
<text text-anchor="middle" x="116.5" y="-167.5" font-family="Helvetica,sans-Serif" font-size="10.00"> </text>
</a>
</g>
</g>
<!-- Node3&#45;&gt;Node1 -->
<g id="edge2" class="edge">
<title>Node3&#45;&gt;Node1</title>
<path fill="none" stroke="#404040" d="M131.62,-160.45C137.9,-150.48 145.75,-139.58 154.5,-131 158.16,-127.41 162.03,-123.9 166.04,-120.48"/>
<polygon fill="none" stroke="#404040" points="166.32,-120.25 168.44,-113.36 175.62,-112.68 173.49,-119.57 166.32,-120.25"/>
<text text-anchor="middle" x="179.5" y="-134" font-family="Helvetica,sans-Serif" font-size="10.00"> &#45;window_</text>
</g>
<!-- Node4 -->
<g id="node4" class="node">
<title>Node4</title>
<g id="a_node4"><a xlink:title=" ">
<polygon fill="white" stroke="#bfbfbf" points="180,-160.5 180,-217.5 233,-217.5 233,-160.5 180,-160.5"/>
<text text-anchor="middle" x="206.5" y="-205.5" font-family="Helvetica,sans-Serif" font-size="10.00">ImVec4</text>
<polyline fill="none" stroke="#bfbfbf" points="180,-198.5 233,-198.5 "/>
<text text-anchor="middle" x="206.5" y="-186.5" font-family="Helvetica,sans-Serif" font-size="10.00"> </text>
<polyline fill="none" stroke="#bfbfbf" points="180,-179.5 233,-179.5 "/>
<text text-anchor="middle" x="206.5" y="-167.5" font-family="Helvetica,sans-Serif" font-size="10.00"> </text>
</a>
</g>
</g>
<!-- Node4&#45;&gt;Node1 -->
<g id="edge3" class="edge">
<title>Node4&#45;&gt;Node1</title>
<path fill="none" stroke="#404040" d="M205.74,-160.29C206.3,-150.74 207.87,-140.14 211.5,-131 212.5,-128.48 213.61,-125.98 214.82,-123.51"/>
<polygon fill="none" stroke="#404040" points="214.91,-123.36 214.29,-116.17 220.69,-112.84 221.3,-120.03 214.91,-123.36"/>
<text text-anchor="middle" x="261" y="-134" font-family="Helvetica,sans-Serif" font-size="10.00"> &#45;background_color_</text>
</g>
<!-- Node5 -->
<g id="node5" class="node">
<title>Node5</title>
<g id="a_node5"><a xlink:title=" ">
<polygon fill="white" stroke="#bfbfbf" points="439.5,-160.5 439.5,-217.5 585.5,-217.5 585.5,-160.5 439.5,-160.5"/>
<text text-anchor="middle" x="512.5" y="-205.5" font-family="Helvetica,sans-Serif" font-size="10.00">std::vector&lt; CallbackPtr &gt;</text>
<polyline fill="none" stroke="#bfbfbf" points="439.5,-198.5 585.5,-198.5 "/>
<text text-anchor="middle" x="512.5" y="-186.5" font-family="Helvetica,sans-Serif" font-size="10.00"> </text>
<polyline fill="none" stroke="#bfbfbf" points="439.5,-179.5 585.5,-179.5 "/>
<text text-anchor="middle" x="512.5" y="-167.5" font-family="Helvetica,sans-Serif" font-size="10.00"> </text>
</a>
</g>
</g>
<!-- Node5&#45;&gt;Node1 -->
<g id="edge4" class="edge">
<title>Node5&#45;&gt;Node1</title>
<path fill="none" stroke="#404040" d="M461.26,-160.48C438.4,-148.2 410.48,-133.21 383.09,-118.5"/>
<polygon fill="none" stroke="#404040" points="382.8,-118.35 375.62,-119.03 372.23,-112.67 379.41,-111.98 382.8,-118.35"/>
<text text-anchor="middle" x="449.5" y="-134" font-family="Helvetica,sans-Serif" font-size="10.00"> &#45;callbacks_</text>
</g>
<!-- Node6 -->
<g id="node6" class="node">
<title>Node6</title>
<g id="a_node6"><a xlink:title=" ">
<polygon fill="white" stroke="#bfbfbf" points="407.5,-265.5 407.5,-322.5 525.5,-322.5 525.5,-265.5 407.5,-265.5"/>
<text text-anchor="middle" x="466.5" y="-310.5" font-family="Helvetica,sans-Serif" font-size="10.00">std::shared_ptr&lt; T &gt;</text>
<polyline fill="none" stroke="#bfbfbf" points="407.5,-303.5 525.5,-303.5 "/>
<text text-anchor="middle" x="466.5" y="-291.5" font-family="Helvetica,sans-Serif" font-size="10.00"> </text>
<polyline fill="none" stroke="#bfbfbf" points="407.5,-284.5 525.5,-284.5 "/>
<text text-anchor="start" x="415.5" y="-272.5" font-family="Helvetica,sans-Serif" font-size="10.00">+ T * operator&#45;&gt;()</text>
</a>
</g>
</g>
<!-- Node6&#45;&gt;Node5 -->
<g id="edge5" class="edge">
<title>Node6&#45;&gt;Node5</title>
<path fill="none" stroke="#404040" d="M503.08,-265.49C508.13,-259.96 512.58,-253.75 515.5,-247 517.84,-241.6 518.93,-235.64 519.23,-229.67"/>
<polygon fill="none" stroke="#404040" points="519.22,-229.57 515.05,-223.69 518.87,-217.57 523.04,-223.45 519.22,-229.57"/>
<text text-anchor="middle" x="547.5" y="-239" font-family="Helvetica,sans-Serif" font-size="10.00"> +elements</text>
</g>
<!-- Node11 -->
<g id="node11" class="node">
<title>Node11</title>
<g id="a_node11"><a xlink:title=" ">
<polygon fill="white" stroke="#bfbfbf" points="251.5,-160.5 251.5,-217.5 421.5,-217.5 421.5,-160.5 251.5,-160.5"/>
<text text-anchor="middle" x="336.5" y="-205.5" font-family="Helvetica,sans-Serif" font-size="10.00">std::vector&lt; UserInterfacePtr &gt;</text>
<polyline fill="none" stroke="#bfbfbf" points="251.5,-198.5 421.5,-198.5 "/>
<text text-anchor="middle" x="336.5" y="-186.5" font-family="Helvetica,sans-Serif" font-size="10.00"> </text>
<polyline fill="none" stroke="#bfbfbf" points="251.5,-179.5 421.5,-179.5 "/>
<text text-anchor="middle" x="336.5" y="-167.5" font-family="Helvetica,sans-Serif" font-size="10.00"> </text>
</a>
</g>
</g>
<!-- Node6&#45;&gt;Node11 -->
<g id="edge12" class="edge">
<title>Node6&#45;&gt;Node11</title>
<path fill="none" stroke="#404040" d="M455.34,-265.37C450.18,-255.16 443.23,-244.11 434.5,-236 429.89,-231.71 424.8,-227.76 419.45,-224.12"/>
<polygon fill="none" stroke="#404040" points="419.05,-223.88 411.85,-224.09 408.87,-217.52 416.08,-217.31 419.05,-223.88"/>
<text text-anchor="middle" x="473.5" y="-239" font-family="Helvetica,sans-Serif" font-size="10.00"> +elements</text>
</g>
<!-- Node7 -->
<g id="node7" class="node">
<title>Node7</title>
<g id="a_node7"><a xlink:title=" ">
<polygon fill="white" stroke="#bfbfbf" points="388,-370.5 388,-427.5 417,-427.5 417,-370.5 388,-370.5"/>
<text text-anchor="middle" x="402.5" y="-415.5" font-family="Helvetica,sans-Serif" font-size="10.00">T</text>
<polyline fill="none" stroke="#bfbfbf" points="388,-408.5 417,-408.5 "/>
<text text-anchor="middle" x="402.5" y="-396.5" font-family="Helvetica,sans-Serif" font-size="10.00"> </text>
<polyline fill="none" stroke="#bfbfbf" points="388,-389.5 417,-389.5 "/>
<text text-anchor="middle" x="402.5" y="-377.5" font-family="Helvetica,sans-Serif" font-size="10.00"> </text>
</a>
</g>
</g>
<!-- Node7&#45;&gt;Node6 -->
<g id="edge6" class="edge">
<title>Node7&#45;&gt;Node6</title>
<path fill="none" stroke="#404040" d="M417.02,-376.12C422,-368.53 427.55,-359.93 432.5,-352 436.29,-345.93 440.24,-339.44 444.06,-333.1"/>
<polygon fill="none" stroke="#404040" points="444.13,-332.98 443.78,-325.77 450.29,-322.68 450.65,-329.88 444.13,-332.98"/>
<text text-anchor="middle" x="452" y="-344" font-family="Helvetica,sans-Serif" font-size="10.00"> +ptr</text>
</g>
<!-- Node8 -->
<g id="node8" class="node">
<title>Node8</title>
<g id="a_node8"><a xlink:title=" ">
<polygon fill="white" stroke="#bfbfbf" points="292,-265.5 292,-322.5 389,-322.5 389,-265.5 292,-265.5"/>
<text text-anchor="middle" x="340.5" y="-310.5" font-family="Helvetica,sans-Serif" font-size="10.00">std::vector&lt; T &gt;</text>
<polyline fill="none" stroke="#bfbfbf" points="292,-303.5 389,-303.5 "/>
<text text-anchor="middle" x="340.5" y="-291.5" font-family="Helvetica,sans-Serif" font-size="10.00"> </text>
<polyline fill="none" stroke="#bfbfbf" points="292,-284.5 389,-284.5 "/>
<text text-anchor="middle" x="340.5" y="-272.5" font-family="Helvetica,sans-Serif" font-size="10.00"> </text>
</a>
</g>
</g>
<!-- Node7&#45;&gt;Node8 -->
<g id="edge8" class="edge">
<title>Node7&#45;&gt;Node8</title>
<path fill="none" stroke="#404040" d="M387.93,-374.15C383.59,-367.03 378.84,-359.21 374.5,-352 370.8,-345.87 366.9,-339.35 363.11,-333"/>
<polygon fill="none" stroke="#404040" points="363.03,-332.88 356.52,-329.77 356.88,-322.57 363.39,-325.67 363.03,-332.88"/>
<text text-anchor="middle" x="403.5" y="-344" font-family="Helvetica,sans-Serif" font-size="10.00"> +elements</text>
</g>
<!-- Node8&#45;&gt;Node5 -->
<g id="edge7" class="edge">
<title>Node8&#45;&gt;Node5</title>
<path fill="none" stroke="orange" d="M339.43,-254.94C340.9,-247.95 343.66,-241.22 348.5,-236 373.85,-208.62 394.57,-228.04 430.5,-218 433.4,-217.19 436.34,-216.34 439.31,-215.45"/>
<polygon fill="orange" stroke="orange" points="335.91,-254.86 338.11,-265.23 342.85,-255.76 335.91,-254.86"/>
<text text-anchor="middle" x="389.5" y="-239" font-family="Helvetica,sans-Serif" font-size="10.00"> &lt; CallbackPtr &gt;</text>
</g>
<!-- Node8&#45;&gt;Node11 -->
<g id="edge13" class="edge">
<title>Node8&#45;&gt;Node11</title>
<path fill="none" stroke="orange" d="M281.99,-284.27C259.86,-277.8 236.83,-266.56 223.5,-247 220.75,-242.96 220.77,-240.06 223.5,-236 227.7,-229.76 238.26,-223.44 251.33,-217.57"/>
<polygon fill="orange" stroke="orange" points="281.15,-287.67 291.71,-286.83 282.94,-280.9 281.15,-287.67"/>
<text text-anchor="middle" x="276.5" y="-239" font-family="Helvetica,sans-Serif" font-size="10.00"> &lt; UserInterfacePtr &gt;</text>
</g>
<!-- Node9 -->
<g id="node9" class="node">
<title>Node9</title>
<g id="a_node9"><a xlink:title=" ">
<polygon fill="white" stroke="#bfbfbf" points="604,-160.5 604,-217.5 669,-217.5 669,-160.5 604,-160.5"/>
<text text-anchor="middle" x="636.5" y="-205.5" font-family="Helvetica,sans-Serif" font-size="10.00">std::string</text>
<polyline fill="none" stroke="#bfbfbf" points="604,-198.5 669,-198.5 "/>
<text text-anchor="middle" x="636.5" y="-186.5" font-family="Helvetica,sans-Serif" font-size="10.00"> </text>
<polyline fill="none" stroke="#bfbfbf" points="604,-179.5 669,-179.5 "/>
<text text-anchor="middle" x="636.5" y="-167.5" font-family="Helvetica,sans-Serif" font-size="10.00"> </text>
</a>
</g>
</g>
<!-- Node9&#45;&gt;Node1 -->
<g id="edge9" class="edge">
<title>Node9&#45;&gt;Node1</title>
<path fill="none" stroke="#404040" d="M603.54,-164.8C600.54,-163.07 597.5,-161.44 594.5,-160 529.84,-129.02 453.56,-104.4 391.16,-87.07"/>
<polygon fill="none" stroke="#404040" points="390.85,-86.98 384,-89.25 379.28,-83.8 386.12,-81.53 390.85,-86.98"/>
<text text-anchor="middle" x="568.5" y="-134" font-family="Helvetica,sans-Serif" font-size="10.00"> &#45;title_</text>
</g>
<!-- Node10 -->
<g id="node10" class="node">
<title>Node10</title>
<g id="a_node10"><a xlink:title=" ">
<polygon fill="white" stroke="#bfbfbf" points="566,-265.5 566,-322.5 707,-322.5 707,-265.5 566,-265.5"/>
<text text-anchor="middle" x="636.5" y="-310.5" font-family="Helvetica,sans-Serif" font-size="10.00">std::basic_string&lt; Char &gt;</text>
<polyline fill="none" stroke="#bfbfbf" points="566,-303.5 707,-303.5 "/>
<text text-anchor="middle" x="636.5" y="-291.5" font-family="Helvetica,sans-Serif" font-size="10.00"> </text>
<polyline fill="none" stroke="#bfbfbf" points="566,-284.5 707,-284.5 "/>
<text text-anchor="middle" x="636.5" y="-272.5" font-family="Helvetica,sans-Serif" font-size="10.00"> </text>
</a>
</g>
</g>
<!-- Node10&#45;&gt;Node9 -->
<g id="edge10" class="edge">
<title>Node10&#45;&gt;Node9</title>
<path fill="none" stroke="midnightblue" d="M636.5,-255.29C636.5,-242.84 636.5,-229.23 636.5,-217.68"/>
<polygon fill="none" stroke="midnightblue" points="633,-255.4 636.5,-265.4 640,-255.4 633,-255.4"/>
</g>
<!-- Node11&#45;&gt;Node1 -->
<g id="edge11" class="edge">
<title>Node11&#45;&gt;Node1</title>
<path fill="none" stroke="#404040" d="M324.38,-160.24C320.15,-150.88 315.26,-140.41 310.5,-131 309.22,-128.47 307.9,-125.9 306.55,-123.31"/>
<polygon fill="none" stroke="#404040" points="306.5,-123.23 300.16,-119.8 300.88,-112.63 307.22,-116.05 306.5,-123.23"/>
<text text-anchor="middle" x="330" y="-134" font-family="Helvetica,sans-Serif" font-size="10.00"> &#45;uis_</text>
</g>
</g>
</svg>
