<?xml version="1.0" encoding="UTF-8" standalone="no"?>
<!DOCTYPE svg PUBLIC "-//W3C//DTD SVG 1.1//EN"
 "http://www.w3.org/Graphics/SVG/1.1/DTD/svg11.dtd">
<!-- Generated by graphviz version 2.43.0 (0)
 -->
<!-- Title: ad_framework::ui::TopViewer Pages: 1 -->
<svg width="904pt" height="641pt"
 viewBox="0.00 0.00 904.00 641.00" xmlns="http://www.w3.org/2000/svg" xmlns:xlink="http://www.w3.org/1999/xlink">
<g id="graph0" class="graph" transform="scale(1 1) rotate(0) translate(4 637)">
<title>ad_framework::ui::TopViewer</title>
<polygon fill="white" stroke="transparent" points="-4,4 -4,-637 900,-637 900,4 -4,4"/>
<!-- Node1 -->
<g id="node1" class="node">
<title>Node1</title>
<g id="a_node1"><a xlink:title=" ">
<polygon fill="#bfbfbf" stroke="black" points="340.5,-0.5 340.5,-79.5 624.5,-79.5 624.5,-0.5 340.5,-0.5"/>
<text text-anchor="middle" x="482.5" y="-67.5" font-family="Helvetica,sans-Serif" font-size="10.00">ad_framework::ui::TopViewer</text>
<polyline fill="none" stroke="black" points="340.5,-60.5 624.5,-60.5 "/>
<text text-anchor="middle" x="482.5" y="-48.5" font-family="Helvetica,sans-Serif" font-size="10.00"> </text>
<polyline fill="none" stroke="black" points="340.5,-41.5 624.5,-41.5 "/>
<text text-anchor="start" x="348.5" y="-29.5" font-family="Helvetica,sans-Serif" font-size="10.00">+ TopViewer(std::string title, ImVec2 size, ImVec2 pos)</text>
<text text-anchor="start" x="348.5" y="-18.5" font-family="Helvetica,sans-Serif" font-size="10.00">+ TopViewer(std::string title)</text>
<text text-anchor="start" x="348.5" y="-7.5" font-family="Helvetica,sans-Serif" font-size="10.00">+ void operator()() override</text>
</a>
</g>
</g>
<!-- Node2 -->
<g id="node2" class="node">
<title>Node2</title>
<g id="a_node2"><a xlink:href="classad__framework_1_1ui_1_1UserInterface.html" target="_top" xlink:title=" ">
<polygon fill="white" stroke="black" points="307,-117.5 307,-306.5 658,-306.5 658,-117.5 307,-117.5"/>
<text text-anchor="middle" x="482.5" y="-294.5" font-family="Helvetica,sans-Serif" font-size="10.00">ad_framework::ui::UserInterface</text>
<polyline fill="none" stroke="black" points="307,-287.5 658,-287.5 "/>
<text text-anchor="middle" x="482.5" y="-275.5" font-family="Helvetica,sans-Serif" font-size="10.00"> </text>
<polyline fill="none" stroke="black" points="307,-268.5 658,-268.5 "/>
<text text-anchor="start" x="315" y="-256.5" font-family="Helvetica,sans-Serif" font-size="10.00">+ UserInterface(std::string title, ImVec2 size, ImVec2 pos)</text>
<text text-anchor="start" x="315" y="-245.5" font-family="Helvetica,sans-Serif" font-size="10.00">+ virtual ~UserInterface()=default</text>
<text text-anchor="start" x="315" y="-234.5" font-family="Helvetica,sans-Serif" font-size="10.00">+ virtual void operator()()=0</text>
<text text-anchor="start" x="315" y="-223.5" font-family="Helvetica,sans-Serif" font-size="10.00">+ std::string Title() const</text>
<text text-anchor="start" x="315" y="-212.5" font-family="Helvetica,sans-Serif" font-size="10.00">+ void Rename(std::string title)</text>
<text text-anchor="start" x="315" y="-201.5" font-family="Helvetica,sans-Serif" font-size="10.00">+ ImVec2 Size() const</text>
<text text-anchor="start" x="315" y="-190.5" font-family="Helvetica,sans-Serif" font-size="10.00">+ ImVec2 Pos() const</text>
<text text-anchor="start" x="315" y="-179.5" font-family="Helvetica,sans-Serif" font-size="10.00">+ void Resize(ImVec2 size)</text>
<text text-anchor="start" x="315" y="-168.5" font-family="Helvetica,sans-Serif" font-size="10.00">+ void Move(ImVec2 pos)</text>
<text text-anchor="start" x="315" y="-157.5" font-family="Helvetica,sans-Serif" font-size="10.00">+ void SetParent(UserInterfacePtr parent)</text>
<text text-anchor="start" x="315" y="-146.5" font-family="Helvetica,sans-Serif" font-size="10.00">+ UserInterfacePtr GetParent() const</text>
<text text-anchor="start" x="315" y="-135.5" font-family="Helvetica,sans-Serif" font-size="10.00">+ void AddCallback(std::string name, callback::CallbackPtr callback)</text>
<text text-anchor="start" x="315" y="-124.5" font-family="Helvetica,sans-Serif" font-size="10.00">+ CallbackMap GetCallbacks() const</text>
</a>
</g>
</g>
<!-- Node2&#45;&gt;Node1 -->
<g id="edge1" class="edge">
<title>Node2&#45;&gt;Node1</title>
<path fill="none" stroke="midnightblue" d="M482.5,-106.91C482.5,-97.29 482.5,-88 482.5,-79.6"/>
<polygon fill="none" stroke="midnightblue" points="479,-107.05 482.5,-117.05 486,-107.05 479,-107.05"/>
</g>
<!-- Node3 -->
<g id="node3" class="node">
<title>Node3</title>
<g id="a_node3"><a xlink:title=" ">
<polygon fill="white" stroke="#bfbfbf" points="0,-365.5 0,-422.5 249,-422.5 249,-365.5 0,-365.5"/>
<text text-anchor="middle" x="124.5" y="-410.5" font-family="Helvetica,sans-Serif" font-size="10.00">std::enable_shared_from_this&lt; UserInterface &gt;</text>
<polyline fill="none" stroke="#bfbfbf" points="0,-403.5 249,-403.5 "/>
<text text-anchor="middle" x="124.5" y="-391.5" font-family="Helvetica,sans-Serif" font-size="10.00"> </text>
<polyline fill="none" stroke="#bfbfbf" points="0,-384.5 249,-384.5 "/>
<text text-anchor="middle" x="124.5" y="-372.5" font-family="Helvetica,sans-Serif" font-size="10.00"> </text>
</a>
</g>
</g>
<!-- Node3&#45;&gt;Node2 -->
<g id="edge2" class="edge">
<title>Node3&#45;&gt;Node2</title>
<path fill="none" stroke="midnightblue" d="M188.41,-360.87C221.74,-344.11 264.32,-322.7 306.66,-301.41"/>
<polygon fill="none" stroke="midnightblue" points="186.62,-357.85 179.26,-365.47 189.77,-364.1 186.62,-357.85"/>
</g>
<!-- Node4 -->
<g id="node4" class="node">
<title>Node4</title>
<g id="a_node4"><a xlink:title=" ">
<polygon fill="white" stroke="#bfbfbf" points="647.5,-365.5 647.5,-422.5 825.5,-422.5 825.5,-365.5 647.5,-365.5"/>
<text text-anchor="middle" x="736.5" y="-410.5" font-family="Helvetica,sans-Serif" font-size="10.00">std::shared_ptr&lt; UserInterface &gt;</text>
<polyline fill="none" stroke="#bfbfbf" points="647.5,-403.5 825.5,-403.5 "/>
<text text-anchor="start" x="655.5" y="-391.5" font-family="Helvetica,sans-Serif" font-size="10.00">+ UserInterface ptr</text>
<polyline fill="none" stroke="#bfbfbf" points="647.5,-384.5 825.5,-384.5 "/>
<text text-anchor="start" x="655.5" y="-372.5" font-family="Helvetica,sans-Serif" font-size="10.00">+ UserInterface * operator&#45;&gt;()</text>
</a>
</g>
</g>
<!-- Node4&#45;&gt;Node2 -->
<g id="edge3" class="edge">
<title>Node4&#45;&gt;Node2</title>
<path fill="none" stroke="#404040" d="M697.65,-365.47C677.47,-351.17 651.44,-332.72 624.5,-313.63"/>
<polygon fill="none" stroke="#404040" points="624.33,-313.51 617.12,-313.3 614.54,-306.57 621.75,-306.78 624.33,-313.51"/>
<text text-anchor="middle" x="689.5" y="-333.5" font-family="Helvetica,sans-Serif" font-size="10.00"> &#45;parent_</text>
</g>
<!-- Node5 -->
<g id="node5" class="node">
<title>Node5</title>
<g id="a_node5"><a xlink:title=" ">
<polygon fill="white" stroke="#bfbfbf" points="596.5,-470.5 596.5,-527.5 714.5,-527.5 714.5,-470.5 596.5,-470.5"/>
<text text-anchor="middle" x="655.5" y="-515.5" font-family="Helvetica,sans-Serif" font-size="10.00">std::shared_ptr&lt; T &gt;</text>
<polyline fill="none" stroke="#bfbfbf" points="596.5,-508.5 714.5,-508.5 "/>
<text text-anchor="middle" x="655.5" y="-496.5" font-family="Helvetica,sans-Serif" font-size="10.00"> </text>
<polyline fill="none" stroke="#bfbfbf" points="596.5,-489.5 714.5,-489.5 "/>
<text text-anchor="start" x="604.5" y="-477.5" font-family="Helvetica,sans-Serif" font-size="10.00">+ T * operator&#45;&gt;()</text>
</a>
</g>
</g>
<!-- Node5&#45;&gt;Node4 -->
<g id="edge4" class="edge">
<title>Node5&#45;&gt;Node4</title>
<path fill="none" stroke="orange" d="M704.3,-463.65C708.01,-459.96 711.48,-456.07 714.5,-452 720.95,-443.31 725.75,-432.5 729.19,-422.63"/>
<polygon fill="orange" stroke="orange" points="701.9,-461.1 696.92,-470.45 706.65,-466.25 701.9,-461.1"/>
<text text-anchor="middle" x="766.5" y="-444" font-family="Helvetica,sans-Serif" font-size="10.00"> &lt; UserInterface &gt;</text>
</g>
<!-- Node10 -->
<g id="node10" class="node">
<title>Node10</title>
<g id="a_node10"><a xlink:title=" ">
<polygon fill="white" stroke="#bfbfbf" points="336,-365.5 336,-422.5 629,-422.5 629,-365.5 336,-365.5"/>
<text text-anchor="middle" x="482.5" y="-410.5" font-family="Helvetica,sans-Serif" font-size="10.00">std::unordered_map&lt; std::string, callback::CallbackPtr &gt;</text>
<polyline fill="none" stroke="#bfbfbf" points="336,-403.5 629,-403.5 "/>
<text text-anchor="middle" x="482.5" y="-391.5" font-family="Helvetica,sans-Serif" font-size="10.00"> </text>
<polyline fill="none" stroke="#bfbfbf" points="336,-384.5 629,-384.5 "/>
<text text-anchor="middle" x="482.5" y="-372.5" font-family="Helvetica,sans-Serif" font-size="10.00"> </text>
</a>
</g>
</g>
<!-- Node5&#45;&gt;Node10 -->
<g id="edge10" class="edge">
<title>Node5&#45;&gt;Node10</title>
<path fill="none" stroke="#404040" d="M650.26,-470.4C647.02,-459.95 641.81,-448.73 633.5,-441 628.67,-436.51 623.42,-432.46 617.86,-428.8"/>
<polygon fill="none" stroke="#404040" points="617.85,-428.79 610.65,-429.15 607.55,-422.63 614.75,-422.28 617.85,-428.79"/>
<text text-anchor="middle" x="671.5" y="-444" font-family="Helvetica,sans-Serif" font-size="10.00"> +elements</text>
</g>
<!-- Node6 -->
<g id="node6" class="node">
<title>Node6</title>
<g id="a_node6"><a xlink:title=" ">
<polygon fill="white" stroke="#bfbfbf" points="580,-575.5 580,-632.5 609,-632.5 609,-575.5 580,-575.5"/>
<text text-anchor="middle" x="594.5" y="-620.5" font-family="Helvetica,sans-Serif" font-size="10.00">T</text>
<polyline fill="none" stroke="#bfbfbf" points="580,-613.5 609,-613.5 "/>
<text text-anchor="middle" x="594.5" y="-601.5" font-family="Helvetica,sans-Serif" font-size="10.00"> </text>
<polyline fill="none" stroke="#bfbfbf" points="580,-594.5 609,-594.5 "/>
<text text-anchor="middle" x="594.5" y="-582.5" font-family="Helvetica,sans-Serif" font-size="10.00"> </text>
</a>
</g>
</g>
<!-- Node6&#45;&gt;Node5 -->
<g id="edge5" class="edge">
<title>Node6&#45;&gt;Node5</title>
<path fill="none" stroke="#404040" d="M609.11,-578.33C616.23,-566.31 624.95,-551.58 632.91,-538.15"/>
<polygon fill="none" stroke="#404040" points="632.96,-538.06 632.57,-530.86 639.07,-527.74 639.46,-534.94 632.96,-538.06"/>
<text text-anchor="middle" x="640" y="-549" font-family="Helvetica,sans-Serif" font-size="10.00"> +ptr</text>
</g>
<!-- Node11 -->
<g id="node11" class="node">
<title>Node11</title>
<g id="a_node11"><a xlink:title=" ">
<polygon fill="white" stroke="#bfbfbf" points="401,-470.5 401,-527.5 556,-527.5 556,-470.5 401,-470.5"/>
<text text-anchor="middle" x="478.5" y="-515.5" font-family="Helvetica,sans-Serif" font-size="10.00">std::unordered_map&lt; K, T &gt;</text>
<polyline fill="none" stroke="#bfbfbf" points="401,-508.5 556,-508.5 "/>
<text text-anchor="middle" x="478.5" y="-496.5" font-family="Helvetica,sans-Serif" font-size="10.00"> </text>
<polyline fill="none" stroke="#bfbfbf" points="401,-489.5 556,-489.5 "/>
<text text-anchor="middle" x="478.5" y="-477.5" font-family="Helvetica,sans-Serif" font-size="10.00"> </text>
</a>
</g>
</g>
<!-- Node6&#45;&gt;Node11 -->
<g id="edge14" class="edge">
<title>Node6&#45;&gt;Node11</title>
<path fill="none" stroke="#404040" d="M579.81,-589.95C564.51,-576.37 539.88,-554.51 518.74,-535.73"/>
<polygon fill="none" stroke="#404040" points="518.6,-535.6 511.45,-534.61 509.62,-527.64 516.77,-528.63 518.6,-535.6"/>
<text text-anchor="middle" x="569.5" y="-549" font-family="Helvetica,sans-Serif" font-size="10.00"> +elements</text>
</g>
<!-- Node7 -->
<g id="node7" class="node">
<title>Node7</title>
<g id="a_node7"><a xlink:title=" ">
<polygon fill="white" stroke="#bfbfbf" points="843,-365.5 843,-422.5 896,-422.5 896,-365.5 843,-365.5"/>
<text text-anchor="middle" x="869.5" y="-410.5" font-family="Helvetica,sans-Serif" font-size="10.00">ImVec2</text>
<polyline fill="none" stroke="#bfbfbf" points="843,-403.5 896,-403.5 "/>
<text text-anchor="middle" x="869.5" y="-391.5" font-family="Helvetica,sans-Serif" font-size="10.00"> </text>
<polyline fill="none" stroke="#bfbfbf" points="843,-384.5 896,-384.5 "/>
<text text-anchor="middle" x="869.5" y="-372.5" font-family="Helvetica,sans-Serif" font-size="10.00"> </text>
</a>
</g>
</g>
<!-- Node7&#45;&gt;Node2 -->
<g id="edge6" class="edge">
<title>Node7&#45;&gt;Node2</title>
<path fill="none" stroke="#404040" d="M842.89,-370.54C840.13,-368.57 837.3,-366.68 834.5,-365 782.99,-334.04 724.04,-306.01 669.29,-282.7"/>
<polygon fill="none" stroke="#404040" points="669.1,-282.62 662.01,-283.97 658.04,-277.95 665.12,-276.6 669.1,-282.62"/>
<text text-anchor="middle" x="812.5" y="-339" font-family="Helvetica,sans-Serif" font-size="10.00"> &#45;pos_</text>
<text text-anchor="middle" x="812.5" y="-328" font-family="Helvetica,sans-Serif" font-size="10.00">&#45;size_</text>
</g>
<!-- Node8 -->
<g id="node8" class="node">
<title>Node8</title>
<g id="a_node8"><a xlink:title=" ">
<polygon fill="white" stroke="#bfbfbf" points="296,-470.5 296,-527.5 361,-527.5 361,-470.5 296,-470.5"/>
<text text-anchor="middle" x="328.5" y="-515.5" font-family="Helvetica,sans-Serif" font-size="10.00">std::string</text>
<polyline fill="none" stroke="#bfbfbf" points="296,-508.5 361,-508.5 "/>
<text text-anchor="middle" x="328.5" y="-496.5" font-family="Helvetica,sans-Serif" font-size="10.00"> </text>
<polyline fill="none" stroke="#bfbfbf" points="296,-489.5 361,-489.5 "/>
<text text-anchor="middle" x="328.5" y="-477.5" font-family="Helvetica,sans-Serif" font-size="10.00"> </text>
</a>
</g>
</g>
<!-- Node8&#45;&gt;Node2 -->
<g id="edge7" class="edge">
<title>Node8&#45;&gt;Node2</title>
<path fill="none" stroke="#404040" d="M310.81,-470.44C295.46,-442.76 278.07,-399.41 294.5,-365 303.04,-347.12 314.82,-330.67 328.35,-315.72"/>
<polygon fill="none" stroke="#404040" points="328.74,-315.32 329.97,-308.21 337,-306.61 335.77,-313.72 328.74,-315.32"/>
<text text-anchor="middle" x="310.5" y="-391.5" font-family="Helvetica,sans-Serif" font-size="10.00"> &#45;title_</text>
</g>
<!-- Node8&#45;&gt;Node10 -->
<g id="edge11" class="edge">
<title>Node8&#45;&gt;Node10</title>
<path fill="none" stroke="#404040" d="M361.08,-475.33C376.33,-464.79 394.78,-452.16 411.5,-441 417.29,-437.14 423.37,-433.13 429.44,-429.16"/>
<polygon fill="none" stroke="#404040" points="429.53,-429.1 432.37,-422.47 439.58,-422.55 436.74,-429.17 429.53,-429.1"/>
<text text-anchor="middle" x="428.5" y="-444" font-family="Helvetica,sans-Serif" font-size="10.00"> +keys</text>
</g>
<!-- Node9 -->
<g id="node9" class="node">
<title>Node9</title>
<g id="a_node9"><a xlink:title=" ">
<polygon fill="white" stroke="#bfbfbf" points="258,-575.5 258,-632.5 399,-632.5 399,-575.5 258,-575.5"/>
<text text-anchor="middle" x="328.5" y="-620.5" font-family="Helvetica,sans-Serif" font-size="10.00">std::basic_string&lt; Char &gt;</text>
<polyline fill="none" stroke="#bfbfbf" points="258,-613.5 399,-613.5 "/>
<text text-anchor="middle" x="328.5" y="-601.5" font-family="Helvetica,sans-Serif" font-size="10.00"> </text>
<polyline fill="none" stroke="#bfbfbf" points="258,-594.5 399,-594.5 "/>
<text text-anchor="middle" x="328.5" y="-582.5" font-family="Helvetica,sans-Serif" font-size="10.00"> </text>
</a>
</g>
</g>
<!-- Node9&#45;&gt;Node8 -->
<g id="edge8" class="edge">
<title>Node9&#45;&gt;Node8</title>
<path fill="none" stroke="midnightblue" d="M328.5,-565.29C328.5,-552.84 328.5,-539.23 328.5,-527.68"/>
<polygon fill="none" stroke="midnightblue" points="325,-565.4 328.5,-575.4 332,-565.4 325,-565.4"/>
</g>
<!-- Node10&#45;&gt;Node2 -->
<g id="edge9" class="edge">
<title>Node10&#45;&gt;Node2</title>
<path fill="none" stroke="#404040" d="M482.5,-365.27C482.5,-352.41 482.5,-336.23 482.5,-319.26"/>
<polygon fill="none" stroke="#404040" points="482.5,-318.79 478.5,-312.79 482.5,-306.79 486.5,-312.79 482.5,-318.79"/>
<text text-anchor="middle" x="511.5" y="-333.5" font-family="Helvetica,sans-Serif" font-size="10.00"> &#45;callbacks_</text>
</g>
<!-- Node11&#45;&gt;Node10 -->
<g id="edge12" class="edge">
<title>Node11&#45;&gt;Node10</title>
<path fill="none" stroke="orange" d="M451.22,-461.01C449.06,-454.48 448.42,-447.64 450.5,-441 452.51,-434.59 455.76,-428.3 459.44,-422.52"/>
<polygon fill="orange" stroke="orange" points="448.08,-462.56 455.33,-470.29 454.49,-459.73 448.08,-462.56"/>
<text text-anchor="middle" x="542" y="-444" font-family="Helvetica,sans-Serif" font-size="10.00"> &lt; std::string, callback::CallbackPtr &gt;</text>
</g>
<!-- Node12 -->
<g id="node12" class="node">
<title>Node12</title>
<g id="a_node12"><a xlink:title=" ">
<polygon fill="white" stroke="#bfbfbf" points="464,-575.5 464,-632.5 493,-632.5 493,-575.5 464,-575.5"/>
<text text-anchor="middle" x="478.5" y="-620.5" font-family="Helvetica,sans-Serif" font-size="10.00">K</text>
<polyline fill="none" stroke="#bfbfbf" points="464,-613.5 493,-613.5 "/>
<text text-anchor="middle" x="478.5" y="-601.5" font-family="Helvetica,sans-Serif" font-size="10.00"> </text>
<polyline fill="none" stroke="#bfbfbf" points="464,-594.5 493,-594.5 "/>
<text text-anchor="middle" x="478.5" y="-582.5" font-family="Helvetica,sans-Serif" font-size="10.00"> </text>
</a>
</g>
</g>
<!-- Node12&#45;&gt;Node11 -->
<g id="edge13" class="edge">
<title>Node12&#45;&gt;Node11</title>
<path fill="none" stroke="#404040" d="M478.5,-575.4C478.5,-564.55 478.5,-551.87 478.5,-540.05"/>
<polygon fill="none" stroke="#404040" points="478.5,-539.68 474.5,-533.68 478.5,-527.68 482.5,-533.68 478.5,-539.68"/>
<text text-anchor="middle" x="495.5" y="-549" font-family="Helvetica,sans-Serif" font-size="10.00"> +keys</text>
</g>
</g>
</svg>
