<?xml version="1.0" encoding="UTF-8" standalone="no"?>
<!DOCTYPE svg PUBLIC "-//W3C//DTD SVG 1.1//EN"
 "http://www.w3.org/Graphics/SVG/1.1/DTD/svg11.dtd">
<!-- Generated by graphviz version 2.43.0 (0)
 -->
<!-- Title: ad_framework::ui::Selector::ItemReciever Pages: 1 -->
<svg width="398pt" height="299pt"
 viewBox="0.00 0.00 397.50 299.00" xmlns="http://www.w3.org/2000/svg" xmlns:xlink="http://www.w3.org/1999/xlink">
<g id="graph0" class="graph" transform="scale(1 1) rotate(0) translate(4 295)">
<title>ad_framework::ui::Selector::ItemReciever</title>
<polygon fill="white" stroke="transparent" points="-4,4 -4,-295 393.5,-295 393.5,4 -4,4"/>
<!-- Node1 -->
<g id="node1" class="node">
<title>Node1</title>
<g id="a_node1"><a xlink:title=" ">
<polygon fill="#bfbfbf" stroke="black" points="18.5,-0.5 18.5,-79.5 281.5,-79.5 281.5,-0.5 18.5,-0.5"/>
<text text-anchor="middle" x="150" y="-67.5" font-family="Helvetica,sans-Serif" font-size="10.00">ad_framework::ui::Selector::ItemReciever</text>
<polyline fill="none" stroke="black" points="18.5,-60.5 281.5,-60.5 "/>
<text text-anchor="middle" x="150" y="-48.5" font-family="Helvetica,sans-Serif" font-size="10.00"> </text>
<polyline fill="none" stroke="black" points="18.5,-41.5 281.5,-41.5 "/>
<text text-anchor="start" x="26.5" y="-29.5" font-family="Helvetica,sans-Serif" font-size="10.00">+ ItemReciever()=default</text>
<text text-anchor="start" x="26.5" y="-18.5" font-family="Helvetica,sans-Serif" font-size="10.00">+ std::any operator()(const std::any &amp;src) override</text>
<text text-anchor="start" x="26.5" y="-7.5" font-family="Helvetica,sans-Serif" font-size="10.00">+ std::string GetItem()</text>
</a>
</g>
</g>
<!-- Node2 -->
<g id="node2" class="node">
<title>Node2</title>
<g id="a_node2"><a xlink:href="structad__framework_1_1callback_1_1Callback.html" target="_top" xlink:title=" ">
<polygon fill="white" stroke="black" points="0,-127.5 0,-195.5 268,-195.5 268,-127.5 0,-127.5"/>
<text text-anchor="middle" x="134" y="-183.5" font-family="Helvetica,sans-Serif" font-size="10.00">ad_framework::callback::Callback</text>
<polyline fill="none" stroke="black" points="0,-176.5 268,-176.5 "/>
<text text-anchor="middle" x="134" y="-164.5" font-family="Helvetica,sans-Serif" font-size="10.00"> </text>
<polyline fill="none" stroke="black" points="0,-157.5 268,-157.5 "/>
<text text-anchor="start" x="8" y="-145.5" font-family="Helvetica,sans-Serif" font-size="10.00">+ virtual ~Callback()=default</text>
<text text-anchor="start" x="8" y="-134.5" font-family="Helvetica,sans-Serif" font-size="10.00">+ virtual std::any operator()(const std::any &amp;src)=0</text>
</a>
</g>
</g>
<!-- Node2&#45;&gt;Node1 -->
<g id="edge1" class="edge">
<title>Node2&#45;&gt;Node1</title>
<path fill="none" stroke="midnightblue" d="M139.8,-117.18C141.45,-104.89 143.23,-91.59 144.83,-79.6"/>
<polygon fill="none" stroke="midnightblue" points="136.32,-116.84 138.46,-127.21 143.25,-117.77 136.32,-116.84"/>
</g>
<!-- Node3 -->
<g id="node3" class="node">
<title>Node3</title>
<g id="a_node3"><a xlink:title=" ">
<polygon fill="white" stroke="#bfbfbf" points="286.5,-133 286.5,-190 351.5,-190 351.5,-133 286.5,-133"/>
<text text-anchor="middle" x="319" y="-178" font-family="Helvetica,sans-Serif" font-size="10.00">std::string</text>
<polyline fill="none" stroke="#bfbfbf" points="286.5,-171 351.5,-171 "/>
<text text-anchor="middle" x="319" y="-159" font-family="Helvetica,sans-Serif" font-size="10.00"> </text>
<polyline fill="none" stroke="#bfbfbf" points="286.5,-152 351.5,-152 "/>
<text text-anchor="middle" x="319" y="-140" font-family="Helvetica,sans-Serif" font-size="10.00"> </text>
</a>
</g>
</g>
<!-- Node3&#45;&gt;Node1 -->
<g id="edge2" class="edge">
<title>Node3&#45;&gt;Node1</title>
<path fill="none" stroke="#404040" d="M286.17,-133.92C283.1,-131.55 280.01,-129.21 277,-127 258.55,-113.42 238.15,-99.26 219.2,-86.44"/>
<polygon fill="none" stroke="#404040" points="219.1,-86.37 211.89,-86.33 209.15,-79.66 216.36,-79.7 219.1,-86.37"/>
<text text-anchor="middle" x="266.5" y="-101" font-family="Helvetica,sans-Serif" font-size="10.00"> &#45;item_</text>
</g>
<!-- Node4 -->
<g id="node4" class="node">
<title>Node4</title>
<g id="a_node4"><a xlink:title=" ">
<polygon fill="white" stroke="#bfbfbf" points="248.5,-233.5 248.5,-290.5 389.5,-290.5 389.5,-233.5 248.5,-233.5"/>
<text text-anchor="middle" x="319" y="-278.5" font-family="Helvetica,sans-Serif" font-size="10.00">std::basic_string&lt; Char &gt;</text>
<polyline fill="none" stroke="#bfbfbf" points="248.5,-271.5 389.5,-271.5 "/>
<text text-anchor="middle" x="319" y="-259.5" font-family="Helvetica,sans-Serif" font-size="10.00"> </text>
<polyline fill="none" stroke="#bfbfbf" points="248.5,-252.5 389.5,-252.5 "/>
<text text-anchor="middle" x="319" y="-240.5" font-family="Helvetica,sans-Serif" font-size="10.00"> </text>
</a>
</g>
</g>
<!-- Node4&#45;&gt;Node3 -->
<g id="edge3" class="edge">
<title>Node4&#45;&gt;Node3</title>
<path fill="none" stroke="midnightblue" d="M319,-223.15C319,-212.23 319,-200.52 319,-190.33"/>
<polygon fill="none" stroke="midnightblue" points="315.5,-223.3 319,-233.3 322.5,-223.3 315.5,-223.3"/>
</g>
</g>
</svg>
