<?xml version="1.0" encoding="UTF-8" standalone="no"?>
<!DOCTYPE svg PUBLIC "-//W3C//DTD SVG 1.1//EN"
 "http://www.w3.org/Graphics/SVG/1.1/DTD/svg11.dtd">
<!-- Generated by graphviz version 2.43.0 (0)
 -->
<!-- Title: ad_framework::ui::Selector::operator() Pages: 1 -->
<svg width="492pt" height="142pt"
 viewBox="0.00 0.00 492.00 142.00" xmlns="http://www.w3.org/2000/svg" xmlns:xlink="http://www.w3.org/1999/xlink">
<g id="graph0" class="graph" transform="scale(1 1) rotate(0) translate(4 138)">
<title>ad_framework::ui::Selector::operator()</title>
<polygon fill="white" stroke="transparent" points="-4,4 -4,-138 488,-138 488,4 -4,4"/>
<!-- Node1 -->
<g id="node1" class="node">
<title>Node1</title>
<g id="a_node1"><a xlink:title=" ">
<polygon fill="#bfbfbf" stroke="black" points="0,-57.5 0,-76.5 203,-76.5 203,-57.5 0,-57.5"/>
<text text-anchor="middle" x="101.5" y="-64.5" font-family="Helvetica,sans-Serif" font-size="10.00">ad_framework::ui::Selector::operator()</text>
</a>
</g>
</g>
<!-- Node2 -->
<g id="node2" class="node">
<title>Node2</title>
<g id="a_node2"><a xlink:href="classad__framework_1_1ui_1_1UserInterface.html#a611ad02195c288f0eb58c26b94a6ddd4" target="_top" xlink:title=" ">
<polygon fill="white" stroke="black" points="239,-114.5 239,-133.5 484,-133.5 484,-114.5 239,-114.5"/>
<text text-anchor="middle" x="361.5" y="-121.5" font-family="Helvetica,sans-Serif" font-size="10.00">ad_framework::ui::UserInterface::GetCallbacks</text>
</a>
</g>
</g>
<!-- Node1&#45;&gt;Node2 -->
<g id="edge1" class="edge">
<title>Node1&#45;&gt;Node2</title>
<path fill="none" stroke="midnightblue" d="M132.88,-76.55C160.37,-84.94 202.1,-97.01 239,-105 252.35,-107.89 266.61,-110.52 280.5,-112.85"/>
<polygon fill="midnightblue" stroke="midnightblue" points="280.1,-116.33 290.53,-114.48 281.22,-109.42 280.1,-116.33"/>
</g>
<!-- Node3 -->
<g id="node3" class="node">
<title>Node3</title>
<g id="a_node3"><a xlink:href="classad__framework_1_1ui_1_1UserInterface.html#a425b365380f3b505eac6e6c5861f6457" target="_top" xlink:title=" ">
<polygon fill="white" stroke="black" points="263,-76.5 263,-95.5 460,-95.5 460,-76.5 263,-76.5"/>
<text text-anchor="middle" x="361.5" y="-83.5" font-family="Helvetica,sans-Serif" font-size="10.00">ad_framework::ui::UserInterface::Pos</text>
</a>
</g>
</g>
<!-- Node1&#45;&gt;Node3 -->
<g id="edge2" class="edge">
<title>Node1&#45;&gt;Node3</title>
<path fill="none" stroke="midnightblue" d="M203.36,-74.43C219.51,-75.62 236.28,-76.85 252.59,-78.05"/>
<polygon fill="midnightblue" stroke="midnightblue" points="252.44,-81.55 262.67,-78.8 252.96,-74.57 252.44,-81.55"/>
</g>
<!-- Node4 -->
<g id="node4" class="node">
<title>Node4</title>
<g id="a_node4"><a xlink:href="classad__framework_1_1ui_1_1UserInterface.html#a54aca8b9b70563522f1d992bc0d03f37" target="_top" xlink:title=" ">
<polygon fill="white" stroke="black" points="261.5,-38.5 261.5,-57.5 461.5,-57.5 461.5,-38.5 261.5,-38.5"/>
<text text-anchor="middle" x="361.5" y="-45.5" font-family="Helvetica,sans-Serif" font-size="10.00">ad_framework::ui::UserInterface::Size</text>
</a>
</g>
</g>
<!-- Node1&#45;&gt;Node4 -->
<g id="edge3" class="edge">
<title>Node1&#45;&gt;Node4</title>
<path fill="none" stroke="midnightblue" d="M203.36,-59.57C219.01,-58.42 235.24,-57.22 251.07,-56.06"/>
<polygon fill="midnightblue" stroke="midnightblue" points="251.69,-59.52 261.41,-55.3 251.18,-52.54 251.69,-59.52"/>
</g>
<!-- Node5 -->
<g id="node5" class="node">
<title>Node5</title>
<g id="a_node5"><a xlink:href="classad__framework_1_1ui_1_1UserInterface.html#acec7bc1f8dbcafa56a310a3be3a048fe" target="_top" xlink:title=" ">
<polygon fill="white" stroke="black" points="260.5,-0.5 260.5,-19.5 462.5,-19.5 462.5,-0.5 260.5,-0.5"/>
<text text-anchor="middle" x="361.5" y="-7.5" font-family="Helvetica,sans-Serif" font-size="10.00">ad_framework::ui::UserInterface::Title</text>
</a>
</g>
</g>
<!-- Node1&#45;&gt;Node5 -->
<g id="edge4" class="edge">
<title>Node1&#45;&gt;Node5</title>
<path fill="none" stroke="midnightblue" d="M132.88,-57.45C160.37,-49.06 202.1,-36.99 239,-29 252.35,-26.11 266.61,-23.48 280.5,-21.15"/>
<polygon fill="midnightblue" stroke="midnightblue" points="281.22,-24.58 290.53,-19.52 280.1,-17.67 281.22,-24.58"/>
</g>
</g>
</svg>
