<?xml version="1.0" encoding="UTF-8" standalone="no"?>
<!DOCTYPE svg PUBLIC "-//W3C//DTD SVG 1.1//EN"
 "http://www.w3.org/Graphics/SVG/1.1/DTD/svg11.dtd">
<!-- Generated by graphviz version 2.43.0 (0)
 -->
<!-- Title: ad_framework::data_structure::KdTree Pages: 1 -->
<svg width="410pt" height="447pt"
 viewBox="0.00 0.00 410.00 447.00" xmlns="http://www.w3.org/2000/svg" xmlns:xlink="http://www.w3.org/1999/xlink">
<g id="graph0" class="graph" transform="scale(1 1) rotate(0) translate(4 443)">
<title>ad_framework::data_structure::KdTree</title>
<polygon fill="white" stroke="transparent" points="-4,4 -4,-443 406,-443 406,4 -4,4"/>
<!-- Node1 -->
<g id="node1" class="node">
<title>Node1</title>
<g id="a_node1"><a xlink:title=" ">
<polygon fill="#bfbfbf" stroke="black" points="0,-0.5 0,-123.5 402,-123.5 402,-0.5 0,-0.5"/>
<text text-anchor="middle" x="201" y="-111.5" font-family="Helvetica,sans-Serif" font-size="10.00">ad_framework::data_structure::KdTree</text>
<polyline fill="none" stroke="black" points="0,-104.5 402,-104.5 "/>
<text text-anchor="middle" x="201" y="-92.5" font-family="Helvetica,sans-Serif" font-size="10.00"> </text>
<polyline fill="none" stroke="black" points="0,-85.5 402,-85.5 "/>
<text text-anchor="start" x="8" y="-73.5" font-family="Helvetica,sans-Serif" font-size="10.00">+ KdTree()=default</text>
<text text-anchor="start" x="8" y="-62.5" font-family="Helvetica,sans-Serif" font-size="10.00">+ void Insert(const Eigen::Vector3d &amp;point)</text>
<text text-anchor="start" x="8" y="-51.5" font-family="Helvetica,sans-Serif" font-size="10.00">+ NodePtr Nearest(const Eigen::Vector3d &amp;point) const</text>
<text text-anchor="start" x="8" y="-40.5" font-family="Helvetica,sans-Serif" font-size="10.00">+ NodeList FindInBoundary(const ShapePtr &amp;shape) const</text>
<text text-anchor="start" x="8" y="-29.5" font-family="Helvetica,sans-Serif" font-size="10.00">&#45; NodePtr Insert(NodePtr node, const Eigen::Vector3d &amp;point, int depth)</text>
<text text-anchor="start" x="8" y="-18.5" font-family="Helvetica,sans-Serif" font-size="10.00">&#45; NodePtr Nearest(NodePtr node, const Eigen::Vector3d &amp;point, int depth) const</text>
<text text-anchor="start" x="8" y="-7.5" font-family="Helvetica,sans-Serif" font-size="10.00">&#45; NodeList FindInBoundary(NodePtr node, const ShapePtr &amp;shape) const</text>
</a>
</g>
</g>
<!-- Node2 -->
<g id="node2" class="node">
<title>Node2</title>
<g id="a_node2"><a xlink:title=" ">
<polygon fill="white" stroke="#bfbfbf" points="132.5,-171.5 132.5,-228.5 269.5,-228.5 269.5,-171.5 132.5,-171.5"/>
<text text-anchor="middle" x="201" y="-216.5" font-family="Helvetica,sans-Serif" font-size="10.00">std::shared_ptr&lt; Node &gt;</text>
<polyline fill="none" stroke="#bfbfbf" points="132.5,-209.5 269.5,-209.5 "/>
<text text-anchor="start" x="140.5" y="-197.5" font-family="Helvetica,sans-Serif" font-size="10.00">+ Node ptr</text>
<polyline fill="none" stroke="#bfbfbf" points="132.5,-190.5 269.5,-190.5 "/>
<text text-anchor="start" x="140.5" y="-178.5" font-family="Helvetica,sans-Serif" font-size="10.00">+ Node * operator&#45;&gt;()</text>
</a>
</g>
</g>
<!-- Node2&#45;&gt;Node1 -->
<g id="edge1" class="edge">
<title>Node2&#45;&gt;Node1</title>
<path fill="none" stroke="#404040" d="M201,-171.48C201,-161.01 201,-148.53 201,-135.82"/>
<polygon fill="none" stroke="#404040" points="201,-135.62 197,-129.62 201,-123.62 205,-129.62 201,-135.62"/>
<text text-anchor="middle" x="217" y="-145" font-family="Helvetica,sans-Serif" font-size="10.00"> &#45;root_</text>
</g>
<!-- Node3 -->
<g id="node3" class="node">
<title>Node3</title>
<g id="a_node3"><a xlink:title=" ">
<polygon fill="white" stroke="#bfbfbf" points="142,-276.5 142,-333.5 260,-333.5 260,-276.5 142,-276.5"/>
<text text-anchor="middle" x="201" y="-321.5" font-family="Helvetica,sans-Serif" font-size="10.00">std::shared_ptr&lt; T &gt;</text>
<polyline fill="none" stroke="#bfbfbf" points="142,-314.5 260,-314.5 "/>
<text text-anchor="middle" x="201" y="-302.5" font-family="Helvetica,sans-Serif" font-size="10.00"> </text>
<polyline fill="none" stroke="#bfbfbf" points="142,-295.5 260,-295.5 "/>
<text text-anchor="start" x="150" y="-283.5" font-family="Helvetica,sans-Serif" font-size="10.00">+ T * operator&#45;&gt;()</text>
</a>
</g>
</g>
<!-- Node3&#45;&gt;Node2 -->
<g id="edge2" class="edge">
<title>Node3&#45;&gt;Node2</title>
<path fill="none" stroke="orange" d="M201,-266.29C201,-253.84 201,-240.23 201,-228.68"/>
<polygon fill="orange" stroke="orange" points="197.5,-266.4 201,-276.4 204.5,-266.4 197.5,-266.4"/>
<text text-anchor="middle" x="227" y="-250" font-family="Helvetica,sans-Serif" font-size="10.00"> &lt; Node &gt;</text>
</g>
<!-- Node4 -->
<g id="node4" class="node">
<title>Node4</title>
<g id="a_node4"><a xlink:title=" ">
<polygon fill="white" stroke="#bfbfbf" points="186.5,-381.5 186.5,-438.5 215.5,-438.5 215.5,-381.5 186.5,-381.5"/>
<text text-anchor="middle" x="201" y="-426.5" font-family="Helvetica,sans-Serif" font-size="10.00">T</text>
<polyline fill="none" stroke="#bfbfbf" points="186.5,-419.5 215.5,-419.5 "/>
<text text-anchor="middle" x="201" y="-407.5" font-family="Helvetica,sans-Serif" font-size="10.00"> </text>
<polyline fill="none" stroke="#bfbfbf" points="186.5,-400.5 215.5,-400.5 "/>
<text text-anchor="middle" x="201" y="-388.5" font-family="Helvetica,sans-Serif" font-size="10.00"> </text>
</a>
</g>
</g>
<!-- Node4&#45;&gt;Node3 -->
<g id="edge3" class="edge">
<title>Node4&#45;&gt;Node3</title>
<path fill="none" stroke="#404040" d="M201,-381.4C201,-370.55 201,-357.87 201,-346.05"/>
<polygon fill="none" stroke="#404040" points="201,-345.68 197,-339.68 201,-333.68 205,-339.68 201,-345.68"/>
<text text-anchor="middle" x="213.5" y="-355" font-family="Helvetica,sans-Serif" font-size="10.00"> +ptr</text>
</g>
</g>
</svg>
