<?xml version="1.0" encoding="UTF-8" standalone="no"?>
<!DOCTYPE svg PUBLIC "-//W3C//DTD SVG 1.1//EN"
 "http://www.w3.org/Graphics/SVG/1.1/DTD/svg11.dtd">
<!-- Generated by graphviz version 2.43.0 (0)
 -->
<!-- Title: ad_framework::NoneDataReader Pages: 1 -->
<svg width="830pt" height="784pt"
 viewBox="0.00 0.00 829.50 784.00" xmlns="http://www.w3.org/2000/svg" xmlns:xlink="http://www.w3.org/1999/xlink">
<g id="graph0" class="graph" transform="scale(1 1) rotate(0) translate(4 780)">
<title>ad_framework::NoneDataReader</title>
<polygon fill="white" stroke="transparent" points="-4,4 -4,-780 825.5,-780 825.5,4 -4,4"/>
<!-- Node1 -->
<g id="node1" class="node">
<title>Node1</title>
<g id="a_node1"><a xlink:title=" ">
<polygon fill="#bfbfbf" stroke="black" points="188,-0.5 188,-134.5 608,-134.5 608,-0.5 188,-0.5"/>
<text text-anchor="middle" x="398" y="-122.5" font-family="Helvetica,sans-Serif" font-size="10.00">ad_framework::NoneDataReader</text>
<polyline fill="none" stroke="black" points="188,-115.5 608,-115.5 "/>
<text text-anchor="middle" x="398" y="-103.5" font-family="Helvetica,sans-Serif" font-size="10.00"> </text>
<polyline fill="none" stroke="black" points="188,-96.5 608,-96.5 "/>
<text text-anchor="start" x="196" y="-84.5" font-family="Helvetica,sans-Serif" font-size="10.00">+ NoneDataReader(const fs::path path)</text>
<text text-anchor="start" x="196" y="-73.5" font-family="Helvetica,sans-Serif" font-size="10.00">&#45; size_t ReadSize() override</text>
<text text-anchor="start" x="196" y="-62.5" font-family="Helvetica,sans-Serif" font-size="10.00">&#45; ImagePtr ReadGrayImage(size_t index, fs::path base_path) override</text>
<text text-anchor="start" x="196" y="-51.5" font-family="Helvetica,sans-Serif" font-size="10.00">&#45; ImagePtr ReadColorImage(size_t index, fs::path base_path) override</text>
<text text-anchor="start" x="196" y="-40.5" font-family="Helvetica,sans-Serif" font-size="10.00">&#45; StereoImagePtr ReadGrayStereoImage(size_t index, fs::path base_path) override</text>
<text text-anchor="start" x="196" y="-29.5" font-family="Helvetica,sans-Serif" font-size="10.00">&#45; StereoImagePtr ReadColorStereoImage(size_t index, fs::path base_path) override</text>
<text text-anchor="start" x="196" y="-18.5" font-family="Helvetica,sans-Serif" font-size="10.00">&#45; PointCloudPtr ReadPointCloud(size_t index, fs::path base_path) override</text>
<text text-anchor="start" x="196" y="-7.5" font-family="Helvetica,sans-Serif" font-size="10.00">&#45; CalibrationPtr ReadCalibration(fs::path base_path) override</text>
</a>
</g>
</g>
<!-- Node2 -->
<g id="node2" class="node">
<title>Node2</title>
<g id="a_node2"><a xlink:href="classad__framework_1_1DataReader.html" target="_top" xlink:title=" ">
<polygon fill="white" stroke="black" points="185.5,-172.5 185.5,-449.5 610.5,-449.5 610.5,-172.5 185.5,-172.5"/>
<text text-anchor="middle" x="398" y="-437.5" font-family="Helvetica,sans-Serif" font-size="10.00">ad_framework::DataReader</text>
<polyline fill="none" stroke="black" points="185.5,-430.5 610.5,-430.5 "/>
<text text-anchor="middle" x="398" y="-418.5" font-family="Helvetica,sans-Serif" font-size="10.00"> </text>
<polyline fill="none" stroke="black" points="185.5,-411.5 610.5,-411.5 "/>
<text text-anchor="start" x="193.5" y="-399.5" font-family="Helvetica,sans-Serif" font-size="10.00">+ DataReader(const fs::path path)</text>
<text text-anchor="start" x="193.5" y="-388.5" font-family="Helvetica,sans-Serif" font-size="10.00">+ virtual ~DataReader()=default</text>
<text text-anchor="start" x="193.5" y="-377.5" font-family="Helvetica,sans-Serif" font-size="10.00">+ size_t GetSize() const</text>
<text text-anchor="start" x="193.5" y="-366.5" font-family="Helvetica,sans-Serif" font-size="10.00">+ bool LoadIndex(size_t index)</text>
<text text-anchor="start" x="193.5" y="-355.5" font-family="Helvetica,sans-Serif" font-size="10.00">+ size_t GetIndex() const</text>
<text text-anchor="start" x="193.5" y="-344.5" font-family="Helvetica,sans-Serif" font-size="10.00">+ fs::path GetPath() const</text>
<text text-anchor="start" x="193.5" y="-333.5" font-family="Helvetica,sans-Serif" font-size="10.00">+ const ImagePtr GetGrayImage() const</text>
<text text-anchor="start" x="193.5" y="-322.5" font-family="Helvetica,sans-Serif" font-size="10.00">+ const ImagePtr GetColorImage() const</text>
<text text-anchor="start" x="193.5" y="-311.5" font-family="Helvetica,sans-Serif" font-size="10.00">+ const StereoImagePtr GetGrayStereoImage() const</text>
<text text-anchor="start" x="193.5" y="-300.5" font-family="Helvetica,sans-Serif" font-size="10.00">+ const StereoImagePtr GetColorStereoImage() const</text>
<text text-anchor="start" x="193.5" y="-289.5" font-family="Helvetica,sans-Serif" font-size="10.00">+ const PointCloudPtr GetPointCloud() const</text>
<text text-anchor="start" x="193.5" y="-278.5" font-family="Helvetica,sans-Serif" font-size="10.00">+ const CalibrationPtr GetCalibration() const</text>
<text text-anchor="start" x="193.5" y="-267.5" font-family="Helvetica,sans-Serif" font-size="10.00"># void SetSize(size_t size)</text>
<text text-anchor="start" x="193.5" y="-256.5" font-family="Helvetica,sans-Serif" font-size="10.00"># void SetCalibration(CalibrationPtr calibration)</text>
<text text-anchor="start" x="193.5" y="-245.5" font-family="Helvetica,sans-Serif" font-size="10.00">&#45; virtual size_t ReadSize()=0</text>
<text text-anchor="start" x="193.5" y="-234.5" font-family="Helvetica,sans-Serif" font-size="10.00">&#45; virtual ImagePtr ReadGrayImage(size_t index, fs::path base_path)=0</text>
<text text-anchor="start" x="193.5" y="-223.5" font-family="Helvetica,sans-Serif" font-size="10.00">&#45; virtual ImagePtr ReadColorImage(size_t index, fs::path base_path)=0</text>
<text text-anchor="start" x="193.5" y="-212.5" font-family="Helvetica,sans-Serif" font-size="10.00">&#45; virtual StereoImagePtr ReadGrayStereoImage(size_t index, fs::path base_path)=0</text>
<text text-anchor="start" x="193.5" y="-201.5" font-family="Helvetica,sans-Serif" font-size="10.00">&#45; virtual StereoImagePtr ReadColorStereoImage(size_t index, fs::path base_path)=0</text>
<text text-anchor="start" x="193.5" y="-190.5" font-family="Helvetica,sans-Serif" font-size="10.00">&#45; virtual PointCloudPtr ReadPointCloud(size_t index, fs::path base_path)=0</text>
<text text-anchor="start" x="193.5" y="-179.5" font-family="Helvetica,sans-Serif" font-size="10.00">&#45; virtual CalibrationPtr ReadCalibration(fs::path base_path)=0</text>
</a>
</g>
</g>
<!-- Node2&#45;&gt;Node1 -->
<g id="edge1" class="edge">
<title>Node2&#45;&gt;Node1</title>
<path fill="none" stroke="midnightblue" d="M398,-162.31C398,-152.77 398,-143.47 398,-134.66"/>
<polygon fill="none" stroke="midnightblue" points="394.5,-162.32 398,-172.32 401.5,-162.32 394.5,-162.32"/>
</g>
<!-- Node3 -->
<g id="node3" class="node">
<title>Node3</title>
<g id="a_node3"><a xlink:title=" ">
<polygon fill="white" stroke="#bfbfbf" points="0,-508.5 0,-565.5 38,-565.5 38,-508.5 0,-508.5"/>
<text text-anchor="middle" x="19" y="-553.5" font-family="Helvetica,sans-Serif" font-size="10.00">path</text>
<polyline fill="none" stroke="#bfbfbf" points="0,-546.5 38,-546.5 "/>
<text text-anchor="middle" x="19" y="-534.5" font-family="Helvetica,sans-Serif" font-size="10.00"> </text>
<polyline fill="none" stroke="#bfbfbf" points="0,-527.5 38,-527.5 "/>
<text text-anchor="middle" x="19" y="-515.5" font-family="Helvetica,sans-Serif" font-size="10.00"> </text>
</a>
</g>
</g>
<!-- Node3&#45;&gt;Node2 -->
<g id="edge2" class="edge">
<title>Node3&#45;&gt;Node2</title>
<path fill="none" stroke="#404040" d="M38.26,-515.39C41.08,-512.78 44.04,-510.24 47,-508 86.43,-478.19 130.91,-449.87 174.62,-424.51"/>
<polygon fill="none" stroke="#404040" points="174.72,-424.45 177.92,-417.99 185.12,-418.46 181.91,-424.92 174.72,-424.45"/>
<text text-anchor="middle" x="118" y="-476.5" font-family="Helvetica,sans-Serif" font-size="10.00"> &#45;path_</text>
</g>
<!-- Node4 -->
<g id="node4" class="node">
<title>Node4</title>
<g id="a_node4"><a xlink:title=" ">
<polygon fill="white" stroke="#bfbfbf" points="56.5,-508.5 56.5,-565.5 199.5,-565.5 199.5,-508.5 56.5,-508.5"/>
<text text-anchor="middle" x="128" y="-553.5" font-family="Helvetica,sans-Serif" font-size="10.00">std::shared_ptr&lt; Image &gt;</text>
<polyline fill="none" stroke="#bfbfbf" points="56.5,-546.5 199.5,-546.5 "/>
<text text-anchor="start" x="64.5" y="-534.5" font-family="Helvetica,sans-Serif" font-size="10.00">+ Image ptr</text>
<polyline fill="none" stroke="#bfbfbf" points="56.5,-527.5 199.5,-527.5 "/>
<text text-anchor="start" x="64.5" y="-515.5" font-family="Helvetica,sans-Serif" font-size="10.00">+ Image * operator&#45;&gt;()</text>
</a>
</g>
</g>
<!-- Node4&#45;&gt;Node2 -->
<g id="edge3" class="edge">
<title>Node4&#45;&gt;Node2</title>
<path fill="none" stroke="#404040" d="M161.38,-508.31C178.01,-494.51 199.52,-476.67 222.78,-457.37"/>
<polygon fill="none" stroke="#404040" points="222.9,-457.27 224.96,-450.36 232.13,-449.61 230.07,-456.52 222.9,-457.27"/>
<text text-anchor="middle" x="253.5" y="-482" font-family="Helvetica,sans-Serif" font-size="10.00"> &#45;color_image_ptr_</text>
<text text-anchor="middle" x="253.5" y="-471" font-family="Helvetica,sans-Serif" font-size="10.00">&#45;gray_image_ptr_</text>
</g>
<!-- Node5 -->
<g id="node5" class="node">
<title>Node5</title>
<g id="a_node5"><a xlink:title=" ">
<polygon fill="white" stroke="#bfbfbf" points="339,-613.5 339,-670.5 457,-670.5 457,-613.5 339,-613.5"/>
<text text-anchor="middle" x="398" y="-658.5" font-family="Helvetica,sans-Serif" font-size="10.00">std::shared_ptr&lt; T &gt;</text>
<polyline fill="none" stroke="#bfbfbf" points="339,-651.5 457,-651.5 "/>
<text text-anchor="middle" x="398" y="-639.5" font-family="Helvetica,sans-Serif" font-size="10.00"> </text>
<polyline fill="none" stroke="#bfbfbf" points="339,-632.5 457,-632.5 "/>
<text text-anchor="start" x="347" y="-620.5" font-family="Helvetica,sans-Serif" font-size="10.00">+ T * operator&#45;&gt;()</text>
</a>
</g>
</g>
<!-- Node5&#45;&gt;Node4 -->
<g id="edge4" class="edge">
<title>Node5&#45;&gt;Node4</title>
<path fill="none" stroke="orange" d="M329.15,-614.74C289.49,-599.61 239.71,-580.61 199.59,-565.31"/>
<polygon fill="orange" stroke="orange" points="328.16,-618.1 338.75,-618.4 330.65,-611.56 328.16,-618.1"/>
<text text-anchor="middle" x="300.5" y="-587" font-family="Helvetica,sans-Serif" font-size="10.00"> &lt; Image &gt;</text>
</g>
<!-- Node7 -->
<g id="node7" class="node">
<title>Node7</title>
<g id="a_node7"><a xlink:title=" ">
<polygon fill="white" stroke="#bfbfbf" points="218,-508.5 218,-565.5 392,-565.5 392,-508.5 218,-508.5"/>
<text text-anchor="middle" x="305" y="-553.5" font-family="Helvetica,sans-Serif" font-size="10.00">std::shared_ptr&lt; StereoImage &gt;</text>
<polyline fill="none" stroke="#bfbfbf" points="218,-546.5 392,-546.5 "/>
<text text-anchor="start" x="226" y="-534.5" font-family="Helvetica,sans-Serif" font-size="10.00">+ StereoImage ptr</text>
<polyline fill="none" stroke="#bfbfbf" points="218,-527.5 392,-527.5 "/>
<text text-anchor="start" x="226" y="-515.5" font-family="Helvetica,sans-Serif" font-size="10.00">+ StereoImage * operator&#45;&gt;()</text>
</a>
</g>
</g>
<!-- Node5&#45;&gt;Node7 -->
<g id="edge7" class="edge">
<title>Node5&#45;&gt;Node7</title>
<path fill="none" stroke="orange" d="M366.29,-605.88C354.44,-592.75 341.15,-578.04 329.99,-565.68"/>
<polygon fill="orange" stroke="orange" points="363.78,-608.32 373.08,-613.4 368.97,-603.63 363.78,-608.32"/>
<text text-anchor="middle" x="398" y="-587" font-family="Helvetica,sans-Serif" font-size="10.00"> &lt; StereoImage &gt;</text>
</g>
<!-- Node9 -->
<g id="node9" class="node">
<title>Node9</title>
<g id="a_node9"><a xlink:title=" ">
<polygon fill="white" stroke="#bfbfbf" points="410.5,-508.5 410.5,-565.5 575.5,-565.5 575.5,-508.5 410.5,-508.5"/>
<text text-anchor="middle" x="493" y="-553.5" font-family="Helvetica,sans-Serif" font-size="10.00">std::shared_ptr&lt; Calibration &gt;</text>
<polyline fill="none" stroke="#bfbfbf" points="410.5,-546.5 575.5,-546.5 "/>
<text text-anchor="start" x="418.5" y="-534.5" font-family="Helvetica,sans-Serif" font-size="10.00">+ Calibration ptr</text>
<polyline fill="none" stroke="#bfbfbf" points="410.5,-527.5 575.5,-527.5 "/>
<text text-anchor="start" x="418.5" y="-515.5" font-family="Helvetica,sans-Serif" font-size="10.00">+ Calibration * operator&#45;&gt;()</text>
</a>
</g>
</g>
<!-- Node5&#45;&gt;Node9 -->
<g id="edge10" class="edge">
<title>Node5&#45;&gt;Node9</title>
<path fill="none" stroke="orange" d="M435.16,-606.24C438.88,-602.5 442.56,-598.71 446,-595 454.64,-585.69 463.62,-575.06 471.4,-565.52"/>
<polygon fill="orange" stroke="orange" points="432.65,-603.8 427.98,-613.31 437.56,-608.78 432.65,-603.8"/>
<text text-anchor="middle" x="494.5" y="-587" font-family="Helvetica,sans-Serif" font-size="10.00"> &lt; Calibration &gt;</text>
</g>
<!-- Node10 -->
<g id="node10" class="node">
<title>Node10</title>
<g id="a_node10"><a xlink:title=" ">
<polygon fill="white" stroke="#bfbfbf" points="594,-508.5 594,-565.5 758,-565.5 758,-508.5 594,-508.5"/>
<text text-anchor="middle" x="676" y="-553.5" font-family="Helvetica,sans-Serif" font-size="10.00">std::shared_ptr&lt; PointCloud &gt;</text>
<polyline fill="none" stroke="#bfbfbf" points="594,-546.5 758,-546.5 "/>
<text text-anchor="start" x="602" y="-534.5" font-family="Helvetica,sans-Serif" font-size="10.00">+ PointCloud ptr</text>
<polyline fill="none" stroke="#bfbfbf" points="594,-527.5 758,-527.5 "/>
<text text-anchor="start" x="602" y="-515.5" font-family="Helvetica,sans-Serif" font-size="10.00">+ PointCloud * operator&#45;&gt;()</text>
</a>
</g>
</g>
<!-- Node5&#45;&gt;Node10 -->
<g id="edge12" class="edge">
<title>Node5&#45;&gt;Node10</title>
<path fill="none" stroke="orange" d="M466.85,-619.5C489.62,-612.09 515.01,-603.51 538,-595 562.43,-585.96 588.95,-575.23 612.15,-565.53"/>
<polygon fill="orange" stroke="orange" points="465.7,-616.2 457.26,-622.6 467.85,-622.86 465.7,-616.2"/>
<text text-anchor="middle" x="603.5" y="-587" font-family="Helvetica,sans-Serif" font-size="10.00"> &lt; PointCloud &gt;</text>
</g>
<!-- Node6 -->
<g id="node6" class="node">
<title>Node6</title>
<g id="a_node6"><a xlink:title=" ">
<polygon fill="white" stroke="#bfbfbf" points="383.5,-718.5 383.5,-775.5 412.5,-775.5 412.5,-718.5 383.5,-718.5"/>
<text text-anchor="middle" x="398" y="-763.5" font-family="Helvetica,sans-Serif" font-size="10.00">T</text>
<polyline fill="none" stroke="#bfbfbf" points="383.5,-756.5 412.5,-756.5 "/>
<text text-anchor="middle" x="398" y="-744.5" font-family="Helvetica,sans-Serif" font-size="10.00"> </text>
<polyline fill="none" stroke="#bfbfbf" points="383.5,-737.5 412.5,-737.5 "/>
<text text-anchor="middle" x="398" y="-725.5" font-family="Helvetica,sans-Serif" font-size="10.00"> </text>
</a>
</g>
</g>
<!-- Node6&#45;&gt;Node5 -->
<g id="edge5" class="edge">
<title>Node6&#45;&gt;Node5</title>
<path fill="none" stroke="#404040" d="M398,-718.4C398,-707.55 398,-694.87 398,-683.05"/>
<polygon fill="none" stroke="#404040" points="398,-682.68 394,-676.68 398,-670.68 402,-676.68 398,-682.68"/>
<text text-anchor="middle" x="410.5" y="-692" font-family="Helvetica,sans-Serif" font-size="10.00"> +ptr</text>
</g>
<!-- Node7&#45;&gt;Node2 -->
<g id="edge6" class="edge">
<title>Node7&#45;&gt;Node2</title>
<path fill="none" stroke="#404040" d="M312.14,-508.22C315.6,-495.78 320.08,-481 325,-468 325.89,-465.65 326.8,-463.29 327.73,-460.92"/>
<polygon fill="none" stroke="#404040" points="327.74,-460.89 326.25,-453.84 332.19,-449.75 333.68,-456.8 327.74,-460.89"/>
<text text-anchor="middle" x="388.5" y="-482" font-family="Helvetica,sans-Serif" font-size="10.00"> &#45;color_stereo_image_ptr_</text>
<text text-anchor="middle" x="388.5" y="-471" font-family="Helvetica,sans-Serif" font-size="10.00">&#45;gray_stereo_image_ptr_</text>
</g>
<!-- Node8 -->
<g id="node8" class="node">
<title>Node8</title>
<g id="a_node8"><a xlink:title=" ">
<polygon fill="white" stroke="#bfbfbf" points="776.5,-508.5 776.5,-565.5 821.5,-565.5 821.5,-508.5 776.5,-508.5"/>
<text text-anchor="middle" x="799" y="-553.5" font-family="Helvetica,sans-Serif" font-size="10.00">size_t</text>
<polyline fill="none" stroke="#bfbfbf" points="776.5,-546.5 821.5,-546.5 "/>
<text text-anchor="middle" x="799" y="-534.5" font-family="Helvetica,sans-Serif" font-size="10.00"> </text>
<polyline fill="none" stroke="#bfbfbf" points="776.5,-527.5 821.5,-527.5 "/>
<text text-anchor="middle" x="799" y="-515.5" font-family="Helvetica,sans-Serif" font-size="10.00"> </text>
</a>
</g>
</g>
<!-- Node8&#45;&gt;Node2 -->
<g id="edge8" class="edge">
<title>Node8&#45;&gt;Node2</title>
<path fill="none" stroke="#404040" d="M776.45,-515.15C773.36,-512.63 770.16,-510.18 767,-508 721.65,-476.74 670.74,-446.78 621.56,-420.1"/>
<polygon fill="none" stroke="#404040" points="621.33,-419.98 614.15,-420.65 610.77,-414.28 617.95,-413.61 621.33,-419.98"/>
<text text-anchor="middle" x="777.5" y="-482" font-family="Helvetica,sans-Serif" font-size="10.00"> &#45;current_index_</text>
<text text-anchor="middle" x="777.5" y="-471" font-family="Helvetica,sans-Serif" font-size="10.00">&#45;size_</text>
</g>
<!-- Node9&#45;&gt;Node2 -->
<g id="edge9" class="edge">
<title>Node9&#45;&gt;Node2</title>
<path fill="none" stroke="#404040" d="M481.16,-508.08C475.68,-495.17 468.71,-478.73 461.15,-460.89"/>
<polygon fill="none" stroke="#404040" points="461.05,-460.67 455.03,-456.71 456.37,-449.62 462.39,-453.58 461.05,-460.67"/>
<text text-anchor="middle" x="504" y="-476.5" font-family="Helvetica,sans-Serif" font-size="10.00"> &#45;calibration_</text>
</g>
<!-- Node10&#45;&gt;Node2 -->
<g id="edge11" class="edge">
<title>Node10&#45;&gt;Node2</title>
<path fill="none" stroke="#404040" d="M641.63,-508.31C624.51,-494.51 602.36,-476.67 578.41,-457.37"/>
<polygon fill="none" stroke="#404040" points="578.13,-457.14 570.95,-456.49 568.78,-449.61 575.96,-450.26 578.13,-457.14"/>
<text text-anchor="middle" x="649.5" y="-476.5" font-family="Helvetica,sans-Serif" font-size="10.00"> &#45;point_cloud_</text>
</g>
</g>
</svg>
