<?xml version="1.0" encoding="UTF-8" standalone="no"?>
<!DOCTYPE svg PUBLIC "-//W3C//DTD SVG 1.1//EN"
 "http://www.w3.org/Graphics/SVG/1.1/DTD/svg11.dtd">
<!-- Generated by graphviz version 2.43.0 (0)
 -->
<!-- Title: ad_framework::application::ControlPannel::Impl Pages: 1 -->
<svg width="380pt" height="469pt"
 viewBox="0.00 0.00 379.50 469.00" xmlns="http://www.w3.org/2000/svg" xmlns:xlink="http://www.w3.org/1999/xlink">
<g id="graph0" class="graph" transform="scale(1 1) rotate(0) translate(4 465)">
<title>ad_framework::application::ControlPannel::Impl</title>
<polygon fill="white" stroke="transparent" points="-4,4 -4,-465 375.5,-465 375.5,4 -4,4"/>
<!-- Node1 -->
<g id="node1" class="node">
<title>Node1</title>
<g id="a_node1"><a xlink:title=" ">
<polygon fill="#bfbfbf" stroke="black" points="15,-0.5 15,-145.5 290,-145.5 290,-0.5 15,-0.5"/>
<text text-anchor="middle" x="152.5" y="-133.5" font-family="Helvetica,sans-Serif" font-size="10.00">ad_framework::application::ControlPannel::Impl</text>
<polyline fill="none" stroke="black" points="15,-126.5 290,-126.5 "/>
<text text-anchor="middle" x="152.5" y="-114.5" font-family="Helvetica,sans-Serif" font-size="10.00"> </text>
<polyline fill="none" stroke="black" points="15,-107.5 290,-107.5 "/>
<text text-anchor="start" x="23" y="-95.5" font-family="Helvetica,sans-Serif" font-size="10.00">+ Impl()=default</text>
<text text-anchor="start" x="23" y="-84.5" font-family="Helvetica,sans-Serif" font-size="10.00">+ ~Impl()=default</text>
<text text-anchor="start" x="23" y="-73.5" font-family="Helvetica,sans-Serif" font-size="10.00">+ void SelectType(size_t type)</text>
<text text-anchor="start" x="23" y="-62.5" font-family="Helvetica,sans-Serif" font-size="10.00">+ void SelectSequence(size_t index)</text>
<text text-anchor="start" x="23" y="-51.5" font-family="Helvetica,sans-Serif" font-size="10.00">+ const char *const * GetDatasetList() const</text>
<text text-anchor="start" x="23" y="-40.5" font-family="Helvetica,sans-Serif" font-size="10.00">+ int GetDatasetListSize() const</text>
<text text-anchor="start" x="23" y="-29.5" font-family="Helvetica,sans-Serif" font-size="10.00">+ bool IsSequenceListEmpty() const</text>
<text text-anchor="start" x="23" y="-18.5" font-family="Helvetica,sans-Serif" font-size="10.00">+ int GetSequenceListSize() const</text>
<text text-anchor="start" x="23" y="-7.5" font-family="Helvetica,sans-Serif" font-size="10.00">+ void SetDataLoader(DataLoaderPtr dataloader_ptr)</text>
</a>
</g>
</g>
<!-- Node2 -->
<g id="node2" class="node">
<title>Node2</title>
<g id="a_node2"><a xlink:title=" ">
<polygon fill="white" stroke="#bfbfbf" points="0,-193.5 0,-250.5 305,-250.5 305,-193.5 0,-193.5"/>
<text text-anchor="middle" x="152.5" y="-238.5" font-family="Helvetica,sans-Serif" font-size="10.00">std::shared_ptr&lt; ad_framework::application::DataLoader &gt;</text>
<polyline fill="none" stroke="#bfbfbf" points="0,-231.5 305,-231.5 "/>
<text text-anchor="start" x="8" y="-219.5" font-family="Helvetica,sans-Serif" font-size="10.00">+ ad_framework::application::DataLoader ptr</text>
<polyline fill="none" stroke="#bfbfbf" points="0,-212.5 305,-212.5 "/>
<text text-anchor="start" x="8" y="-200.5" font-family="Helvetica,sans-Serif" font-size="10.00">+ ad_framework::application::DataLoader * operator&#45;&gt;()</text>
</a>
</g>
</g>
<!-- Node2&#45;&gt;Node1 -->
<g id="edge1" class="edge">
<title>Node2&#45;&gt;Node1</title>
<path fill="none" stroke="#404040" d="M152.5,-193.35C152.5,-183.01 152.5,-170.66 152.5,-157.89"/>
<polygon fill="none" stroke="#404040" points="152.5,-157.56 148.5,-151.56 152.5,-145.56 156.5,-151.56 152.5,-157.56"/>
<text text-anchor="middle" x="194.5" y="-167" font-family="Helvetica,sans-Serif" font-size="10.00"> &#45;dataloader_ptr_</text>
</g>
<!-- Node3 -->
<g id="node3" class="node">
<title>Node3</title>
<g id="a_node3"><a xlink:title=" ">
<polygon fill="white" stroke="#bfbfbf" points="93.5,-298.5 93.5,-355.5 211.5,-355.5 211.5,-298.5 93.5,-298.5"/>
<text text-anchor="middle" x="152.5" y="-343.5" font-family="Helvetica,sans-Serif" font-size="10.00">std::shared_ptr&lt; T &gt;</text>
<polyline fill="none" stroke="#bfbfbf" points="93.5,-336.5 211.5,-336.5 "/>
<text text-anchor="middle" x="152.5" y="-324.5" font-family="Helvetica,sans-Serif" font-size="10.00"> </text>
<polyline fill="none" stroke="#bfbfbf" points="93.5,-317.5 211.5,-317.5 "/>
<text text-anchor="start" x="101.5" y="-305.5" font-family="Helvetica,sans-Serif" font-size="10.00">+ T * operator&#45;&gt;()</text>
</a>
</g>
</g>
<!-- Node3&#45;&gt;Node2 -->
<g id="edge2" class="edge">
<title>Node3&#45;&gt;Node2</title>
<path fill="none" stroke="orange" d="M152.5,-288.29C152.5,-275.84 152.5,-262.23 152.5,-250.68"/>
<polygon fill="orange" stroke="orange" points="149,-288.4 152.5,-298.4 156,-288.4 149,-288.4"/>
<text text-anchor="middle" x="262" y="-272" font-family="Helvetica,sans-Serif" font-size="10.00"> &lt; ad_framework::application::DataLoader &gt;</text>
</g>
<!-- Node4 -->
<g id="node4" class="node">
<title>Node4</title>
<g id="a_node4"><a xlink:title=" ">
<polygon fill="white" stroke="#bfbfbf" points="138,-403.5 138,-460.5 167,-460.5 167,-403.5 138,-403.5"/>
<text text-anchor="middle" x="152.5" y="-448.5" font-family="Helvetica,sans-Serif" font-size="10.00">T</text>
<polyline fill="none" stroke="#bfbfbf" points="138,-441.5 167,-441.5 "/>
<text text-anchor="middle" x="152.5" y="-429.5" font-family="Helvetica,sans-Serif" font-size="10.00"> </text>
<polyline fill="none" stroke="#bfbfbf" points="138,-422.5 167,-422.5 "/>
<text text-anchor="middle" x="152.5" y="-410.5" font-family="Helvetica,sans-Serif" font-size="10.00"> </text>
</a>
</g>
</g>
<!-- Node4&#45;&gt;Node3 -->
<g id="edge3" class="edge">
<title>Node4&#45;&gt;Node3</title>
<path fill="none" stroke="#404040" d="M152.5,-403.4C152.5,-392.55 152.5,-379.87 152.5,-368.05"/>
<polygon fill="none" stroke="#404040" points="152.5,-367.68 148.5,-361.68 152.5,-355.68 156.5,-361.68 152.5,-367.68"/>
<text text-anchor="middle" x="165" y="-377" font-family="Helvetica,sans-Serif" font-size="10.00"> +ptr</text>
</g>
</g>
</svg>
