<?xml version="1.0" encoding="UTF-8" standalone="no"?>
<!DOCTYPE svg PUBLIC "-//W3C//DTD SVG 1.1//EN"
 "http://www.w3.org/Graphics/SVG/1.1/DTD/svg11.dtd">
<!-- Generated by graphviz version 2.43.0 (0)
 -->
<!-- Title: ad_framework::application::UserInterface::UpdateDataReader Pages: 1 -->
<svg width="990pt" height="28pt"
 viewBox="0.00 0.00 990.00 28.00" xmlns="http://www.w3.org/2000/svg" xmlns:xlink="http://www.w3.org/1999/xlink">
<g id="graph0" class="graph" transform="scale(1 1) rotate(0) translate(4 24)">
<title>ad_framework::application::UserInterface::UpdateDataReader</title>
<polygon fill="white" stroke="transparent" points="-4,4 -4,-24 986,-24 986,4 -4,4"/>
<!-- Node1 -->
<g id="node1" class="node">
<title>Node1</title>
<g id="a_node1"><a xlink:title=" ">
<polygon fill="#bfbfbf" stroke="black" points="664,-0.5 664,-19.5 982,-19.5 982,-0.5 664,-0.5"/>
<text text-anchor="middle" x="823" y="-7.5" font-family="Helvetica,sans-Serif" font-size="10.00">ad_framework::application::UserInterface::UpdateDataReader</text>
</a>
</g>
</g>
<!-- Node2 -->
<g id="node2" class="node">
<title>Node2</title>
<g id="a_node2"><a xlink:href="classad__framework_1_1application_1_1UserInterface.html#a95aec93006c0a8a8652ff20f6ab63b69" target="_top" xlink:title=" ">
<polygon fill="white" stroke="black" points="365,-0.5 365,-19.5 628,-19.5 628,-0.5 365,-0.5"/>
<text text-anchor="middle" x="496.5" y="-7.5" font-family="Helvetica,sans-Serif" font-size="10.00">ad_framework::application::UserInterface::Execute</text>
</a>
</g>
</g>
<!-- Node1&#45;&gt;Node2 -->
<g id="edge1" class="edge">
<title>Node1&#45;&gt;Node2</title>
<path fill="none" stroke="midnightblue" d="M653.51,-10C644.95,-10 636.42,-10 628.01,-10"/>
<polygon fill="midnightblue" stroke="midnightblue" points="653.55,-13.5 663.55,-10 653.55,-6.5 653.55,-13.5"/>
</g>
<!-- Node3 -->
<g id="node3" class="node">
<title>Node3</title>
<g id="a_node3"><a xlink:href="classad__framework_1_1application_1_1Application.html#a628121d5f80684a330360ad502114fc4" target="_top" xlink:title=" ">
<polygon fill="white" stroke="black" points="77,-0.5 77,-19.5 329,-19.5 329,-0.5 77,-0.5"/>
<text text-anchor="middle" x="203" y="-7.5" font-family="Helvetica,sans-Serif" font-size="10.00">ad_framework::application::Application::Execute</text>
</a>
</g>
</g>
<!-- Node2&#45;&gt;Node3 -->
<g id="edge2" class="edge">
<title>Node2&#45;&gt;Node3</title>
<path fill="none" stroke="midnightblue" d="M354.41,-10C345.98,-10 337.53,-10 329.17,-10"/>
<polygon fill="midnightblue" stroke="midnightblue" points="354.67,-13.5 364.67,-10 354.67,-6.5 354.67,-13.5"/>
</g>
<!-- Node4 -->
<g id="node4" class="node">
<title>Node4</title>
<g id="a_node4"><a xlink:href="app_2main_8cpp.html#ae66f6b31b5ad750f1fe042a706a4e3d4" target="_top" xlink:title=" ">
<polygon fill="white" stroke="black" points="0,-0.5 0,-19.5 41,-19.5 41,-0.5 0,-0.5"/>
<text text-anchor="middle" x="20.5" y="-7.5" font-family="Helvetica,sans-Serif" font-size="10.00">main</text>
</a>
</g>
</g>
<!-- Node3&#45;&gt;Node4 -->
<g id="edge3" class="edge">
<title>Node3&#45;&gt;Node4</title>
<path fill="none" stroke="midnightblue" d="M66.4,-10C56.87,-10 48.25,-10 41.17,-10"/>
<polygon fill="midnightblue" stroke="midnightblue" points="66.64,-13.5 76.64,-10 66.64,-6.5 66.64,-13.5"/>
</g>
</g>
</svg>
