<?xml version="1.0" encoding="UTF-8" standalone="no"?>
<!DOCTYPE svg PUBLIC "-//W3C//DTD SVG 1.1//EN"
 "http://www.w3.org/Graphics/SVG/1.1/DTD/svg11.dtd">
<!-- Generated by graphviz version 2.43.0 (0)
 -->
<!-- Title: ad_framework::KittiDataReader::ReadGrayImage Pages: 1 -->
<svg width="515pt" height="66pt"
 viewBox="0.00 0.00 515.00 66.00" xmlns="http://www.w3.org/2000/svg" xmlns:xlink="http://www.w3.org/1999/xlink">
<g id="graph0" class="graph" transform="scale(1 1) rotate(0) translate(4 62)">
<title>ad_framework::KittiDataReader::ReadGrayImage</title>
<polygon fill="white" stroke="transparent" points="-4,4 -4,-62 511,-62 511,4 -4,4"/>
<!-- Node1 -->
<g id="node1" class="node">
<title>Node1</title>
<g id="a_node1"><a xlink:title=" ">
<polygon fill="#bfbfbf" stroke="black" points="0,-19.5 0,-38.5 256,-38.5 256,-19.5 0,-19.5"/>
<text text-anchor="middle" x="128" y="-26.5" font-family="Helvetica,sans-Serif" font-size="10.00">ad_framework::KittiDataReader::ReadGrayImage</text>
</a>
</g>
</g>
<!-- Node2 -->
<g id="node2" class="node">
<title>Node2</title>
<g id="a_node2"><a xlink:href="classad__framework_1_1Image.html#ad75bed2f079cd1269e845eb49fbb2245" target="_top" xlink:title=" ">
<polygon fill="white" stroke="black" points="301,-38.5 301,-57.5 498,-57.5 498,-38.5 301,-38.5"/>
<text text-anchor="middle" x="399.5" y="-45.5" font-family="Helvetica,sans-Serif" font-size="10.00">ad_framework::Image::ReadFromFile</text>
</a>
</g>
</g>
<!-- Node1&#45;&gt;Node2 -->
<g id="edge1" class="edge">
<title>Node1&#45;&gt;Node2</title>
<path fill="none" stroke="midnightblue" d="M256.25,-37.97C267.73,-38.78 279.28,-39.59 290.57,-40.39"/>
<polygon fill="midnightblue" stroke="midnightblue" points="290.63,-43.9 300.85,-41.12 291.13,-36.92 290.63,-43.9"/>
</g>
<!-- Node3 -->
<g id="node3" class="node">
<title>Node3</title>
<g id="a_node3"><a xlink:href="namespacead__framework.html#a95f1c9b148110c6c0ba58f27e01468d7" target="_top" xlink:title=" ">
<polygon fill="white" stroke="black" points="292,-0.5 292,-19.5 507,-19.5 507,-0.5 292,-0.5"/>
<text text-anchor="middle" x="399.5" y="-7.5" font-family="Helvetica,sans-Serif" font-size="10.00">ad_framework::ToStringWithZeroPadding</text>
</a>
</g>
</g>
<!-- Node1&#45;&gt;Node3 -->
<g id="edge2" class="edge">
<title>Node1&#45;&gt;Node3</title>
<path fill="none" stroke="midnightblue" d="M256.25,-20.03C264.68,-19.43 273.15,-18.84 281.53,-18.25"/>
<polygon fill="midnightblue" stroke="midnightblue" points="281.96,-21.73 291.69,-17.53 281.47,-14.74 281.96,-21.73"/>
</g>
</g>
</svg>
