<?xml version="1.0" encoding="UTF-8" standalone="no"?>
<!DOCTYPE svg PUBLIC "-//W3C//DTD SVG 1.1//EN"
 "http://www.w3.org/Graphics/SVG/1.1/DTD/svg11.dtd">
<!-- Generated by graphviz version 2.43.0 (0)
 -->
<!-- Title: ad_framework::data_structure::Circle Pages: 1 -->
<svg width="535pt" height="342pt"
 viewBox="0.00 0.00 535.00 342.00" xmlns="http://www.w3.org/2000/svg" xmlns:xlink="http://www.w3.org/1999/xlink">
<g id="graph0" class="graph" transform="scale(1 1) rotate(0) translate(4 338)">
<title>ad_framework::data_structure::Circle</title>
<polygon fill="white" stroke="transparent" points="-4,4 -4,-338 531,-338 531,4 -4,4"/>
<!-- Node1 -->
<g id="node1" class="node">
<title>Node1</title>
<g id="a_node1"><a xlink:title=" ">
<polygon fill="#bfbfbf" stroke="black" points="138,-0.5 138,-79.5 428,-79.5 428,-0.5 138,-0.5"/>
<text text-anchor="middle" x="283" y="-67.5" font-family="Helvetica,sans-Serif" font-size="10.00">ad_framework::data_structure::Circle</text>
<polyline fill="none" stroke="black" points="138,-60.5 428,-60.5 "/>
<text text-anchor="middle" x="283" y="-48.5" font-family="Helvetica,sans-Serif" font-size="10.00"> </text>
<polyline fill="none" stroke="black" points="138,-41.5 428,-41.5 "/>
<text text-anchor="start" x="146" y="-29.5" font-family="Helvetica,sans-Serif" font-size="10.00">+ Circle(const Eigen::Vector3d &amp;center, double radius)</text>
<text text-anchor="start" x="146" y="-18.5" font-family="Helvetica,sans-Serif" font-size="10.00">+ bool IsIn(const Eigen::Vector3d &amp;point) const override</text>
<text text-anchor="start" x="146" y="-7.5" font-family="Helvetica,sans-Serif" font-size="10.00">+ std::string ToString() const override</text>
</a>
</g>
</g>
<!-- Node2 -->
<g id="node2" class="node">
<title>Node2</title>
<g id="a_node2"><a xlink:href="classad__framework_1_1data__structure_1_1Shape.html" target="_top" xlink:title=" ">
<polygon fill="white" stroke="black" points="0,-243.5 0,-333.5 298,-333.5 298,-243.5 0,-243.5"/>
<text text-anchor="middle" x="149" y="-321.5" font-family="Helvetica,sans-Serif" font-size="10.00">ad_framework::data_structure::Shape</text>
<polyline fill="none" stroke="black" points="0,-314.5 298,-314.5 "/>
<text text-anchor="middle" x="149" y="-302.5" font-family="Helvetica,sans-Serif" font-size="10.00"> </text>
<polyline fill="none" stroke="black" points="0,-295.5 298,-295.5 "/>
<text text-anchor="start" x="8" y="-283.5" font-family="Helvetica,sans-Serif" font-size="10.00">+ virtual ~Shape()=default</text>
<text text-anchor="start" x="8" y="-272.5" font-family="Helvetica,sans-Serif" font-size="10.00">+ virtual bool IsIn(const Eigen::Vector3d &amp;point) const =0</text>
<text text-anchor="start" x="8" y="-261.5" font-family="Helvetica,sans-Serif" font-size="10.00">+ virtual std::string ToString() const =0</text>
<text text-anchor="start" x="8" y="-250.5" font-family="Helvetica,sans-Serif" font-size="10.00">+ virtual ~Shape()=default</text>
</a>
</g>
</g>
<!-- Node2&#45;&gt;Node1 -->
<g id="edge1" class="edge">
<title>Node2&#45;&gt;Node1</title>
<path fill="none" stroke="midnightblue" d="M142.91,-233.27C144.83,-203.56 151.87,-167.01 168,-138 180.42,-115.65 199.89,-95.65 219.35,-79.7"/>
<polygon fill="none" stroke="midnightblue" points="139.4,-233.31 142.43,-243.47 146.39,-233.64 139.4,-233.31"/>
</g>
<!-- Node2&#45;&gt;Node1 -->
<g id="edge2" class="edge">
<title>Node2&#45;&gt;Node1</title>
<path fill="none" stroke="midnightblue" d="M158.78,-233.27C162.83,-203.56 169.87,-167.01 186,-138 198.42,-115.65 217.89,-95.65 236.2,-79.7"/>
<polygon fill="none" stroke="midnightblue" points="155.27,-233.1 157.46,-243.47 162.21,-234 155.27,-233.1"/>
</g>
<!-- Node4 -->
<g id="node4" class="node">
<title>Node4</title>
<g id="a_node4"><a xlink:href="structad__framework_1_1data__structure_1_1Point.html" target="_top" xlink:title=" ">
<polygon fill="white" stroke="black" points="186,-138.5 186,-195.5 380,-195.5 380,-138.5 186,-138.5"/>
<text text-anchor="middle" x="283" y="-183.5" font-family="Helvetica,sans-Serif" font-size="10.00">ad_framework::data_structure::Point</text>
<polyline fill="none" stroke="black" points="186,-176.5 380,-176.5 "/>
<text text-anchor="middle" x="283" y="-164.5" font-family="Helvetica,sans-Serif" font-size="10.00"> </text>
<polyline fill="none" stroke="black" points="186,-157.5 380,-157.5 "/>
<text text-anchor="middle" x="283" y="-145.5" font-family="Helvetica,sans-Serif" font-size="10.00"> </text>
</a>
</g>
</g>
<!-- Node2&#45;&gt;Node4 -->
<g id="edge5" class="edge">
<title>Node2&#45;&gt;Node4</title>
<path fill="none" stroke="midnightblue" d="M206.16,-236.53C221.87,-222.52 238.32,-207.84 251.95,-195.69"/>
<polygon fill="none" stroke="midnightblue" points="203.65,-234.07 198.52,-243.34 208.31,-239.3 203.65,-234.07"/>
</g>
<!-- Node3 -->
<g id="node3" class="node">
<title>Node3</title>
<g id="a_node3"><a xlink:title=" ">
<polygon fill="white" stroke="#bfbfbf" points="477,-138.5 477,-195.5 527,-195.5 527,-138.5 477,-138.5"/>
<text text-anchor="middle" x="502" y="-183.5" font-family="Helvetica,sans-Serif" font-size="10.00">double</text>
<polyline fill="none" stroke="#bfbfbf" points="477,-176.5 527,-176.5 "/>
<text text-anchor="middle" x="502" y="-164.5" font-family="Helvetica,sans-Serif" font-size="10.00"> </text>
<polyline fill="none" stroke="#bfbfbf" points="477,-157.5 527,-157.5 "/>
<text text-anchor="middle" x="502" y="-145.5" font-family="Helvetica,sans-Serif" font-size="10.00"> </text>
</a>
</g>
</g>
<!-- Node3&#45;&gt;Node1 -->
<g id="edge3" class="edge">
<title>Node3&#45;&gt;Node1</title>
<path fill="none" stroke="#404040" d="M477.72,-138.48C464.64,-124.91 447.59,-109.11 430,-98 422.68,-93.38 414.93,-89.03 406.96,-84.95"/>
<polygon fill="none" stroke="#404040" points="406.75,-84.85 399.6,-85.8 395.98,-79.57 403.12,-78.62 406.75,-84.85"/>
<text text-anchor="middle" x="478" y="-112" font-family="Helvetica,sans-Serif" font-size="10.00"> +radius</text>
<text text-anchor="middle" x="478" y="-101" font-family="Helvetica,sans-Serif" font-size="10.00">&#45;radius_</text>
</g>
<!-- Node4&#45;&gt;Node1 -->
<g id="edge4" class="edge">
<title>Node4&#45;&gt;Node1</title>
<path fill="none" stroke="#404040" d="M283,-138.26C283,-124.64 283,-107.79 283,-91.96"/>
<polygon fill="none" stroke="#404040" points="283,-91.57 279,-85.57 283,-79.57 287,-85.57 283,-91.57"/>
<text text-anchor="middle" x="304.5" y="-106.5" font-family="Helvetica,sans-Serif" font-size="10.00"> +center</text>
</g>
<!-- Node5 -->
<g id="node5" class="node">
<title>Node5</title>
<g id="a_node5"><a xlink:title=" ">
<polygon fill="white" stroke="#bfbfbf" points="351.5,-260 351.5,-317 410.5,-317 410.5,-260 351.5,-260"/>
<text text-anchor="middle" x="381" y="-305" font-family="Helvetica,sans-Serif" font-size="10.00">Vector3d</text>
<polyline fill="none" stroke="#bfbfbf" points="351.5,-298 410.5,-298 "/>
<text text-anchor="middle" x="381" y="-286" font-family="Helvetica,sans-Serif" font-size="10.00"> </text>
<polyline fill="none" stroke="#bfbfbf" points="351.5,-279 410.5,-279 "/>
<text text-anchor="middle" x="381" y="-267" font-family="Helvetica,sans-Serif" font-size="10.00"> </text>
</a>
</g>
</g>
<!-- Node5&#45;&gt;Node1 -->
<g id="edge7" class="edge">
<title>Node5&#45;&gt;Node1</title>
<path fill="none" stroke="#404040" d="M389.65,-259.98C397.81,-228.93 406.44,-177.61 389,-138 380.6,-118.92 366.38,-101.95 351.04,-87.76"/>
<polygon fill="none" stroke="#404040" points="350.92,-87.66 343.77,-86.7 341.91,-79.73 349.06,-80.69 350.92,-87.66"/>
<text text-anchor="middle" x="420.5" y="-164.5" font-family="Helvetica,sans-Serif" font-size="10.00"> &#45;center_</text>
</g>
<!-- Node5&#45;&gt;Node4 -->
<g id="edge6" class="edge">
<title>Node5&#45;&gt;Node4</title>
<path fill="none" stroke="#404040" d="M358.27,-259.78C344.91,-243.49 327.86,-222.7 313.36,-205.02"/>
<polygon fill="none" stroke="#404040" points="313.22,-204.84 306.32,-202.74 305.61,-195.57 312.5,-197.67 313.22,-204.84"/>
<text text-anchor="middle" x="348.5" y="-217" font-family="Helvetica,sans-Serif" font-size="10.00"> +point</text>
</g>
</g>
</svg>
