<?xml version="1.0" encoding="UTF-8" standalone="no"?>
<!DOCTYPE svg PUBLIC "-//W3C//DTD SVG 1.1//EN"
 "http://www.w3.org/Graphics/SVG/1.1/DTD/svg11.dtd">
<!-- Generated by graphviz version 2.43.0 (0)
 -->
<!-- Title: ad_framwork::data_structure::KdTree::Insert Pages: 1 -->
<svg width="504pt" height="66pt"
 viewBox="0.00 0.00 504.00 66.00" xmlns="http://www.w3.org/2000/svg" xmlns:xlink="http://www.w3.org/1999/xlink">
<g id="graph0" class="graph" transform="scale(1 1) rotate(0) translate(4 62)">
<title>ad_framwork::data_structure::KdTree::Insert</title>
<polygon fill="white" stroke="transparent" points="-4,4 -4,-62 500,-62 500,4 -4,4"/>
<!-- Node1 -->
<g id="node1" class="node">
<title>Node1</title>
<g id="a_node1"><a xlink:title=" ">
<polygon fill="#bfbfbf" stroke="black" points="266,-19.5 266,-38.5 496,-38.5 496,-19.5 266,-19.5"/>
<text text-anchor="middle" x="381" y="-26.5" font-family="Helvetica,sans-Serif" font-size="10.00">ad_framwork::data_structure::KdTree::Insert</text>
</a>
</g>
</g>
<!-- Node2 -->
<g id="node2" class="node">
<title>Node2</title>
<g id="a_node2"><a xlink:href="classad__framwork_1_1data__structure_1_1KdTree.html#a3cb9828a6162718cdf38022bcd7ddcc2" target="_top" xlink:title=" ">
<polygon fill="white" stroke="black" points="0,-38.5 0,-57.5 230,-57.5 230,-38.5 0,-38.5"/>
<text text-anchor="middle" x="115" y="-45.5" font-family="Helvetica,sans-Serif" font-size="10.00">ad_framwork::data_structure::KdTree::Insert</text>
</a>
</g>
</g>
<!-- Node1&#45;&gt;Node2 -->
<g id="edge1" class="edge">
<title>Node1&#45;&gt;Node2</title>
<path fill="none" stroke="midnightblue" d="M255.71,-37.95C247.14,-38.56 238.53,-39.18 230.01,-39.79"/>
<polygon fill="midnightblue" stroke="midnightblue" points="256.02,-41.43 265.74,-37.22 255.52,-34.45 256.02,-41.43"/>
</g>
<!-- Node3 -->
<g id="node3" class="node">
<title>Node3</title>
<g id="a_node3"><a xlink:href="namespacead__framwork_1_1data__structure.html#a801be1634a9677966a71d88fe5a94bdd" target="_top" xlink:title=" ">
<polygon fill="white" stroke="black" points="21,-0.5 21,-19.5 209,-19.5 209,-0.5 21,-0.5"/>
<text text-anchor="middle" x="115" y="-7.5" font-family="Helvetica,sans-Serif" font-size="10.00">ad_framwork::data_structure::TEST</text>
</a>
</g>
</g>
<!-- Node1&#45;&gt;Node3 -->
<g id="edge2" class="edge">
<title>Node1&#45;&gt;Node3</title>
<path fill="none" stroke="midnightblue" d="M255.56,-20.04C240.03,-18.93 224.35,-17.8 209.4,-16.72"/>
<polygon fill="midnightblue" stroke="midnightblue" points="255.52,-23.55 265.74,-20.78 256.02,-16.57 255.52,-23.55"/>
</g>
</g>
</svg>
