<?xml version="1.0" encoding="UTF-8" standalone="no"?>
<!DOCTYPE svg PUBLIC "-//W3C//DTD SVG 1.1//EN"
 "http://www.w3.org/Graphics/SVG/1.1/DTD/svg11.dtd">
<!-- Generated by graphviz version 2.43.0 (0)
 -->
<!-- Title: ad_framework::KittiDataReader::ReadColorStereoImage Pages: 1 -->
<svg width="549pt" height="66pt"
 viewBox="0.00 0.00 549.00 66.00" xmlns="http://www.w3.org/2000/svg" xmlns:xlink="http://www.w3.org/1999/xlink">
<g id="graph0" class="graph" transform="scale(1 1) rotate(0) translate(4 62)">
<title>ad_framework::KittiDataReader::ReadColorStereoImage</title>
<polygon fill="white" stroke="transparent" points="-4,4 -4,-62 545,-62 545,4 -4,4"/>
<!-- Node1 -->
<g id="node1" class="node">
<title>Node1</title>
<g id="a_node1"><a xlink:title=" ">
<polygon fill="#bfbfbf" stroke="black" points="0,-19.5 0,-38.5 290,-38.5 290,-19.5 0,-19.5"/>
<text text-anchor="middle" x="145" y="-26.5" font-family="Helvetica,sans-Serif" font-size="10.00">ad_framework::KittiDataReader::ReadColorStereoImage</text>
</a>
</g>
</g>
<!-- Node2 -->
<g id="node2" class="node">
<title>Node2</title>
<g id="a_node2"><a xlink:href="classad__framework_1_1Image.html#ad75bed2f079cd1269e845eb49fbb2245" target="_top" xlink:title=" ">
<polygon fill="white" stroke="black" points="335,-38.5 335,-57.5 532,-57.5 532,-38.5 335,-38.5"/>
<text text-anchor="middle" x="433.5" y="-45.5" font-family="Helvetica,sans-Serif" font-size="10.00">ad_framework::Image::ReadFromFile</text>
</a>
</g>
</g>
<!-- Node1&#45;&gt;Node2 -->
<g id="edge1" class="edge">
<title>Node1&#45;&gt;Node2</title>
<path fill="none" stroke="midnightblue" d="M289.67,-38.53C301.32,-39.3 312.97,-40.07 324.31,-40.82"/>
<polygon fill="midnightblue" stroke="midnightblue" points="324.41,-44.34 334.62,-41.51 324.87,-37.35 324.41,-44.34"/>
</g>
<!-- Node3 -->
<g id="node3" class="node">
<title>Node3</title>
<g id="a_node3"><a xlink:href="namespacead__framework.html#a95f1c9b148110c6c0ba58f27e01468d7" target="_top" xlink:title=" ">
<polygon fill="white" stroke="black" points="326,-0.5 326,-19.5 541,-19.5 541,-0.5 326,-0.5"/>
<text text-anchor="middle" x="433.5" y="-7.5" font-family="Helvetica,sans-Serif" font-size="10.00">ad_framework::ToStringWithZeroPadding</text>
</a>
</g>
</g>
<!-- Node1&#45;&gt;Node3 -->
<g id="edge2" class="edge">
<title>Node1&#45;&gt;Node3</title>
<path fill="none" stroke="midnightblue" d="M289.67,-19.47C298.4,-18.89 307.13,-18.31 315.73,-17.74"/>
<polygon fill="midnightblue" stroke="midnightblue" points="316,-21.23 325.75,-17.08 315.54,-14.25 316,-21.23"/>
</g>
</g>
</svg>
