<?xml version="1.0" encoding="UTF-8" standalone="no"?>
<!DOCTYPE svg PUBLIC "-//W3C//DTD SVG 1.1//EN"
 "http://www.w3.org/Graphics/SVG/1.1/DTD/svg11.dtd">
<!-- Generated by graphviz version 2.43.0 (0)
 -->
<!-- Title: ad_framework::ui::ImageViewer::ImageSender Pages: 1 -->
<svg width="281pt" height="204pt"
 viewBox="0.00 0.00 281.00 204.00" xmlns="http://www.w3.org/2000/svg" xmlns:xlink="http://www.w3.org/1999/xlink">
<g id="graph0" class="graph" transform="scale(1 1) rotate(0) translate(4 200)">
<title>ad_framework::ui::ImageViewer::ImageSender</title>
<polygon fill="white" stroke="transparent" points="-4,4 -4,-200 277,-200 277,4 -4,4"/>
<!-- Node1 -->
<g id="node1" class="node">
<title>Node1</title>
<g id="a_node1"><a xlink:title=" ">
<polygon fill="#bfbfbf" stroke="black" points="0,-0.5 0,-90.5 273,-90.5 273,-0.5 0,-0.5"/>
<text text-anchor="middle" x="136.5" y="-78.5" font-family="Helvetica,sans-Serif" font-size="10.00">ad_framework::ui::ImageViewer::ImageSender</text>
<polyline fill="none" stroke="black" points="0,-71.5 273,-71.5 "/>
<text text-anchor="start" x="8" y="-59.5" font-family="Helvetica,sans-Serif" font-size="10.00">&#45; std::string image_path_</text>
<text text-anchor="start" x="8" y="-48.5" font-family="Helvetica,sans-Serif" font-size="10.00">&#45; bool is_gray_</text>
<polyline fill="none" stroke="black" points="0,-41.5 273,-41.5 "/>
<text text-anchor="start" x="8" y="-29.5" font-family="Helvetica,sans-Serif" font-size="10.00">+ ImageSender(bool is_gray=true)</text>
<text text-anchor="start" x="8" y="-18.5" font-family="Helvetica,sans-Serif" font-size="10.00">+ std::any operator()(const std::any &amp;src) override</text>
<text text-anchor="start" x="8" y="-7.5" font-family="Helvetica,sans-Serif" font-size="10.00">+ void SetImagePath(const std::string &amp;image_path)</text>
</a>
</g>
</g>
<!-- Node2 -->
<g id="node2" class="node">
<title>Node2</title>
<g id="a_node2"><a xlink:href="structad__framework_1_1callback_1_1Callback.html" target="_top" xlink:title=" ">
<polygon fill="white" stroke="black" points="2.5,-127.5 2.5,-195.5 270.5,-195.5 270.5,-127.5 2.5,-127.5"/>
<text text-anchor="middle" x="136.5" y="-183.5" font-family="Helvetica,sans-Serif" font-size="10.00">ad_framework::callback::Callback</text>
<polyline fill="none" stroke="black" points="2.5,-176.5 270.5,-176.5 "/>
<text text-anchor="middle" x="136.5" y="-164.5" font-family="Helvetica,sans-Serif" font-size="10.00"> </text>
<polyline fill="none" stroke="black" points="2.5,-157.5 270.5,-157.5 "/>
<text text-anchor="start" x="10.5" y="-145.5" font-family="Helvetica,sans-Serif" font-size="10.00">+ virtual ~Callback()=default</text>
<text text-anchor="start" x="10.5" y="-134.5" font-family="Helvetica,sans-Serif" font-size="10.00">+ virtual std::any operator()(const std::any &amp;src)=0</text>
</a>
</g>
</g>
<!-- Node2&#45;&gt;Node1 -->
<g id="edge1" class="edge">
<title>Node2&#45;&gt;Node1</title>
<path fill="none" stroke="midnightblue" d="M136.5,-116.97C136.5,-108.35 136.5,-99.28 136.5,-90.64"/>
<polygon fill="none" stroke="midnightblue" points="133,-117.22 136.5,-127.22 140,-117.22 133,-117.22"/>
</g>
</g>
</svg>
