<?xml version="1.0" encoding="UTF-8" standalone="no"?>
<!DOCTYPE svg PUBLIC "-//W3C//DTD SVG 1.1//EN"
 "http://www.w3.org/Graphics/SVG/1.1/DTD/svg11.dtd">
<!-- Generated by graphviz version 2.43.0 (0)
 -->
<!-- Title: ad_framework::ui::Frame Pages: 1 -->
<!--zoomable 608 -->
<svg id="main" version="1.1" xmlns="http://www.w3.org/2000/svg" xmlns:xlink="http://www.w3.org/1999/xlink" xml:space="preserve" onload="init(evt)">
<style type="text/css"><![CDATA[
.edge:hover path { stroke: red; }
.edge:hover polygon { stroke: red; fill: red; }
]]></style>
<script type="text/javascript"><![CDATA[
var edges = document.getElementsByTagName('g');
if (edges && edges.length) {
  for (var i=0;i<edges.length;i++) {
    if (edges[i].id.substr(0,4)=='edge') {
      edges[i].setAttribute('class','edge');
    }
  }
}
]]></script>
        <defs>
                <circle id="rim" cx="0" cy="0" r="7"/>
                <circle id="rim2" cx="0" cy="0" r="3.5"/>
                <g id="zoomPlus">
                        <use xlink:href="#rim" fill="#404040">
                                <set attributeName="fill" to="#808080" begin="zoomplus.mouseover" end="zoomplus.mouseout"/>
                        </use>
                        <path d="M-4,0h8M0,-4v8" fill="none" stroke="white" stroke-width="1.5" pointer-events="none"/>
                </g>
                <g id="zoomMin">
                        <use xlink:href="#rim" fill="#404040">
                                <set attributeName="fill" to="#808080" begin="zoomminus.mouseover" end="zoomminus.mouseout"/>
                        </use>
                        <path d="M-4,0h8" fill="none" stroke="white" stroke-width="1.5" pointer-events="none"/>
                </g>
                <g id="dirArrow">
                        <path fill="none" stroke="white" stroke-width="1.5" d="M0,-3.0v7 M-2.5,-0.5L0,-3.0L2.5,-0.5"/>
                </g>
               <g id="resetDef">
                       <use xlink:href="#rim2" fill="#404040">
                               <set attributeName="fill" to="#808080" begin="reset.mouseover" end="reset.mouseout"/>
                       </use>
               </g>
        </defs>

<script type="text/javascript">
var viewWidth = 819;
var viewHeight = 608;
var sectionId = 'dynsection-1';
</script>
<script xlink:href="svgpan.js"/>
<svg id="graph" class="graph">
<g id="viewport">
<title>ad_framework::ui::Frame</title>
<polygon fill="white" stroke="transparent" points="-4,4 -4,-604 814.5,-604 814.5,4 -4,4"/>
<!-- Node1 -->
<g id="node1" class="node">
<title>Node1</title>
<g id="a_node1"><a xlink:title=" ">
<polygon fill="#bfbfbf" stroke="black" points="329.5,-0.5 329.5,-90.5 593.5,-90.5 593.5,-0.5 329.5,-0.5"/>
<text text-anchor="middle" x="461.5" y="-78.5" font-family="Helvetica,sans-Serif" font-size="10.00">ad_framework::ui::Frame</text>
<polyline fill="none" stroke="black" points="329.5,-71.5 593.5,-71.5 "/>
<text text-anchor="middle" x="461.5" y="-59.5" font-family="Helvetica,sans-Serif" font-size="10.00"> </text>
<polyline fill="none" stroke="black" points="329.5,-52.5 593.5,-52.5 "/>
<text text-anchor="start" x="337.5" y="-40.5" font-family="Helvetica,sans-Serif" font-size="10.00">+ Frame(std::string title, ImVec2 size, ImVec2 pos)</text>
<text text-anchor="start" x="337.5" y="-29.5" font-family="Helvetica,sans-Serif" font-size="10.00">+ Frame(std::string title)</text>
<text text-anchor="start" x="337.5" y="-18.5" font-family="Helvetica,sans-Serif" font-size="10.00">+ void operator()() override</text>
<text text-anchor="start" x="337.5" y="-7.5" font-family="Helvetica,sans-Serif" font-size="10.00">+ void AddUI(UserInterfacePtr ui)</text>
</a>
</g>
</g>
<!-- Node2 -->
<g id="node2" class="node">
<title>Node2</title>
<g id="a_node2"><a xlink:href="classad__framework_1_1ui_1_1UserInterface.html" target="_top" xlink:title=" ">
<polygon fill="white" stroke="black" points="69,-128.5 69,-273.5 488,-273.5 488,-128.5 69,-128.5"/>
<text text-anchor="middle" x="278.5" y="-261.5" font-family="Helvetica,sans-Serif" font-size="10.00">ad_framework::ui::UserInterface</text>
<polyline fill="none" stroke="black" points="69,-254.5 488,-254.5 "/>
<text text-anchor="middle" x="278.5" y="-242.5" font-family="Helvetica,sans-Serif" font-size="10.00"> </text>
<polyline fill="none" stroke="black" points="69,-235.5 488,-235.5 "/>
<text text-anchor="start" x="77" y="-223.5" font-family="Helvetica,sans-Serif" font-size="10.00">+ UserInterface(std::string title, ImVec2 size, ImVec2 pos, UserInterfacePtr parent)</text>
<text text-anchor="start" x="77" y="-212.5" font-family="Helvetica,sans-Serif" font-size="10.00">+ virtual ~UserInterface()=default</text>
<text text-anchor="start" x="77" y="-201.5" font-family="Helvetica,sans-Serif" font-size="10.00">+ virtual void operator()()=0</text>
<text text-anchor="start" x="77" y="-190.5" font-family="Helvetica,sans-Serif" font-size="10.00">+ std::string Title() const</text>
<text text-anchor="start" x="77" y="-179.5" font-family="Helvetica,sans-Serif" font-size="10.00">+ void Rename(std::string title)</text>
<text text-anchor="start" x="77" y="-168.5" font-family="Helvetica,sans-Serif" font-size="10.00">+ ImVec2 Size() const</text>
<text text-anchor="start" x="77" y="-157.5" font-family="Helvetica,sans-Serif" font-size="10.00">+ ImVec2 Pos() const</text>
<text text-anchor="start" x="77" y="-146.5" font-family="Helvetica,sans-Serif" font-size="10.00">+ void Resize(ImVec2 size)</text>
<text text-anchor="start" x="77" y="-135.5" font-family="Helvetica,sans-Serif" font-size="10.00">+ void Move(ImVec2 pos)</text>
</a>
</g>
</g>
<!-- Node2&#45;&gt;Node1 -->
<g id="edge1" class="edge">
<title>Node2&#45;&gt;Node1</title>
<path fill="none" stroke="midnightblue" d="M371.78,-121.76C384.53,-111.06 397.24,-100.4 408.92,-90.61"/>
<polygon fill="none" stroke="midnightblue" points="369.25,-119.31 363.84,-128.42 373.75,-124.67 369.25,-119.31"/>
</g>
<!-- Node3 -->
<g id="node3" class="node">
<title>Node3</title>
<g id="a_node3"><a xlink:title=" ">
<polygon fill="white" stroke="#bfbfbf" points="154,-332.5 154,-389.5 403,-389.5 403,-332.5 154,-332.5"/>
<text text-anchor="middle" x="278.5" y="-377.5" font-family="Helvetica,sans-Serif" font-size="10.00">std::enable_shared_from_this&lt; UserInterface &gt;</text>
<polyline fill="none" stroke="#bfbfbf" points="154,-370.5 403,-370.5 "/>
<text text-anchor="middle" x="278.5" y="-358.5" font-family="Helvetica,sans-Serif" font-size="10.00"> </text>
<polyline fill="none" stroke="#bfbfbf" points="154,-351.5 403,-351.5 "/>
<text text-anchor="middle" x="278.5" y="-339.5" font-family="Helvetica,sans-Serif" font-size="10.00"> </text>
</a>
</g>
</g>
<!-- Node3&#45;&gt;Node2 -->
<g id="edge2" class="edge">
<title>Node3&#45;&gt;Node2</title>
<path fill="none" stroke="midnightblue" d="M278.5,-322.34C278.5,-307.72 278.5,-290.47 278.5,-273.67"/>
<polygon fill="none" stroke="midnightblue" points="275,-322.48 278.5,-332.48 282,-322.48 275,-322.48"/>
</g>
<!-- Node4 -->
<g id="node4" class="node">
<title>Node4</title>
<g id="a_node4"><a xlink:title=" ">
<polygon fill="white" stroke="#bfbfbf" points="0,-332.5 0,-389.5 53,-389.5 53,-332.5 0,-332.5"/>
<text text-anchor="middle" x="26.5" y="-377.5" font-family="Helvetica,sans-Serif" font-size="10.00">ImVec2</text>
<polyline fill="none" stroke="#bfbfbf" points="0,-370.5 53,-370.5 "/>
<text text-anchor="middle" x="26.5" y="-358.5" font-family="Helvetica,sans-Serif" font-size="10.00"> </text>
<polyline fill="none" stroke="#bfbfbf" points="0,-351.5 53,-351.5 "/>
<text text-anchor="middle" x="26.5" y="-339.5" font-family="Helvetica,sans-Serif" font-size="10.00"> </text>
</a>
</g>
</g>
<!-- Node4&#45;&gt;Node2 -->
<g id="edge3" class="edge">
<title>Node4&#45;&gt;Node2</title>
<path fill="none" stroke="#404040" d="M53.08,-338.38C55.9,-336.19 58.74,-334.03 61.5,-332 85.84,-314.06 112.79,-296.36 139.18,-280.07"/>
<polygon fill="none" stroke="#404040" points="139.41,-279.93 142.44,-273.39 149.65,-273.67 146.62,-280.21 139.41,-279.93"/>
<text text-anchor="middle" x="133.5" y="-306" font-family="Helvetica,sans-Serif" font-size="10.00"> &#45;pos_</text>
<text text-anchor="middle" x="133.5" y="-295" font-family="Helvetica,sans-Serif" font-size="10.00">&#45;size_</text>
</g>
<!-- Node5 -->
<g id="node5" class="node">
<title>Node5</title>
<g id="a_node5"><a xlink:title=" ">
<polygon fill="white" stroke="#bfbfbf" points="421.5,-332.5 421.5,-389.5 599.5,-389.5 599.5,-332.5 421.5,-332.5"/>
<text text-anchor="middle" x="510.5" y="-377.5" font-family="Helvetica,sans-Serif" font-size="10.00">std::shared_ptr&lt; UserInterface &gt;</text>
<polyline fill="none" stroke="#bfbfbf" points="421.5,-370.5 599.5,-370.5 "/>
<text text-anchor="start" x="429.5" y="-358.5" font-family="Helvetica,sans-Serif" font-size="10.00">+ UserInterface ptr</text>
<polyline fill="none" stroke="#bfbfbf" points="421.5,-351.5 599.5,-351.5 "/>
<text text-anchor="start" x="429.5" y="-339.5" font-family="Helvetica,sans-Serif" font-size="10.00">+ UserInterface * operator&#45;&gt;()</text>
</a>
</g>
</g>
<!-- Node5&#45;&gt;Node2 -->
<g id="edge4" class="edge">
<title>Node5&#45;&gt;Node2</title>
<path fill="none" stroke="#404040" d="M470.09,-332.48C448.7,-317.91 421.23,-299.21 393.82,-280.54"/>
<polygon fill="none" stroke="#404040" points="393.65,-280.42 386.44,-280.35 383.73,-273.67 390.95,-273.74 393.65,-280.42"/>
<text text-anchor="middle" x="463.5" y="-300.5" font-family="Helvetica,sans-Serif" font-size="10.00"> &#45;parent_</text>
</g>
<!-- Node6 -->
<g id="node6" class="node">
<title>Node6</title>
<g id="a_node6"><a xlink:title=" ">
<polygon fill="white" stroke="#bfbfbf" points="521.5,-437.5 521.5,-494.5 639.5,-494.5 639.5,-437.5 521.5,-437.5"/>
<text text-anchor="middle" x="580.5" y="-482.5" font-family="Helvetica,sans-Serif" font-size="10.00">std::shared_ptr&lt; T &gt;</text>
<polyline fill="none" stroke="#bfbfbf" points="521.5,-475.5 639.5,-475.5 "/>
<text text-anchor="middle" x="580.5" y="-463.5" font-family="Helvetica,sans-Serif" font-size="10.00"> </text>
<polyline fill="none" stroke="#bfbfbf" points="521.5,-456.5 639.5,-456.5 "/>
<text text-anchor="start" x="529.5" y="-444.5" font-family="Helvetica,sans-Serif" font-size="10.00">+ T * operator&#45;&gt;()</text>
</a>
</g>
</g>
<!-- Node6&#45;&gt;Node5 -->
<g id="edge5" class="edge">
<title>Node6&#45;&gt;Node5</title>
<path fill="none" stroke="orange" d="M519.48,-430.2C516.41,-426.75 513.7,-423.02 511.5,-419 506.71,-410.23 505.54,-399.51 505.88,-389.74"/>
<polygon fill="orange" stroke="orange" points="517.13,-432.79 526.71,-437.31 522.04,-427.8 517.13,-432.79"/>
<text text-anchor="middle" x="557.5" y="-411" font-family="Helvetica,sans-Serif" font-size="10.00"> &lt; UserInterface &gt;</text>
</g>
<!-- Node10 -->
<g id="node10" class="node">
<title>Node10</title>
<g id="a_node10"><a xlink:title=" ">
<polygon fill="white" stroke="#bfbfbf" points="617.5,-332.5 617.5,-389.5 787.5,-389.5 787.5,-332.5 617.5,-332.5"/>
<text text-anchor="middle" x="702.5" y="-377.5" font-family="Helvetica,sans-Serif" font-size="10.00">std::vector&lt; UserInterfacePtr &gt;</text>
<polyline fill="none" stroke="#bfbfbf" points="617.5,-370.5 787.5,-370.5 "/>
<text text-anchor="middle" x="702.5" y="-358.5" font-family="Helvetica,sans-Serif" font-size="10.00"> </text>
<polyline fill="none" stroke="#bfbfbf" points="617.5,-351.5 787.5,-351.5 "/>
<text text-anchor="middle" x="702.5" y="-339.5" font-family="Helvetica,sans-Serif" font-size="10.00"> </text>
</a>
</g>
</g>
<!-- Node6&#45;&gt;Node10 -->
<g id="edge10" class="edge">
<title>Node6&#45;&gt;Node10</title>
<path fill="none" stroke="#404040" d="M608.79,-437.4C618.9,-427.85 630.51,-417.23 641.5,-408 645.84,-404.35 650.43,-400.64 655.07,-396.99"/>
<polygon fill="none" stroke="#404040" points="655.11,-396.96 657.4,-390.12 664.59,-389.61 662.3,-396.45 655.11,-396.96"/>
<text text-anchor="middle" x="670.5" y="-411" font-family="Helvetica,sans-Serif" font-size="10.00"> +elements</text>
</g>
<!-- Node7 -->
<g id="node7" class="node">
<title>Node7</title>
<g id="a_node7"><a xlink:title=" ">
<polygon fill="white" stroke="#bfbfbf" points="629,-542.5 629,-599.5 658,-599.5 658,-542.5 629,-542.5"/>
<text text-anchor="middle" x="643.5" y="-587.5" font-family="Helvetica,sans-Serif" font-size="10.00">T</text>
<polyline fill="none" stroke="#bfbfbf" points="629,-580.5 658,-580.5 "/>
<text text-anchor="middle" x="643.5" y="-568.5" font-family="Helvetica,sans-Serif" font-size="10.00"> </text>
<polyline fill="none" stroke="#bfbfbf" points="629,-561.5 658,-561.5 "/>
<text text-anchor="middle" x="643.5" y="-549.5" font-family="Helvetica,sans-Serif" font-size="10.00"> </text>
</a>
</g>
</g>
<!-- Node7&#45;&gt;Node6 -->
<g id="edge6" class="edge">
<title>Node7&#45;&gt;Node6</title>
<path fill="none" stroke="#404040" d="M628.89,-546.11C621.49,-534.01 612.32,-519.03 603.97,-505.37"/>
<polygon fill="none" stroke="#404040" points="603.75,-505.01 597.2,-501.98 597.49,-494.77 604.03,-497.8 603.75,-505.01"/>
<text text-anchor="middle" x="626" y="-516" font-family="Helvetica,sans-Serif" font-size="10.00"> +ptr</text>
</g>
<!-- Node11 -->
<g id="node11" class="node">
<title>Node11</title>
<g id="a_node11"><a xlink:title=" ">
<polygon fill="white" stroke="#bfbfbf" points="658,-437.5 658,-494.5 755,-494.5 755,-437.5 658,-437.5"/>
<text text-anchor="middle" x="706.5" y="-482.5" font-family="Helvetica,sans-Serif" font-size="10.00">std::vector&lt; T &gt;</text>
<polyline fill="none" stroke="#bfbfbf" points="658,-475.5 755,-475.5 "/>
<text text-anchor="middle" x="706.5" y="-463.5" font-family="Helvetica,sans-Serif" font-size="10.00"> </text>
<polyline fill="none" stroke="#bfbfbf" points="658,-456.5 755,-456.5 "/>
<text text-anchor="middle" x="706.5" y="-444.5" font-family="Helvetica,sans-Serif" font-size="10.00"> </text>
</a>
</g>
</g>
<!-- Node7&#45;&gt;Node11 -->
<g id="edge12" class="edge">
<title>Node7&#45;&gt;Node11</title>
<path fill="none" stroke="#404040" d="M658.11,-546.11C665.51,-534.01 674.68,-519.03 683.03,-505.37"/>
<polygon fill="none" stroke="#404040" points="683.25,-505.01 682.97,-497.8 689.51,-494.77 689.8,-501.98 683.25,-505.01"/>
<text text-anchor="middle" x="705.5" y="-516" font-family="Helvetica,sans-Serif" font-size="10.00"> +elements</text>
</g>
<!-- Node8 -->
<g id="node8" class="node">
<title>Node8</title>
<g id="a_node8"><a xlink:title=" ">
<polygon fill="white" stroke="#bfbfbf" points="71,-332.5 71,-389.5 136,-389.5 136,-332.5 71,-332.5"/>
<text text-anchor="middle" x="103.5" y="-377.5" font-family="Helvetica,sans-Serif" font-size="10.00">std::string</text>
<polyline fill="none" stroke="#bfbfbf" points="71,-370.5 136,-370.5 "/>
<text text-anchor="middle" x="103.5" y="-358.5" font-family="Helvetica,sans-Serif" font-size="10.00"> </text>
<polyline fill="none" stroke="#bfbfbf" points="71,-351.5 136,-351.5 "/>
<text text-anchor="middle" x="103.5" y="-339.5" font-family="Helvetica,sans-Serif" font-size="10.00"> </text>
</a>
</g>
</g>
<!-- Node8&#45;&gt;Node2 -->
<g id="edge7" class="edge">
<title>Node8&#45;&gt;Node2</title>
<path fill="none" stroke="#404040" d="M133.98,-332.48C149.76,-318.23 169.93,-300.03 190.15,-281.77"/>
<polygon fill="none" stroke="#404040" points="190.21,-281.71 191.99,-274.72 199.12,-273.67 197.35,-280.66 190.21,-281.71"/>
<text text-anchor="middle" x="190.5" y="-300.5" font-family="Helvetica,sans-Serif" font-size="10.00"> &#45;title_</text>
</g>
<!-- Node9 -->
<g id="node9" class="node">
<title>Node9</title>
<g id="a_node9"><a xlink:title=" ">
<polygon fill="white" stroke="#bfbfbf" points="33,-437.5 33,-494.5 174,-494.5 174,-437.5 33,-437.5"/>
<text text-anchor="middle" x="103.5" y="-482.5" font-family="Helvetica,sans-Serif" font-size="10.00">std::basic_string&lt; Char &gt;</text>
<polyline fill="none" stroke="#bfbfbf" points="33,-475.5 174,-475.5 "/>
<text text-anchor="middle" x="103.5" y="-463.5" font-family="Helvetica,sans-Serif" font-size="10.00"> </text>
<polyline fill="none" stroke="#bfbfbf" points="33,-456.5 174,-456.5 "/>
<text text-anchor="middle" x="103.5" y="-444.5" font-family="Helvetica,sans-Serif" font-size="10.00"> </text>
</a>
</g>
</g>
<!-- Node9&#45;&gt;Node8 -->
<g id="edge8" class="edge">
<title>Node9&#45;&gt;Node8</title>
<path fill="none" stroke="midnightblue" d="M103.5,-427.29C103.5,-414.84 103.5,-401.23 103.5,-389.68"/>
<polygon fill="none" stroke="midnightblue" points="100,-427.4 103.5,-437.4 107,-427.4 100,-427.4"/>
</g>
<!-- Node10&#45;&gt;Node1 -->
<g id="edge9" class="edge">
<title>Node10&#45;&gt;Node1</title>
<path fill="none" stroke="#404040" d="M681.32,-332.45C641.47,-280.62 554.7,-167.73 502.89,-100.33"/>
<polygon fill="none" stroke="#404040" points="502.82,-100.25 495.99,-97.93 495.5,-90.73 502.33,-93.05 502.82,-100.25"/>
<text text-anchor="middle" x="646" y="-198.5" font-family="Helvetica,sans-Serif" font-size="10.00"> &#45;uis_</text>
</g>
<!-- Node11&#45;&gt;Node10 -->
<g id="edge11" class="edge">
<title>Node11&#45;&gt;Node10</title>
<path fill="none" stroke="orange" d="M705.04,-427.29C704.55,-414.84 704.02,-401.23 703.57,-389.68"/>
<polygon fill="orange" stroke="orange" points="701.54,-427.54 705.43,-437.4 708.54,-427.27 701.54,-427.54"/>
<text text-anchor="middle" x="757.5" y="-411" font-family="Helvetica,sans-Serif" font-size="10.00"> &lt; UserInterfacePtr &gt;</text>
</g>
</g>
</svg>
        <g id="navigator" transform="translate(0 0)" fill="#404254">
                <rect fill="#f2f5e9" fill-opacity="0.5" stroke="#606060" stroke-width=".5" x="0" y="0" width="60" height="60"/>
                <use id="zoomplus" xlink:href="#zoomPlus" x="17" y="9" onmousedown="handleZoom(evt,'in')"/>
                <use id="zoomminus" xlink:href="#zoomMin" x="42" y="9" onmousedown="handleZoom(evt,'out')"/>
                <use id="reset" xlink:href="#resetDef" x="30" y="36" onmousedown="handleReset()"/>
                <g id="arrowUp" xlink:href="#dirArrow" transform="translate(30 24)" onmousedown="handlePan(0,-1)">
                  <use xlink:href="#rim" fill="#404040">
                        <set attributeName="fill" to="#808080" begin="arrowUp.mouseover" end="arrowUp.mouseout"/>
                  </use>
                  <path fill="none" stroke="white" stroke-width="1.5" d="M0,-3.0v7 M-2.5,-0.5L0,-3.0L2.5,-0.5"/>
                </g>
                <g id="arrowRight" xlink:href="#dirArrow" transform="rotate(90) translate(36 -43)" onmousedown="handlePan(1,0)">
                  <use xlink:href="#rim" fill="#404040">
                        <set attributeName="fill" to="#808080" begin="arrowRight.mouseover" end="arrowRight.mouseout"/>
                  </use>
                  <path fill="none" stroke="white" stroke-width="1.5" d="M0,-3.0v7 M-2.5,-0.5L0,-3.0L2.5,-0.5"/>
                </g>
                <g id="arrowDown" xlink:href="#dirArrow" transform="rotate(180) translate(-30 -48)" onmousedown="handlePan(0,1)">
                  <use xlink:href="#rim" fill="#404040">
                        <set attributeName="fill" to="#808080" begin="arrowDown.mouseover" end="arrowDown.mouseout"/>
                  </use>
                  <path fill="none" stroke="white" stroke-width="1.5" d="M0,-3.0v7 M-2.5,-0.5L0,-3.0L2.5,-0.5"/>
                </g>
                <g id="arrowLeft" xlink:href="#dirArrow" transform="rotate(270) translate(-36 17)" onmousedown="handlePan(-1,0)">
                  <use xlink:href="#rim" fill="#404040">
                        <set attributeName="fill" to="#808080" begin="arrowLeft.mouseover" end="arrowLeft.mouseout"/>
                  </use>
                  <path fill="none" stroke="white" stroke-width="1.5" d="M0,-3.0v7 M-2.5,-0.5L0,-3.0L2.5,-0.5"/>
                </g>
        </g>
        <svg viewBox="0 0 15 15" width="100%" height="30px" preserveAspectRatio="xMaxYMin meet">
         <g id="arrow_out" transform="scale(0.3 0.3)">
          <a xlink:href="classad__framework_1_1ui_1_1Frame__coll__graph_org.svg" target="_base">
           <rect id="button" ry="5" rx="5" y="6" x="6" height="38" width="38"
                fill="#f2f5e9" fill-opacity="0.5" stroke="#606060" stroke-width="1.0"/>
           <path id="arrow"
             d="M 11.500037,31.436501 C 11.940474,20.09759 22.043105,11.32322 32.158766,21.979434 L 37.068811,17.246167 C 37.068811,17.246167 37.088388,32 37.088388,32 L 22.160133,31.978069 C 22.160133,31.978069 26.997745,27.140456 26.997745,27.140456 C 18.528582,18.264221 13.291696,25.230495 11.500037,31.436501 z"
             style="fill:#404040;"/>
          </a>
         </g>
        </svg>
</svg>
