<?xml version="1.0" encoding="UTF-8" standalone="no"?>
<!DOCTYPE svg PUBLIC "-//W3C//DTD SVG 1.1//EN"
 "http://www.w3.org/Graphics/SVG/1.1/DTD/svg11.dtd">
<!-- Generated by graphviz version 2.43.0 (0)
 -->
<!-- Title: ad_framework::StereoImage Pages: 1 -->
<svg width="244pt" height="392pt"
 viewBox="0.00 0.00 244.00 392.00" xmlns="http://www.w3.org/2000/svg" xmlns:xlink="http://www.w3.org/1999/xlink">
<g id="graph0" class="graph" transform="scale(1 1) rotate(0) translate(4 388)">
<title>ad_framework::StereoImage</title>
<polygon fill="white" stroke="transparent" points="-4,4 -4,-388 240,-388 240,4 -4,4"/>
<!-- Node1 -->
<g id="node1" class="node">
<title>Node1</title>
<g id="a_node1"><a xlink:title=" ">
<polygon fill="#bfbfbf" stroke="black" points="0,-0.5 0,-57.5 236,-57.5 236,-0.5 0,-0.5"/>
<text text-anchor="middle" x="118" y="-45.5" font-family="Helvetica,sans-Serif" font-size="10.00">ad_framework::StereoImage</text>
<polyline fill="none" stroke="black" points="0,-38.5 236,-38.5 "/>
<text text-anchor="middle" x="118" y="-26.5" font-family="Helvetica,sans-Serif" font-size="10.00"> </text>
<polyline fill="none" stroke="black" points="0,-19.5 236,-19.5 "/>
<text text-anchor="start" x="8" y="-7.5" font-family="Helvetica,sans-Serif" font-size="10.00">+ StereoImage(ImagePtr left, ImagePtr right)</text>
</a>
</g>
</g>
<!-- Node2 -->
<g id="node2" class="node">
<title>Node2</title>
<g id="a_node2"><a xlink:title=" ">
<polygon fill="white" stroke="#bfbfbf" points="46.5,-116.5 46.5,-173.5 189.5,-173.5 189.5,-116.5 46.5,-116.5"/>
<text text-anchor="middle" x="118" y="-161.5" font-family="Helvetica,sans-Serif" font-size="10.00">std::shared_ptr&lt; Image &gt;</text>
<polyline fill="none" stroke="#bfbfbf" points="46.5,-154.5 189.5,-154.5 "/>
<text text-anchor="start" x="54.5" y="-142.5" font-family="Helvetica,sans-Serif" font-size="10.00">+ Image ptr</text>
<polyline fill="none" stroke="#bfbfbf" points="46.5,-135.5 189.5,-135.5 "/>
<text text-anchor="start" x="54.5" y="-123.5" font-family="Helvetica,sans-Serif" font-size="10.00">+ Image * operator&#45;&gt;()</text>
</a>
</g>
</g>
<!-- Node2&#45;&gt;Node1 -->
<g id="edge1" class="edge">
<title>Node2&#45;&gt;Node1</title>
<path fill="none" stroke="#404040" d="M118,-116.4C118,-102.5 118,-85.39 118,-70.07"/>
<polygon fill="none" stroke="#404040" points="118,-69.74 114,-63.74 118,-57.74 122,-63.74 118,-69.74"/>
<text text-anchor="middle" x="134" y="-90" font-family="Helvetica,sans-Serif" font-size="10.00"> &#45;left_</text>
<text text-anchor="middle" x="134" y="-79" font-family="Helvetica,sans-Serif" font-size="10.00">&#45;right_</text>
</g>
<!-- Node3 -->
<g id="node3" class="node">
<title>Node3</title>
<g id="a_node3"><a xlink:title=" ">
<polygon fill="white" stroke="#bfbfbf" points="59,-221.5 59,-278.5 177,-278.5 177,-221.5 59,-221.5"/>
<text text-anchor="middle" x="118" y="-266.5" font-family="Helvetica,sans-Serif" font-size="10.00">std::shared_ptr&lt; T &gt;</text>
<polyline fill="none" stroke="#bfbfbf" points="59,-259.5 177,-259.5 "/>
<text text-anchor="middle" x="118" y="-247.5" font-family="Helvetica,sans-Serif" font-size="10.00"> </text>
<polyline fill="none" stroke="#bfbfbf" points="59,-240.5 177,-240.5 "/>
<text text-anchor="start" x="67" y="-228.5" font-family="Helvetica,sans-Serif" font-size="10.00">+ T * operator&#45;&gt;()</text>
</a>
</g>
</g>
<!-- Node3&#45;&gt;Node2 -->
<g id="edge2" class="edge">
<title>Node3&#45;&gt;Node2</title>
<path fill="none" stroke="orange" d="M118,-211.29C118,-198.84 118,-185.23 118,-173.68"/>
<polygon fill="orange" stroke="orange" points="114.5,-211.4 118,-221.4 121.5,-211.4 114.5,-211.4"/>
<text text-anchor="middle" x="146.5" y="-195" font-family="Helvetica,sans-Serif" font-size="10.00"> &lt; Image &gt;</text>
</g>
<!-- Node4 -->
<g id="node4" class="node">
<title>Node4</title>
<g id="a_node4"><a xlink:title=" ">
<polygon fill="white" stroke="#bfbfbf" points="103.5,-326.5 103.5,-383.5 132.5,-383.5 132.5,-326.5 103.5,-326.5"/>
<text text-anchor="middle" x="118" y="-371.5" font-family="Helvetica,sans-Serif" font-size="10.00">T</text>
<polyline fill="none" stroke="#bfbfbf" points="103.5,-364.5 132.5,-364.5 "/>
<text text-anchor="middle" x="118" y="-352.5" font-family="Helvetica,sans-Serif" font-size="10.00"> </text>
<polyline fill="none" stroke="#bfbfbf" points="103.5,-345.5 132.5,-345.5 "/>
<text text-anchor="middle" x="118" y="-333.5" font-family="Helvetica,sans-Serif" font-size="10.00"> </text>
</a>
</g>
</g>
<!-- Node4&#45;&gt;Node3 -->
<g id="edge3" class="edge">
<title>Node4&#45;&gt;Node3</title>
<path fill="none" stroke="#404040" d="M118,-326.4C118,-315.55 118,-302.87 118,-291.05"/>
<polygon fill="none" stroke="#404040" points="118,-290.68 114,-284.68 118,-278.68 122,-284.68 118,-290.68"/>
<text text-anchor="middle" x="130.5" y="-300" font-family="Helvetica,sans-Serif" font-size="10.00"> +ptr</text>
</g>
</g>
</svg>
