<?xml version="1.0" encoding="UTF-8" standalone="no"?>
<!DOCTYPE svg PUBLIC "-//W3C//DTD SVG 1.1//EN"
 "http://www.w3.org/Graphics/SVG/1.1/DTD/svg11.dtd">
<!-- Generated by graphviz version 2.43.0 (0)
 -->
<!-- Title: ad_framework::ui::Button::operator() Pages: 1 -->
<svg width="484pt" height="180pt"
 viewBox="0.00 0.00 484.00 180.00" xmlns="http://www.w3.org/2000/svg" xmlns:xlink="http://www.w3.org/1999/xlink">
<g id="graph0" class="graph" transform="scale(1 1) rotate(0) translate(4 176)">
<title>ad_framework::ui::Button::operator()</title>
<polygon fill="white" stroke="transparent" points="-4,4 -4,-176 480,-176 480,4 -4,4"/>
<!-- Node1 -->
<g id="node1" class="node">
<title>Node1</title>
<g id="a_node1"><a xlink:title=" ">
<polygon fill="#bfbfbf" stroke="black" points="0,-76.5 0,-95.5 195,-95.5 195,-76.5 0,-76.5"/>
<text text-anchor="middle" x="97.5" y="-83.5" font-family="Helvetica,sans-Serif" font-size="10.00">ad_framework::ui::Button::operator()</text>
</a>
</g>
</g>
<!-- Node2 -->
<g id="node2" class="node">
<title>Node2</title>
<g id="a_node2"><a xlink:href="classad__framework_1_1ui_1_1UserInterface.html#a611ad02195c288f0eb58c26b94a6ddd4" target="_top" xlink:title=" ">
<polygon fill="white" stroke="black" points="231,-152.5 231,-171.5 476,-171.5 476,-152.5 231,-152.5"/>
<text text-anchor="middle" x="353.5" y="-159.5" font-family="Helvetica,sans-Serif" font-size="10.00">ad_framework::ui::UserInterface::GetCallbacks</text>
</a>
</g>
</g>
<!-- Node1&#45;&gt;Node2 -->
<g id="edge1" class="edge">
<title>Node1&#45;&gt;Node2</title>
<path fill="none" stroke="midnightblue" d="M116.82,-95.64C141.91,-108.43 188.65,-130.79 231,-143 241.21,-145.94 252.04,-148.46 262.87,-150.61"/>
<polygon fill="midnightblue" stroke="midnightblue" points="262.31,-154.06 272.79,-152.47 263.61,-147.18 262.31,-154.06"/>
</g>
<!-- Node3 -->
<g id="node3" class="node">
<title>Node3</title>
<g id="a_node3"><a xlink:href="classad__framework_1_1ui_1_1UserInterface.html#a425b365380f3b505eac6e6c5861f6457" target="_top" xlink:title=" ">
<polygon fill="white" stroke="black" points="255,-114.5 255,-133.5 452,-133.5 452,-114.5 255,-114.5"/>
<text text-anchor="middle" x="353.5" y="-121.5" font-family="Helvetica,sans-Serif" font-size="10.00">ad_framework::ui::UserInterface::Pos</text>
</a>
</g>
</g>
<!-- Node1&#45;&gt;Node3 -->
<g id="edge2" class="edge">
<title>Node1&#45;&gt;Node3</title>
<path fill="none" stroke="midnightblue" d="M162.27,-95.54C197.59,-100.83 241.69,-107.42 278.52,-112.93"/>
<polygon fill="midnightblue" stroke="midnightblue" points="278.3,-116.44 288.71,-114.46 279.33,-109.51 278.3,-116.44"/>
</g>
<!-- Node4 -->
<g id="node4" class="node">
<title>Node4</title>
<g id="a_node4"><a xlink:href="classad__framework_1_1ui_1_1UserInterface.html#a0870a4a98c6f112c02ee0ed3e3237b2d" target="_top" xlink:title=" ">
<polygon fill="white" stroke="black" points="243,-76.5 243,-95.5 464,-95.5 464,-76.5 243,-76.5"/>
<text text-anchor="middle" x="353.5" y="-83.5" font-family="Helvetica,sans-Serif" font-size="10.00">ad_framework::ui::UserInterface::Rename</text>
</a>
</g>
</g>
<!-- Node1&#45;&gt;Node4 -->
<g id="edge3" class="edge">
<title>Node1&#45;&gt;Node4</title>
<path fill="none" stroke="midnightblue" d="M195.25,-86C207.53,-86 220.21,-86 232.79,-86"/>
<polygon fill="midnightblue" stroke="midnightblue" points="232.86,-89.5 242.86,-86 232.86,-82.5 232.86,-89.5"/>
</g>
<!-- Node5 -->
<g id="node5" class="node">
<title>Node5</title>
<g id="a_node5"><a xlink:href="classad__framework_1_1ui_1_1UserInterface.html#a54aca8b9b70563522f1d992bc0d03f37" target="_top" xlink:title=" ">
<polygon fill="white" stroke="black" points="253.5,-38.5 253.5,-57.5 453.5,-57.5 453.5,-38.5 253.5,-38.5"/>
<text text-anchor="middle" x="353.5" y="-45.5" font-family="Helvetica,sans-Serif" font-size="10.00">ad_framework::ui::UserInterface::Size</text>
</a>
</g>
</g>
<!-- Node1&#45;&gt;Node5 -->
<g id="edge4" class="edge">
<title>Node1&#45;&gt;Node5</title>
<path fill="none" stroke="midnightblue" d="M162.27,-76.46C197.59,-71.17 241.69,-64.58 278.52,-59.07"/>
<polygon fill="midnightblue" stroke="midnightblue" points="279.33,-62.49 288.71,-57.54 278.3,-55.56 279.33,-62.49"/>
</g>
<!-- Node6 -->
<g id="node6" class="node">
<title>Node6</title>
<g id="a_node6"><a xlink:href="classad__framework_1_1ui_1_1UserInterface.html#acec7bc1f8dbcafa56a310a3be3a048fe" target="_top" xlink:title=" ">
<polygon fill="white" stroke="black" points="252.5,-0.5 252.5,-19.5 454.5,-19.5 454.5,-0.5 252.5,-0.5"/>
<text text-anchor="middle" x="353.5" y="-7.5" font-family="Helvetica,sans-Serif" font-size="10.00">ad_framework::ui::UserInterface::Title</text>
</a>
</g>
</g>
<!-- Node1&#45;&gt;Node6 -->
<g id="edge5" class="edge">
<title>Node1&#45;&gt;Node6</title>
<path fill="none" stroke="midnightblue" d="M116.82,-76.36C141.91,-63.57 188.65,-41.21 231,-29 241.21,-26.06 252.04,-23.54 262.87,-21.39"/>
<polygon fill="midnightblue" stroke="midnightblue" points="263.61,-24.82 272.79,-19.53 262.31,-17.94 263.61,-24.82"/>
</g>
</g>
</svg>
