<?xml version="1.0" encoding="UTF-8" standalone="no"?>
<!DOCTYPE svg PUBLIC "-//W3C//DTD SVG 1.1//EN"
 "http://www.w3.org/Graphics/SVG/1.1/DTD/svg11.dtd">
<!-- Generated by graphviz version 2.43.0 (0)
 -->
<!-- Title: ad_framework::ui::ImageViewer::ImageSender Pages: 1 -->
<svg width="455pt" height="299pt"
 viewBox="0.00 0.00 454.50 299.00" xmlns="http://www.w3.org/2000/svg" xmlns:xlink="http://www.w3.org/1999/xlink">
<g id="graph0" class="graph" transform="scale(1 1) rotate(0) translate(4 295)">
<title>ad_framework::ui::ImageViewer::ImageSender</title>
<polygon fill="white" stroke="transparent" points="-4,4 -4,-295 450.5,-295 450.5,4 -4,4"/>
<!-- Node1 -->
<g id="node1" class="node">
<title>Node1</title>
<g id="a_node1"><a xlink:title=" ">
<polygon fill="#bfbfbf" stroke="black" points="168.5,-0.5 168.5,-79.5 441.5,-79.5 441.5,-0.5 168.5,-0.5"/>
<text text-anchor="middle" x="305" y="-67.5" font-family="Helvetica,sans-Serif" font-size="10.00">ad_framework::ui::ImageViewer::ImageSender</text>
<polyline fill="none" stroke="black" points="168.5,-60.5 441.5,-60.5 "/>
<text text-anchor="middle" x="305" y="-48.5" font-family="Helvetica,sans-Serif" font-size="10.00"> </text>
<polyline fill="none" stroke="black" points="168.5,-41.5 441.5,-41.5 "/>
<text text-anchor="start" x="176.5" y="-29.5" font-family="Helvetica,sans-Serif" font-size="10.00">+ ImageSender(bool is_gray=true)</text>
<text text-anchor="start" x="176.5" y="-18.5" font-family="Helvetica,sans-Serif" font-size="10.00">+ std::any operator()(const std::any &amp;src) override</text>
<text text-anchor="start" x="176.5" y="-7.5" font-family="Helvetica,sans-Serif" font-size="10.00">+ void SetImagePath(const std::string &amp;image_path)</text>
</a>
</g>
</g>
<!-- Node2 -->
<g id="node2" class="node">
<title>Node2</title>
<g id="a_node2"><a xlink:href="structad__framework_1_1callback_1_1Callback.html" target="_top" xlink:title=" ">
<polygon fill="white" stroke="black" points="0,-127.5 0,-195.5 268,-195.5 268,-127.5 0,-127.5"/>
<text text-anchor="middle" x="134" y="-183.5" font-family="Helvetica,sans-Serif" font-size="10.00">ad_framework::callback::Callback</text>
<polyline fill="none" stroke="black" points="0,-176.5 268,-176.5 "/>
<text text-anchor="middle" x="134" y="-164.5" font-family="Helvetica,sans-Serif" font-size="10.00"> </text>
<polyline fill="none" stroke="black" points="0,-157.5 268,-157.5 "/>
<text text-anchor="start" x="8" y="-145.5" font-family="Helvetica,sans-Serif" font-size="10.00">+ virtual ~Callback()=default</text>
<text text-anchor="start" x="8" y="-134.5" font-family="Helvetica,sans-Serif" font-size="10.00">+ virtual std::any operator()(const std::any &amp;src)=0</text>
</a>
</g>
</g>
<!-- Node2&#45;&gt;Node1 -->
<g id="edge1" class="edge">
<title>Node2&#45;&gt;Node1</title>
<path fill="none" stroke="midnightblue" d="M189.99,-121.37C209.18,-107.96 230.63,-92.97 249.77,-79.6"/>
<polygon fill="none" stroke="midnightblue" points="187.82,-118.62 181.63,-127.21 191.83,-124.35 187.82,-118.62"/>
</g>
<!-- Node3 -->
<g id="node3" class="node">
<title>Node3</title>
<g id="a_node3"><a xlink:title=" ">
<polygon fill="white" stroke="#bfbfbf" points="286,-133 286,-190 324,-190 324,-133 286,-133"/>
<text text-anchor="middle" x="305" y="-178" font-family="Helvetica,sans-Serif" font-size="10.00">bool</text>
<polyline fill="none" stroke="#bfbfbf" points="286,-171 324,-171 "/>
<text text-anchor="middle" x="305" y="-159" font-family="Helvetica,sans-Serif" font-size="10.00"> </text>
<polyline fill="none" stroke="#bfbfbf" points="286,-152 324,-152 "/>
<text text-anchor="middle" x="305" y="-140" font-family="Helvetica,sans-Serif" font-size="10.00"> </text>
</a>
</g>
</g>
<!-- Node3&#45;&gt;Node1 -->
<g id="edge2" class="edge">
<title>Node3&#45;&gt;Node1</title>
<path fill="none" stroke="#404040" d="M305,-132.78C305,-120.63 305,-105.95 305,-91.94"/>
<polygon fill="none" stroke="#404040" points="305,-91.88 301,-85.88 305,-79.88 309,-85.88 305,-91.88"/>
<text text-anchor="middle" x="329" y="-101" font-family="Helvetica,sans-Serif" font-size="10.00"> &#45;is_gray_</text>
</g>
<!-- Node4 -->
<g id="node4" class="node">
<title>Node4</title>
<g id="a_node4"><a xlink:title=" ">
<polygon fill="white" stroke="#bfbfbf" points="343.5,-133 343.5,-190 408.5,-190 408.5,-133 343.5,-133"/>
<text text-anchor="middle" x="376" y="-178" font-family="Helvetica,sans-Serif" font-size="10.00">std::string</text>
<polyline fill="none" stroke="#bfbfbf" points="343.5,-171 408.5,-171 "/>
<text text-anchor="middle" x="376" y="-159" font-family="Helvetica,sans-Serif" font-size="10.00"> </text>
<polyline fill="none" stroke="#bfbfbf" points="343.5,-152 408.5,-152 "/>
<text text-anchor="middle" x="376" y="-140" font-family="Helvetica,sans-Serif" font-size="10.00"> </text>
</a>
</g>
</g>
<!-- Node4&#45;&gt;Node1 -->
<g id="edge3" class="edge">
<title>Node4&#45;&gt;Node1</title>
<path fill="none" stroke="#404040" d="M368.68,-132.77C365.11,-121.56 360.22,-108.75 354,-98 352.37,-95.18 350.6,-92.38 348.72,-89.6"/>
<polygon fill="none" stroke="#404040" points="348.61,-89.45 341.84,-86.95 341.54,-79.75 348.31,-82.24 348.61,-89.45"/>
<text text-anchor="middle" x="393" y="-101" font-family="Helvetica,sans-Serif" font-size="10.00"> &#45;image_path_</text>
</g>
<!-- Node5 -->
<g id="node5" class="node">
<title>Node5</title>
<g id="a_node5"><a xlink:title=" ">
<polygon fill="white" stroke="#bfbfbf" points="305.5,-233.5 305.5,-290.5 446.5,-290.5 446.5,-233.5 305.5,-233.5"/>
<text text-anchor="middle" x="376" y="-278.5" font-family="Helvetica,sans-Serif" font-size="10.00">std::basic_string&lt; Char &gt;</text>
<polyline fill="none" stroke="#bfbfbf" points="305.5,-271.5 446.5,-271.5 "/>
<text text-anchor="middle" x="376" y="-259.5" font-family="Helvetica,sans-Serif" font-size="10.00"> </text>
<polyline fill="none" stroke="#bfbfbf" points="305.5,-252.5 446.5,-252.5 "/>
<text text-anchor="middle" x="376" y="-240.5" font-family="Helvetica,sans-Serif" font-size="10.00"> </text>
</a>
</g>
</g>
<!-- Node5&#45;&gt;Node4 -->
<g id="edge4" class="edge">
<title>Node5&#45;&gt;Node4</title>
<path fill="none" stroke="midnightblue" d="M376,-223.15C376,-212.23 376,-200.52 376,-190.33"/>
<polygon fill="none" stroke="midnightblue" points="372.5,-223.3 376,-233.3 379.5,-223.3 372.5,-223.3"/>
</g>
</g>
</svg>
