<?xml version="1.0" encoding="UTF-8" standalone="no"?>
<!DOCTYPE svg PUBLIC "-//W3C//DTD SVG 1.1//EN"
 "http://www.w3.org/Graphics/SVG/1.1/DTD/svg11.dtd">
<!-- Generated by graphviz version 2.43.0 (0)
 -->
<!-- Title: ad_framework::application::Application Pages: 1 -->
<!--zoomable 676 -->
<svg id="main" version="1.1" xmlns="http://www.w3.org/2000/svg" xmlns:xlink="http://www.w3.org/1999/xlink" xml:space="preserve" onload="init(evt)">
<style type="text/css"><![CDATA[
.edge:hover path { stroke: red; }
.edge:hover polygon { stroke: red; fill: red; }
]]></style>
<script type="text/javascript"><![CDATA[
var edges = document.getElementsByTagName('g');
if (edges && edges.length) {
  for (var i=0;i<edges.length;i++) {
    if (edges[i].id.substr(0,4)=='edge') {
      edges[i].setAttribute('class','edge');
    }
  }
}
]]></script>
        <defs>
                <circle id="rim" cx="0" cy="0" r="7"/>
                <circle id="rim2" cx="0" cy="0" r="3.5"/>
                <g id="zoomPlus">
                        <use xlink:href="#rim" fill="#404040">
                                <set attributeName="fill" to="#808080" begin="zoomplus.mouseover" end="zoomplus.mouseout"/>
                        </use>
                        <path d="M-4,0h8M0,-4v8" fill="none" stroke="white" stroke-width="1.5" pointer-events="none"/>
                </g>
                <g id="zoomMin">
                        <use xlink:href="#rim" fill="#404040">
                                <set attributeName="fill" to="#808080" begin="zoomminus.mouseover" end="zoomminus.mouseout"/>
                        </use>
                        <path d="M-4,0h8" fill="none" stroke="white" stroke-width="1.5" pointer-events="none"/>
                </g>
                <g id="dirArrow">
                        <path fill="none" stroke="white" stroke-width="1.5" d="M0,-3.0v7 M-2.5,-0.5L0,-3.0L2.5,-0.5"/>
                </g>
               <g id="resetDef">
                       <use xlink:href="#rim2" fill="#404040">
                               <set attributeName="fill" to="#808080" begin="reset.mouseover" end="reset.mouseout"/>
                       </use>
               </g>
        </defs>

<script type="text/javascript">
var viewWidth = 1071;
var viewHeight = 676;
var sectionId = 'dynsection-0';
</script>
<script xlink:href="svgpan.js"/>
<svg id="graph" class="graph">
<g id="viewport">
<title>ad_framework::application::Application</title>
<polygon fill="white" stroke="transparent" points="-4,4 -4,-672 1067,-672 1067,4 -4,4"/>
<!-- Node1 -->
<g id="node1" class="node">
<title>Node1</title>
<g id="a_node1"><a xlink:title=" ">
<polygon fill="#bfbfbf" stroke="black" points="596,-0.5 596,-101.5 804,-101.5 804,-0.5 596,-0.5"/>
<text text-anchor="middle" x="700" y="-89.5" font-family="Helvetica,sans-Serif" font-size="10.00">ad_framework::application::Application</text>
<polyline fill="none" stroke="black" points="596,-82.5 804,-82.5 "/>
<text text-anchor="middle" x="700" y="-70.5" font-family="Helvetica,sans-Serif" font-size="10.00"> </text>
<polyline fill="none" stroke="black" points="596,-63.5 804,-63.5 "/>
<text text-anchor="start" x="604" y="-51.5" font-family="Helvetica,sans-Serif" font-size="10.00">+ Application()=default</text>
<text text-anchor="start" x="604" y="-40.5" font-family="Helvetica,sans-Serif" font-size="10.00">+ ~Application()=default</text>
<text text-anchor="start" x="604" y="-29.5" font-family="Helvetica,sans-Serif" font-size="10.00">+ void Initialize()</text>
<text text-anchor="start" x="604" y="-18.5" font-family="Helvetica,sans-Serif" font-size="10.00">+ void Shutdown()</text>
<text text-anchor="start" x="604" y="-7.5" font-family="Helvetica,sans-Serif" font-size="10.00">+ void Execute()</text>
</a>
</g>
</g>
<!-- Node2 -->
<g id="node2" class="node">
<title>Node2</title>
<g id="a_node2"><a xlink:href="classad__framework_1_1application_1_1UserInterface.html" target="_top" xlink:title=" ">
<polygon fill="white" stroke="black" points="362.5,-149.5 362.5,-239.5 581.5,-239.5 581.5,-149.5 362.5,-149.5"/>
<text text-anchor="middle" x="472" y="-227.5" font-family="Helvetica,sans-Serif" font-size="10.00">ad_framework::application::UserInterface</text>
<polyline fill="none" stroke="black" points="362.5,-220.5 581.5,-220.5 "/>
<text text-anchor="middle" x="472" y="-208.5" font-family="Helvetica,sans-Serif" font-size="10.00"> </text>
<polyline fill="none" stroke="black" points="362.5,-201.5 581.5,-201.5 "/>
<text text-anchor="start" x="370.5" y="-189.5" font-family="Helvetica,sans-Serif" font-size="10.00">+ UserInterface()</text>
<text text-anchor="start" x="370.5" y="-178.5" font-family="Helvetica,sans-Serif" font-size="10.00">+ ~UserInterface()=default</text>
<text text-anchor="start" x="370.5" y="-167.5" font-family="Helvetica,sans-Serif" font-size="10.00">+ void Execute()</text>
<text text-anchor="start" x="370.5" y="-156.5" font-family="Helvetica,sans-Serif" font-size="10.00">+ void UpdateDataReader()</text>
</a>
</g>
</g>
<!-- Node2&#45;&gt;Node1 -->
<g id="edge1" class="edge">
<title>Node2&#45;&gt;Node1</title>
<path fill="none" stroke="#404040" d="M543.2,-149.31C564.3,-136.22 587.68,-121.71 609.8,-107.98"/>
<polygon fill="none" stroke="#404040" points="610.01,-107.85 613,-101.29 620.21,-101.52 617.22,-108.08 610.01,-107.85"/>
<text text-anchor="middle" x="597" y="-123" font-family="Helvetica,sans-Serif" font-size="10.00"> &#45;ui_</text>
</g>
<!-- Node3 -->
<g id="node3" class="node">
<title>Node3</title>
<g id="a_node3"><a xlink:title=" ">
<polygon fill="white" stroke="#bfbfbf" points="0,-362 0,-419 168,-419 168,-362 0,-362"/>
<text text-anchor="middle" x="84" y="-407" font-family="Helvetica,sans-Serif" font-size="10.00">std::shared_ptr&lt; DataLoader &gt;</text>
<polyline fill="none" stroke="#bfbfbf" points="0,-400 168,-400 "/>
<text text-anchor="start" x="8" y="-388" font-family="Helvetica,sans-Serif" font-size="10.00">+ DataLoader ptr</text>
<polyline fill="none" stroke="#bfbfbf" points="0,-381 168,-381 "/>
<text text-anchor="start" x="8" y="-369" font-family="Helvetica,sans-Serif" font-size="10.00">+ DataLoader * operator&#45;&gt;()</text>
</a>
</g>
</g>
<!-- Node3&#45;&gt;Node2 -->
<g id="edge2" class="edge">
<title>Node3&#45;&gt;Node2</title>
<path fill="none" stroke="#404040" d="M102.27,-361.82C123.71,-331.59 162.1,-284.02 207,-258 250.36,-232.87 303.25,-217.84 350.35,-208.85"/>
<polygon fill="none" stroke="#404040" points="350.38,-208.84 355.57,-203.83 362.19,-206.69 357,-211.7 350.38,-208.84"/>
<text text-anchor="middle" x="249" y="-284.5" font-family="Helvetica,sans-Serif" font-size="10.00"> &#45;dataloader_ptr_</text>
</g>
<!-- Node4 -->
<g id="node4" class="node">
<title>Node4</title>
<g id="a_node4"><a xlink:title=" ">
<polygon fill="white" stroke="#bfbfbf" points="287,-505.5 287,-562.5 405,-562.5 405,-505.5 287,-505.5"/>
<text text-anchor="middle" x="346" y="-550.5" font-family="Helvetica,sans-Serif" font-size="10.00">std::shared_ptr&lt; T &gt;</text>
<polyline fill="none" stroke="#bfbfbf" points="287,-543.5 405,-543.5 "/>
<text text-anchor="middle" x="346" y="-531.5" font-family="Helvetica,sans-Serif" font-size="10.00"> </text>
<polyline fill="none" stroke="#bfbfbf" points="287,-524.5 405,-524.5 "/>
<text text-anchor="start" x="295" y="-512.5" font-family="Helvetica,sans-Serif" font-size="10.00">+ T * operator&#45;&gt;()</text>
</a>
</g>
</g>
<!-- Node4&#45;&gt;Node3 -->
<g id="edge3" class="edge">
<title>Node4&#45;&gt;Node3</title>
<path fill="none" stroke="orange" d="M277.39,-512.24C257.74,-505.26 236.61,-496.74 218,-487 181.42,-467.86 143.45,-439.9 117.3,-419.18"/>
<polygon fill="orange" stroke="orange" points="276.31,-515.57 286.9,-515.54 278.6,-508.96 276.31,-515.57"/>
<text text-anchor="middle" x="259" y="-473.5" font-family="Helvetica,sans-Serif" font-size="10.00"> &lt; DataLoader &gt;</text>
</g>
<!-- Node6 -->
<g id="node6" class="node">
<title>Node6</title>
<g id="a_node6"><a xlink:title=" ">
<polygon fill="white" stroke="#bfbfbf" points="470,-362 470,-419 634,-419 634,-362 470,-362"/>
<text text-anchor="middle" x="552" y="-407" font-family="Helvetica,sans-Serif" font-size="10.00">std::forward_list&lt; PannelPtr &gt;</text>
<polyline fill="none" stroke="#bfbfbf" points="470,-400 634,-400 "/>
<text text-anchor="middle" x="552" y="-388" font-family="Helvetica,sans-Serif" font-size="10.00"> </text>
<polyline fill="none" stroke="#bfbfbf" points="470,-381 634,-381 "/>
<text text-anchor="middle" x="552" y="-369" font-family="Helvetica,sans-Serif" font-size="10.00"> </text>
</a>
</g>
</g>
<!-- Node4&#45;&gt;Node6 -->
<g id="edge6" class="edge">
<title>Node4&#45;&gt;Node6</title>
<path fill="none" stroke="#404040" d="M386.21,-505.38C419.24,-482.69 466.22,-450.42 501.73,-426.03"/>
<polygon fill="none" stroke="#404040" points="502,-425.84 504.68,-419.15 511.89,-419.05 509.21,-425.74 502,-425.84"/>
<text text-anchor="middle" x="472" y="-473.5" font-family="Helvetica,sans-Serif" font-size="10.00"> +elements</text>
</g>
<!-- Node9 -->
<g id="node9" class="node">
<title>Node9</title>
<g id="a_node9"><a xlink:title=" ">
<polygon fill="white" stroke="#bfbfbf" points="186,-362 186,-419 356,-419 356,-362 186,-362"/>
<text text-anchor="middle" x="271" y="-407" font-family="Helvetica,sans-Serif" font-size="10.00">std::shared_ptr&lt; DataReader &gt;</text>
<polyline fill="none" stroke="#bfbfbf" points="186,-400 356,-400 "/>
<text text-anchor="start" x="194" y="-388" font-family="Helvetica,sans-Serif" font-size="10.00">+ DataReader ptr</text>
<polyline fill="none" stroke="#bfbfbf" points="186,-381 356,-381 "/>
<text text-anchor="start" x="194" y="-369" font-family="Helvetica,sans-Serif" font-size="10.00">+ DataReader * operator&#45;&gt;()</text>
</a>
</g>
</g>
<!-- Node4&#45;&gt;Node9 -->
<g id="edge11" class="edge">
<title>Node4&#45;&gt;Node9</title>
<path fill="none" stroke="orange" d="M319.91,-496.8C317.83,-493.53 315.83,-490.24 314,-487 301.54,-465.01 289.94,-438.74 281.93,-419.33"/>
<polygon fill="orange" stroke="orange" points="317.1,-498.89 325.52,-505.31 322.94,-495.04 317.1,-498.89"/>
<text text-anchor="middle" x="356" y="-473.5" font-family="Helvetica,sans-Serif" font-size="10.00"> &lt; DataReader &gt;</text>
</g>
<!-- Node5 -->
<g id="node5" class="node">
<title>Node5</title>
<g id="a_node5"><a xlink:title=" ">
<polygon fill="white" stroke="#bfbfbf" points="474.5,-610.5 474.5,-667.5 503.5,-667.5 503.5,-610.5 474.5,-610.5"/>
<text text-anchor="middle" x="489" y="-655.5" font-family="Helvetica,sans-Serif" font-size="10.00">T</text>
<polyline fill="none" stroke="#bfbfbf" points="474.5,-648.5 503.5,-648.5 "/>
<text text-anchor="middle" x="489" y="-636.5" font-family="Helvetica,sans-Serif" font-size="10.00"> </text>
<polyline fill="none" stroke="#bfbfbf" points="474.5,-629.5 503.5,-629.5 "/>
<text text-anchor="middle" x="489" y="-617.5" font-family="Helvetica,sans-Serif" font-size="10.00"> </text>
</a>
</g>
</g>
<!-- Node5&#45;&gt;Node4 -->
<g id="edge4" class="edge">
<title>Node5&#45;&gt;Node4</title>
<path fill="none" stroke="#404040" d="M474.24,-627.37C455.49,-613.86 422.21,-589.89 394.26,-569.76"/>
<polygon fill="none" stroke="#404040" points="393.97,-569.55 386.77,-569.29 384.23,-562.54 391.44,-562.8 393.97,-569.55"/>
<text text-anchor="middle" x="434.5" y="-584" font-family="Helvetica,sans-Serif" font-size="10.00"> +ptr</text>
</g>
<!-- Node7 -->
<g id="node7" class="node">
<title>Node7</title>
<g id="a_node7"><a xlink:title=" ">
<polygon fill="white" stroke="#bfbfbf" points="427,-505.5 427,-562.5 551,-562.5 551,-505.5 427,-505.5"/>
<text text-anchor="middle" x="489" y="-550.5" font-family="Helvetica,sans-Serif" font-size="10.00">std::forward_list&lt; T &gt;</text>
<polyline fill="none" stroke="#bfbfbf" points="427,-543.5 551,-543.5 "/>
<text text-anchor="middle" x="489" y="-531.5" font-family="Helvetica,sans-Serif" font-size="10.00"> </text>
<polyline fill="none" stroke="#bfbfbf" points="427,-524.5 551,-524.5 "/>
<text text-anchor="middle" x="489" y="-512.5" font-family="Helvetica,sans-Serif" font-size="10.00"> </text>
</a>
</g>
</g>
<!-- Node5&#45;&gt;Node7 -->
<g id="edge8" class="edge">
<title>Node5&#45;&gt;Node7</title>
<path fill="none" stroke="#404040" d="M489,-610.4C489,-599.55 489,-586.87 489,-575.05"/>
<polygon fill="none" stroke="#404040" points="489,-574.68 485,-568.68 489,-562.68 493,-568.68 489,-574.68"/>
<text text-anchor="middle" x="518" y="-584" font-family="Helvetica,sans-Serif" font-size="10.00"> +elements</text>
</g>
<!-- Node16 -->
<g id="node16" class="node">
<title>Node16</title>
<g id="a_node16"><a xlink:title=" ">
<polygon fill="white" stroke="#bfbfbf" points="959,-505.5 959,-562.5 1055,-562.5 1055,-505.5 959,-505.5"/>
<text text-anchor="middle" x="1007" y="-550.5" font-family="Helvetica,sans-Serif" font-size="10.00">std::queue&lt; T &gt;</text>
<polyline fill="none" stroke="#bfbfbf" points="959,-543.5 1055,-543.5 "/>
<text text-anchor="middle" x="1007" y="-531.5" font-family="Helvetica,sans-Serif" font-size="10.00"> </text>
<polyline fill="none" stroke="#bfbfbf" points="959,-524.5 1055,-524.5 "/>
<text text-anchor="middle" x="1007" y="-512.5" font-family="Helvetica,sans-Serif" font-size="10.00"> </text>
</a>
</g>
</g>
<!-- Node5&#45;&gt;Node16 -->
<g id="edge19" class="edge">
<title>Node5&#45;&gt;Node16</title>
<path fill="none" stroke="#404040" d="M503.7,-637.19C560.5,-633.72 770.75,-617.94 947.32,-563.48"/>
<polygon fill="none" stroke="#404040" points="947.45,-563.44 951.97,-557.82 958.89,-559.83 954.37,-565.45 947.45,-563.44"/>
<text text-anchor="middle" x="905" y="-584" font-family="Helvetica,sans-Serif" font-size="10.00"> +elements</text>
</g>
<!-- Node6&#45;&gt;Node2 -->
<g id="edge5" class="edge">
<title>Node6&#45;&gt;Node2</title>
<path fill="none" stroke="#404040" d="M545.22,-361.85C538.1,-334.74 525.76,-292.56 510,-258 508.82,-255.42 507.56,-252.81 506.24,-250.2"/>
<polygon fill="none" stroke="#404040" points="506.19,-250.1 499.83,-246.7 500.52,-239.52 506.88,-242.92 506.19,-250.1"/>
<text text-anchor="middle" x="557.5" y="-284.5" font-family="Helvetica,sans-Serif" font-size="10.00"> &#45;pannels_</text>
</g>
<!-- Node7&#45;&gt;Node6 -->
<g id="edge7" class="edge">
<title>Node7&#45;&gt;Node6</title>
<path fill="none" stroke="orange" d="M505.39,-496.18C516.13,-472.06 529.94,-441.04 539.73,-419.05"/>
<polygon fill="orange" stroke="orange" points="502.17,-494.82 501.3,-505.38 508.56,-497.67 502.17,-494.82"/>
<text text-anchor="middle" x="555" y="-473.5" font-family="Helvetica,sans-Serif" font-size="10.00"> &lt; PannelPtr &gt;</text>
</g>
<!-- Node8 -->
<g id="node8" class="node">
<title>Node8</title>
<g id="a_node8"><a xlink:title=" ">
<polygon fill="white" stroke="#bfbfbf" points="374.5,-362 374.5,-419 451.5,-419 451.5,-362 374.5,-362"/>
<text text-anchor="middle" x="413" y="-407" font-family="Helvetica,sans-Serif" font-size="10.00">DatasetType</text>
<polyline fill="none" stroke="#bfbfbf" points="374.5,-400 451.5,-400 "/>
<text text-anchor="middle" x="413" y="-388" font-family="Helvetica,sans-Serif" font-size="10.00"> </text>
<polyline fill="none" stroke="#bfbfbf" points="374.5,-381 451.5,-381 "/>
<text text-anchor="middle" x="413" y="-369" font-family="Helvetica,sans-Serif" font-size="10.00"> </text>
</a>
</g>
</g>
<!-- Node8&#45;&gt;Node2 -->
<g id="edge9" class="edge">
<title>Node8&#45;&gt;Node2</title>
<path fill="none" stroke="#404040" d="M414.32,-361.77C416.32,-334.61 421.36,-292.39 434,-258 434.93,-255.48 435.96,-252.95 437.07,-250.44"/>
<polygon fill="none" stroke="#404040" points="437.14,-250.29 436.18,-243.14 442.41,-239.5 443.37,-246.65 437.14,-250.29"/>
<text text-anchor="middle" x="472" y="-284.5" font-family="Helvetica,sans-Serif" font-size="10.00"> &#45;dataset_type_</text>
</g>
<!-- Node9&#45;&gt;Node2 -->
<g id="edge10" class="edge">
<title>Node9&#45;&gt;Node2</title>
<path fill="none" stroke="#404040" d="M277.34,-361.97C285.35,-332.77 301.74,-286.94 331,-258 337.42,-251.65 344.59,-245.89 352.21,-240.67"/>
<polygon fill="none" stroke="#404040" points="352.35,-240.58 355.25,-233.98 362.46,-234.12 359.56,-240.72 352.35,-240.58"/>
<text text-anchor="middle" x="373.5" y="-284.5" font-family="Helvetica,sans-Serif" font-size="10.00"> &#45;datareader_ptr_</text>
</g>
<!-- Node10 -->
<g id="node10" class="node">
<title>Node10</title>
<g id="a_node10"><a xlink:href="classad__framework_1_1application_1_1Window.html" target="_top" xlink:title=" ">
<polygon fill="white" stroke="black" points="652,-334.5 652,-446.5 844,-446.5 844,-334.5 652,-334.5"/>
<text text-anchor="middle" x="748" y="-434.5" font-family="Helvetica,sans-Serif" font-size="10.00">ad_framework::application::Window</text>
<polyline fill="none" stroke="black" points="652,-427.5 844,-427.5 "/>
<text text-anchor="middle" x="748" y="-415.5" font-family="Helvetica,sans-Serif" font-size="10.00"> </text>
<polyline fill="none" stroke="black" points="652,-408.5 844,-408.5 "/>
<text text-anchor="start" x="660" y="-396.5" font-family="Helvetica,sans-Serif" font-size="10.00">+ Window()</text>
<text text-anchor="start" x="660" y="-385.5" font-family="Helvetica,sans-Serif" font-size="10.00">+ ~Window()=default</text>
<text text-anchor="start" x="660" y="-374.5" font-family="Helvetica,sans-Serif" font-size="10.00">+ bool IsOpen() const</text>
<text text-anchor="start" x="660" y="-363.5" font-family="Helvetica,sans-Serif" font-size="10.00">+ void Render() const</text>
<text text-anchor="start" x="660" y="-352.5" font-family="Helvetica,sans-Serif" font-size="10.00">+ void NewFrame() const</text>
<text text-anchor="start" x="660" y="-341.5" font-family="Helvetica,sans-Serif" font-size="10.00">+ ImVec2 GetSize() const</text>
</a>
</g>
</g>
<!-- Node10&#45;&gt;Node2 -->
<g id="edge12" class="edge">
<title>Node10&#45;&gt;Node2</title>
<path fill="none" stroke="#404040" d="M685.87,-334.18C656.82,-309.52 621.16,-280.94 587,-258 580.87,-253.88 574.45,-249.81 567.9,-245.83"/>
<polygon fill="none" stroke="#404040" points="567.85,-245.79 560.64,-246.16 557.54,-239.65 564.74,-239.29 567.85,-245.79"/>
<text text-anchor="middle" x="684" y="-284.5" font-family="Helvetica,sans-Serif" font-size="10.00"> &#45;window_</text>
</g>
<!-- Node11 -->
<g id="node11" class="node">
<title>Node11</title>
<g id="a_node11"><a xlink:title=" ">
<polygon fill="white" stroke="#bfbfbf" points="569,-505.5 569,-562.5 679,-562.5 679,-505.5 569,-505.5"/>
<text text-anchor="middle" x="624" y="-550.5" font-family="Helvetica,sans-Serif" font-size="10.00">static constexpr int</text>
<polyline fill="none" stroke="#bfbfbf" points="569,-543.5 679,-543.5 "/>
<text text-anchor="middle" x="624" y="-531.5" font-family="Helvetica,sans-Serif" font-size="10.00"> </text>
<polyline fill="none" stroke="#bfbfbf" points="569,-524.5 679,-524.5 "/>
<text text-anchor="middle" x="624" y="-512.5" font-family="Helvetica,sans-Serif" font-size="10.00"> </text>
</a>
</g>
</g>
<!-- Node11&#45;&gt;Node10 -->
<g id="edge13" class="edge">
<title>Node11&#45;&gt;Node10</title>
<path fill="none" stroke="#404040" d="M648.2,-505.38C660.69,-491.14 676.48,-473.12 691.79,-455.64"/>
<polygon fill="none" stroke="#404040" points="691.83,-455.6 692.77,-448.45 699.74,-446.57 698.79,-453.72 691.83,-455.6"/>
<text text-anchor="middle" x="705" y="-479" font-family="Helvetica,sans-Serif" font-size="10.00"> &#45;kHeight</text>
<text text-anchor="middle" x="705" y="-468" font-family="Helvetica,sans-Serif" font-size="10.00">&#45;kWidth</text>
</g>
<!-- Node12 -->
<g id="node12" class="node">
<title>Node12</title>
<g id="a_node12"><a xlink:title=" ">
<polygon fill="white" stroke="#bfbfbf" points="697.5,-505.5 697.5,-562.5 788.5,-562.5 788.5,-505.5 697.5,-505.5"/>
<text text-anchor="middle" x="743" y="-550.5" font-family="Helvetica,sans-Serif" font-size="10.00">GLFWwindow *</text>
<polyline fill="none" stroke="#bfbfbf" points="697.5,-543.5 788.5,-543.5 "/>
<text text-anchor="middle" x="743" y="-531.5" font-family="Helvetica,sans-Serif" font-size="10.00"> </text>
<polyline fill="none" stroke="#bfbfbf" points="697.5,-524.5 788.5,-524.5 "/>
<text text-anchor="middle" x="743" y="-512.5" font-family="Helvetica,sans-Serif" font-size="10.00"> </text>
</a>
</g>
</g>
<!-- Node12&#45;&gt;Node10 -->
<g id="edge14" class="edge">
<title>Node12&#45;&gt;Node10</title>
<path fill="none" stroke="#404040" d="M743.98,-505.38C744.45,-492.05 745.03,-475.42 745.61,-459.01"/>
<polygon fill="none" stroke="#404040" points="745.63,-458.57 741.84,-452.43 746.05,-446.57 749.84,-452.71 745.63,-458.57"/>
<text text-anchor="middle" x="770" y="-473.5" font-family="Helvetica,sans-Serif" font-size="10.00"> &#45;window_</text>
</g>
<!-- Node13 -->
<g id="node13" class="node">
<title>Node13</title>
<g id="a_node13"><a xlink:title=" ">
<polygon fill="white" stroke="#bfbfbf" points="807,-505.5 807,-562.5 941,-562.5 941,-505.5 807,-505.5"/>
<text text-anchor="middle" x="874" y="-550.5" font-family="Helvetica,sans-Serif" font-size="10.00">static constexpr ImVec4</text>
<polyline fill="none" stroke="#bfbfbf" points="807,-543.5 941,-543.5 "/>
<text text-anchor="middle" x="874" y="-531.5" font-family="Helvetica,sans-Serif" font-size="10.00"> </text>
<polyline fill="none" stroke="#bfbfbf" points="807,-524.5 941,-524.5 "/>
<text text-anchor="middle" x="874" y="-512.5" font-family="Helvetica,sans-Serif" font-size="10.00"> </text>
</a>
</g>
</g>
<!-- Node13&#45;&gt;Node10 -->
<g id="edge15" class="edge">
<title>Node13&#45;&gt;Node10</title>
<path fill="none" stroke="#404040" d="M849.41,-505.38C836.72,-491.14 820.68,-473.12 805.12,-455.64"/>
<polygon fill="none" stroke="#404040" points="805.02,-455.54 798.04,-453.72 797.04,-446.57 804.02,-448.4 805.02,-455.54"/>
<text text-anchor="middle" x="861" y="-473.5" font-family="Helvetica,sans-Serif" font-size="10.00"> &#45;kClearColor</text>
</g>
<!-- Node14 -->
<g id="node14" class="node">
<title>Node14</title>
<g id="a_node14"><a xlink:title=" ">
<polygon fill="white" stroke="#bfbfbf" points="677.5,-166 677.5,-223 722.5,-223 722.5,-166 677.5,-166"/>
<text text-anchor="middle" x="700" y="-211" font-family="Helvetica,sans-Serif" font-size="10.00">size_t</text>
<polyline fill="none" stroke="#bfbfbf" points="677.5,-204 722.5,-204 "/>
<text text-anchor="middle" x="700" y="-192" font-family="Helvetica,sans-Serif" font-size="10.00"> </text>
<polyline fill="none" stroke="#bfbfbf" points="677.5,-185 722.5,-185 "/>
<text text-anchor="middle" x="700" y="-173" font-family="Helvetica,sans-Serif" font-size="10.00"> </text>
</a>
</g>
</g>
<!-- Node14&#45;&gt;Node1 -->
<g id="edge16" class="edge">
<title>Node14&#45;&gt;Node1</title>
<path fill="none" stroke="#404040" d="M700,-165.88C700,-150.98 700,-131.94 700,-113.72"/>
<polygon fill="none" stroke="#404040" points="700,-113.6 696,-107.6 700,-101.6 704,-107.6 700,-113.6"/>
<text text-anchor="middle" x="748.5" y="-123" font-family="Helvetica,sans-Serif" font-size="10.00"> &#45;kMaxThreadCount</text>
</g>
<!-- Node15 -->
<g id="node15" class="node">
<title>Node15</title>
<g id="a_node15"><a xlink:title=" ">
<polygon fill="white" stroke="#bfbfbf" points="819.5,-258.5 819.5,-315.5 962.5,-315.5 962.5,-258.5 819.5,-258.5"/>
<text text-anchor="middle" x="891" y="-303.5" font-family="Helvetica,sans-Serif" font-size="10.00">std::queue&lt; std::thread &gt;</text>
<polyline fill="none" stroke="#bfbfbf" points="819.5,-296.5 962.5,-296.5 "/>
<text text-anchor="start" x="827.5" y="-284.5" font-family="Helvetica,sans-Serif" font-size="10.00">+ std::thread elements</text>
<polyline fill="none" stroke="#bfbfbf" points="819.5,-277.5 962.5,-277.5 "/>
<text text-anchor="middle" x="891" y="-265.5" font-family="Helvetica,sans-Serif" font-size="10.00"> </text>
</a>
</g>
</g>
<!-- Node15&#45;&gt;Node1 -->
<g id="edge17" class="edge">
<title>Node15&#45;&gt;Node1</title>
<path fill="none" stroke="#404040" d="M880.78,-258.2C866.83,-223.03 839.14,-161.98 801,-120 797.77,-116.45 794.33,-112.99 790.72,-109.64"/>
<polygon fill="none" stroke="#404040" points="790.5,-109.45 783.35,-108.51 781.47,-101.54 788.62,-102.49 790.5,-109.45"/>
<text text-anchor="middle" x="896.5" y="-192" font-family="Helvetica,sans-Serif" font-size="10.00"> &#45;threads_</text>
</g>
<!-- Node16&#45;&gt;Node15 -->
<g id="edge18" class="edge">
<title>Node16&#45;&gt;Node15</title>
<path fill="none" stroke="orange" d="M989.62,-496.29C966.19,-446.8 924.99,-359.79 904.03,-315.53"/>
<polygon fill="orange" stroke="orange" points="986.48,-497.83 993.92,-505.37 992.8,-494.84 986.48,-497.83"/>
<text text-anchor="middle" x="1023.5" y="-473.5" font-family="Helvetica,sans-Serif" font-size="10.00"> &lt; std::thread &gt;</text>
</g>
</g>
</svg>
        <g id="navigator" transform="translate(0 0)" fill="#404254">
                <rect fill="#f2f5e9" fill-opacity="0.5" stroke="#606060" stroke-width=".5" x="0" y="0" width="60" height="60"/>
                <use id="zoomplus" xlink:href="#zoomPlus" x="17" y="9" onmousedown="handleZoom(evt,'in')"/>
                <use id="zoomminus" xlink:href="#zoomMin" x="42" y="9" onmousedown="handleZoom(evt,'out')"/>
                <use id="reset" xlink:href="#resetDef" x="30" y="36" onmousedown="handleReset()"/>
                <g id="arrowUp" xlink:href="#dirArrow" transform="translate(30 24)" onmousedown="handlePan(0,-1)">
                  <use xlink:href="#rim" fill="#404040">
                        <set attributeName="fill" to="#808080" begin="arrowUp.mouseover" end="arrowUp.mouseout"/>
                  </use>
                  <path fill="none" stroke="white" stroke-width="1.5" d="M0,-3.0v7 M-2.5,-0.5L0,-3.0L2.5,-0.5"/>
                </g>
                <g id="arrowRight" xlink:href="#dirArrow" transform="rotate(90) translate(36 -43)" onmousedown="handlePan(1,0)">
                  <use xlink:href="#rim" fill="#404040">
                        <set attributeName="fill" to="#808080" begin="arrowRight.mouseover" end="arrowRight.mouseout"/>
                  </use>
                  <path fill="none" stroke="white" stroke-width="1.5" d="M0,-3.0v7 M-2.5,-0.5L0,-3.0L2.5,-0.5"/>
                </g>
                <g id="arrowDown" xlink:href="#dirArrow" transform="rotate(180) translate(-30 -48)" onmousedown="handlePan(0,1)">
                  <use xlink:href="#rim" fill="#404040">
                        <set attributeName="fill" to="#808080" begin="arrowDown.mouseover" end="arrowDown.mouseout"/>
                  </use>
                  <path fill="none" stroke="white" stroke-width="1.5" d="M0,-3.0v7 M-2.5,-0.5L0,-3.0L2.5,-0.5"/>
                </g>
                <g id="arrowLeft" xlink:href="#dirArrow" transform="rotate(270) translate(-36 17)" onmousedown="handlePan(-1,0)">
                  <use xlink:href="#rim" fill="#404040">
                        <set attributeName="fill" to="#808080" begin="arrowLeft.mouseover" end="arrowLeft.mouseout"/>
                  </use>
                  <path fill="none" stroke="white" stroke-width="1.5" d="M0,-3.0v7 M-2.5,-0.5L0,-3.0L2.5,-0.5"/>
                </g>
        </g>
        <svg viewBox="0 0 15 15" width="100%" height="30px" preserveAspectRatio="xMaxYMin meet">
         <g id="arrow_out" transform="scale(0.3 0.3)">
          <a xlink:href="classad__framework_1_1application_1_1Application__coll__graph_org.svg" target="_base">
           <rect id="button" ry="5" rx="5" y="6" x="6" height="38" width="38"
                fill="#f2f5e9" fill-opacity="0.5" stroke="#606060" stroke-width="1.0"/>
           <path id="arrow"
             d="M 11.500037,31.436501 C 11.940474,20.09759 22.043105,11.32322 32.158766,21.979434 L 37.068811,17.246167 C 37.068811,17.246167 37.088388,32 37.088388,32 L 22.160133,31.978069 C 22.160133,31.978069 26.997745,27.140456 26.997745,27.140456 C 18.528582,18.264221 13.291696,25.230495 11.500037,31.436501 z"
             style="fill:#404040;"/>
          </a>
         </g>
        </svg>
</svg>
