<?xml version="1.0" encoding="UTF-8" standalone="no"?>
<!DOCTYPE svg PUBLIC "-//W3C//DTD SVG 1.1//EN"
 "http://www.w3.org/Graphics/SVG/1.1/DTD/svg11.dtd">
<!-- Generated by graphviz version 2.43.0 (0)
 -->
<!-- Title: ad_framework::data_structure::Frame Pages: 1 -->
<svg width="308pt" height="436pt"
 viewBox="0.00 0.00 308.00 436.00" xmlns="http://www.w3.org/2000/svg" xmlns:xlink="http://www.w3.org/1999/xlink">
<g id="graph0" class="graph" transform="scale(1 1) rotate(0) translate(4 432)">
<title>ad_framework::data_structure::Frame</title>
<polygon fill="white" stroke="transparent" points="-4,4 -4,-432 304,-432 304,4 -4,4"/>
<!-- Node1 -->
<g id="node1" class="node">
<title>Node1</title>
<g id="a_node1"><a xlink:title=" ">
<polygon fill="#bfbfbf" stroke="black" points="0,-0.5 0,-112.5 300,-112.5 300,-0.5 0,-0.5"/>
<text text-anchor="middle" x="150" y="-100.5" font-family="Helvetica,sans-Serif" font-size="10.00">ad_framework::data_structure::Frame</text>
<polyline fill="none" stroke="black" points="0,-93.5 300,-93.5 "/>
<text text-anchor="middle" x="150" y="-81.5" font-family="Helvetica,sans-Serif" font-size="10.00"> </text>
<polyline fill="none" stroke="black" points="0,-74.5 300,-74.5 "/>
<text text-anchor="start" x="8" y="-62.5" font-family="Helvetica,sans-Serif" font-size="10.00">+ Frame()=default</text>
<text text-anchor="start" x="8" y="-51.5" font-family="Helvetica,sans-Serif" font-size="10.00">+ Frame(const std::vector&lt; ShapePtr &gt; &amp;shapes)</text>
<text text-anchor="start" x="8" y="-40.5" font-family="Helvetica,sans-Serif" font-size="10.00">+ void AddShape(ShapePtr shape)</text>
<text text-anchor="start" x="8" y="-29.5" font-family="Helvetica,sans-Serif" font-size="10.00">+ void AddShape(const std::vector&lt; ShapePtr &gt; &amp;shapes)</text>
<text text-anchor="start" x="8" y="-18.5" font-family="Helvetica,sans-Serif" font-size="10.00">+ void Clear()</text>
<text text-anchor="start" x="8" y="-7.5" font-family="Helvetica,sans-Serif" font-size="10.00">+ std::vector&lt; ShapePtr &gt; GetShapes() const</text>
</a>
</g>
</g>
<!-- Node2 -->
<g id="node2" class="node">
<title>Node2</title>
<g id="a_node2"><a xlink:title=" ">
<polygon fill="white" stroke="#bfbfbf" points="83,-160.5 83,-217.5 217,-217.5 217,-160.5 83,-160.5"/>
<text text-anchor="middle" x="150" y="-205.5" font-family="Helvetica,sans-Serif" font-size="10.00">std::vector&lt; ShapePtr &gt;</text>
<polyline fill="none" stroke="#bfbfbf" points="83,-198.5 217,-198.5 "/>
<text text-anchor="middle" x="150" y="-186.5" font-family="Helvetica,sans-Serif" font-size="10.00"> </text>
<polyline fill="none" stroke="#bfbfbf" points="83,-179.5 217,-179.5 "/>
<text text-anchor="middle" x="150" y="-167.5" font-family="Helvetica,sans-Serif" font-size="10.00"> </text>
</a>
</g>
</g>
<!-- Node2&#45;&gt;Node1 -->
<g id="edge1" class="edge">
<title>Node2&#45;&gt;Node1</title>
<path fill="none" stroke="#404040" d="M150,-160.32C150,-149.78 150,-137.25 150,-124.62"/>
<polygon fill="none" stroke="#404040" points="150,-124.55 146,-118.55 150,-112.55 154,-118.55 150,-124.55"/>
<text text-anchor="middle" x="173.5" y="-134" font-family="Helvetica,sans-Serif" font-size="10.00"> &#45;shapes_</text>
</g>
<!-- Node3 -->
<g id="node3" class="node">
<title>Node3</title>
<g id="a_node3"><a xlink:title=" ">
<polygon fill="white" stroke="#bfbfbf" points="29,-265.5 29,-322.5 147,-322.5 147,-265.5 29,-265.5"/>
<text text-anchor="middle" x="88" y="-310.5" font-family="Helvetica,sans-Serif" font-size="10.00">std::shared_ptr&lt; T &gt;</text>
<polyline fill="none" stroke="#bfbfbf" points="29,-303.5 147,-303.5 "/>
<text text-anchor="middle" x="88" y="-291.5" font-family="Helvetica,sans-Serif" font-size="10.00"> </text>
<polyline fill="none" stroke="#bfbfbf" points="29,-284.5 147,-284.5 "/>
<text text-anchor="start" x="37" y="-272.5" font-family="Helvetica,sans-Serif" font-size="10.00">+ T * operator&#45;&gt;()</text>
</a>
</g>
</g>
<!-- Node3&#45;&gt;Node2 -->
<g id="edge2" class="edge">
<title>Node3&#45;&gt;Node2</title>
<path fill="none" stroke="#404040" d="M104.38,-265.43C109.95,-256.08 116.23,-245.57 122,-236 123.56,-233.41 125.18,-230.73 126.81,-228.04"/>
<polygon fill="none" stroke="#404040" points="126.85,-227.96 126.55,-220.76 133.08,-217.71 133.39,-224.91 126.85,-227.96"/>
<text text-anchor="middle" x="151" y="-239" font-family="Helvetica,sans-Serif" font-size="10.00"> +elements</text>
</g>
<!-- Node4 -->
<g id="node4" class="node">
<title>Node4</title>
<g id="a_node4"><a xlink:title=" ">
<polygon fill="white" stroke="#bfbfbf" points="136.5,-370.5 136.5,-427.5 165.5,-427.5 165.5,-370.5 136.5,-370.5"/>
<text text-anchor="middle" x="151" y="-415.5" font-family="Helvetica,sans-Serif" font-size="10.00">T</text>
<polyline fill="none" stroke="#bfbfbf" points="136.5,-408.5 165.5,-408.5 "/>
<text text-anchor="middle" x="151" y="-396.5" font-family="Helvetica,sans-Serif" font-size="10.00"> </text>
<polyline fill="none" stroke="#bfbfbf" points="136.5,-389.5 165.5,-389.5 "/>
<text text-anchor="middle" x="151" y="-377.5" font-family="Helvetica,sans-Serif" font-size="10.00"> </text>
</a>
</g>
</g>
<!-- Node4&#45;&gt;Node3 -->
<g id="edge3" class="edge">
<title>Node4&#45;&gt;Node3</title>
<path fill="none" stroke="#404040" d="M136.39,-374.11C128.99,-362.01 119.82,-347.03 111.47,-333.37"/>
<polygon fill="none" stroke="#404040" points="111.25,-333.01 104.7,-329.98 104.99,-322.77 111.53,-325.8 111.25,-333.01"/>
<text text-anchor="middle" x="134.5" y="-344" font-family="Helvetica,sans-Serif" font-size="10.00"> +ptr</text>
</g>
<!-- Node5 -->
<g id="node5" class="node">
<title>Node5</title>
<g id="a_node5"><a xlink:title=" ">
<polygon fill="white" stroke="#bfbfbf" points="165.5,-265.5 165.5,-322.5 262.5,-322.5 262.5,-265.5 165.5,-265.5"/>
<text text-anchor="middle" x="214" y="-310.5" font-family="Helvetica,sans-Serif" font-size="10.00">std::vector&lt; T &gt;</text>
<polyline fill="none" stroke="#bfbfbf" points="165.5,-303.5 262.5,-303.5 "/>
<text text-anchor="middle" x="214" y="-291.5" font-family="Helvetica,sans-Serif" font-size="10.00"> </text>
<polyline fill="none" stroke="#bfbfbf" points="165.5,-284.5 262.5,-284.5 "/>
<text text-anchor="middle" x="214" y="-272.5" font-family="Helvetica,sans-Serif" font-size="10.00"> </text>
</a>
</g>
</g>
<!-- Node4&#45;&gt;Node5 -->
<g id="edge5" class="edge">
<title>Node4&#45;&gt;Node5</title>
<path fill="none" stroke="#404040" d="M165.61,-374.11C173.01,-362.01 182.18,-347.03 190.53,-333.37"/>
<polygon fill="none" stroke="#404040" points="190.75,-333.01 190.47,-325.8 197.01,-322.77 197.3,-329.98 190.75,-333.01"/>
<text text-anchor="middle" x="214" y="-344" font-family="Helvetica,sans-Serif" font-size="10.00"> +elements</text>
</g>
<!-- Node5&#45;&gt;Node2 -->
<g id="edge4" class="edge">
<title>Node5&#45;&gt;Node2</title>
<path fill="none" stroke="orange" d="M192.39,-256.28C188.32,-249.51 184.07,-242.52 180,-236 176.26,-230.01 172.18,-223.65 168.27,-217.62"/>
<polygon fill="orange" stroke="orange" points="189.66,-258.53 197.79,-265.32 195.67,-254.94 189.66,-258.53"/>
<text text-anchor="middle" x="222" y="-239" font-family="Helvetica,sans-Serif" font-size="10.00"> &lt; ShapePtr &gt;</text>
</g>
</g>
</svg>
