<?xml version="1.0" encoding="UTF-8" standalone="no"?>
<!DOCTYPE svg PUBLIC "-//W3C//DTD SVG 1.1//EN"
 "http://www.w3.org/Graphics/SVG/1.1/DTD/svg11.dtd">
<!-- Generated by graphviz version 2.43.0 (0)
 -->
<!-- Title: ad_framework::ui::Button::operator() Pages: 1 -->
<svg width="460pt" height="142pt"
 viewBox="0.00 0.00 460.00 142.00" xmlns="http://www.w3.org/2000/svg" xmlns:xlink="http://www.w3.org/1999/xlink">
<g id="graph0" class="graph" transform="scale(1 1) rotate(0) translate(4 138)">
<title>ad_framework::ui::Button::operator()</title>
<polygon fill="white" stroke="transparent" points="-4,4 -4,-138 456,-138 456,4 -4,4"/>
<!-- Node1 -->
<g id="node1" class="node">
<title>Node1</title>
<g id="a_node1"><a xlink:title=" ">
<polygon fill="#bfbfbf" stroke="black" points="0,-57.5 0,-76.5 195,-76.5 195,-57.5 0,-57.5"/>
<text text-anchor="middle" x="97.5" y="-64.5" font-family="Helvetica,sans-Serif" font-size="10.00">ad_framework::ui::Button::operator()</text>
</a>
</g>
</g>
<!-- Node2 -->
<g id="node2" class="node">
<title>Node2</title>
<g id="a_node2"><a xlink:href="classad__framework_1_1ui_1_1UserInterface.html#a425b365380f3b505eac6e6c5861f6457" target="_top" xlink:title=" ">
<polygon fill="white" stroke="black" points="243,-114.5 243,-133.5 440,-133.5 440,-114.5 243,-114.5"/>
<text text-anchor="middle" x="341.5" y="-121.5" font-family="Helvetica,sans-Serif" font-size="10.00">ad_framework::ui::UserInterface::Pos</text>
</a>
</g>
</g>
<!-- Node1&#45;&gt;Node2 -->
<g id="edge1" class="edge">
<title>Node1&#45;&gt;Node2</title>
<path fill="none" stroke="midnightblue" d="M128.26,-76.53C154.96,-84.84 195.31,-96.81 231,-105 243.09,-107.77 256.02,-110.35 268.6,-112.66"/>
<polygon fill="midnightblue" stroke="midnightblue" points="268.13,-116.13 278.59,-114.45 269.37,-109.24 268.13,-116.13"/>
</g>
<!-- Node3 -->
<g id="node3" class="node">
<title>Node3</title>
<g id="a_node3"><a xlink:href="classad__framework_1_1ui_1_1UserInterface.html#a0870a4a98c6f112c02ee0ed3e3237b2d" target="_top" xlink:title=" ">
<polygon fill="white" stroke="black" points="231,-76.5 231,-95.5 452,-95.5 452,-76.5 231,-76.5"/>
<text text-anchor="middle" x="341.5" y="-83.5" font-family="Helvetica,sans-Serif" font-size="10.00">ad_framework::ui::UserInterface::Rename</text>
</a>
</g>
</g>
<!-- Node1&#45;&gt;Node3 -->
<g id="edge2" class="edge">
<title>Node1&#45;&gt;Node3</title>
<path fill="none" stroke="midnightblue" d="M195.19,-74.59C203.61,-75.25 212.2,-75.93 220.77,-76.6"/>
<polygon fill="midnightblue" stroke="midnightblue" points="220.58,-80.1 230.83,-77.39 221.13,-73.12 220.58,-80.1"/>
</g>
<!-- Node4 -->
<g id="node4" class="node">
<title>Node4</title>
<g id="a_node4"><a xlink:href="classad__framework_1_1ui_1_1UserInterface.html#a54aca8b9b70563522f1d992bc0d03f37" target="_top" xlink:title=" ">
<polygon fill="white" stroke="black" points="241.5,-38.5 241.5,-57.5 441.5,-57.5 441.5,-38.5 241.5,-38.5"/>
<text text-anchor="middle" x="341.5" y="-45.5" font-family="Helvetica,sans-Serif" font-size="10.00">ad_framework::ui::UserInterface::Size</text>
</a>
</g>
</g>
<!-- Node1&#45;&gt;Node4 -->
<g id="edge3" class="edge">
<title>Node1&#45;&gt;Node4</title>
<path fill="none" stroke="midnightblue" d="M195.19,-59.41C207.02,-58.48 219.17,-57.53 231.16,-56.58"/>
<polygon fill="midnightblue" stroke="midnightblue" points="231.5,-60.07 241.2,-55.8 230.95,-53.09 231.5,-60.07"/>
</g>
<!-- Node5 -->
<g id="node5" class="node">
<title>Node5</title>
<g id="a_node5"><a xlink:href="classad__framework_1_1ui_1_1UserInterface.html#acec7bc1f8dbcafa56a310a3be3a048fe" target="_top" xlink:title=" ">
<polygon fill="white" stroke="black" points="240.5,-0.5 240.5,-19.5 442.5,-19.5 442.5,-0.5 240.5,-0.5"/>
<text text-anchor="middle" x="341.5" y="-7.5" font-family="Helvetica,sans-Serif" font-size="10.00">ad_framework::ui::UserInterface::Title</text>
</a>
</g>
</g>
<!-- Node1&#45;&gt;Node5 -->
<g id="edge4" class="edge">
<title>Node1&#45;&gt;Node5</title>
<path fill="none" stroke="midnightblue" d="M128.26,-57.47C154.96,-49.16 195.31,-37.19 231,-29 243.09,-26.23 256.02,-23.65 268.6,-21.34"/>
<polygon fill="midnightblue" stroke="midnightblue" points="269.37,-24.76 278.59,-19.55 268.13,-17.87 269.37,-24.76"/>
</g>
</g>
</svg>
