<?xml version="1.0" encoding="UTF-8" standalone="no"?>
<!DOCTYPE svg PUBLIC "-//W3C//DTD SVG 1.1//EN"
 "http://www.w3.org/Graphics/SVG/1.1/DTD/svg11.dtd">
<!-- Generated by graphviz version 2.43.0 (0)
 -->
<!-- Title: ad_framework::application::Pannel::Render Pages: 1 -->
<svg width="539pt" height="104pt"
 viewBox="0.00 0.00 539.00 104.00" xmlns="http://www.w3.org/2000/svg" xmlns:xlink="http://www.w3.org/1999/xlink">
<g id="graph0" class="graph" transform="scale(1 1) rotate(0) translate(4 100)">
<title>ad_framework::application::Pannel::Render</title>
<polygon fill="white" stroke="transparent" points="-4,4 -4,-100 535,-100 535,4 -4,4"/>
<!-- Node1 -->
<g id="node1" class="node">
<title>Node1</title>
<g id="a_node1"><a xlink:title=" ">
<polygon fill="#bfbfbf" stroke="black" points="0,-38.5 0,-57.5 226,-57.5 226,-38.5 0,-38.5"/>
<text text-anchor="middle" x="113" y="-45.5" font-family="Helvetica,sans-Serif" font-size="10.00">ad_framework::application::Pannel::Render</text>
</a>
</g>
</g>
<!-- Node2 -->
<g id="node2" class="node">
<title>Node2</title>
<g id="a_node2"><a xlink:href="classad__framework_1_1application_1_1Pannel.html#a72b56678db8b72eb6621aa8bc911b3e0" target="_top" xlink:title=" ">
<polygon fill="white" stroke="black" points="262,-76.5 262,-95.5 531,-95.5 531,-76.5 262,-76.5"/>
<text text-anchor="middle" x="396.5" y="-83.5" font-family="Helvetica,sans-Serif" font-size="10.00">ad_framework::application::Pannel::RenderInterface</text>
</a>
</g>
</g>
<!-- Node1&#45;&gt;Node2 -->
<g id="edge1" class="edge">
<title>Node1&#45;&gt;Node2</title>
<path fill="none" stroke="midnightblue" d="M184.67,-57.54C224.24,-62.88 273.73,-69.56 314.82,-75.11"/>
<polygon fill="midnightblue" stroke="midnightblue" points="314.42,-78.59 324.8,-76.46 315.36,-71.65 314.42,-78.59"/>
</g>
<!-- Node3 -->
<g id="node3" class="node">
<title>Node3</title>
<g id="a_node3"><a xlink:href="classad__framework_1_1application_1_1Pannel.html#a33dabb5aa7f594264e8c8c90bc118a98" target="_top" xlink:title=" ">
<polygon fill="white" stroke="black" points="273.5,-38.5 273.5,-57.5 519.5,-57.5 519.5,-38.5 273.5,-38.5"/>
<text text-anchor="middle" x="396.5" y="-45.5" font-family="Helvetica,sans-Serif" font-size="10.00">ad_framework::application::Pannel::SetPosition</text>
</a>
</g>
</g>
<!-- Node1&#45;&gt;Node3 -->
<g id="edge2" class="edge">
<title>Node1&#45;&gt;Node3</title>
<path fill="none" stroke="midnightblue" d="M226.07,-48C238.16,-48 250.56,-48 262.87,-48"/>
<polygon fill="midnightblue" stroke="midnightblue" points="263.18,-51.5 273.18,-48 263.18,-44.5 263.18,-51.5"/>
</g>
<!-- Node4 -->
<g id="node4" class="node">
<title>Node4</title>
<g id="a_node4"><a xlink:href="classad__framework_1_1application_1_1Pannel.html#a78254446b0666d06e18517840f391fc0" target="_top" xlink:title=" ">
<polygon fill="white" stroke="black" points="283,-0.5 283,-19.5 510,-19.5 510,-0.5 283,-0.5"/>
<text text-anchor="middle" x="396.5" y="-7.5" font-family="Helvetica,sans-Serif" font-size="10.00">ad_framework::application::Pannel::SetSize</text>
</a>
</g>
</g>
<!-- Node1&#45;&gt;Node4 -->
<g id="edge3" class="edge">
<title>Node1&#45;&gt;Node4</title>
<path fill="none" stroke="midnightblue" d="M184.67,-38.46C224.24,-33.12 273.73,-26.44 314.82,-20.89"/>
<polygon fill="midnightblue" stroke="midnightblue" points="315.36,-24.35 324.8,-19.54 314.42,-17.41 315.36,-24.35"/>
</g>
</g>
</svg>
