<?xml version="1.0" encoding="UTF-8" standalone="no"?>
<!DOCTYPE svg PUBLIC "-//W3C//DTD SVG 1.1//EN"
 "http://www.w3.org/Graphics/SVG/1.1/DTD/svg11.dtd">
<!-- Generated by graphviz version 2.43.0 (0)
 -->
<!-- Title: ad_framework::application::DataLoader Pages: 1 -->
<!--zoomable 480 -->
<svg id="main" version="1.1" xmlns="http://www.w3.org/2000/svg" xmlns:xlink="http://www.w3.org/1999/xlink" xml:space="preserve" onload="init(evt)">
<style type="text/css"><![CDATA[
.edge:hover path { stroke: red; }
.edge:hover polygon { stroke: red; fill: red; }
]]></style>
<script type="text/javascript"><![CDATA[
var edges = document.getElementsByTagName('g');
if (edges && edges.length) {
  for (var i=0;i<edges.length;i++) {
    if (edges[i].id.substr(0,4)=='edge') {
      edges[i].setAttribute('class','edge');
    }
  }
}
]]></script>
        <defs>
                <circle id="rim" cx="0" cy="0" r="7"/>
                <circle id="rim2" cx="0" cy="0" r="3.5"/>
                <g id="zoomPlus">
                        <use xlink:href="#rim" fill="#404040">
                                <set attributeName="fill" to="#808080" begin="zoomplus.mouseover" end="zoomplus.mouseout"/>
                        </use>
                        <path d="M-4,0h8M0,-4v8" fill="none" stroke="white" stroke-width="1.5" pointer-events="none"/>
                </g>
                <g id="zoomMin">
                        <use xlink:href="#rim" fill="#404040">
                                <set attributeName="fill" to="#808080" begin="zoomminus.mouseover" end="zoomminus.mouseout"/>
                        </use>
                        <path d="M-4,0h8" fill="none" stroke="white" stroke-width="1.5" pointer-events="none"/>
                </g>
                <g id="dirArrow">
                        <path fill="none" stroke="white" stroke-width="1.5" d="M0,-3.0v7 M-2.5,-0.5L0,-3.0L2.5,-0.5"/>
                </g>
               <g id="resetDef">
                       <use xlink:href="#rim2" fill="#404040">
                               <set attributeName="fill" to="#808080" begin="reset.mouseover" end="reset.mouseout"/>
                       </use>
               </g>
        </defs>

<script type="text/javascript">
var viewWidth = 1122;
var viewHeight = 480;
var sectionId = 'dynsection-0';
</script>
<script xlink:href="svgpan.js"/>
<svg id="graph" class="graph">
<g id="viewport">
<title>ad_framework::application::DataLoader</title>
<polygon fill="white" stroke="transparent" points="-4,4 -4,-476 1118,-476 1118,4 -4,4"/>
<!-- Node1 -->
<g id="node1" class="node">
<title>Node1</title>
<g id="a_node1"><a xlink:title=" ">
<polygon fill="#bfbfbf" stroke="black" points="327.5,-0.5 327.5,-156.5 623.5,-156.5 623.5,-0.5 327.5,-0.5"/>
<text text-anchor="middle" x="475.5" y="-144.5" font-family="Helvetica,sans-Serif" font-size="10.00">ad_framework::application::DataLoader</text>
<polyline fill="none" stroke="black" points="327.5,-137.5 623.5,-137.5 "/>
<text text-anchor="middle" x="475.5" y="-125.5" font-family="Helvetica,sans-Serif" font-size="10.00"> </text>
<polyline fill="none" stroke="black" points="327.5,-118.5 623.5,-118.5 "/>
<text text-anchor="start" x="335.5" y="-106.5" font-family="Helvetica,sans-Serif" font-size="10.00">+ DataLoader()</text>
<text text-anchor="start" x="335.5" y="-95.5" font-family="Helvetica,sans-Serif" font-size="10.00">+ ~DataLoader()=default</text>
<text text-anchor="start" x="335.5" y="-84.5" font-family="Helvetica,sans-Serif" font-size="10.00">+ const SequencePathList &amp; GetSequencePathList() const</text>
<text text-anchor="start" x="335.5" y="-73.5" font-family="Helvetica,sans-Serif" font-size="10.00">+ DatasetPathMap GetCandidateMap() const</text>
<text text-anchor="start" x="335.5" y="-62.5" font-family="Helvetica,sans-Serif" font-size="10.00">+ DatasetType GetDatasetType() const</text>
<text text-anchor="start" x="335.5" y="-51.5" font-family="Helvetica,sans-Serif" font-size="10.00">+ void SelectType(DatasetType type)</text>
<text text-anchor="start" x="335.5" y="-40.5" font-family="Helvetica,sans-Serif" font-size="10.00">+ void FindSequences(DatasetType type)</text>
<text text-anchor="start" x="335.5" y="-29.5" font-family="Helvetica,sans-Serif" font-size="10.00">+ void SelectSequence(size_t index)</text>
<text text-anchor="start" x="335.5" y="-18.5" font-family="Helvetica,sans-Serif" font-size="10.00">+ fs::path GetSelectedPath() const</text>
<text text-anchor="start" x="335.5" y="-7.5" font-family="Helvetica,sans-Serif" font-size="10.00">&#45; void FindCandidates()</text>
</a>
</g>
</g>
<!-- Node2 -->
<g id="node2" class="node">
<title>Node2</title>
<g id="a_node2"><a xlink:title=" ">
<polygon fill="white" stroke="#bfbfbf" points="0,-309.5 0,-366.5 77,-366.5 77,-309.5 0,-309.5"/>
<text text-anchor="middle" x="38.5" y="-354.5" font-family="Helvetica,sans-Serif" font-size="10.00">DatasetType</text>
<polyline fill="none" stroke="#bfbfbf" points="0,-347.5 77,-347.5 "/>
<text text-anchor="middle" x="38.5" y="-335.5" font-family="Helvetica,sans-Serif" font-size="10.00"> </text>
<polyline fill="none" stroke="#bfbfbf" points="0,-328.5 77,-328.5 "/>
<text text-anchor="middle" x="38.5" y="-316.5" font-family="Helvetica,sans-Serif" font-size="10.00"> </text>
</a>
</g>
</g>
<!-- Node2&#45;&gt;Node1 -->
<g id="edge1" class="edge">
<title>Node2&#45;&gt;Node1</title>
<path fill="none" stroke="#404040" d="M37.51,-309.36C37.9,-280.21 42.72,-234.38 66.5,-204 98.1,-163.62 214.71,-130.57 315.37,-108.69"/>
<polygon fill="none" stroke="#404040" points="315.52,-108.66 320.54,-103.49 327.25,-106.14 322.22,-111.31 315.52,-108.66"/>
<text text-anchor="middle" x="83.5" y="-230.5" font-family="Helvetica,sans-Serif" font-size="10.00"> &#45;type_</text>
</g>
<!-- Node3 -->
<g id="node3" class="node">
<title>Node3</title>
<g id="a_node3"><a xlink:title=" ">
<polygon fill="white" stroke="#bfbfbf" points="199.5,-204.5 199.5,-261.5 439.5,-261.5 439.5,-204.5 199.5,-204.5"/>
<text text-anchor="middle" x="319.5" y="-249.5" font-family="Helvetica,sans-Serif" font-size="10.00">std::unordered_map&lt; DatasetType, fs::path &gt;</text>
<polyline fill="none" stroke="#bfbfbf" points="199.5,-242.5 439.5,-242.5 "/>
<text text-anchor="middle" x="319.5" y="-230.5" font-family="Helvetica,sans-Serif" font-size="10.00"> </text>
<polyline fill="none" stroke="#bfbfbf" points="199.5,-223.5 439.5,-223.5 "/>
<text text-anchor="middle" x="319.5" y="-211.5" font-family="Helvetica,sans-Serif" font-size="10.00"> </text>
</a>
</g>
</g>
<!-- Node2&#45;&gt;Node3 -->
<g id="edge3" class="edge">
<title>Node2&#45;&gt;Node3</title>
<path fill="none" stroke="#404040" d="M75.03,-309.34C90.28,-298.88 108.59,-287.66 126.5,-280 138.86,-274.71 161.62,-268.37 187.29,-262.11"/>
<polygon fill="none" stroke="#404040" points="187.59,-262.04 192.5,-256.75 199.27,-259.25 194.36,-264.54 187.59,-262.04"/>
<text text-anchor="middle" x="143.5" y="-283" font-family="Helvetica,sans-Serif" font-size="10.00"> +keys</text>
</g>
<!-- Node3&#45;&gt;Node1 -->
<g id="edge2" class="edge">
<title>Node3&#45;&gt;Node1</title>
<path fill="none" stroke="#404040" d="M344.99,-204.43C353.89,-194.98 364.03,-184.42 373.5,-175 376.7,-171.82 379.97,-168.6 383.29,-165.36"/>
<polygon fill="none" stroke="#404040" points="383.55,-165.11 385.07,-158.06 392.16,-156.75 390.64,-163.8 383.55,-165.11"/>
<text text-anchor="middle" x="417.5" y="-178" font-family="Helvetica,sans-Serif" font-size="10.00"> &#45;candidate_map_</text>
</g>
<!-- Node4 -->
<g id="node4" class="node">
<title>Node4</title>
<g id="a_node4"><a xlink:title=" ">
<polygon fill="white" stroke="#bfbfbf" points="149.5,-309.5 149.5,-366.5 187.5,-366.5 187.5,-309.5 149.5,-309.5"/>
<text text-anchor="middle" x="168.5" y="-354.5" font-family="Helvetica,sans-Serif" font-size="10.00">path</text>
<polyline fill="none" stroke="#bfbfbf" points="149.5,-347.5 187.5,-347.5 "/>
<text text-anchor="middle" x="168.5" y="-335.5" font-family="Helvetica,sans-Serif" font-size="10.00"> </text>
<polyline fill="none" stroke="#bfbfbf" points="149.5,-328.5 187.5,-328.5 "/>
<text text-anchor="middle" x="168.5" y="-316.5" font-family="Helvetica,sans-Serif" font-size="10.00"> </text>
</a>
</g>
</g>
<!-- Node4&#45;&gt;Node1 -->
<g id="edge8" class="edge">
<title>Node4&#45;&gt;Node1</title>
<path fill="none" stroke="#404040" d="M149.27,-318.05C124.2,-290.98 86.44,-240.49 112.5,-204 158.81,-139.16 241.08,-107.73 315.6,-92.64"/>
<polygon fill="none" stroke="#404040" points="315.71,-92.62 320.84,-87.56 327.49,-90.36 322.35,-95.42 315.71,-92.62"/>
<text text-anchor="middle" x="151.5" y="-236" font-family="Helvetica,sans-Serif" font-size="10.00"> &#45;base_path_</text>
<text text-anchor="middle" x="151.5" y="-225" font-family="Helvetica,sans-Serif" font-size="10.00">&#45;selected_path_</text>
</g>
<!-- Node4&#45;&gt;Node3 -->
<g id="edge4" class="edge">
<title>Node4&#45;&gt;Node3</title>
<path fill="none" stroke="#404040" d="M162.59,-309.28C161.98,-299.17 163.31,-288.22 169.5,-280 174.96,-272.74 181.55,-266.6 188.87,-261.4"/>
<polygon fill="none" stroke="#404040" points="189.11,-261.25 192.07,-254.67 199.27,-254.87 196.32,-261.45 189.11,-261.25"/>
<text text-anchor="middle" x="198.5" y="-283" font-family="Helvetica,sans-Serif" font-size="10.00"> +elements</text>
</g>
<!-- Node15 -->
<g id="node15" class="node">
<title>Node15</title>
<g id="a_node15"><a xlink:title=" ">
<polygon fill="white" stroke="#bfbfbf" points="607.5,-204.5 607.5,-261.5 735.5,-261.5 735.5,-204.5 607.5,-204.5"/>
<text text-anchor="middle" x="671.5" y="-249.5" font-family="Helvetica,sans-Serif" font-size="10.00">std::vector&lt; fs::path &gt;</text>
<polyline fill="none" stroke="#bfbfbf" points="607.5,-242.5 735.5,-242.5 "/>
<text text-anchor="middle" x="671.5" y="-230.5" font-family="Helvetica,sans-Serif" font-size="10.00"> </text>
<polyline fill="none" stroke="#bfbfbf" points="607.5,-223.5 735.5,-223.5 "/>
<text text-anchor="middle" x="671.5" y="-211.5" font-family="Helvetica,sans-Serif" font-size="10.00"> </text>
</a>
</g>
</g>
<!-- Node4&#45;&gt;Node15 -->
<g id="edge19" class="edge">
<title>Node4&#45;&gt;Node15</title>
<path fill="none" stroke="#404040" d="M187.81,-334.78C248.37,-327.57 439.62,-302.88 593.5,-262 594.06,-261.85 594.61,-261.7 595.17,-261.55"/>
<polygon fill="none" stroke="#404040" points="595.55,-261.44 600.19,-255.92 607.07,-258.08 602.43,-263.6 595.55,-261.44"/>
<text text-anchor="middle" x="542.5" y="-283" font-family="Helvetica,sans-Serif" font-size="10.00"> +elements</text>
</g>
<!-- Node5 -->
<g id="node5" class="node">
<title>Node5</title>
<g id="a_node5"><a xlink:title=" ">
<polygon fill="white" stroke="#bfbfbf" points="398,-309.5 398,-366.5 553,-366.5 553,-309.5 398,-309.5"/>
<text text-anchor="middle" x="475.5" y="-354.5" font-family="Helvetica,sans-Serif" font-size="10.00">std::unordered_map&lt; K, T &gt;</text>
<polyline fill="none" stroke="#bfbfbf" points="398,-347.5 553,-347.5 "/>
<text text-anchor="middle" x="475.5" y="-335.5" font-family="Helvetica,sans-Serif" font-size="10.00"> </text>
<polyline fill="none" stroke="#bfbfbf" points="398,-328.5 553,-328.5 "/>
<text text-anchor="middle" x="475.5" y="-316.5" font-family="Helvetica,sans-Serif" font-size="10.00"> </text>
</a>
</g>
</g>
<!-- Node5&#45;&gt;Node1 -->
<g id="edge21" class="edge">
<title>Node5&#45;&gt;Node1</title>
<path fill="none" stroke="#404040" d="M475.5,-309.44C475.5,-276 475.5,-217.96 475.5,-168.55"/>
<polygon fill="none" stroke="#404040" points="475.5,-168.53 471.5,-162.53 475.5,-156.53 479.5,-162.53 475.5,-168.53"/>
<text text-anchor="middle" x="532.5" y="-236" font-family="Helvetica,sans-Serif" font-size="10.00"> &#45;kDatasetNameToType</text>
<text text-anchor="middle" x="532.5" y="-225" font-family="Helvetica,sans-Serif" font-size="10.00">&#45;kDatasetTypeToName</text>
</g>
<!-- Node5&#45;&gt;Node3 -->
<g id="edge5" class="edge">
<title>Node5&#45;&gt;Node3</title>
<path fill="none" stroke="orange" d="M387.71,-330.33C332.28,-324.08 267.94,-312.37 250.5,-291 241.85,-280.41 247.31,-270.36 258.18,-261.74"/>
<polygon fill="orange" stroke="orange" points="387.63,-333.84 397.94,-331.43 388.38,-326.88 387.63,-333.84"/>
<text text-anchor="middle" x="315.5" y="-283" font-family="Helvetica,sans-Serif" font-size="10.00"> &lt; DatasetType, fs::path &gt;</text>
</g>
<!-- Node6 -->
<g id="node6" class="node">
<title>Node6</title>
<g id="a_node6"><a xlink:title=" ">
<polygon fill="white" stroke="#bfbfbf" points="461,-414.5 461,-471.5 490,-471.5 490,-414.5 461,-414.5"/>
<text text-anchor="middle" x="475.5" y="-459.5" font-family="Helvetica,sans-Serif" font-size="10.00">K</text>
<polyline fill="none" stroke="#bfbfbf" points="461,-452.5 490,-452.5 "/>
<text text-anchor="middle" x="475.5" y="-440.5" font-family="Helvetica,sans-Serif" font-size="10.00"> </text>
<polyline fill="none" stroke="#bfbfbf" points="461,-433.5 490,-433.5 "/>
<text text-anchor="middle" x="475.5" y="-421.5" font-family="Helvetica,sans-Serif" font-size="10.00"> </text>
</a>
</g>
</g>
<!-- Node6&#45;&gt;Node5 -->
<g id="edge6" class="edge">
<title>Node6&#45;&gt;Node5</title>
<path fill="none" stroke="#404040" d="M475.5,-414.4C475.5,-403.55 475.5,-390.87 475.5,-379.05"/>
<polygon fill="none" stroke="#404040" points="475.5,-378.68 471.5,-372.68 475.5,-366.68 479.5,-372.68 475.5,-378.68"/>
<text text-anchor="middle" x="492.5" y="-388" font-family="Helvetica,sans-Serif" font-size="10.00"> +keys</text>
</g>
<!-- Node7 -->
<g id="node7" class="node">
<title>Node7</title>
<g id="a_node7"><a xlink:title=" ">
<polygon fill="white" stroke="#bfbfbf" points="631,-414.5 631,-471.5 660,-471.5 660,-414.5 631,-414.5"/>
<text text-anchor="middle" x="645.5" y="-459.5" font-family="Helvetica,sans-Serif" font-size="10.00">T</text>
<polyline fill="none" stroke="#bfbfbf" points="631,-452.5 660,-452.5 "/>
<text text-anchor="middle" x="645.5" y="-440.5" font-family="Helvetica,sans-Serif" font-size="10.00"> </text>
<polyline fill="none" stroke="#bfbfbf" points="631,-433.5 660,-433.5 "/>
<text text-anchor="middle" x="645.5" y="-421.5" font-family="Helvetica,sans-Serif" font-size="10.00"> </text>
</a>
</g>
</g>
<!-- Node7&#45;&gt;Node5 -->
<g id="edge7" class="edge">
<title>Node7&#45;&gt;Node5</title>
<path fill="none" stroke="#404040" d="M630.71,-433.04C608.82,-419.78 566.63,-394.21 531.75,-373.08"/>
<polygon fill="none" stroke="#404040" points="531.46,-372.9 524.25,-373.22 521.2,-366.69 528.4,-366.37 531.46,-372.9"/>
<text text-anchor="middle" x="595.5" y="-388" font-family="Helvetica,sans-Serif" font-size="10.00"> +elements</text>
</g>
<!-- Node10 -->
<g id="node10" class="node">
<title>Node10</title>
<g id="a_node10"><a xlink:title=" ">
<polygon fill="white" stroke="#bfbfbf" points="848.5,-309.5 848.5,-366.5 940.5,-366.5 940.5,-309.5 848.5,-309.5"/>
<text text-anchor="middle" x="894.5" y="-354.5" font-family="Helvetica,sans-Serif" font-size="10.00">std::array&lt; T &gt;</text>
<polyline fill="none" stroke="#bfbfbf" points="848.5,-347.5 940.5,-347.5 "/>
<text text-anchor="middle" x="894.5" y="-335.5" font-family="Helvetica,sans-Serif" font-size="10.00"> </text>
<polyline fill="none" stroke="#bfbfbf" points="848.5,-328.5 940.5,-328.5 "/>
<text text-anchor="middle" x="894.5" y="-316.5" font-family="Helvetica,sans-Serif" font-size="10.00"> </text>
</a>
</g>
</g>
<!-- Node7&#45;&gt;Node10 -->
<g id="edge12" class="edge">
<title>Node7&#45;&gt;Node10</title>
<path fill="none" stroke="#404040" d="M660.33,-435.87C694.29,-421.82 779.21,-386.69 836.89,-362.83"/>
<polygon fill="none" stroke="#404040" points="836.95,-362.81 840.97,-356.82 848.04,-358.22 844.02,-364.21 836.95,-362.81"/>
<text text-anchor="middle" x="806.5" y="-388" font-family="Helvetica,sans-Serif" font-size="10.00"> +elements</text>
</g>
<!-- Node14 -->
<g id="node14" class="node">
<title>Node14</title>
<g id="a_node14"><a xlink:title=" ">
<polygon fill="white" stroke="#bfbfbf" points="597,-309.5 597,-366.5 694,-366.5 694,-309.5 597,-309.5"/>
<text text-anchor="middle" x="645.5" y="-354.5" font-family="Helvetica,sans-Serif" font-size="10.00">std::vector&lt; T &gt;</text>
<polyline fill="none" stroke="#bfbfbf" points="597,-347.5 694,-347.5 "/>
<text text-anchor="middle" x="645.5" y="-335.5" font-family="Helvetica,sans-Serif" font-size="10.00"> </text>
<polyline fill="none" stroke="#bfbfbf" points="597,-328.5 694,-328.5 "/>
<text text-anchor="middle" x="645.5" y="-316.5" font-family="Helvetica,sans-Serif" font-size="10.00"> </text>
</a>
</g>
</g>
<!-- Node7&#45;&gt;Node14 -->
<g id="edge17" class="edge">
<title>Node7&#45;&gt;Node14</title>
<path fill="none" stroke="#404040" d="M645.5,-414.4C645.5,-403.55 645.5,-390.87 645.5,-379.05"/>
<polygon fill="none" stroke="#404040" points="645.5,-378.68 641.5,-372.68 645.5,-366.68 649.5,-372.68 645.5,-378.68"/>
<text text-anchor="middle" x="674.5" y="-388" font-family="Helvetica,sans-Serif" font-size="10.00"> +elements</text>
</g>
<!-- Node8 -->
<g id="node8" class="node">
<title>Node8</title>
<g id="a_node8"><a xlink:title=" ">
<polygon fill="white" stroke="#bfbfbf" points="753.5,-204.5 753.5,-261.5 909.5,-261.5 909.5,-204.5 753.5,-204.5"/>
<text text-anchor="middle" x="831.5" y="-249.5" font-family="Helvetica,sans-Serif" font-size="10.00">std::array&lt; const char *, 5 &gt;</text>
<polyline fill="none" stroke="#bfbfbf" points="753.5,-242.5 909.5,-242.5 "/>
<text text-anchor="middle" x="831.5" y="-230.5" font-family="Helvetica,sans-Serif" font-size="10.00"> </text>
<polyline fill="none" stroke="#bfbfbf" points="753.5,-223.5 909.5,-223.5 "/>
<text text-anchor="middle" x="831.5" y="-211.5" font-family="Helvetica,sans-Serif" font-size="10.00"> </text>
</a>
</g>
</g>
<!-- Node8&#45;&gt;Node1 -->
<g id="edge9" class="edge">
<title>Node8&#45;&gt;Node1</title>
<path fill="none" stroke="#404040" d="M779.38,-204.44C760.4,-194.74 738.66,-184.02 718.5,-175 691.65,-162.98 662.81,-150.93 634.69,-139.62"/>
<polygon fill="none" stroke="#404040" points="634.69,-139.61 627.63,-141.1 623.55,-135.15 630.6,-133.67 634.69,-139.61"/>
<text text-anchor="middle" x="763.5" y="-178" font-family="Helvetica,sans-Serif" font-size="10.00"> +kItems</text>
</g>
<!-- Node9 -->
<g id="node9" class="node">
<title>Node9</title>
<g id="a_node9"><a xlink:title=" ">
<polygon fill="white" stroke="#bfbfbf" points="712,-309.5 712,-366.5 787,-366.5 787,-309.5 712,-309.5"/>
<text text-anchor="middle" x="749.5" y="-354.5" font-family="Helvetica,sans-Serif" font-size="10.00">const char *</text>
<polyline fill="none" stroke="#bfbfbf" points="712,-347.5 787,-347.5 "/>
<text text-anchor="middle" x="749.5" y="-335.5" font-family="Helvetica,sans-Serif" font-size="10.00"> </text>
<polyline fill="none" stroke="#bfbfbf" points="712,-328.5 787,-328.5 "/>
<text text-anchor="middle" x="749.5" y="-316.5" font-family="Helvetica,sans-Serif" font-size="10.00"> </text>
</a>
</g>
</g>
<!-- Node9&#45;&gt;Node8 -->
<g id="edge10" class="edge">
<title>Node9&#45;&gt;Node8</title>
<path fill="none" stroke="#404040" d="M741.25,-309.36C739.88,-299.49 740.3,-288.68 745.5,-280 747.7,-276.33 750.3,-272.94 753.21,-269.8"/>
<polygon fill="none" stroke="#404040" points="753.27,-269.74 754.99,-262.74 762.11,-261.63 760.39,-268.63 753.27,-269.74"/>
<text text-anchor="middle" x="774.5" y="-283" font-family="Helvetica,sans-Serif" font-size="10.00"> +elements</text>
</g>
<!-- Node10&#45;&gt;Node8 -->
<g id="edge11" class="edge">
<title>Node10&#45;&gt;Node8</title>
<path fill="none" stroke="orange" d="M905.5,-299.07C905.68,-292.44 904.64,-285.82 901.5,-280 897.7,-272.96 892.31,-266.82 886.17,-261.52"/>
<polygon fill="orange" stroke="orange" points="901.99,-299.03 904.35,-309.36 908.94,-299.82 901.99,-299.03"/>
<text text-anchor="middle" x="953" y="-283" font-family="Helvetica,sans-Serif" font-size="10.00"> &lt; const char *, 5 &gt;</text>
</g>
<!-- Node11 -->
<g id="node11" class="node">
<title>Node11</title>
<g id="a_node11"><a xlink:title=" ">
<polygon fill="white" stroke="#bfbfbf" points="927.5,-204.5 927.5,-261.5 1067.5,-261.5 1067.5,-204.5 927.5,-204.5"/>
<text text-anchor="middle" x="997.5" y="-249.5" font-family="Helvetica,sans-Serif" font-size="10.00">std::vector&lt; std::string &gt;</text>
<polyline fill="none" stroke="#bfbfbf" points="927.5,-242.5 1067.5,-242.5 "/>
<text text-anchor="middle" x="997.5" y="-230.5" font-family="Helvetica,sans-Serif" font-size="10.00"> </text>
<polyline fill="none" stroke="#bfbfbf" points="927.5,-223.5 1067.5,-223.5 "/>
<text text-anchor="middle" x="997.5" y="-211.5" font-family="Helvetica,sans-Serif" font-size="10.00"> </text>
</a>
</g>
</g>
<!-- Node11&#45;&gt;Node1 -->
<g id="edge13" class="edge">
<title>Node11&#45;&gt;Node1</title>
<path fill="none" stroke="#404040" d="M927.37,-206.87C924.38,-205.89 921.41,-204.92 918.5,-204 825.32,-174.43 720,-144.68 635.44,-121.68"/>
<polygon fill="none" stroke="#404040" points="635.23,-121.63 628.39,-123.91 623.65,-118.48 630.48,-116.19 635.23,-121.63"/>
<text text-anchor="middle" x="914.5" y="-178" font-family="Helvetica,sans-Serif" font-size="10.00"> &#45;sequence_name_list_</text>
</g>
<!-- Node12 -->
<g id="node12" class="node">
<title>Node12</title>
<g id="a_node12"><a xlink:title=" ">
<polygon fill="white" stroke="#bfbfbf" points="1011,-309.5 1011,-366.5 1076,-366.5 1076,-309.5 1011,-309.5"/>
<text text-anchor="middle" x="1043.5" y="-354.5" font-family="Helvetica,sans-Serif" font-size="10.00">std::string</text>
<polyline fill="none" stroke="#bfbfbf" points="1011,-347.5 1076,-347.5 "/>
<text text-anchor="middle" x="1043.5" y="-335.5" font-family="Helvetica,sans-Serif" font-size="10.00"> </text>
<polyline fill="none" stroke="#bfbfbf" points="1011,-328.5 1076,-328.5 "/>
<text text-anchor="middle" x="1043.5" y="-316.5" font-family="Helvetica,sans-Serif" font-size="10.00"> </text>
</a>
</g>
</g>
<!-- Node12&#45;&gt;Node11 -->
<g id="edge14" class="edge">
<title>Node12&#45;&gt;Node11</title>
<path fill="none" stroke="#404040" d="M1033.6,-309.49C1030.01,-300.05 1025.78,-289.47 1021.5,-280 1020.46,-277.69 1019.35,-275.34 1018.21,-272.97"/>
<polygon fill="none" stroke="#404040" points="1018.09,-272.71 1011.83,-269.13 1012.73,-261.97 1018.99,-265.56 1018.09,-272.71"/>
<text text-anchor="middle" x="1054.5" y="-283" font-family="Helvetica,sans-Serif" font-size="10.00"> +elements</text>
</g>
<!-- Node13 -->
<g id="node13" class="node">
<title>Node13</title>
<g id="a_node13"><a xlink:title=" ">
<polygon fill="white" stroke="#bfbfbf" points="973,-414.5 973,-471.5 1114,-471.5 1114,-414.5 973,-414.5"/>
<text text-anchor="middle" x="1043.5" y="-459.5" font-family="Helvetica,sans-Serif" font-size="10.00">std::basic_string&lt; Char &gt;</text>
<polyline fill="none" stroke="#bfbfbf" points="973,-452.5 1114,-452.5 "/>
<text text-anchor="middle" x="1043.5" y="-440.5" font-family="Helvetica,sans-Serif" font-size="10.00"> </text>
<polyline fill="none" stroke="#bfbfbf" points="973,-433.5 1114,-433.5 "/>
<text text-anchor="middle" x="1043.5" y="-421.5" font-family="Helvetica,sans-Serif" font-size="10.00"> </text>
</a>
</g>
</g>
<!-- Node13&#45;&gt;Node12 -->
<g id="edge15" class="edge">
<title>Node13&#45;&gt;Node12</title>
<path fill="none" stroke="midnightblue" d="M1043.5,-404.29C1043.5,-391.84 1043.5,-378.23 1043.5,-366.68"/>
<polygon fill="none" stroke="midnightblue" points="1040,-404.4 1043.5,-414.4 1047,-404.4 1040,-404.4"/>
</g>
<!-- Node14&#45;&gt;Node11 -->
<g id="edge16" class="edge">
<title>Node14&#45;&gt;Node11</title>
<path fill="none" stroke="orange" d="M704.07,-308.92C747.93,-296.26 763.52,-305.62 803.5,-291 812.66,-287.65 813.35,-283.39 822.5,-280 863.2,-264.91 876.58,-273.28 918.5,-262 921.45,-261.21 924.45,-260.35 927.47,-259.46"/>
<polygon fill="orange" stroke="orange" points="702.77,-305.66 694.26,-311.97 704.85,-312.34 702.77,-305.66"/>
<text text-anchor="middle" x="860" y="-283" font-family="Helvetica,sans-Serif" font-size="10.00"> &lt; std::string &gt;</text>
</g>
<!-- Node14&#45;&gt;Node15 -->
<g id="edge20" class="edge">
<title>Node14&#45;&gt;Node15</title>
<path fill="none" stroke="orange" d="M654.64,-299.47C656.24,-292.97 657.91,-286.29 659.5,-280 661,-274.08 662.63,-267.74 664.2,-261.71"/>
<polygon fill="orange" stroke="orange" points="651.17,-298.89 652.19,-309.44 657.97,-300.56 651.17,-298.89"/>
<text text-anchor="middle" x="691" y="-283" font-family="Helvetica,sans-Serif" font-size="10.00"> &lt; fs::path &gt;</text>
</g>
<!-- Node15&#45;&gt;Node1 -->
<g id="edge18" class="edge">
<title>Node15&#45;&gt;Node1</title>
<path fill="none" stroke="#404040" d="M636.01,-204.38C621.1,-192.78 602.87,-178.6 584.12,-164.01"/>
<polygon fill="none" stroke="#404040" points="584.06,-163.97 576.87,-163.44 574.59,-156.6 581.78,-157.12 584.06,-163.97"/>
<text text-anchor="middle" x="661.5" y="-178" font-family="Helvetica,sans-Serif" font-size="10.00"> &#45;sequence_path_list_</text>
</g>
</g>
</svg>
        <g id="navigator" transform="translate(0 0)" fill="#404254">
                <rect fill="#f2f5e9" fill-opacity="0.5" stroke="#606060" stroke-width=".5" x="0" y="0" width="60" height="60"/>
                <use id="zoomplus" xlink:href="#zoomPlus" x="17" y="9" onmousedown="handleZoom(evt,'in')"/>
                <use id="zoomminus" xlink:href="#zoomMin" x="42" y="9" onmousedown="handleZoom(evt,'out')"/>
                <use id="reset" xlink:href="#resetDef" x="30" y="36" onmousedown="handleReset()"/>
                <g id="arrowUp" xlink:href="#dirArrow" transform="translate(30 24)" onmousedown="handlePan(0,-1)">
                  <use xlink:href="#rim" fill="#404040">
                        <set attributeName="fill" to="#808080" begin="arrowUp.mouseover" end="arrowUp.mouseout"/>
                  </use>
                  <path fill="none" stroke="white" stroke-width="1.5" d="M0,-3.0v7 M-2.5,-0.5L0,-3.0L2.5,-0.5"/>
                </g>
                <g id="arrowRight" xlink:href="#dirArrow" transform="rotate(90) translate(36 -43)" onmousedown="handlePan(1,0)">
                  <use xlink:href="#rim" fill="#404040">
                        <set attributeName="fill" to="#808080" begin="arrowRight.mouseover" end="arrowRight.mouseout"/>
                  </use>
                  <path fill="none" stroke="white" stroke-width="1.5" d="M0,-3.0v7 M-2.5,-0.5L0,-3.0L2.5,-0.5"/>
                </g>
                <g id="arrowDown" xlink:href="#dirArrow" transform="rotate(180) translate(-30 -48)" onmousedown="handlePan(0,1)">
                  <use xlink:href="#rim" fill="#404040">
                        <set attributeName="fill" to="#808080" begin="arrowDown.mouseover" end="arrowDown.mouseout"/>
                  </use>
                  <path fill="none" stroke="white" stroke-width="1.5" d="M0,-3.0v7 M-2.5,-0.5L0,-3.0L2.5,-0.5"/>
                </g>
                <g id="arrowLeft" xlink:href="#dirArrow" transform="rotate(270) translate(-36 17)" onmousedown="handlePan(-1,0)">
                  <use xlink:href="#rim" fill="#404040">
                        <set attributeName="fill" to="#808080" begin="arrowLeft.mouseover" end="arrowLeft.mouseout"/>
                  </use>
                  <path fill="none" stroke="white" stroke-width="1.5" d="M0,-3.0v7 M-2.5,-0.5L0,-3.0L2.5,-0.5"/>
                </g>
        </g>
        <svg viewBox="0 0 15 15" width="100%" height="30px" preserveAspectRatio="xMaxYMin meet">
         <g id="arrow_out" transform="scale(0.3 0.3)">
          <a xlink:href="classad__framework_1_1application_1_1DataLoader__coll__graph_org.svg" target="_base">
           <rect id="button" ry="5" rx="5" y="6" x="6" height="38" width="38"
                fill="#f2f5e9" fill-opacity="0.5" stroke="#606060" stroke-width="1.0"/>
           <path id="arrow"
             d="M 11.500037,31.436501 C 11.940474,20.09759 22.043105,11.32322 32.158766,21.979434 L 37.068811,17.246167 C 37.068811,17.246167 37.088388,32 37.088388,32 L 22.160133,31.978069 C 22.160133,31.978069 26.997745,27.140456 26.997745,27.140456 C 18.528582,18.264221 13.291696,25.230495 11.500037,31.436501 z"
             style="fill:#404040;"/>
          </a>
         </g>
        </svg>
</svg>
