<?xml version="1.0" encoding="UTF-8" standalone="no"?>
<!DOCTYPE svg PUBLIC "-//W3C//DTD SVG 1.1//EN"
 "http://www.w3.org/Graphics/SVG/1.1/DTD/svg11.dtd">
<!-- Generated by graphviz version 2.43.0 (0)
 -->
<!-- Title: ad_framework::data_structure::Polygon Pages: 1 -->
<!--zoomable 436 -->
<svg id="main" version="1.1" xmlns="http://www.w3.org/2000/svg" xmlns:xlink="http://www.w3.org/1999/xlink" xml:space="preserve" onload="init(evt)">
<style type="text/css"><![CDATA[
.edge:hover path { stroke: red; }
.edge:hover polygon { stroke: red; fill: red; }
]]></style>
<script type="text/javascript"><![CDATA[
var edges = document.getElementsByTagName('g');
if (edges && edges.length) {
  for (var i=0;i<edges.length;i++) {
    if (edges[i].id.substr(0,4)=='edge') {
      edges[i].setAttribute('class','edge');
    }
  }
}
]]></script>
        <defs>
                <circle id="rim" cx="0" cy="0" r="7"/>
                <circle id="rim2" cx="0" cy="0" r="3.5"/>
                <g id="zoomPlus">
                        <use xlink:href="#rim" fill="#404040">
                                <set attributeName="fill" to="#808080" begin="zoomplus.mouseover" end="zoomplus.mouseout"/>
                        </use>
                        <path d="M-4,0h8M0,-4v8" fill="none" stroke="white" stroke-width="1.5" pointer-events="none"/>
                </g>
                <g id="zoomMin">
                        <use xlink:href="#rim" fill="#404040">
                                <set attributeName="fill" to="#808080" begin="zoomminus.mouseover" end="zoomminus.mouseout"/>
                        </use>
                        <path d="M-4,0h8" fill="none" stroke="white" stroke-width="1.5" pointer-events="none"/>
                </g>
                <g id="dirArrow">
                        <path fill="none" stroke="white" stroke-width="1.5" d="M0,-3.0v7 M-2.5,-0.5L0,-3.0L2.5,-0.5"/>
                </g>
               <g id="resetDef">
                       <use xlink:href="#rim2" fill="#404040">
                               <set attributeName="fill" to="#808080" begin="reset.mouseover" end="reset.mouseout"/>
                       </use>
               </g>
        </defs>

<script type="text/javascript">
var viewWidth = 767;
var viewHeight = 436;
var sectionId = 'dynsection-1';
</script>
<script xlink:href="svgpan.js"/>
<svg id="graph" class="graph">
<g id="viewport">
<title>ad_framework::data_structure::Polygon</title>
<polygon fill="white" stroke="transparent" points="-4,4 -4,-432 763,-432 763,4 -4,4"/>
<!-- Node1 -->
<g id="node1" class="node">
<title>Node1</title>
<g id="a_node1"><a xlink:title=" ">
<polygon fill="#bfbfbf" stroke="black" points="23,-0.5 23,-79.5 317,-79.5 317,-0.5 23,-0.5"/>
<text text-anchor="middle" x="170" y="-67.5" font-family="Helvetica,sans-Serif" font-size="10.00">ad_framework::data_structure::Polygon</text>
<polyline fill="none" stroke="black" points="23,-60.5 317,-60.5 "/>
<text text-anchor="middle" x="170" y="-48.5" font-family="Helvetica,sans-Serif" font-size="10.00"> </text>
<polyline fill="none" stroke="black" points="23,-41.5 317,-41.5 "/>
<text text-anchor="start" x="31" y="-29.5" font-family="Helvetica,sans-Serif" font-size="10.00">+ Polygon(const std::vector&lt; Eigen::Vector3d &gt; &amp;points)</text>
<text text-anchor="start" x="31" y="-18.5" font-family="Helvetica,sans-Serif" font-size="10.00">+ bool IsIn(const Eigen::Vector3d &amp;point) const override</text>
<text text-anchor="start" x="31" y="-7.5" font-family="Helvetica,sans-Serif" font-size="10.00">+ std::string ToString() const override</text>
</a>
</g>
</g>
<!-- Node2 -->
<g id="node2" class="node">
<title>Node2</title>
<g id="a_node2"><a xlink:href="classad__framework_1_1data__structure_1_1Shape.html" target="_top" xlink:title=" ">
<polygon fill="white" stroke="black" points="0,-337.5 0,-427.5 298,-427.5 298,-337.5 0,-337.5"/>
<text text-anchor="middle" x="149" y="-415.5" font-family="Helvetica,sans-Serif" font-size="10.00">ad_framework::data_structure::Shape</text>
<polyline fill="none" stroke="black" points="0,-408.5 298,-408.5 "/>
<text text-anchor="middle" x="149" y="-396.5" font-family="Helvetica,sans-Serif" font-size="10.00"> </text>
<polyline fill="none" stroke="black" points="0,-389.5 298,-389.5 "/>
<text text-anchor="start" x="8" y="-377.5" font-family="Helvetica,sans-Serif" font-size="10.00">+ virtual ~Shape()=default</text>
<text text-anchor="start" x="8" y="-366.5" font-family="Helvetica,sans-Serif" font-size="10.00">+ virtual bool IsIn(const Eigen::Vector3d &amp;point) const =0</text>
<text text-anchor="start" x="8" y="-355.5" font-family="Helvetica,sans-Serif" font-size="10.00">+ virtual std::string ToString() const =0</text>
<text text-anchor="start" x="8" y="-344.5" font-family="Helvetica,sans-Serif" font-size="10.00">+ virtual ~Shape()=default</text>
</a>
</g>
</g>
<!-- Node2&#45;&gt;Node1 -->
<g id="edge1" class="edge">
<title>Node2&#45;&gt;Node1</title>
<path fill="none" stroke="midnightblue" d="M147.25,-327.08C149.13,-257.89 156.6,-140.17 163.15,-79.57"/>
<polygon fill="none" stroke="midnightblue" points="143.75,-327.25 147.01,-337.33 150.74,-327.42 143.75,-327.25"/>
</g>
<!-- Node2&#45;&gt;Node1 -->
<g id="edge2" class="edge">
<title>Node2&#45;&gt;Node1</title>
<path fill="none" stroke="midnightblue" d="M157.46,-327.08C164.12,-257.89 171.17,-140.17 172.09,-79.57"/>
<polygon fill="none" stroke="midnightblue" points="153.95,-327.04 156.44,-337.33 160.91,-327.73 153.95,-327.04"/>
</g>
<!-- Node4 -->
<g id="node4" class="node">
<title>Node4</title>
<g id="a_node4"><a xlink:href="structad__framework_1_1data__structure_1_1Point.html" target="_top" xlink:title=" ">
<polygon fill="white" stroke="black" points="186,-232.5 186,-289.5 380,-289.5 380,-232.5 186,-232.5"/>
<text text-anchor="middle" x="283" y="-277.5" font-family="Helvetica,sans-Serif" font-size="10.00">ad_framework::data_structure::Point</text>
<polyline fill="none" stroke="black" points="186,-270.5 380,-270.5 "/>
<text text-anchor="middle" x="283" y="-258.5" font-family="Helvetica,sans-Serif" font-size="10.00"> </text>
<polyline fill="none" stroke="black" points="186,-251.5 380,-251.5 "/>
<text text-anchor="middle" x="283" y="-239.5" font-family="Helvetica,sans-Serif" font-size="10.00"> </text>
</a>
</g>
</g>
<!-- Node2&#45;&gt;Node4 -->
<g id="edge5" class="edge">
<title>Node2&#45;&gt;Node4</title>
<path fill="none" stroke="midnightblue" d="M206.16,-330.53C221.87,-316.52 238.32,-301.84 251.95,-289.69"/>
<polygon fill="none" stroke="midnightblue" points="203.65,-328.07 198.52,-337.34 208.31,-333.3 203.65,-328.07"/>
</g>
<!-- Node3 -->
<g id="node3" class="node">
<title>Node3</title>
<g id="a_node3"><a xlink:title=" ">
<polygon fill="white" stroke="#bfbfbf" points="186.5,-127.5 186.5,-184.5 455.5,-184.5 455.5,-127.5 186.5,-127.5"/>
<text text-anchor="middle" x="321" y="-172.5" font-family="Helvetica,sans-Serif" font-size="10.00">std::vector&lt; ad_framework::data_structure::Point &gt;</text>
<polyline fill="none" stroke="#bfbfbf" points="186.5,-165.5 455.5,-165.5 "/>
<text text-anchor="middle" x="321" y="-153.5" font-family="Helvetica,sans-Serif" font-size="10.00"> </text>
<polyline fill="none" stroke="#bfbfbf" points="186.5,-146.5 455.5,-146.5 "/>
<text text-anchor="middle" x="321" y="-134.5" font-family="Helvetica,sans-Serif" font-size="10.00"> </text>
</a>
</g>
</g>
<!-- Node3&#45;&gt;Node1 -->
<g id="edge3" class="edge">
<title>Node3&#45;&gt;Node1</title>
<path fill="none" stroke="#404040" d="M284.45,-127.4C268.32,-115.23 248.92,-100.58 230.72,-86.84"/>
<polygon fill="none" stroke="#404040" points="230.63,-86.77 223.43,-86.35 221.05,-79.54 228.25,-79.96 230.63,-86.77"/>
<text text-anchor="middle" x="281" y="-101" font-family="Helvetica,sans-Serif" font-size="10.00"> +points</text>
</g>
<!-- Node4&#45;&gt;Node3 -->
<g id="edge4" class="edge">
<title>Node4&#45;&gt;Node3</title>
<path fill="none" stroke="#404040" d="M293.18,-232.4C297.27,-221.31 302.06,-208.33 306.5,-196.3"/>
<polygon fill="none" stroke="#404040" points="306.63,-195.94 304.96,-188.92 310.79,-184.68 312.46,-191.69 306.63,-195.94"/>
<text text-anchor="middle" x="333" y="-206" font-family="Helvetica,sans-Serif" font-size="10.00"> +elements</text>
</g>
<!-- Node5 -->
<g id="node5" class="node">
<title>Node5</title>
<g id="a_node5"><a xlink:title=" ">
<polygon fill="white" stroke="#bfbfbf" points="351.5,-354 351.5,-411 410.5,-411 410.5,-354 351.5,-354"/>
<text text-anchor="middle" x="381" y="-399" font-family="Helvetica,sans-Serif" font-size="10.00">Vector3d</text>
<polyline fill="none" stroke="#bfbfbf" points="351.5,-392 410.5,-392 "/>
<text text-anchor="middle" x="381" y="-380" font-family="Helvetica,sans-Serif" font-size="10.00"> </text>
<polyline fill="none" stroke="#bfbfbf" points="351.5,-373 410.5,-373 "/>
<text text-anchor="middle" x="381" y="-361" font-family="Helvetica,sans-Serif" font-size="10.00"> </text>
</a>
</g>
</g>
<!-- Node5&#45;&gt;Node4 -->
<g id="edge6" class="edge">
<title>Node5&#45;&gt;Node4</title>
<path fill="none" stroke="#404040" d="M358.27,-353.78C344.91,-337.49 327.86,-316.7 313.36,-299.02"/>
<polygon fill="none" stroke="#404040" points="313.22,-298.84 306.32,-296.74 305.61,-289.57 312.5,-291.67 313.22,-298.84"/>
<text text-anchor="middle" x="348.5" y="-311" font-family="Helvetica,sans-Serif" font-size="10.00"> +point</text>
</g>
<!-- Node8 -->
<g id="node8" class="node">
<title>Node8</title>
<g id="a_node8"><a xlink:title=" ">
<polygon fill="white" stroke="#bfbfbf" points="473.5,-127.5 473.5,-184.5 640.5,-184.5 640.5,-127.5 473.5,-127.5"/>
<text text-anchor="middle" x="557" y="-172.5" font-family="Helvetica,sans-Serif" font-size="10.00">std::vector&lt; Eigen::Vector3d &gt;</text>
<polyline fill="none" stroke="#bfbfbf" points="473.5,-165.5 640.5,-165.5 "/>
<text text-anchor="middle" x="557" y="-153.5" font-family="Helvetica,sans-Serif" font-size="10.00"> </text>
<polyline fill="none" stroke="#bfbfbf" points="473.5,-146.5 640.5,-146.5 "/>
<text text-anchor="middle" x="557" y="-134.5" font-family="Helvetica,sans-Serif" font-size="10.00"> </text>
</a>
</g>
</g>
<!-- Node5&#45;&gt;Node8 -->
<g id="edge10" class="edge">
<title>Node5&#45;&gt;Node8</title>
<path fill="none" stroke="#404040" d="M381.05,-353.91C382.62,-315.3 391.08,-245.14 430,-203 433.04,-199.71 445.57,-194.29 461.65,-188.3"/>
<polygon fill="none" stroke="#404040" points="462,-188.17 466.28,-182.37 473.29,-184.08 469.01,-189.89 462,-188.17"/>
<text text-anchor="middle" x="439" y="-258.5" font-family="Helvetica,sans-Serif" font-size="10.00"> +elements</text>
</g>
<!-- Node6 -->
<g id="node6" class="node">
<title>Node6</title>
<g id="a_node6"><a xlink:title=" ">
<polygon fill="white" stroke="#bfbfbf" points="559.5,-232.5 559.5,-289.5 656.5,-289.5 656.5,-232.5 559.5,-232.5"/>
<text text-anchor="middle" x="608" y="-277.5" font-family="Helvetica,sans-Serif" font-size="10.00">std::vector&lt; T &gt;</text>
<polyline fill="none" stroke="#bfbfbf" points="559.5,-270.5 656.5,-270.5 "/>
<text text-anchor="middle" x="608" y="-258.5" font-family="Helvetica,sans-Serif" font-size="10.00"> </text>
<polyline fill="none" stroke="#bfbfbf" points="559.5,-251.5 656.5,-251.5 "/>
<text text-anchor="middle" x="608" y="-239.5" font-family="Helvetica,sans-Serif" font-size="10.00"> </text>
</a>
</g>
</g>
<!-- Node6&#45;&gt;Node3 -->
<g id="edge7" class="edge">
<title>Node6&#45;&gt;Node3</title>
<path fill="none" stroke="orange" d="M549.37,-245.64C518.29,-237.46 479.68,-226.38 446,-214 422.83,-205.48 397.96,-194.54 376.56,-184.52"/>
<polygon fill="orange" stroke="orange" points="548.63,-249.07 559.18,-248.2 550.39,-242.29 548.63,-249.07"/>
<text text-anchor="middle" x="548" y="-206" font-family="Helvetica,sans-Serif" font-size="10.00"> &lt; ad_framework::data_structure::Point &gt;</text>
</g>
<!-- Node6&#45;&gt;Node8 -->
<g id="edge11" class="edge">
<title>Node6&#45;&gt;Node8</title>
<path fill="none" stroke="orange" d="M653.92,-223.94C657.62,-217.18 658.45,-210.03 654,-203 649.52,-195.91 643.61,-189.89 636.92,-184.79"/>
<polygon fill="orange" stroke="orange" points="650.93,-222.11 647.89,-232.26 656.59,-226.22 650.93,-222.11"/>
<text text-anchor="middle" x="708" y="-206" font-family="Helvetica,sans-Serif" font-size="10.00"> &lt; Eigen::Vector3d &gt;</text>
</g>
<!-- Node7 -->
<g id="node7" class="node">
<title>Node7</title>
<g id="a_node7"><a xlink:title=" ">
<polygon fill="white" stroke="#bfbfbf" points="593.5,-354 593.5,-411 622.5,-411 622.5,-354 593.5,-354"/>
<text text-anchor="middle" x="608" y="-399" font-family="Helvetica,sans-Serif" font-size="10.00">T</text>
<polyline fill="none" stroke="#bfbfbf" points="593.5,-392 622.5,-392 "/>
<text text-anchor="middle" x="608" y="-380" font-family="Helvetica,sans-Serif" font-size="10.00"> </text>
<polyline fill="none" stroke="#bfbfbf" points="593.5,-373 622.5,-373 "/>
<text text-anchor="middle" x="608" y="-361" font-family="Helvetica,sans-Serif" font-size="10.00"> </text>
</a>
</g>
</g>
<!-- Node7&#45;&gt;Node6 -->
<g id="edge8" class="edge">
<title>Node7&#45;&gt;Node6</title>
<path fill="none" stroke="#404040" d="M608,-353.78C608,-338.4 608,-318.99 608,-301.99"/>
<polygon fill="none" stroke="#404040" points="608,-301.57 604,-295.57 608,-289.57 612,-295.57 608,-301.57"/>
<text text-anchor="middle" x="637" y="-311" font-family="Helvetica,sans-Serif" font-size="10.00"> +elements</text>
</g>
<!-- Node8&#45;&gt;Node1 -->
<g id="edge9" class="edge">
<title>Node8&#45;&gt;Node1</title>
<path fill="none" stroke="#404040" d="M473.36,-129.78C470.2,-128.84 467.07,-127.91 464,-127 415.25,-112.53 361.91,-96.87 314.2,-82.93"/>
<polygon fill="none" stroke="#404040" points="314.03,-82.89 307.15,-85.04 302.51,-79.52 309.4,-77.37 314.03,-82.89"/>
<text text-anchor="middle" x="421.5" y="-101" font-family="Helvetica,sans-Serif" font-size="10.00"> &#45;points_</text>
</g>
</g>
</svg>
        <g id="navigator" transform="translate(0 0)" fill="#404254">
                <rect fill="#f2f5e9" fill-opacity="0.5" stroke="#606060" stroke-width=".5" x="0" y="0" width="60" height="60"/>
                <use id="zoomplus" xlink:href="#zoomPlus" x="17" y="9" onmousedown="handleZoom(evt,'in')"/>
                <use id="zoomminus" xlink:href="#zoomMin" x="42" y="9" onmousedown="handleZoom(evt,'out')"/>
                <use id="reset" xlink:href="#resetDef" x="30" y="36" onmousedown="handleReset()"/>
                <g id="arrowUp" xlink:href="#dirArrow" transform="translate(30 24)" onmousedown="handlePan(0,-1)">
                  <use xlink:href="#rim" fill="#404040">
                        <set attributeName="fill" to="#808080" begin="arrowUp.mouseover" end="arrowUp.mouseout"/>
                  </use>
                  <path fill="none" stroke="white" stroke-width="1.5" d="M0,-3.0v7 M-2.5,-0.5L0,-3.0L2.5,-0.5"/>
                </g>
                <g id="arrowRight" xlink:href="#dirArrow" transform="rotate(90) translate(36 -43)" onmousedown="handlePan(1,0)">
                  <use xlink:href="#rim" fill="#404040">
                        <set attributeName="fill" to="#808080" begin="arrowRight.mouseover" end="arrowRight.mouseout"/>
                  </use>
                  <path fill="none" stroke="white" stroke-width="1.5" d="M0,-3.0v7 M-2.5,-0.5L0,-3.0L2.5,-0.5"/>
                </g>
                <g id="arrowDown" xlink:href="#dirArrow" transform="rotate(180) translate(-30 -48)" onmousedown="handlePan(0,1)">
                  <use xlink:href="#rim" fill="#404040">
                        <set attributeName="fill" to="#808080" begin="arrowDown.mouseover" end="arrowDown.mouseout"/>
                  </use>
                  <path fill="none" stroke="white" stroke-width="1.5" d="M0,-3.0v7 M-2.5,-0.5L0,-3.0L2.5,-0.5"/>
                </g>
                <g id="arrowLeft" xlink:href="#dirArrow" transform="rotate(270) translate(-36 17)" onmousedown="handlePan(-1,0)">
                  <use xlink:href="#rim" fill="#404040">
                        <set attributeName="fill" to="#808080" begin="arrowLeft.mouseover" end="arrowLeft.mouseout"/>
                  </use>
                  <path fill="none" stroke="white" stroke-width="1.5" d="M0,-3.0v7 M-2.5,-0.5L0,-3.0L2.5,-0.5"/>
                </g>
        </g>
        <svg viewBox="0 0 15 15" width="100%" height="30px" preserveAspectRatio="xMaxYMin meet">
         <g id="arrow_out" transform="scale(0.3 0.3)">
          <a xlink:href="classad__framework_1_1data__structure_1_1Polygon__coll__graph_org.svg" target="_base">
           <rect id="button" ry="5" rx="5" y="6" x="6" height="38" width="38"
                fill="#f2f5e9" fill-opacity="0.5" stroke="#606060" stroke-width="1.0"/>
           <path id="arrow"
             d="M 11.500037,31.436501 C 11.940474,20.09759 22.043105,11.32322 32.158766,21.979434 L 37.068811,17.246167 C 37.068811,17.246167 37.088388,32 37.088388,32 L 22.160133,31.978069 C 22.160133,31.978069 26.997745,27.140456 26.997745,27.140456 C 18.528582,18.264221 13.291696,25.230495 11.500037,31.436501 z"
             style="fill:#404040;"/>
          </a>
         </g>
        </svg>
</svg>
