<?xml version="1.0" encoding="UTF-8" standalone="no"?>
<!DOCTYPE svg PUBLIC "-//W3C//DTD SVG 1.1//EN"
 "http://www.w3.org/Graphics/SVG/1.1/DTD/svg11.dtd">
<!-- Generated by graphviz version 2.43.0 (0)
 -->
<!-- Title: ad_framework::ui::Selector::ItemListSender Pages: 1 -->
<svg width="487pt" height="414pt"
 viewBox="0.00 0.00 487.00 414.00" xmlns="http://www.w3.org/2000/svg" xmlns:xlink="http://www.w3.org/1999/xlink">
<g id="graph0" class="graph" transform="scale(1 1) rotate(0) translate(4 410)">
<title>ad_framework::ui::Selector::ItemListSender</title>
<polygon fill="white" stroke="transparent" points="-4,4 -4,-410 483,-410 483,4 -4,4"/>
<!-- Node1 -->
<g id="node1" class="node">
<title>Node1</title>
<g id="a_node1"><a xlink:title=" ">
<polygon fill="#bfbfbf" stroke="black" points="3.5,-0.5 3.5,-79.5 296.5,-79.5 296.5,-0.5 3.5,-0.5"/>
<text text-anchor="middle" x="150" y="-67.5" font-family="Helvetica,sans-Serif" font-size="10.00">ad_framework::ui::Selector::ItemListSender</text>
<polyline fill="none" stroke="black" points="3.5,-60.5 296.5,-60.5 "/>
<text text-anchor="middle" x="150" y="-48.5" font-family="Helvetica,sans-Serif" font-size="10.00"> </text>
<polyline fill="none" stroke="black" points="3.5,-41.5 296.5,-41.5 "/>
<text text-anchor="start" x="11.5" y="-29.5" font-family="Helvetica,sans-Serif" font-size="10.00">+ ItemListSender()=default</text>
<text text-anchor="start" x="11.5" y="-18.5" font-family="Helvetica,sans-Serif" font-size="10.00">+ std::any operator()(const std::any &amp;src) override</text>
<text text-anchor="start" x="11.5" y="-7.5" font-family="Helvetica,sans-Serif" font-size="10.00">+ void SetItems(const std::vector&lt; std::string &gt; &amp;items)</text>
</a>
</g>
</g>
<!-- Node2 -->
<g id="node2" class="node">
<title>Node2</title>
<g id="a_node2"><a xlink:href="structad__framework_1_1callback_1_1Callback.html" target="_top" xlink:title=" ">
<polygon fill="white" stroke="black" points="0,-127.5 0,-195.5 268,-195.5 268,-127.5 0,-127.5"/>
<text text-anchor="middle" x="134" y="-183.5" font-family="Helvetica,sans-Serif" font-size="10.00">ad_framework::callback::Callback</text>
<polyline fill="none" stroke="black" points="0,-176.5 268,-176.5 "/>
<text text-anchor="middle" x="134" y="-164.5" font-family="Helvetica,sans-Serif" font-size="10.00"> </text>
<polyline fill="none" stroke="black" points="0,-157.5 268,-157.5 "/>
<text text-anchor="start" x="8" y="-145.5" font-family="Helvetica,sans-Serif" font-size="10.00">+ virtual ~Callback()=default</text>
<text text-anchor="start" x="8" y="-134.5" font-family="Helvetica,sans-Serif" font-size="10.00">+ virtual std::any operator()(const std::any &amp;src)=0</text>
</a>
</g>
</g>
<!-- Node2&#45;&gt;Node1 -->
<g id="edge1" class="edge">
<title>Node2&#45;&gt;Node1</title>
<path fill="none" stroke="midnightblue" d="M139.8,-117.18C141.45,-104.89 143.23,-91.59 144.83,-79.6"/>
<polygon fill="none" stroke="midnightblue" points="136.32,-116.84 138.46,-127.21 143.25,-117.77 136.32,-116.84"/>
</g>
<!-- Node3 -->
<g id="node3" class="node">
<title>Node3</title>
<g id="a_node3"><a xlink:title=" ">
<polygon fill="white" stroke="#bfbfbf" points="286.5,-133 286.5,-190 435.5,-190 435.5,-133 286.5,-133"/>
<text text-anchor="middle" x="361" y="-178" font-family="Helvetica,sans-Serif" font-size="10.00">std::vector&lt; const char * &gt;</text>
<polyline fill="none" stroke="#bfbfbf" points="286.5,-171 435.5,-171 "/>
<text text-anchor="middle" x="361" y="-159" font-family="Helvetica,sans-Serif" font-size="10.00"> </text>
<polyline fill="none" stroke="#bfbfbf" points="286.5,-152 435.5,-152 "/>
<text text-anchor="middle" x="361" y="-140" font-family="Helvetica,sans-Serif" font-size="10.00"> </text>
</a>
</g>
</g>
<!-- Node3&#45;&gt;Node1 -->
<g id="edge2" class="edge">
<title>Node3&#45;&gt;Node1</title>
<path fill="none" stroke="#404040" d="M312.33,-132.93C287.51,-118.88 256.7,-101.43 228.62,-85.53"/>
<polygon fill="none" stroke="#404040" points="228.45,-85.43 221.26,-85.96 218.01,-79.52 225.2,-78.99 228.45,-85.43"/>
<text text-anchor="middle" x="289" y="-101" font-family="Helvetica,sans-Serif" font-size="10.00"> &#45;items_</text>
</g>
<!-- Node4 -->
<g id="node4" class="node">
<title>Node4</title>
<g id="a_node4"><a xlink:title=" ">
<polygon fill="white" stroke="#bfbfbf" points="277.5,-243.5 277.5,-300.5 352.5,-300.5 352.5,-243.5 277.5,-243.5"/>
<text text-anchor="middle" x="315" y="-288.5" font-family="Helvetica,sans-Serif" font-size="10.00">const char *</text>
<polyline fill="none" stroke="#bfbfbf" points="277.5,-281.5 352.5,-281.5 "/>
<text text-anchor="middle" x="315" y="-269.5" font-family="Helvetica,sans-Serif" font-size="10.00"> </text>
<polyline fill="none" stroke="#bfbfbf" points="277.5,-262.5 352.5,-262.5 "/>
<text text-anchor="middle" x="315" y="-250.5" font-family="Helvetica,sans-Serif" font-size="10.00"> </text>
</a>
</g>
</g>
<!-- Node4&#45;&gt;Node3 -->
<g id="edge3" class="edge">
<title>Node4&#45;&gt;Node3</title>
<path fill="none" stroke="#404040" d="M318.65,-243.4C320.47,-233.86 323.14,-223.24 327,-214 328.87,-209.51 331.15,-205 333.63,-200.61"/>
<polygon fill="none" stroke="#404040" points="333.84,-200.27 333.56,-193.06 340.1,-190.03 340.38,-197.23 333.84,-200.27"/>
<text text-anchor="middle" x="356" y="-217" font-family="Helvetica,sans-Serif" font-size="10.00"> +elements</text>
</g>
<!-- Node5 -->
<g id="node5" class="node">
<title>Node5</title>
<g id="a_node5"><a xlink:title=" ">
<polygon fill="white" stroke="#bfbfbf" points="370.5,-243.5 370.5,-300.5 467.5,-300.5 467.5,-243.5 370.5,-243.5"/>
<text text-anchor="middle" x="419" y="-288.5" font-family="Helvetica,sans-Serif" font-size="10.00">std::vector&lt; T &gt;</text>
<polyline fill="none" stroke="#bfbfbf" points="370.5,-281.5 467.5,-281.5 "/>
<text text-anchor="middle" x="419" y="-269.5" font-family="Helvetica,sans-Serif" font-size="10.00"> </text>
<polyline fill="none" stroke="#bfbfbf" points="370.5,-262.5 467.5,-262.5 "/>
<text text-anchor="middle" x="419" y="-250.5" font-family="Helvetica,sans-Serif" font-size="10.00"> </text>
</a>
</g>
</g>
<!-- Node5&#45;&gt;Node3 -->
<g id="edge4" class="edge">
<title>Node5&#45;&gt;Node3</title>
<path fill="none" stroke="orange" d="M399.32,-234.18C391.61,-219.75 382.91,-203.49 375.76,-190.11"/>
<polygon fill="orange" stroke="orange" points="396.41,-236.17 404.21,-243.34 402.59,-232.87 396.41,-236.17"/>
<text text-anchor="middle" x="436.5" y="-217" font-family="Helvetica,sans-Serif" font-size="10.00"> &lt; const char * &gt;</text>
</g>
<!-- Node6 -->
<g id="node6" class="node">
<title>Node6</title>
<g id="a_node6"><a xlink:title=" ">
<polygon fill="white" stroke="#bfbfbf" points="404.5,-348.5 404.5,-405.5 433.5,-405.5 433.5,-348.5 404.5,-348.5"/>
<text text-anchor="middle" x="419" y="-393.5" font-family="Helvetica,sans-Serif" font-size="10.00">T</text>
<polyline fill="none" stroke="#bfbfbf" points="404.5,-386.5 433.5,-386.5 "/>
<text text-anchor="middle" x="419" y="-374.5" font-family="Helvetica,sans-Serif" font-size="10.00"> </text>
<polyline fill="none" stroke="#bfbfbf" points="404.5,-367.5 433.5,-367.5 "/>
<text text-anchor="middle" x="419" y="-355.5" font-family="Helvetica,sans-Serif" font-size="10.00"> </text>
</a>
</g>
</g>
<!-- Node6&#45;&gt;Node5 -->
<g id="edge5" class="edge">
<title>Node6&#45;&gt;Node5</title>
<path fill="none" stroke="#404040" d="M419,-348.4C419,-337.55 419,-324.87 419,-313.05"/>
<polygon fill="none" stroke="#404040" points="419,-312.68 415,-306.68 419,-300.68 423,-306.68 419,-312.68"/>
<text text-anchor="middle" x="448" y="-322" font-family="Helvetica,sans-Serif" font-size="10.00"> +elements</text>
</g>
</g>
</svg>
