<?xml version="1.0" encoding="UTF-8" standalone="no"?>
<!DOCTYPE svg PUBLIC "-//W3C//DTD SVG 1.1//EN"
 "http://www.w3.org/Graphics/SVG/1.1/DTD/svg11.dtd">
<!-- Generated by graphviz version 2.43.0 (0)
 -->
<!-- Title: ad_framwork::data_structure::KdTree::Nearest Pages: 1 -->
<svg width="526pt" height="66pt"
 viewBox="0.00 0.00 526.00 66.00" xmlns="http://www.w3.org/2000/svg" xmlns:xlink="http://www.w3.org/1999/xlink">
<g id="graph0" class="graph" transform="scale(1 1) rotate(0) translate(4 62)">
<title>ad_framwork::data_structure::KdTree::Nearest</title>
<polygon fill="white" stroke="transparent" points="-4,4 -4,-62 522,-62 522,4 -4,4"/>
<!-- Node1 -->
<g id="node1" class="node">
<title>Node1</title>
<g id="a_node1"><a xlink:title=" ">
<polygon fill="#bfbfbf" stroke="black" points="277,-19.5 277,-38.5 518,-38.5 518,-19.5 277,-19.5"/>
<text text-anchor="middle" x="397.5" y="-26.5" font-family="Helvetica,sans-Serif" font-size="10.00">ad_framwork::data_structure::KdTree::Nearest</text>
</a>
</g>
</g>
<!-- Node2 -->
<g id="node2" class="node">
<title>Node2</title>
<g id="a_node2"><a xlink:href="classad__framwork_1_1data__structure_1_1KdTree.html#a6696f8652f4a26ae9b8ece7b5842273b" target="_top" xlink:title=" ">
<polygon fill="white" stroke="black" points="0,-38.5 0,-57.5 241,-57.5 241,-38.5 0,-38.5"/>
<text text-anchor="middle" x="120.5" y="-45.5" font-family="Helvetica,sans-Serif" font-size="10.00">ad_framwork::data_structure::KdTree::Nearest</text>
</a>
</g>
</g>
<!-- Node1&#45;&gt;Node2 -->
<g id="edge1" class="edge">
<title>Node1&#45;&gt;Node2</title>
<path fill="none" stroke="midnightblue" d="M266.48,-37.98C258.09,-38.56 249.67,-39.14 241.33,-39.72"/>
<polygon fill="midnightblue" stroke="midnightblue" points="266.95,-41.46 276.68,-37.28 266.46,-34.48 266.95,-41.46"/>
</g>
<!-- Node3 -->
<g id="node3" class="node">
<title>Node3</title>
<g id="a_node3"><a xlink:href="namespacead__framwork_1_1data__structure.html#a801be1634a9677966a71d88fe5a94bdd" target="_top" xlink:title=" ">
<polygon fill="white" stroke="black" points="26.5,-0.5 26.5,-19.5 214.5,-19.5 214.5,-0.5 26.5,-0.5"/>
<text text-anchor="middle" x="120.5" y="-7.5" font-family="Helvetica,sans-Serif" font-size="10.00">ad_framwork::data_structure::TEST</text>
</a>
</g>
</g>
<!-- Node1&#45;&gt;Node3 -->
<g id="edge2" class="edge">
<title>Node1&#45;&gt;Node3</title>
<path fill="none" stroke="midnightblue" d="M266.46,-20.02C249.05,-18.81 231.48,-17.6 214.88,-16.45"/>
<polygon fill="midnightblue" stroke="midnightblue" points="266.46,-23.52 276.68,-20.72 266.95,-16.54 266.46,-23.52"/>
</g>
</g>
</svg>
