<?xml version="1.0" encoding="UTF-8" standalone="no"?>
<!DOCTYPE svg PUBLIC "-//W3C//DTD SVG 1.1//EN"
 "http://www.w3.org/Graphics/SVG/1.1/DTD/svg11.dtd">
<!-- Generated by graphviz version 2.43.0 (0)
 -->
<!-- Title: ad_framework::window::Window Pages: 1 -->
<!--zoomable 425 -->
<svg id="main" version="1.1" xmlns="http://www.w3.org/2000/svg" xmlns:xlink="http://www.w3.org/1999/xlink" xml:space="preserve" onload="init(evt)">
<style type="text/css"><![CDATA[
.edge:hover path { stroke: red; }
.edge:hover polygon { stroke: red; fill: red; }
]]></style>
<script type="text/javascript"><![CDATA[
var edges = document.getElementsByTagName('g');
if (edges && edges.length) {
  for (var i=0;i<edges.length;i++) {
    if (edges[i].id.substr(0,4)=='edge') {
      edges[i].setAttribute('class','edge');
    }
  }
}
]]></script>
        <defs>
                <circle id="rim" cx="0" cy="0" r="7"/>
                <circle id="rim2" cx="0" cy="0" r="3.5"/>
                <g id="zoomPlus">
                        <use xlink:href="#rim" fill="#404040">
                                <set attributeName="fill" to="#808080" begin="zoomplus.mouseover" end="zoomplus.mouseout"/>
                        </use>
                        <path d="M-4,0h8M0,-4v8" fill="none" stroke="white" stroke-width="1.5" pointer-events="none"/>
                </g>
                <g id="zoomMin">
                        <use xlink:href="#rim" fill="#404040">
                                <set attributeName="fill" to="#808080" begin="zoomminus.mouseover" end="zoomminus.mouseout"/>
                        </use>
                        <path d="M-4,0h8" fill="none" stroke="white" stroke-width="1.5" pointer-events="none"/>
                </g>
                <g id="dirArrow">
                        <path fill="none" stroke="white" stroke-width="1.5" d="M0,-3.0v7 M-2.5,-0.5L0,-3.0L2.5,-0.5"/>
                </g>
               <g id="resetDef">
                       <use xlink:href="#rim2" fill="#404040">
                               <set attributeName="fill" to="#808080" begin="reset.mouseover" end="reset.mouseout"/>
                       </use>
               </g>
        </defs>

<script type="text/javascript">
var viewWidth = 715;
var viewHeight = 425;
var sectionId = 'dynsection-0';
</script>
<script xlink:href="svgpan.js"/>
<svg id="graph" class="graph">
<g id="viewport">
<title>ad_framework::window::Window</title>
<polygon fill="white" stroke="transparent" points="-4,4 -4,-421 711,-421 711,4 -4,4"/>
<!-- Node1 -->
<g id="node1" class="node">
<title>Node1</title>
<g id="a_node1"><a xlink:title=" ">
<polygon fill="#bfbfbf" stroke="black" points="160,-0.5 160,-101.5 379,-101.5 379,-0.5 160,-0.5"/>
<text text-anchor="middle" x="269.5" y="-89.5" font-family="Helvetica,sans-Serif" font-size="10.00">ad_framework::window::Window</text>
<polyline fill="none" stroke="black" points="160,-82.5 379,-82.5 "/>
<text text-anchor="middle" x="269.5" y="-70.5" font-family="Helvetica,sans-Serif" font-size="10.00"> </text>
<polyline fill="none" stroke="black" points="160,-63.5 379,-63.5 "/>
<text text-anchor="start" x="168" y="-51.5" font-family="Helvetica,sans-Serif" font-size="10.00">+ Window(std::string title)</text>
<text text-anchor="start" x="168" y="-40.5" font-family="Helvetica,sans-Serif" font-size="10.00">+ ~Window()</text>
<text text-anchor="start" x="168" y="-29.5" font-family="Helvetica,sans-Serif" font-size="10.00">+ void AddCallback(CallbackPtr callback)</text>
<text text-anchor="start" x="168" y="-18.5" font-family="Helvetica,sans-Serif" font-size="10.00">+ void AddUI(UserInterfacePtr ui)</text>
<text text-anchor="start" x="168" y="-7.5" font-family="Helvetica,sans-Serif" font-size="10.00">+ void operator()()</text>
</a>
</g>
</g>
<!-- Node2 -->
<g id="node2" class="node">
<title>Node2</title>
<g id="a_node2"><a xlink:title=" ">
<polygon fill="white" stroke="#bfbfbf" points="0,-149.5 0,-206.5 53,-206.5 53,-149.5 0,-149.5"/>
<text text-anchor="middle" x="26.5" y="-194.5" font-family="Helvetica,sans-Serif" font-size="10.00">ImVec2</text>
<polyline fill="none" stroke="#bfbfbf" points="0,-187.5 53,-187.5 "/>
<text text-anchor="middle" x="26.5" y="-175.5" font-family="Helvetica,sans-Serif" font-size="10.00"> </text>
<polyline fill="none" stroke="#bfbfbf" points="0,-168.5 53,-168.5 "/>
<text text-anchor="middle" x="26.5" y="-156.5" font-family="Helvetica,sans-Serif" font-size="10.00"> </text>
</a>
</g>
</g>
<!-- Node2&#45;&gt;Node1 -->
<g id="edge1" class="edge">
<title>Node2&#45;&gt;Node1</title>
<path fill="none" stroke="#404040" d="M53.35,-154.91C56.06,-152.86 58.81,-150.86 61.5,-149 88.24,-130.52 119.06,-113.97 148.65,-100"/>
<polygon fill="none" stroke="#404040" points="149.03,-99.82 152.79,-93.67 159.91,-94.77 156.16,-100.92 149.03,-99.82"/>
<text text-anchor="middle" x="120.5" y="-123" font-family="Helvetica,sans-Serif" font-size="10.00"> &#45;size_</text>
</g>
<!-- Node3 -->
<g id="node3" class="node">
<title>Node3</title>
<g id="a_node3"><a xlink:title=" ">
<polygon fill="white" stroke="#bfbfbf" points="71,-149.5 71,-206.5 162,-206.5 162,-149.5 71,-149.5"/>
<text text-anchor="middle" x="116.5" y="-194.5" font-family="Helvetica,sans-Serif" font-size="10.00">GLFWwindow *</text>
<polyline fill="none" stroke="#bfbfbf" points="71,-187.5 162,-187.5 "/>
<text text-anchor="middle" x="116.5" y="-175.5" font-family="Helvetica,sans-Serif" font-size="10.00"> </text>
<polyline fill="none" stroke="#bfbfbf" points="71,-168.5 162,-168.5 "/>
<text text-anchor="middle" x="116.5" y="-156.5" font-family="Helvetica,sans-Serif" font-size="10.00"> </text>
</a>
</g>
</g>
<!-- Node3&#45;&gt;Node1 -->
<g id="edge2" class="edge">
<title>Node3&#45;&gt;Node1</title>
<path fill="none" stroke="#404040" d="M131.47,-149.28C137.72,-139.3 145.61,-128.43 154.5,-120 158.44,-116.26 162.63,-112.64 166.97,-109.15"/>
<polygon fill="none" stroke="#404040" points="167.19,-108.98 169.52,-102.16 176.72,-101.7 174.38,-108.52 167.19,-108.98"/>
<text text-anchor="middle" x="179.5" y="-123" font-family="Helvetica,sans-Serif" font-size="10.00"> &#45;window_</text>
</g>
<!-- Node4 -->
<g id="node4" class="node">
<title>Node4</title>
<g id="a_node4"><a xlink:title=" ">
<polygon fill="white" stroke="#bfbfbf" points="180,-149.5 180,-206.5 233,-206.5 233,-149.5 180,-149.5"/>
<text text-anchor="middle" x="206.5" y="-194.5" font-family="Helvetica,sans-Serif" font-size="10.00">ImVec4</text>
<polyline fill="none" stroke="#bfbfbf" points="180,-187.5 233,-187.5 "/>
<text text-anchor="middle" x="206.5" y="-175.5" font-family="Helvetica,sans-Serif" font-size="10.00"> </text>
<polyline fill="none" stroke="#bfbfbf" points="180,-168.5 233,-168.5 "/>
<text text-anchor="middle" x="206.5" y="-156.5" font-family="Helvetica,sans-Serif" font-size="10.00"> </text>
</a>
</g>
</g>
<!-- Node4&#45;&gt;Node1 -->
<g id="edge3" class="edge">
<title>Node4&#45;&gt;Node1</title>
<path fill="none" stroke="#404040" d="M205.55,-149.21C206.09,-139.65 207.7,-129.07 211.5,-120 212.61,-117.34 213.87,-114.71 215.24,-112.12"/>
<polygon fill="none" stroke="#404040" points="215.31,-112 214.97,-104.8 221.48,-101.71 221.83,-108.91 215.31,-112"/>
<text text-anchor="middle" x="261" y="-123" font-family="Helvetica,sans-Serif" font-size="10.00"> &#45;background_color_</text>
</g>
<!-- Node5 -->
<g id="node5" class="node">
<title>Node5</title>
<g id="a_node5"><a xlink:title=" ">
<polygon fill="white" stroke="#bfbfbf" points="439.5,-149.5 439.5,-206.5 585.5,-206.5 585.5,-149.5 439.5,-149.5"/>
<text text-anchor="middle" x="512.5" y="-194.5" font-family="Helvetica,sans-Serif" font-size="10.00">std::vector&lt; CallbackPtr &gt;</text>
<polyline fill="none" stroke="#bfbfbf" points="439.5,-187.5 585.5,-187.5 "/>
<text text-anchor="middle" x="512.5" y="-175.5" font-family="Helvetica,sans-Serif" font-size="10.00"> </text>
<polyline fill="none" stroke="#bfbfbf" points="439.5,-168.5 585.5,-168.5 "/>
<text text-anchor="middle" x="512.5" y="-156.5" font-family="Helvetica,sans-Serif" font-size="10.00"> </text>
</a>
</g>
</g>
<!-- Node5&#45;&gt;Node1 -->
<g id="edge4" class="edge">
<title>Node5&#45;&gt;Node1</title>
<path fill="none" stroke="#404040" d="M458.87,-149.41C434.7,-136.98 405.26,-121.84 376.86,-107.23"/>
<polygon fill="none" stroke="#404040" points="376.72,-107.15 369.55,-107.96 366.05,-101.66 373.21,-100.85 376.72,-107.15"/>
<text text-anchor="middle" x="449.5" y="-123" font-family="Helvetica,sans-Serif" font-size="10.00"> &#45;callbacks_</text>
</g>
<!-- Node6 -->
<g id="node6" class="node">
<title>Node6</title>
<g id="a_node6"><a xlink:title=" ">
<polygon fill="white" stroke="#bfbfbf" points="407.5,-254.5 407.5,-311.5 525.5,-311.5 525.5,-254.5 407.5,-254.5"/>
<text text-anchor="middle" x="466.5" y="-299.5" font-family="Helvetica,sans-Serif" font-size="10.00">std::shared_ptr&lt; T &gt;</text>
<polyline fill="none" stroke="#bfbfbf" points="407.5,-292.5 525.5,-292.5 "/>
<text text-anchor="middle" x="466.5" y="-280.5" font-family="Helvetica,sans-Serif" font-size="10.00"> </text>
<polyline fill="none" stroke="#bfbfbf" points="407.5,-273.5 525.5,-273.5 "/>
<text text-anchor="start" x="415.5" y="-261.5" font-family="Helvetica,sans-Serif" font-size="10.00">+ T * operator&#45;&gt;()</text>
</a>
</g>
</g>
<!-- Node6&#45;&gt;Node5 -->
<g id="edge5" class="edge">
<title>Node6&#45;&gt;Node5</title>
<path fill="none" stroke="#404040" d="M503.08,-254.49C508.13,-248.96 512.58,-242.75 515.5,-236 517.84,-230.6 518.93,-224.64 519.23,-218.67"/>
<polygon fill="none" stroke="#404040" points="519.22,-218.57 515.05,-212.69 518.87,-206.57 523.04,-212.45 519.22,-218.57"/>
<text text-anchor="middle" x="547.5" y="-228" font-family="Helvetica,sans-Serif" font-size="10.00"> +elements</text>
</g>
<!-- Node11 -->
<g id="node11" class="node">
<title>Node11</title>
<g id="a_node11"><a xlink:title=" ">
<polygon fill="white" stroke="#bfbfbf" points="251.5,-149.5 251.5,-206.5 421.5,-206.5 421.5,-149.5 251.5,-149.5"/>
<text text-anchor="middle" x="336.5" y="-194.5" font-family="Helvetica,sans-Serif" font-size="10.00">std::vector&lt; UserInterfacePtr &gt;</text>
<polyline fill="none" stroke="#bfbfbf" points="251.5,-187.5 421.5,-187.5 "/>
<text text-anchor="middle" x="336.5" y="-175.5" font-family="Helvetica,sans-Serif" font-size="10.00"> </text>
<polyline fill="none" stroke="#bfbfbf" points="251.5,-168.5 421.5,-168.5 "/>
<text text-anchor="middle" x="336.5" y="-156.5" font-family="Helvetica,sans-Serif" font-size="10.00"> </text>
</a>
</g>
</g>
<!-- Node6&#45;&gt;Node11 -->
<g id="edge12" class="edge">
<title>Node6&#45;&gt;Node11</title>
<path fill="none" stroke="#404040" d="M455.34,-254.37C450.18,-244.16 443.23,-233.11 434.5,-225 429.89,-220.71 424.8,-216.76 419.45,-213.12"/>
<polygon fill="none" stroke="#404040" points="419.05,-212.88 411.85,-213.09 408.87,-206.52 416.08,-206.31 419.05,-212.88"/>
<text text-anchor="middle" x="473.5" y="-228" font-family="Helvetica,sans-Serif" font-size="10.00"> +elements</text>
</g>
<!-- Node7 -->
<g id="node7" class="node">
<title>Node7</title>
<g id="a_node7"><a xlink:title=" ">
<polygon fill="white" stroke="#bfbfbf" points="388,-359.5 388,-416.5 417,-416.5 417,-359.5 388,-359.5"/>
<text text-anchor="middle" x="402.5" y="-404.5" font-family="Helvetica,sans-Serif" font-size="10.00">T</text>
<polyline fill="none" stroke="#bfbfbf" points="388,-397.5 417,-397.5 "/>
<text text-anchor="middle" x="402.5" y="-385.5" font-family="Helvetica,sans-Serif" font-size="10.00"> </text>
<polyline fill="none" stroke="#bfbfbf" points="388,-378.5 417,-378.5 "/>
<text text-anchor="middle" x="402.5" y="-366.5" font-family="Helvetica,sans-Serif" font-size="10.00"> </text>
</a>
</g>
</g>
<!-- Node7&#45;&gt;Node6 -->
<g id="edge6" class="edge">
<title>Node7&#45;&gt;Node6</title>
<path fill="none" stroke="#404040" d="M417.02,-365.12C422,-357.53 427.55,-348.93 432.5,-341 436.29,-334.93 440.24,-328.44 444.06,-322.1"/>
<polygon fill="none" stroke="#404040" points="444.13,-321.98 443.78,-314.77 450.29,-311.68 450.65,-318.88 444.13,-321.98"/>
<text text-anchor="middle" x="452" y="-333" font-family="Helvetica,sans-Serif" font-size="10.00"> +ptr</text>
</g>
<!-- Node8 -->
<g id="node8" class="node">
<title>Node8</title>
<g id="a_node8"><a xlink:title=" ">
<polygon fill="white" stroke="#bfbfbf" points="292,-254.5 292,-311.5 389,-311.5 389,-254.5 292,-254.5"/>
<text text-anchor="middle" x="340.5" y="-299.5" font-family="Helvetica,sans-Serif" font-size="10.00">std::vector&lt; T &gt;</text>
<polyline fill="none" stroke="#bfbfbf" points="292,-292.5 389,-292.5 "/>
<text text-anchor="middle" x="340.5" y="-280.5" font-family="Helvetica,sans-Serif" font-size="10.00"> </text>
<polyline fill="none" stroke="#bfbfbf" points="292,-273.5 389,-273.5 "/>
<text text-anchor="middle" x="340.5" y="-261.5" font-family="Helvetica,sans-Serif" font-size="10.00"> </text>
</a>
</g>
</g>
<!-- Node7&#45;&gt;Node8 -->
<g id="edge8" class="edge">
<title>Node7&#45;&gt;Node8</title>
<path fill="none" stroke="#404040" d="M387.93,-363.15C383.59,-356.03 378.84,-348.21 374.5,-341 370.8,-334.87 366.9,-328.35 363.11,-322"/>
<polygon fill="none" stroke="#404040" points="363.03,-321.88 356.52,-318.77 356.88,-311.57 363.39,-314.67 363.03,-321.88"/>
<text text-anchor="middle" x="403.5" y="-333" font-family="Helvetica,sans-Serif" font-size="10.00"> +elements</text>
</g>
<!-- Node8&#45;&gt;Node5 -->
<g id="edge7" class="edge">
<title>Node8&#45;&gt;Node5</title>
<path fill="none" stroke="orange" d="M339.43,-243.94C340.9,-236.95 343.66,-230.22 348.5,-225 373.85,-197.62 394.57,-217.04 430.5,-207 433.4,-206.19 436.34,-205.34 439.31,-204.45"/>
<polygon fill="orange" stroke="orange" points="335.91,-243.86 338.11,-254.23 342.85,-244.76 335.91,-243.86"/>
<text text-anchor="middle" x="389.5" y="-228" font-family="Helvetica,sans-Serif" font-size="10.00"> &lt; CallbackPtr &gt;</text>
</g>
<!-- Node8&#45;&gt;Node11 -->
<g id="edge13" class="edge">
<title>Node8&#45;&gt;Node11</title>
<path fill="none" stroke="orange" d="M281.99,-273.27C259.86,-266.8 236.83,-255.56 223.5,-236 220.75,-231.96 220.77,-229.06 223.5,-225 227.7,-218.76 238.26,-212.44 251.33,-206.57"/>
<polygon fill="orange" stroke="orange" points="281.15,-276.67 291.71,-275.83 282.94,-269.9 281.15,-276.67"/>
<text text-anchor="middle" x="276.5" y="-228" font-family="Helvetica,sans-Serif" font-size="10.00"> &lt; UserInterfacePtr &gt;</text>
</g>
<!-- Node9 -->
<g id="node9" class="node">
<title>Node9</title>
<g id="a_node9"><a xlink:title=" ">
<polygon fill="white" stroke="#bfbfbf" points="604,-149.5 604,-206.5 669,-206.5 669,-149.5 604,-149.5"/>
<text text-anchor="middle" x="636.5" y="-194.5" font-family="Helvetica,sans-Serif" font-size="10.00">std::string</text>
<polyline fill="none" stroke="#bfbfbf" points="604,-187.5 669,-187.5 "/>
<text text-anchor="middle" x="636.5" y="-175.5" font-family="Helvetica,sans-Serif" font-size="10.00"> </text>
<polyline fill="none" stroke="#bfbfbf" points="604,-168.5 669,-168.5 "/>
<text text-anchor="middle" x="636.5" y="-156.5" font-family="Helvetica,sans-Serif" font-size="10.00"> </text>
</a>
</g>
</g>
<!-- Node9&#45;&gt;Node1 -->
<g id="edge9" class="edge">
<title>Node9&#45;&gt;Node1</title>
<path fill="none" stroke="#404040" d="M603.56,-153.75C600.56,-152.03 597.51,-150.42 594.5,-149 529.91,-118.67 453.64,-95.32 391.22,-79.13"/>
<polygon fill="none" stroke="#404040" points="390.96,-79.07 384.15,-81.45 379.33,-76.09 386.14,-73.7 390.96,-79.07"/>
<text text-anchor="middle" x="568.5" y="-123" font-family="Helvetica,sans-Serif" font-size="10.00"> &#45;title_</text>
</g>
<!-- Node10 -->
<g id="node10" class="node">
<title>Node10</title>
<g id="a_node10"><a xlink:title=" ">
<polygon fill="white" stroke="#bfbfbf" points="566,-254.5 566,-311.5 707,-311.5 707,-254.5 566,-254.5"/>
<text text-anchor="middle" x="636.5" y="-299.5" font-family="Helvetica,sans-Serif" font-size="10.00">std::basic_string&lt; Char &gt;</text>
<polyline fill="none" stroke="#bfbfbf" points="566,-292.5 707,-292.5 "/>
<text text-anchor="middle" x="636.5" y="-280.5" font-family="Helvetica,sans-Serif" font-size="10.00"> </text>
<polyline fill="none" stroke="#bfbfbf" points="566,-273.5 707,-273.5 "/>
<text text-anchor="middle" x="636.5" y="-261.5" font-family="Helvetica,sans-Serif" font-size="10.00"> </text>
</a>
</g>
</g>
<!-- Node10&#45;&gt;Node9 -->
<g id="edge10" class="edge">
<title>Node10&#45;&gt;Node9</title>
<path fill="none" stroke="midnightblue" d="M636.5,-244.29C636.5,-231.84 636.5,-218.23 636.5,-206.68"/>
<polygon fill="none" stroke="midnightblue" points="633,-244.4 636.5,-254.4 640,-244.4 633,-244.4"/>
</g>
<!-- Node11&#45;&gt;Node1 -->
<g id="edge11" class="edge">
<title>Node11&#45;&gt;Node1</title>
<path fill="none" stroke="#404040" d="M324.7,-149.44C320.45,-139.99 315.47,-129.43 310.5,-120 309.17,-117.48 307.79,-114.92 306.37,-112.35"/>
<polygon fill="none" stroke="#404040" points="306.29,-112.21 299.86,-108.95 300.39,-101.76 306.82,-105.02 306.29,-112.21"/>
<text text-anchor="middle" x="330" y="-123" font-family="Helvetica,sans-Serif" font-size="10.00"> &#45;uis_</text>
</g>
</g>
</svg>
        <g id="navigator" transform="translate(0 0)" fill="#404254">
                <rect fill="#f2f5e9" fill-opacity="0.5" stroke="#606060" stroke-width=".5" x="0" y="0" width="60" height="60"/>
                <use id="zoomplus" xlink:href="#zoomPlus" x="17" y="9" onmousedown="handleZoom(evt,'in')"/>
                <use id="zoomminus" xlink:href="#zoomMin" x="42" y="9" onmousedown="handleZoom(evt,'out')"/>
                <use id="reset" xlink:href="#resetDef" x="30" y="36" onmousedown="handleReset()"/>
                <g id="arrowUp" xlink:href="#dirArrow" transform="translate(30 24)" onmousedown="handlePan(0,-1)">
                  <use xlink:href="#rim" fill="#404040">
                        <set attributeName="fill" to="#808080" begin="arrowUp.mouseover" end="arrowUp.mouseout"/>
                  </use>
                  <path fill="none" stroke="white" stroke-width="1.5" d="M0,-3.0v7 M-2.5,-0.5L0,-3.0L2.5,-0.5"/>
                </g>
                <g id="arrowRight" xlink:href="#dirArrow" transform="rotate(90) translate(36 -43)" onmousedown="handlePan(1,0)">
                  <use xlink:href="#rim" fill="#404040">
                        <set attributeName="fill" to="#808080" begin="arrowRight.mouseover" end="arrowRight.mouseout"/>
                  </use>
                  <path fill="none" stroke="white" stroke-width="1.5" d="M0,-3.0v7 M-2.5,-0.5L0,-3.0L2.5,-0.5"/>
                </g>
                <g id="arrowDown" xlink:href="#dirArrow" transform="rotate(180) translate(-30 -48)" onmousedown="handlePan(0,1)">
                  <use xlink:href="#rim" fill="#404040">
                        <set attributeName="fill" to="#808080" begin="arrowDown.mouseover" end="arrowDown.mouseout"/>
                  </use>
                  <path fill="none" stroke="white" stroke-width="1.5" d="M0,-3.0v7 M-2.5,-0.5L0,-3.0L2.5,-0.5"/>
                </g>
                <g id="arrowLeft" xlink:href="#dirArrow" transform="rotate(270) translate(-36 17)" onmousedown="handlePan(-1,0)">
                  <use xlink:href="#rim" fill="#404040">
                        <set attributeName="fill" to="#808080" begin="arrowLeft.mouseover" end="arrowLeft.mouseout"/>
                  </use>
                  <path fill="none" stroke="white" stroke-width="1.5" d="M0,-3.0v7 M-2.5,-0.5L0,-3.0L2.5,-0.5"/>
                </g>
        </g>
        <svg viewBox="0 0 15 15" width="100%" height="30px" preserveAspectRatio="xMaxYMin meet">
         <g id="arrow_out" transform="scale(0.3 0.3)">
          <a xlink:href="classad__framework_1_1window_1_1Window__coll__graph_org.svg" target="_base">
           <rect id="button" ry="5" rx="5" y="6" x="6" height="38" width="38"
                fill="#f2f5e9" fill-opacity="0.5" stroke="#606060" stroke-width="1.0"/>
           <path id="arrow"
             d="M 11.500037,31.436501 C 11.940474,20.09759 22.043105,11.32322 32.158766,21.979434 L 37.068811,17.246167 C 37.068811,17.246167 37.088388,32 37.088388,32 L 22.160133,31.978069 C 22.160133,31.978069 26.997745,27.140456 26.997745,27.140456 C 18.528582,18.264221 13.291696,25.230495 11.500037,31.436501 z"
             style="fill:#404040;"/>
          </a>
         </g>
        </svg>
</svg>
