<?xml version="1.0" encoding="UTF-8" standalone="no"?>
<!DOCTYPE svg PUBLIC "-//W3C//DTD SVG 1.1//EN"
 "http://www.w3.org/Graphics/SVG/1.1/DTD/svg11.dtd">
<!-- Generated by graphviz version 2.43.0 (0)
 -->
<!-- Title: ad_framework::ui::UserInterface Pages: 1 -->
<svg width="649pt" height="480pt"
 viewBox="0.00 0.00 649.00 480.00" xmlns="http://www.w3.org/2000/svg" xmlns:xlink="http://www.w3.org/1999/xlink">
<g id="graph0" class="graph" transform="scale(1 1) rotate(0) translate(4 476)">
<title>ad_framework::ui::UserInterface</title>
<polygon fill="white" stroke="transparent" points="-4,4 -4,-476 645,-476 645,4 -4,4"/>
<!-- Node1 -->
<g id="node1" class="node">
<title>Node1</title>
<g id="a_node1"><a xlink:title=" ">
<polygon fill="#bfbfbf" stroke="black" points="130,-0.5 130,-145.5 549,-145.5 549,-0.5 130,-0.5"/>
<text text-anchor="middle" x="339.5" y="-133.5" font-family="Helvetica,sans-Serif" font-size="10.00">ad_framework::ui::UserInterface</text>
<polyline fill="none" stroke="black" points="130,-126.5 549,-126.5 "/>
<text text-anchor="middle" x="339.5" y="-114.5" font-family="Helvetica,sans-Serif" font-size="10.00"> </text>
<polyline fill="none" stroke="black" points="130,-107.5 549,-107.5 "/>
<text text-anchor="start" x="138" y="-95.5" font-family="Helvetica,sans-Serif" font-size="10.00">+ UserInterface(std::string title, ImVec2 size, ImVec2 pos, UserInterfacePtr parent)</text>
<text text-anchor="start" x="138" y="-84.5" font-family="Helvetica,sans-Serif" font-size="10.00">+ virtual ~UserInterface()=default</text>
<text text-anchor="start" x="138" y="-73.5" font-family="Helvetica,sans-Serif" font-size="10.00">+ virtual void operator()()=0</text>
<text text-anchor="start" x="138" y="-62.5" font-family="Helvetica,sans-Serif" font-size="10.00">+ std::string Title() const</text>
<text text-anchor="start" x="138" y="-51.5" font-family="Helvetica,sans-Serif" font-size="10.00">+ void Rename(std::string title)</text>
<text text-anchor="start" x="138" y="-40.5" font-family="Helvetica,sans-Serif" font-size="10.00">+ ImVec2 Size() const</text>
<text text-anchor="start" x="138" y="-29.5" font-family="Helvetica,sans-Serif" font-size="10.00">+ ImVec2 Pos() const</text>
<text text-anchor="start" x="138" y="-18.5" font-family="Helvetica,sans-Serif" font-size="10.00">+ void Resize(ImVec2 size)</text>
<text text-anchor="start" x="138" y="-7.5" font-family="Helvetica,sans-Serif" font-size="10.00">+ void Move(ImVec2 pos)</text>
</a>
</g>
</g>
<!-- Node2 -->
<g id="node2" class="node">
<title>Node2</title>
<g id="a_node2"><a xlink:title=" ">
<polygon fill="white" stroke="#bfbfbf" points="0,-204.5 0,-261.5 249,-261.5 249,-204.5 0,-204.5"/>
<text text-anchor="middle" x="124.5" y="-249.5" font-family="Helvetica,sans-Serif" font-size="10.00">std::enable_shared_from_this&lt; UserInterface &gt;</text>
<polyline fill="none" stroke="#bfbfbf" points="0,-242.5 249,-242.5 "/>
<text text-anchor="middle" x="124.5" y="-230.5" font-family="Helvetica,sans-Serif" font-size="10.00"> </text>
<polyline fill="none" stroke="#bfbfbf" points="0,-223.5 249,-223.5 "/>
<text text-anchor="middle" x="124.5" y="-211.5" font-family="Helvetica,sans-Serif" font-size="10.00"> </text>
</a>
</g>
</g>
<!-- Node2&#45;&gt;Node1 -->
<g id="edge1" class="edge">
<title>Node2&#45;&gt;Node1</title>
<path fill="none" stroke="midnightblue" d="M170.05,-198.52C191.07,-183.08 216.89,-164.1 241.98,-145.67"/>
<polygon fill="none" stroke="midnightblue" points="167.94,-195.74 161.95,-204.48 172.08,-201.38 167.94,-195.74"/>
</g>
<!-- Node3 -->
<g id="node3" class="node">
<title>Node3</title>
<g id="a_node3"><a xlink:title=" ">
<polygon fill="white" stroke="#bfbfbf" points="267,-204.5 267,-261.5 320,-261.5 320,-204.5 267,-204.5"/>
<text text-anchor="middle" x="293.5" y="-249.5" font-family="Helvetica,sans-Serif" font-size="10.00">ImVec2</text>
<polyline fill="none" stroke="#bfbfbf" points="267,-242.5 320,-242.5 "/>
<text text-anchor="middle" x="293.5" y="-230.5" font-family="Helvetica,sans-Serif" font-size="10.00"> </text>
<polyline fill="none" stroke="#bfbfbf" points="267,-223.5 320,-223.5 "/>
<text text-anchor="middle" x="293.5" y="-211.5" font-family="Helvetica,sans-Serif" font-size="10.00"> </text>
</a>
</g>
</g>
<!-- Node3&#45;&gt;Node1 -->
<g id="edge2" class="edge">
<title>Node3&#45;&gt;Node1</title>
<path fill="none" stroke="#404040" d="M301.51,-204.48C305.38,-191.19 310.25,-174.46 315.2,-157.45"/>
<polygon fill="none" stroke="#404040" points="315.28,-157.19 313.12,-150.31 318.63,-145.67 320.8,-152.55 315.28,-157.19"/>
<text text-anchor="middle" x="327.5" y="-178" font-family="Helvetica,sans-Serif" font-size="10.00"> &#45;pos_</text>
<text text-anchor="middle" x="327.5" y="-167" font-family="Helvetica,sans-Serif" font-size="10.00">&#45;size_</text>
</g>
<!-- Node4 -->
<g id="node4" class="node">
<title>Node4</title>
<g id="a_node4"><a xlink:title=" ">
<polygon fill="white" stroke="#bfbfbf" points="338.5,-204.5 338.5,-261.5 516.5,-261.5 516.5,-204.5 338.5,-204.5"/>
<text text-anchor="middle" x="427.5" y="-249.5" font-family="Helvetica,sans-Serif" font-size="10.00">std::shared_ptr&lt; UserInterface &gt;</text>
<polyline fill="none" stroke="#bfbfbf" points="338.5,-242.5 516.5,-242.5 "/>
<text text-anchor="start" x="346.5" y="-230.5" font-family="Helvetica,sans-Serif" font-size="10.00">+ UserInterface ptr</text>
<polyline fill="none" stroke="#bfbfbf" points="338.5,-223.5 516.5,-223.5 "/>
<text text-anchor="start" x="346.5" y="-211.5" font-family="Helvetica,sans-Serif" font-size="10.00">+ UserInterface * operator&#45;&gt;()</text>
</a>
</g>
</g>
<!-- Node4&#45;&gt;Node1 -->
<g id="edge3" class="edge">
<title>Node4&#45;&gt;Node1</title>
<path fill="none" stroke="#404040" d="M412.17,-204.48C404.63,-190.93 395.09,-173.81 385.43,-156.47"/>
<polygon fill="none" stroke="#404040" points="385.26,-156.15 378.84,-152.86 379.42,-145.67 385.83,-148.96 385.26,-156.15"/>
<text text-anchor="middle" x="423.5" y="-172.5" font-family="Helvetica,sans-Serif" font-size="10.00"> &#45;parent_</text>
</g>
<!-- Node5 -->
<g id="node5" class="node">
<title>Node5</title>
<g id="a_node5"><a xlink:title=" ">
<polygon fill="white" stroke="#bfbfbf" points="363.5,-309.5 363.5,-366.5 481.5,-366.5 481.5,-309.5 363.5,-309.5"/>
<text text-anchor="middle" x="422.5" y="-354.5" font-family="Helvetica,sans-Serif" font-size="10.00">std::shared_ptr&lt; T &gt;</text>
<polyline fill="none" stroke="#bfbfbf" points="363.5,-347.5 481.5,-347.5 "/>
<text text-anchor="middle" x="422.5" y="-335.5" font-family="Helvetica,sans-Serif" font-size="10.00"> </text>
<polyline fill="none" stroke="#bfbfbf" points="363.5,-328.5 481.5,-328.5 "/>
<text text-anchor="start" x="371.5" y="-316.5" font-family="Helvetica,sans-Serif" font-size="10.00">+ T * operator&#45;&gt;()</text>
</a>
</g>
</g>
<!-- Node5&#45;&gt;Node4 -->
<g id="edge4" class="edge">
<title>Node5&#45;&gt;Node4</title>
<path fill="none" stroke="orange" d="M424.33,-299.29C424.93,-286.84 425.6,-273.23 426.16,-261.68"/>
<polygon fill="orange" stroke="orange" points="420.83,-299.24 423.84,-309.4 427.82,-299.58 420.83,-299.24"/>
<text text-anchor="middle" x="471.5" y="-283" font-family="Helvetica,sans-Serif" font-size="10.00"> &lt; UserInterface &gt;</text>
</g>
<!-- Node6 -->
<g id="node6" class="node">
<title>Node6</title>
<g id="a_node6"><a xlink:title=" ">
<polygon fill="white" stroke="#bfbfbf" points="408,-414.5 408,-471.5 437,-471.5 437,-414.5 408,-414.5"/>
<text text-anchor="middle" x="422.5" y="-459.5" font-family="Helvetica,sans-Serif" font-size="10.00">T</text>
<polyline fill="none" stroke="#bfbfbf" points="408,-452.5 437,-452.5 "/>
<text text-anchor="middle" x="422.5" y="-440.5" font-family="Helvetica,sans-Serif" font-size="10.00"> </text>
<polyline fill="none" stroke="#bfbfbf" points="408,-433.5 437,-433.5 "/>
<text text-anchor="middle" x="422.5" y="-421.5" font-family="Helvetica,sans-Serif" font-size="10.00"> </text>
</a>
</g>
</g>
<!-- Node6&#45;&gt;Node5 -->
<g id="edge5" class="edge">
<title>Node6&#45;&gt;Node5</title>
<path fill="none" stroke="#404040" d="M422.5,-414.4C422.5,-403.55 422.5,-390.87 422.5,-379.05"/>
<polygon fill="none" stroke="#404040" points="422.5,-378.68 418.5,-372.68 422.5,-366.68 426.5,-372.68 422.5,-378.68"/>
<text text-anchor="middle" x="435" y="-388" font-family="Helvetica,sans-Serif" font-size="10.00"> +ptr</text>
</g>
<!-- Node7 -->
<g id="node7" class="node">
<title>Node7</title>
<g id="a_node7"><a xlink:title=" ">
<polygon fill="white" stroke="#bfbfbf" points="536,-204.5 536,-261.5 601,-261.5 601,-204.5 536,-204.5"/>
<text text-anchor="middle" x="568.5" y="-249.5" font-family="Helvetica,sans-Serif" font-size="10.00">std::string</text>
<polyline fill="none" stroke="#bfbfbf" points="536,-242.5 601,-242.5 "/>
<text text-anchor="middle" x="568.5" y="-230.5" font-family="Helvetica,sans-Serif" font-size="10.00"> </text>
<polyline fill="none" stroke="#bfbfbf" points="536,-223.5 601,-223.5 "/>
<text text-anchor="middle" x="568.5" y="-211.5" font-family="Helvetica,sans-Serif" font-size="10.00"> </text>
</a>
</g>
</g>
<!-- Node7&#45;&gt;Node1 -->
<g id="edge6" class="edge">
<title>Node7&#45;&gt;Node1</title>
<path fill="none" stroke="#404040" d="M535.69,-209.36C513.8,-194.26 483.6,-173.42 453.45,-152.62"/>
<polygon fill="none" stroke="#404040" points="453.12,-152.39 445.91,-152.28 443.24,-145.58 450.45,-145.69 453.12,-152.39"/>
<text text-anchor="middle" x="517.5" y="-172.5" font-family="Helvetica,sans-Serif" font-size="10.00"> &#45;title_</text>
</g>
<!-- Node8 -->
<g id="node8" class="node">
<title>Node8</title>
<g id="a_node8"><a xlink:title=" ">
<polygon fill="white" stroke="#bfbfbf" points="500,-309.5 500,-366.5 641,-366.5 641,-309.5 500,-309.5"/>
<text text-anchor="middle" x="570.5" y="-354.5" font-family="Helvetica,sans-Serif" font-size="10.00">std::basic_string&lt; Char &gt;</text>
<polyline fill="none" stroke="#bfbfbf" points="500,-347.5 641,-347.5 "/>
<text text-anchor="middle" x="570.5" y="-335.5" font-family="Helvetica,sans-Serif" font-size="10.00"> </text>
<polyline fill="none" stroke="#bfbfbf" points="500,-328.5 641,-328.5 "/>
<text text-anchor="middle" x="570.5" y="-316.5" font-family="Helvetica,sans-Serif" font-size="10.00"> </text>
</a>
</g>
</g>
<!-- Node8&#45;&gt;Node7 -->
<g id="edge7" class="edge">
<title>Node8&#45;&gt;Node7</title>
<path fill="none" stroke="midnightblue" d="M569.77,-299.29C569.53,-286.84 569.26,-273.23 569.04,-261.68"/>
<polygon fill="none" stroke="midnightblue" points="566.27,-299.47 569.96,-309.4 573.27,-299.33 566.27,-299.47"/>
</g>
</g>
</svg>
