<?xml version="1.0" encoding="UTF-8" standalone="no"?>
<!DOCTYPE svg PUBLIC "-//W3C//DTD SVG 1.1//EN"
 "http://www.w3.org/Graphics/SVG/1.1/DTD/svg11.dtd">
<!-- Generated by graphviz version 2.43.0 (0)
 -->
<!-- Title: ad_framework::application::ControlPannel Pages: 1 -->
<!--zoomable 622 -->
<svg id="main" version="1.1" xmlns="http://www.w3.org/2000/svg" xmlns:xlink="http://www.w3.org/1999/xlink" xml:space="preserve" onload="init(evt)">
<style type="text/css"><![CDATA[
.edge:hover path { stroke: red; }
.edge:hover polygon { stroke: red; fill: red; }
]]></style>
<script type="text/javascript"><![CDATA[
var edges = document.getElementsByTagName('g');
if (edges && edges.length) {
  for (var i=0;i<edges.length;i++) {
    if (edges[i].id.substr(0,4)=='edge') {
      edges[i].setAttribute('class','edge');
    }
  }
}
]]></script>
        <defs>
                <circle id="rim" cx="0" cy="0" r="7"/>
                <circle id="rim2" cx="0" cy="0" r="3.5"/>
                <g id="zoomPlus">
                        <use xlink:href="#rim" fill="#404040">
                                <set attributeName="fill" to="#808080" begin="zoomplus.mouseover" end="zoomplus.mouseout"/>
                        </use>
                        <path d="M-4,0h8M0,-4v8" fill="none" stroke="white" stroke-width="1.5" pointer-events="none"/>
                </g>
                <g id="zoomMin">
                        <use xlink:href="#rim" fill="#404040">
                                <set attributeName="fill" to="#808080" begin="zoomminus.mouseover" end="zoomminus.mouseout"/>
                        </use>
                        <path d="M-4,0h8" fill="none" stroke="white" stroke-width="1.5" pointer-events="none"/>
                </g>
                <g id="dirArrow">
                        <path fill="none" stroke="white" stroke-width="1.5" d="M0,-3.0v7 M-2.5,-0.5L0,-3.0L2.5,-0.5"/>
                </g>
               <g id="resetDef">
                       <use xlink:href="#rim2" fill="#404040">
                               <set attributeName="fill" to="#808080" begin="reset.mouseover" end="reset.mouseout"/>
                       </use>
               </g>
        </defs>

<script type="text/javascript">
var viewWidth = 955;
var viewHeight = 622;
var sectionId = 'dynsection-1';
</script>
<script xlink:href="svgpan.js"/>
<svg id="graph" class="graph">
<g id="viewport">
<title>ad_framework::application::ControlPannel</title>
<polygon fill="white" stroke="transparent" points="-4,4 -4,-618 951,-618 951,4 -4,4"/>
<!-- Node1 -->
<g id="node1" class="node">
<title>Node1</title>
<g id="a_node1"><a xlink:title=" ">
<polygon fill="#bfbfbf" stroke="black" points="127.5,-0.5 127.5,-79.5 446.5,-79.5 446.5,-0.5 127.5,-0.5"/>
<text text-anchor="middle" x="287" y="-67.5" font-family="Helvetica,sans-Serif" font-size="10.00">ad_framework::application::ControlPannel</text>
<polyline fill="none" stroke="black" points="127.5,-60.5 446.5,-60.5 "/>
<text text-anchor="middle" x="287" y="-48.5" font-family="Helvetica,sans-Serif" font-size="10.00"> </text>
<polyline fill="none" stroke="black" points="127.5,-41.5 446.5,-41.5 "/>
<text text-anchor="start" x="135.5" y="-29.5" font-family="Helvetica,sans-Serif" font-size="10.00">+ ControlPannel(const ImVec2 &amp;position, const ImVec2 &amp;size)</text>
<text text-anchor="start" x="135.5" y="-18.5" font-family="Helvetica,sans-Serif" font-size="10.00">+ ~ControlPannel()=default</text>
<text text-anchor="start" x="135.5" y="-7.5" font-family="Helvetica,sans-Serif" font-size="10.00">&#45; void RenderInterface(bool &amp;open) override</text>
</a>
</g>
</g>
<!-- Node2 -->
<g id="node2" class="node">
<title>Node2</title>
<g id="a_node2"><a xlink:href="classad__framework_1_1application_1_1Pannel.html" target="_top" xlink:title=" ">
<polygon fill="white" stroke="black" points="277.5,-117.5 277.5,-251.5 668.5,-251.5 668.5,-117.5 277.5,-117.5"/>
<text text-anchor="middle" x="473" y="-239.5" font-family="Helvetica,sans-Serif" font-size="10.00">ad_framework::application::Pannel</text>
<polyline fill="none" stroke="black" points="277.5,-232.5 668.5,-232.5 "/>
<text text-anchor="middle" x="473" y="-220.5" font-family="Helvetica,sans-Serif" font-size="10.00"> </text>
<polyline fill="none" stroke="black" points="277.5,-213.5 668.5,-213.5 "/>
<text text-anchor="start" x="285.5" y="-201.5" font-family="Helvetica,sans-Serif" font-size="10.00">+ Pannel(std::string name, const ImVec2 &amp;position_, const ImVec2 &amp;size_)</text>
<text text-anchor="start" x="285.5" y="-190.5" font-family="Helvetica,sans-Serif" font-size="10.00">+ virtual ~Pannel()=default</text>
<text text-anchor="start" x="285.5" y="-179.5" font-family="Helvetica,sans-Serif" font-size="10.00">+ void Update(DataLoaderPtr dataloader_ptr, DataReaderPtr datareader_ptr)</text>
<text text-anchor="start" x="285.5" y="-168.5" font-family="Helvetica,sans-Serif" font-size="10.00">+ void Render(bool &amp;open, const ImVec2 &amp;window_size)</text>
<text text-anchor="start" x="285.5" y="-157.5" font-family="Helvetica,sans-Serif" font-size="10.00">+ std::string GetName() const</text>
<text text-anchor="start" x="285.5" y="-146.5" font-family="Helvetica,sans-Serif" font-size="10.00"># virtual void RenderInterface(bool &amp;open)=0</text>
<text text-anchor="start" x="285.5" y="-135.5" font-family="Helvetica,sans-Serif" font-size="10.00">&#45; void SetSize(const ImVec2 &amp;window_size) const</text>
<text text-anchor="start" x="285.5" y="-124.5" font-family="Helvetica,sans-Serif" font-size="10.00">&#45; void SetPosition(const ImVec2 &amp;window_size) const</text>
</a>
</g>
</g>
<!-- Node2&#45;&gt;Node1 -->
<g id="edge1" class="edge">
<title>Node2&#45;&gt;Node1</title>
<path fill="none" stroke="midnightblue" d="M378.86,-111.38C364.56,-100.42 350.29,-89.49 337.41,-79.62"/>
<polygon fill="none" stroke="midnightblue" points="376.74,-114.16 386.81,-117.46 381,-108.6 376.74,-114.16"/>
</g>
<!-- Node3 -->
<g id="node3" class="node">
<title>Node3</title>
<g id="a_node3"><a xlink:title=" ">
<polygon fill="white" stroke="#bfbfbf" points="779,-346.5 779,-403.5 947,-403.5 947,-346.5 779,-346.5"/>
<text text-anchor="middle" x="863" y="-391.5" font-family="Helvetica,sans-Serif" font-size="10.00">std::shared_ptr&lt; DataLoader &gt;</text>
<polyline fill="none" stroke="#bfbfbf" points="779,-384.5 947,-384.5 "/>
<text text-anchor="start" x="787" y="-372.5" font-family="Helvetica,sans-Serif" font-size="10.00">+ DataLoader ptr</text>
<polyline fill="none" stroke="#bfbfbf" points="779,-365.5 947,-365.5 "/>
<text text-anchor="start" x="787" y="-353.5" font-family="Helvetica,sans-Serif" font-size="10.00">+ DataLoader * operator&#45;&gt;()</text>
</a>
</g>
</g>
<!-- Node3&#45;&gt;Node2 -->
<g id="edge2" class="edge">
<title>Node3&#45;&gt;Node2</title>
<path fill="none" stroke="#404040" d="M834.72,-346.32C809.74,-323.17 771.42,-290.71 733,-270 716.14,-260.91 698.14,-252.59 679.77,-245.01"/>
<polygon fill="none" stroke="#404040" points="679.74,-245 672.68,-246.47 668.6,-240.52 675.66,-239.05 679.74,-245"/>
<text text-anchor="middle" x="857" y="-296.5" font-family="Helvetica,sans-Serif" font-size="10.00"> #dataloader_ptr_</text>
</g>
<!-- Node4 -->
<g id="node4" class="node">
<title>Node4</title>
<g id="a_node4"><a xlink:title=" ">
<polygon fill="white" stroke="#bfbfbf" points="617,-451.5 617,-508.5 735,-508.5 735,-451.5 617,-451.5"/>
<text text-anchor="middle" x="676" y="-496.5" font-family="Helvetica,sans-Serif" font-size="10.00">std::shared_ptr&lt; T &gt;</text>
<polyline fill="none" stroke="#bfbfbf" points="617,-489.5 735,-489.5 "/>
<text text-anchor="middle" x="676" y="-477.5" font-family="Helvetica,sans-Serif" font-size="10.00"> </text>
<polyline fill="none" stroke="#bfbfbf" points="617,-470.5 735,-470.5 "/>
<text text-anchor="start" x="625" y="-458.5" font-family="Helvetica,sans-Serif" font-size="10.00">+ T * operator&#45;&gt;()</text>
</a>
</g>
</g>
<!-- Node4&#45;&gt;Node3 -->
<g id="edge3" class="edge">
<title>Node4&#45;&gt;Node3</title>
<path fill="none" stroke="orange" d="M738.58,-446.69C747.15,-442.15 755.81,-437.49 764,-433 781.04,-423.65 799.54,-413.1 815.89,-403.65"/>
<polygon fill="orange" stroke="orange" points="736.91,-443.61 729.7,-451.37 740.18,-449.8 736.91,-443.61"/>
<text text-anchor="middle" x="824" y="-425" font-family="Helvetica,sans-Serif" font-size="10.00"> &lt; DataLoader &gt;</text>
</g>
<!-- Node7 -->
<g id="node7" class="node">
<title>Node7</title>
<g id="a_node7"><a xlink:title=" ">
<polygon fill="white" stroke="#bfbfbf" points="591,-346.5 591,-403.5 761,-403.5 761,-346.5 591,-346.5"/>
<text text-anchor="middle" x="676" y="-391.5" font-family="Helvetica,sans-Serif" font-size="10.00">std::shared_ptr&lt; DataReader &gt;</text>
<polyline fill="none" stroke="#bfbfbf" points="591,-384.5 761,-384.5 "/>
<text text-anchor="start" x="599" y="-372.5" font-family="Helvetica,sans-Serif" font-size="10.00">+ DataReader ptr</text>
<polyline fill="none" stroke="#bfbfbf" points="591,-365.5 761,-365.5 "/>
<text text-anchor="start" x="599" y="-353.5" font-family="Helvetica,sans-Serif" font-size="10.00">+ DataReader * operator&#45;&gt;()</text>
</a>
</g>
</g>
<!-- Node4&#45;&gt;Node7 -->
<g id="edge7" class="edge">
<title>Node4&#45;&gt;Node7</title>
<path fill="none" stroke="orange" d="M676,-441.29C676,-428.84 676,-415.23 676,-403.68"/>
<polygon fill="orange" stroke="orange" points="672.5,-441.4 676,-451.4 679.5,-441.4 672.5,-441.4"/>
<text text-anchor="middle" x="718" y="-425" font-family="Helvetica,sans-Serif" font-size="10.00"> &lt; DataReader &gt;</text>
</g>
<!-- Node5 -->
<g id="node5" class="node">
<title>Node5</title>
<g id="a_node5"><a xlink:title=" ">
<polygon fill="white" stroke="#bfbfbf" points="403.5,-556.5 403.5,-613.5 432.5,-613.5 432.5,-556.5 403.5,-556.5"/>
<text text-anchor="middle" x="418" y="-601.5" font-family="Helvetica,sans-Serif" font-size="10.00">T</text>
<polyline fill="none" stroke="#bfbfbf" points="403.5,-594.5 432.5,-594.5 "/>
<text text-anchor="middle" x="418" y="-582.5" font-family="Helvetica,sans-Serif" font-size="10.00"> </text>
<polyline fill="none" stroke="#bfbfbf" points="403.5,-575.5 432.5,-575.5 "/>
<text text-anchor="middle" x="418" y="-563.5" font-family="Helvetica,sans-Serif" font-size="10.00"> </text>
</a>
</g>
</g>
<!-- Node5&#45;&gt;Node4 -->
<g id="edge4" class="edge">
<title>Node5&#45;&gt;Node4</title>
<path fill="none" stroke="#404040" d="M432.61,-578.17C465.26,-565.13 545.93,-532.93 605.5,-509.15"/>
<polygon fill="none" stroke="#404040" points="605.59,-509.11 609.68,-503.17 616.73,-504.66 612.64,-510.6 605.59,-509.11"/>
<text text-anchor="middle" x="566.5" y="-530" font-family="Helvetica,sans-Serif" font-size="10.00"> +ptr</text>
</g>
<!-- Node12 -->
<g id="node12" class="node">
<title>Node12</title>
<g id="a_node12"><a xlink:title=" ">
<polygon fill="white" stroke="#bfbfbf" points="176,-451.5 176,-508.5 294,-508.5 294,-451.5 176,-451.5"/>
<text text-anchor="middle" x="235" y="-496.5" font-family="Helvetica,sans-Serif" font-size="10.00">std::unique_ptr&lt; T &gt;</text>
<polyline fill="none" stroke="#bfbfbf" points="176,-489.5 294,-489.5 "/>
<text text-anchor="middle" x="235" y="-477.5" font-family="Helvetica,sans-Serif" font-size="10.00"> </text>
<polyline fill="none" stroke="#bfbfbf" points="176,-470.5 294,-470.5 "/>
<text text-anchor="start" x="184" y="-458.5" font-family="Helvetica,sans-Serif" font-size="10.00">+ T * operator&#45;&gt;()</text>
</a>
</g>
</g>
<!-- Node5&#45;&gt;Node12 -->
<g id="edge13" class="edge">
<title>Node5&#45;&gt;Node12</title>
<path fill="none" stroke="#404040" d="M403.33,-575.75C380,-562.61 333.13,-536.23 294.77,-514.64"/>
<polygon fill="none" stroke="#404040" points="294.65,-514.58 287.46,-515.12 284.2,-508.69 291.39,-508.15 294.65,-514.58"/>
<text text-anchor="middle" x="344.5" y="-530" font-family="Helvetica,sans-Serif" font-size="10.00"> +ptr</text>
</g>
<!-- Node6 -->
<g id="node6" class="node">
<title>Node6</title>
<g id="a_node6"><a xlink:title=" ">
<polygon fill="white" stroke="#bfbfbf" points="390.5,-346.5 390.5,-403.5 443.5,-403.5 443.5,-346.5 390.5,-346.5"/>
<text text-anchor="middle" x="417" y="-391.5" font-family="Helvetica,sans-Serif" font-size="10.00">ImVec2</text>
<polyline fill="none" stroke="#bfbfbf" points="390.5,-384.5 443.5,-384.5 "/>
<text text-anchor="middle" x="417" y="-372.5" font-family="Helvetica,sans-Serif" font-size="10.00"> </text>
<polyline fill="none" stroke="#bfbfbf" points="390.5,-365.5 443.5,-365.5 "/>
<text text-anchor="middle" x="417" y="-353.5" font-family="Helvetica,sans-Serif" font-size="10.00"> </text>
</a>
</g>
</g>
<!-- Node6&#45;&gt;Node2 -->
<g id="edge5" class="edge">
<title>Node6&#45;&gt;Node2</title>
<path fill="none" stroke="#404040" d="M420.69,-346.24C423.91,-325.06 429.27,-295.32 437,-270 437.68,-267.77 438.4,-265.52 439.16,-263.26"/>
<polygon fill="none" stroke="#404040" points="439.17,-263.21 437.4,-256.22 443.17,-251.89 444.94,-258.88 439.17,-263.21"/>
<text text-anchor="middle" x="463" y="-302" font-family="Helvetica,sans-Serif" font-size="10.00"> &#45;position_</text>
<text text-anchor="middle" x="463" y="-291" font-family="Helvetica,sans-Serif" font-size="10.00">&#45;size_</text>
</g>
<!-- Node7&#45;&gt;Node2 -->
<g id="edge6" class="edge">
<title>Node7&#45;&gt;Node2</title>
<path fill="none" stroke="#404040" d="M655.55,-346.4C638.66,-324.5 613.41,-293.73 588,-270 584.28,-266.53 580.42,-263.07 576.46,-259.65"/>
<polygon fill="none" stroke="#404040" points="576.25,-259.46 569.08,-258.65 567.08,-251.73 574.24,-252.54 576.25,-259.46"/>
<text text-anchor="middle" x="684.5" y="-296.5" font-family="Helvetica,sans-Serif" font-size="10.00"> #datareader_ptr_</text>
</g>
<!-- Node8 -->
<g id="node8" class="node">
<title>Node8</title>
<g id="a_node8"><a xlink:title=" ">
<polygon fill="white" stroke="#bfbfbf" points="461.5,-346.5 461.5,-403.5 572.5,-403.5 572.5,-346.5 461.5,-346.5"/>
<text text-anchor="middle" x="517" y="-391.5" font-family="Helvetica,sans-Serif" font-size="10.00">ImGuiWindowFlags</text>
<polyline fill="none" stroke="#bfbfbf" points="461.5,-384.5 572.5,-384.5 "/>
<text text-anchor="middle" x="517" y="-372.5" font-family="Helvetica,sans-Serif" font-size="10.00"> </text>
<polyline fill="none" stroke="#bfbfbf" points="461.5,-365.5 572.5,-365.5 "/>
<text text-anchor="middle" x="517" y="-353.5" font-family="Helvetica,sans-Serif" font-size="10.00"> </text>
</a>
</g>
</g>
<!-- Node8&#45;&gt;Node2 -->
<g id="edge8" class="edge">
<title>Node8&#45;&gt;Node2</title>
<path fill="none" stroke="#404040" d="M510.51,-346.19C505.42,-324.4 498.09,-292.99 491.25,-263.7"/>
<polygon fill="none" stroke="#404040" points="491.19,-263.44 485.93,-258.5 488.46,-251.75 493.72,-256.68 491.19,-263.44"/>
<text text-anchor="middle" x="544.5" y="-296.5" font-family="Helvetica,sans-Serif" font-size="10.00"> &#45;window_flags_</text>
</g>
<!-- Node9 -->
<g id="node9" class="node">
<title>Node9</title>
<g id="a_node9"><a xlink:title=" ">
<polygon fill="white" stroke="#bfbfbf" points="307.5,-346.5 307.5,-403.5 372.5,-403.5 372.5,-346.5 307.5,-346.5"/>
<text text-anchor="middle" x="340" y="-391.5" font-family="Helvetica,sans-Serif" font-size="10.00">std::string</text>
<polyline fill="none" stroke="#bfbfbf" points="307.5,-384.5 372.5,-384.5 "/>
<text text-anchor="middle" x="340" y="-372.5" font-family="Helvetica,sans-Serif" font-size="10.00"> </text>
<polyline fill="none" stroke="#bfbfbf" points="307.5,-365.5 372.5,-365.5 "/>
<text text-anchor="middle" x="340" y="-353.5" font-family="Helvetica,sans-Serif" font-size="10.00"> </text>
</a>
</g>
</g>
<!-- Node9&#45;&gt;Node2 -->
<g id="edge9" class="edge">
<title>Node9&#45;&gt;Node2</title>
<path fill="none" stroke="#404040" d="M346.84,-346.26C353.13,-324.28 363.94,-293.47 380,-270 382.09,-266.95 384.31,-263.93 386.63,-260.95"/>
<polygon fill="none" stroke="#404040" points="386.72,-260.85 387.47,-253.67 394.38,-251.61 393.63,-258.78 386.72,-260.85"/>
<text text-anchor="middle" x="400" y="-296.5" font-family="Helvetica,sans-Serif" font-size="10.00"> &#45;name_</text>
</g>
<!-- Node10 -->
<g id="node10" class="node">
<title>Node10</title>
<g id="a_node10"><a xlink:title=" ">
<polygon fill="white" stroke="#bfbfbf" points="374.5,-451.5 374.5,-508.5 515.5,-508.5 515.5,-451.5 374.5,-451.5"/>
<text text-anchor="middle" x="445" y="-496.5" font-family="Helvetica,sans-Serif" font-size="10.00">std::basic_string&lt; Char &gt;</text>
<polyline fill="none" stroke="#bfbfbf" points="374.5,-489.5 515.5,-489.5 "/>
<text text-anchor="middle" x="445" y="-477.5" font-family="Helvetica,sans-Serif" font-size="10.00"> </text>
<polyline fill="none" stroke="#bfbfbf" points="374.5,-470.5 515.5,-470.5 "/>
<text text-anchor="middle" x="445" y="-458.5" font-family="Helvetica,sans-Serif" font-size="10.00"> </text>
</a>
</g>
</g>
<!-- Node10&#45;&gt;Node9 -->
<g id="edge10" class="edge">
<title>Node10&#45;&gt;Node9</title>
<path fill="none" stroke="midnightblue" d="M441.15,-441.04C439.01,-434.09 435.79,-427.36 431,-422 415.53,-404.71 402.68,-414.51 382,-404 378.87,-402.41 375.7,-400.64 372.57,-398.77"/>
<polygon fill="none" stroke="midnightblue" points="437.85,-442.31 443.58,-451.22 444.66,-440.69 437.85,-442.31"/>
</g>
<!-- Node11 -->
<g id="node11" class="node">
<title>Node11</title>
<g id="a_node11"><a xlink:title=" ">
<polygon fill="white" stroke="#bfbfbf" points="0,-270.5 0,-327.5 344,-327.5 344,-270.5 0,-270.5"/>
<text text-anchor="middle" x="172" y="-315.5" font-family="Helvetica,sans-Serif" font-size="10.00">std::unique_ptr&lt; ad_framework::application::ControlPannel::Impl &gt;</text>
<polyline fill="none" stroke="#bfbfbf" points="0,-308.5 344,-308.5 "/>
<text text-anchor="start" x="8" y="-296.5" font-family="Helvetica,sans-Serif" font-size="10.00">+ ad_framework::application::ControlPannel::Impl ptr</text>
<polyline fill="none" stroke="#bfbfbf" points="0,-289.5 344,-289.5 "/>
<text text-anchor="start" x="8" y="-277.5" font-family="Helvetica,sans-Serif" font-size="10.00">+ ad_framework::application::ControlPannel::Impl * operator&#45;&gt;()</text>
</a>
</g>
</g>
<!-- Node11&#45;&gt;Node1 -->
<g id="edge11" class="edge">
<title>Node11&#45;&gt;Node1</title>
<path fill="none" stroke="#404040" d="M177.29,-270.44C185.01,-233.89 201.41,-168.06 228,-117 232.88,-107.64 238.94,-98.26 245.31,-89.45"/>
<polygon fill="none" stroke="#404040" points="245.37,-89.37 245.78,-82.17 252.59,-79.78 252.18,-86.98 245.37,-89.37"/>
<text text-anchor="middle" x="248" y="-182" font-family="Helvetica,sans-Serif" font-size="10.00"> &#45;pimpl_</text>
</g>
<!-- Node12&#45;&gt;Node11 -->
<g id="edge12" class="edge">
<title>Node12&#45;&gt;Node11</title>
<path fill="none" stroke="orange" d="M176.69,-444.2C173.71,-440.74 171.09,-437.01 169,-433 151.79,-400.04 157.42,-355.93 163.96,-327.73"/>
<polygon fill="orange" stroke="orange" points="174.21,-446.67 183.72,-451.34 179.2,-441.76 174.21,-446.67"/>
<text text-anchor="middle" x="298" y="-425" font-family="Helvetica,sans-Serif" font-size="10.00"> &lt; ad_framework::application::ControlPannel::Impl &gt;</text>
</g>
</g>
</svg>
        <g id="navigator" transform="translate(0 0)" fill="#404254">
                <rect fill="#f2f5e9" fill-opacity="0.5" stroke="#606060" stroke-width=".5" x="0" y="0" width="60" height="60"/>
                <use id="zoomplus" xlink:href="#zoomPlus" x="17" y="9" onmousedown="handleZoom(evt,'in')"/>
                <use id="zoomminus" xlink:href="#zoomMin" x="42" y="9" onmousedown="handleZoom(evt,'out')"/>
                <use id="reset" xlink:href="#resetDef" x="30" y="36" onmousedown="handleReset()"/>
                <g id="arrowUp" xlink:href="#dirArrow" transform="translate(30 24)" onmousedown="handlePan(0,-1)">
                  <use xlink:href="#rim" fill="#404040">
                        <set attributeName="fill" to="#808080" begin="arrowUp.mouseover" end="arrowUp.mouseout"/>
                  </use>
                  <path fill="none" stroke="white" stroke-width="1.5" d="M0,-3.0v7 M-2.5,-0.5L0,-3.0L2.5,-0.5"/>
                </g>
                <g id="arrowRight" xlink:href="#dirArrow" transform="rotate(90) translate(36 -43)" onmousedown="handlePan(1,0)">
                  <use xlink:href="#rim" fill="#404040">
                        <set attributeName="fill" to="#808080" begin="arrowRight.mouseover" end="arrowRight.mouseout"/>
                  </use>
                  <path fill="none" stroke="white" stroke-width="1.5" d="M0,-3.0v7 M-2.5,-0.5L0,-3.0L2.5,-0.5"/>
                </g>
                <g id="arrowDown" xlink:href="#dirArrow" transform="rotate(180) translate(-30 -48)" onmousedown="handlePan(0,1)">
                  <use xlink:href="#rim" fill="#404040">
                        <set attributeName="fill" to="#808080" begin="arrowDown.mouseover" end="arrowDown.mouseout"/>
                  </use>
                  <path fill="none" stroke="white" stroke-width="1.5" d="M0,-3.0v7 M-2.5,-0.5L0,-3.0L2.5,-0.5"/>
                </g>
                <g id="arrowLeft" xlink:href="#dirArrow" transform="rotate(270) translate(-36 17)" onmousedown="handlePan(-1,0)">
                  <use xlink:href="#rim" fill="#404040">
                        <set attributeName="fill" to="#808080" begin="arrowLeft.mouseover" end="arrowLeft.mouseout"/>
                  </use>
                  <path fill="none" stroke="white" stroke-width="1.5" d="M0,-3.0v7 M-2.5,-0.5L0,-3.0L2.5,-0.5"/>
                </g>
        </g>
        <svg viewBox="0 0 15 15" width="100%" height="30px" preserveAspectRatio="xMaxYMin meet">
         <g id="arrow_out" transform="scale(0.3 0.3)">
          <a xlink:href="classad__framework_1_1application_1_1ControlPannel__coll__graph_org.svg" target="_base">
           <rect id="button" ry="5" rx="5" y="6" x="6" height="38" width="38"
                fill="#f2f5e9" fill-opacity="0.5" stroke="#606060" stroke-width="1.0"/>
           <path id="arrow"
             d="M 11.500037,31.436501 C 11.940474,20.09759 22.043105,11.32322 32.158766,21.979434 L 37.068811,17.246167 C 37.068811,17.246167 37.088388,32 37.088388,32 L 22.160133,31.978069 C 22.160133,31.978069 26.997745,27.140456 26.997745,27.140456 C 18.528582,18.264221 13.291696,25.230495 11.500037,31.436501 z"
             style="fill:#404040;"/>
          </a>
         </g>
        </svg>
</svg>
