<?xml version="1.0" encoding="UTF-8" standalone="no"?>
<!DOCTYPE svg PUBLIC "-//W3C//DTD SVG 1.1//EN"
 "http://www.w3.org/Graphics/SVG/1.1/DTD/svg11.dtd">
<!-- Generated by graphviz version 2.43.0 (0)
 -->
<!-- Title: ad_framework::ui::TopViewer::FrameDrawer Pages: 1 -->
<!--zoomable 552 -->
<svg id="main" version="1.1" xmlns="http://www.w3.org/2000/svg" xmlns:xlink="http://www.w3.org/1999/xlink" xml:space="preserve" onload="init(evt)">
<style type="text/css"><![CDATA[
.edge:hover path { stroke: red; }
.edge:hover polygon { stroke: red; fill: red; }
]]></style>
<script type="text/javascript"><![CDATA[
var edges = document.getElementsByTagName('g');
if (edges && edges.length) {
  for (var i=0;i<edges.length;i++) {
    if (edges[i].id.substr(0,4)=='edge') {
      edges[i].setAttribute('class','edge');
    }
  }
}
]]></script>
        <defs>
                <circle id="rim" cx="0" cy="0" r="7"/>
                <circle id="rim2" cx="0" cy="0" r="3.5"/>
                <g id="zoomPlus">
                        <use xlink:href="#rim" fill="#404040">
                                <set attributeName="fill" to="#808080" begin="zoomplus.mouseover" end="zoomplus.mouseout"/>
                        </use>
                        <path d="M-4,0h8M0,-4v8" fill="none" stroke="white" stroke-width="1.5" pointer-events="none"/>
                </g>
                <g id="zoomMin">
                        <use xlink:href="#rim" fill="#404040">
                                <set attributeName="fill" to="#808080" begin="zoomminus.mouseover" end="zoomminus.mouseout"/>
                        </use>
                        <path d="M-4,0h8" fill="none" stroke="white" stroke-width="1.5" pointer-events="none"/>
                </g>
                <g id="dirArrow">
                        <path fill="none" stroke="white" stroke-width="1.5" d="M0,-3.0v7 M-2.5,-0.5L0,-3.0L2.5,-0.5"/>
                </g>
               <g id="resetDef">
                       <use xlink:href="#rim2" fill="#404040">
                               <set attributeName="fill" to="#808080" begin="reset.mouseover" end="reset.mouseout"/>
                       </use>
               </g>
        </defs>

<script type="text/javascript">
var viewWidth = 677;
var viewHeight = 552;
var sectionId = 'dynsection-1';
</script>
<script xlink:href="svgpan.js"/>
<svg id="graph" class="graph">
<g id="viewport">
<title>ad_framework::ui::TopViewer::FrameDrawer</title>
<polygon fill="white" stroke="transparent" points="-4,4 -4,-548 673,-548 673,4 -4,4"/>
<!-- Node1 -->
<g id="node1" class="node">
<title>Node1</title>
<g id="a_node1"><a xlink:title=" ">
<polygon fill="#bfbfbf" stroke="black" points="187.5,-0.5 187.5,-68.5 450.5,-68.5 450.5,-0.5 187.5,-0.5"/>
<text text-anchor="middle" x="319" y="-56.5" font-family="Helvetica,sans-Serif" font-size="10.00">ad_framework::ui::TopViewer::FrameDrawer</text>
<polyline fill="none" stroke="black" points="187.5,-49.5 450.5,-49.5 "/>
<text text-anchor="middle" x="319" y="-37.5" font-family="Helvetica,sans-Serif" font-size="10.00"> </text>
<polyline fill="none" stroke="black" points="187.5,-30.5 450.5,-30.5 "/>
<text text-anchor="start" x="195.5" y="-18.5" font-family="Helvetica,sans-Serif" font-size="10.00">+ FrameDrawer()=default</text>
<text text-anchor="start" x="195.5" y="-7.5" font-family="Helvetica,sans-Serif" font-size="10.00">+ std::any operator()(const std::any &amp;src) override</text>
</a>
</g>
</g>
<!-- Node2 -->
<g id="node2" class="node">
<title>Node2</title>
<g id="a_node2"><a xlink:href="structad__framework_1_1callback_1_1Callback.html" target="_top" xlink:title=" ">
<polygon fill="white" stroke="black" points="0,-138.5 0,-206.5 268,-206.5 268,-138.5 0,-138.5"/>
<text text-anchor="middle" x="134" y="-194.5" font-family="Helvetica,sans-Serif" font-size="10.00">ad_framework::callback::Callback</text>
<polyline fill="none" stroke="black" points="0,-187.5 268,-187.5 "/>
<text text-anchor="middle" x="134" y="-175.5" font-family="Helvetica,sans-Serif" font-size="10.00"> </text>
<polyline fill="none" stroke="black" points="0,-168.5 268,-168.5 "/>
<text text-anchor="start" x="8" y="-156.5" font-family="Helvetica,sans-Serif" font-size="10.00">+ virtual ~Callback()=default</text>
<text text-anchor="start" x="8" y="-145.5" font-family="Helvetica,sans-Serif" font-size="10.00">+ virtual std::any operator()(const std::any &amp;src)=0</text>
</a>
</g>
</g>
<!-- Node2&#45;&gt;Node1 -->
<g id="edge1" class="edge">
<title>Node2&#45;&gt;Node1</title>
<path fill="none" stroke="midnightblue" d="M187.56,-132.13C214.92,-112.02 247.84,-87.81 273.89,-68.66"/>
<polygon fill="none" stroke="midnightblue" points="185.24,-129.49 179.26,-138.23 189.39,-135.13 185.24,-129.49"/>
</g>
<!-- Node3 -->
<g id="node3" class="node">
<title>Node3</title>
<g id="a_node3"><a xlink:title=" ">
<polygon fill="white" stroke="#bfbfbf" points="286.5,-144 286.5,-201 351.5,-201 351.5,-144 286.5,-144"/>
<text text-anchor="middle" x="319" y="-189" font-family="Helvetica,sans-Serif" font-size="10.00">std::string</text>
<polyline fill="none" stroke="#bfbfbf" points="286.5,-182 351.5,-182 "/>
<text text-anchor="middle" x="319" y="-170" font-family="Helvetica,sans-Serif" font-size="10.00"> </text>
<polyline fill="none" stroke="#bfbfbf" points="286.5,-163 351.5,-163 "/>
<text text-anchor="middle" x="319" y="-151" font-family="Helvetica,sans-Serif" font-size="10.00"> </text>
</a>
</g>
</g>
<!-- Node3&#45;&gt;Node1 -->
<g id="edge2" class="edge">
<title>Node3&#45;&gt;Node1</title>
<path fill="none" stroke="#404040" d="M319,-143.98C319,-125.9 319,-101.81 319,-80.93"/>
<polygon fill="none" stroke="#404040" points="319,-80.75 315,-74.75 319,-68.75 323,-74.75 319,-80.75"/>
<text text-anchor="middle" x="335" y="-90" font-family="Helvetica,sans-Serif" font-size="10.00"> &#45;title_</text>
</g>
<!-- Node4 -->
<g id="node4" class="node">
<title>Node4</title>
<g id="a_node4"><a xlink:title=" ">
<polygon fill="white" stroke="#bfbfbf" points="248.5,-276.5 248.5,-333.5 389.5,-333.5 389.5,-276.5 248.5,-276.5"/>
<text text-anchor="middle" x="319" y="-321.5" font-family="Helvetica,sans-Serif" font-size="10.00">std::basic_string&lt; Char &gt;</text>
<polyline fill="none" stroke="#bfbfbf" points="248.5,-314.5 389.5,-314.5 "/>
<text text-anchor="middle" x="319" y="-302.5" font-family="Helvetica,sans-Serif" font-size="10.00"> </text>
<polyline fill="none" stroke="#bfbfbf" points="248.5,-295.5 389.5,-295.5 "/>
<text text-anchor="middle" x="319" y="-283.5" font-family="Helvetica,sans-Serif" font-size="10.00"> </text>
</a>
</g>
</g>
<!-- Node4&#45;&gt;Node3 -->
<g id="edge3" class="edge">
<title>Node4&#45;&gt;Node3</title>
<path fill="none" stroke="midnightblue" d="M319,-266.23C319,-245.43 319,-220.07 319,-201.14"/>
<polygon fill="none" stroke="midnightblue" points="315.5,-266.32 319,-276.32 322.5,-266.32 315.5,-266.32"/>
</g>
<!-- Node5 -->
<g id="node5" class="node">
<title>Node5</title>
<g id="a_node5"><a xlink:href="classad__framework_1_1data__structure_1_1Frame.html" target="_top" xlink:title=" ">
<polygon fill="white" stroke="black" points="369,-116.5 369,-228.5 669,-228.5 669,-116.5 369,-116.5"/>
<text text-anchor="middle" x="519" y="-216.5" font-family="Helvetica,sans-Serif" font-size="10.00">ad_framework::data_structure::Frame</text>
<polyline fill="none" stroke="black" points="369,-209.5 669,-209.5 "/>
<text text-anchor="middle" x="519" y="-197.5" font-family="Helvetica,sans-Serif" font-size="10.00"> </text>
<polyline fill="none" stroke="black" points="369,-190.5 669,-190.5 "/>
<text text-anchor="start" x="377" y="-178.5" font-family="Helvetica,sans-Serif" font-size="10.00">+ Frame()=default</text>
<text text-anchor="start" x="377" y="-167.5" font-family="Helvetica,sans-Serif" font-size="10.00">+ Frame(const std::vector&lt; ShapePtr &gt; &amp;shapes)</text>
<text text-anchor="start" x="377" y="-156.5" font-family="Helvetica,sans-Serif" font-size="10.00">+ void AddShape(ShapePtr shape)</text>
<text text-anchor="start" x="377" y="-145.5" font-family="Helvetica,sans-Serif" font-size="10.00">+ void AddShape(const std::vector&lt; ShapePtr &gt; &amp;shapes)</text>
<text text-anchor="start" x="377" y="-134.5" font-family="Helvetica,sans-Serif" font-size="10.00">+ void Clear()</text>
<text text-anchor="start" x="377" y="-123.5" font-family="Helvetica,sans-Serif" font-size="10.00">+ std::vector&lt; ShapePtr &gt; GetShapes() const</text>
</a>
</g>
</g>
<!-- Node5&#45;&gt;Node1 -->
<g id="edge4" class="edge">
<title>Node5&#45;&gt;Node1</title>
<path fill="none" stroke="#404040" d="M437.94,-116.38C417.75,-102.65 396.49,-88.19 377.61,-75.36"/>
<polygon fill="none" stroke="#404040" points="377.61,-75.36 370.4,-75.29 367.69,-68.61 374.9,-68.67 377.61,-75.36"/>
<text text-anchor="middle" x="429" y="-90" font-family="Helvetica,sans-Serif" font-size="10.00"> &#45;frame_</text>
</g>
<!-- Node6 -->
<g id="node6" class="node">
<title>Node6</title>
<g id="a_node6"><a xlink:title=" ">
<polygon fill="white" stroke="#bfbfbf" points="452,-276.5 452,-333.5 586,-333.5 586,-276.5 452,-276.5"/>
<text text-anchor="middle" x="519" y="-321.5" font-family="Helvetica,sans-Serif" font-size="10.00">std::vector&lt; ShapePtr &gt;</text>
<polyline fill="none" stroke="#bfbfbf" points="452,-314.5 586,-314.5 "/>
<text text-anchor="middle" x="519" y="-302.5" font-family="Helvetica,sans-Serif" font-size="10.00"> </text>
<polyline fill="none" stroke="#bfbfbf" points="452,-295.5 586,-295.5 "/>
<text text-anchor="middle" x="519" y="-283.5" font-family="Helvetica,sans-Serif" font-size="10.00"> </text>
</a>
</g>
</g>
<!-- Node6&#45;&gt;Node5 -->
<g id="edge5" class="edge">
<title>Node6&#45;&gt;Node5</title>
<path fill="none" stroke="#404040" d="M519,-276.32C519,-265.78 519,-253.25 519,-240.62"/>
<polygon fill="none" stroke="#404040" points="519,-240.55 515,-234.55 519,-228.55 523,-234.55 519,-240.55"/>
<text text-anchor="middle" x="542.5" y="-250" font-family="Helvetica,sans-Serif" font-size="10.00"> &#45;shapes_</text>
</g>
<!-- Node7 -->
<g id="node7" class="node">
<title>Node7</title>
<g id="a_node7"><a xlink:title=" ">
<polygon fill="white" stroke="#bfbfbf" points="392,-381.5 392,-438.5 510,-438.5 510,-381.5 392,-381.5"/>
<text text-anchor="middle" x="451" y="-426.5" font-family="Helvetica,sans-Serif" font-size="10.00">std::shared_ptr&lt; T &gt;</text>
<polyline fill="none" stroke="#bfbfbf" points="392,-419.5 510,-419.5 "/>
<text text-anchor="middle" x="451" y="-407.5" font-family="Helvetica,sans-Serif" font-size="10.00"> </text>
<polyline fill="none" stroke="#bfbfbf" points="392,-400.5 510,-400.5 "/>
<text text-anchor="start" x="400" y="-388.5" font-family="Helvetica,sans-Serif" font-size="10.00">+ T * operator&#45;&gt;()</text>
</a>
</g>
</g>
<!-- Node7&#45;&gt;Node6 -->
<g id="edge6" class="edge">
<title>Node7&#45;&gt;Node6</title>
<path fill="none" stroke="#404040" d="M466.1,-381.32C471.5,-371.87 477.79,-361.33 484,-352 485.81,-349.28 487.74,-346.5 489.71,-343.73"/>
<polygon fill="none" stroke="#404040" points="489.87,-343.5 490.19,-336.29 496.96,-333.81 496.64,-341.02 489.87,-343.5"/>
<text text-anchor="middle" x="513" y="-355" font-family="Helvetica,sans-Serif" font-size="10.00"> +elements</text>
</g>
<!-- Node8 -->
<g id="node8" class="node">
<title>Node8</title>
<g id="a_node8"><a xlink:title=" ">
<polygon fill="white" stroke="#bfbfbf" points="499.5,-486.5 499.5,-543.5 528.5,-543.5 528.5,-486.5 499.5,-486.5"/>
<text text-anchor="middle" x="514" y="-531.5" font-family="Helvetica,sans-Serif" font-size="10.00">T</text>
<polyline fill="none" stroke="#bfbfbf" points="499.5,-524.5 528.5,-524.5 "/>
<text text-anchor="middle" x="514" y="-512.5" font-family="Helvetica,sans-Serif" font-size="10.00"> </text>
<polyline fill="none" stroke="#bfbfbf" points="499.5,-505.5 528.5,-505.5 "/>
<text text-anchor="middle" x="514" y="-493.5" font-family="Helvetica,sans-Serif" font-size="10.00"> </text>
</a>
</g>
</g>
<!-- Node8&#45;&gt;Node7 -->
<g id="edge7" class="edge">
<title>Node8&#45;&gt;Node7</title>
<path fill="none" stroke="#404040" d="M499.39,-490.11C491.99,-478.01 482.82,-463.03 474.47,-449.37"/>
<polygon fill="none" stroke="#404040" points="474.25,-449.01 467.7,-445.98 467.99,-438.77 474.53,-441.8 474.25,-449.01"/>
<text text-anchor="middle" x="497.5" y="-460" font-family="Helvetica,sans-Serif" font-size="10.00"> +ptr</text>
</g>
<!-- Node9 -->
<g id="node9" class="node">
<title>Node9</title>
<g id="a_node9"><a xlink:title=" ">
<polygon fill="white" stroke="#bfbfbf" points="528.5,-381.5 528.5,-438.5 625.5,-438.5 625.5,-381.5 528.5,-381.5"/>
<text text-anchor="middle" x="577" y="-426.5" font-family="Helvetica,sans-Serif" font-size="10.00">std::vector&lt; T &gt;</text>
<polyline fill="none" stroke="#bfbfbf" points="528.5,-419.5 625.5,-419.5 "/>
<text text-anchor="middle" x="577" y="-407.5" font-family="Helvetica,sans-Serif" font-size="10.00"> </text>
<polyline fill="none" stroke="#bfbfbf" points="528.5,-400.5 625.5,-400.5 "/>
<text text-anchor="middle" x="577" y="-388.5" font-family="Helvetica,sans-Serif" font-size="10.00"> </text>
</a>
</g>
</g>
<!-- Node8&#45;&gt;Node9 -->
<g id="edge9" class="edge">
<title>Node8&#45;&gt;Node9</title>
<path fill="none" stroke="#404040" d="M528.61,-490.11C536.01,-478.01 545.18,-463.03 553.53,-449.37"/>
<polygon fill="none" stroke="#404040" points="553.75,-449.01 553.47,-441.8 560.01,-438.77 560.3,-445.98 553.75,-449.01"/>
<text text-anchor="middle" x="576" y="-460" font-family="Helvetica,sans-Serif" font-size="10.00"> +elements</text>
</g>
<!-- Node9&#45;&gt;Node6 -->
<g id="edge8" class="edge">
<title>Node9&#45;&gt;Node6</title>
<path fill="none" stroke="orange" d="M556.39,-372.4C549.21,-359.66 541.29,-345.58 534.59,-333.68"/>
<polygon fill="orange" stroke="orange" points="553.5,-374.4 561.46,-381.4 559.6,-370.97 553.5,-374.4"/>
<text text-anchor="middle" x="584" y="-355" font-family="Helvetica,sans-Serif" font-size="10.00"> &lt; ShapePtr &gt;</text>
</g>
</g>
</svg>
        <g id="navigator" transform="translate(0 0)" fill="#404254">
                <rect fill="#f2f5e9" fill-opacity="0.5" stroke="#606060" stroke-width=".5" x="0" y="0" width="60" height="60"/>
                <use id="zoomplus" xlink:href="#zoomPlus" x="17" y="9" onmousedown="handleZoom(evt,'in')"/>
                <use id="zoomminus" xlink:href="#zoomMin" x="42" y="9" onmousedown="handleZoom(evt,'out')"/>
                <use id="reset" xlink:href="#resetDef" x="30" y="36" onmousedown="handleReset()"/>
                <g id="arrowUp" xlink:href="#dirArrow" transform="translate(30 24)" onmousedown="handlePan(0,-1)">
                  <use xlink:href="#rim" fill="#404040">
                        <set attributeName="fill" to="#808080" begin="arrowUp.mouseover" end="arrowUp.mouseout"/>
                  </use>
                  <path fill="none" stroke="white" stroke-width="1.5" d="M0,-3.0v7 M-2.5,-0.5L0,-3.0L2.5,-0.5"/>
                </g>
                <g id="arrowRight" xlink:href="#dirArrow" transform="rotate(90) translate(36 -43)" onmousedown="handlePan(1,0)">
                  <use xlink:href="#rim" fill="#404040">
                        <set attributeName="fill" to="#808080" begin="arrowRight.mouseover" end="arrowRight.mouseout"/>
                  </use>
                  <path fill="none" stroke="white" stroke-width="1.5" d="M0,-3.0v7 M-2.5,-0.5L0,-3.0L2.5,-0.5"/>
                </g>
                <g id="arrowDown" xlink:href="#dirArrow" transform="rotate(180) translate(-30 -48)" onmousedown="handlePan(0,1)">
                  <use xlink:href="#rim" fill="#404040">
                        <set attributeName="fill" to="#808080" begin="arrowDown.mouseover" end="arrowDown.mouseout"/>
                  </use>
                  <path fill="none" stroke="white" stroke-width="1.5" d="M0,-3.0v7 M-2.5,-0.5L0,-3.0L2.5,-0.5"/>
                </g>
                <g id="arrowLeft" xlink:href="#dirArrow" transform="rotate(270) translate(-36 17)" onmousedown="handlePan(-1,0)">
                  <use xlink:href="#rim" fill="#404040">
                        <set attributeName="fill" to="#808080" begin="arrowLeft.mouseover" end="arrowLeft.mouseout"/>
                  </use>
                  <path fill="none" stroke="white" stroke-width="1.5" d="M0,-3.0v7 M-2.5,-0.5L0,-3.0L2.5,-0.5"/>
                </g>
        </g>
        <svg viewBox="0 0 15 15" width="100%" height="30px" preserveAspectRatio="xMaxYMin meet">
         <g id="arrow_out" transform="scale(0.3 0.3)">
          <a xlink:href="classad__framework_1_1ui_1_1TopViewer_1_1FrameDrawer__coll__graph_org.svg" target="_base">
           <rect id="button" ry="5" rx="5" y="6" x="6" height="38" width="38"
                fill="#f2f5e9" fill-opacity="0.5" stroke="#606060" stroke-width="1.0"/>
           <path id="arrow"
             d="M 11.500037,31.436501 C 11.940474,20.09759 22.043105,11.32322 32.158766,21.979434 L 37.068811,17.246167 C 37.068811,17.246167 37.088388,32 37.088388,32 L 22.160133,31.978069 C 22.160133,31.978069 26.997745,27.140456 26.997745,27.140456 C 18.528582,18.264221 13.291696,25.230495 11.500037,31.436501 z"
             style="fill:#404040;"/>
          </a>
         </g>
        </svg>
</svg>
