<?xml version="1.0" encoding="UTF-8" standalone="no"?>
<!DOCTYPE svg PUBLIC "-//W3C//DTD SVG 1.1//EN"
 "http://www.w3.org/Graphics/SVG/1.1/DTD/svg11.dtd">
<!-- Generated by graphviz version 2.43.0 (0)
 -->
<!-- Title: ad_framework::application::Pannel Pages: 1 -->
<svg width="1683pt" height="314pt"
 viewBox="0.00 0.00 1683.00 314.00" xmlns="http://www.w3.org/2000/svg" xmlns:xlink="http://www.w3.org/1999/xlink">
<g id="graph0" class="graph" transform="scale(1 1) rotate(0) translate(4 310)">
<title>ad_framework::application::Pannel</title>
<polygon fill="white" stroke="transparent" points="-4,4 -4,-310 1679,-310 1679,4 -4,4"/>
<!-- Node1 -->
<g id="node1" class="node">
<title>Node1</title>
<g id="a_node1"><a xlink:title=" ">
<polygon fill="#bfbfbf" stroke="black" points="647.5,-116.5 647.5,-305.5 1038.5,-305.5 1038.5,-116.5 647.5,-116.5"/>
<text text-anchor="middle" x="843" y="-293.5" font-family="Helvetica,sans-Serif" font-size="10.00">ad_framework::application::Pannel</text>
<polyline fill="none" stroke="black" points="647.5,-286.5 1038.5,-286.5 "/>
<text text-anchor="start" x="655.5" y="-274.5" font-family="Helvetica,sans-Serif" font-size="10.00"># DataLoaderPtr dataloader_ptr_</text>
<text text-anchor="start" x="655.5" y="-263.5" font-family="Helvetica,sans-Serif" font-size="10.00"># DataReaderPtr datareader_ptr_</text>
<text text-anchor="start" x="655.5" y="-252.5" font-family="Helvetica,sans-Serif" font-size="10.00">&#45; std::string name_</text>
<text text-anchor="start" x="655.5" y="-241.5" font-family="Helvetica,sans-Serif" font-size="10.00">&#45; ImVec2 position_</text>
<text text-anchor="start" x="655.5" y="-230.5" font-family="Helvetica,sans-Serif" font-size="10.00">&#45; ImVec2 size_</text>
<text text-anchor="start" x="655.5" y="-219.5" font-family="Helvetica,sans-Serif" font-size="10.00">&#45; ImGuiWindowFlags window_flags_</text>
<polyline fill="none" stroke="black" points="647.5,-212.5 1038.5,-212.5 "/>
<text text-anchor="start" x="655.5" y="-200.5" font-family="Helvetica,sans-Serif" font-size="10.00">+ Pannel(std::string name, const ImVec2 &amp;position_, const ImVec2 &amp;size_)</text>
<text text-anchor="start" x="655.5" y="-189.5" font-family="Helvetica,sans-Serif" font-size="10.00">+ virtual ~Pannel()=default</text>
<text text-anchor="start" x="655.5" y="-178.5" font-family="Helvetica,sans-Serif" font-size="10.00">+ void Update(DataLoaderPtr dataloader_ptr, DataReaderPtr datareader_ptr)</text>
<text text-anchor="start" x="655.5" y="-167.5" font-family="Helvetica,sans-Serif" font-size="10.00">+ void Render(bool &amp;open, const ImVec2 &amp;window_size)</text>
<text text-anchor="start" x="655.5" y="-156.5" font-family="Helvetica,sans-Serif" font-size="10.00">+ std::string GetName() const</text>
<text text-anchor="start" x="655.5" y="-145.5" font-family="Helvetica,sans-Serif" font-size="10.00"># virtual void RenderInterface(bool &amp;open)=0</text>
<text text-anchor="start" x="655.5" y="-134.5" font-family="Helvetica,sans-Serif" font-size="10.00">&#45; void SetSize(const ImVec2 &amp;window_size) const</text>
<text text-anchor="start" x="655.5" y="-123.5" font-family="Helvetica,sans-Serif" font-size="10.00">&#45; void SetPosition(const ImVec2 &amp;window_size) const</text>
</a>
</g>
</g>
<!-- Node2 -->
<g id="node2" class="node">
<title>Node2</title>
<g id="a_node2"><a xlink:href="classad__framework_1_1application_1_1CamViewPannel.html" target="_top" xlink:title=" ">
<polygon fill="white" stroke="black" points="0,-0.5 0,-79.5 330,-79.5 330,-0.5 0,-0.5"/>
<text text-anchor="middle" x="165" y="-67.5" font-family="Helvetica,sans-Serif" font-size="10.00">ad_framework::application::CamViewPannel</text>
<polyline fill="none" stroke="black" points="0,-60.5 330,-60.5 "/>
<text text-anchor="middle" x="165" y="-48.5" font-family="Helvetica,sans-Serif" font-size="10.00"> </text>
<polyline fill="none" stroke="black" points="0,-41.5 330,-41.5 "/>
<text text-anchor="start" x="8" y="-29.5" font-family="Helvetica,sans-Serif" font-size="10.00">+ CamViewPannel(const ImVec2 &amp;position, const ImVec2 &amp;size)</text>
<text text-anchor="start" x="8" y="-18.5" font-family="Helvetica,sans-Serif" font-size="10.00">+ ~CamViewPannel()=default</text>
<text text-anchor="start" x="8" y="-7.5" font-family="Helvetica,sans-Serif" font-size="10.00">&#45; void RenderInterface(bool &amp;open) override</text>
</a>
</g>
</g>
<!-- Node1&#45;&gt;Node2 -->
<g id="edge1" class="edge">
<title>Node1&#45;&gt;Node2</title>
<path fill="none" stroke="midnightblue" d="M637.52,-158.78C535.34,-133.31 413.9,-103.04 319.72,-79.57"/>
<polygon fill="none" stroke="midnightblue" points="636.8,-162.21 647.35,-161.23 638.49,-155.42 636.8,-162.21"/>
</g>
<!-- Node3 -->
<g id="node3" class="node">
<title>Node3</title>
<g id="a_node3"><a xlink:href="classad__framework_1_1application_1_1ControlPannel.html" target="_top" xlink:title=" ">
<polygon fill="white" stroke="black" points="348.5,-0.5 348.5,-79.5 667.5,-79.5 667.5,-0.5 348.5,-0.5"/>
<text text-anchor="middle" x="508" y="-67.5" font-family="Helvetica,sans-Serif" font-size="10.00">ad_framework::application::ControlPannel</text>
<polyline fill="none" stroke="black" points="348.5,-60.5 667.5,-60.5 "/>
<text text-anchor="start" x="356.5" y="-48.5" font-family="Helvetica,sans-Serif" font-size="10.00">&#45; std::unique_ptr&lt; Impl &gt; pimpl_</text>
<polyline fill="none" stroke="black" points="348.5,-41.5 667.5,-41.5 "/>
<text text-anchor="start" x="356.5" y="-29.5" font-family="Helvetica,sans-Serif" font-size="10.00">+ ControlPannel(const ImVec2 &amp;position, const ImVec2 &amp;size)</text>
<text text-anchor="start" x="356.5" y="-18.5" font-family="Helvetica,sans-Serif" font-size="10.00">+ ~ControlPannel()=default</text>
<text text-anchor="start" x="356.5" y="-7.5" font-family="Helvetica,sans-Serif" font-size="10.00">&#45; void RenderInterface(bool &amp;open) override</text>
</a>
</g>
</g>
<!-- Node1&#45;&gt;Node3 -->
<g id="edge2" class="edge">
<title>Node1&#45;&gt;Node3</title>
<path fill="none" stroke="midnightblue" d="M648.38,-111.82C625.87,-100.46 604.04,-89.45 584.56,-79.62"/>
<polygon fill="none" stroke="midnightblue" points="646.87,-114.98 657.37,-116.36 650.02,-108.73 646.87,-114.98"/>
</g>
<!-- Node4 -->
<g id="node4" class="node">
<title>Node4</title>
<g id="a_node4"><a xlink:href="classad__framework_1_1application_1_1DialogPannel.html" target="_top" xlink:title=" ">
<polygon fill="white" stroke="black" points="685.5,-0.5 685.5,-79.5 1000.5,-79.5 1000.5,-0.5 685.5,-0.5"/>
<text text-anchor="middle" x="843" y="-67.5" font-family="Helvetica,sans-Serif" font-size="10.00">ad_framework::application::DialogPannel</text>
<polyline fill="none" stroke="black" points="685.5,-60.5 1000.5,-60.5 "/>
<text text-anchor="middle" x="843" y="-48.5" font-family="Helvetica,sans-Serif" font-size="10.00"> </text>
<polyline fill="none" stroke="black" points="685.5,-41.5 1000.5,-41.5 "/>
<text text-anchor="start" x="693.5" y="-29.5" font-family="Helvetica,sans-Serif" font-size="10.00">+ DialogPannel(const ImVec2 &amp;position, const ImVec2 &amp;size)</text>
<text text-anchor="start" x="693.5" y="-18.5" font-family="Helvetica,sans-Serif" font-size="10.00">+ ~DialogPannel()=default</text>
<text text-anchor="start" x="693.5" y="-7.5" font-family="Helvetica,sans-Serif" font-size="10.00">&#45; void RenderInterface(bool &amp;open) override</text>
</a>
</g>
</g>
<!-- Node1&#45;&gt;Node4 -->
<g id="edge3" class="edge">
<title>Node1&#45;&gt;Node4</title>
<path fill="none" stroke="midnightblue" d="M843,-106.02C843,-96.82 843,-87.95 843,-79.87"/>
<polygon fill="none" stroke="midnightblue" points="839.5,-106.11 843,-116.11 846.5,-106.11 839.5,-106.11"/>
</g>
<!-- Node5 -->
<g id="node5" class="node">
<title>Node5</title>
<g id="a_node5"><a xlink:href="classad__framework_1_1application_1_1MediaPannel.html" target="_top" xlink:title=" ">
<polygon fill="white" stroke="black" points="1019,-0.5 1019,-79.5 1333,-79.5 1333,-0.5 1019,-0.5"/>
<text text-anchor="middle" x="1176" y="-67.5" font-family="Helvetica,sans-Serif" font-size="10.00">ad_framework::application::MediaPannel</text>
<polyline fill="none" stroke="black" points="1019,-60.5 1333,-60.5 "/>
<text text-anchor="middle" x="1176" y="-48.5" font-family="Helvetica,sans-Serif" font-size="10.00"> </text>
<polyline fill="none" stroke="black" points="1019,-41.5 1333,-41.5 "/>
<text text-anchor="start" x="1027" y="-29.5" font-family="Helvetica,sans-Serif" font-size="10.00">+ MediaPannel(const ImVec2 &amp;position, const ImVec2 &amp;size)</text>
<text text-anchor="start" x="1027" y="-18.5" font-family="Helvetica,sans-Serif" font-size="10.00">+ ~MediaPannel()=default</text>
<text text-anchor="start" x="1027" y="-7.5" font-family="Helvetica,sans-Serif" font-size="10.00">&#45; void RenderInterface(bool &amp;open) override</text>
</a>
</g>
</g>
<!-- Node1&#45;&gt;Node5 -->
<g id="edge4" class="edge">
<title>Node1&#45;&gt;Node5</title>
<path fill="none" stroke="midnightblue" d="M1036.46,-111.82C1058.83,-100.46 1080.54,-89.45 1099.9,-79.62"/>
<polygon fill="none" stroke="midnightblue" points="1034.85,-108.71 1027.52,-116.36 1038.02,-114.95 1034.85,-108.71"/>
</g>
<!-- Node6 -->
<g id="node6" class="node">
<title>Node6</title>
<g id="a_node6"><a xlink:href="classad__framework_1_1application_1_1TopViewPannel.html" target="_top" xlink:title="This class is for rendering the top view of measurements (from lidar, camera, radar,...">
<polygon fill="white" stroke="black" points="1351,-0.5 1351,-79.5 1675,-79.5 1675,-0.5 1351,-0.5"/>
<text text-anchor="middle" x="1513" y="-67.5" font-family="Helvetica,sans-Serif" font-size="10.00">ad_framework::application::TopViewPannel</text>
<polyline fill="none" stroke="black" points="1351,-60.5 1675,-60.5 "/>
<text text-anchor="start" x="1359" y="-48.5" font-family="Helvetica,sans-Serif" font-size="10.00">&#45; std::unique_ptr&lt; TopViewDrawer &gt; drawer_</text>
<polyline fill="none" stroke="black" points="1351,-41.5 1675,-41.5 "/>
<text text-anchor="start" x="1359" y="-29.5" font-family="Helvetica,sans-Serif" font-size="10.00">+ TopViewPannel(const ImVec2 &amp;position, const ImVec2 &amp;size)</text>
<text text-anchor="start" x="1359" y="-18.5" font-family="Helvetica,sans-Serif" font-size="10.00">+ ~TopViewPannel()=default</text>
<text text-anchor="start" x="1359" y="-7.5" font-family="Helvetica,sans-Serif" font-size="10.00">&#45; void RenderInterface(bool &amp;open) override</text>
</a>
</g>
</g>
<!-- Node1&#45;&gt;Node6 -->
<g id="edge5" class="edge">
<title>Node1&#45;&gt;Node6</title>
<path fill="none" stroke="midnightblue" d="M1048.57,-158.15C1149.09,-132.79 1267.98,-102.8 1360.3,-79.52"/>
<polygon fill="none" stroke="midnightblue" points="1047.43,-154.82 1038.59,-160.66 1049.15,-161.61 1047.43,-154.82"/>
</g>
</g>
</svg>
