<?xml version="1.0" encoding="UTF-8" standalone="no"?>
<!DOCTYPE svg PUBLIC "-//W3C//DTD SVG 1.1//EN"
 "http://www.w3.org/Graphics/SVG/1.1/DTD/svg11.dtd">
<!-- Generated by graphviz version 2.43.0 (0)
 -->
<!-- Title: src/application/user_interface/pannel/control_pannel.h Pages: 1 -->
<svg width="607pt" height="252pt"
 viewBox="0.00 0.00 607.00 252.00" xmlns="http://www.w3.org/2000/svg" xmlns:xlink="http://www.w3.org/1999/xlink">
<g id="graph0" class="graph" transform="scale(1 1) rotate(0) translate(4 248)">
<title>src/application/user_interface/pannel/control_pannel.h</title>
<polygon fill="white" stroke="transparent" points="-4,4 -4,-248 603,-248 603,4 -4,4"/>
<!-- Node1 -->
<g id="node1" class="node">
<title>Node1</title>
<g id="a_node1"><a xlink:title=" ">
<polygon fill="#bfbfbf" stroke="black" points="0,-224.5 0,-243.5 281,-243.5 281,-224.5 0,-224.5"/>
<text text-anchor="middle" x="140.5" y="-231.5" font-family="Helvetica,sans-Serif" font-size="10.00">src/application/user_interface/pannel/control_pannel.h</text>
</a>
</g>
</g>
<!-- Node2 -->
<g id="node2" class="node">
<title>Node2</title>
<g id="a_node2"><a xlink:title=" ">
<polygon fill="white" stroke="#bfbfbf" points="74,-112.5 74,-131.5 127,-131.5 127,-112.5 74,-112.5"/>
<text text-anchor="middle" x="100.5" y="-119.5" font-family="Helvetica,sans-Serif" font-size="10.00">imgui.h</text>
</a>
</g>
</g>
<!-- Node1&#45;&gt;Node2 -->
<g id="edge1" class="edge">
<title>Node1&#45;&gt;Node2</title>
<path fill="none" stroke="midnightblue" d="M135.91,-224.21C131.35,-215.26 124.37,-200.91 119.5,-188 113.67,-172.53 108.51,-154.44 105.05,-141.28"/>
<polygon fill="midnightblue" stroke="midnightblue" points="108.43,-140.37 102.56,-131.55 101.64,-142.1 108.43,-140.37"/>
</g>
<!-- Node3 -->
<g id="node3" class="node">
<title>Node3</title>
<g id="a_node3"><a xlink:title=" ">
<polygon fill="white" stroke="#bfbfbf" points="52.5,-56.5 52.5,-75.5 110.5,-75.5 110.5,-56.5 52.5,-56.5"/>
<text text-anchor="middle" x="81.5" y="-63.5" font-family="Helvetica,sans-Serif" font-size="10.00">memory</text>
</a>
</g>
</g>
<!-- Node1&#45;&gt;Node3 -->
<g id="edge2" class="edge">
<title>Node1&#45;&gt;Node3</title>
<path fill="none" stroke="midnightblue" d="M130.86,-224.46C113.55,-208.41 77.79,-171.75 64.5,-132 59.2,-116.13 65.17,-97.64 71.45,-84.45"/>
<polygon fill="midnightblue" stroke="midnightblue" points="74.59,-86 76.14,-75.52 68.39,-82.75 74.59,-86"/>
</g>
<!-- Node4 -->
<g id="node4" class="node">
<title>Node4</title>
<g id="a_node4"><a xlink:title=" ">
<polygon fill="white" stroke="#bfbfbf" points="251,-168.5 251,-187.5 346,-187.5 346,-168.5 251,-168.5"/>
<text text-anchor="middle" x="298.5" y="-175.5" font-family="Helvetica,sans-Serif" font-size="10.00">..\..\dataloader.h</text>
</a>
</g>
</g>
<!-- Node1&#45;&gt;Node4 -->
<g id="edge3" class="edge">
<title>Node1&#45;&gt;Node4</title>
<path fill="none" stroke="midnightblue" d="M165.54,-224.44C192.12,-215.36 234.31,-200.94 264.02,-190.78"/>
<polygon fill="midnightblue" stroke="midnightblue" points="265.25,-194.06 273.58,-187.52 262.99,-187.44 265.25,-194.06"/>
</g>
<!-- Node5 -->
<g id="node5" class="node">
<title>Node5</title>
<g id="a_node5"><a xlink:href="abstract__pannel_8h.html" target="_top" xlink:title=" ">
<polygon fill="white" stroke="black" points="128.5,-168.5 128.5,-187.5 232.5,-187.5 232.5,-168.5 128.5,-168.5"/>
<text text-anchor="middle" x="180.5" y="-175.5" font-family="Helvetica,sans-Serif" font-size="10.00">abstract_pannel.h</text>
</a>
</g>
</g>
<!-- Node1&#45;&gt;Node5 -->
<g id="edge4" class="edge">
<title>Node1&#45;&gt;Node5</title>
<path fill="none" stroke="midnightblue" d="M147.11,-224.08C152.76,-216.46 161.04,-205.26 167.95,-195.94"/>
<polygon fill="midnightblue" stroke="midnightblue" points="170.88,-197.87 174.02,-187.75 165.25,-193.7 170.88,-197.87"/>
</g>
<!-- Node5&#45;&gt;Node2 -->
<g id="edge5" class="edge">
<title>Node5&#45;&gt;Node2</title>
<path fill="none" stroke="midnightblue" d="M167.65,-168.32C155.28,-159.98 136.37,-147.21 121.76,-137.35"/>
<polygon fill="midnightblue" stroke="midnightblue" points="123.57,-134.35 113.32,-131.65 119.65,-140.15 123.57,-134.35"/>
</g>
<!-- Node5&#45;&gt;Node3 -->
<g id="edge6" class="edge">
<title>Node5&#45;&gt;Node3</title>
<path fill="none" stroke="midnightblue" d="M175.62,-168.47C167.99,-155.51 152.36,-130.43 135.5,-112 125.46,-101.02 112.74,-90.3 102.17,-82.08"/>
<polygon fill="midnightblue" stroke="midnightblue" points="103.98,-79.06 93.9,-75.8 99.75,-84.64 103.98,-79.06"/>
</g>
<!-- Node6 -->
<g id="node6" class="node">
<title>Node6</title>
<g id="a_node6"><a xlink:title=" ">
<polygon fill="white" stroke="#bfbfbf" points="338.5,-56.5 338.5,-75.5 382.5,-75.5 382.5,-56.5 338.5,-56.5"/>
<text text-anchor="middle" x="360.5" y="-63.5" font-family="Helvetica,sans-Serif" font-size="10.00">string</text>
</a>
</g>
</g>
<!-- Node5&#45;&gt;Node6 -->
<g id="edge7" class="edge">
<title>Node5&#45;&gt;Node6</title>
<path fill="none" stroke="midnightblue" d="M232.79,-168.56C274.68,-160.76 328.95,-147.97 344.5,-132 356.27,-119.91 359.84,-100.63 360.72,-86.2"/>
<polygon fill="midnightblue" stroke="midnightblue" points="364.22,-85.98 360.96,-75.9 357.23,-85.81 364.22,-85.98"/>
</g>
<!-- Node7 -->
<g id="node7" class="node">
<title>Node7</title>
<g id="a_node7"><a xlink:href="dataloader_8h.html" target="_top" xlink:title=" ">
<polygon fill="white" stroke="black" points="183.5,-112.5 183.5,-131.5 335.5,-131.5 335.5,-112.5 183.5,-112.5"/>
<text text-anchor="middle" x="259.5" y="-119.5" font-family="Helvetica,sans-Serif" font-size="10.00">src/application/dataloader.h</text>
</a>
</g>
</g>
<!-- Node5&#45;&gt;Node7 -->
<g id="edge8" class="edge">
<title>Node5&#45;&gt;Node7</title>
<path fill="none" stroke="midnightblue" d="M193.19,-168.32C205.4,-159.98 224.08,-147.21 238.5,-137.35"/>
<polygon fill="midnightblue" stroke="midnightblue" points="240.56,-140.19 246.84,-131.65 236.61,-134.41 240.56,-140.19"/>
</g>
<!-- Node11 -->
<g id="node11" class="node">
<title>Node11</title>
<g id="a_node11"><a xlink:href="abstract__data__reader_8h.html" target="_top" xlink:title=" ">
<polygon fill="white" stroke="black" points="392,-112.5 392,-131.5 599,-131.5 599,-112.5 392,-112.5"/>
<text text-anchor="middle" x="495.5" y="-119.5" font-family="Helvetica,sans-Serif" font-size="10.00">src/data_reader/abstract_data_reader.h</text>
</a>
</g>
</g>
<!-- Node5&#45;&gt;Node11 -->
<g id="edge14" class="edge">
<title>Node5&#45;&gt;Node11</title>
<path fill="none" stroke="midnightblue" d="M230.41,-168.44C286.17,-158.89 376.39,-143.42 435.83,-133.23"/>
<polygon fill="midnightblue" stroke="midnightblue" points="436.56,-136.66 445.82,-131.52 435.37,-129.76 436.56,-136.66"/>
</g>
<!-- Node7&#45;&gt;Node3 -->
<g id="edge11" class="edge">
<title>Node7&#45;&gt;Node3</title>
<path fill="none" stroke="midnightblue" d="M231.3,-112.44C201.09,-103.28 152.99,-88.69 119.47,-78.52"/>
<polygon fill="midnightblue" stroke="midnightblue" points="120.16,-75.07 109.57,-75.52 118.13,-81.77 120.16,-75.07"/>
</g>
<!-- Node7&#45;&gt;Node6 -->
<g id="edge12" class="edge">
<title>Node7&#45;&gt;Node6</title>
<path fill="none" stroke="midnightblue" d="M275.73,-112.32C291.85,-103.7 316.8,-90.36 335.46,-80.39"/>
<polygon fill="midnightblue" stroke="midnightblue" points="337.14,-83.46 344.31,-75.65 333.84,-77.28 337.14,-83.46"/>
</g>
<!-- Node8 -->
<g id="node8" class="node">
<title>Node8</title>
<g id="a_node8"><a xlink:title=" ">
<polygon fill="white" stroke="#bfbfbf" points="240.5,-56.5 240.5,-75.5 282.5,-75.5 282.5,-56.5 240.5,-56.5"/>
<text text-anchor="middle" x="261.5" y="-63.5" font-family="Helvetica,sans-Serif" font-size="10.00">array</text>
</a>
</g>
</g>
<!-- Node7&#45;&gt;Node8 -->
<g id="edge9" class="edge">
<title>Node7&#45;&gt;Node8</title>
<path fill="none" stroke="midnightblue" d="M259.83,-112.08C260.09,-105.01 260.47,-94.86 260.8,-85.99"/>
<polygon fill="midnightblue" stroke="midnightblue" points="264.3,-85.87 261.18,-75.75 257.31,-85.61 264.3,-85.87"/>
</g>
<!-- Node9 -->
<g id="node9" class="node">
<title>Node9</title>
<g id="a_node9"><a xlink:title=" ">
<polygon fill="white" stroke="#bfbfbf" points="427.5,-0.5 427.5,-19.5 495.5,-19.5 495.5,-0.5 427.5,-0.5"/>
<text text-anchor="middle" x="461.5" y="-7.5" font-family="Helvetica,sans-Serif" font-size="10.00">filesystem</text>
</a>
</g>
</g>
<!-- Node7&#45;&gt;Node9 -->
<g id="edge10" class="edge">
<title>Node7&#45;&gt;Node9</title>
<path fill="none" stroke="midnightblue" d="M266.78,-112.18C278.6,-98.38 303.3,-71.65 329.5,-56 356.78,-39.71 390.78,-28.29 417.44,-21.04"/>
<polygon fill="midnightblue" stroke="midnightblue" points="418.48,-24.38 427.27,-18.46 416.71,-17.61 418.48,-24.38"/>
</g>
<!-- Node10 -->
<g id="node10" class="node">
<title>Node10</title>
<g id="a_node10"><a xlink:title=" ">
<polygon fill="white" stroke="#bfbfbf" points="129,-56.5 129,-75.5 222,-75.5 222,-56.5 129,-56.5"/>
<text text-anchor="middle" x="175.5" y="-63.5" font-family="Helvetica,sans-Serif" font-size="10.00">unordered_map</text>
</a>
</g>
</g>
<!-- Node7&#45;&gt;Node10 -->
<g id="edge13" class="edge">
<title>Node7&#45;&gt;Node10</title>
<path fill="none" stroke="midnightblue" d="M246,-112.32C232.9,-103.9 212.79,-90.97 197.39,-81.07"/>
<polygon fill="midnightblue" stroke="midnightblue" points="199.27,-78.12 188.96,-75.65 195.48,-84.01 199.27,-78.12"/>
</g>
<!-- Node11&#45;&gt;Node9 -->
<g id="edge15" class="edge">
<title>Node11&#45;&gt;Node9</title>
<path fill="none" stroke="midnightblue" d="M506.55,-112.19C520.8,-99.71 542.5,-76.15 531.5,-56 523.68,-41.68 509.14,-31.24 495.32,-24.04"/>
<polygon fill="midnightblue" stroke="midnightblue" points="496.5,-20.72 485.97,-19.56 493.48,-27.03 496.5,-20.72"/>
</g>
<!-- Node12 -->
<g id="node12" class="node">
<title>Node12</title>
<g id="a_node12"><a xlink:href="types_8h.html" target="_top" xlink:title=" ">
<polygon fill="white" stroke="black" points="400.5,-56.5 400.5,-75.5 522.5,-75.5 522.5,-56.5 400.5,-56.5"/>
<text text-anchor="middle" x="461.5" y="-63.5" font-family="Helvetica,sans-Serif" font-size="10.00">src/data_type/types.h</text>
</a>
</g>
</g>
<!-- Node11&#45;&gt;Node12 -->
<g id="edge16" class="edge">
<title>Node11&#45;&gt;Node12</title>
<path fill="none" stroke="midnightblue" d="M489.89,-112.08C485.13,-104.53 478.18,-93.49 472.35,-84.23"/>
<polygon fill="midnightblue" stroke="midnightblue" points="475.3,-82.35 467.01,-75.75 469.38,-86.08 475.3,-82.35"/>
</g>
<!-- Node12&#45;&gt;Node9 -->
<g id="edge17" class="edge">
<title>Node12&#45;&gt;Node9</title>
<path fill="none" stroke="midnightblue" d="M461.5,-56.08C461.5,-49.01 461.5,-38.86 461.5,-29.99"/>
<polygon fill="midnightblue" stroke="midnightblue" points="465,-29.75 461.5,-19.75 458,-29.75 465,-29.75"/>
</g>
</g>
</svg>
