<?xml version="1.0" encoding="UTF-8" standalone="no"?>
<!DOCTYPE svg PUBLIC "-//W3C//DTD SVG 1.1//EN"
 "http://www.w3.org/Graphics/SVG/1.1/DTD/svg11.dtd">
<!-- Generated by graphviz version 2.43.0 (0)
 -->
<!-- Title: src/application/user_interface/pannel/control_pannel.cpp Pages: 1 -->
<!--zoomable 308 -->
<svg id="main" version="1.1" xmlns="http://www.w3.org/2000/svg" xmlns:xlink="http://www.w3.org/1999/xlink" xml:space="preserve" onload="init(evt)">
<style type="text/css"><![CDATA[
.edge:hover path { stroke: red; }
.edge:hover polygon { stroke: red; fill: red; }
]]></style>
<script type="text/javascript"><![CDATA[
var edges = document.getElementsByTagName('g');
if (edges && edges.length) {
  for (var i=0;i<edges.length;i++) {
    if (edges[i].id.substr(0,4)=='edge') {
      edges[i].setAttribute('class','edge');
    }
  }
}
]]></script>
        <defs>
                <circle id="rim" cx="0" cy="0" r="7"/>
                <circle id="rim2" cx="0" cy="0" r="3.5"/>
                <g id="zoomPlus">
                        <use xlink:href="#rim" fill="#404040">
                                <set attributeName="fill" to="#808080" begin="zoomplus.mouseover" end="zoomplus.mouseout"/>
                        </use>
                        <path d="M-4,0h8M0,-4v8" fill="none" stroke="white" stroke-width="1.5" pointer-events="none"/>
                </g>
                <g id="zoomMin">
                        <use xlink:href="#rim" fill="#404040">
                                <set attributeName="fill" to="#808080" begin="zoomminus.mouseover" end="zoomminus.mouseout"/>
                        </use>
                        <path d="M-4,0h8" fill="none" stroke="white" stroke-width="1.5" pointer-events="none"/>
                </g>
                <g id="dirArrow">
                        <path fill="none" stroke="white" stroke-width="1.5" d="M0,-3.0v7 M-2.5,-0.5L0,-3.0L2.5,-0.5"/>
                </g>
               <g id="resetDef">
                       <use xlink:href="#rim2" fill="#404040">
                               <set attributeName="fill" to="#808080" begin="reset.mouseover" end="reset.mouseout"/>
                       </use>
               </g>
        </defs>

<script type="text/javascript">
var viewWidth = 1098;
var viewHeight = 308;
var sectionId = 'dynsection-0';
</script>
<script xlink:href="svgpan.js"/>
<svg id="graph" class="graph">
<g id="viewport">
<title>src/application/user_interface/pannel/control_pannel.cpp</title>
<polygon fill="white" stroke="transparent" points="-4,4 -4,-304 1093.5,-304 1093.5,4 -4,4"/>
<!-- Node1 -->
<g id="node1" class="node">
<title>Node1</title>
<g id="a_node1"><a xlink:title=" ">
<polygon fill="#bfbfbf" stroke="black" points="574.5,-280.5 574.5,-299.5 866.5,-299.5 866.5,-280.5 574.5,-280.5"/>
<text text-anchor="middle" x="720.5" y="-287.5" font-family="Helvetica,sans-Serif" font-size="10.00">src/application/user_interface/pannel/control_pannel.cpp</text>
</a>
</g>
</g>
<!-- Node2 -->
<g id="node2" class="node">
<title>Node2</title>
<g id="a_node2"><a xlink:href="control__pannel_8h.html" target="_top" xlink:title=" ">
<polygon fill="white" stroke="black" points="282,-224.5 282,-243.5 563,-243.5 563,-224.5 282,-224.5"/>
<text text-anchor="middle" x="422.5" y="-231.5" font-family="Helvetica,sans-Serif" font-size="10.00">src/application/user_interface/pannel/control_pannel.h</text>
</a>
</g>
</g>
<!-- Node1&#45;&gt;Node2 -->
<g id="edge1" class="edge">
<title>Node1&#45;&gt;Node2</title>
<path fill="none" stroke="midnightblue" d="M673.28,-280.44C620.75,-270.92 535.89,-255.55 479.65,-245.36"/>
<polygon fill="midnightblue" stroke="midnightblue" points="479.96,-241.86 469.5,-243.52 478.71,-248.74 479.96,-241.86"/>
</g>
<!-- Node7 -->
<g id="node7" class="node">
<title>Node7</title>
<g id="a_node7"><a xlink:title=" ">
<polygon fill="white" stroke="#bfbfbf" points="470.5,-56.5 470.5,-75.5 514.5,-75.5 514.5,-56.5 470.5,-56.5"/>
<text text-anchor="middle" x="492.5" y="-63.5" font-family="Helvetica,sans-Serif" font-size="10.00">string</text>
</a>
</g>
</g>
<!-- Node1&#45;&gt;Node7 -->
<g id="edge25" class="edge">
<title>Node1&#45;&gt;Node7</title>
<path fill="none" stroke="midnightblue" d="M695.13,-280.48C676.66,-273.21 652.08,-261.18 635.5,-244 590.22,-197.09 616.05,-159.61 571.5,-112 558.37,-97.97 539.86,-87.11 524.06,-79.57"/>
<polygon fill="midnightblue" stroke="midnightblue" points="525.2,-76.25 514.65,-75.31 522.32,-82.62 525.2,-76.25"/>
</g>
<!-- Node9 -->
<g id="node9" class="node">
<title>Node9</title>
<g id="a_node9"><a xlink:title=" ">
<polygon fill="white" stroke="#bfbfbf" points="565.5,-56.5 565.5,-75.5 607.5,-75.5 607.5,-56.5 565.5,-56.5"/>
<text text-anchor="middle" x="586.5" y="-63.5" font-family="Helvetica,sans-Serif" font-size="10.00">array</text>
</a>
</g>
</g>
<!-- Node1&#45;&gt;Node9 -->
<g id="edge21" class="edge">
<title>Node1&#45;&gt;Node9</title>
<path fill="none" stroke="midnightblue" d="M701.61,-280.45C686.68,-272.82 666.28,-260.33 653.5,-244 615.03,-194.84 628.31,-170.11 605.5,-112 601.97,-103.01 597.82,-93.11 594.3,-84.89"/>
<polygon fill="midnightblue" stroke="midnightblue" points="597.45,-83.36 590.27,-75.57 591.03,-86.14 597.45,-83.36"/>
</g>
<!-- Node10 -->
<g id="node10" class="node">
<title>Node10</title>
<g id="a_node10"><a xlink:title=" ">
<polygon fill="white" stroke="#bfbfbf" points="269.5,-0.5 269.5,-19.5 337.5,-19.5 337.5,-0.5 269.5,-0.5"/>
<text text-anchor="middle" x="303.5" y="-7.5" font-family="Helvetica,sans-Serif" font-size="10.00">filesystem</text>
</a>
</g>
</g>
<!-- Node1&#45;&gt;Node10 -->
<g id="edge23" class="edge">
<title>Node1&#45;&gt;Node10</title>
<path fill="none" stroke="midnightblue" d="M712.42,-280.34C704.77,-271.72 693.45,-257.82 686.5,-244 672.98,-217.11 667.5,-209.1 667.5,-179 667.5,-179 667.5,-179 667.5,-121 667.5,-84.28 648.29,-74.38 616.5,-56 571.67,-30.09 422.97,-17.93 347.81,-13.33"/>
<polygon fill="midnightblue" stroke="midnightblue" points="347.9,-9.82 337.71,-12.73 347.49,-16.81 347.9,-9.82"/>
</g>
<!-- Node14 -->
<g id="node14" class="node">
<title>Node14</title>
<g id="a_node14"><a xlink:title=" ">
<polygon fill="white" stroke="#bfbfbf" points="695.5,-224.5 695.5,-243.5 745.5,-243.5 745.5,-224.5 695.5,-224.5"/>
<text text-anchor="middle" x="720.5" y="-231.5" font-family="Helvetica,sans-Serif" font-size="10.00">stdio.h</text>
</a>
</g>
</g>
<!-- Node1&#45;&gt;Node14 -->
<g id="edge19" class="edge">
<title>Node1&#45;&gt;Node14</title>
<path fill="none" stroke="midnightblue" d="M720.5,-280.08C720.5,-273.01 720.5,-262.86 720.5,-253.99"/>
<polygon fill="midnightblue" stroke="midnightblue" points="724,-253.75 720.5,-243.75 717,-253.75 724,-253.75"/>
</g>
<!-- Node15 -->
<g id="node15" class="node">
<title>Node15</title>
<g id="a_node15"><a xlink:title=" ">
<polygon fill="white" stroke="#bfbfbf" points="763.5,-224.5 763.5,-243.5 827.5,-243.5 827.5,-224.5 763.5,-224.5"/>
<text text-anchor="middle" x="795.5" y="-231.5" font-family="Helvetica,sans-Serif" font-size="10.00">algorithm</text>
</a>
</g>
</g>
<!-- Node1&#45;&gt;Node15 -->
<g id="edge20" class="edge">
<title>Node1&#45;&gt;Node15</title>
<path fill="none" stroke="midnightblue" d="M732.55,-280.32C743.96,-272.11 761.33,-259.6 774.93,-249.81"/>
<polygon fill="midnightblue" stroke="midnightblue" points="777.16,-252.52 783.23,-243.83 773.07,-246.84 777.16,-252.52"/>
</g>
<!-- Node16 -->
<g id="node16" class="node">
<title>Node16</title>
<g id="a_node16"><a xlink:title=" ">
<polygon fill="white" stroke="#bfbfbf" points="845.5,-224.5 845.5,-243.5 895.5,-243.5 895.5,-224.5 845.5,-224.5"/>
<text text-anchor="middle" x="870.5" y="-231.5" font-family="Helvetica,sans-Serif" font-size="10.00">cstring</text>
</a>
</g>
</g>
<!-- Node1&#45;&gt;Node16 -->
<g id="edge22" class="edge">
<title>Node1&#45;&gt;Node16</title>
<path fill="none" stroke="midnightblue" d="M744.27,-280.44C769.39,-271.4 809.21,-257.06 837.4,-246.92"/>
<polygon fill="midnightblue" stroke="midnightblue" points="838.62,-250.2 846.84,-243.52 836.25,-243.61 838.62,-250.2"/>
</g>
<!-- Node17 -->
<g id="node17" class="node">
<title>Node17</title>
<g id="a_node17"><a xlink:title=" ">
<polygon fill="white" stroke="#bfbfbf" points="913.5,-224.5 913.5,-243.5 973.5,-243.5 973.5,-224.5 913.5,-224.5"/>
<text text-anchor="middle" x="943.5" y="-231.5" font-family="Helvetica,sans-Serif" font-size="10.00">iostream</text>
</a>
</g>
</g>
<!-- Node1&#45;&gt;Node17 -->
<g id="edge24" class="edge">
<title>Node1&#45;&gt;Node17</title>
<path fill="none" stroke="midnightblue" d="M755.84,-280.44C796,-270.72 861.42,-254.88 903.45,-244.7"/>
<polygon fill="midnightblue" stroke="midnightblue" points="904.44,-248.06 913.34,-242.3 902.79,-241.26 904.44,-248.06"/>
</g>
<!-- Node18 -->
<g id="node18" class="node">
<title>Node18</title>
<g id="a_node18"><a xlink:title=" ">
<polygon fill="white" stroke="#bfbfbf" points="991.5,-224.5 991.5,-243.5 1089.5,-243.5 1089.5,-224.5 991.5,-224.5"/>
<text text-anchor="middle" x="1040.5" y="-231.5" font-family="Helvetica,sans-Serif" font-size="10.00">bindings/imgui.h</text>
</a>
</g>
</g>
<!-- Node1&#45;&gt;Node18 -->
<g id="edge26" class="edge">
<title>Node1&#45;&gt;Node18</title>
<path fill="none" stroke="midnightblue" d="M771.2,-280.44C828.26,-270.81 920.85,-255.19 981.21,-245.01"/>
<polygon fill="midnightblue" stroke="midnightblue" points="982.07,-248.41 991.35,-243.29 980.9,-241.51 982.07,-248.41"/>
</g>
<!-- Node3 -->
<g id="node3" class="node">
<title>Node3</title>
<g id="a_node3"><a xlink:title=" ">
<polygon fill="white" stroke="#bfbfbf" points="510,-112.5 510,-131.5 563,-131.5 563,-112.5 510,-112.5"/>
<text text-anchor="middle" x="536.5" y="-119.5" font-family="Helvetica,sans-Serif" font-size="10.00">imgui.h</text>
</a>
</g>
</g>
<!-- Node2&#45;&gt;Node3 -->
<g id="edge2" class="edge">
<title>Node2&#45;&gt;Node3</title>
<path fill="none" stroke="midnightblue" d="M438.83,-224.49C453.42,-216.38 474.85,-203.17 490.5,-188 505.04,-173.91 518,-154.67 526.43,-140.78"/>
<polygon fill="midnightblue" stroke="midnightblue" points="529.67,-142.16 531.72,-131.76 523.64,-138.61 529.67,-142.16"/>
</g>
<!-- Node4 -->
<g id="node4" class="node">
<title>Node4</title>
<g id="a_node4"><a xlink:title=" ">
<polygon fill="white" stroke="#bfbfbf" points="244.5,-56.5 244.5,-75.5 302.5,-75.5 302.5,-56.5 244.5,-56.5"/>
<text text-anchor="middle" x="273.5" y="-63.5" font-family="Helvetica,sans-Serif" font-size="10.00">memory</text>
</a>
</g>
</g>
<!-- Node2&#45;&gt;Node4 -->
<g id="edge3" class="edge">
<title>Node2&#45;&gt;Node4</title>
<path fill="none" stroke="midnightblue" d="M360.88,-224.45C318.52,-217.16 267.64,-205.13 254.5,-188 231.19,-157.62 250.08,-110.1 263.33,-84.59"/>
<polygon fill="midnightblue" stroke="midnightblue" points="266.47,-86.14 268.2,-75.69 260.33,-82.78 266.47,-86.14"/>
</g>
<!-- Node5 -->
<g id="node5" class="node">
<title>Node5</title>
<g id="a_node5"><a xlink:title=" ">
<polygon fill="white" stroke="#bfbfbf" points="264,-168.5 264,-187.5 359,-187.5 359,-168.5 264,-168.5"/>
<text text-anchor="middle" x="311.5" y="-175.5" font-family="Helvetica,sans-Serif" font-size="10.00">..\..\dataloader.h</text>
</a>
</g>
</g>
<!-- Node2&#45;&gt;Node5 -->
<g id="edge4" class="edge">
<title>Node2&#45;&gt;Node5</title>
<path fill="none" stroke="midnightblue" d="M404.67,-224.32C386.78,-215.62 359.02,-202.12 338.45,-192.11"/>
<polygon fill="midnightblue" stroke="midnightblue" points="339.81,-188.88 329.29,-187.65 336.75,-195.18 339.81,-188.88"/>
</g>
<!-- Node6 -->
<g id="node6" class="node">
<title>Node6</title>
<g id="a_node6"><a xlink:href="abstract__pannel_8h.html" target="_top" xlink:title=" ">
<polygon fill="white" stroke="black" points="377.5,-168.5 377.5,-187.5 481.5,-187.5 481.5,-168.5 377.5,-168.5"/>
<text text-anchor="middle" x="429.5" y="-175.5" font-family="Helvetica,sans-Serif" font-size="10.00">abstract_pannel.h</text>
</a>
</g>
</g>
<!-- Node2&#45;&gt;Node6 -->
<g id="edge5" class="edge">
<title>Node2&#45;&gt;Node6</title>
<path fill="none" stroke="midnightblue" d="M423.66,-224.08C424.58,-216.93 425.92,-206.64 427.08,-197.69"/>
<polygon fill="midnightblue" stroke="midnightblue" points="430.55,-198.12 428.37,-187.75 423.61,-197.22 430.55,-198.12"/>
</g>
<!-- Node6&#45;&gt;Node3 -->
<g id="edge6" class="edge">
<title>Node6&#45;&gt;Node3</title>
<path fill="none" stroke="midnightblue" d="M446.69,-168.32C463.85,-159.66 490.45,-146.24 510.25,-136.25"/>
<polygon fill="midnightblue" stroke="midnightblue" points="512,-139.28 519.35,-131.65 508.85,-133.04 512,-139.28"/>
</g>
<!-- Node6&#45;&gt;Node4 -->
<g id="edge7" class="edge">
<title>Node6&#45;&gt;Node4</title>
<path fill="none" stroke="midnightblue" d="M390.35,-168.43C354.91,-159.94 306.21,-146.17 292.5,-132 280.63,-119.73 276.11,-100.47 274.43,-86.1"/>
<polygon fill="midnightblue" stroke="midnightblue" points="277.89,-85.53 273.59,-75.84 270.91,-86.09 277.89,-85.53"/>
</g>
<!-- Node6&#45;&gt;Node7 -->
<g id="edge8" class="edge">
<title>Node6&#45;&gt;Node7</title>
<path fill="none" stroke="midnightblue" d="M436.62,-168.4C443.71,-159.59 454.63,-145.35 462.5,-132 471.46,-116.79 479.72,-98.45 485.29,-85.14"/>
<polygon fill="midnightblue" stroke="midnightblue" points="488.6,-86.27 489.14,-75.69 482.12,-83.62 488.6,-86.27"/>
</g>
<!-- Node8 -->
<g id="node8" class="node">
<title>Node8</title>
<g id="a_node8"><a xlink:href="dataloader_8h.html" target="_top" xlink:title=" ">
<polygon fill="white" stroke="black" points="301.5,-112.5 301.5,-131.5 453.5,-131.5 453.5,-112.5 301.5,-112.5"/>
<text text-anchor="middle" x="377.5" y="-119.5" font-family="Helvetica,sans-Serif" font-size="10.00">src/application/dataloader.h</text>
</a>
</g>
</g>
<!-- Node6&#45;&gt;Node8 -->
<g id="edge9" class="edge">
<title>Node6&#45;&gt;Node8</title>
<path fill="none" stroke="midnightblue" d="M420.91,-168.08C413.34,-160.22 402.12,-148.57 392.99,-139.08"/>
<polygon fill="midnightblue" stroke="midnightblue" points="395.38,-136.53 385.93,-131.75 390.34,-141.38 395.38,-136.53"/>
</g>
<!-- Node12 -->
<g id="node12" class="node">
<title>Node12</title>
<g id="a_node12"><a xlink:href="abstract__data__reader_8h.html" target="_top" xlink:title=" ">
<polygon fill="white" stroke="black" points="0,-112.5 0,-131.5 207,-131.5 207,-112.5 0,-112.5"/>
<text text-anchor="middle" x="103.5" y="-119.5" font-family="Helvetica,sans-Serif" font-size="10.00">src/data_reader/abstract_data_reader.h</text>
</a>
</g>
</g>
<!-- Node6&#45;&gt;Node12 -->
<g id="edge15" class="edge">
<title>Node6&#45;&gt;Node12</title>
<path fill="none" stroke="midnightblue" d="M377.84,-168.44C320.02,-158.87 226.39,-143.36 164.88,-133.17"/>
<polygon fill="midnightblue" stroke="midnightblue" points="165.35,-129.7 154.91,-131.52 164.21,-136.6 165.35,-129.7"/>
</g>
<!-- Node8&#45;&gt;Node4 -->
<g id="edge12" class="edge">
<title>Node8&#45;&gt;Node4</title>
<path fill="none" stroke="midnightblue" d="M360.79,-112.32C344.19,-103.7 318.5,-90.36 299.28,-80.39"/>
<polygon fill="midnightblue" stroke="midnightblue" points="300.66,-77.16 290.17,-75.65 297.43,-83.37 300.66,-77.16"/>
</g>
<!-- Node8&#45;&gt;Node7 -->
<g id="edge13" class="edge">
<title>Node8&#45;&gt;Node7</title>
<path fill="none" stroke="midnightblue" d="M395.72,-112.44C414.4,-103.68 443.66,-89.94 465.12,-79.86"/>
<polygon fill="midnightblue" stroke="midnightblue" points="466.8,-82.93 474.36,-75.52 463.82,-76.6 466.8,-82.93"/>
</g>
<!-- Node8&#45;&gt;Node9 -->
<g id="edge10" class="edge">
<title>Node8&#45;&gt;Node9</title>
<path fill="none" stroke="midnightblue" d="M410.62,-112.44C450.45,-102.15 516.79,-85.01 555.61,-74.98"/>
<polygon fill="midnightblue" stroke="midnightblue" points="556.51,-78.36 565.32,-72.47 554.76,-71.59 556.51,-78.36"/>
</g>
<!-- Node8&#45;&gt;Node10 -->
<g id="edge11" class="edge">
<title>Node8&#45;&gt;Node10</title>
<path fill="none" stroke="midnightblue" d="M391.05,-112.38C408.9,-99.94 436.47,-76.21 422.5,-56 405.76,-31.78 374.19,-20.58 347.77,-15.41"/>
<polygon fill="midnightblue" stroke="midnightblue" points="348.02,-11.9 337.57,-13.65 346.83,-18.8 348.02,-11.9"/>
</g>
<!-- Node11 -->
<g id="node11" class="node">
<title>Node11</title>
<g id="a_node11"><a xlink:title=" ">
<polygon fill="white" stroke="#bfbfbf" points="321,-56.5 321,-75.5 414,-75.5 414,-56.5 321,-56.5"/>
<text text-anchor="middle" x="367.5" y="-63.5" font-family="Helvetica,sans-Serif" font-size="10.00">unordered_map</text>
</a>
</g>
</g>
<!-- Node8&#45;&gt;Node11 -->
<g id="edge14" class="edge">
<title>Node8&#45;&gt;Node11</title>
<path fill="none" stroke="midnightblue" d="M375.85,-112.08C374.52,-104.93 372.62,-94.64 370.96,-85.69"/>
<polygon fill="midnightblue" stroke="midnightblue" points="374.38,-84.95 369.12,-75.75 367.5,-86.22 374.38,-84.95"/>
</g>
<!-- Node12&#45;&gt;Node10 -->
<g id="edge16" class="edge">
<title>Node12&#45;&gt;Node10</title>
<path fill="none" stroke="midnightblue" d="M98.84,-112.33C92.24,-98.74 82.36,-72.28 95.5,-56 115.66,-31.01 204.32,-19.21 259.17,-14.21"/>
<polygon fill="midnightblue" stroke="midnightblue" points="259.67,-17.68 269.33,-13.33 259.06,-10.71 259.67,-17.68"/>
</g>
<!-- Node13 -->
<g id="node13" class="node">
<title>Node13</title>
<g id="a_node13"><a xlink:href="types_8h.html" target="_top" xlink:title=" ">
<polygon fill="white" stroke="black" points="104.5,-56.5 104.5,-75.5 226.5,-75.5 226.5,-56.5 104.5,-56.5"/>
<text text-anchor="middle" x="165.5" y="-63.5" font-family="Helvetica,sans-Serif" font-size="10.00">src/data_type/types.h</text>
</a>
</g>
</g>
<!-- Node12&#45;&gt;Node13 -->
<g id="edge17" class="edge">
<title>Node12&#45;&gt;Node13</title>
<path fill="none" stroke="midnightblue" d="M113.46,-112.32C122.63,-104.34 136.44,-92.31 147.53,-82.65"/>
<polygon fill="midnightblue" stroke="midnightblue" points="150.12,-85.04 155.36,-75.83 145.52,-79.76 150.12,-85.04"/>
</g>
<!-- Node13&#45;&gt;Node10 -->
<g id="edge18" class="edge">
<title>Node13&#45;&gt;Node10</title>
<path fill="none" stroke="midnightblue" d="M187.37,-56.44C210.28,-47.48 246.48,-33.31 272.37,-23.18"/>
<polygon fill="midnightblue" stroke="midnightblue" points="273.7,-26.42 281.74,-19.52 271.15,-19.9 273.7,-26.42"/>
</g>
</g>
</svg>
        <g id="navigator" transform="translate(0 0)" fill="#404254">
                <rect fill="#f2f5e9" fill-opacity="0.5" stroke="#606060" stroke-width=".5" x="0" y="0" width="60" height="60"/>
                <use id="zoomplus" xlink:href="#zoomPlus" x="17" y="9" onmousedown="handleZoom(evt,'in')"/>
                <use id="zoomminus" xlink:href="#zoomMin" x="42" y="9" onmousedown="handleZoom(evt,'out')"/>
                <use id="reset" xlink:href="#resetDef" x="30" y="36" onmousedown="handleReset()"/>
                <g id="arrowUp" xlink:href="#dirArrow" transform="translate(30 24)" onmousedown="handlePan(0,-1)">
                  <use xlink:href="#rim" fill="#404040">
                        <set attributeName="fill" to="#808080" begin="arrowUp.mouseover" end="arrowUp.mouseout"/>
                  </use>
                  <path fill="none" stroke="white" stroke-width="1.5" d="M0,-3.0v7 M-2.5,-0.5L0,-3.0L2.5,-0.5"/>
                </g>
                <g id="arrowRight" xlink:href="#dirArrow" transform="rotate(90) translate(36 -43)" onmousedown="handlePan(1,0)">
                  <use xlink:href="#rim" fill="#404040">
                        <set attributeName="fill" to="#808080" begin="arrowRight.mouseover" end="arrowRight.mouseout"/>
                  </use>
                  <path fill="none" stroke="white" stroke-width="1.5" d="M0,-3.0v7 M-2.5,-0.5L0,-3.0L2.5,-0.5"/>
                </g>
                <g id="arrowDown" xlink:href="#dirArrow" transform="rotate(180) translate(-30 -48)" onmousedown="handlePan(0,1)">
                  <use xlink:href="#rim" fill="#404040">
                        <set attributeName="fill" to="#808080" begin="arrowDown.mouseover" end="arrowDown.mouseout"/>
                  </use>
                  <path fill="none" stroke="white" stroke-width="1.5" d="M0,-3.0v7 M-2.5,-0.5L0,-3.0L2.5,-0.5"/>
                </g>
                <g id="arrowLeft" xlink:href="#dirArrow" transform="rotate(270) translate(-36 17)" onmousedown="handlePan(-1,0)">
                  <use xlink:href="#rim" fill="#404040">
                        <set attributeName="fill" to="#808080" begin="arrowLeft.mouseover" end="arrowLeft.mouseout"/>
                  </use>
                  <path fill="none" stroke="white" stroke-width="1.5" d="M0,-3.0v7 M-2.5,-0.5L0,-3.0L2.5,-0.5"/>
                </g>
        </g>
        <svg viewBox="0 0 15 15" width="100%" height="30px" preserveAspectRatio="xMaxYMin meet">
         <g id="arrow_out" transform="scale(0.3 0.3)">
          <a xlink:href="control__pannel_8cpp__incl_org.svg" target="_base">
           <rect id="button" ry="5" rx="5" y="6" x="6" height="38" width="38"
                fill="#f2f5e9" fill-opacity="0.5" stroke="#606060" stroke-width="1.0"/>
           <path id="arrow"
             d="M 11.500037,31.436501 C 11.940474,20.09759 22.043105,11.32322 32.158766,21.979434 L 37.068811,17.246167 C 37.068811,17.246167 37.088388,32 37.088388,32 L 22.160133,31.978069 C 22.160133,31.978069 26.997745,27.140456 26.997745,27.140456 C 18.528582,18.264221 13.291696,25.230495 11.500037,31.436501 z"
             style="fill:#404040;"/>
          </a>
         </g>
        </svg>
</svg>
