<?xml version="1.0" encoding="UTF-8" standalone="no"?>
<!DOCTYPE svg PUBLIC "-//W3C//DTD SVG 1.1//EN"
 "http://www.w3.org/Graphics/SVG/1.1/DTD/svg11.dtd">
<!-- Generated by graphviz version 2.43.0 (0)
 -->
<!-- Title: src/application/dataloader.cpp Pages: 1 -->
<svg width="441pt" height="140pt"
 viewBox="0.00 0.00 440.50 140.00" xmlns="http://www.w3.org/2000/svg" xmlns:xlink="http://www.w3.org/1999/xlink">
<g id="graph0" class="graph" transform="scale(1 1) rotate(0) translate(4 136)">
<title>src/application/dataloader.cpp</title>
<polygon fill="white" stroke="transparent" points="-4,4 -4,-136 436.5,-136 436.5,4 -4,4"/>
<!-- Node1 -->
<g id="node1" class="node">
<title>Node1</title>
<g id="a_node1"><a xlink:title=" ">
<polygon fill="#bfbfbf" stroke="black" points="197.5,-112.5 197.5,-131.5 360.5,-131.5 360.5,-112.5 197.5,-112.5"/>
<text text-anchor="middle" x="279" y="-119.5" font-family="Helvetica,sans-Serif" font-size="10.00">src/application/dataloader.cpp</text>
</a>
</g>
</g>
<!-- Node2 -->
<g id="node2" class="node">
<title>Node2</title>
<g id="a_node2"><a xlink:href="dataloader_8h.html" target="_top" xlink:title=" ">
<polygon fill="white" stroke="black" points="99,-56.5 99,-75.5 251,-75.5 251,-56.5 99,-56.5"/>
<text text-anchor="middle" x="175" y="-63.5" font-family="Helvetica,sans-Serif" font-size="10.00">src/application/dataloader.h</text>
</a>
</g>
</g>
<!-- Node1&#45;&gt;Node2 -->
<g id="edge1" class="edge">
<title>Node1&#45;&gt;Node2</title>
<path fill="none" stroke="midnightblue" d="M262.29,-112.32C245.69,-103.7 220,-90.36 200.78,-80.39"/>
<polygon fill="midnightblue" stroke="midnightblue" points="202.16,-77.16 191.67,-75.65 198.93,-83.37 202.16,-77.16"/>
</g>
<!-- Node4 -->
<g id="node4" class="node">
<title>Node4</title>
<g id="a_node4"><a xlink:title=" ">
<polygon fill="white" stroke="#bfbfbf" points="0,-0.5 0,-19.5 68,-19.5 68,-0.5 0,-0.5"/>
<text text-anchor="middle" x="34" y="-7.5" font-family="Helvetica,sans-Serif" font-size="10.00">filesystem</text>
</a>
</g>
</g>
<!-- Node1&#45;&gt;Node4 -->
<g id="edge7" class="edge">
<title>Node1&#45;&gt;Node4</title>
<path fill="none" stroke="midnightblue" d="M197.04,-112.86C162.12,-106.61 122.13,-95.55 90,-76 70.59,-64.19 54.42,-43.36 44.53,-28.47"/>
<polygon fill="midnightblue" stroke="midnightblue" points="47.27,-26.26 38.96,-19.69 41.36,-30.01 47.27,-26.26"/>
</g>
<!-- Node6 -->
<g id="node6" class="node">
<title>Node6</title>
<g id="a_node6"><a xlink:title=" ">
<polygon fill="white" stroke="#bfbfbf" points="334,-0.5 334,-19.5 378,-19.5 378,-0.5 334,-0.5"/>
<text text-anchor="middle" x="356" y="-7.5" font-family="Helvetica,sans-Serif" font-size="10.00">string</text>
</a>
</g>
</g>
<!-- Node1&#45;&gt;Node6 -->
<g id="edge9" class="edge">
<title>Node1&#45;&gt;Node6</title>
<path fill="none" stroke="midnightblue" d="M279.83,-112.28C281.44,-99.08 285.96,-73.69 298,-56 306.57,-43.41 319.78,-32.76 331.43,-24.99"/>
<polygon fill="midnightblue" stroke="midnightblue" points="333.35,-27.93 339.94,-19.63 329.61,-22.01 333.35,-27.93"/>
</g>
<!-- Node8 -->
<g id="node8" class="node">
<title>Node8</title>
<g id="a_node8"><a xlink:title=" ">
<polygon fill="white" stroke="#bfbfbf" points="307,-56.5 307,-75.5 367,-75.5 367,-56.5 307,-56.5"/>
<text text-anchor="middle" x="337" y="-63.5" font-family="Helvetica,sans-Serif" font-size="10.00">iostream</text>
</a>
</g>
</g>
<!-- Node1&#45;&gt;Node8 -->
<g id="edge8" class="edge">
<title>Node1&#45;&gt;Node8</title>
<path fill="none" stroke="midnightblue" d="M288.32,-112.32C296.89,-104.34 309.81,-92.31 320.19,-82.65"/>
<polygon fill="midnightblue" stroke="midnightblue" points="322.58,-85.21 327.51,-75.83 317.81,-80.09 322.58,-85.21"/>
</g>
<!-- Node9 -->
<g id="node9" class="node">
<title>Node9</title>
<g id="a_node9"><a xlink:title=" ">
<polygon fill="white" stroke="#bfbfbf" points="385.5,-56.5 385.5,-75.5 432.5,-75.5 432.5,-56.5 385.5,-56.5"/>
<text text-anchor="middle" x="409" y="-63.5" font-family="Helvetica,sans-Serif" font-size="10.00">vector</text>
</a>
</g>
</g>
<!-- Node1&#45;&gt;Node9 -->
<g id="edge10" class="edge">
<title>Node1&#45;&gt;Node9</title>
<path fill="none" stroke="midnightblue" d="M299.6,-112.44C320.99,-103.56 354.68,-89.56 379.02,-79.45"/>
<polygon fill="midnightblue" stroke="midnightblue" points="380.61,-82.58 388.5,-75.52 377.92,-76.12 380.61,-82.58"/>
</g>
<!-- Node3 -->
<g id="node3" class="node">
<title>Node3</title>
<g id="a_node3"><a xlink:title=" ">
<polygon fill="white" stroke="#bfbfbf" points="86,-0.5 86,-19.5 128,-19.5 128,-0.5 86,-0.5"/>
<text text-anchor="middle" x="107" y="-7.5" font-family="Helvetica,sans-Serif" font-size="10.00">array</text>
</a>
</g>
</g>
<!-- Node2&#45;&gt;Node3 -->
<g id="edge2" class="edge">
<title>Node2&#45;&gt;Node3</title>
<path fill="none" stroke="midnightblue" d="M164.07,-56.32C153.83,-48.18 138.28,-35.84 126,-26.09"/>
<polygon fill="midnightblue" stroke="midnightblue" points="128.13,-23.31 118.12,-19.83 123.78,-28.79 128.13,-23.31"/>
</g>
<!-- Node2&#45;&gt;Node4 -->
<g id="edge3" class="edge">
<title>Node2&#45;&gt;Node4</title>
<path fill="none" stroke="midnightblue" d="M152.66,-56.44C129.25,-47.48 92.26,-33.31 65.81,-23.18"/>
<polygon fill="midnightblue" stroke="midnightblue" points="66.83,-19.82 56.24,-19.52 64.32,-26.36 66.83,-19.82"/>
</g>
<!-- Node5 -->
<g id="node5" class="node">
<title>Node5</title>
<g id="a_node5"><a xlink:title=" ">
<polygon fill="white" stroke="#bfbfbf" points="146,-0.5 146,-19.5 204,-19.5 204,-0.5 146,-0.5"/>
<text text-anchor="middle" x="175" y="-7.5" font-family="Helvetica,sans-Serif" font-size="10.00">memory</text>
</a>
</g>
</g>
<!-- Node2&#45;&gt;Node5 -->
<g id="edge4" class="edge">
<title>Node2&#45;&gt;Node5</title>
<path fill="none" stroke="midnightblue" d="M175,-56.08C175,-49.01 175,-38.86 175,-29.99"/>
<polygon fill="midnightblue" stroke="midnightblue" points="178.5,-29.75 175,-19.75 171.5,-29.75 178.5,-29.75"/>
</g>
<!-- Node2&#45;&gt;Node6 -->
<g id="edge5" class="edge">
<title>Node2&#45;&gt;Node6</title>
<path fill="none" stroke="midnightblue" d="M203.68,-56.44C236.38,-46.69 289.71,-30.78 323.81,-20.6"/>
<polygon fill="midnightblue" stroke="midnightblue" points="325.15,-23.86 333.73,-17.64 323.15,-17.15 325.15,-23.86"/>
</g>
<!-- Node7 -->
<g id="node7" class="node">
<title>Node7</title>
<g id="a_node7"><a xlink:title=" ">
<polygon fill="white" stroke="#bfbfbf" points="222.5,-0.5 222.5,-19.5 315.5,-19.5 315.5,-0.5 222.5,-0.5"/>
<text text-anchor="middle" x="269" y="-7.5" font-family="Helvetica,sans-Serif" font-size="10.00">unordered_map</text>
</a>
</g>
</g>
<!-- Node2&#45;&gt;Node7 -->
<g id="edge6" class="edge">
<title>Node2&#45;&gt;Node7</title>
<path fill="none" stroke="midnightblue" d="M190.1,-56.32C204.9,-47.82 227.69,-34.73 244.98,-24.8"/>
<polygon fill="midnightblue" stroke="midnightblue" points="247.01,-27.67 253.93,-19.65 243.52,-21.6 247.01,-27.67"/>
</g>
</g>
</svg>
