<?xml version="1.0" encoding="UTF-8" standalone="no"?>
<!DOCTYPE svg PUBLIC "-//W3C//DTD SVG 1.1//EN"
 "http://www.w3.org/Graphics/SVG/1.1/DTD/svg11.dtd">
<!-- Generated by graphviz version 2.43.0 (0)
 -->
<!-- Title: src/data_reader.h Pages: 1 -->
<svg width="418pt" height="252pt"
 viewBox="0.00 0.00 418.43 252.00" xmlns="http://www.w3.org/2000/svg" xmlns:xlink="http://www.w3.org/1999/xlink">
<g id="graph0" class="graph" transform="scale(1 1) rotate(0) translate(4 248)">
<title>src/data_reader.h</title>
<polygon fill="white" stroke="transparent" points="-4,4 -4,-248 414.43,-248 414.43,4 -4,4"/>
<!-- Node1 -->
<g id="node1" class="node">
<title>Node1</title>
<g id="a_node1"><a xlink:title=" ">
<polygon fill="#bfbfbf" stroke="black" points="59.43,-224.5 59.43,-243.5 160.43,-243.5 160.43,-224.5 59.43,-224.5"/>
<text text-anchor="middle" x="109.93" y="-231.5" font-family="Helvetica,sans-Serif" font-size="10.00">src/data_reader.h</text>
</a>
</g>
</g>
<!-- Node2 -->
<g id="node2" class="node">
<title>Node2</title>
<g id="a_node2"><a xlink:href="abstract__data__reader_8h.html" target="_top" xlink:title=" ">
<polygon fill="white" stroke="black" points="20.43,-112.5 20.43,-131.5 227.43,-131.5 227.43,-112.5 20.43,-112.5"/>
<text text-anchor="middle" x="123.93" y="-119.5" font-family="Helvetica,sans-Serif" font-size="10.00">src/data_reader/abstract_data_reader.h</text>
</a>
</g>
</g>
<!-- Node1&#45;&gt;Node2 -->
<g id="edge1" class="edge">
<title>Node1&#45;&gt;Node2</title>
<path fill="none" stroke="midnightblue" d="M68.83,-224.43C31.61,-214.67 -14.63,-196.31 4.93,-168 16.16,-151.75 34.06,-141.36 52.6,-134.73"/>
<polygon fill="midnightblue" stroke="midnightblue" points="53.89,-137.99 62.33,-131.58 51.74,-131.33 53.89,-137.99"/>
</g>
<!-- Node5 -->
<g id="node5" class="node">
<title>Node5</title>
<g id="a_node5"><a xlink:href="kitti__data__reader_8h.html" target="_top" xlink:title=" ">
<polygon fill="white" stroke="black" points="223.43,-168.5 223.43,-187.5 410.43,-187.5 410.43,-168.5 223.43,-168.5"/>
<text text-anchor="middle" x="316.93" y="-175.5" font-family="Helvetica,sans-Serif" font-size="10.00">src/data_reader/kitti_data_reader.h</text>
</a>
</g>
</g>
<!-- Node1&#45;&gt;Node5 -->
<g id="edge5" class="edge">
<title>Node1&#45;&gt;Node5</title>
<path fill="none" stroke="midnightblue" d="M142.73,-224.44C178.31,-215.16 235.25,-200.31 274.28,-190.13"/>
<polygon fill="midnightblue" stroke="midnightblue" points="275.49,-193.43 284.29,-187.52 273.73,-186.65 275.49,-193.43"/>
</g>
<!-- Node6 -->
<g id="node6" class="node">
<title>Node6</title>
<g id="a_node6"><a xlink:href="none__data__reader_8h.html" target="_top" xlink:title=" ">
<polygon fill="white" stroke="black" points="14.43,-168.5 14.43,-187.5 205.43,-187.5 205.43,-168.5 14.43,-168.5"/>
<text text-anchor="middle" x="109.93" y="-175.5" font-family="Helvetica,sans-Serif" font-size="10.00">src/data_reader/none_data_reader.h</text>
</a>
</g>
</g>
<!-- Node1&#45;&gt;Node6 -->
<g id="edge8" class="edge">
<title>Node1&#45;&gt;Node6</title>
<path fill="none" stroke="midnightblue" d="M109.93,-224.08C109.93,-217.01 109.93,-206.86 109.93,-197.99"/>
<polygon fill="midnightblue" stroke="midnightblue" points="113.43,-197.75 109.93,-187.75 106.43,-197.75 113.43,-197.75"/>
</g>
<!-- Node3 -->
<g id="node3" class="node">
<title>Node3</title>
<g id="a_node3"><a xlink:title=" ">
<polygon fill="white" stroke="#bfbfbf" points="178.93,-0.5 178.93,-19.5 246.93,-19.5 246.93,-0.5 178.93,-0.5"/>
<text text-anchor="middle" x="212.93" y="-7.5" font-family="Helvetica,sans-Serif" font-size="10.00">filesystem</text>
</a>
</g>
</g>
<!-- Node2&#45;&gt;Node3 -->
<g id="edge2" class="edge">
<title>Node2&#45;&gt;Node3</title>
<path fill="none" stroke="midnightblue" d="M124.57,-112.14C125.92,-98.76 130.12,-73.14 142.93,-56 153.12,-42.37 168.76,-31.75 182.67,-24.26"/>
<polygon fill="midnightblue" stroke="midnightblue" points="184.59,-27.21 191.94,-19.58 181.43,-20.97 184.59,-27.21"/>
</g>
<!-- Node4 -->
<g id="node4" class="node">
<title>Node4</title>
<g id="a_node4"><a xlink:href="types_8h.html" target="_top" xlink:title=" ">
<polygon fill="white" stroke="black" points="151.93,-56.5 151.93,-75.5 273.93,-75.5 273.93,-56.5 151.93,-56.5"/>
<text text-anchor="middle" x="212.93" y="-63.5" font-family="Helvetica,sans-Serif" font-size="10.00">src/data_type/types.h</text>
</a>
</g>
</g>
<!-- Node2&#45;&gt;Node4 -->
<g id="edge3" class="edge">
<title>Node2&#45;&gt;Node4</title>
<path fill="none" stroke="midnightblue" d="M138.23,-112.32C152.12,-103.9 173.42,-90.97 189.74,-81.07"/>
<polygon fill="midnightblue" stroke="midnightblue" points="191.93,-83.83 198.67,-75.65 188.3,-77.85 191.93,-83.83"/>
</g>
<!-- Node4&#45;&gt;Node3 -->
<g id="edge4" class="edge">
<title>Node4&#45;&gt;Node3</title>
<path fill="none" stroke="midnightblue" d="M212.93,-56.08C212.93,-49.01 212.93,-38.86 212.93,-29.99"/>
<polygon fill="midnightblue" stroke="midnightblue" points="216.43,-29.75 212.93,-19.75 209.43,-29.75 216.43,-29.75"/>
</g>
<!-- Node5&#45;&gt;Node2 -->
<g id="edge7" class="edge">
<title>Node5&#45;&gt;Node2</title>
<path fill="none" stroke="midnightblue" d="M286.35,-168.44C253.32,-159.2 200.54,-144.44 164.17,-134.26"/>
<polygon fill="midnightblue" stroke="midnightblue" points="164.94,-130.84 154.37,-131.52 163.06,-137.58 164.94,-130.84"/>
</g>
<!-- Node5&#45;&gt;Node3 -->
<g id="edge6" class="edge">
<title>Node5&#45;&gt;Node3</title>
<path fill="none" stroke="midnightblue" d="M316.57,-168.48C315.27,-147.38 309.4,-91.79 282.93,-56 272.81,-42.31 257.18,-31.69 243.26,-24.22"/>
<polygon fill="midnightblue" stroke="midnightblue" points="244.48,-20.92 233.98,-19.54 241.33,-27.17 244.48,-20.92"/>
</g>
<!-- Node6&#45;&gt;Node2 -->
<g id="edge9" class="edge">
<title>Node6&#45;&gt;Node2</title>
<path fill="none" stroke="midnightblue" d="M112.24,-168.08C114.1,-160.93 116.77,-150.64 119.09,-141.69"/>
<polygon fill="midnightblue" stroke="midnightblue" points="122.54,-142.31 121.66,-131.75 115.77,-140.55 122.54,-142.31"/>
</g>
</g>
</svg>
