<?xml version="1.0" encoding="UTF-8" standalone="no"?>
<!DOCTYPE svg PUBLIC "-//W3C//DTD SVG 1.1//EN"
 "http://www.w3.org/Graphics/SVG/1.1/DTD/svg11.dtd">
<!-- Generated by graphviz version 2.43.0 (0)
 -->
<!-- Title: src/application/dataloader.h Pages: 1 -->
<svg width="2358pt" height="252pt"
 viewBox="0.00 0.00 2358.00 252.00" xmlns="http://www.w3.org/2000/svg" xmlns:xlink="http://www.w3.org/1999/xlink">
<g id="graph0" class="graph" transform="scale(1 1) rotate(0) translate(4 248)">
<title>src/application/dataloader.h</title>
<polygon fill="white" stroke="transparent" points="-4,4 -4,-248 2354,-248 2354,4 -4,4"/>
<!-- Node1 -->
<g id="node1" class="node">
<title>Node1</title>
<g id="a_node1"><a xlink:title=" ">
<polygon fill="#bfbfbf" stroke="black" points="525.5,-224.5 525.5,-243.5 677.5,-243.5 677.5,-224.5 525.5,-224.5"/>
<text text-anchor="middle" x="601.5" y="-231.5" font-family="Helvetica,sans-Serif" font-size="10.00">src/application/dataloader.h</text>
</a>
</g>
</g>
<!-- Node2 -->
<g id="node2" class="node">
<title>Node2</title>
<g id="a_node2"><a xlink:href="dataloader_8cpp.html" target="_top" xlink:title=" ">
<polygon fill="white" stroke="black" points="0,-168.5 0,-187.5 163,-187.5 163,-168.5 0,-168.5"/>
<text text-anchor="middle" x="81.5" y="-175.5" font-family="Helvetica,sans-Serif" font-size="10.00">src/application/dataloader.cpp</text>
</a>
</g>
</g>
<!-- Node1&#45;&gt;Node2 -->
<g id="edge1" class="edge">
<title>Node1&#45;&gt;Node2</title>
<path fill="none" stroke="midnightblue" d="M515.17,-224.04C417.28,-213.87 258.87,-197.42 163.02,-187.47"/>
<polygon fill="midnightblue" stroke="midnightblue" points="515.02,-227.54 525.33,-225.09 515.75,-220.58 515.02,-227.54"/>
</g>
<!-- Node3 -->
<g id="node3" class="node">
<title>Node3</title>
<g id="a_node3"><a xlink:href="abstract__pannel_8h.html" target="_top" xlink:title=" ">
<polygon fill="white" stroke="black" points="868,-168.5 868,-187.5 1155,-187.5 1155,-168.5 868,-168.5"/>
<text text-anchor="middle" x="1011.5" y="-175.5" font-family="Helvetica,sans-Serif" font-size="10.00">src/application/user_interface/pannel/abstract_pannel.h</text>
</a>
</g>
</g>
<!-- Node1&#45;&gt;Node3 -->
<g id="edge2" class="edge">
<title>Node1&#45;&gt;Node3</title>
<path fill="none" stroke="midnightblue" d="M676.63,-223.1C754.06,-212.91 873.49,-197.18 946.84,-187.52"/>
<polygon fill="midnightblue" stroke="midnightblue" points="675.92,-219.67 666.47,-224.44 676.84,-226.61 675.92,-219.67"/>
</g>
<!-- Node8 -->
<g id="node8" class="node">
<title>Node8</title>
<g id="a_node8"><a xlink:href="user__interface_8cpp.html" target="_top" xlink:title=" ">
<polygon fill="white" stroke="black" points="905,-0.5 905,-19.5 1086,-19.5 1086,-0.5 905,-0.5"/>
<text text-anchor="middle" x="995.5" y="-7.5" font-family="Helvetica,sans-Serif" font-size="10.00">src/application/user_interface.cpp</text>
</a>
</g>
</g>
<!-- Node1&#45;&gt;Node8 -->
<g id="edge27" class="edge">
<title>Node1&#45;&gt;Node8</title>
<path fill="none" stroke="midnightblue" d="M515.29,-224.08C372.68,-206.23 112.56,-158.65 209.5,-56 233.05,-31.06 703.01,-17.56 904.76,-12.9"/>
<polygon fill="midnightblue" stroke="midnightblue" points="514.99,-227.57 525.35,-225.32 515.85,-220.63 514.99,-227.57"/>
</g>
<!-- Node17 -->
<g id="node17" class="node">
<title>Node17</title>
<g id="a_node17"><a xlink:href="user__interface_8h.html" target="_top" xlink:title=" ">
<polygon fill="white" stroke="black" points="2087.5,-112.5 2087.5,-131.5 2257.5,-131.5 2257.5,-112.5 2087.5,-112.5"/>
<text text-anchor="middle" x="2172.5" y="-119.5" font-family="Helvetica,sans-Serif" font-size="10.00">src/application/user_interface.h</text>
</a>
</g>
</g>
<!-- Node1&#45;&gt;Node17 -->
<g id="edge28" class="edge">
<title>Node1&#45;&gt;Node17</title>
<path fill="none" stroke="midnightblue" d="M687.86,-227.92C915.47,-214.34 1550.6,-175.31 2078.5,-132 2081.44,-131.76 2084.43,-131.51 2087.45,-131.25"/>
<polygon fill="midnightblue" stroke="midnightblue" points="687.43,-224.44 677.65,-228.53 687.84,-231.42 687.43,-224.44"/>
</g>
<!-- Node4 -->
<g id="node4" class="node">
<title>Node4</title>
<g id="a_node4"><a xlink:href="abstract__pannel_8cpp.html" target="_top" xlink:title=" ">
<polygon fill="white" stroke="black" points="862.5,-112.5 862.5,-131.5 1160.5,-131.5 1160.5,-112.5 862.5,-112.5"/>
<text text-anchor="middle" x="1011.5" y="-119.5" font-family="Helvetica,sans-Serif" font-size="10.00">src/application/user_interface/pannel/abstract_pannel.cpp</text>
</a>
</g>
</g>
<!-- Node3&#45;&gt;Node4 -->
<g id="edge3" class="edge">
<title>Node3&#45;&gt;Node4</title>
<path fill="none" stroke="midnightblue" d="M1011.5,-157.8C1011.5,-148.91 1011.5,-138.78 1011.5,-131.75"/>
<polygon fill="midnightblue" stroke="midnightblue" points="1008,-158.08 1011.5,-168.08 1015,-158.08 1008,-158.08"/>
</g>
<!-- Node5 -->
<g id="node5" class="node">
<title>Node5</title>
<g id="a_node5"><a xlink:href="cam__view__pannel_8h.html" target="_top" xlink:title=" ">
<polygon fill="white" stroke="black" points="1178.5,-112.5 1178.5,-131.5 1474.5,-131.5 1474.5,-112.5 1178.5,-112.5"/>
<text text-anchor="middle" x="1326.5" y="-119.5" font-family="Helvetica,sans-Serif" font-size="10.00">src/application/user_interface/pannel/cam_view_pannel.h</text>
</a>
</g>
</g>
<!-- Node3&#45;&gt;Node5 -->
<g id="edge4" class="edge">
<title>Node3&#45;&gt;Node5</title>
<path fill="none" stroke="midnightblue" d="M1071.42,-166.73C1130.95,-156.52 1221.16,-141.06 1276.82,-131.52"/>
<polygon fill="midnightblue" stroke="midnightblue" points="1070.68,-163.3 1061.41,-168.44 1071.86,-170.2 1070.68,-163.3"/>
</g>
<!-- Node7 -->
<g id="node7" class="node">
<title>Node7</title>
<g id="a_node7"><a xlink:href="pannel_8h.html" target="_top" xlink:title=" ">
<polygon fill="white" stroke="black" points="892.5,-56.5 892.5,-75.5 1098.5,-75.5 1098.5,-56.5 892.5,-56.5"/>
<text text-anchor="middle" x="995.5" y="-63.5" font-family="Helvetica,sans-Serif" font-size="10.00">src/application/user_interface/pannel.h</text>
</a>
</g>
</g>
<!-- Node3&#45;&gt;Node7 -->
<g id="edge20" class="edge">
<title>Node3&#45;&gt;Node7</title>
<path fill="none" stroke="midnightblue" d="M946.31,-166.55C908.07,-158.95 865.06,-147.31 853.5,-132 829.98,-100.84 877.85,-84.17 924.24,-75.55"/>
<polygon fill="midnightblue" stroke="midnightblue" points="945.94,-170.05 956.42,-168.5 947.26,-163.17 945.94,-170.05"/>
</g>
<!-- Node9 -->
<g id="node9" class="node">
<title>Node9</title>
<g id="a_node9"><a xlink:href="control__pannel_8h.html" target="_top" xlink:title=" ">
<polygon fill="white" stroke="black" points="1493,-112.5 1493,-131.5 1774,-131.5 1774,-112.5 1493,-112.5"/>
<text text-anchor="middle" x="1633.5" y="-119.5" font-family="Helvetica,sans-Serif" font-size="10.00">src/application/user_interface/pannel/control_pannel.h</text>
</a>
</g>
</g>
<!-- Node3&#45;&gt;Node9 -->
<g id="edge8" class="edge">
<title>Node3&#45;&gt;Node9</title>
<path fill="none" stroke="midnightblue" d="M1119.79,-167.6C1237.06,-157.42 1422.47,-141.32 1535.54,-131.5"/>
<polygon fill="midnightblue" stroke="midnightblue" points="1119.37,-164.12 1109.71,-168.47 1119.98,-171.1 1119.37,-164.12"/>
</g>
<!-- Node11 -->
<g id="node11" class="node">
<title>Node11</title>
<g id="a_node11"><a xlink:href="dialog__pannel_8h.html" target="_top" xlink:title=" ">
<polygon fill="white" stroke="black" points="1792,-112.5 1792,-131.5 2069,-131.5 2069,-112.5 1792,-112.5"/>
<text text-anchor="middle" x="1930.5" y="-119.5" font-family="Helvetica,sans-Serif" font-size="10.00">src/application/user_interface/pannel/dialog_pannel.h</text>
</a>
</g>
</g>
<!-- Node3&#45;&gt;Node11 -->
<g id="edge11" class="edge">
<title>Node3&#45;&gt;Node11</title>
<path fill="none" stroke="midnightblue" d="M1165.34,-168.17C1321.16,-159.19 1569.09,-144.81 1783.5,-132 1786.18,-131.84 1788.89,-131.68 1791.62,-131.51"/>
<polygon fill="midnightblue" stroke="midnightblue" points="1165,-164.68 1155.21,-168.75 1165.4,-171.67 1165,-164.68"/>
</g>
<!-- Node13 -->
<g id="node13" class="node">
<title>Node13</title>
<g id="a_node13"><a xlink:href="media__pannel_8h.html" target="_top" xlink:title=" ">
<polygon fill="white" stroke="black" points="219.5,-112.5 219.5,-131.5 497.5,-131.5 497.5,-112.5 219.5,-112.5"/>
<text text-anchor="middle" x="358.5" y="-119.5" font-family="Helvetica,sans-Serif" font-size="10.00">src/application/user_interface/pannel/media_pannel.h</text>
</a>
</g>
</g>
<!-- Node3&#45;&gt;Node13 -->
<g id="edge14" class="edge">
<title>Node3&#45;&gt;Node13</title>
<path fill="none" stroke="midnightblue" d="M898.18,-167.63C775.09,-157.45 580.16,-141.33 461.34,-131.5"/>
<polygon fill="midnightblue" stroke="midnightblue" points="898.14,-171.14 908.39,-168.47 898.71,-164.16 898.14,-171.14"/>
</g>
<!-- Node15 -->
<g id="node15" class="node">
<title>Node15</title>
<g id="a_node15"><a xlink:href="top__view__pannel_8h.html" target="_top" xlink:title=" ">
<polygon fill="white" stroke="black" points="516,-112.5 516,-131.5 807,-131.5 807,-112.5 516,-112.5"/>
<text text-anchor="middle" x="661.5" y="-119.5" font-family="Helvetica,sans-Serif" font-size="10.00">src/application/user_interface/pannel/top_view_pannel.h</text>
</a>
</g>
</g>
<!-- Node3&#45;&gt;Node15 -->
<g id="edge17" class="edge">
<title>Node3&#45;&gt;Node15</title>
<path fill="none" stroke="midnightblue" d="M946.14,-166.92C880.02,-156.71 778.93,-141.12 716.7,-131.52"/>
<polygon fill="midnightblue" stroke="midnightblue" points="945.62,-170.38 956.04,-168.44 946.69,-163.46 945.62,-170.38"/>
</g>
<!-- Node3&#45;&gt;Node17 -->
<g id="edge21" class="edge">
<title>Node3&#45;&gt;Node17</title>
<path fill="none" stroke="midnightblue" d="M1165.37,-173.09C1372.88,-167.22 1753.88,-154.37 2078.5,-132 2081.44,-131.8 2084.44,-131.58 2087.46,-131.35"/>
<polygon fill="midnightblue" stroke="midnightblue" points="1165.21,-169.59 1155.31,-173.37 1165.4,-176.59 1165.21,-169.59"/>
</g>
<!-- Node6 -->
<g id="node6" class="node">
<title>Node6</title>
<g id="a_node6"><a xlink:href="cam__view__pannel_8cpp.html" target="_top" xlink:title=" ">
<polygon fill="white" stroke="black" points="1161.5,-56.5 1161.5,-75.5 1469.5,-75.5 1469.5,-56.5 1161.5,-56.5"/>
<text text-anchor="middle" x="1315.5" y="-63.5" font-family="Helvetica,sans-Serif" font-size="10.00">src/application/user_interface/pannel/cam_view_pannel.cpp</text>
</a>
</g>
</g>
<!-- Node5&#45;&gt;Node6 -->
<g id="edge5" class="edge">
<title>Node5&#45;&gt;Node6</title>
<path fill="none" stroke="midnightblue" d="M1322.65,-102.1C1320.82,-93.14 1318.73,-82.86 1317.28,-75.75"/>
<polygon fill="midnightblue" stroke="midnightblue" points="1319.26,-102.98 1324.68,-112.08 1326.12,-101.59 1319.26,-102.98"/>
</g>
<!-- Node5&#45;&gt;Node7 -->
<g id="edge6" class="edge">
<title>Node5&#45;&gt;Node7</title>
<path fill="none" stroke="midnightblue" d="M1263.92,-110.79C1201.38,-100.59 1106.31,-85.08 1047.7,-75.52"/>
<polygon fill="midnightblue" stroke="midnightblue" points="1263.62,-114.29 1274.05,-112.44 1264.75,-107.38 1263.62,-114.29"/>
</g>
<!-- Node7&#45;&gt;Node8 -->
<g id="edge7" class="edge">
<title>Node7&#45;&gt;Node8</title>
<path fill="none" stroke="midnightblue" d="M995.5,-45.8C995.5,-36.91 995.5,-26.78 995.5,-19.75"/>
<polygon fill="midnightblue" stroke="midnightblue" points="992,-46.08 995.5,-56.08 999,-46.08 992,-46.08"/>
</g>
<!-- Node9&#45;&gt;Node7 -->
<g id="edge10" class="edge">
<title>Node9&#45;&gt;Node7</title>
<path fill="none" stroke="midnightblue" d="M1522.79,-111.63C1402.52,-101.45 1212.07,-85.33 1095.97,-75.5"/>
<polygon fill="midnightblue" stroke="midnightblue" points="1522.5,-115.12 1532.76,-112.47 1523.09,-108.14 1522.5,-115.12"/>
</g>
<!-- Node10 -->
<g id="node10" class="node">
<title>Node10</title>
<g id="a_node10"><a xlink:href="control__pannel_8cpp.html" target="_top" xlink:title=" ">
<polygon fill="white" stroke="black" points="1487.5,-56.5 1487.5,-75.5 1779.5,-75.5 1779.5,-56.5 1487.5,-56.5"/>
<text text-anchor="middle" x="1633.5" y="-63.5" font-family="Helvetica,sans-Serif" font-size="10.00">src/application/user_interface/pannel/control_pannel.cpp</text>
</a>
</g>
</g>
<!-- Node9&#45;&gt;Node10 -->
<g id="edge9" class="edge">
<title>Node9&#45;&gt;Node10</title>
<path fill="none" stroke="midnightblue" d="M1633.5,-101.8C1633.5,-92.91 1633.5,-82.78 1633.5,-75.75"/>
<polygon fill="midnightblue" stroke="midnightblue" points="1630,-102.08 1633.5,-112.08 1637,-102.08 1630,-102.08"/>
</g>
<!-- Node11&#45;&gt;Node7 -->
<g id="edge13" class="edge">
<title>Node11&#45;&gt;Node7</title>
<path fill="none" stroke="midnightblue" d="M1781.56,-111.89C1501.42,-95.34 1429.66,-91.85 1152.5,-76 1135.06,-75 1116.52,-73.94 1098.53,-72.91"/>
<polygon fill="midnightblue" stroke="midnightblue" points="1781.43,-115.39 1791.62,-112.48 1781.84,-108.4 1781.43,-115.39"/>
</g>
<!-- Node12 -->
<g id="node12" class="node">
<title>Node12</title>
<g id="a_node12"><a xlink:href="dialog__pannel_8cpp.html" target="_top" xlink:title=" ">
<polygon fill="white" stroke="black" points="1797.5,-56.5 1797.5,-75.5 2085.5,-75.5 2085.5,-56.5 1797.5,-56.5"/>
<text text-anchor="middle" x="1941.5" y="-63.5" font-family="Helvetica,sans-Serif" font-size="10.00">src/application/user_interface/pannel/dialog_pannel.cpp</text>
</a>
</g>
</g>
<!-- Node11&#45;&gt;Node12 -->
<g id="edge12" class="edge">
<title>Node11&#45;&gt;Node12</title>
<path fill="none" stroke="midnightblue" d="M1934.35,-102.1C1936.18,-93.14 1938.27,-82.86 1939.72,-75.75"/>
<polygon fill="midnightblue" stroke="midnightblue" points="1930.88,-101.59 1932.32,-112.08 1937.74,-102.98 1930.88,-101.59"/>
</g>
<!-- Node13&#45;&gt;Node7 -->
<g id="edge16" class="edge">
<title>Node13&#45;&gt;Node7</title>
<path fill="none" stroke="midnightblue" d="M469.4,-111.6C589.5,-101.42 779.39,-85.32 895.18,-75.5"/>
<polygon fill="midnightblue" stroke="midnightblue" points="468.75,-108.14 459.08,-112.47 469.34,-115.12 468.75,-108.14"/>
</g>
<!-- Node14 -->
<g id="node14" class="node">
<title>Node14</title>
<g id="a_node14"><a xlink:href="media__pannel_8cpp.html" target="_top" xlink:title=" ">
<polygon fill="white" stroke="black" points="219,-56.5 219,-75.5 508,-75.5 508,-56.5 219,-56.5"/>
<text text-anchor="middle" x="363.5" y="-63.5" font-family="Helvetica,sans-Serif" font-size="10.00">src/application/user_interface/pannel/media_pannel.cpp</text>
</a>
</g>
</g>
<!-- Node13&#45;&gt;Node14 -->
<g id="edge15" class="edge">
<title>Node13&#45;&gt;Node14</title>
<path fill="none" stroke="midnightblue" d="M360.25,-102.1C361.08,-93.14 362.03,-82.86 362.69,-75.75"/>
<polygon fill="midnightblue" stroke="midnightblue" points="356.76,-101.8 359.33,-112.08 363.73,-102.45 356.76,-101.8"/>
</g>
<!-- Node15&#45;&gt;Node7 -->
<g id="edge19" class="edge">
<title>Node15&#45;&gt;Node7</title>
<path fill="none" stroke="midnightblue" d="M724.65,-110.79C787.76,-100.59 883.68,-85.08 942.82,-75.52"/>
<polygon fill="midnightblue" stroke="midnightblue" points="723.74,-107.39 714.42,-112.44 724.85,-114.3 723.74,-107.39"/>
</g>
<!-- Node16 -->
<g id="node16" class="node">
<title>Node16</title>
<g id="a_node16"><a xlink:href="top__view__pannel_8cpp.html" target="_top" xlink:title=" ">
<polygon fill="white" stroke="black" points="526.5,-56.5 526.5,-75.5 828.5,-75.5 828.5,-56.5 526.5,-56.5"/>
<text text-anchor="middle" x="677.5" y="-63.5" font-family="Helvetica,sans-Serif" font-size="10.00">src/application/user_interface/pannel/top_view_pannel.cpp</text>
</a>
</g>
</g>
<!-- Node15&#45;&gt;Node16 -->
<g id="edge18" class="edge">
<title>Node15&#45;&gt;Node16</title>
<path fill="none" stroke="midnightblue" d="M667.01,-102.4C669.69,-93.36 672.78,-82.94 674.91,-75.75"/>
<polygon fill="midnightblue" stroke="midnightblue" points="663.63,-101.5 664.14,-112.08 670.34,-103.49 663.63,-101.5"/>
</g>
<!-- Node17&#45;&gt;Node8 -->
<g id="edge26" class="edge">
<title>Node17&#45;&gt;Node8</title>
<path fill="none" stroke="midnightblue" d="M2158.55,-104.31C2144.3,-88.61 2120.59,-66.05 2094.5,-56 2001.73,-20.25 1332.64,-12.89 1086.26,-11.38"/>
<polygon fill="midnightblue" stroke="midnightblue" points="2156.24,-106.98 2165.46,-112.2 2161.51,-102.37 2156.24,-106.98"/>
</g>
<!-- Node18 -->
<g id="node18" class="node">
<title>Node18</title>
<g id="a_node18"><a xlink:href="application_8cpp.html" target="_top" xlink:title=" ">
<polygon fill="white" stroke="black" points="2084,-0.5 2084,-19.5 2249,-19.5 2249,-0.5 2084,-0.5"/>
<text text-anchor="middle" x="2166.5" y="-7.5" font-family="Helvetica,sans-Serif" font-size="10.00">src/application/application.cpp</text>
</a>
</g>
</g>
<!-- Node17&#45;&gt;Node18 -->
<g id="edge22" class="edge">
<title>Node17&#45;&gt;Node18</title>
<path fill="none" stroke="midnightblue" d="M2171.48,-102.35C2170.17,-78.25 2167.93,-37.31 2166.97,-19.59"/>
<polygon fill="midnightblue" stroke="midnightblue" points="2167.99,-102.57 2172.03,-112.37 2174.98,-102.19 2167.99,-102.57"/>
</g>
<!-- Node19 -->
<g id="node19" class="node">
<title>Node19</title>
<g id="a_node19"><a xlink:href="application_8h.html" target="_top" xlink:title=" ">
<polygon fill="white" stroke="black" points="2194.5,-56.5 2194.5,-75.5 2348.5,-75.5 2348.5,-56.5 2194.5,-56.5"/>
<text text-anchor="middle" x="2271.5" y="-63.5" font-family="Helvetica,sans-Serif" font-size="10.00">src/application/application.h</text>
</a>
</g>
</g>
<!-- Node17&#45;&gt;Node19 -->
<g id="edge23" class="edge">
<title>Node17&#45;&gt;Node19</title>
<path fill="none" stroke="midnightblue" d="M2197.34,-107.45C2215.61,-97.48 2239.92,-84.23 2255.63,-75.65"/>
<polygon fill="midnightblue" stroke="midnightblue" points="2195.51,-104.46 2188.41,-112.32 2198.86,-110.61 2195.51,-104.46"/>
</g>
<!-- Node19&#45;&gt;Node18 -->
<g id="edge25" class="edge">
<title>Node19&#45;&gt;Node18</title>
<path fill="none" stroke="midnightblue" d="M2245.69,-51.73C2226.25,-41.73 2200.15,-28.31 2183.33,-19.65"/>
<polygon fill="midnightblue" stroke="midnightblue" points="2244.14,-54.86 2254.63,-56.32 2247.34,-48.64 2244.14,-54.86"/>
</g>
<!-- Node20 -->
<g id="node20" class="node">
<title>Node20</title>
<g id="a_node20"><a xlink:href="app_2main_8cpp.html" target="_top" xlink:title=" ">
<polygon fill="white" stroke="black" points="2267,-0.5 2267,-19.5 2350,-19.5 2350,-0.5 2267,-0.5"/>
<text text-anchor="middle" x="2308.5" y="-7.5" font-family="Helvetica,sans-Serif" font-size="10.00">app/main.cpp</text>
</a>
</g>
</g>
<!-- Node19&#45;&gt;Node20 -->
<g id="edge24" class="edge">
<title>Node19&#45;&gt;Node20</title>
<path fill="none" stroke="midnightblue" d="M2283.45,-47.57C2289.81,-38.27 2297.37,-27.25 2302.5,-19.75"/>
<polygon fill="midnightblue" stroke="midnightblue" points="2280.37,-45.86 2277.61,-56.08 2286.15,-49.81 2280.37,-45.86"/>
</g>
</g>
</svg>
