<?xml version="1.0" encoding="UTF-8" standalone="no"?>
<!DOCTYPE svg PUBLIC "-//W3C//DTD SVG 1.1//EN"
 "http://www.w3.org/Graphics/SVG/1.1/DTD/svg11.dtd">
<!-- Generated by graphviz version 2.43.0 (0)
 -->
<!-- Title: src/application/user_interface Pages: 1 -->
<svg width="217pt" height="255pt"
 viewBox="0.00 0.00 216.50 255.00" xmlns="http://www.w3.org/2000/svg" xmlns:xlink="http://www.w3.org/1999/xlink">
<g id="graph0" class="graph" transform="scale(1 1) rotate(0) translate(4 251)">
<title>src/application/user_interface</title>
<polygon fill="white" stroke="transparent" points="-4,4 -4,-251 212.5,-251 212.5,4 -4,4"/>
<g id="clust1" class="cluster">
<title>clusterdir_844f6ab5c2ae79211596f3dcdd81adb7</title>
<g id="a_clust1"><a xlink:href="dir_844f6ab5c2ae79211596f3dcdd81adb7.html" target="_top" xlink:title="application">
<polygon fill="#ddddee" stroke="black" points="8,-8 8,-239 126,-239 126,-8 8,-8"/>
<text text-anchor="middle" x="67" y="-227" font-family="Helvetica,sans-Serif" font-size="10.00">application</text>
</a>
</g>
</g>
<g id="clust2" class="cluster">
<title>clusterdir_52ce4215d6d698d6b81d139d7833adde</title>
<g id="a_clust2"><a xlink:href="dir_52ce4215d6d698d6b81d139d7833adde.html" target="_top">
<polygon fill="#eeeeff" stroke="black" points="16,-16 16,-212 118,-212 118,-16 16,-16"/>
</a>
</g>
</g>
<!-- dir_52ce4215d6d698d6b81d139d7833adde -->
<g id="node1" class="node">
<title>dir_52ce4215d6d698d6b81d139d7833adde</title>
<text text-anchor="middle" x="67" y="-183.5" font-family="Helvetica,sans-Serif" font-size="10.00">user_interface</text>
</g>
<!-- dir_f3d130717b4ed6bacbf81f5ce46586a9 -->
<g id="node3" class="node">
<title>dir_f3d130717b4ed6bacbf81f5ce46586a9</title>
<g id="a_node3"><a xlink:href="dir_f3d130717b4ed6bacbf81f5ce46586a9.html" target="_top" xlink:title="pannel">
<polygon fill="white" stroke="black" points="102,-132 48,-132 48,-96 102,-96 102,-132"/>
<text text-anchor="middle" x="75" y="-111.5" font-family="Helvetica,sans-Serif" font-size="10.00">pannel</text>
</a>
</g>
</g>
<!-- dir_52ce4215d6d698d6b81d139d7833adde&#45;&gt;dir_f3d130717b4ed6bacbf81f5ce46586a9 -->
<g id="edge1" class="edge">
<title>dir_52ce4215d6d698d6b81d139d7833adde&#45;&gt;dir_f3d130717b4ed6bacbf81f5ce46586a9</title>
<path fill="none" stroke="black" d="M68.98,-167.7C69.86,-159.98 70.92,-150.71 71.9,-142.11"/>
<polygon fill="black" stroke="black" points="75.39,-142.44 73.05,-132.1 68.43,-141.64 75.39,-142.44"/>
<g id="a_edge1&#45;headlabel"><a xlink:href="dir_000004_000006.html" target="_top" xlink:title="6">
<text text-anchor="middle" x="77.8" y="-143.83" font-family="Helvetica,sans-Serif" font-size="10.00">6</text>
</a>
</g>
</g>
<!-- dir_1a064d756099d74d66a105483db157e1 -->
<g id="node2" class="node">
<title>dir_1a064d756099d74d66a105483db157e1</title>
<g id="a_node2"><a xlink:href="dir_1a064d756099d74d66a105483db157e1.html" target="_top" xlink:title="drawer">
<polygon fill="white" stroke="black" points="102,-60 48,-60 48,-24 102,-24 102,-60"/>
<text text-anchor="middle" x="75" y="-39.5" font-family="Helvetica,sans-Serif" font-size="10.00">drawer</text>
</a>
</g>
</g>
<!-- dir_f3d130717b4ed6bacbf81f5ce46586a9&#45;&gt;dir_1a064d756099d74d66a105483db157e1 -->
<g id="edge2" class="edge">
<title>dir_f3d130717b4ed6bacbf81f5ce46586a9&#45;&gt;dir_1a064d756099d74d66a105483db157e1</title>
<path fill="none" stroke="black" d="M75,-95.7C75,-87.98 75,-78.71 75,-70.11"/>
<polygon fill="black" stroke="black" points="78.5,-70.1 75,-60.1 71.5,-70.1 78.5,-70.1"/>
<g id="a_edge2&#45;headlabel"><a xlink:href="dir_000006_000005.html" target="_top" xlink:title="1">
<text text-anchor="middle" x="81.34" y="-71.2" font-family="Helvetica,sans-Serif" font-size="10.00">1</text>
</a>
</g>
</g>
<!-- dir_df2ac868f0ee7bab118d8cc21a6c5a90 -->
<g id="node4" class="node">
<title>dir_df2ac868f0ee7bab118d8cc21a6c5a90</title>
<g id="a_node4"><a xlink:href="dir_df2ac868f0ee7bab118d8cc21a6c5a90.html" target="_top" xlink:title="data_reader">
<polygon fill="none" stroke="black" points="208.5,-60 133.5,-60 133.5,-24 208.5,-24 208.5,-60"/>
<text text-anchor="middle" x="171" y="-39.5" font-family="Helvetica,sans-Serif" font-size="10.00">data_reader</text>
</a>
</g>
</g>
<!-- dir_f3d130717b4ed6bacbf81f5ce46586a9&#45;&gt;dir_df2ac868f0ee7bab118d8cc21a6c5a90 -->
<g id="edge3" class="edge">
<title>dir_f3d130717b4ed6bacbf81f5ce46586a9&#45;&gt;dir_df2ac868f0ee7bab118d8cc21a6c5a90</title>
<path fill="none" stroke="black" d="M98.73,-95.7C110.94,-86.8 125.99,-75.82 139.18,-66.2"/>
<polygon fill="black" stroke="black" points="141.52,-68.82 147.54,-60.1 137.4,-63.17 141.52,-68.82"/>
<g id="a_edge3&#45;headlabel"><a xlink:href="dir_000006_000007.html" target="_top" xlink:title="1">
<text text-anchor="middle" x="140.29" y="-70.74" font-family="Helvetica,sans-Serif" font-size="10.00">1</text>
</a>
</g>
</g>
</g>
</svg>
