<?xml version="1.0" encoding="UTF-8" standalone="no"?>
<!DOCTYPE svg PUBLIC "-//W3C//DTD SVG 1.1//EN"
 "http://www.w3.org/Graphics/SVG/1.1/DTD/svg11.dtd">
<!-- Generated by graphviz version 2.43.0 (0)
 -->
<!-- Title: src/data_structure Pages: 1 -->
<svg width="128pt" height="167pt"
 viewBox="0.00 0.00 128.00 167.00" xmlns="http://www.w3.org/2000/svg" xmlns:xlink="http://www.w3.org/1999/xlink">
<g id="graph0" class="graph" transform="scale(1 1) rotate(0) translate(4 163)">
<title>src/data_structure</title>
<polygon fill="white" stroke="transparent" points="-4,4 -4,-163 124,-163 124,4 -4,4"/>
<g id="clust1" class="cluster">
<title>clusterdir_68267d1309a1af8e8297ef4c3efbcdba</title>
<g id="a_clust1"><a xlink:href="dir_68267d1309a1af8e8297ef4c3efbcdba.html" target="_top" xlink:title="src">
<polygon fill="#ddddee" stroke="black" points="8,-8 8,-151 112,-151 112,-8 8,-8"/>
<text text-anchor="middle" x="60" y="-139" font-family="Helvetica,sans-Serif" font-size="10.00">src</text>
</a>
</g>
</g>
<!-- dir_313caf1132e152dd9b58bea13a4052ca -->
<g id="node1" class="node">
<title>dir_313caf1132e152dd9b58bea13a4052ca</title>
<g id="a_node1"><a xlink:href="dir_313caf1132e152dd9b58bea13a4052ca.html" target="_top" xlink:title="utils">
<polygon fill="none" stroke="black" points="87,-52 33,-52 33,-16 87,-16 87,-52"/>
<text text-anchor="middle" x="60" y="-31.5" font-family="Helvetica,sans-Serif" font-size="10.00">utils</text>
</a>
</g>
</g>
<!-- dir_981422f615e1f86fc178e6fbecda1da3 -->
<g id="node2" class="node">
<title>dir_981422f615e1f86fc178e6fbecda1da3</title>
<g id="a_node2"><a xlink:href="dir_981422f615e1f86fc178e6fbecda1da3.html" target="_top" xlink:title="data_structure">
<polygon fill="#eeeeff" stroke="black" points="103.5,-124 16.5,-124 16.5,-88 103.5,-88 103.5,-124"/>
<text text-anchor="middle" x="60" y="-103.5" font-family="Helvetica,sans-Serif" font-size="10.00">data_structure</text>
</a>
</g>
</g>
<!-- dir_981422f615e1f86fc178e6fbecda1da3&#45;&gt;dir_313caf1132e152dd9b58bea13a4052ca -->
<g id="edge1" class="edge">
<title>dir_981422f615e1f86fc178e6fbecda1da3&#45;&gt;dir_313caf1132e152dd9b58bea13a4052ca</title>
<path fill="none" stroke="black" d="M60,-87.7C60,-79.98 60,-70.71 60,-62.11"/>
<polygon fill="black" stroke="black" points="63.5,-62.1 60,-52.1 56.5,-62.1 63.5,-62.1"/>
<g id="a_edge1&#45;headlabel"><a xlink:href="dir_000003_000005.html" target="_top" xlink:title="1">
<text text-anchor="middle" x="66.34" y="-63.2" font-family="Helvetica,sans-Serif" font-size="10.00">1</text>
</a>
</g>
</g>
</g>
</svg>
