<?xml version="1.0" encoding="UTF-8" standalone="no"?>
<!DOCTYPE svg PUBLIC "-//W3C//DTD SVG 1.1//EN"
 "http://www.w3.org/Graphics/SVG/1.1/DTD/svg11.dtd">
<!-- Generated by graphviz version 2.43.0 (0)
 -->
<!-- Title: src Pages: 1 -->
<svg width="232pt" height="220pt"
 viewBox="0.00 0.00 232.00 220.00" xmlns="http://www.w3.org/2000/svg" xmlns:xlink="http://www.w3.org/1999/xlink">
<g id="graph0" class="graph" transform="scale(1 1) rotate(0) translate(4 216)">
<title>src</title>
<polygon fill="white" stroke="transparent" points="-4,4 -4,-216 228,-216 228,4 -4,4"/>
<g id="clust1" class="cluster">
<title>clusterdir_68267d1309a1af8e8297ef4c3efbcdba</title>
<g id="a_clust1"><a xlink:href="dir_68267d1309a1af8e8297ef4c3efbcdba.html" target="_top">
<polygon fill="#eeeeff" stroke="black" points="8,-8 8,-204 216,-204 216,-8 8,-8"/>
</a>
</g>
</g>
<!-- dir_68267d1309a1af8e8297ef4c3efbcdba -->
<g id="node1" class="node">
<title>dir_68267d1309a1af8e8297ef4c3efbcdba</title>
<text text-anchor="middle" x="165" y="-175.5" font-family="Helvetica,sans-Serif" font-size="10.00">src</text>
</g>
<!-- dir_3ff33c31d85f61b3fc6158eec2750235 -->
<g id="node3" class="node">
<title>dir_3ff33c31d85f61b3fc6158eec2750235</title>
<g id="a_node3"><a xlink:href="dir_3ff33c31d85f61b3fc6158eec2750235.html" target="_top" xlink:title="user_interface">
<polygon fill="white" stroke="black" points="208,-124 122,-124 122,-88 208,-88 208,-124"/>
<text text-anchor="middle" x="165" y="-103.5" font-family="Helvetica,sans-Serif" font-size="10.00">user_interface</text>
</a>
</g>
</g>
<!-- dir_68267d1309a1af8e8297ef4c3efbcdba&#45;&gt;dir_3ff33c31d85f61b3fc6158eec2750235 -->
<g id="edge1" class="edge">
<title>dir_68267d1309a1af8e8297ef4c3efbcdba&#45;&gt;dir_3ff33c31d85f61b3fc6158eec2750235</title>
<path fill="none" stroke="black" d="M165,-159.7C165,-151.98 165,-142.71 165,-134.11"/>
<polygon fill="black" stroke="black" points="168.5,-134.1 165,-124.1 161.5,-134.1 168.5,-134.1"/>
<g id="a_edge1&#45;headlabel"><a xlink:href="dir_000002_000004.html" target="_top" xlink:title="5">
<text text-anchor="middle" x="171.34" y="-135.2" font-family="Helvetica,sans-Serif" font-size="10.00">5</text>
</a>
</g>
</g>
<!-- dir_981422f615e1f86fc178e6fbecda1da3 -->
<g id="node2" class="node">
<title>dir_981422f615e1f86fc178e6fbecda1da3</title>
<g id="a_node2"><a xlink:href="dir_981422f615e1f86fc178e6fbecda1da3.html" target="_top" xlink:title="data_structure">
<polygon fill="white" stroke="black" points="103.5,-124 16.5,-124 16.5,-88 103.5,-88 103.5,-124"/>
<text text-anchor="middle" x="60" y="-103.5" font-family="Helvetica,sans-Serif" font-size="10.00">data_structure</text>
</a>
</g>
</g>
<!-- dir_313caf1132e152dd9b58bea13a4052ca -->
<g id="node4" class="node">
<title>dir_313caf1132e152dd9b58bea13a4052ca</title>
<g id="a_node4"><a xlink:href="dir_313caf1132e152dd9b58bea13a4052ca.html" target="_top" xlink:title="utils">
<polygon fill="white" stroke="black" points="139,-52 85,-52 85,-16 139,-16 139,-52"/>
<text text-anchor="middle" x="112" y="-31.5" font-family="Helvetica,sans-Serif" font-size="10.00">utils</text>
</a>
</g>
</g>
<!-- dir_981422f615e1f86fc178e6fbecda1da3&#45;&gt;dir_313caf1132e152dd9b58bea13a4052ca -->
<g id="edge3" class="edge">
<title>dir_981422f615e1f86fc178e6fbecda1da3&#45;&gt;dir_313caf1132e152dd9b58bea13a4052ca</title>
<path fill="none" stroke="black" d="M72.85,-87.7C79.03,-79.39 86.54,-69.28 93.32,-60.14"/>
<polygon fill="black" stroke="black" points="96.14,-62.22 99.29,-52.1 90.52,-58.04 96.14,-62.22"/>
<g id="a_edge3&#45;headlabel"><a xlink:href="dir_000003_000005.html" target="_top" xlink:title="1">
<text text-anchor="middle" x="96.28" y="-64.3" font-family="Helvetica,sans-Serif" font-size="10.00">1</text>
</a>
</g>
</g>
<!-- dir_3ff33c31d85f61b3fc6158eec2750235&#45;&gt;dir_313caf1132e152dd9b58bea13a4052ca -->
<g id="edge2" class="edge">
<title>dir_3ff33c31d85f61b3fc6158eec2750235&#45;&gt;dir_313caf1132e152dd9b58bea13a4052ca</title>
<path fill="none" stroke="black" d="M151.9,-87.7C145.61,-79.39 137.95,-69.28 131.04,-60.14"/>
<polygon fill="black" stroke="black" points="133.78,-57.96 124.95,-52.1 128.2,-62.19 133.78,-57.96"/>
<g id="a_edge2&#45;headlabel"><a xlink:href="dir_000004_000005.html" target="_top" xlink:title="11">
<text text-anchor="middle" x="138.21" y="-56.62" font-family="Helvetica,sans-Serif" font-size="10.00">11</text>
</a>
</g>
</g>
</g>
</svg>
