<?xml version="1.0" encoding="UTF-8" standalone="no"?>
<!DOCTYPE svg PUBLIC "-//W3C//DTD SVG 1.1//EN"
 "http://www.w3.org/Graphics/SVG/1.1/DTD/svg11.dtd">
<!-- Generated by graphviz version 2.43.0 (0)
 -->
<!-- Title: src/user_interface Pages: 1 -->
<svg width="148pt" height="239pt"
 viewBox="0.00 0.00 148.00 239.00" xmlns="http://www.w3.org/2000/svg" xmlns:xlink="http://www.w3.org/1999/xlink">
<g id="graph0" class="graph" transform="scale(1 1) rotate(0) translate(4 235)">
<title>src/user_interface</title>
<polygon fill="white" stroke="transparent" points="-4,4 -4,-235 144,-235 144,4 -4,4"/>
<g id="clust1" class="cluster">
<title>clusterdir_68267d1309a1af8e8297ef4c3efbcdba</title>
<g id="a_clust1"><a xlink:href="dir_68267d1309a1af8e8297ef4c3efbcdba.html" target="_top" xlink:title="src">
<polygon fill="#ddddee" stroke="black" points="8,-8 8,-223 132,-223 132,-8 8,-8"/>
<text text-anchor="middle" x="70" y="-211" font-family="Helvetica,sans-Serif" font-size="10.00">src</text>
</a>
</g>
</g>
<!-- dir_313caf1132e152dd9b58bea13a4052ca -->
<g id="node1" class="node">
<title>dir_313caf1132e152dd9b58bea13a4052ca</title>
<g id="a_node1"><a xlink:href="dir_313caf1132e152dd9b58bea13a4052ca.html" target="_top" xlink:title="utils">
<polygon fill="none" stroke="black" points="88,-52 34,-52 34,-16 88,-16 88,-52"/>
<text text-anchor="middle" x="61" y="-31.5" font-family="Helvetica,sans-Serif" font-size="10.00">utils</text>
</a>
</g>
</g>
<!-- dir_981422f615e1f86fc178e6fbecda1da3 -->
<g id="node2" class="node">
<title>dir_981422f615e1f86fc178e6fbecda1da3</title>
<g id="a_node2"><a xlink:href="dir_981422f615e1f86fc178e6fbecda1da3.html" target="_top" xlink:title="data_structure">
<polygon fill="none" stroke="black" points="123.5,-124 36.5,-124 36.5,-88 123.5,-88 123.5,-124"/>
<text text-anchor="middle" x="80" y="-103.5" font-family="Helvetica,sans-Serif" font-size="10.00">data_structure</text>
</a>
</g>
</g>
<!-- dir_981422f615e1f86fc178e6fbecda1da3&#45;&gt;dir_313caf1132e152dd9b58bea13a4052ca -->
<g id="edge3" class="edge">
<title>dir_981422f615e1f86fc178e6fbecda1da3&#45;&gt;dir_313caf1132e152dd9b58bea13a4052ca</title>
<path fill="none" stroke="black" d="M75.3,-87.7C73.19,-79.9 70.64,-70.51 68.28,-61.83"/>
<polygon fill="black" stroke="black" points="71.64,-60.84 65.64,-52.1 64.88,-62.67 71.64,-60.84"/>
<g id="a_edge3&#45;headlabel"><a xlink:href="dir_000003_000005.html" target="_top" xlink:title="1">
<text text-anchor="middle" x="75.32" y="-61.06" font-family="Helvetica,sans-Serif" font-size="10.00">1</text>
</a>
</g>
</g>
<!-- dir_3ff33c31d85f61b3fc6158eec2750235 -->
<g id="node3" class="node">
<title>dir_3ff33c31d85f61b3fc6158eec2750235</title>
<g id="a_node3"><a xlink:href="dir_3ff33c31d85f61b3fc6158eec2750235.html" target="_top" xlink:title="user_interface">
<polygon fill="#eeeeff" stroke="black" points="112,-196 26,-196 26,-160 112,-160 112,-196"/>
<text text-anchor="middle" x="69" y="-175.5" font-family="Helvetica,sans-Serif" font-size="10.00">user_interface</text>
</a>
</g>
</g>
<!-- dir_3ff33c31d85f61b3fc6158eec2750235&#45;&gt;dir_313caf1132e152dd9b58bea13a4052ca -->
<g id="edge1" class="edge">
<title>dir_3ff33c31d85f61b3fc6158eec2750235&#45;&gt;dir_313caf1132e152dd9b58bea13a4052ca</title>
<path fill="none" stroke="black" d="M50.4,-159.76C41.47,-150.2 31.71,-137.53 27,-124 21.74,-108.89 22.5,-103.35 27,-88 29.8,-78.45 34.91,-68.98 40.33,-60.76"/>
<polygon fill="black" stroke="black" points="43.35,-62.56 46.25,-52.37 37.62,-58.52 43.35,-62.56"/>
<g id="a_edge1&#45;headlabel"><a xlink:href="dir_000004_000005.html" target="_top" xlink:title="13">
<text text-anchor="middle" x="43.6" y="-64.63" font-family="Helvetica,sans-Serif" font-size="10.00">13</text>
</a>
</g>
</g>
<!-- dir_3ff33c31d85f61b3fc6158eec2750235&#45;&gt;dir_981422f615e1f86fc178e6fbecda1da3 -->
<g id="edge2" class="edge">
<title>dir_3ff33c31d85f61b3fc6158eec2750235&#45;&gt;dir_981422f615e1f86fc178e6fbecda1da3</title>
<path fill="none" stroke="black" d="M71.72,-159.7C72.93,-151.98 74.39,-142.71 75.74,-134.11"/>
<polygon fill="black" stroke="black" points="79.22,-134.53 77.31,-124.1 72.3,-133.44 79.22,-134.53"/>
<g id="a_edge2&#45;headlabel"><a xlink:href="dir_000004_000003.html" target="_top" xlink:title="2">
<text text-anchor="middle" x="81.46" y="-136.02" font-family="Helvetica,sans-Serif" font-size="10.00">2</text>
</a>
</g>
</g>
</g>
</svg>
