<?xml version="1.0" encoding="UTF-8" standalone="no"?>
<!DOCTYPE svg PUBLIC "-//W3C//DTD SVG 1.1//EN"
 "http://www.w3.org/Graphics/SVG/1.1/DTD/svg11.dtd">
<!-- Generated by graphviz version 2.43.0 (0)
 -->
<!-- Title: src Pages: 1 -->
<svg width="146pt" height="220pt"
 viewBox="0.00 0.00 146.00 220.00" xmlns="http://www.w3.org/2000/svg" xmlns:xlink="http://www.w3.org/1999/xlink">
<g id="graph0" class="graph" transform="scale(1 1) rotate(0) translate(4 216)">
<title>src</title>
<polygon fill="white" stroke="transparent" points="-4,4 -4,-216 142,-216 142,4 -4,4"/>
<g id="clust1" class="cluster">
<title>clusterdir_68267d1309a1af8e8297ef4c3efbcdba</title>
<g id="a_clust1"><a xlink:href="dir_68267d1309a1af8e8297ef4c3efbcdba.html" target="_top">
<polygon fill="#eeeeff" stroke="black" points="8,-8 8,-204 130,-204 130,-8 8,-8"/>
</a>
</g>
</g>
<!-- dir_68267d1309a1af8e8297ef4c3efbcdba -->
<g id="node1" class="node">
<title>dir_68267d1309a1af8e8297ef4c3efbcdba</title>
<text text-anchor="middle" x="77" y="-175.5" font-family="Helvetica,sans-Serif" font-size="10.00">src</text>
</g>
<!-- dir_3ff33c31d85f61b3fc6158eec2750235 -->
<g id="node2" class="node">
<title>dir_3ff33c31d85f61b3fc6158eec2750235</title>
<g id="a_node2"><a xlink:href="dir_3ff33c31d85f61b3fc6158eec2750235.html" target="_top" xlink:title="user_interface">
<polygon fill="white" stroke="black" points="102,-124 16,-124 16,-88 102,-88 102,-124"/>
<text text-anchor="middle" x="59" y="-103.5" font-family="Helvetica,sans-Serif" font-size="10.00">user_interface</text>
</a>
</g>
</g>
<!-- dir_68267d1309a1af8e8297ef4c3efbcdba&#45;&gt;dir_3ff33c31d85f61b3fc6158eec2750235 -->
<g id="edge2" class="edge">
<title>dir_68267d1309a1af8e8297ef4c3efbcdba&#45;&gt;dir_3ff33c31d85f61b3fc6158eec2750235</title>
<path fill="none" stroke="black" d="M72.55,-159.7C70.55,-151.9 68.13,-142.51 65.9,-133.83"/>
<polygon fill="black" stroke="black" points="69.28,-132.92 63.4,-124.1 62.5,-134.66 69.28,-132.92"/>
<g id="a_edge2&#45;headlabel"><a xlink:href="dir_000002_000003.html" target="_top" xlink:title="1">
<text text-anchor="middle" x="72.92" y="-133.19" font-family="Helvetica,sans-Serif" font-size="10.00">1</text>
</a>
</g>
</g>
<!-- dir_313caf1132e152dd9b58bea13a4052ca -->
<g id="node3" class="node">
<title>dir_313caf1132e152dd9b58bea13a4052ca</title>
<g id="a_node3"><a xlink:href="dir_313caf1132e152dd9b58bea13a4052ca.html" target="_top" xlink:title="utils">
<polygon fill="white" stroke="black" points="104,-52 50,-52 50,-16 104,-16 104,-52"/>
<text text-anchor="middle" x="77" y="-31.5" font-family="Helvetica,sans-Serif" font-size="10.00">utils</text>
</a>
</g>
</g>
<!-- dir_68267d1309a1af8e8297ef4c3efbcdba&#45;&gt;dir_313caf1132e152dd9b58bea13a4052ca -->
<g id="edge1" class="edge">
<title>dir_68267d1309a1af8e8297ef4c3efbcdba&#45;&gt;dir_313caf1132e152dd9b58bea13a4052ca</title>
<path fill="none" stroke="black" d="M91.75,-159.63C99.09,-149.85 107.19,-137.01 111,-124 115.5,-108.65 115.5,-103.35 111,-88 108.2,-78.45 103.09,-68.98 97.67,-60.76"/>
<polygon fill="black" stroke="black" points="100.38,-58.52 91.75,-52.37 94.65,-62.56 100.38,-58.52"/>
<g id="a_edge1&#45;headlabel"><a xlink:href="dir_000002_000004.html" target="_top" xlink:title="9">
<text text-anchor="middle" x="104.77" y="-57.33" font-family="Helvetica,sans-Serif" font-size="10.00">9</text>
</a>
</g>
</g>
<!-- dir_3ff33c31d85f61b3fc6158eec2750235&#45;&gt;dir_313caf1132e152dd9b58bea13a4052ca -->
<g id="edge3" class="edge">
<title>dir_3ff33c31d85f61b3fc6158eec2750235&#45;&gt;dir_313caf1132e152dd9b58bea13a4052ca</title>
<path fill="none" stroke="black" d="M63.45,-87.7C65.45,-79.9 67.87,-70.51 70.1,-61.83"/>
<polygon fill="black" stroke="black" points="73.5,-62.66 72.6,-52.1 66.72,-60.92 73.5,-62.66"/>
<g id="a_edge3&#45;headlabel"><a xlink:href="dir_000003_000004.html" target="_top" xlink:title="8">
<text text-anchor="middle" x="75.36" y="-64.35" font-family="Helvetica,sans-Serif" font-size="10.00">8</text>
</a>
</g>
</g>
</g>
</svg>
