<?xml version="1.0" encoding="UTF-8" standalone="no"?>
<!DOCTYPE svg PUBLIC "-//W3C//DTD SVG 1.1//EN"
 "http://www.w3.org/Graphics/SVG/1.1/DTD/svg11.dtd">
<!-- Generated by graphviz version 2.43.0 (0)
 -->
<!-- Title: src Pages: 1 -->
<svg width="148pt" height="292pt"
 viewBox="0.00 0.00 148.00 292.00" xmlns="http://www.w3.org/2000/svg" xmlns:xlink="http://www.w3.org/1999/xlink">
<g id="graph0" class="graph" transform="scale(1 1) rotate(0) translate(4 288)">
<title>src</title>
<polygon fill="white" stroke="transparent" points="-4,4 -4,-288 144,-288 144,4 -4,4"/>
<g id="clust1" class="cluster">
<title>clusterdir_68267d1309a1af8e8297ef4c3efbcdba</title>
<g id="a_clust1"><a xlink:href="dir_68267d1309a1af8e8297ef4c3efbcdba.html" target="_top">
<polygon fill="#eeeeff" stroke="black" points="8,-8 8,-276 132,-276 132,-8 8,-8"/>
</a>
</g>
</g>
<!-- dir_68267d1309a1af8e8297ef4c3efbcdba -->
<g id="node1" class="node">
<title>dir_68267d1309a1af8e8297ef4c3efbcdba</title>
<text text-anchor="middle" x="62" y="-247.5" font-family="Helvetica,sans-Serif" font-size="10.00">src</text>
</g>
<!-- dir_981422f615e1f86fc178e6fbecda1da3 -->
<g id="node2" class="node">
<title>dir_981422f615e1f86fc178e6fbecda1da3</title>
<g id="a_node2"><a xlink:href="dir_981422f615e1f86fc178e6fbecda1da3.html" target="_top" xlink:title="data_structure">
<polygon fill="white" stroke="black" points="103.5,-124 16.5,-124 16.5,-88 103.5,-88 103.5,-124"/>
<text text-anchor="middle" x="60" y="-103.5" font-family="Helvetica,sans-Serif" font-size="10.00">data_structure</text>
</a>
</g>
</g>
<!-- dir_68267d1309a1af8e8297ef4c3efbcdba&#45;&gt;dir_981422f615e1f86fc178e6fbecda1da3 -->
<g id="edge2" class="edge">
<title>dir_68267d1309a1af8e8297ef4c3efbcdba&#45;&gt;dir_981422f615e1f86fc178e6fbecda1da3</title>
<path fill="none" stroke="black" d="M47.67,-231.57C40.55,-221.76 32.69,-208.92 29,-196 24.6,-180.62 24.82,-175.44 29,-160 31.58,-150.48 36.34,-140.92 41.38,-132.59"/>
<polygon fill="black" stroke="black" points="44.38,-134.39 46.85,-124.09 38.49,-130.6 44.38,-134.39"/>
<g id="a_edge2&#45;headlabel"><a xlink:href="dir_000002_000003.html" target="_top" xlink:title="8">
<text text-anchor="middle" x="44.82" y="-136.45" font-family="Helvetica,sans-Serif" font-size="10.00">8</text>
</a>
</g>
</g>
<!-- dir_3ff33c31d85f61b3fc6158eec2750235 -->
<g id="node3" class="node">
<title>dir_3ff33c31d85f61b3fc6158eec2750235</title>
<g id="a_node3"><a xlink:href="dir_3ff33c31d85f61b3fc6158eec2750235.html" target="_top" xlink:title="user_interface">
<polygon fill="white" stroke="black" points="124,-196 38,-196 38,-160 124,-160 124,-196"/>
<text text-anchor="middle" x="81" y="-175.5" font-family="Helvetica,sans-Serif" font-size="10.00">user_interface</text>
</a>
</g>
</g>
<!-- dir_68267d1309a1af8e8297ef4c3efbcdba&#45;&gt;dir_3ff33c31d85f61b3fc6158eec2750235 -->
<g id="edge1" class="edge">
<title>dir_68267d1309a1af8e8297ef4c3efbcdba&#45;&gt;dir_3ff33c31d85f61b3fc6158eec2750235</title>
<path fill="none" stroke="black" d="M66.7,-231.7C68.81,-223.9 71.36,-214.51 73.72,-205.83"/>
<polygon fill="black" stroke="black" points="77.12,-206.67 76.36,-196.1 70.36,-204.84 77.12,-206.67"/>
<g id="a_edge1&#45;headlabel"><a xlink:href="dir_000002_000004.html" target="_top" xlink:title="6">
<text text-anchor="middle" x="78.91" y="-208.38" font-family="Helvetica,sans-Serif" font-size="10.00">6</text>
</a>
</g>
</g>
<!-- dir_313caf1132e152dd9b58bea13a4052ca -->
<g id="node4" class="node">
<title>dir_313caf1132e152dd9b58bea13a4052ca</title>
<g id="a_node4"><a xlink:href="dir_313caf1132e152dd9b58bea13a4052ca.html" target="_top" xlink:title="utils">
<polygon fill="white" stroke="black" points="105,-52 51,-52 51,-16 105,-16 105,-52"/>
<text text-anchor="middle" x="78" y="-31.5" font-family="Helvetica,sans-Serif" font-size="10.00">utils</text>
</a>
</g>
</g>
<!-- dir_981422f615e1f86fc178e6fbecda1da3&#45;&gt;dir_313caf1132e152dd9b58bea13a4052ca -->
<g id="edge5" class="edge">
<title>dir_981422f615e1f86fc178e6fbecda1da3&#45;&gt;dir_313caf1132e152dd9b58bea13a4052ca</title>
<path fill="none" stroke="black" d="M64.45,-87.7C66.45,-79.9 68.87,-70.51 71.1,-61.83"/>
<polygon fill="black" stroke="black" points="74.5,-62.66 73.6,-52.1 67.72,-60.92 74.5,-62.66"/>
<g id="a_edge5&#45;headlabel"><a xlink:href="dir_000003_000005.html" target="_top" xlink:title="1">
<text text-anchor="middle" x="76.36" y="-64.35" font-family="Helvetica,sans-Serif" font-size="10.00">1</text>
</a>
</g>
</g>
<!-- dir_3ff33c31d85f61b3fc6158eec2750235&#45;&gt;dir_981422f615e1f86fc178e6fbecda1da3 -->
<g id="edge4" class="edge">
<title>dir_3ff33c31d85f61b3fc6158eec2750235&#45;&gt;dir_981422f615e1f86fc178e6fbecda1da3</title>
<path fill="none" stroke="black" d="M75.81,-159.7C73.47,-151.9 70.65,-142.51 68.05,-133.83"/>
<polygon fill="black" stroke="black" points="71.36,-132.68 65.13,-124.1 64.65,-134.69 71.36,-132.68"/>
<g id="a_edge4&#45;headlabel"><a xlink:href="dir_000004_000003.html" target="_top" xlink:title="4">
<text text-anchor="middle" x="75.11" y="-132.8" font-family="Helvetica,sans-Serif" font-size="10.00">4</text>
</a>
</g>
</g>
<!-- dir_3ff33c31d85f61b3fc6158eec2750235&#45;&gt;dir_313caf1132e152dd9b58bea13a4052ca -->
<g id="edge3" class="edge">
<title>dir_3ff33c31d85f61b3fc6158eec2750235&#45;&gt;dir_313caf1132e152dd9b58bea13a4052ca</title>
<path fill="none" stroke="black" d="M94.56,-159.97C101.56,-150.09 109.37,-137.05 113,-124 117.29,-108.59 117.6,-103.32 113,-88 110.08,-78.28 104.74,-68.7 99.09,-60.41"/>
<polygon fill="black" stroke="black" points="101.9,-58.32 93.18,-52.3 96.24,-62.44 101.9,-58.32"/>
<g id="a_edge3&#45;headlabel"><a xlink:href="dir_000004_000005.html" target="_top" xlink:title="13">
<text text-anchor="middle" x="106.31" y="-57.06" font-family="Helvetica,sans-Serif" font-size="10.00">13</text>
</a>
</g>
</g>
</g>
</svg>
