<?xml version="1.0" encoding="UTF-8" standalone="no"?>
<!DOCTYPE svg PUBLIC "-//W3C//DTD SVG 1.1//EN"
 "http://www.w3.org/Graphics/SVG/1.1/DTD/svg11.dtd">
<!-- Generated by graphviz version 2.43.0 (0)
 -->
<!-- Title: src/application Pages: 1 -->
<svg width="154pt" height="247pt"
 viewBox="0.00 0.00 154.00 247.00" xmlns="http://www.w3.org/2000/svg" xmlns:xlink="http://www.w3.org/1999/xlink">
<g id="graph0" class="graph" transform="scale(1 1) rotate(0) translate(4 243)">
<title>src/application</title>
<polygon fill="white" stroke="transparent" points="-4,4 -4,-243 150,-243 150,4 -4,4"/>
<g id="clust1" class="cluster">
<title>clusterdir_68267d1309a1af8e8297ef4c3efbcdba</title>
<g id="a_clust1"><a xlink:href="dir_68267d1309a1af8e8297ef4c3efbcdba.html" target="_top" xlink:title="src">
<polygon fill="#ddddee" stroke="black" points="8,-8 8,-231 138,-231 138,-8 8,-8"/>
<text text-anchor="middle" x="73" y="-219" font-family="Helvetica,sans-Serif" font-size="10.00">src</text>
</a>
</g>
</g>
<g id="clust2" class="cluster">
<title>clusterdir_844f6ab5c2ae79211596f3dcdd81adb7</title>
<g id="a_clust2"><a xlink:href="dir_844f6ab5c2ae79211596f3dcdd81adb7.html" target="_top">
<polygon fill="#eeeeff" stroke="black" points="16,-80 16,-204 118,-204 118,-80 16,-80"/>
</a>
</g>
</g>
<!-- dir_df2ac868f0ee7bab118d8cc21a6c5a90 -->
<g id="node1" class="node">
<title>dir_df2ac868f0ee7bab118d8cc21a6c5a90</title>
<g id="a_node1"><a xlink:href="dir_df2ac868f0ee7bab118d8cc21a6c5a90.html" target="_top" xlink:title="data_reader">
<polygon fill="none" stroke="black" points="117.5,-52 42.5,-52 42.5,-16 117.5,-16 117.5,-52"/>
<text text-anchor="middle" x="80" y="-31.5" font-family="Helvetica,sans-Serif" font-size="10.00">data_reader</text>
</a>
</g>
</g>
<!-- dir_844f6ab5c2ae79211596f3dcdd81adb7 -->
<g id="node2" class="node">
<title>dir_844f6ab5c2ae79211596f3dcdd81adb7</title>
<text text-anchor="middle" x="70" y="-175.5" font-family="Helvetica,sans-Serif" font-size="10.00">application</text>
</g>
<!-- dir_844f6ab5c2ae79211596f3dcdd81adb7&#45;&gt;dir_df2ac868f0ee7bab118d8cc21a6c5a90 -->
<g id="edge3" class="edge">
<title>dir_844f6ab5c2ae79211596f3dcdd81adb7&#45;&gt;dir_df2ac868f0ee7bab118d8cc21a6c5a90</title>
<path fill="none" stroke="black" d="M92.15,-159.87C102.41,-150.52 113.52,-138 119,-124 126.13,-105.79 125.83,-98.32 119,-80 116.32,-72.81 111.91,-66 107,-59.96"/>
<polygon fill="black" stroke="black" points="109.39,-57.38 100.12,-52.24 104.16,-62.04 109.39,-57.38"/>
<g id="a_edge3&#45;headlabel"><a xlink:href="dir_000003_000007.html" target="_top" xlink:title="2">
<text text-anchor="middle" x="113.9" y="-55.67" font-family="Helvetica,sans-Serif" font-size="10.00">2</text>
</a>
</g>
</g>
<!-- dir_52ce4215d6d698d6b81d139d7833adde -->
<g id="node3" class="node">
<title>dir_52ce4215d6d698d6b81d139d7833adde</title>
<g id="a_node3"><a xlink:href="dir_52ce4215d6d698d6b81d139d7833adde.html" target="_top" xlink:title="user_interface">
<polygon fill="white" stroke="red" points="110,-124 24,-124 24,-88 110,-88 110,-124"/>
<text text-anchor="middle" x="67" y="-103.5" font-family="Helvetica,sans-Serif" font-size="10.00">user_interface</text>
</a>
</g>
</g>
<!-- dir_844f6ab5c2ae79211596f3dcdd81adb7&#45;&gt;dir_52ce4215d6d698d6b81d139d7833adde -->
<g id="edge2" class="edge">
<title>dir_844f6ab5c2ae79211596f3dcdd81adb7&#45;&gt;dir_52ce4215d6d698d6b81d139d7833adde</title>
<path fill="none" stroke="black" d="M69.26,-159.7C68.93,-151.98 68.53,-142.71 68.16,-134.11"/>
<polygon fill="black" stroke="black" points="71.66,-133.95 67.73,-124.1 64.66,-134.25 71.66,-133.95"/>
<g id="a_edge2&#45;headlabel"><a xlink:href="dir_000003_000004.html" target="_top" xlink:title="9">
<text text-anchor="middle" x="74.65" y="-134.92" font-family="Helvetica,sans-Serif" font-size="10.00">9</text>
</a>
</g>
</g>
<!-- dir_52ce4215d6d698d6b81d139d7833adde&#45;&gt;dir_df2ac868f0ee7bab118d8cc21a6c5a90 -->
<g id="edge1" class="edge">
<title>dir_52ce4215d6d698d6b81d139d7833adde&#45;&gt;dir_df2ac868f0ee7bab118d8cc21a6c5a90</title>
<path fill="none" stroke="black" d="M70.21,-87.7C71.65,-79.98 73.37,-70.71 74.96,-62.11"/>
<polygon fill="black" stroke="black" points="78.44,-62.58 76.82,-52.1 71.56,-61.3 78.44,-62.58"/>
<g id="a_edge1&#45;headlabel"><a xlink:href="dir_000004_000007.html" target="_top" xlink:title="1">
<text text-anchor="middle" x="80.57" y="-64.13" font-family="Helvetica,sans-Serif" font-size="10.00">1</text>
</a>
</g>
</g>
</g>
</svg>
