<?xml version="1.0" encoding="UTF-8" standalone="no"?>
<!DOCTYPE svg PUBLIC "-//W3C//DTD SVG 1.1//EN"
 "http://www.w3.org/Graphics/SVG/1.1/DTD/svg11.dtd">
<!-- Generated by graphviz version 2.43.0 (0)
 -->
<!-- Title: src Pages: 1 -->
<svg width="184pt" height="220pt"
 viewBox="0.00 0.00 184.00 220.00" xmlns="http://www.w3.org/2000/svg" xmlns:xlink="http://www.w3.org/1999/xlink">
<g id="graph0" class="graph" transform="scale(1 1) rotate(0) translate(4 216)">
<title>src</title>
<polygon fill="white" stroke="transparent" points="-4,4 -4,-216 180,-216 180,4 -4,4"/>
<g id="clust1" class="cluster">
<title>clusterdir_68267d1309a1af8e8297ef4c3efbcdba</title>
<g id="a_clust1"><a xlink:href="dir_68267d1309a1af8e8297ef4c3efbcdba.html" target="_top">
<polygon fill="#eeeeff" stroke="black" points="8,-8 8,-204 168,-204 168,-8 8,-8"/>
</a>
</g>
</g>
<!-- dir_68267d1309a1af8e8297ef4c3efbcdba -->
<g id="node1" class="node">
<title>dir_68267d1309a1af8e8297ef4c3efbcdba</title>
<text text-anchor="middle" x="133" y="-175.5" font-family="Helvetica,sans-Serif" font-size="10.00">src</text>
</g>
<!-- dir_844f6ab5c2ae79211596f3dcdd81adb7 -->
<g id="node2" class="node">
<title>dir_844f6ab5c2ae79211596f3dcdd81adb7</title>
<g id="a_node2"><a xlink:href="dir_844f6ab5c2ae79211596f3dcdd81adb7.html" target="_top" xlink:title="application">
<polygon fill="white" stroke="red" points="87.5,-196 16.5,-196 16.5,-160 87.5,-160 87.5,-196"/>
<text text-anchor="middle" x="52" y="-175.5" font-family="Helvetica,sans-Serif" font-size="10.00">application</text>
</a>
</g>
</g>
<!-- dir_df2ac868f0ee7bab118d8cc21a6c5a90 -->
<g id="node3" class="node">
<title>dir_df2ac868f0ee7bab118d8cc21a6c5a90</title>
<g id="a_node3"><a xlink:href="dir_df2ac868f0ee7bab118d8cc21a6c5a90.html" target="_top" xlink:title="data_reader">
<polygon fill="white" stroke="black" points="90.5,-124 15.5,-124 15.5,-88 90.5,-88 90.5,-124"/>
<text text-anchor="middle" x="53" y="-103.5" font-family="Helvetica,sans-Serif" font-size="10.00">data_reader</text>
</a>
</g>
</g>
<!-- dir_844f6ab5c2ae79211596f3dcdd81adb7&#45;&gt;dir_df2ac868f0ee7bab118d8cc21a6c5a90 -->
<g id="edge1" class="edge">
<title>dir_844f6ab5c2ae79211596f3dcdd81adb7&#45;&gt;dir_df2ac868f0ee7bab118d8cc21a6c5a90</title>
<path fill="none" stroke="black" d="M52.25,-159.7C52.36,-151.98 52.49,-142.71 52.61,-134.11"/>
<polygon fill="black" stroke="black" points="56.11,-134.15 52.76,-124.1 49.11,-134.05 56.11,-134.15"/>
<g id="a_edge1&#45;headlabel"><a xlink:href="dir_000003_000007.html" target="_top" xlink:title="2">
<text text-anchor="middle" x="58.9" y="-135.29" font-family="Helvetica,sans-Serif" font-size="10.00">2</text>
</a>
</g>
</g>
<!-- dir_28d8fdaad462b0c368e1ad9ffb215319 -->
<g id="node4" class="node">
<title>dir_28d8fdaad462b0c368e1ad9ffb215319</title>
<g id="a_node4"><a xlink:href="dir_28d8fdaad462b0c368e1ad9ffb215319.html" target="_top" xlink:title="data_type">
<polygon fill="white" stroke="black" points="83.5,-52 18.5,-52 18.5,-16 83.5,-16 83.5,-52"/>
<text text-anchor="middle" x="51" y="-31.5" font-family="Helvetica,sans-Serif" font-size="10.00">data_type</text>
</a>
</g>
</g>
<!-- dir_df2ac868f0ee7bab118d8cc21a6c5a90&#45;&gt;dir_28d8fdaad462b0c368e1ad9ffb215319 -->
<g id="edge3" class="edge">
<title>dir_df2ac868f0ee7bab118d8cc21a6c5a90&#45;&gt;dir_28d8fdaad462b0c368e1ad9ffb215319</title>
<path fill="none" stroke="black" d="M52.51,-87.7C52.29,-79.98 52.02,-70.71 51.77,-62.11"/>
<polygon fill="black" stroke="black" points="55.27,-62 51.49,-52.1 48.28,-62.2 55.27,-62"/>
<g id="a_edge3&#45;headlabel"><a xlink:href="dir_000007_000008.html" target="_top" xlink:title="1">
<text text-anchor="middle" x="58.21" y="-63.01" font-family="Helvetica,sans-Serif" font-size="10.00">1</text>
</a>
</g>
</g>
<!-- dir_0619a8f54b4fad7043a6de45be8fde0b -->
<g id="node5" class="node">
<title>dir_0619a8f54b4fad7043a6de45be8fde0b</title>
<g id="a_node5"><a xlink:href="dir_0619a8f54b4fad7043a6de45be8fde0b.html" target="_top" xlink:title="utility">
<polygon fill="white" stroke="black" points="156,-52 102,-52 102,-16 156,-16 156,-52"/>
<text text-anchor="middle" x="129" y="-31.5" font-family="Helvetica,sans-Serif" font-size="10.00">utility</text>
</a>
</g>
</g>
<!-- dir_df2ac868f0ee7bab118d8cc21a6c5a90&#45;&gt;dir_0619a8f54b4fad7043a6de45be8fde0b -->
<g id="edge2" class="edge">
<title>dir_df2ac868f0ee7bab118d8cc21a6c5a90&#45;&gt;dir_0619a8f54b4fad7043a6de45be8fde0b</title>
<path fill="none" stroke="black" d="M71.79,-87.7C81.17,-79.05 92.68,-68.45 102.91,-59.03"/>
<polygon fill="black" stroke="black" points="105.45,-61.45 110.43,-52.1 100.7,-56.3 105.45,-61.45"/>
<g id="a_edge2&#45;headlabel"><a xlink:href="dir_000007_000009.html" target="_top" xlink:title="1">
<text text-anchor="middle" x="104.72" y="-63.48" font-family="Helvetica,sans-Serif" font-size="10.00">1</text>
</a>
</g>
</g>
</g>
</svg>
