<?xml version="1.0" encoding="UTF-8" standalone="no"?>
<!DOCTYPE svg PUBLIC "-//W3C//DTD SVG 1.1//EN"
 "http://www.w3.org/Graphics/SVG/1.1/DTD/svg11.dtd">
<!-- Generated by graphviz version 2.43.0 (0)
 -->
<!-- Title: test Pages: 1 -->
<svg width="200pt" height="132pt"
 viewBox="0.00 0.00 200.00 132.00" xmlns="http://www.w3.org/2000/svg" xmlns:xlink="http://www.w3.org/1999/xlink">
<g id="graph0" class="graph" transform="scale(1 1) rotate(0) translate(4 128)">
<title>test</title>
<polygon fill="white" stroke="transparent" points="-4,4 -4,-128 196,-128 196,4 -4,4"/>
<g id="clust1" class="cluster">
<title>clusterdir_13e138d54eb8818da29c3992edef070a</title>
<g id="a_clust1"><a xlink:href="dir_13e138d54eb8818da29c3992edef070a.html" target="_top">
<polygon fill="#eeeeff" stroke="black" points="8,-64 8,-116 184,-116 184,-64 8,-64"/>
</a>
</g>
</g>
<!-- dir_13e138d54eb8818da29c3992edef070a -->
<g id="node1" class="node">
<title>dir_13e138d54eb8818da29c3992edef070a</title>
<text text-anchor="middle" x="149" y="-87.5" font-family="Helvetica,sans-Serif" font-size="10.00">test</text>
</g>
<!-- dir_77e117cece7151df9c6d49c95a4586a7 -->
<g id="node2" class="node">
<title>dir_77e117cece7151df9c6d49c95a4586a7</title>
<g id="a_node2"><a xlink:href="dir_77e117cece7151df9c6d49c95a4586a7.html" target="_top" xlink:title="data_structure">
<polygon fill="white" stroke="black" points="103.5,-108 16.5,-108 16.5,-72 103.5,-72 103.5,-108"/>
<text text-anchor="middle" x="60" y="-87.5" font-family="Helvetica,sans-Serif" font-size="10.00">data_structure</text>
</a>
</g>
</g>
<!-- dir_68267d1309a1af8e8297ef4c3efbcdba -->
<g id="node3" class="node">
<title>dir_68267d1309a1af8e8297ef4c3efbcdba</title>
<g id="a_node3"><a xlink:href="dir_68267d1309a1af8e8297ef4c3efbcdba.html" target="_top" xlink:title="src">
<polygon fill="white" stroke="red" points="87,-36 33,-36 33,0 87,0 87,-36"/>
<text text-anchor="middle" x="60" y="-15.5" font-family="Helvetica,sans-Serif" font-size="10.00">src</text>
</a>
</g>
</g>
<!-- dir_77e117cece7151df9c6d49c95a4586a7&#45;&gt;dir_68267d1309a1af8e8297ef4c3efbcdba -->
<g id="edge1" class="edge">
<title>dir_77e117cece7151df9c6d49c95a4586a7&#45;&gt;dir_68267d1309a1af8e8297ef4c3efbcdba</title>
<path fill="none" stroke="black" d="M60,-71.7C60,-63.98 60,-54.71 60,-46.11"/>
<polygon fill="black" stroke="black" points="63.5,-46.1 60,-36.1 56.5,-46.1 63.5,-46.1"/>
<g id="a_edge1&#45;headlabel"><a xlink:href="dir_000006_000002.html" target="_top" xlink:title="1">
<text text-anchor="middle" x="66.34" y="-47.2" font-family="Helvetica,sans-Serif" font-size="10.00">1</text>
</a>
</g>
</g>
</g>
</svg>
