<?xml version="1.0" encoding="UTF-8" standalone="no"?>
<!DOCTYPE svg PUBLIC "-//W3C//DTD SVG 1.1//EN"
 "http://www.w3.org/Graphics/SVG/1.1/DTD/svg11.dtd">
<!-- Generated by graphviz version 2.43.0 (0)
 -->
<!-- Title: src/application/user_interface/pannel Pages: 1 -->
<svg width="186pt" height="167pt"
 viewBox="0.00 0.00 185.50 167.00" xmlns="http://www.w3.org/2000/svg" xmlns:xlink="http://www.w3.org/1999/xlink">
<g id="graph0" class="graph" transform="scale(1 1) rotate(0) translate(4 163)">
<title>src/application/user_interface/pannel</title>
<polygon fill="white" stroke="transparent" points="-4,4 -4,-163 181.5,-163 181.5,4 -4,4"/>
<g id="clust1" class="cluster">
<title>clusterdir_52ce4215d6d698d6b81d139d7833adde</title>
<g id="a_clust1"><a xlink:href="dir_52ce4215d6d698d6b81d139d7833adde.html" target="_top" xlink:title="user_interface">
<polygon fill="#ddddee" stroke="black" points="8,-8 8,-151 94,-151 94,-8 8,-8"/>
<text text-anchor="middle" x="51" y="-139" font-family="Helvetica,sans-Serif" font-size="10.00">user_interface</text>
</a>
</g>
</g>
<!-- dir_1a064d756099d74d66a105483db157e1 -->
<g id="node1" class="node">
<title>dir_1a064d756099d74d66a105483db157e1</title>
<g id="a_node1"><a xlink:href="dir_1a064d756099d74d66a105483db157e1.html" target="_top" xlink:title="drawer">
<polygon fill="none" stroke="black" points="84,-52 30,-52 30,-16 84,-16 84,-52"/>
<text text-anchor="middle" x="57" y="-31.5" font-family="Helvetica,sans-Serif" font-size="10.00">drawer</text>
</a>
</g>
</g>
<!-- dir_f3d130717b4ed6bacbf81f5ce46586a9 -->
<g id="node2" class="node">
<title>dir_f3d130717b4ed6bacbf81f5ce46586a9</title>
<g id="a_node2"><a xlink:href="dir_f3d130717b4ed6bacbf81f5ce46586a9.html" target="_top" xlink:title="pannel">
<polygon fill="#eeeeff" stroke="black" points="85,-124 31,-124 31,-88 85,-88 85,-124"/>
<text text-anchor="middle" x="58" y="-103.5" font-family="Helvetica,sans-Serif" font-size="10.00">pannel</text>
</a>
</g>
</g>
<!-- dir_f3d130717b4ed6bacbf81f5ce46586a9&#45;&gt;dir_1a064d756099d74d66a105483db157e1 -->
<g id="edge1" class="edge">
<title>dir_f3d130717b4ed6bacbf81f5ce46586a9&#45;&gt;dir_1a064d756099d74d66a105483db157e1</title>
<path fill="none" stroke="black" d="M57.75,-87.7C57.64,-79.98 57.51,-70.71 57.39,-62.11"/>
<polygon fill="black" stroke="black" points="60.89,-62.05 57.24,-52.1 53.89,-62.15 60.89,-62.05"/>
<g id="a_edge1&#45;headlabel"><a xlink:href="dir_000006_000005.html" target="_top" xlink:title="1">
<text text-anchor="middle" x="63.78" y="-63.11" font-family="Helvetica,sans-Serif" font-size="10.00">1</text>
</a>
</g>
</g>
<!-- dir_df2ac868f0ee7bab118d8cc21a6c5a90 -->
<g id="node3" class="node">
<title>dir_df2ac868f0ee7bab118d8cc21a6c5a90</title>
<g id="a_node3"><a xlink:href="dir_df2ac868f0ee7bab118d8cc21a6c5a90.html" target="_top" xlink:title="data_reader">
<polygon fill="none" stroke="black" points="177.5,-52 102.5,-52 102.5,-16 177.5,-16 177.5,-52"/>
<text text-anchor="middle" x="140" y="-31.5" font-family="Helvetica,sans-Serif" font-size="10.00">data_reader</text>
</a>
</g>
</g>
<!-- dir_f3d130717b4ed6bacbf81f5ce46586a9&#45;&gt;dir_df2ac868f0ee7bab118d8cc21a6c5a90 -->
<g id="edge2" class="edge">
<title>dir_f3d130717b4ed6bacbf81f5ce46586a9&#45;&gt;dir_df2ac868f0ee7bab118d8cc21a6c5a90</title>
<path fill="none" stroke="black" d="M78.27,-87.7C88.5,-78.97 101.06,-68.24 112.18,-58.75"/>
<polygon fill="black" stroke="black" points="114.63,-61.26 119.96,-52.1 110.09,-55.94 114.63,-61.26"/>
<g id="a_edge2&#45;headlabel"><a xlink:href="dir_000006_000007.html" target="_top" xlink:title="1">
<text text-anchor="middle" x="113.74" y="-63.25" font-family="Helvetica,sans-Serif" font-size="10.00">1</text>
</a>
</g>
</g>
</g>
</svg>
