<?xml version="1.0" encoding="UTF-8" standalone="no"?>
<!DOCTYPE svg PUBLIC "-//W3C//DTD SVG 1.1//EN"
 "http://www.w3.org/Graphics/SVG/1.1/DTD/svg11.dtd">
<!-- Generated by graphviz version 2.43.0 (0)
 -->
<!-- Title: src Pages: 1 -->
<svg width="200pt" height="220pt"
 viewBox="0.00 0.00 200.00 220.00" xmlns="http://www.w3.org/2000/svg" xmlns:xlink="http://www.w3.org/1999/xlink">
<g id="graph0" class="graph" transform="scale(1 1) rotate(0) translate(4 216)">
<title>src</title>
<polygon fill="white" stroke="transparent" points="-4,4 -4,-216 196,-216 196,4 -4,4"/>
<g id="clust1" class="cluster">
<title>clusterdir_68267d1309a1af8e8297ef4c3efbcdba</title>
<g id="a_clust1"><a xlink:href="dir_68267d1309a1af8e8297ef4c3efbcdba.html" target="_top">
<polygon fill="#eeeeff" stroke="black" points="8,-8 8,-204 184,-204 184,-8 8,-8"/>
</a>
</g>
</g>
<!-- dir_68267d1309a1af8e8297ef4c3efbcdba -->
<g id="node1" class="node">
<title>dir_68267d1309a1af8e8297ef4c3efbcdba</title>
<text text-anchor="middle" x="149" y="-175.5" font-family="Helvetica,sans-Serif" font-size="10.00">src</text>
</g>
<!-- dir_3ff33c31d85f61b3fc6158eec2750235 -->
<g id="node3" class="node">
<title>dir_3ff33c31d85f61b3fc6158eec2750235</title>
<g id="a_node3"><a xlink:href="dir_3ff33c31d85f61b3fc6158eec2750235.html" target="_top" xlink:title="user_interface">
<polygon fill="white" stroke="black" points="143,-124 57,-124 57,-88 143,-88 143,-124"/>
<text text-anchor="middle" x="100" y="-103.5" font-family="Helvetica,sans-Serif" font-size="10.00">user_interface</text>
</a>
</g>
</g>
<!-- dir_68267d1309a1af8e8297ef4c3efbcdba&#45;&gt;dir_3ff33c31d85f61b3fc6158eec2750235 -->
<g id="edge2" class="edge">
<title>dir_68267d1309a1af8e8297ef4c3efbcdba&#45;&gt;dir_3ff33c31d85f61b3fc6158eec2750235</title>
<path fill="none" stroke="black" d="M136.89,-159.7C131.13,-151.47 124.14,-141.48 117.79,-132.42"/>
<polygon fill="black" stroke="black" points="120.58,-130.29 111.97,-124.1 114.84,-134.3 120.58,-130.29"/>
<g id="a_edge2&#45;headlabel"><a xlink:href="dir_000002_000004.html" target="_top" xlink:title="5">
<text text-anchor="middle" x="124.96" y="-129.11" font-family="Helvetica,sans-Serif" font-size="10.00">5</text>
</a>
</g>
</g>
<!-- dir_313caf1132e152dd9b58bea13a4052ca -->
<g id="node4" class="node">
<title>dir_313caf1132e152dd9b58bea13a4052ca</title>
<g id="a_node4"><a xlink:href="dir_313caf1132e152dd9b58bea13a4052ca.html" target="_top" xlink:title="utils">
<polygon fill="white" stroke="black" points="158,-52 104,-52 104,-16 158,-16 158,-52"/>
<text text-anchor="middle" x="131" y="-31.5" font-family="Helvetica,sans-Serif" font-size="10.00">utils</text>
</a>
</g>
</g>
<!-- dir_68267d1309a1af8e8297ef4c3efbcdba&#45;&gt;dir_313caf1132e152dd9b58bea13a4052ca -->
<g id="edge1" class="edge">
<title>dir_68267d1309a1af8e8297ef4c3efbcdba&#45;&gt;dir_313caf1132e152dd9b58bea13a4052ca</title>
<path fill="none" stroke="black" d="M151.82,-159.76C154.25,-141.71 156.7,-112.6 152,-88 150.29,-79.06 147.1,-69.7 143.71,-61.37"/>
<polygon fill="black" stroke="black" points="146.91,-59.95 139.72,-52.17 140.49,-62.73 146.91,-59.95"/>
<g id="a_edge1&#45;headlabel"><a xlink:href="dir_000002_000005.html" target="_top" xlink:title="13">
<text text-anchor="middle" x="150.94" y="-59.62" font-family="Helvetica,sans-Serif" font-size="10.00">13</text>
</a>
</g>
</g>
<!-- dir_981422f615e1f86fc178e6fbecda1da3 -->
<g id="node2" class="node">
<title>dir_981422f615e1f86fc178e6fbecda1da3</title>
<g id="a_node2"><a xlink:href="dir_981422f615e1f86fc178e6fbecda1da3.html" target="_top" xlink:title="data_structure">
<polygon fill="white" stroke="black" points="103.5,-196 16.5,-196 16.5,-160 103.5,-160 103.5,-196"/>
<text text-anchor="middle" x="60" y="-175.5" font-family="Helvetica,sans-Serif" font-size="10.00">data_structure</text>
</a>
</g>
</g>
<!-- dir_3ff33c31d85f61b3fc6158eec2750235&#45;&gt;dir_313caf1132e152dd9b58bea13a4052ca -->
<g id="edge3" class="edge">
<title>dir_3ff33c31d85f61b3fc6158eec2750235&#45;&gt;dir_313caf1132e152dd9b58bea13a4052ca</title>
<path fill="none" stroke="black" d="M107.66,-87.7C111.19,-79.73 115.46,-70.1 119.37,-61.26"/>
<polygon fill="black" stroke="black" points="122.58,-62.67 123.43,-52.1 116.18,-59.83 122.58,-62.67"/>
<g id="a_edge3&#45;headlabel"><a xlink:href="dir_000004_000005.html" target="_top" xlink:title="11">
<text text-anchor="middle" x="123.72" y="-64.6" font-family="Helvetica,sans-Serif" font-size="10.00">11</text>
</a>
</g>
</g>
</g>
</svg>
