<?xml version="1.0" encoding="UTF-8" standalone="no"?>
<!DOCTYPE svg PUBLIC "-//W3C//DTD SVG 1.1//EN"
 "http://www.w3.org/Graphics/SVG/1.1/DTD/svg11.dtd">
<!-- Generated by graphviz version 2.43.0 (0)
 -->
<!-- Title: src/data_reader Pages: 1 -->
<svg width="178pt" height="167pt"
 viewBox="0.00 0.00 178.00 167.00" xmlns="http://www.w3.org/2000/svg" xmlns:xlink="http://www.w3.org/1999/xlink">
<g id="graph0" class="graph" transform="scale(1 1) rotate(0) translate(4 163)">
<title>src/data_reader</title>
<polygon fill="white" stroke="transparent" points="-4,4 -4,-163 174,-163 174,4 -4,4"/>
<g id="clust1" class="cluster">
<title>clusterdir_68267d1309a1af8e8297ef4c3efbcdba</title>
<g id="a_clust1"><a xlink:href="dir_68267d1309a1af8e8297ef4c3efbcdba.html" target="_top" xlink:title="src">
<polygon fill="#ddddee" stroke="black" points="8,-8 8,-151 162,-151 162,-8 8,-8"/>
<text text-anchor="middle" x="85" y="-139" font-family="Helvetica,sans-Serif" font-size="10.00">src</text>
</a>
</g>
</g>
<!-- dir_0619a8f54b4fad7043a6de45be8fde0b -->
<g id="node1" class="node">
<title>dir_0619a8f54b4fad7043a6de45be8fde0b</title>
<g id="a_node1"><a xlink:href="dir_0619a8f54b4fad7043a6de45be8fde0b.html" target="_top" xlink:title="utility">
<polygon fill="none" stroke="black" points="70,-52 16,-52 16,-16 70,-16 70,-52"/>
<text text-anchor="middle" x="43" y="-31.5" font-family="Helvetica,sans-Serif" font-size="10.00">utility</text>
</a>
</g>
</g>
<!-- dir_28d8fdaad462b0c368e1ad9ffb215319 -->
<g id="node2" class="node">
<title>dir_28d8fdaad462b0c368e1ad9ffb215319</title>
<g id="a_node2"><a xlink:href="dir_28d8fdaad462b0c368e1ad9ffb215319.html" target="_top" xlink:title="data_type">
<polygon fill="none" stroke="black" points="153.5,-52 88.5,-52 88.5,-16 153.5,-16 153.5,-52"/>
<text text-anchor="middle" x="121" y="-31.5" font-family="Helvetica,sans-Serif" font-size="10.00">data_type</text>
</a>
</g>
</g>
<!-- dir_df2ac868f0ee7bab118d8cc21a6c5a90 -->
<g id="node3" class="node">
<title>dir_df2ac868f0ee7bab118d8cc21a6c5a90</title>
<g id="a_node3"><a xlink:href="dir_df2ac868f0ee7bab118d8cc21a6c5a90.html" target="_top" xlink:title="data_reader">
<polygon fill="#eeeeff" stroke="black" points="122.5,-124 47.5,-124 47.5,-88 122.5,-88 122.5,-124"/>
<text text-anchor="middle" x="85" y="-103.5" font-family="Helvetica,sans-Serif" font-size="10.00">data_reader</text>
</a>
</g>
</g>
<!-- dir_df2ac868f0ee7bab118d8cc21a6c5a90&#45;&gt;dir_0619a8f54b4fad7043a6de45be8fde0b -->
<g id="edge1" class="edge">
<title>dir_df2ac868f0ee7bab118d8cc21a6c5a90&#45;&gt;dir_0619a8f54b4fad7043a6de45be8fde0b</title>
<path fill="none" stroke="black" d="M74.62,-87.7C69.74,-79.56 63.81,-69.69 58.42,-60.7"/>
<polygon fill="black" stroke="black" points="61.41,-58.88 53.26,-52.1 55.41,-62.48 61.41,-58.88"/>
<g id="a_edge1&#45;headlabel"><a xlink:href="dir_000007_000009.html" target="_top" xlink:title="1">
<text text-anchor="middle" x="65.69" y="-58" font-family="Helvetica,sans-Serif" font-size="10.00">1</text>
</a>
</g>
</g>
<!-- dir_df2ac868f0ee7bab118d8cc21a6c5a90&#45;&gt;dir_28d8fdaad462b0c368e1ad9ffb215319 -->
<g id="edge2" class="edge">
<title>dir_df2ac868f0ee7bab118d8cc21a6c5a90&#45;&gt;dir_28d8fdaad462b0c368e1ad9ffb215319</title>
<path fill="none" stroke="black" d="M93.9,-87.7C98,-79.73 102.95,-70.1 107.49,-61.26"/>
<polygon fill="black" stroke="black" points="110.74,-62.6 112.2,-52.1 104.52,-59.4 110.74,-62.6"/>
<g id="a_edge2&#45;headlabel"><a xlink:href="dir_000007_000008.html" target="_top" xlink:title="1">
<text text-anchor="middle" x="111.62" y="-64.59" font-family="Helvetica,sans-Serif" font-size="10.00">1</text>
</a>
</g>
</g>
</g>
</svg>
