<?xml version="1.0" encoding="UTF-8" standalone="no"?>
<!DOCTYPE svg PUBLIC "-//W3C//DTD SVG 1.1//EN"
 "http://www.w3.org/Graphics/SVG/1.1/DTD/svg11.dtd">
<!-- Generated by graphviz version 2.43.0 (0)
 -->
<!-- Title: src/data_structure/frame.cpp Pages: 1 -->
<svg width="247pt" height="196pt"
 viewBox="0.00 0.00 246.50 196.00" xmlns="http://www.w3.org/2000/svg" xmlns:xlink="http://www.w3.org/1999/xlink">
<g id="graph0" class="graph" transform="scale(1 1) rotate(0) translate(4 192)">
<title>src/data_structure/frame.cpp</title>
<polygon fill="white" stroke="transparent" points="-4,4 -4,-192 242.5,-192 242.5,4 -4,4"/>
<!-- Node1 -->
<g id="node1" class="node">
<title>Node1</title>
<g id="a_node1"><a xlink:title=" ">
<polygon fill="#bfbfbf" stroke="black" points="0,-168.5 0,-187.5 157,-187.5 157,-168.5 0,-168.5"/>
<text text-anchor="middle" x="78.5" y="-175.5" font-family="Helvetica,sans-Serif" font-size="10.00">src/data_structure/frame.cpp</text>
</a>
</g>
</g>
<!-- Node2 -->
<g id="node2" class="node">
<title>Node2</title>
<g id="a_node2"><a xlink:href="frame_8h.html" target="_top" xlink:title=" ">
<polygon fill="white" stroke="black" points="5.5,-112.5 5.5,-131.5 151.5,-131.5 151.5,-112.5 5.5,-112.5"/>
<text text-anchor="middle" x="78.5" y="-119.5" font-family="Helvetica,sans-Serif" font-size="10.00">src/data_structure/frame.h</text>
</a>
</g>
</g>
<!-- Node1&#45;&gt;Node2 -->
<g id="edge1" class="edge">
<title>Node1&#45;&gt;Node2</title>
<path fill="none" stroke="midnightblue" d="M78.5,-168.08C78.5,-161.01 78.5,-150.86 78.5,-141.99"/>
<polygon fill="midnightblue" stroke="midnightblue" points="82,-141.75 78.5,-131.75 75,-141.75 82,-141.75"/>
</g>
<!-- Node3 -->
<g id="node3" class="node">
<title>Node3</title>
<g id="a_node3"><a xlink:title=" ">
<polygon fill="white" stroke="#bfbfbf" points="15,-0.5 15,-19.5 62,-19.5 62,-0.5 15,-0.5"/>
<text text-anchor="middle" x="38.5" y="-7.5" font-family="Helvetica,sans-Serif" font-size="10.00">vector</text>
</a>
</g>
</g>
<!-- Node2&#45;&gt;Node3 -->
<g id="edge2" class="edge">
<title>Node2&#45;&gt;Node3</title>
<path fill="none" stroke="midnightblue" d="M70.73,-112.41C63.46,-103.84 52.93,-89.97 47.5,-76 41.76,-61.22 39.6,-43.29 38.83,-30.01"/>
<polygon fill="midnightblue" stroke="midnightblue" points="42.31,-29.59 38.45,-19.73 35.32,-29.85 42.31,-29.59"/>
</g>
<!-- Node4 -->
<g id="node4" class="node">
<title>Node4</title>
<g id="a_node4"><a xlink:href="shape_8h.html" target="_top" xlink:title=" ">
<polygon fill="white" stroke="black" points="56.5,-56.5 56.5,-75.5 202.5,-75.5 202.5,-56.5 56.5,-56.5"/>
<text text-anchor="middle" x="129.5" y="-63.5" font-family="Helvetica,sans-Serif" font-size="10.00">src/data_structure/shape.h</text>
</a>
</g>
</g>
<!-- Node2&#45;&gt;Node4 -->
<g id="edge3" class="edge">
<title>Node2&#45;&gt;Node4</title>
<path fill="none" stroke="midnightblue" d="M86.92,-112.08C94.35,-104.22 105.35,-92.57 114.31,-83.08"/>
<polygon fill="midnightblue" stroke="midnightblue" points="116.91,-85.42 121.24,-75.75 111.82,-80.62 116.91,-85.42"/>
</g>
<!-- Node4&#45;&gt;Node3 -->
<g id="edge6" class="edge">
<title>Node4&#45;&gt;Node3</title>
<path fill="none" stroke="midnightblue" d="M114.88,-56.32C100.55,-47.82 78.49,-34.73 61.75,-24.8"/>
<polygon fill="midnightblue" stroke="midnightblue" points="63.47,-21.75 53.08,-19.65 59.9,-27.77 63.47,-21.75"/>
</g>
<!-- Node5 -->
<g id="node5" class="node">
<title>Node5</title>
<g id="a_node5"><a xlink:title=" ">
<polygon fill="white" stroke="#bfbfbf" points="85,-0.5 85,-19.5 162,-19.5 162,-0.5 85,-0.5"/>
<text text-anchor="middle" x="123.5" y="-7.5" font-family="Helvetica,sans-Serif" font-size="10.00">Eigen/Dense</text>
</a>
</g>
</g>
<!-- Node4&#45;&gt;Node5 -->
<g id="edge4" class="edge">
<title>Node4&#45;&gt;Node5</title>
<path fill="none" stroke="midnightblue" d="M128.51,-56.08C127.71,-48.93 126.57,-38.64 125.58,-29.69"/>
<polygon fill="midnightblue" stroke="midnightblue" points="129.06,-29.3 124.47,-19.75 122.1,-30.08 129.06,-29.3"/>
</g>
<!-- Node6 -->
<g id="node6" class="node">
<title>Node6</title>
<g id="a_node6"><a xlink:title=" ">
<polygon fill="white" stroke="#bfbfbf" points="180.5,-0.5 180.5,-19.5 238.5,-19.5 238.5,-0.5 180.5,-0.5"/>
<text text-anchor="middle" x="209.5" y="-7.5" font-family="Helvetica,sans-Serif" font-size="10.00">memory</text>
</a>
</g>
</g>
<!-- Node4&#45;&gt;Node6 -->
<g id="edge5" class="edge">
<title>Node4&#45;&gt;Node6</title>
<path fill="none" stroke="midnightblue" d="M142.35,-56.32C154.72,-47.98 173.63,-35.21 188.24,-25.35"/>
<polygon fill="midnightblue" stroke="midnightblue" points="190.35,-28.15 196.68,-19.65 186.43,-22.35 190.35,-28.15"/>
</g>
</g>
</svg>
