<?xml version="1.0" encoding="UTF-8" standalone="no"?>
<!DOCTYPE svg PUBLIC "-//W3C//DTD SVG 1.1//EN"
 "http://www.w3.org/Graphics/SVG/1.1/DTD/svg11.dtd">
<!-- Generated by graphviz version 2.43.0 (0)
 -->
<!-- Title: src/data_structure/frame.h Pages: 1 -->
<svg width="241pt" height="140pt"
 viewBox="0.00 0.00 241.00 140.00" xmlns="http://www.w3.org/2000/svg" xmlns:xlink="http://www.w3.org/1999/xlink">
<g id="graph0" class="graph" transform="scale(1 1) rotate(0) translate(4 136)">
<title>src/data_structure/frame.h</title>
<polygon fill="white" stroke="transparent" points="-4,4 -4,-136 237,-136 237,4 -4,4"/>
<!-- Node1 -->
<g id="node1" class="node">
<title>Node1</title>
<g id="a_node1"><a xlink:title=" ">
<polygon fill="#bfbfbf" stroke="black" points="0,-112.5 0,-131.5 146,-131.5 146,-112.5 0,-112.5"/>
<text text-anchor="middle" x="73" y="-119.5" font-family="Helvetica,sans-Serif" font-size="10.00">src/data_structure/frame.h</text>
</a>
</g>
</g>
<!-- Node2 -->
<g id="node2" class="node">
<title>Node2</title>
<g id="a_node2"><a xlink:title=" ">
<polygon fill="white" stroke="#bfbfbf" points="9.5,-0.5 9.5,-19.5 56.5,-19.5 56.5,-0.5 9.5,-0.5"/>
<text text-anchor="middle" x="33" y="-7.5" font-family="Helvetica,sans-Serif" font-size="10.00">vector</text>
</a>
</g>
</g>
<!-- Node1&#45;&gt;Node2 -->
<g id="edge1" class="edge">
<title>Node1&#45;&gt;Node2</title>
<path fill="none" stroke="midnightblue" d="M65.23,-112.41C57.96,-103.84 47.43,-89.97 42,-76 36.26,-61.22 34.1,-43.29 33.33,-30.01"/>
<polygon fill="midnightblue" stroke="midnightblue" points="36.81,-29.59 32.95,-19.73 29.82,-29.85 36.81,-29.59"/>
</g>
<!-- Node3 -->
<g id="node3" class="node">
<title>Node3</title>
<g id="a_node3"><a xlink:href="shape_8h.html" target="_top" xlink:title=" ">
<polygon fill="white" stroke="black" points="51,-56.5 51,-75.5 197,-75.5 197,-56.5 51,-56.5"/>
<text text-anchor="middle" x="124" y="-63.5" font-family="Helvetica,sans-Serif" font-size="10.00">src/data_structure/shape.h</text>
</a>
</g>
</g>
<!-- Node1&#45;&gt;Node3 -->
<g id="edge2" class="edge">
<title>Node1&#45;&gt;Node3</title>
<path fill="none" stroke="midnightblue" d="M81.42,-112.08C88.85,-104.22 99.85,-92.57 108.81,-83.08"/>
<polygon fill="midnightblue" stroke="midnightblue" points="111.41,-85.42 115.74,-75.75 106.32,-80.62 111.41,-85.42"/>
</g>
<!-- Node3&#45;&gt;Node2 -->
<g id="edge5" class="edge">
<title>Node3&#45;&gt;Node2</title>
<path fill="none" stroke="midnightblue" d="M109.38,-56.32C95.05,-47.82 72.99,-34.73 56.25,-24.8"/>
<polygon fill="midnightblue" stroke="midnightblue" points="57.97,-21.75 47.58,-19.65 54.4,-27.77 57.97,-21.75"/>
</g>
<!-- Node4 -->
<g id="node4" class="node">
<title>Node4</title>
<g id="a_node4"><a xlink:title=" ">
<polygon fill="white" stroke="#bfbfbf" points="79.5,-0.5 79.5,-19.5 156.5,-19.5 156.5,-0.5 79.5,-0.5"/>
<text text-anchor="middle" x="118" y="-7.5" font-family="Helvetica,sans-Serif" font-size="10.00">Eigen/Dense</text>
</a>
</g>
</g>
<!-- Node3&#45;&gt;Node4 -->
<g id="edge3" class="edge">
<title>Node3&#45;&gt;Node4</title>
<path fill="none" stroke="midnightblue" d="M123.01,-56.08C122.21,-48.93 121.07,-38.64 120.08,-29.69"/>
<polygon fill="midnightblue" stroke="midnightblue" points="123.56,-29.3 118.97,-19.75 116.6,-30.08 123.56,-29.3"/>
</g>
<!-- Node5 -->
<g id="node5" class="node">
<title>Node5</title>
<g id="a_node5"><a xlink:title=" ">
<polygon fill="white" stroke="#bfbfbf" points="175,-0.5 175,-19.5 233,-19.5 233,-0.5 175,-0.5"/>
<text text-anchor="middle" x="204" y="-7.5" font-family="Helvetica,sans-Serif" font-size="10.00">memory</text>
</a>
</g>
</g>
<!-- Node3&#45;&gt;Node5 -->
<g id="edge4" class="edge">
<title>Node3&#45;&gt;Node5</title>
<path fill="none" stroke="midnightblue" d="M136.85,-56.32C149.22,-47.98 168.13,-35.21 182.74,-25.35"/>
<polygon fill="midnightblue" stroke="midnightblue" points="184.85,-28.15 191.18,-19.65 180.93,-22.35 184.85,-28.15"/>
</g>
</g>
</svg>
