<?xml version="1.0" encoding="UTF-8" standalone="no"?>
<!DOCTYPE svg PUBLIC "-//W3C//DTD SVG 1.1//EN"
 "http://www.w3.org/Graphics/SVG/1.1/DTD/svg11.dtd">
<!-- Generated by graphviz version 2.43.0 (0)
 -->
<!-- Title: src/data_structure/frame.h Pages: 1 -->
<svg width="625pt" height="252pt"
 viewBox="0.00 0.00 625.14 252.00" xmlns="http://www.w3.org/2000/svg" xmlns:xlink="http://www.w3.org/1999/xlink">
<g id="graph0" class="graph" transform="scale(1 1) rotate(0) translate(4 248)">
<title>src/data_structure/frame.h</title>
<polygon fill="white" stroke="transparent" points="-4,4 -4,-248 621.14,-248 621.14,4 -4,4"/>
<!-- Node1 -->
<g id="node1" class="node">
<title>Node1</title>
<g id="a_node1"><a xlink:title=" ">
<polygon fill="#bfbfbf" stroke="black" points="133.64,-224.5 133.64,-243.5 279.64,-243.5 279.64,-224.5 133.64,-224.5"/>
<text text-anchor="middle" x="206.64" y="-231.5" font-family="Helvetica,sans-Serif" font-size="10.00">src/data_structure/frame.h</text>
</a>
</g>
</g>
<!-- Node2 -->
<g id="node2" class="node">
<title>Node2</title>
<g id="a_node2"><a xlink:href="application_8cpp.html" target="_top" xlink:title=" ">
<polygon fill="white" stroke="black" points="76.64,-0.5 76.64,-19.5 184.64,-19.5 184.64,-0.5 76.64,-0.5"/>
<text text-anchor="middle" x="130.64" y="-7.5" font-family="Helvetica,sans-Serif" font-size="10.00">src/application.cpp</text>
</a>
</g>
</g>
<!-- Node1&#45;&gt;Node2 -->
<g id="edge1" class="edge">
<title>Node1&#45;&gt;Node2</title>
<path fill="none" stroke="midnightblue" d="M123.51,-224.03C77.48,-217.16 26.77,-205.78 12.64,-188 -35.95,-126.84 76.29,-45.93 116.78,-19.64"/>
<polygon fill="midnightblue" stroke="midnightblue" points="123.15,-227.51 133.55,-225.47 124.14,-220.59 123.15,-227.51"/>
</g>
<!-- Node3 -->
<g id="node3" class="node">
<title>Node3</title>
<g id="a_node3"><a xlink:href="application_8h.html" target="_top" xlink:title=" ">
<polygon fill="white" stroke="black" points="82.14,-56.5 82.14,-75.5 179.14,-75.5 179.14,-56.5 82.14,-56.5"/>
<text text-anchor="middle" x="130.64" y="-63.5" font-family="Helvetica,sans-Serif" font-size="10.00">src/application.h</text>
</a>
</g>
</g>
<!-- Node1&#45;&gt;Node3 -->
<g id="edge2" class="edge">
<title>Node1&#45;&gt;Node3</title>
<path fill="none" stroke="midnightblue" d="M125.49,-222.84C83.14,-215.69 37.5,-204.43 24.64,-188 -9.79,-144.02 74.27,-94.91 112.7,-75.52"/>
<polygon fill="midnightblue" stroke="midnightblue" points="125.16,-226.33 135.59,-224.48 126.28,-219.42 125.16,-226.33"/>
</g>
<!-- Node4 -->
<g id="node4" class="node">
<title>Node4</title>
<g id="a_node4"><a xlink:href="frame_8cpp.html" target="_top" xlink:title=" ">
<polygon fill="white" stroke="black" points="34.14,-168.5 34.14,-187.5 191.14,-187.5 191.14,-168.5 34.14,-168.5"/>
<text text-anchor="middle" x="112.64" y="-175.5" font-family="Helvetica,sans-Serif" font-size="10.00">src/data_structure/frame.cpp</text>
</a>
</g>
</g>
<!-- Node1&#45;&gt;Node4 -->
<g id="edge4" class="edge">
<title>Node1&#45;&gt;Node4</title>
<path fill="none" stroke="midnightblue" d="M182.58,-219.18C165.28,-209.24 142.49,-196.15 127.71,-187.65"/>
<polygon fill="midnightblue" stroke="midnightblue" points="181.12,-222.38 191.54,-224.32 184.61,-216.31 181.12,-222.38"/>
</g>
<!-- Node5 -->
<g id="node5" class="node">
<title>Node5</title>
<g id="a_node5"><a xlink:href="shape__drawer_8h.html" target="_top" xlink:title=" ">
<polygon fill="white" stroke="black" points="209.14,-168.5 209.14,-187.5 392.14,-187.5 392.14,-168.5 209.14,-168.5"/>
<text text-anchor="middle" x="300.64" y="-175.5" font-family="Helvetica,sans-Serif" font-size="10.00">src/user_interface/shape_drawer.h</text>
</a>
</g>
</g>
<!-- Node1&#45;&gt;Node5 -->
<g id="edge5" class="edge">
<title>Node1&#45;&gt;Node5</title>
<path fill="none" stroke="midnightblue" d="M230.7,-219.18C248,-209.24 270.79,-196.15 285.57,-187.65"/>
<polygon fill="midnightblue" stroke="midnightblue" points="228.67,-216.31 221.74,-224.32 232.16,-222.38 228.67,-216.31"/>
</g>
<!-- Node6 -->
<g id="node6" class="node">
<title>Node6</title>
<g id="a_node6"><a xlink:href="top__viewer_8cpp.html" target="_top" xlink:title=" ">
<polygon fill="white" stroke="black" points="277.64,-112.5 277.64,-131.5 457.64,-131.5 457.64,-112.5 277.64,-112.5"/>
<text text-anchor="middle" x="367.64" y="-119.5" font-family="Helvetica,sans-Serif" font-size="10.00">src/user_interface/top_viewer.cpp</text>
</a>
</g>
</g>
<!-- Node1&#45;&gt;Node6 -->
<g id="edge6" class="edge">
<title>Node1&#45;&gt;Node6</title>
<path fill="none" stroke="midnightblue" d="M289.77,-224.03C335.8,-217.16 386.51,-205.78 400.64,-188 414.97,-169.97 392.24,-144.72 377.91,-131.63"/>
<polygon fill="midnightblue" stroke="midnightblue" points="289.14,-220.59 279.73,-225.47 290.13,-227.51 289.14,-220.59"/>
</g>
<!-- Node7 -->
<g id="node7" class="node">
<title>Node7</title>
<g id="a_node7"><a xlink:href="top__viewer_8h.html" target="_top" xlink:title=" ">
<polygon fill="white" stroke="black" points="448.14,-168.5 448.14,-187.5 617.14,-187.5 617.14,-168.5 448.14,-168.5"/>
<text text-anchor="middle" x="532.64" y="-175.5" font-family="Helvetica,sans-Serif" font-size="10.00">src/user_interface/top_viewer.h</text>
</a>
</g>
</g>
<!-- Node1&#45;&gt;Node7 -->
<g id="edge7" class="edge">
<title>Node1&#45;&gt;Node7</title>
<path fill="none" stroke="midnightblue" d="M268.27,-222.79C329.87,-212.59 423.5,-197.08 481.23,-187.52"/>
<polygon fill="midnightblue" stroke="midnightblue" points="267.59,-219.36 258.3,-224.44 268.73,-226.26 267.59,-219.36"/>
</g>
<!-- Node3&#45;&gt;Node2 -->
<g id="edge3" class="edge">
<title>Node3&#45;&gt;Node2</title>
<path fill="none" stroke="midnightblue" d="M130.64,-45.8C130.64,-36.91 130.64,-26.78 130.64,-19.75"/>
<polygon fill="midnightblue" stroke="midnightblue" points="127.14,-46.08 130.64,-56.08 134.14,-46.08 127.14,-46.08"/>
</g>
<!-- Node7&#45;&gt;Node6 -->
<g id="edge8" class="edge">
<title>Node7&#45;&gt;Node6</title>
<path fill="none" stroke="midnightblue" d="M496.9,-165.3C465.81,-155.13 421.49,-140.62 393.66,-131.52"/>
<polygon fill="midnightblue" stroke="midnightblue" points="495.9,-168.66 506.5,-168.44 498.08,-162.01 495.9,-168.66"/>
</g>
<!-- Node8 -->
<g id="node8" class="node">
<title>Node8</title>
<g id="a_node8"><a xlink:href="user__interface_8h.html" target="_top" xlink:title=" ">
<polygon fill="white" stroke="black" points="476.14,-112.5 476.14,-131.5 589.14,-131.5 589.14,-112.5 476.14,-112.5"/>
<text text-anchor="middle" x="532.64" y="-119.5" font-family="Helvetica,sans-Serif" font-size="10.00">src/user_interface.h</text>
</a>
</g>
</g>
<!-- Node7&#45;&gt;Node8 -->
<g id="edge9" class="edge">
<title>Node7&#45;&gt;Node8</title>
<path fill="none" stroke="midnightblue" d="M532.64,-157.8C532.64,-148.91 532.64,-138.78 532.64,-131.75"/>
<polygon fill="midnightblue" stroke="midnightblue" points="529.14,-158.08 532.64,-168.08 536.14,-158.08 529.14,-158.08"/>
</g>
<!-- Node8&#45;&gt;Node2 -->
<g id="edge11" class="edge">
<title>Node8&#45;&gt;Node2</title>
<path fill="none" stroke="midnightblue" d="M491.64,-109.78C411.08,-87.74 233.72,-39.21 161.83,-19.53"/>
<polygon fill="midnightblue" stroke="midnightblue" points="490.86,-113.2 501.43,-112.46 492.71,-106.44 490.86,-113.2"/>
</g>
<!-- Node8&#45;&gt;Node3 -->
<g id="edge12" class="edge">
<title>Node8&#45;&gt;Node3</title>
<path fill="none" stroke="midnightblue" d="M465.95,-111.91C357.23,-97.22 242.72,-81.93 179.33,-73.48"/>
<polygon fill="midnightblue" stroke="midnightblue" points="465.74,-115.41 476.12,-113.28 466.67,-108.48 465.74,-115.41"/>
</g>
<!-- Node9 -->
<g id="node9" class="node">
<title>Node9</title>
<g id="a_node9"><a xlink:href="app_2main_8cpp.html" target="_top" xlink:title=" ">
<polygon fill="white" stroke="black" points="491.14,-56.5 491.14,-75.5 574.14,-75.5 574.14,-56.5 491.14,-56.5"/>
<text text-anchor="middle" x="532.64" y="-63.5" font-family="Helvetica,sans-Serif" font-size="10.00">app/main.cpp</text>
</a>
</g>
</g>
<!-- Node8&#45;&gt;Node9 -->
<g id="edge10" class="edge">
<title>Node8&#45;&gt;Node9</title>
<path fill="none" stroke="midnightblue" d="M532.64,-101.8C532.64,-92.91 532.64,-82.78 532.64,-75.75"/>
<polygon fill="midnightblue" stroke="midnightblue" points="529.14,-102.08 532.64,-112.08 536.14,-102.08 529.14,-102.08"/>
</g>
</g>
</svg>
