<?xml version="1.0" encoding="UTF-8" standalone="no"?>
<!DOCTYPE svg PUBLIC "-//W3C//DTD SVG 1.1//EN"
 "http://www.w3.org/Graphics/SVG/1.1/DTD/svg11.dtd">
<!-- Generated by graphviz version 2.43.0 (0)
 -->
<!-- Title: src/user_interface/image_viewer.cpp Pages: 1 -->
<!--zoomable 252 -->
<svg id="main" version="1.1" xmlns="http://www.w3.org/2000/svg" xmlns:xlink="http://www.w3.org/1999/xlink" xml:space="preserve" onload="init(evt)">
<style type="text/css"><![CDATA[
.edge:hover path { stroke: red; }
.edge:hover polygon { stroke: red; fill: red; }
]]></style>
<script type="text/javascript"><![CDATA[
var edges = document.getElementsByTagName('g');
if (edges && edges.length) {
  for (var i=0;i<edges.length;i++) {
    if (edges[i].id.substr(0,4)=='edge') {
      edges[i].setAttribute('class','edge');
    }
  }
}
]]></script>
        <defs>
                <circle id="rim" cx="0" cy="0" r="7"/>
                <circle id="rim2" cx="0" cy="0" r="3.5"/>
                <g id="zoomPlus">
                        <use xlink:href="#rim" fill="#404040">
                                <set attributeName="fill" to="#808080" begin="zoomplus.mouseover" end="zoomplus.mouseout"/>
                        </use>
                        <path d="M-4,0h8M0,-4v8" fill="none" stroke="white" stroke-width="1.5" pointer-events="none"/>
                </g>
                <g id="zoomMin">
                        <use xlink:href="#rim" fill="#404040">
                                <set attributeName="fill" to="#808080" begin="zoomminus.mouseover" end="zoomminus.mouseout"/>
                        </use>
                        <path d="M-4,0h8" fill="none" stroke="white" stroke-width="1.5" pointer-events="none"/>
                </g>
                <g id="dirArrow">
                        <path fill="none" stroke="white" stroke-width="1.5" d="M0,-3.0v7 M-2.5,-0.5L0,-3.0L2.5,-0.5"/>
                </g>
               <g id="resetDef">
                       <use xlink:href="#rim2" fill="#404040">
                               <set attributeName="fill" to="#808080" begin="reset.mouseover" end="reset.mouseout"/>
                       </use>
               </g>
        </defs>

<script type="text/javascript">
var viewWidth = 1179;
var viewHeight = 252;
var sectionId = 'dynsection-0';
</script>
<script xlink:href="svgpan.js"/>
<svg id="graph" class="graph">
<g id="viewport">
<title>src/user_interface/image_viewer.cpp</title>
<polygon fill="white" stroke="transparent" points="-4,4 -4,-248 1174.58,-248 1174.58,4 -4,4"/>
<!-- Node1 -->
<g id="node1" class="node">
<title>Node1</title>
<g id="a_node1"><a xlink:title=" ">
<polygon fill="#bfbfbf" stroke="black" points="536.08,-224.5 536.08,-243.5 731.08,-243.5 731.08,-224.5 536.08,-224.5"/>
<text text-anchor="middle" x="633.58" y="-231.5" font-family="Helvetica,sans-Serif" font-size="10.00">src/user_interface/image_viewer.cpp</text>
</a>
</g>
</g>
<!-- Node2 -->
<g id="node2" class="node">
<title>Node2</title>
<g id="a_node2"><a xlink:href="image__viewer_8h.html" target="_top" xlink:title=" ">
<polygon fill="white" stroke="black" points="75.58,-168.5 75.58,-187.5 259.58,-187.5 259.58,-168.5 75.58,-168.5"/>
<text text-anchor="middle" x="167.58" y="-175.5" font-family="Helvetica,sans-Serif" font-size="10.00">src/user_interface/image_viewer.h</text>
</a>
</g>
</g>
<!-- Node1&#45;&gt;Node2 -->
<g id="edge1" class="edge">
<title>Node1&#45;&gt;Node2</title>
<path fill="none" stroke="midnightblue" d="M560,-224.47C476.04,-214.74 339.01,-198.86 251.1,-188.68"/>
<polygon fill="midnightblue" stroke="midnightblue" points="251.5,-185.2 241.16,-187.53 250.7,-192.15 251.5,-185.2"/>
</g>
<!-- Node12 -->
<g id="node12" class="node">
<title>Node12</title>
<g id="a_node12"><a xlink:title=" ">
<polygon fill="white" stroke="#bfbfbf" points="277.58,-168.5 277.58,-187.5 411.58,-187.5 411.58,-168.5 277.58,-168.5"/>
<text text-anchor="middle" x="344.58" y="-175.5" font-family="Helvetica,sans-Serif" font-size="10.00">opencv2/imgcodecs.hpp</text>
</a>
</g>
</g>
<!-- Node1&#45;&gt;Node12 -->
<g id="edge12" class="edge">
<title>Node1&#45;&gt;Node12</title>
<path fill="none" stroke="midnightblue" d="M587.79,-224.44C536.85,-214.92 454.55,-199.55 400.01,-189.36"/>
<polygon fill="midnightblue" stroke="midnightblue" points="400.64,-185.91 390.16,-187.52 399.35,-192.79 400.64,-185.91"/>
</g>
<!-- Node13 -->
<g id="node13" class="node">
<title>Node13</title>
<g id="a_node13"><a xlink:title=" ">
<polygon fill="white" stroke="#bfbfbf" points="429.58,-168.5 429.58,-187.5 551.58,-187.5 551.58,-168.5 429.58,-168.5"/>
<text text-anchor="middle" x="490.58" y="-175.5" font-family="Helvetica,sans-Serif" font-size="10.00">opencv2/imgproc.hpp</text>
</a>
</g>
</g>
<!-- Node1&#45;&gt;Node13 -->
<g id="edge13" class="edge">
<title>Node1&#45;&gt;Node13</title>
<path fill="none" stroke="midnightblue" d="M610.93,-224.44C587.18,-215.48 549.68,-201.31 522.85,-191.18"/>
<polygon fill="midnightblue" stroke="midnightblue" points="523.73,-187.77 513.14,-187.52 521.26,-194.32 523.73,-187.77"/>
</g>
<!-- Node14 -->
<g id="node14" class="node">
<title>Node14</title>
<g id="a_node14"><a xlink:title=" ">
<polygon fill="white" stroke="#bfbfbf" points="570.08,-168.5 570.08,-187.5 615.08,-187.5 615.08,-168.5 570.08,-168.5"/>
<text text-anchor="middle" x="592.58" y="-175.5" font-family="Helvetica,sans-Serif" font-size="10.00">utility</text>
</a>
</g>
</g>
<!-- Node1&#45;&gt;Node14 -->
<g id="edge14" class="edge">
<title>Node1&#45;&gt;Node14</title>
<path fill="none" stroke="midnightblue" d="M626.81,-224.08C621.02,-216.46 612.53,-205.26 605.45,-195.94"/>
<polygon fill="midnightblue" stroke="midnightblue" points="608.06,-193.6 599.23,-187.75 602.49,-197.83 608.06,-193.6"/>
</g>
<!-- Node15 -->
<g id="node15" class="node">
<title>Node15</title>
<g id="a_node15"><a xlink:title=" ">
<polygon fill="white" stroke="#bfbfbf" points="633.08,-168.5 633.08,-187.5 716.08,-187.5 716.08,-168.5 633.08,-168.5"/>
<text text-anchor="middle" x="674.58" y="-175.5" font-family="Helvetica,sans-Serif" font-size="10.00">GLFW/glfw3.h</text>
</a>
</g>
</g>
<!-- Node1&#45;&gt;Node15 -->
<g id="edge15" class="edge">
<title>Node1&#45;&gt;Node15</title>
<path fill="none" stroke="midnightblue" d="M640.35,-224.08C646.15,-216.46 654.64,-205.26 661.72,-195.94"/>
<polygon fill="midnightblue" stroke="midnightblue" points="664.68,-197.83 667.94,-187.75 659.11,-193.6 664.68,-197.83"/>
</g>
<!-- Node16 -->
<g id="node16" class="node">
<title>Node16</title>
<g id="a_node16"><a xlink:title=" ">
<polygon fill="white" stroke="#bfbfbf" points="734.08,-168.5 734.08,-187.5 883.08,-187.5 883.08,-168.5 734.08,-168.5"/>
<text text-anchor="middle" x="808.58" y="-175.5" font-family="Helvetica,sans-Serif" font-size="10.00">bindings/imgui_impl_glfw.h</text>
</a>
</g>
</g>
<!-- Node1&#45;&gt;Node16 -->
<g id="edge16" class="edge">
<title>Node1&#45;&gt;Node16</title>
<path fill="none" stroke="midnightblue" d="M661.31,-224.44C691.01,-215.28 738.3,-200.69 771.25,-190.52"/>
<polygon fill="midnightblue" stroke="midnightblue" points="772.46,-193.81 780.98,-187.52 770.4,-187.12 772.46,-193.81"/>
</g>
<!-- Node17 -->
<g id="node17" class="node">
<title>Node17</title>
<g id="a_node17"><a xlink:title=" ">
<polygon fill="white" stroke="#bfbfbf" points="901.08,-168.5 901.08,-187.5 1070.08,-187.5 1070.08,-168.5 901.08,-168.5"/>
<text text-anchor="middle" x="985.58" y="-175.5" font-family="Helvetica,sans-Serif" font-size="10.00">bindings/imgui_impl_opengl2.h</text>
</a>
</g>
</g>
<!-- Node1&#45;&gt;Node17 -->
<g id="edge17" class="edge">
<title>Node1&#45;&gt;Node17</title>
<path fill="none" stroke="midnightblue" d="M689.36,-224.44C752.05,-214.83 853.73,-199.23 920.13,-189.04"/>
<polygon fill="midnightblue" stroke="midnightblue" points="920.72,-192.49 930.07,-187.52 919.65,-185.57 920.72,-192.49"/>
</g>
<!-- Node18 -->
<g id="node18" class="node">
<title>Node18</title>
<g id="a_node18"><a xlink:href="log_8h.html" target="_top" xlink:title=" ">
<polygon fill="white" stroke="black" points="1088.58,-168.5 1088.58,-187.5 1170.58,-187.5 1170.58,-168.5 1088.58,-168.5"/>
<text text-anchor="middle" x="1129.58" y="-175.5" font-family="Helvetica,sans-Serif" font-size="10.00">src/utils/log.h</text>
</a>
</g>
</g>
<!-- Node1&#45;&gt;Node18 -->
<g id="edge18" class="edge">
<title>Node1&#45;&gt;Node18</title>
<path fill="none" stroke="midnightblue" d="M731.49,-225.19C819.44,-217.7 952.33,-205.18 1078.22,-187.94"/>
<polygon fill="midnightblue" stroke="midnightblue" points="1079,-191.37 1088.43,-186.53 1078.04,-184.43 1079,-191.37"/>
</g>
<!-- Node3 -->
<g id="node3" class="node">
<title>Node3</title>
<g id="a_node3"><a xlink:href="ui_8h.html" target="_top" xlink:title=" ">
<polygon fill="white" stroke="black" points="105.08,-112.5 105.08,-131.5 230.08,-131.5 230.08,-112.5 105.08,-112.5"/>
<text text-anchor="middle" x="167.58" y="-119.5" font-family="Helvetica,sans-Serif" font-size="10.00">src/user_interface/ui.h</text>
</a>
</g>
</g>
<!-- Node2&#45;&gt;Node3 -->
<g id="edge2" class="edge">
<title>Node2&#45;&gt;Node3</title>
<path fill="none" stroke="midnightblue" d="M167.58,-168.08C167.58,-161.01 167.58,-150.86 167.58,-141.99"/>
<polygon fill="midnightblue" stroke="midnightblue" points="171.08,-141.75 167.58,-131.75 164.08,-141.75 171.08,-141.75"/>
</g>
<!-- Node4 -->
<g id="node4" class="node">
<title>Node4</title>
<g id="a_node4"><a xlink:title=" ">
<polygon fill="white" stroke="#bfbfbf" points="85.58,-0.5 85.58,-19.5 143.58,-19.5 143.58,-0.5 85.58,-0.5"/>
<text text-anchor="middle" x="114.58" y="-7.5" font-family="Helvetica,sans-Serif" font-size="10.00">memory</text>
</a>
</g>
</g>
<!-- Node3&#45;&gt;Node4 -->
<g id="edge3" class="edge">
<title>Node3&#45;&gt;Node4</title>
<path fill="none" stroke="midnightblue" d="M109.85,-112.46C68.66,-105.05 18.39,-92.85 5.58,-76 -16.55,-46.87 35.88,-28.19 75.47,-18.65"/>
<polygon fill="midnightblue" stroke="midnightblue" points="76.49,-22.01 85.45,-16.36 74.93,-15.18 76.49,-22.01"/>
</g>
<!-- Node5 -->
<g id="node5" class="node">
<title>Node5</title>
<g id="a_node5"><a xlink:title=" ">
<polygon fill="white" stroke="#bfbfbf" points="14.58,-56.5 14.58,-75.5 58.58,-75.5 58.58,-56.5 14.58,-56.5"/>
<text text-anchor="middle" x="36.58" y="-63.5" font-family="Helvetica,sans-Serif" font-size="10.00">string</text>
</a>
</g>
</g>
<!-- Node3&#45;&gt;Node5 -->
<g id="edge4" class="edge">
<title>Node3&#45;&gt;Node5</title>
<path fill="none" stroke="midnightblue" d="M146.83,-112.44C125.27,-103.56 91.32,-89.56 66.79,-79.45"/>
<polygon fill="midnightblue" stroke="midnightblue" points="67.82,-76.09 57.24,-75.52 65.16,-82.56 67.82,-76.09"/>
</g>
<!-- Node6 -->
<g id="node6" class="node">
<title>Node6</title>
<g id="a_node6"><a xlink:title=" ">
<polygon fill="white" stroke="#bfbfbf" points="77.08,-56.5 77.08,-75.5 170.08,-75.5 170.08,-56.5 77.08,-56.5"/>
<text text-anchor="middle" x="123.58" y="-63.5" font-family="Helvetica,sans-Serif" font-size="10.00">unordered_map</text>
</a>
</g>
</g>
<!-- Node3&#45;&gt;Node6 -->
<g id="edge5" class="edge">
<title>Node3&#45;&gt;Node6</title>
<path fill="none" stroke="midnightblue" d="M160.32,-112.08C154.04,-104.38 144.8,-93.03 137.15,-83.65"/>
<polygon fill="midnightblue" stroke="midnightblue" points="139.75,-81.29 130.72,-75.75 134.32,-85.71 139.75,-81.29"/>
</g>
<!-- Node7 -->
<g id="node7" class="node">
<title>Node7</title>
<g id="a_node7"><a xlink:title=" ">
<polygon fill="white" stroke="#bfbfbf" points="188.08,-56.5 188.08,-75.5 235.08,-75.5 235.08,-56.5 188.08,-56.5"/>
<text text-anchor="middle" x="211.58" y="-63.5" font-family="Helvetica,sans-Serif" font-size="10.00">vector</text>
</a>
</g>
</g>
<!-- Node3&#45;&gt;Node7 -->
<g id="edge6" class="edge">
<title>Node3&#45;&gt;Node7</title>
<path fill="none" stroke="midnightblue" d="M174.85,-112.08C181.13,-104.38 190.37,-93.03 198.02,-83.65"/>
<polygon fill="midnightblue" stroke="midnightblue" points="200.85,-85.71 204.45,-75.75 195.42,-81.29 200.85,-85.71"/>
</g>
<!-- Node8 -->
<g id="node8" class="node">
<title>Node8</title>
<g id="a_node8"><a xlink:href="callback_8h.html" target="_top" xlink:title=" ">
<polygon fill="white" stroke="black" points="253.08,-56.5 253.08,-75.5 360.08,-75.5 360.08,-56.5 253.08,-56.5"/>
<text text-anchor="middle" x="306.58" y="-63.5" font-family="Helvetica,sans-Serif" font-size="10.00">src/utils/callback.h</text>
</a>
</g>
</g>
<!-- Node3&#45;&gt;Node8 -->
<g id="edge7" class="edge">
<title>Node3&#45;&gt;Node8</title>
<path fill="none" stroke="midnightblue" d="M189.61,-112.44C212.69,-103.48 249.15,-89.31 275.23,-79.18"/>
<polygon fill="midnightblue" stroke="midnightblue" points="276.61,-82.4 284.66,-75.52 274.07,-75.88 276.61,-82.4"/>
</g>
<!-- Node10 -->
<g id="node10" class="node">
<title>Node10</title>
<g id="a_node10"><a xlink:href="imgui_8h.html" target="_top" xlink:title=" ">
<polygon fill="white" stroke="black" points="378.08,-56.5 378.08,-75.5 473.08,-75.5 473.08,-56.5 378.08,-56.5"/>
<text text-anchor="middle" x="425.58" y="-63.5" font-family="Helvetica,sans-Serif" font-size="10.00">src/utils/imgui.h</text>
</a>
</g>
</g>
<!-- Node3&#45;&gt;Node10 -->
<g id="edge10" class="edge">
<title>Node3&#45;&gt;Node10</title>
<path fill="none" stroke="midnightblue" d="M208.47,-112.44C253.57,-103 326.2,-87.8 374.89,-77.61"/>
<polygon fill="midnightblue" stroke="midnightblue" points="375.82,-80.99 384.89,-75.52 374.39,-74.14 375.82,-80.99"/>
</g>
<!-- Node8&#45;&gt;Node4 -->
<g id="edge9" class="edge">
<title>Node8&#45;&gt;Node4</title>
<path fill="none" stroke="midnightblue" d="M276.16,-56.44C242.91,-47.09 189.56,-32.09 153.34,-21.9"/>
<polygon fill="midnightblue" stroke="midnightblue" points="154.18,-18.5 143.61,-19.16 152.29,-25.24 154.18,-18.5"/>
</g>
<!-- Node9 -->
<g id="node9" class="node">
<title>Node9</title>
<g id="a_node9"><a xlink:title=" ">
<polygon fill="white" stroke="#bfbfbf" points="289.08,-0.5 289.08,-19.5 324.08,-19.5 324.08,-0.5 289.08,-0.5"/>
<text text-anchor="middle" x="306.58" y="-7.5" font-family="Helvetica,sans-Serif" font-size="10.00">any</text>
</a>
</g>
</g>
<!-- Node8&#45;&gt;Node9 -->
<g id="edge8" class="edge">
<title>Node8&#45;&gt;Node9</title>
<path fill="none" stroke="midnightblue" d="M306.58,-56.08C306.58,-49.01 306.58,-38.86 306.58,-29.99"/>
<polygon fill="midnightblue" stroke="midnightblue" points="310.08,-29.75 306.58,-19.75 303.08,-29.75 310.08,-29.75"/>
</g>
<!-- Node11 -->
<g id="node11" class="node">
<title>Node11</title>
<g id="a_node11"><a xlink:title=" ">
<polygon fill="white" stroke="#bfbfbf" points="376.58,-0.5 376.58,-19.5 474.58,-19.5 474.58,-0.5 376.58,-0.5"/>
<text text-anchor="middle" x="425.58" y="-7.5" font-family="Helvetica,sans-Serif" font-size="10.00">bindings/imgui.h</text>
</a>
</g>
</g>
<!-- Node10&#45;&gt;Node11 -->
<g id="edge11" class="edge">
<title>Node10&#45;&gt;Node11</title>
<path fill="none" stroke="midnightblue" d="M425.58,-56.08C425.58,-49.01 425.58,-38.86 425.58,-29.99"/>
<polygon fill="midnightblue" stroke="midnightblue" points="429.08,-29.75 425.58,-19.75 422.08,-29.75 429.08,-29.75"/>
</g>
<!-- Node19 -->
<g id="node19" class="node">
<title>Node19</title>
<g id="a_node19"><a xlink:title=" ">
<polygon fill="white" stroke="#bfbfbf" points="1099.58,-112.5 1099.58,-131.5 1159.58,-131.5 1159.58,-112.5 1099.58,-112.5"/>
<text text-anchor="middle" x="1129.58" y="-119.5" font-family="Helvetica,sans-Serif" font-size="10.00">iostream</text>
</a>
</g>
</g>
<!-- Node18&#45;&gt;Node19 -->
<g id="edge19" class="edge">
<title>Node18&#45;&gt;Node19</title>
<path fill="none" stroke="midnightblue" d="M1129.58,-168.08C1129.58,-161.01 1129.58,-150.86 1129.58,-141.99"/>
<polygon fill="midnightblue" stroke="midnightblue" points="1133.08,-141.75 1129.58,-131.75 1126.08,-141.75 1133.08,-141.75"/>
</g>
</g>
</svg>
        <g id="navigator" transform="translate(0 0)" fill="#404254">
                <rect fill="#f2f5e9" fill-opacity="0.5" stroke="#606060" stroke-width=".5" x="0" y="0" width="60" height="60"/>
                <use id="zoomplus" xlink:href="#zoomPlus" x="17" y="9" onmousedown="handleZoom(evt,'in')"/>
                <use id="zoomminus" xlink:href="#zoomMin" x="42" y="9" onmousedown="handleZoom(evt,'out')"/>
                <use id="reset" xlink:href="#resetDef" x="30" y="36" onmousedown="handleReset()"/>
                <g id="arrowUp" xlink:href="#dirArrow" transform="translate(30 24)" onmousedown="handlePan(0,-1)">
                  <use xlink:href="#rim" fill="#404040">
                        <set attributeName="fill" to="#808080" begin="arrowUp.mouseover" end="arrowUp.mouseout"/>
                  </use>
                  <path fill="none" stroke="white" stroke-width="1.5" d="M0,-3.0v7 M-2.5,-0.5L0,-3.0L2.5,-0.5"/>
                </g>
                <g id="arrowRight" xlink:href="#dirArrow" transform="rotate(90) translate(36 -43)" onmousedown="handlePan(1,0)">
                  <use xlink:href="#rim" fill="#404040">
                        <set attributeName="fill" to="#808080" begin="arrowRight.mouseover" end="arrowRight.mouseout"/>
                  </use>
                  <path fill="none" stroke="white" stroke-width="1.5" d="M0,-3.0v7 M-2.5,-0.5L0,-3.0L2.5,-0.5"/>
                </g>
                <g id="arrowDown" xlink:href="#dirArrow" transform="rotate(180) translate(-30 -48)" onmousedown="handlePan(0,1)">
                  <use xlink:href="#rim" fill="#404040">
                        <set attributeName="fill" to="#808080" begin="arrowDown.mouseover" end="arrowDown.mouseout"/>
                  </use>
                  <path fill="none" stroke="white" stroke-width="1.5" d="M0,-3.0v7 M-2.5,-0.5L0,-3.0L2.5,-0.5"/>
                </g>
                <g id="arrowLeft" xlink:href="#dirArrow" transform="rotate(270) translate(-36 17)" onmousedown="handlePan(-1,0)">
                  <use xlink:href="#rim" fill="#404040">
                        <set attributeName="fill" to="#808080" begin="arrowLeft.mouseover" end="arrowLeft.mouseout"/>
                  </use>
                  <path fill="none" stroke="white" stroke-width="1.5" d="M0,-3.0v7 M-2.5,-0.5L0,-3.0L2.5,-0.5"/>
                </g>
        </g>
        <svg viewBox="0 0 15 15" width="100%" height="30px" preserveAspectRatio="xMaxYMin meet">
         <g id="arrow_out" transform="scale(0.3 0.3)">
          <a xlink:href="image__viewer_8cpp__incl_org.svg" target="_base">
           <rect id="button" ry="5" rx="5" y="6" x="6" height="38" width="38"
                fill="#f2f5e9" fill-opacity="0.5" stroke="#606060" stroke-width="1.0"/>
           <path id="arrow"
             d="M 11.500037,31.436501 C 11.940474,20.09759 22.043105,11.32322 32.158766,21.979434 L 37.068811,17.246167 C 37.068811,17.246167 37.088388,32 37.088388,32 L 22.160133,31.978069 C 22.160133,31.978069 26.997745,27.140456 26.997745,27.140456 C 18.528582,18.264221 13.291696,25.230495 11.500037,31.436501 z"
             style="fill:#404040;"/>
          </a>
         </g>
        </svg>
</svg>
