<?xml version="1.0" encoding="UTF-8" standalone="no"?>
<!DOCTYPE svg PUBLIC "-//W3C//DTD SVG 1.1//EN"
 "http://www.w3.org/Graphics/SVG/1.1/DTD/svg11.dtd">
<!-- Generated by graphviz version 2.43.0 (0)
 -->
<!-- Title: src/user_interface/image_viewer.h Pages: 1 -->
<svg width="483pt" height="196pt"
 viewBox="0.00 0.00 482.58 196.00" xmlns="http://www.w3.org/2000/svg" xmlns:xlink="http://www.w3.org/1999/xlink">
<g id="graph0" class="graph" transform="scale(1 1) rotate(0) translate(4 192)">
<title>src/user_interface/image_viewer.h</title>
<polygon fill="white" stroke="transparent" points="-4,4 -4,-192 478.58,-192 478.58,4 -4,4"/>
<!-- Node1 -->
<g id="node1" class="node">
<title>Node1</title>
<g id="a_node1"><a xlink:title=" ">
<polygon fill="#bfbfbf" stroke="black" points="75.58,-168.5 75.58,-187.5 259.58,-187.5 259.58,-168.5 75.58,-168.5"/>
<text text-anchor="middle" x="167.58" y="-175.5" font-family="Helvetica,sans-Serif" font-size="10.00">src/user_interface/image_viewer.h</text>
</a>
</g>
</g>
<!-- Node2 -->
<g id="node2" class="node">
<title>Node2</title>
<g id="a_node2"><a xlink:href="ui_8h.html" target="_top" xlink:title=" ">
<polygon fill="white" stroke="black" points="105.08,-112.5 105.08,-131.5 230.08,-131.5 230.08,-112.5 105.08,-112.5"/>
<text text-anchor="middle" x="167.58" y="-119.5" font-family="Helvetica,sans-Serif" font-size="10.00">src/user_interface/ui.h</text>
</a>
</g>
</g>
<!-- Node1&#45;&gt;Node2 -->
<g id="edge1" class="edge">
<title>Node1&#45;&gt;Node2</title>
<path fill="none" stroke="midnightblue" d="M167.58,-168.08C167.58,-161.01 167.58,-150.86 167.58,-141.99"/>
<polygon fill="midnightblue" stroke="midnightblue" points="171.08,-141.75 167.58,-131.75 164.08,-141.75 171.08,-141.75"/>
</g>
<!-- Node3 -->
<g id="node3" class="node">
<title>Node3</title>
<g id="a_node3"><a xlink:title=" ">
<polygon fill="white" stroke="#bfbfbf" points="85.58,-0.5 85.58,-19.5 143.58,-19.5 143.58,-0.5 85.58,-0.5"/>
<text text-anchor="middle" x="114.58" y="-7.5" font-family="Helvetica,sans-Serif" font-size="10.00">memory</text>
</a>
</g>
</g>
<!-- Node2&#45;&gt;Node3 -->
<g id="edge2" class="edge">
<title>Node2&#45;&gt;Node3</title>
<path fill="none" stroke="midnightblue" d="M109.85,-112.46C68.66,-105.05 18.39,-92.85 5.58,-76 -16.55,-46.87 35.88,-28.19 75.47,-18.65"/>
<polygon fill="midnightblue" stroke="midnightblue" points="76.49,-22.01 85.45,-16.36 74.93,-15.18 76.49,-22.01"/>
</g>
<!-- Node4 -->
<g id="node4" class="node">
<title>Node4</title>
<g id="a_node4"><a xlink:title=" ">
<polygon fill="white" stroke="#bfbfbf" points="14.58,-56.5 14.58,-75.5 58.58,-75.5 58.58,-56.5 14.58,-56.5"/>
<text text-anchor="middle" x="36.58" y="-63.5" font-family="Helvetica,sans-Serif" font-size="10.00">string</text>
</a>
</g>
</g>
<!-- Node2&#45;&gt;Node4 -->
<g id="edge3" class="edge">
<title>Node2&#45;&gt;Node4</title>
<path fill="none" stroke="midnightblue" d="M146.83,-112.44C125.27,-103.56 91.32,-89.56 66.79,-79.45"/>
<polygon fill="midnightblue" stroke="midnightblue" points="67.82,-76.09 57.24,-75.52 65.16,-82.56 67.82,-76.09"/>
</g>
<!-- Node5 -->
<g id="node5" class="node">
<title>Node5</title>
<g id="a_node5"><a xlink:title=" ">
<polygon fill="white" stroke="#bfbfbf" points="77.08,-56.5 77.08,-75.5 170.08,-75.5 170.08,-56.5 77.08,-56.5"/>
<text text-anchor="middle" x="123.58" y="-63.5" font-family="Helvetica,sans-Serif" font-size="10.00">unordered_map</text>
</a>
</g>
</g>
<!-- Node2&#45;&gt;Node5 -->
<g id="edge4" class="edge">
<title>Node2&#45;&gt;Node5</title>
<path fill="none" stroke="midnightblue" d="M160.32,-112.08C154.04,-104.38 144.8,-93.03 137.15,-83.65"/>
<polygon fill="midnightblue" stroke="midnightblue" points="139.75,-81.29 130.72,-75.75 134.32,-85.71 139.75,-81.29"/>
</g>
<!-- Node6 -->
<g id="node6" class="node">
<title>Node6</title>
<g id="a_node6"><a xlink:title=" ">
<polygon fill="white" stroke="#bfbfbf" points="188.08,-56.5 188.08,-75.5 235.08,-75.5 235.08,-56.5 188.08,-56.5"/>
<text text-anchor="middle" x="211.58" y="-63.5" font-family="Helvetica,sans-Serif" font-size="10.00">vector</text>
</a>
</g>
</g>
<!-- Node2&#45;&gt;Node6 -->
<g id="edge5" class="edge">
<title>Node2&#45;&gt;Node6</title>
<path fill="none" stroke="midnightblue" d="M174.85,-112.08C181.13,-104.38 190.37,-93.03 198.02,-83.65"/>
<polygon fill="midnightblue" stroke="midnightblue" points="200.85,-85.71 204.45,-75.75 195.42,-81.29 200.85,-85.71"/>
</g>
<!-- Node7 -->
<g id="node7" class="node">
<title>Node7</title>
<g id="a_node7"><a xlink:href="callback_8h.html" target="_top" xlink:title=" ">
<polygon fill="white" stroke="black" points="253.08,-56.5 253.08,-75.5 360.08,-75.5 360.08,-56.5 253.08,-56.5"/>
<text text-anchor="middle" x="306.58" y="-63.5" font-family="Helvetica,sans-Serif" font-size="10.00">src/utils/callback.h</text>
</a>
</g>
</g>
<!-- Node2&#45;&gt;Node7 -->
<g id="edge6" class="edge">
<title>Node2&#45;&gt;Node7</title>
<path fill="none" stroke="midnightblue" d="M189.61,-112.44C212.69,-103.48 249.15,-89.31 275.23,-79.18"/>
<polygon fill="midnightblue" stroke="midnightblue" points="276.61,-82.4 284.66,-75.52 274.07,-75.88 276.61,-82.4"/>
</g>
<!-- Node9 -->
<g id="node9" class="node">
<title>Node9</title>
<g id="a_node9"><a xlink:href="imgui_8h.html" target="_top" xlink:title=" ">
<polygon fill="white" stroke="black" points="378.08,-56.5 378.08,-75.5 473.08,-75.5 473.08,-56.5 378.08,-56.5"/>
<text text-anchor="middle" x="425.58" y="-63.5" font-family="Helvetica,sans-Serif" font-size="10.00">src/utils/imgui.h</text>
</a>
</g>
</g>
<!-- Node2&#45;&gt;Node9 -->
<g id="edge9" class="edge">
<title>Node2&#45;&gt;Node9</title>
<path fill="none" stroke="midnightblue" d="M208.47,-112.44C253.57,-103 326.2,-87.8 374.89,-77.61"/>
<polygon fill="midnightblue" stroke="midnightblue" points="375.82,-80.99 384.89,-75.52 374.39,-74.14 375.82,-80.99"/>
</g>
<!-- Node7&#45;&gt;Node3 -->
<g id="edge8" class="edge">
<title>Node7&#45;&gt;Node3</title>
<path fill="none" stroke="midnightblue" d="M276.16,-56.44C242.91,-47.09 189.56,-32.09 153.34,-21.9"/>
<polygon fill="midnightblue" stroke="midnightblue" points="154.18,-18.5 143.61,-19.16 152.29,-25.24 154.18,-18.5"/>
</g>
<!-- Node8 -->
<g id="node8" class="node">
<title>Node8</title>
<g id="a_node8"><a xlink:title=" ">
<polygon fill="white" stroke="#bfbfbf" points="289.08,-0.5 289.08,-19.5 324.08,-19.5 324.08,-0.5 289.08,-0.5"/>
<text text-anchor="middle" x="306.58" y="-7.5" font-family="Helvetica,sans-Serif" font-size="10.00">any</text>
</a>
</g>
</g>
<!-- Node7&#45;&gt;Node8 -->
<g id="edge7" class="edge">
<title>Node7&#45;&gt;Node8</title>
<path fill="none" stroke="midnightblue" d="M306.58,-56.08C306.58,-49.01 306.58,-38.86 306.58,-29.99"/>
<polygon fill="midnightblue" stroke="midnightblue" points="310.08,-29.75 306.58,-19.75 303.08,-29.75 310.08,-29.75"/>
</g>
<!-- Node10 -->
<g id="node10" class="node">
<title>Node10</title>
<g id="a_node10"><a xlink:title=" ">
<polygon fill="white" stroke="#bfbfbf" points="376.58,-0.5 376.58,-19.5 474.58,-19.5 474.58,-0.5 376.58,-0.5"/>
<text text-anchor="middle" x="425.58" y="-7.5" font-family="Helvetica,sans-Serif" font-size="10.00">bindings/imgui.h</text>
</a>
</g>
</g>
<!-- Node9&#45;&gt;Node10 -->
<g id="edge10" class="edge">
<title>Node9&#45;&gt;Node10</title>
<path fill="none" stroke="midnightblue" d="M425.58,-56.08C425.58,-49.01 425.58,-38.86 425.58,-29.99"/>
<polygon fill="midnightblue" stroke="midnightblue" points="429.08,-29.75 425.58,-19.75 422.08,-29.75 429.08,-29.75"/>
</g>
</g>
</svg>
