<?xml version="1.0" encoding="UTF-8" standalone="no"?>
<!DOCTYPE svg PUBLIC "-//W3C//DTD SVG 1.1//EN"
 "http://www.w3.org/Graphics/SVG/1.1/DTD/svg11.dtd">
<!-- Generated by graphviz version 2.43.0 (0)
 -->
<!-- Title: src/utils/imgui.h Pages: 1 -->
<!--zoomable 252 -->
<svg id="main" version="1.1" xmlns="http://www.w3.org/2000/svg" xmlns:xlink="http://www.w3.org/1999/xlink" xml:space="preserve" onload="init(evt)">
<style type="text/css"><![CDATA[
.edge:hover path { stroke: red; }
.edge:hover polygon { stroke: red; fill: red; }
]]></style>
<script type="text/javascript"><![CDATA[
var edges = document.getElementsByTagName('g');
if (edges && edges.length) {
  for (var i=0;i<edges.length;i++) {
    if (edges[i].id.substr(0,4)=='edge') {
      edges[i].setAttribute('class','edge');
    }
  }
}
]]></script>
        <defs>
                <circle id="rim" cx="0" cy="0" r="7"/>
                <circle id="rim2" cx="0" cy="0" r="3.5"/>
                <g id="zoomPlus">
                        <use xlink:href="#rim" fill="#404040">
                                <set attributeName="fill" to="#808080" begin="zoomplus.mouseover" end="zoomplus.mouseout"/>
                        </use>
                        <path d="M-4,0h8M0,-4v8" fill="none" stroke="white" stroke-width="1.5" pointer-events="none"/>
                </g>
                <g id="zoomMin">
                        <use xlink:href="#rim" fill="#404040">
                                <set attributeName="fill" to="#808080" begin="zoomminus.mouseover" end="zoomminus.mouseout"/>
                        </use>
                        <path d="M-4,0h8" fill="none" stroke="white" stroke-width="1.5" pointer-events="none"/>
                </g>
                <g id="dirArrow">
                        <path fill="none" stroke="white" stroke-width="1.5" d="M0,-3.0v7 M-2.5,-0.5L0,-3.0L2.5,-0.5"/>
                </g>
               <g id="resetDef">
                       <use xlink:href="#rim2" fill="#404040">
                               <set attributeName="fill" to="#808080" begin="reset.mouseover" end="reset.mouseout"/>
                       </use>
               </g>
        </defs>

<script type="text/javascript">
var viewWidth = 731;
var viewHeight = 252;
var sectionId = 'dynsection-1';
</script>
<script xlink:href="svgpan.js"/>
<svg id="graph" class="graph">
<g id="viewport">
<title>src/utils/imgui.h</title>
<polygon fill="white" stroke="transparent" points="-4,4 -4,-248 726.5,-248 726.5,4 -4,4"/>
<!-- Node1 -->
<g id="node1" class="node">
<title>Node1</title>
<g id="a_node1"><a xlink:title=" ">
<polygon fill="#bfbfbf" stroke="black" points="306.5,-224.5 306.5,-243.5 401.5,-243.5 401.5,-224.5 306.5,-224.5"/>
<text text-anchor="middle" x="354" y="-231.5" font-family="Helvetica,sans-Serif" font-size="10.00">src/utils/imgui.h</text>
</a>
</g>
</g>
<!-- Node2 -->
<g id="node2" class="node">
<title>Node2</title>
<g id="a_node2"><a xlink:href="button_8cpp.html" target="_top" xlink:title=" ">
<polygon fill="white" stroke="black" points="0,-56.5 0,-75.5 158,-75.5 158,-56.5 0,-56.5"/>
<text text-anchor="middle" x="79" y="-63.5" font-family="Helvetica,sans-Serif" font-size="10.00">src/user_interface/button.cpp</text>
</a>
</g>
</g>
<!-- Node1&#45;&gt;Node2 -->
<g id="edge1" class="edge">
<title>Node1&#45;&gt;Node2</title>
<path fill="none" stroke="midnightblue" d="M296,-230.92C229.11,-225.04 121.85,-204.14 71,-132 59.08,-115.09 68.15,-89.37 74.39,-75.91"/>
<polygon fill="midnightblue" stroke="midnightblue" points="296.12,-234.44 306.37,-231.74 296.68,-227.46 296.12,-234.44"/>
</g>
<!-- Node3 -->
<g id="node3" class="node">
<title>Node3</title>
<g id="a_node3"><a xlink:href="button_8h.html" target="_top" xlink:title=" ">
<polygon fill="white" stroke="black" points="80.5,-112.5 80.5,-131.5 227.5,-131.5 227.5,-112.5 80.5,-112.5"/>
<text text-anchor="middle" x="154" y="-119.5" font-family="Helvetica,sans-Serif" font-size="10.00">src/user_interface/button.h</text>
</a>
</g>
</g>
<!-- Node1&#45;&gt;Node3 -->
<g id="edge2" class="edge">
<title>Node1&#45;&gt;Node3</title>
<path fill="none" stroke="midnightblue" d="M329.36,-219.45C287.63,-196.5 204.24,-150.63 169.62,-131.59"/>
<polygon fill="midnightblue" stroke="midnightblue" points="327.86,-222.62 338.31,-224.37 331.23,-216.48 327.86,-222.62"/>
</g>
<!-- Node6 -->
<g id="node6" class="node">
<title>Node6</title>
<g id="a_node6"><a xlink:href="selector_8cpp.html" target="_top" xlink:title=" ">
<polygon fill="white" stroke="black" points="557.5,-56.5 557.5,-75.5 722.5,-75.5 722.5,-56.5 557.5,-56.5"/>
<text text-anchor="middle" x="640" y="-63.5" font-family="Helvetica,sans-Serif" font-size="10.00">src/user_interface/selector.cpp</text>
</a>
</g>
</g>
<!-- Node1&#45;&gt;Node6 -->
<g id="edge6" class="edge">
<title>Node1&#45;&gt;Node6</title>
<path fill="none" stroke="midnightblue" d="M411.43,-224.58C500.28,-210.25 664.45,-178.11 699,-132 715.17,-110.41 680.78,-87.6 658.01,-75.58"/>
<polygon fill="midnightblue" stroke="midnightblue" points="410.83,-221.13 401.51,-226.16 411.93,-228.04 410.83,-221.13"/>
</g>
<!-- Node7 -->
<g id="node7" class="node">
<title>Node7</title>
<g id="a_node7"><a xlink:href="ui_8cpp.html" target="_top" xlink:title=" ">
<polygon fill="white" stroke="black" points="554,-112.5 554,-131.5 690,-131.5 690,-112.5 554,-112.5"/>
<text text-anchor="middle" x="622" y="-119.5" font-family="Helvetica,sans-Serif" font-size="10.00">src/user_interface/ui.cpp</text>
</a>
</g>
</g>
<!-- Node1&#45;&gt;Node7 -->
<g id="edge7" class="edge">
<title>Node1&#45;&gt;Node7</title>
<path fill="none" stroke="midnightblue" d="M384.59,-220.45C439.63,-197.86 554,-150.91 601.07,-131.59"/>
<polygon fill="midnightblue" stroke="midnightblue" points="382.95,-217.33 375.03,-224.37 385.61,-223.81 382.95,-217.33"/>
</g>
<!-- Node8 -->
<g id="node8" class="node">
<title>Node8</title>
<g id="a_node8"><a xlink:href="ui_8h.html" target="_top" xlink:title=" ">
<polygon fill="white" stroke="black" points="291.5,-168.5 291.5,-187.5 416.5,-187.5 416.5,-168.5 291.5,-168.5"/>
<text text-anchor="middle" x="354" y="-175.5" font-family="Helvetica,sans-Serif" font-size="10.00">src/user_interface/ui.h</text>
</a>
</g>
</g>
<!-- Node1&#45;&gt;Node8 -->
<g id="edge8" class="edge">
<title>Node1&#45;&gt;Node8</title>
<path fill="none" stroke="midnightblue" d="M354,-213.8C354,-204.91 354,-194.78 354,-187.75"/>
<polygon fill="midnightblue" stroke="midnightblue" points="350.5,-214.08 354,-224.08 357.5,-214.08 350.5,-214.08"/>
</g>
<!-- Node3&#45;&gt;Node2 -->
<g id="edge3" class="edge">
<title>Node3&#45;&gt;Node2</title>
<path fill="none" stroke="midnightblue" d="M133.69,-106.38C120.14,-96.62 102.76,-84.11 91.27,-75.83"/>
<polygon fill="midnightblue" stroke="midnightblue" points="131.79,-109.32 141.95,-112.32 135.88,-103.64 131.79,-109.32"/>
</g>
<!-- Node4 -->
<g id="node4" class="node">
<title>Node4</title>
<g id="a_node4"><a xlink:href="user__interface_8h.html" target="_top" xlink:title=" ">
<polygon fill="white" stroke="black" points="349.5,-56.5 349.5,-75.5 462.5,-75.5 462.5,-56.5 349.5,-56.5"/>
<text text-anchor="middle" x="406" y="-63.5" font-family="Helvetica,sans-Serif" font-size="10.00">src/user_interface.h</text>
</a>
</g>
</g>
<!-- Node3&#45;&gt;Node4 -->
<g id="edge4" class="edge">
<title>Node3&#45;&gt;Node4</title>
<path fill="none" stroke="midnightblue" d="M203.72,-110.35C251.34,-100.14 322.28,-84.94 366.26,-75.52"/>
<polygon fill="midnightblue" stroke="midnightblue" points="202.97,-106.93 193.93,-112.44 204.44,-113.77 202.97,-106.93"/>
</g>
<!-- Node5 -->
<g id="node5" class="node">
<title>Node5</title>
<g id="a_node5"><a xlink:href="app_2main_8cpp.html" target="_top" xlink:title=" ">
<polygon fill="white" stroke="black" points="267.5,-0.5 267.5,-19.5 350.5,-19.5 350.5,-0.5 267.5,-0.5"/>
<text text-anchor="middle" x="309" y="-7.5" font-family="Helvetica,sans-Serif" font-size="10.00">app/main.cpp</text>
</a>
</g>
</g>
<!-- Node4&#45;&gt;Node5 -->
<g id="edge5" class="edge">
<title>Node4&#45;&gt;Node5</title>
<path fill="none" stroke="midnightblue" d="M381.66,-51.45C363.76,-41.48 339.95,-28.23 324.55,-19.65"/>
<polygon fill="midnightblue" stroke="midnightblue" points="379.98,-54.52 390.42,-56.32 383.38,-48.4 379.98,-54.52"/>
</g>
<!-- Node8&#45;&gt;Node3 -->
<g id="edge9" class="edge">
<title>Node8&#45;&gt;Node3</title>
<path fill="none" stroke="midnightblue" d="M312.63,-165.83C274.86,-155.63 219.86,-140.78 185.54,-131.52"/>
<polygon fill="midnightblue" stroke="midnightblue" points="311.74,-169.22 322.31,-168.44 313.57,-162.46 311.74,-169.22"/>
</g>
<!-- Node8&#45;&gt;Node4 -->
<g id="edge14" class="edge">
<title>Node8&#45;&gt;Node4</title>
<path fill="none" stroke="midnightblue" d="M357.64,-158.33C360.67,-144.98 365.68,-126.83 373,-112 379.78,-98.27 390.76,-84.35 398.17,-75.7"/>
<polygon fill="midnightblue" stroke="midnightblue" points="354.19,-157.73 355.55,-168.23 361.04,-159.17 354.19,-157.73"/>
</g>
<!-- Node8&#45;&gt;Node7 -->
<g id="edge13" class="edge">
<title>Node8&#45;&gt;Node7</title>
<path fill="none" stroke="midnightblue" d="M406.56,-166.41C457.21,-156.2 532.87,-140.96 579.73,-131.52"/>
<polygon fill="midnightblue" stroke="midnightblue" points="405.58,-163.04 396.47,-168.44 406.96,-169.9 405.58,-163.04"/>
</g>
<!-- Node9 -->
<g id="node9" class="node">
<title>Node9</title>
<g id="a_node9"><a xlink:href="selector_8h.html" target="_top" xlink:title=" ">
<polygon fill="white" stroke="black" points="382,-112.5 382,-131.5 536,-131.5 536,-112.5 382,-112.5"/>
<text text-anchor="middle" x="459" y="-119.5" font-family="Helvetica,sans-Serif" font-size="10.00">src/user_interface/selector.h</text>
</a>
</g>
</g>
<!-- Node8&#45;&gt;Node9 -->
<g id="edge10" class="edge">
<title>Node8&#45;&gt;Node9</title>
<path fill="none" stroke="midnightblue" d="M379.81,-163.73C399.25,-153.73 425.35,-140.31 442.17,-131.65"/>
<polygon fill="midnightblue" stroke="midnightblue" points="378.16,-160.64 370.87,-168.32 381.36,-166.86 378.16,-160.64"/>
</g>
<!-- Node10 -->
<g id="node10" class="node">
<title>Node10</title>
<g id="a_node10"><a xlink:href="window_8h.html" target="_top" xlink:title=" ">
<polygon fill="white" stroke="black" points="246,-112.5 246,-131.5 326,-131.5 326,-112.5 246,-112.5"/>
<text text-anchor="middle" x="286" y="-119.5" font-family="Helvetica,sans-Serif" font-size="10.00">src/window.h</text>
</a>
</g>
</g>
<!-- Node8&#45;&gt;Node10 -->
<g id="edge15" class="edge">
<title>Node8&#45;&gt;Node10</title>
<path fill="none" stroke="midnightblue" d="M335.24,-162.1C323,-152.38 307.44,-140.03 297.12,-131.83"/>
<polygon fill="midnightblue" stroke="midnightblue" points="333.07,-164.85 343.07,-168.32 337.42,-159.36 333.07,-164.85"/>
</g>
<!-- Node9&#45;&gt;Node4 -->
<g id="edge12" class="edge">
<title>Node9&#45;&gt;Node4</title>
<path fill="none" stroke="midnightblue" d="M443.02,-104.72C433.68,-95.2 422.25,-83.56 414.59,-75.75"/>
<polygon fill="midnightblue" stroke="midnightblue" points="440.75,-107.4 450.25,-112.08 445.74,-102.49 440.75,-107.4"/>
</g>
<!-- Node9&#45;&gt;Node6 -->
<g id="edge11" class="edge">
<title>Node9&#45;&gt;Node6</title>
<path fill="none" stroke="midnightblue" d="M497.32,-109.57C531.46,-99.38 580.66,-84.7 611.45,-75.52"/>
<polygon fill="midnightblue" stroke="midnightblue" points="496.26,-106.23 487.68,-112.44 498.26,-112.94 496.26,-106.23"/>
</g>
<!-- Node10&#45;&gt;Node5 -->
<g id="edge16" class="edge">
<title>Node10&#45;&gt;Node5</title>
<path fill="none" stroke="midnightblue" d="M260.49,-107.11C241.19,-94.66 219.78,-75.43 231,-56 241.48,-37.86 262.36,-26.38 279.88,-19.56"/>
<polygon fill="midnightblue" stroke="midnightblue" points="258.72,-110.13 269.08,-112.32 262.35,-104.14 258.72,-110.13"/>
</g>
<!-- Node11 -->
<g id="node11" class="node">
<title>Node11</title>
<g id="a_node11"><a xlink:href="window_8cpp.html" target="_top" xlink:title=" ">
<polygon fill="white" stroke="black" points="240.5,-56.5 240.5,-75.5 331.5,-75.5 331.5,-56.5 240.5,-56.5"/>
<text text-anchor="middle" x="286" y="-63.5" font-family="Helvetica,sans-Serif" font-size="10.00">src/window.cpp</text>
</a>
</g>
</g>
<!-- Node10&#45;&gt;Node11 -->
<g id="edge17" class="edge">
<title>Node10&#45;&gt;Node11</title>
<path fill="none" stroke="midnightblue" d="M286,-101.8C286,-92.91 286,-82.78 286,-75.75"/>
<polygon fill="midnightblue" stroke="midnightblue" points="282.5,-102.08 286,-112.08 289.5,-102.08 282.5,-102.08"/>
</g>
</g>
</svg>
        <g id="navigator" transform="translate(0 0)" fill="#404254">
                <rect fill="#f2f5e9" fill-opacity="0.5" stroke="#606060" stroke-width=".5" x="0" y="0" width="60" height="60"/>
                <use id="zoomplus" xlink:href="#zoomPlus" x="17" y="9" onmousedown="handleZoom(evt,'in')"/>
                <use id="zoomminus" xlink:href="#zoomMin" x="42" y="9" onmousedown="handleZoom(evt,'out')"/>
                <use id="reset" xlink:href="#resetDef" x="30" y="36" onmousedown="handleReset()"/>
                <g id="arrowUp" xlink:href="#dirArrow" transform="translate(30 24)" onmousedown="handlePan(0,-1)">
                  <use xlink:href="#rim" fill="#404040">
                        <set attributeName="fill" to="#808080" begin="arrowUp.mouseover" end="arrowUp.mouseout"/>
                  </use>
                  <path fill="none" stroke="white" stroke-width="1.5" d="M0,-3.0v7 M-2.5,-0.5L0,-3.0L2.5,-0.5"/>
                </g>
                <g id="arrowRight" xlink:href="#dirArrow" transform="rotate(90) translate(36 -43)" onmousedown="handlePan(1,0)">
                  <use xlink:href="#rim" fill="#404040">
                        <set attributeName="fill" to="#808080" begin="arrowRight.mouseover" end="arrowRight.mouseout"/>
                  </use>
                  <path fill="none" stroke="white" stroke-width="1.5" d="M0,-3.0v7 M-2.5,-0.5L0,-3.0L2.5,-0.5"/>
                </g>
                <g id="arrowDown" xlink:href="#dirArrow" transform="rotate(180) translate(-30 -48)" onmousedown="handlePan(0,1)">
                  <use xlink:href="#rim" fill="#404040">
                        <set attributeName="fill" to="#808080" begin="arrowDown.mouseover" end="arrowDown.mouseout"/>
                  </use>
                  <path fill="none" stroke="white" stroke-width="1.5" d="M0,-3.0v7 M-2.5,-0.5L0,-3.0L2.5,-0.5"/>
                </g>
                <g id="arrowLeft" xlink:href="#dirArrow" transform="rotate(270) translate(-36 17)" onmousedown="handlePan(-1,0)">
                  <use xlink:href="#rim" fill="#404040">
                        <set attributeName="fill" to="#808080" begin="arrowLeft.mouseover" end="arrowLeft.mouseout"/>
                  </use>
                  <path fill="none" stroke="white" stroke-width="1.5" d="M0,-3.0v7 M-2.5,-0.5L0,-3.0L2.5,-0.5"/>
                </g>
        </g>
        <svg viewBox="0 0 15 15" width="100%" height="30px" preserveAspectRatio="xMaxYMin meet">
         <g id="arrow_out" transform="scale(0.3 0.3)">
          <a xlink:href="imgui_8h__dep__incl_org.svg" target="_base">
           <rect id="button" ry="5" rx="5" y="6" x="6" height="38" width="38"
                fill="#f2f5e9" fill-opacity="0.5" stroke="#606060" stroke-width="1.0"/>
           <path id="arrow"
             d="M 11.500037,31.436501 C 11.940474,20.09759 22.043105,11.32322 32.158766,21.979434 L 37.068811,17.246167 C 37.068811,17.246167 37.088388,32 37.088388,32 L 22.160133,31.978069 C 22.160133,31.978069 26.997745,27.140456 26.997745,27.140456 C 18.528582,18.264221 13.291696,25.230495 11.500037,31.436501 z"
             style="fill:#404040;"/>
          </a>
         </g>
        </svg>
</svg>
