<?xml version="1.0" encoding="UTF-8" standalone="no"?>
<!DOCTYPE svg PUBLIC "-//W3C//DTD SVG 1.1//EN"
 "http://www.w3.org/Graphics/SVG/1.1/DTD/svg11.dtd">
<!-- Generated by graphviz version 2.43.0 (0)
 -->
<!-- Title: src/utils/imgui.h Pages: 1 -->
<svg width="1167pt" height="252pt"
 viewBox="0.00 0.00 1166.50 252.00" xmlns="http://www.w3.org/2000/svg" xmlns:xlink="http://www.w3.org/1999/xlink">
<g id="graph0" class="graph" transform="scale(1 1) rotate(0) translate(4 248)">
<title>src/utils/imgui.h</title>
<polygon fill="white" stroke="transparent" points="-4,4 -4,-248 1162.5,-248 1162.5,4 -4,4"/>
<!-- Node1 -->
<g id="node1" class="node">
<title>Node1</title>
<g id="a_node1"><a xlink:title=" ">
<polygon fill="#bfbfbf" stroke="black" points="392.5,-224.5 392.5,-243.5 487.5,-243.5 487.5,-224.5 392.5,-224.5"/>
<text text-anchor="middle" x="440" y="-231.5" font-family="Helvetica,sans-Serif" font-size="10.00">src/utils/imgui.h</text>
</a>
</g>
</g>
<!-- Node2 -->
<g id="node2" class="node">
<title>Node2</title>
<g id="a_node2"><a xlink:href="button_8cpp.html" target="_top" xlink:title=" ">
<polygon fill="white" stroke="black" points="0,-56.5 0,-75.5 158,-75.5 158,-56.5 0,-56.5"/>
<text text-anchor="middle" x="79" y="-63.5" font-family="Helvetica,sans-Serif" font-size="10.00">src/user_interface/button.cpp</text>
</a>
</g>
</g>
<!-- Node1&#45;&gt;Node2 -->
<g id="edge1" class="edge">
<title>Node1&#45;&gt;Node2</title>
<path fill="none" stroke="midnightblue" d="M382.12,-231.87C326.44,-228.82 241.07,-218.92 174,-188 138.75,-171.75 130.2,-163.11 107,-132 93.63,-114.07 85.12,-88.78 81.32,-75.66"/>
<polygon fill="midnightblue" stroke="midnightblue" points="382,-235.36 392.15,-232.36 382.34,-228.37 382,-235.36"/>
</g>
<!-- Node3 -->
<g id="node3" class="node">
<title>Node3</title>
<g id="a_node3"><a xlink:href="button_8h.html" target="_top" xlink:title=" ">
<polygon fill="white" stroke="black" points="127.5,-112.5 127.5,-131.5 274.5,-131.5 274.5,-112.5 127.5,-112.5"/>
<text text-anchor="middle" x="201" y="-119.5" font-family="Helvetica,sans-Serif" font-size="10.00">src/user_interface/button.h</text>
</a>
</g>
</g>
<!-- Node1&#45;&gt;Node3 -->
<g id="edge2" class="edge">
<title>Node1&#45;&gt;Node3</title>
<path fill="none" stroke="midnightblue" d="M412.11,-220.16C362.79,-197.47 261.47,-150.83 219.67,-131.59"/>
<polygon fill="midnightblue" stroke="midnightblue" points="410.7,-223.37 421.25,-224.37 413.63,-217.01 410.7,-223.37"/>
</g>
<!-- Node6 -->
<g id="node6" class="node">
<title>Node6</title>
<g id="a_node6"><a xlink:href="selector_8cpp.html" target="_top" xlink:title=" ">
<polygon fill="white" stroke="black" points="993.5,-56.5 993.5,-75.5 1158.5,-75.5 1158.5,-56.5 993.5,-56.5"/>
<text text-anchor="middle" x="1076" y="-63.5" font-family="Helvetica,sans-Serif" font-size="10.00">src/user_interface/selector.cpp</text>
</a>
</g>
</g>
<!-- Node1&#45;&gt;Node6 -->
<g id="edge6" class="edge">
<title>Node1&#45;&gt;Node6</title>
<path fill="none" stroke="midnightblue" d="M497.6,-233.83C649.1,-234.65 1052.68,-227.64 1135,-132 1152.7,-111.44 1117.26,-88.05 1094.02,-75.7"/>
<polygon fill="midnightblue" stroke="midnightblue" points="497.59,-230.33 487.57,-233.76 497.54,-237.33 497.59,-230.33"/>
</g>
<!-- Node7 -->
<g id="node7" class="node">
<title>Node7</title>
<g id="a_node7"><a xlink:href="top__viewer_8cpp.html" target="_top" xlink:title=" ">
<polygon fill="white" stroke="black" points="210,-56.5 210,-75.5 390,-75.5 390,-56.5 210,-56.5"/>
<text text-anchor="middle" x="300" y="-63.5" font-family="Helvetica,sans-Serif" font-size="10.00">src/user_interface/top_viewer.cpp</text>
</a>
</g>
</g>
<!-- Node1&#45;&gt;Node7 -->
<g id="edge7" class="edge">
<title>Node1&#45;&gt;Node7</title>
<path fill="none" stroke="midnightblue" d="M382.54,-223.31C298.73,-207.86 149.48,-174.98 118,-132 89.4,-92.96 150.82,-77.27 209.89,-71.02"/>
<polygon fill="midnightblue" stroke="midnightblue" points="381.96,-226.76 392.42,-225.1 383.21,-219.87 381.96,-226.76"/>
</g>
<!-- Node8 -->
<g id="node8" class="node">
<title>Node8</title>
<g id="a_node8"><a xlink:href="ui_8cpp.html" target="_top" xlink:title=" ">
<polygon fill="white" stroke="black" points="990,-112.5 990,-131.5 1126,-131.5 1126,-112.5 990,-112.5"/>
<text text-anchor="middle" x="1058" y="-119.5" font-family="Helvetica,sans-Serif" font-size="10.00">src/user_interface/ui.cpp</text>
</a>
</g>
</g>
<!-- Node1&#45;&gt;Node8 -->
<g id="edge8" class="edge">
<title>Node1&#45;&gt;Node8</title>
<path fill="none" stroke="midnightblue" d="M497.92,-222.69C619.2,-201.1 897.89,-151.5 1010,-131.54"/>
<polygon fill="midnightblue" stroke="midnightblue" points="496.95,-219.31 487.72,-224.51 498.18,-226.2 496.95,-219.31"/>
</g>
<!-- Node9 -->
<g id="node9" class="node">
<title>Node9</title>
<g id="a_node9"><a xlink:href="ui_8h.html" target="_top" xlink:title=" ">
<polygon fill="white" stroke="black" points="532.5,-168.5 532.5,-187.5 657.5,-187.5 657.5,-168.5 532.5,-168.5"/>
<text text-anchor="middle" x="595" y="-175.5" font-family="Helvetica,sans-Serif" font-size="10.00">src/user_interface/ui.h</text>
</a>
</g>
</g>
<!-- Node1&#45;&gt;Node9 -->
<g id="edge9" class="edge">
<title>Node1&#45;&gt;Node9</title>
<path fill="none" stroke="midnightblue" d="M474.33,-221.04C503.5,-210.88 544.64,-196.55 570.55,-187.52"/>
<polygon fill="midnightblue" stroke="midnightblue" points="472.85,-217.85 464.56,-224.44 475.16,-224.46 472.85,-217.85"/>
</g>
<!-- Node3&#45;&gt;Node2 -->
<g id="edge3" class="edge">
<title>Node3&#45;&gt;Node2</title>
<path fill="none" stroke="midnightblue" d="M172.46,-108.37C149.61,-98.26 118.19,-84.35 98.24,-75.52"/>
<polygon fill="midnightblue" stroke="midnightblue" points="171.11,-111.6 181.67,-112.44 173.94,-105.2 171.11,-111.6"/>
</g>
<!-- Node4 -->
<g id="node4" class="node">
<title>Node4</title>
<g id="a_node4"><a xlink:href="user__interface_8h.html" target="_top" xlink:title=" ">
<polygon fill="white" stroke="black" points="785.5,-56.5 785.5,-75.5 898.5,-75.5 898.5,-56.5 785.5,-56.5"/>
<text text-anchor="middle" x="842" y="-63.5" font-family="Helvetica,sans-Serif" font-size="10.00">src/user_interface.h</text>
</a>
</g>
</g>
<!-- Node3&#45;&gt;Node4 -->
<g id="edge4" class="edge">
<title>Node3&#45;&gt;Node4</title>
<path fill="none" stroke="midnightblue" d="M284.99,-111.95C504.52,-92.36 561.83,-98.73 777,-76 779.72,-75.71 782.5,-75.4 785.31,-75.07"/>
<polygon fill="midnightblue" stroke="midnightblue" points="284.4,-108.48 274.75,-112.87 285.03,-115.46 284.4,-108.48"/>
</g>
<!-- Node5 -->
<g id="node5" class="node">
<title>Node5</title>
<g id="a_node5"><a xlink:href="app_2main_8cpp.html" target="_top" xlink:title=" ">
<polygon fill="white" stroke="black" points="596.5,-0.5 596.5,-19.5 679.5,-19.5 679.5,-0.5 596.5,-0.5"/>
<text text-anchor="middle" x="638" y="-7.5" font-family="Helvetica,sans-Serif" font-size="10.00">app/main.cpp</text>
</a>
</g>
</g>
<!-- Node4&#45;&gt;Node5 -->
<g id="edge5" class="edge">
<title>Node4&#45;&gt;Node5</title>
<path fill="none" stroke="midnightblue" d="M799.8,-53.83C761.28,-43.63 705.18,-28.78 670.17,-19.52"/>
<polygon fill="midnightblue" stroke="midnightblue" points="799.11,-57.27 809.68,-56.44 800.9,-50.5 799.11,-57.27"/>
</g>
<!-- Node9&#45;&gt;Node3 -->
<g id="edge10" class="edge">
<title>Node9&#45;&gt;Node3</title>
<path fill="none" stroke="midnightblue" d="M522.34,-167.04C447.93,-156.84 333.48,-141.16 263.14,-131.52"/>
<polygon fill="midnightblue" stroke="midnightblue" points="522.19,-170.55 532.57,-168.44 523.14,-163.62 522.19,-170.55"/>
</g>
<!-- Node9&#45;&gt;Node4 -->
<g id="edge20" class="edge">
<title>Node9&#45;&gt;Node4</title>
<path fill="none" stroke="midnightblue" d="M667.64,-166.72C700.58,-160.02 739.2,-149.2 771,-132 798.34,-117.21 823.43,-89.6 835.11,-75.6"/>
<polygon fill="midnightblue" stroke="midnightblue" points="666.76,-163.33 657.61,-168.68 668.09,-170.2 666.76,-163.33"/>
</g>
<!-- Node9&#45;&gt;Node8 -->
<g id="edge19" class="edge">
<title>Node9&#45;&gt;Node8</title>
<path fill="none" stroke="midnightblue" d="M667.66,-168.54C745.25,-159.5 871.81,-144.75 981,-132 983.94,-131.66 986.95,-131.31 989.98,-130.95"/>
<polygon fill="midnightblue" stroke="midnightblue" points="667.04,-165.08 657.51,-169.72 667.85,-172.04 667.04,-165.08"/>
</g>
<!-- Node10 -->
<g id="node10" class="node">
<title>Node10</title>
<g id="a_node10"><a xlink:href="image__viewer_8h.html" target="_top" xlink:title=" ">
<polygon fill="white" stroke="black" points="578,-112.5 578,-131.5 762,-131.5 762,-112.5 578,-112.5"/>
<text text-anchor="middle" x="670" y="-119.5" font-family="Helvetica,sans-Serif" font-size="10.00">src/user_interface/image_viewer.h</text>
</a>
</g>
</g>
<!-- Node9&#45;&gt;Node10 -->
<g id="edge11" class="edge">
<title>Node9&#45;&gt;Node10</title>
<path fill="none" stroke="midnightblue" d="M615.31,-162.38C628.86,-152.62 646.24,-140.11 657.73,-131.83"/>
<polygon fill="midnightblue" stroke="midnightblue" points="613.12,-159.64 607.05,-168.32 617.21,-165.32 613.12,-159.64"/>
</g>
<!-- Node12 -->
<g id="node12" class="node">
<title>Node12</title>
<g id="a_node12"><a xlink:href="selector_8h.html" target="_top" xlink:title=" ">
<polygon fill="white" stroke="black" points="818,-112.5 818,-131.5 972,-131.5 972,-112.5 818,-112.5"/>
<text text-anchor="middle" x="895" y="-119.5" font-family="Helvetica,sans-Serif" font-size="10.00">src/user_interface/selector.h</text>
</a>
</g>
</g>
<!-- Node9&#45;&gt;Node12 -->
<g id="edge14" class="edge">
<title>Node9&#45;&gt;Node12</title>
<path fill="none" stroke="midnightblue" d="M652.42,-166.66C709.12,-156.46 794.79,-141.04 847.69,-131.52"/>
<polygon fill="midnightblue" stroke="midnightblue" points="651.76,-163.23 642.54,-168.44 653,-170.12 651.76,-163.23"/>
</g>
<!-- Node13 -->
<g id="node13" class="node">
<title>Node13</title>
<g id="a_node13"><a xlink:href="top__viewer_8h.html" target="_top" xlink:title=" ">
<polygon fill="white" stroke="black" points="292.5,-112.5 292.5,-131.5 461.5,-131.5 461.5,-112.5 292.5,-112.5"/>
<text text-anchor="middle" x="377" y="-119.5" font-family="Helvetica,sans-Serif" font-size="10.00">src/user_interface/top_viewer.h</text>
</a>
</g>
</g>
<!-- Node9&#45;&gt;Node13 -->
<g id="edge17" class="edge">
<title>Node9&#45;&gt;Node13</title>
<path fill="none" stroke="midnightblue" d="M550.69,-166.02C509.51,-155.82 449.03,-140.84 411.38,-131.52"/>
<polygon fill="midnightblue" stroke="midnightblue" points="549.91,-169.44 560.46,-168.44 551.59,-162.64 549.91,-169.44"/>
</g>
<!-- Node14 -->
<g id="node14" class="node">
<title>Node14</title>
<g id="a_node14"><a xlink:href="window_8h.html" target="_top" xlink:title=" ">
<polygon fill="white" stroke="black" points="480,-112.5 480,-131.5 560,-131.5 560,-112.5 480,-112.5"/>
<text text-anchor="middle" x="520" y="-119.5" font-family="Helvetica,sans-Serif" font-size="10.00">src/window.h</text>
</a>
</g>
</g>
<!-- Node9&#45;&gt;Node14 -->
<g id="edge21" class="edge">
<title>Node9&#45;&gt;Node14</title>
<path fill="none" stroke="midnightblue" d="M574.69,-162.38C561.14,-152.62 543.76,-140.11 532.27,-131.83"/>
<polygon fill="midnightblue" stroke="midnightblue" points="572.79,-165.32 582.95,-168.32 576.88,-159.64 572.79,-165.32"/>
</g>
<!-- Node10&#45;&gt;Node4 -->
<g id="edge13" class="edge">
<title>Node10&#45;&gt;Node4</title>
<path fill="none" stroke="midnightblue" d="M706.83,-109.44C739.26,-99.26 785.74,-84.66 814.87,-75.52"/>
<polygon fill="midnightblue" stroke="midnightblue" points="705.75,-106.11 697.25,-112.44 707.84,-112.79 705.75,-106.11"/>
</g>
<!-- Node11 -->
<g id="node11" class="node">
<title>Node11</title>
<g id="a_node11"><a xlink:href="image__viewer_8cpp.html" target="_top" xlink:title=" ">
<polygon fill="white" stroke="black" points="572.5,-56.5 572.5,-75.5 767.5,-75.5 767.5,-56.5 572.5,-56.5"/>
<text text-anchor="middle" x="670" y="-63.5" font-family="Helvetica,sans-Serif" font-size="10.00">src/user_interface/image_viewer.cpp</text>
</a>
</g>
</g>
<!-- Node10&#45;&gt;Node11 -->
<g id="edge12" class="edge">
<title>Node10&#45;&gt;Node11</title>
<path fill="none" stroke="midnightblue" d="M670,-101.8C670,-92.91 670,-82.78 670,-75.75"/>
<polygon fill="midnightblue" stroke="midnightblue" points="666.5,-102.08 670,-112.08 673.5,-102.08 666.5,-102.08"/>
</g>
<!-- Node12&#45;&gt;Node4 -->
<g id="edge16" class="edge">
<title>Node12&#45;&gt;Node4</title>
<path fill="none" stroke="midnightblue" d="M879.02,-104.72C869.68,-95.2 858.25,-83.56 850.59,-75.75"/>
<polygon fill="midnightblue" stroke="midnightblue" points="876.75,-107.4 886.25,-112.08 881.74,-102.49 876.75,-107.4"/>
</g>
<!-- Node12&#45;&gt;Node6 -->
<g id="edge15" class="edge">
<title>Node12&#45;&gt;Node6</title>
<path fill="none" stroke="midnightblue" d="M933.32,-109.57C967.46,-99.38 1016.66,-84.7 1047.45,-75.52"/>
<polygon fill="midnightblue" stroke="midnightblue" points="932.26,-106.23 923.68,-112.44 934.26,-112.94 932.26,-106.23"/>
</g>
<!-- Node13&#45;&gt;Node7 -->
<g id="edge18" class="edge">
<title>Node13&#45;&gt;Node7</title>
<path fill="none" stroke="midnightblue" d="M356.1,-106.34C342.09,-96.52 324.12,-83.91 312.34,-75.65"/>
<polygon fill="midnightblue" stroke="midnightblue" points="354.43,-109.45 364.63,-112.32 358.45,-103.72 354.43,-109.45"/>
</g>
<!-- Node14&#45;&gt;Node5 -->
<g id="edge22" class="edge">
<title>Node14&#45;&gt;Node5</title>
<path fill="none" stroke="midnightblue" d="M490.68,-107.81C466.92,-95.29 439.7,-75.52 455,-56 472.21,-34.05 547.67,-21.38 596.15,-15.36"/>
<polygon fill="midnightblue" stroke="midnightblue" points="489.34,-111.06 499.85,-112.4 492.47,-104.8 489.34,-111.06"/>
</g>
<!-- Node15 -->
<g id="node15" class="node">
<title>Node15</title>
<g id="a_node15"><a xlink:href="window_8cpp.html" target="_top" xlink:title=" ">
<polygon fill="white" stroke="black" points="463.5,-56.5 463.5,-75.5 554.5,-75.5 554.5,-56.5 463.5,-56.5"/>
<text text-anchor="middle" x="509" y="-63.5" font-family="Helvetica,sans-Serif" font-size="10.00">src/window.cpp</text>
</a>
</g>
</g>
<!-- Node14&#45;&gt;Node15 -->
<g id="edge23" class="edge">
<title>Node14&#45;&gt;Node15</title>
<path fill="none" stroke="midnightblue" d="M516.15,-102.1C514.32,-93.14 512.23,-82.86 510.78,-75.75"/>
<polygon fill="midnightblue" stroke="midnightblue" points="512.76,-102.98 518.18,-112.08 519.62,-101.59 512.76,-102.98"/>
</g>
</g>
</svg>
