<?xml version="1.0" encoding="UTF-8" standalone="no"?>
<!DOCTYPE svg PUBLIC "-//W3C//DTD SVG 1.1//EN"
 "http://www.w3.org/Graphics/SVG/1.1/DTD/svg11.dtd">
<!-- Generated by graphviz version 2.43.0 (0)
 -->
<!-- Title: src/utils/imgui.h Pages: 1 -->
<svg width="515pt" height="196pt"
 viewBox="0.00 0.00 515.00 196.00" xmlns="http://www.w3.org/2000/svg" xmlns:xlink="http://www.w3.org/1999/xlink">
<g id="graph0" class="graph" transform="scale(1 1) rotate(0) translate(4 192)">
<title>src/utils/imgui.h</title>
<polygon fill="white" stroke="transparent" points="-4,4 -4,-192 511,-192 511,4 -4,4"/>
<!-- Node1 -->
<g id="node1" class="node">
<title>Node1</title>
<g id="a_node1"><a xlink:title=" ">
<polygon fill="#bfbfbf" stroke="black" points="188.5,-168.5 188.5,-187.5 283.5,-187.5 283.5,-168.5 188.5,-168.5"/>
<text text-anchor="middle" x="236" y="-175.5" font-family="Helvetica,sans-Serif" font-size="10.00">src/utils/imgui.h</text>
</a>
</g>
</g>
<!-- Node2 -->
<g id="node2" class="node">
<title>Node2</title>
<g id="a_node2"><a xlink:href="button_8cpp.html" target="_top" xlink:title=" ">
<polygon fill="white" stroke="black" points="0,-0.5 0,-19.5 158,-19.5 158,-0.5 0,-0.5"/>
<text text-anchor="middle" x="79" y="-7.5" font-family="Helvetica,sans-Serif" font-size="10.00">src/user_interface/button.cpp</text>
</a>
</g>
</g>
<!-- Node1&#45;&gt;Node2 -->
<g id="edge1" class="edge">
<title>Node1&#45;&gt;Node2</title>
<path fill="none" stroke="midnightblue" d="M208.25,-163.78C176.92,-147.44 126.58,-116.75 98,-76 85.71,-58.48 81.29,-33.02 79.76,-19.76"/>
<polygon fill="midnightblue" stroke="midnightblue" points="206.82,-166.97 217.32,-168.38 209.99,-160.73 206.82,-166.97"/>
</g>
<!-- Node3 -->
<g id="node3" class="node">
<title>Node3</title>
<g id="a_node3"><a xlink:href="button_8h.html" target="_top" xlink:title=" ">
<polygon fill="white" stroke="black" points="107.5,-56.5 107.5,-75.5 254.5,-75.5 254.5,-56.5 107.5,-56.5"/>
<text text-anchor="middle" x="181" y="-63.5" font-family="Helvetica,sans-Serif" font-size="10.00">src/user_interface/button.h</text>
</a>
</g>
</g>
<!-- Node1&#45;&gt;Node3 -->
<g id="edge2" class="edge">
<title>Node1&#45;&gt;Node3</title>
<path fill="none" stroke="midnightblue" d="M227.16,-159.32C215.18,-135.37 194.27,-93.55 185.3,-75.59"/>
<polygon fill="midnightblue" stroke="midnightblue" points="224.08,-160.99 231.68,-168.37 230.34,-157.86 224.08,-160.99"/>
</g>
<!-- Node5 -->
<g id="node5" class="node">
<title>Node5</title>
<g id="a_node5"><a xlink:href="ui_8cpp.html" target="_top" xlink:title=" ">
<polygon fill="white" stroke="black" points="371,-56.5 371,-75.5 507,-75.5 507,-56.5 371,-56.5"/>
<text text-anchor="middle" x="439" y="-63.5" font-family="Helvetica,sans-Serif" font-size="10.00">src/user_interface/ui.cpp</text>
</a>
</g>
</g>
<!-- Node1&#45;&gt;Node5 -->
<g id="edge5" class="edge">
<title>Node1&#45;&gt;Node5</title>
<path fill="none" stroke="midnightblue" d="M288.22,-165.9C314.86,-158.77 347.03,-147.83 373,-132 398.26,-116.59 421.31,-89.76 432.27,-75.88"/>
<polygon fill="midnightblue" stroke="midnightblue" points="287.12,-162.57 278.3,-168.44 288.86,-169.35 287.12,-162.57"/>
</g>
<!-- Node6 -->
<g id="node6" class="node">
<title>Node6</title>
<g id="a_node6"><a xlink:href="ui_8h.html" target="_top" xlink:title=" ">
<polygon fill="white" stroke="black" points="239.5,-112.5 239.5,-131.5 364.5,-131.5 364.5,-112.5 239.5,-112.5"/>
<text text-anchor="middle" x="302" y="-119.5" font-family="Helvetica,sans-Serif" font-size="10.00">src/user_interface/ui.h</text>
</a>
</g>
</g>
<!-- Node1&#45;&gt;Node6 -->
<g id="edge6" class="edge">
<title>Node1&#45;&gt;Node6</title>
<path fill="none" stroke="midnightblue" d="M254.55,-161.82C266.38,-152.15 281.29,-139.95 291.2,-131.83"/>
<polygon fill="midnightblue" stroke="midnightblue" points="252.13,-159.28 246.6,-168.32 256.56,-164.7 252.13,-159.28"/>
</g>
<!-- Node3&#45;&gt;Node2 -->
<g id="edge4" class="edge">
<title>Node3&#45;&gt;Node2</title>
<path fill="none" stroke="midnightblue" d="M155.67,-51.59C136.81,-41.61 111.62,-28.27 95.35,-19.65"/>
<polygon fill="midnightblue" stroke="midnightblue" points="154.14,-54.74 164.61,-56.32 157.41,-48.55 154.14,-54.74"/>
</g>
<!-- Node4 -->
<g id="node4" class="node">
<title>Node4</title>
<g id="a_node4"><a xlink:href="app_2main_8cpp.html" target="_top" xlink:title=" ">
<polygon fill="white" stroke="black" points="176.5,-0.5 176.5,-19.5 259.5,-19.5 259.5,-0.5 176.5,-0.5"/>
<text text-anchor="middle" x="218" y="-7.5" font-family="Helvetica,sans-Serif" font-size="10.00">app/main.cpp</text>
</a>
</g>
</g>
<!-- Node3&#45;&gt;Node4 -->
<g id="edge3" class="edge">
<title>Node3&#45;&gt;Node4</title>
<path fill="none" stroke="midnightblue" d="M192.95,-47.57C199.31,-38.27 206.87,-27.25 212,-19.75"/>
<polygon fill="midnightblue" stroke="midnightblue" points="189.87,-45.86 187.11,-56.08 195.65,-49.81 189.87,-45.86"/>
</g>
<!-- Node6&#45;&gt;Node3 -->
<g id="edge7" class="edge">
<title>Node6&#45;&gt;Node3</title>
<path fill="none" stroke="midnightblue" d="M273.69,-108.37C251.03,-98.26 219.87,-84.35 200.08,-75.52"/>
<polygon fill="midnightblue" stroke="midnightblue" points="272.27,-111.56 282.83,-112.44 275.12,-105.17 272.27,-111.56"/>
</g>
<!-- Node6&#45;&gt;Node5 -->
<g id="edge8" class="edge">
<title>Node6&#45;&gt;Node5</title>
<path fill="none" stroke="midnightblue" d="M333.02,-108.77C358.76,-98.63 394.69,-84.47 417.39,-75.52"/>
<polygon fill="midnightblue" stroke="midnightblue" points="331.73,-105.52 323.71,-112.44 334.29,-112.03 331.73,-105.52"/>
</g>
<!-- Node7 -->
<g id="node7" class="node">
<title>Node7</title>
<g id="a_node7"><a xlink:href="window_8h.html" target="_top" xlink:title=" ">
<polygon fill="white" stroke="black" points="273,-56.5 273,-75.5 353,-75.5 353,-56.5 273,-56.5"/>
<text text-anchor="middle" x="313" y="-63.5" font-family="Helvetica,sans-Serif" font-size="10.00">src/window.h</text>
</a>
</g>
</g>
<!-- Node6&#45;&gt;Node7 -->
<g id="edge9" class="edge">
<title>Node6&#45;&gt;Node7</title>
<path fill="none" stroke="midnightblue" d="M305.85,-102.1C307.68,-93.14 309.77,-82.86 311.22,-75.75"/>
<polygon fill="midnightblue" stroke="midnightblue" points="302.38,-101.59 303.82,-112.08 309.24,-102.98 302.38,-101.59"/>
</g>
<!-- Node7&#45;&gt;Node4 -->
<g id="edge10" class="edge">
<title>Node7&#45;&gt;Node4</title>
<path fill="none" stroke="midnightblue" d="M288.68,-51.18C271.2,-41.24 248.17,-28.15 233.23,-19.65"/>
<polygon fill="midnightblue" stroke="midnightblue" points="287.31,-54.43 297.74,-56.32 290.77,-48.34 287.31,-54.43"/>
</g>
<!-- Node8 -->
<g id="node8" class="node">
<title>Node8</title>
<g id="a_node8"><a xlink:href="window_8cpp.html" target="_top" xlink:title=" ">
<polygon fill="white" stroke="black" points="277.5,-0.5 277.5,-19.5 368.5,-19.5 368.5,-0.5 277.5,-0.5"/>
<text text-anchor="middle" x="323" y="-7.5" font-family="Helvetica,sans-Serif" font-size="10.00">src/window.cpp</text>
</a>
</g>
</g>
<!-- Node7&#45;&gt;Node8 -->
<g id="edge11" class="edge">
<title>Node7&#45;&gt;Node8</title>
<path fill="none" stroke="midnightblue" d="M316.5,-46.1C318.16,-37.14 320.06,-26.86 321.38,-19.75"/>
<polygon fill="midnightblue" stroke="midnightblue" points="313.03,-45.61 314.65,-56.08 319.91,-46.89 313.03,-45.61"/>
</g>
</g>
</svg>
