<?xml version="1.0" encoding="UTF-8" standalone="no"?>
<!DOCTYPE svg PUBLIC "-//W3C//DTD SVG 1.1//EN"
 "http://www.w3.org/Graphics/SVG/1.1/DTD/svg11.dtd">
<!-- Generated by graphviz version 2.43.0 (0)
 -->
<!-- Title: src/utils/imgui.h Pages: 1 -->
<svg width="1092pt" height="308pt"
 viewBox="0.00 0.00 1092.29 308.00" xmlns="http://www.w3.org/2000/svg" xmlns:xlink="http://www.w3.org/1999/xlink">
<g id="graph0" class="graph" transform="scale(1 1) rotate(0) translate(4 304)">
<title>src/utils/imgui.h</title>
<polygon fill="white" stroke="transparent" points="-4,4 -4,-304 1088.29,-304 1088.29,4 -4,4"/>
<!-- Node1 -->
<g id="node1" class="node">
<title>Node1</title>
<g id="a_node1"><a xlink:title=" ">
<polygon fill="#bfbfbf" stroke="black" points="764.5,-280.5 764.5,-299.5 859.5,-299.5 859.5,-280.5 764.5,-280.5"/>
<text text-anchor="middle" x="812" y="-287.5" font-family="Helvetica,sans-Serif" font-size="10.00">src/utils/imgui.h</text>
</a>
</g>
</g>
<!-- Node2 -->
<g id="node2" class="node">
<title>Node2</title>
<g id="a_node2"><a xlink:href="button_8cpp.html" target="_top" xlink:title=" ">
<polygon fill="white" stroke="black" points="0,-112.5 0,-131.5 158,-131.5 158,-112.5 0,-112.5"/>
<text text-anchor="middle" x="79" y="-119.5" font-family="Helvetica,sans-Serif" font-size="10.00">src/user_interface/button.cpp</text>
</a>
</g>
</g>
<!-- Node1&#45;&gt;Node2 -->
<g id="edge1" class="edge">
<title>Node1&#45;&gt;Node2</title>
<path fill="none" stroke="midnightblue" d="M753.98,-285.39C588.25,-274.49 121.8,-239.46 78,-188 64.54,-172.19 70.95,-145.53 75.61,-131.78"/>
<polygon fill="midnightblue" stroke="midnightblue" points="754.25,-288.92 764.46,-286.07 754.7,-281.93 754.25,-288.92"/>
</g>
<!-- Node3 -->
<g id="node3" class="node">
<title>Node3</title>
<g id="a_node3"><a xlink:href="button_8h.html" target="_top" xlink:title=" ">
<polygon fill="white" stroke="black" points="87.5,-168.5 87.5,-187.5 234.5,-187.5 234.5,-168.5 87.5,-168.5"/>
<text text-anchor="middle" x="161" y="-175.5" font-family="Helvetica,sans-Serif" font-size="10.00">src/user_interface/button.h</text>
</a>
</g>
</g>
<!-- Node1&#45;&gt;Node3 -->
<g id="edge2" class="edge">
<title>Node1&#45;&gt;Node3</title>
<path fill="none" stroke="midnightblue" d="M754.19,-279.23C628.23,-257.95 330.83,-207.7 211.67,-187.56"/>
<polygon fill="midnightblue" stroke="midnightblue" points="753.95,-282.74 764.39,-280.96 755.12,-275.84 753.95,-282.74"/>
</g>
<!-- Node8 -->
<g id="node8" class="node">
<title>Node8</title>
<g id="a_node8"><a xlink:href="selector_8cpp.html" target="_top" xlink:title=" ">
<polygon fill="white" stroke="black" points="539.5,-112.5 539.5,-131.5 704.5,-131.5 704.5,-112.5 539.5,-112.5"/>
<text text-anchor="middle" x="622" y="-119.5" font-family="Helvetica,sans-Serif" font-size="10.00">src/user_interface/selector.cpp</text>
</a>
</g>
</g>
<!-- Node1&#45;&gt;Node8 -->
<g id="edge9" class="edge">
<title>Node1&#45;&gt;Node8</title>
<path fill="none" stroke="midnightblue" d="M869.69,-279.64C952.29,-263.91 1088.71,-227.88 1035,-168 1032.26,-164.95 824.67,-143.49 704.89,-131.34"/>
<polygon fill="midnightblue" stroke="midnightblue" points="868.84,-276.23 859.65,-281.5 870.12,-283.12 868.84,-276.23"/>
</g>
<!-- Node9 -->
<g id="node9" class="node">
<title>Node9</title>
<g id="a_node9"><a xlink:href="top__viewer_8cpp.html" target="_top" xlink:title=" ">
<polygon fill="white" stroke="black" points="723,-112.5 723,-131.5 903,-131.5 903,-112.5 723,-112.5"/>
<text text-anchor="middle" x="813" y="-119.5" font-family="Helvetica,sans-Serif" font-size="10.00">src/user_interface/top_viewer.cpp</text>
</a>
</g>
</g>
<!-- Node1&#45;&gt;Node9 -->
<g id="edge10" class="edge">
<title>Node1&#45;&gt;Node9</title>
<path fill="none" stroke="midnightblue" d="M869.75,-287.18C937.34,-283.7 1043.2,-273.54 1068,-244 1089.72,-218.13 1089.71,-193.88 1068,-168 1056.48,-154.27 960.33,-140.18 889.47,-131.51"/>
<polygon fill="midnightblue" stroke="midnightblue" points="869.48,-283.69 859.66,-287.67 869.82,-290.68 869.48,-283.69"/>
</g>
<!-- Node10 -->
<g id="node10" class="node">
<title>Node10</title>
<g id="a_node10"><a xlink:href="ui_8cpp.html" target="_top" xlink:title=" ">
<polygon fill="white" stroke="black" points="890,-168.5 890,-187.5 1026,-187.5 1026,-168.5 890,-168.5"/>
<text text-anchor="middle" x="958" y="-175.5" font-family="Helvetica,sans-Serif" font-size="10.00">src/user_interface/ui.cpp</text>
</a>
</g>
</g>
<!-- Node1&#45;&gt;Node10 -->
<g id="edge11" class="edge">
<title>Node1&#45;&gt;Node10</title>
<path fill="none" stroke="midnightblue" d="M831.75,-274.12C862.74,-250.77 921.81,-206.27 946.6,-187.59"/>
<polygon fill="midnightblue" stroke="midnightblue" points="829.34,-271.56 823.46,-280.37 833.55,-277.15 829.34,-271.56"/>
</g>
<!-- Node11 -->
<g id="node11" class="node">
<title>Node11</title>
<g id="a_node11"><a xlink:href="ui_8h.html" target="_top" xlink:title=" ">
<polygon fill="white" stroke="black" points="555.5,-224.5 555.5,-243.5 680.5,-243.5 680.5,-224.5 555.5,-224.5"/>
<text text-anchor="middle" x="618" y="-231.5" font-family="Helvetica,sans-Serif" font-size="10.00">src/user_interface/ui.h</text>
</a>
</g>
</g>
<!-- Node1&#45;&gt;Node11 -->
<g id="edge12" class="edge">
<title>Node1&#45;&gt;Node11</title>
<path fill="none" stroke="midnightblue" d="M771.4,-277.7C734.78,-267.51 681.74,-252.74 648.6,-243.52"/>
<polygon fill="midnightblue" stroke="midnightblue" points="770.69,-281.13 781.26,-280.44 772.56,-274.39 770.69,-281.13"/>
</g>
<!-- Node3&#45;&gt;Node2 -->
<g id="edge3" class="edge">
<title>Node3&#45;&gt;Node2</title>
<path fill="none" stroke="midnightblue" d="M139.17,-162.62C124.19,-152.76 104.8,-139.99 92.14,-131.65"/>
<polygon fill="midnightblue" stroke="midnightblue" points="137.55,-165.75 147.83,-168.32 141.4,-159.9 137.55,-165.75"/>
</g>
<!-- Node4 -->
<g id="node4" class="node">
<title>Node4</title>
<g id="a_node4"><a xlink:href="user__interface_8h.html" target="_top" xlink:title=" ">
<polygon fill="white" stroke="black" points="408.5,-112.5 408.5,-131.5 521.5,-131.5 521.5,-112.5 408.5,-112.5"/>
<text text-anchor="middle" x="465" y="-119.5" font-family="Helvetica,sans-Serif" font-size="10.00">src/user_interface.h</text>
</a>
</g>
</g>
<!-- Node3&#45;&gt;Node4 -->
<g id="edge4" class="edge">
<title>Node3&#45;&gt;Node4</title>
<path fill="none" stroke="midnightblue" d="M219.19,-166.66C276.64,-156.46 363.45,-141.04 417.06,-131.52"/>
<polygon fill="midnightblue" stroke="midnightblue" points="218.4,-163.25 209.17,-168.44 219.63,-170.14 218.4,-163.25"/>
</g>
<!-- Node5 -->
<g id="node5" class="node">
<title>Node5</title>
<g id="a_node5"><a xlink:href="app_2main_8cpp.html" target="_top" xlink:title=" ">
<polygon fill="white" stroke="black" points="744.5,-56.5 744.5,-75.5 827.5,-75.5 827.5,-56.5 744.5,-56.5"/>
<text text-anchor="middle" x="786" y="-63.5" font-family="Helvetica,sans-Serif" font-size="10.00">app/main.cpp</text>
</a>
</g>
</g>
<!-- Node4&#45;&gt;Node5 -->
<g id="edge5" class="edge">
<title>Node4&#45;&gt;Node5</title>
<path fill="none" stroke="midnightblue" d="M525.8,-110.77C589.66,-100.03 688.39,-83.42 744.07,-74.05"/>
<polygon fill="midnightblue" stroke="midnightblue" points="525.14,-107.33 515.86,-112.44 526.31,-114.24 525.14,-107.33"/>
</g>
<!-- Node6 -->
<g id="node6" class="node">
<title>Node6</title>
<g id="a_node6"><a xlink:href="application_8cpp.html" target="_top" xlink:title=" ">
<polygon fill="white" stroke="black" points="582,-0.5 582,-19.5 690,-19.5 690,-0.5 582,-0.5"/>
<text text-anchor="middle" x="636" y="-7.5" font-family="Helvetica,sans-Serif" font-size="10.00">src/application.cpp</text>
</a>
</g>
</g>
<!-- Node4&#45;&gt;Node6 -->
<g id="edge6" class="edge">
<title>Node4&#45;&gt;Node6</title>
<path fill="none" stroke="midnightblue" d="M487.21,-106.71C523.24,-83.53 593.36,-38.43 622.64,-19.59"/>
<polygon fill="midnightblue" stroke="midnightblue" points="484.93,-104.01 478.42,-112.37 488.72,-109.9 484.93,-104.01"/>
</g>
<!-- Node7 -->
<g id="node7" class="node">
<title>Node7</title>
<g id="a_node7"><a xlink:href="application_8h.html" target="_top" xlink:title=" ">
<polygon fill="white" stroke="black" points="587.5,-56.5 587.5,-75.5 684.5,-75.5 684.5,-56.5 587.5,-56.5"/>
<text text-anchor="middle" x="636" y="-63.5" font-family="Helvetica,sans-Serif" font-size="10.00">src/application.h</text>
</a>
</g>
</g>
<!-- Node4&#45;&gt;Node7 -->
<g id="edge7" class="edge">
<title>Node4&#45;&gt;Node7</title>
<path fill="none" stroke="midnightblue" d="M502.04,-109.3C534.26,-99.13 580.19,-84.62 609.03,-75.52"/>
<polygon fill="midnightblue" stroke="midnightblue" points="500.58,-106.09 492.1,-112.44 502.69,-112.77 500.58,-106.09"/>
</g>
<!-- Node7&#45;&gt;Node6 -->
<g id="edge8" class="edge">
<title>Node7&#45;&gt;Node6</title>
<path fill="none" stroke="midnightblue" d="M636,-45.8C636,-36.91 636,-26.78 636,-19.75"/>
<polygon fill="midnightblue" stroke="midnightblue" points="632.5,-46.08 636,-56.08 639.5,-46.08 632.5,-46.08"/>
</g>
<!-- Node11&#45;&gt;Node3 -->
<g id="edge13" class="edge">
<title>Node11&#45;&gt;Node3</title>
<path fill="none" stroke="midnightblue" d="M545.25,-224.4C459.62,-214.29 318.28,-197.58 232.98,-187.51"/>
<polygon fill="midnightblue" stroke="midnightblue" points="545.07,-227.91 555.41,-225.6 545.89,-220.96 545.07,-227.91"/>
</g>
<!-- Node11&#45;&gt;Node4 -->
<g id="edge24" class="edge">
<title>Node11&#45;&gt;Node4</title>
<path fill="none" stroke="midnightblue" d="M545.4,-222.11C523.16,-215.52 500.3,-204.95 484,-188 469.01,-172.4 465.75,-145.65 465.11,-131.83"/>
<polygon fill="midnightblue" stroke="midnightblue" points="544.65,-225.53 555.21,-224.78 546.48,-218.77 544.65,-225.53"/>
</g>
<!-- Node11&#45;&gt;Node10 -->
<g id="edge23" class="edge">
<title>Node11&#45;&gt;Node10</title>
<path fill="none" stroke="midnightblue" d="M681.88,-222.85C746.12,-212.65 844.05,-197.1 904.38,-187.52"/>
<polygon fill="midnightblue" stroke="midnightblue" points="681.2,-219.42 671.87,-224.44 682.3,-226.33 681.2,-219.42"/>
</g>
<!-- Node12 -->
<g id="node12" class="node">
<title>Node12</title>
<g id="a_node12"><a xlink:href="image__viewer_8h.html" target="_top" xlink:title=" ">
<polygon fill="white" stroke="black" points="253,-168.5 253,-187.5 437,-187.5 437,-168.5 253,-168.5"/>
<text text-anchor="middle" x="345" y="-175.5" font-family="Helvetica,sans-Serif" font-size="10.00">src/user_interface/image_viewer.h</text>
</a>
</g>
</g>
<!-- Node11&#45;&gt;Node12 -->
<g id="edge14" class="edge">
<title>Node11&#45;&gt;Node12</title>
<path fill="none" stroke="midnightblue" d="M564.78,-222.47C513.19,-212.27 435.9,-196.98 388.06,-187.52"/>
<polygon fill="midnightblue" stroke="midnightblue" points="564.25,-225.94 574.74,-224.44 565.61,-219.07 564.25,-225.94"/>
</g>
<!-- Node14 -->
<g id="node14" class="node">
<title>Node14</title>
<g id="a_node14"><a xlink:href="selector_8h.html" target="_top" xlink:title=" ">
<polygon fill="white" stroke="black" points="493,-168.5 493,-187.5 647,-187.5 647,-168.5 493,-168.5"/>
<text text-anchor="middle" x="570" y="-175.5" font-family="Helvetica,sans-Serif" font-size="10.00">src/user_interface/selector.h</text>
</a>
</g>
</g>
<!-- Node11&#45;&gt;Node14 -->
<g id="edge17" class="edge">
<title>Node11&#45;&gt;Node14</title>
<path fill="none" stroke="midnightblue" d="M603.27,-216.43C594.86,-206.97 584.65,-195.48 577.78,-187.75"/>
<polygon fill="midnightblue" stroke="midnightblue" points="600.81,-218.93 610.07,-224.08 606.05,-214.28 600.81,-218.93"/>
</g>
<!-- Node15 -->
<g id="node15" class="node">
<title>Node15</title>
<g id="a_node15"><a xlink:href="top__viewer_8h.html" target="_top" xlink:title=" ">
<polygon fill="white" stroke="black" points="665.5,-168.5 665.5,-187.5 834.5,-187.5 834.5,-168.5 665.5,-168.5"/>
<text text-anchor="middle" x="750" y="-175.5" font-family="Helvetica,sans-Serif" font-size="10.00">src/user_interface/top_viewer.h</text>
</a>
</g>
</g>
<!-- Node11&#45;&gt;Node15 -->
<g id="edge20" class="edge">
<title>Node11&#45;&gt;Node15</title>
<path fill="none" stroke="midnightblue" d="M648.22,-220.64C672.99,-210.5 707.4,-196.43 729.18,-187.52"/>
<polygon fill="midnightblue" stroke="midnightblue" points="646.85,-217.42 638.92,-224.44 649.5,-223.9 646.85,-217.42"/>
</g>
<!-- Node16 -->
<g id="node16" class="node">
<title>Node16</title>
<g id="a_node16"><a xlink:href="window_8h.html" target="_top" xlink:title=" ">
<polygon fill="white" stroke="black" points="921,-112.5 921,-131.5 1001,-131.5 1001,-112.5 921,-112.5"/>
<text text-anchor="middle" x="961" y="-119.5" font-family="Helvetica,sans-Serif" font-size="10.00">src/window.h</text>
</a>
</g>
</g>
<!-- Node11&#45;&gt;Node16 -->
<g id="edge25" class="edge">
<title>Node11&#45;&gt;Node16</title>
<path fill="none" stroke="midnightblue" d="M690.8,-224.37C735.88,-217.6 794.42,-206.2 844,-188 846.69,-187.01 914.52,-149.05 945.65,-131.61"/>
<polygon fill="midnightblue" stroke="midnightblue" points="690.2,-220.92 680.81,-225.82 691.21,-227.84 690.2,-220.92"/>
</g>
<!-- Node12&#45;&gt;Node4 -->
<g id="edge16" class="edge">
<title>Node12&#45;&gt;Node4</title>
<path fill="none" stroke="midnightblue" d="M373.37,-164.23C395.82,-154.13 426.54,-140.31 446.07,-131.52"/>
<polygon fill="midnightblue" stroke="midnightblue" points="371.7,-161.15 364.01,-168.44 374.57,-167.53 371.7,-161.15"/>
</g>
<!-- Node13 -->
<g id="node13" class="node">
<title>Node13</title>
<g id="a_node13"><a xlink:href="image__viewer_8cpp.html" target="_top" xlink:title=" ">
<polygon fill="white" stroke="black" points="195.5,-112.5 195.5,-131.5 390.5,-131.5 390.5,-112.5 195.5,-112.5"/>
<text text-anchor="middle" x="293" y="-119.5" font-family="Helvetica,sans-Serif" font-size="10.00">src/user_interface/image_viewer.cpp</text>
</a>
</g>
</g>
<!-- Node12&#45;&gt;Node13 -->
<g id="edge15" class="edge">
<title>Node12&#45;&gt;Node13</title>
<path fill="none" stroke="midnightblue" d="M329.32,-160.72C320.16,-151.2 308.95,-139.56 301.43,-131.75"/>
<polygon fill="midnightblue" stroke="midnightblue" points="326.96,-163.31 336.41,-168.08 332,-158.45 326.96,-163.31"/>
</g>
<!-- Node14&#45;&gt;Node4 -->
<g id="edge19" class="edge">
<title>Node14&#45;&gt;Node4</title>
<path fill="none" stroke="midnightblue" d="M544.19,-163.73C524.75,-153.73 498.65,-140.31 481.83,-131.65"/>
<polygon fill="midnightblue" stroke="midnightblue" points="542.64,-166.86 553.13,-168.32 545.84,-160.64 542.64,-166.86"/>
</g>
<!-- Node14&#45;&gt;Node8 -->
<g id="edge18" class="edge">
<title>Node14&#45;&gt;Node8</title>
<path fill="none" stroke="midnightblue" d="M585.68,-160.72C594.84,-151.2 606.05,-139.56 613.57,-131.75"/>
<polygon fill="midnightblue" stroke="midnightblue" points="583,-158.45 578.59,-168.08 588.04,-163.31 583,-158.45"/>
</g>
<!-- Node15&#45;&gt;Node4 -->
<g id="edge22" class="edge">
<title>Node15&#45;&gt;Node4</title>
<path fill="none" stroke="midnightblue" d="M694.78,-166.54C640.92,-156.33 560,-141 509.95,-131.52"/>
<polygon fill="midnightblue" stroke="midnightblue" points="694.36,-170.02 704.84,-168.44 695.67,-163.14 694.36,-170.02"/>
</g>
<!-- Node15&#45;&gt;Node9 -->
<g id="edge21" class="edge">
<title>Node15&#45;&gt;Node9</title>
<path fill="none" stroke="midnightblue" d="M768.04,-161.54C779.27,-151.91 793.32,-139.87 802.69,-131.83"/>
<polygon fill="midnightblue" stroke="midnightblue" points="765.44,-159.16 760.12,-168.32 769.99,-164.47 765.44,-159.16"/>
</g>
<!-- Node16&#45;&gt;Node5 -->
<g id="edge26" class="edge">
<title>Node16&#45;&gt;Node5</title>
<path fill="none" stroke="midnightblue" d="M923.53,-109.44C890.53,-99.26 843.24,-84.66 813.6,-75.52"/>
<polygon fill="midnightblue" stroke="midnightblue" points="922.68,-112.84 933.27,-112.44 924.75,-106.15 922.68,-112.84"/>
</g>
<!-- Node16&#45;&gt;Node6 -->
<g id="edge27" class="edge">
<title>Node16&#45;&gt;Node6</title>
<path fill="none" stroke="midnightblue" d="M938.67,-106.99C914.45,-92.35 874.27,-69.67 837,-56 788.82,-38.33 731.5,-26.33 690.42,-19.2"/>
<polygon fill="midnightblue" stroke="midnightblue" points="937.06,-110.11 947.42,-112.35 940.72,-104.14 937.06,-110.11"/>
</g>
<!-- Node16&#45;&gt;Node7 -->
<g id="edge28" class="edge">
<title>Node16&#45;&gt;Node7</title>
<path fill="none" stroke="midnightblue" d="M910.79,-111.82C825.6,-97.11 738.01,-83.07 684.91,-74.67"/>
<polygon fill="midnightblue" stroke="midnightblue" points="910.45,-115.31 920.9,-113.57 911.64,-108.41 910.45,-115.31"/>
</g>
<!-- Node17 -->
<g id="node17" class="node">
<title>Node17</title>
<g id="a_node17"><a xlink:href="window_8cpp.html" target="_top" xlink:title=" ">
<polygon fill="white" stroke="black" points="915.5,-56.5 915.5,-75.5 1006.5,-75.5 1006.5,-56.5 915.5,-56.5"/>
<text text-anchor="middle" x="961" y="-63.5" font-family="Helvetica,sans-Serif" font-size="10.00">src/window.cpp</text>
</a>
</g>
</g>
<!-- Node16&#45;&gt;Node17 -->
<g id="edge29" class="edge">
<title>Node16&#45;&gt;Node17</title>
<path fill="none" stroke="midnightblue" d="M961,-101.8C961,-92.91 961,-82.78 961,-75.75"/>
<polygon fill="midnightblue" stroke="midnightblue" points="957.5,-102.08 961,-112.08 964.5,-102.08 957.5,-102.08"/>
</g>
</g>
</svg>
