<?xml version="1.0" encoding="UTF-8" standalone="no"?>
<!DOCTYPE svg PUBLIC "-//W3C//DTD SVG 1.1//EN"
 "http://www.w3.org/Graphics/SVG/1.1/DTD/svg11.dtd">
<!-- Generated by graphviz version 2.43.0 (0)
 -->
<!-- Title: Graphical Class Hierarchy Pages: 1 -->
<svg width="469pt" height="294pt"
 viewBox="0.00 0.00 469.00 294.00" xmlns="http://www.w3.org/2000/svg" xmlns:xlink="http://www.w3.org/1999/xlink">
<g id="graph0" class="graph" transform="scale(1 1) rotate(0) translate(4 290)">
<title>Graphical Class Hierarchy</title>
<polygon fill="white" stroke="transparent" points="-4,4 -4,-290 465,-290 465,4 -4,4"/>
<!-- Node0 -->
<g id="node1" class="node">
<title>Node0</title>
<g id="a_node1"><a xlink:href="structad__framework_1_1callback_1_1Callback.html" target="_top" xlink:title=" ">
<polygon fill="white" stroke="black" points="0,-133.5 0,-152.5 182,-152.5 182,-133.5 0,-133.5"/>
<text text-anchor="middle" x="91" y="-140.5" font-family="Helvetica,sans-Serif" font-size="10.00">ad_framework::callback::Callback</text>
</a>
</g>
</g>
<!-- Node1 -->
<g id="node2" class="node">
<title>Node1</title>
<g id="a_node2"><a xlink:href="classSampleCallback.html" target="_top" xlink:title=" ">
<polygon fill="white" stroke="black" points="292,-266.5 292,-285.5 387,-285.5 387,-266.5 292,-266.5"/>
<text text-anchor="middle" x="339.5" y="-273.5" font-family="Helvetica,sans-Serif" font-size="10.00">SampleCallback</text>
</a>
</g>
</g>
<!-- Node0&#45;&gt;Node1 -->
<g id="edge1" class="edge">
<title>Node0&#45;&gt;Node1</title>
<path fill="none" stroke="midnightblue" d="M105.53,-160.48C126.56,-186.27 169.7,-233.91 218,-257 240.83,-267.92 268.61,-272.78 291.73,-274.86"/>
<polygon fill="midnightblue" stroke="midnightblue" points="108.25,-158.28 99.28,-152.65 102.78,-162.65 108.25,-158.28"/>
</g>
<!-- Node2 -->
<g id="node3" class="node">
<title>Node2</title>
<g id="a_node3"><a xlink:href="classad__framework_1_1callback_1_1NullCallback.html" target="_top" xlink:title=" ">
<polygon fill="white" stroke="black" points="239,-228.5 239,-247.5 440,-247.5 440,-228.5 239,-228.5"/>
<text text-anchor="middle" x="339.5" y="-235.5" font-family="Helvetica,sans-Serif" font-size="10.00">ad_framework::callback::NullCallback</text>
</a>
</g>
</g>
<!-- Node0&#45;&gt;Node2 -->
<g id="edge2" class="edge">
<title>Node0&#45;&gt;Node2</title>
<path fill="none" stroke="midnightblue" d="M112.69,-158.97C136.66,-176.6 177.99,-204.41 218,-219 228.74,-222.92 240.32,-226.03 251.89,-228.5"/>
<polygon fill="midnightblue" stroke="midnightblue" points="114.5,-155.95 104.4,-152.76 110.3,-161.55 114.5,-155.95"/>
</g>
<!-- Node3 -->
<g id="node4" class="node">
<title>Node3</title>
<g id="a_node4"><a xlink:href="classad__framework_1_1ui_1_1Button_1_1ButtonChanger.html" target="_top" xlink:title=" ">
<polygon fill="white" stroke="black" points="230,-190.5 230,-209.5 449,-209.5 449,-190.5 230,-190.5"/>
<text text-anchor="middle" x="339.5" y="-197.5" font-family="Helvetica,sans-Serif" font-size="10.00">ad_framework::ui::Button::ButtonChanger</text>
</a>
</g>
</g>
<!-- Node0&#45;&gt;Node3 -->
<g id="edge3" class="edge">
<title>Node0&#45;&gt;Node3</title>
<path fill="none" stroke="midnightblue" d="M129.49,-155.77C154.36,-163.88 187.85,-174.11 218,-181 233.9,-184.63 251.13,-187.8 267.46,-190.45"/>
<polygon fill="midnightblue" stroke="midnightblue" points="130.33,-152.36 119.73,-152.56 128.13,-159.01 130.33,-152.36"/>
</g>
<!-- Node4 -->
<g id="node5" class="node">
<title>Node4</title>
<g id="a_node5"><a xlink:href="classad__framework_1_1ui_1_1ImageViewer_1_1ImageSender.html" target="_top" xlink:title=" ">
<polygon fill="white" stroke="black" points="218,-152.5 218,-171.5 461,-171.5 461,-152.5 218,-152.5"/>
<text text-anchor="middle" x="339.5" y="-159.5" font-family="Helvetica,sans-Serif" font-size="10.00">ad_framework::ui::ImageViewer::ImageSender</text>
</a>
</g>
</g>
<!-- Node0&#45;&gt;Node4 -->
<g id="edge4" class="edge">
<title>Node0&#45;&gt;Node4</title>
<path fill="none" stroke="midnightblue" d="M192.27,-150.73C200.73,-151.38 209.34,-152.04 217.94,-152.71"/>
<polygon fill="midnightblue" stroke="midnightblue" points="192.28,-147.22 182.04,-149.94 191.74,-154.2 192.28,-147.22"/>
</g>
<!-- Node5 -->
<g id="node6" class="node">
<title>Node5</title>
<g id="a_node6"><a xlink:href="classad__framework_1_1ui_1_1Selector_1_1ItemListSender.html" target="_top" xlink:title=" ">
<polygon fill="white" stroke="black" points="226,-114.5 226,-133.5 453,-133.5 453,-114.5 226,-114.5"/>
<text text-anchor="middle" x="339.5" y="-121.5" font-family="Helvetica,sans-Serif" font-size="10.00">ad_framework::ui::Selector::ItemListSender</text>
</a>
</g>
</g>
<!-- Node0&#45;&gt;Node5 -->
<g id="edge5" class="edge">
<title>Node0&#45;&gt;Node5</title>
<path fill="none" stroke="midnightblue" d="M192.09,-135.28C203.13,-134.43 214.43,-133.56 225.61,-132.7"/>
<polygon fill="midnightblue" stroke="midnightblue" points="191.74,-131.8 182.04,-136.06 192.28,-138.78 191.74,-131.8"/>
</g>
<!-- Node6 -->
<g id="node7" class="node">
<title>Node6</title>
<g id="a_node7"><a xlink:href="classad__framework_1_1ui_1_1Selector_1_1ItemReciever.html" target="_top" xlink:title=" ">
<polygon fill="white" stroke="black" points="230,-76.5 230,-95.5 449,-95.5 449,-76.5 230,-76.5"/>
<text text-anchor="middle" x="339.5" y="-83.5" font-family="Helvetica,sans-Serif" font-size="10.00">ad_framework::ui::Selector::ItemReciever</text>
</a>
</g>
</g>
<!-- Node0&#45;&gt;Node6 -->
<g id="edge6" class="edge">
<title>Node0&#45;&gt;Node6</title>
<path fill="none" stroke="midnightblue" d="M129.49,-130.23C154.36,-122.12 187.85,-111.89 218,-105 233.9,-101.37 251.13,-98.2 267.46,-95.55"/>
<polygon fill="midnightblue" stroke="midnightblue" points="128.13,-126.99 119.73,-133.44 130.33,-133.64 128.13,-126.99"/>
</g>
<!-- Node7 -->
<g id="node8" class="node">
<title>Node7</title>
<g id="a_node8"><a xlink:href="classad__framework_1_1ui_1_1TopViewer_1_1FrameDrawer.html" target="_top" xlink:title=" ">
<polygon fill="white" stroke="black" points="224.5,-38.5 224.5,-57.5 454.5,-57.5 454.5,-38.5 224.5,-38.5"/>
<text text-anchor="middle" x="339.5" y="-45.5" font-family="Helvetica,sans-Serif" font-size="10.00">ad_framework::ui::TopViewer::FrameDrawer</text>
</a>
</g>
</g>
<!-- Node0&#45;&gt;Node7 -->
<g id="edge7" class="edge">
<title>Node0&#45;&gt;Node7</title>
<path fill="none" stroke="midnightblue" d="M112.69,-127.03C136.66,-109.4 177.99,-81.59 218,-67 228.74,-63.08 240.32,-59.97 251.89,-57.5"/>
<polygon fill="midnightblue" stroke="midnightblue" points="110.3,-124.45 104.4,-133.24 114.5,-130.05 110.3,-124.45"/>
</g>
<!-- Node8 -->
<g id="node9" class="node">
<title>Node8</title>
<g id="a_node9"><a xlink:href="classad__framework_1_1ui_1_1TopViewer_1_1FrameSender.html" target="_top" xlink:title=" ">
<polygon fill="white" stroke="black" points="225,-0.5 225,-19.5 454,-19.5 454,-0.5 225,-0.5"/>
<text text-anchor="middle" x="339.5" y="-7.5" font-family="Helvetica,sans-Serif" font-size="10.00">ad_framework::ui::TopViewer::FrameSender</text>
</a>
</g>
</g>
<!-- Node0&#45;&gt;Node8 -->
<g id="edge8" class="edge">
<title>Node0&#45;&gt;Node8</title>
<path fill="none" stroke="midnightblue" d="M105.53,-125.52C126.56,-99.73 169.7,-52.09 218,-29 226.12,-25.12 234.87,-22 243.81,-19.5"/>
<polygon fill="midnightblue" stroke="midnightblue" points="102.78,-123.35 99.28,-133.35 108.25,-127.72 102.78,-123.35"/>
</g>
</g>
</svg>
