<?xml version="1.0" encoding="UTF-8" standalone="no"?>
<!DOCTYPE svg PUBLIC "-//W3C//DTD SVG 1.1//EN"
 "http://www.w3.org/Graphics/SVG/1.1/DTD/svg11.dtd">
<!-- Generated by graphviz version 2.43.0 (0)
 -->
<!-- Title: Graphical Class Hierarchy Pages: 1 -->
<svg width="469pt" height="218pt"
 viewBox="0.00 0.00 469.00 218.00" xmlns="http://www.w3.org/2000/svg" xmlns:xlink="http://www.w3.org/1999/xlink">
<g id="graph0" class="graph" transform="scale(1 1) rotate(0) translate(4 214)">
<title>Graphical Class Hierarchy</title>
<polygon fill="white" stroke="transparent" points="-4,4 -4,-214 465,-214 465,4 -4,4"/>
<!-- Node0 -->
<g id="node1" class="node">
<title>Node0</title>
<g id="a_node1"><a xlink:href="structad__framework_1_1callback_1_1Callback.html" target="_top" xlink:title=" ">
<polygon fill="white" stroke="black" points="0,-95.5 0,-114.5 182,-114.5 182,-95.5 0,-95.5"/>
<text text-anchor="middle" x="91" y="-102.5" font-family="Helvetica,sans-Serif" font-size="10.00">ad_framework::callback::Callback</text>
</a>
</g>
</g>
<!-- Node1 -->
<g id="node2" class="node">
<title>Node1</title>
<g id="a_node2"><a xlink:href="classSampleCallback.html" target="_top" xlink:title=" ">
<polygon fill="white" stroke="black" points="292,-190.5 292,-209.5 387,-209.5 387,-190.5 292,-190.5"/>
<text text-anchor="middle" x="339.5" y="-197.5" font-family="Helvetica,sans-Serif" font-size="10.00">SampleCallback</text>
</a>
</g>
</g>
<!-- Node0&#45;&gt;Node1 -->
<g id="edge1" class="edge">
<title>Node0&#45;&gt;Node1</title>
<path fill="none" stroke="midnightblue" d="M112.69,-120.97C136.66,-138.6 177.99,-166.41 218,-181 241.58,-189.6 269.15,-194.3 291.96,-196.88"/>
<polygon fill="midnightblue" stroke="midnightblue" points="114.5,-117.95 104.4,-114.76 110.3,-123.55 114.5,-117.95"/>
</g>
<!-- Node2 -->
<g id="node3" class="node">
<title>Node2</title>
<g id="a_node3"><a xlink:href="classad__framework_1_1callback_1_1NullCallback.html" target="_top" xlink:title=" ">
<polygon fill="white" stroke="black" points="239,-152.5 239,-171.5 440,-171.5 440,-152.5 239,-152.5"/>
<text text-anchor="middle" x="339.5" y="-159.5" font-family="Helvetica,sans-Serif" font-size="10.00">ad_framework::callback::NullCallback</text>
</a>
</g>
</g>
<!-- Node0&#45;&gt;Node2 -->
<g id="edge2" class="edge">
<title>Node0&#45;&gt;Node2</title>
<path fill="none" stroke="midnightblue" d="M129.49,-117.77C154.36,-125.88 187.85,-136.11 218,-143 233.9,-146.63 251.13,-149.8 267.46,-152.45"/>
<polygon fill="midnightblue" stroke="midnightblue" points="130.33,-114.36 119.73,-114.56 128.13,-121.01 130.33,-114.36"/>
</g>
<!-- Node3 -->
<g id="node4" class="node">
<title>Node3</title>
<g id="a_node4"><a xlink:href="classad__framework_1_1ui_1_1Button_1_1ButtonChanger.html" target="_top" xlink:title=" ">
<polygon fill="white" stroke="black" points="230,-114.5 230,-133.5 449,-133.5 449,-114.5 230,-114.5"/>
<text text-anchor="middle" x="339.5" y="-121.5" font-family="Helvetica,sans-Serif" font-size="10.00">ad_framework::ui::Button::ButtonChanger</text>
</a>
</g>
</g>
<!-- Node0&#45;&gt;Node3 -->
<g id="edge3" class="edge">
<title>Node0&#45;&gt;Node3</title>
<path fill="none" stroke="midnightblue" d="M192.34,-112.73C204.7,-113.69 217.38,-114.66 229.85,-115.63"/>
<polygon fill="midnightblue" stroke="midnightblue" points="192.28,-109.22 182.04,-111.94 191.74,-116.2 192.28,-109.22"/>
</g>
<!-- Node4 -->
<g id="node5" class="node">
<title>Node4</title>
<g id="a_node5"><a xlink:href="classad__framework_1_1ui_1_1ImageViewer_1_1ImageSender.html" target="_top" xlink:title=" ">
<polygon fill="white" stroke="black" points="218,-76.5 218,-95.5 461,-95.5 461,-76.5 218,-76.5"/>
<text text-anchor="middle" x="339.5" y="-83.5" font-family="Helvetica,sans-Serif" font-size="10.00">ad_framework::ui::ImageViewer::ImageSender</text>
</a>
</g>
</g>
<!-- Node0&#45;&gt;Node4 -->
<g id="edge4" class="edge">
<title>Node0&#45;&gt;Node4</title>
<path fill="none" stroke="midnightblue" d="M192.27,-97.27C200.73,-96.62 209.34,-95.96 217.94,-95.29"/>
<polygon fill="midnightblue" stroke="midnightblue" points="191.74,-93.8 182.04,-98.06 192.28,-100.78 191.74,-93.8"/>
</g>
<!-- Node5 -->
<g id="node6" class="node">
<title>Node5</title>
<g id="a_node6"><a xlink:href="classad__framework_1_1ui_1_1Selector_1_1ItemListSender.html" target="_top" xlink:title=" ">
<polygon fill="white" stroke="black" points="226,-38.5 226,-57.5 453,-57.5 453,-38.5 226,-38.5"/>
<text text-anchor="middle" x="339.5" y="-45.5" font-family="Helvetica,sans-Serif" font-size="10.00">ad_framework::ui::Selector::ItemListSender</text>
</a>
</g>
</g>
<!-- Node0&#45;&gt;Node5 -->
<g id="edge5" class="edge">
<title>Node0&#45;&gt;Node5</title>
<path fill="none" stroke="midnightblue" d="M129.49,-92.23C154.36,-84.12 187.85,-73.89 218,-67 233.9,-63.37 251.13,-60.2 267.46,-57.55"/>
<polygon fill="midnightblue" stroke="midnightblue" points="128.13,-88.99 119.73,-95.44 130.33,-95.64 128.13,-88.99"/>
</g>
<!-- Node6 -->
<g id="node7" class="node">
<title>Node6</title>
<g id="a_node7"><a xlink:href="classad__framework_1_1ui_1_1Selector_1_1ItemReciever.html" target="_top" xlink:title=" ">
<polygon fill="white" stroke="black" points="230,-0.5 230,-19.5 449,-19.5 449,-0.5 230,-0.5"/>
<text text-anchor="middle" x="339.5" y="-7.5" font-family="Helvetica,sans-Serif" font-size="10.00">ad_framework::ui::Selector::ItemReciever</text>
</a>
</g>
</g>
<!-- Node0&#45;&gt;Node6 -->
<g id="edge6" class="edge">
<title>Node0&#45;&gt;Node6</title>
<path fill="none" stroke="midnightblue" d="M112.69,-89.03C136.66,-71.4 177.99,-43.59 218,-29 228.74,-25.08 240.32,-21.97 251.89,-19.5"/>
<polygon fill="midnightblue" stroke="midnightblue" points="110.3,-86.45 104.4,-95.24 114.5,-92.05 110.3,-86.45"/>
</g>
</g>
</svg>
