<?xml version="1.0" encoding="UTF-8" standalone="no"?>
<!DOCTYPE svg PUBLIC "-//W3C//DTD SVG 1.1//EN"
 "http://www.w3.org/Graphics/SVG/1.1/DTD/svg11.dtd">
<!-- Generated by graphviz version 2.43.0 (0)
 -->
<!-- Title: Graphical Class Hierarchy Pages: 1 -->
<svg width="461pt" height="180pt"
 viewBox="0.00 0.00 461.00 180.00" xmlns="http://www.w3.org/2000/svg" xmlns:xlink="http://www.w3.org/1999/xlink">
<g id="graph0" class="graph" transform="scale(1 1) rotate(0) translate(4 176)">
<title>Graphical Class Hierarchy</title>
<polygon fill="white" stroke="transparent" points="-4,4 -4,-176 457,-176 457,4 -4,4"/>
<!-- Node0 -->
<g id="node1" class="node">
<title>Node0</title>
<g id="a_node1"><a xlink:href="classad__framework_1_1application_1_1Pannel.html" target="_top" xlink:title=" ">
<polygon fill="white" stroke="black" points="0,-76.5 0,-95.5 185,-95.5 185,-76.5 0,-76.5"/>
<text text-anchor="middle" x="92.5" y="-83.5" font-family="Helvetica,sans-Serif" font-size="10.00">ad_framework::application::Pannel</text>
</a>
</g>
</g>
<!-- Node1 -->
<g id="node2" class="node">
<title>Node1</title>
<g id="a_node2"><a xlink:href="classad__framework_1_1application_1_1CamViewPannel.html" target="_top" xlink:title=" ">
<polygon fill="white" stroke="black" points="221,-152.5 221,-171.5 453,-171.5 453,-152.5 221,-152.5"/>
<text text-anchor="middle" x="337" y="-159.5" font-family="Helvetica,sans-Serif" font-size="10.00">ad_framework::application::CamViewPannel</text>
</a>
</g>
</g>
<!-- Node0&#45;&gt;Node1 -->
<g id="edge1" class="edge">
<title>Node0&#45;&gt;Node1</title>
<path fill="none" stroke="midnightblue" d="M120.05,-100.3C145.32,-113.31 184.76,-132.1 221,-143 233.79,-146.85 247.63,-149.97 261.13,-152.49"/>
<polygon fill="midnightblue" stroke="midnightblue" points="121.58,-97.15 111.1,-95.62 118.34,-103.35 121.58,-97.15"/>
</g>
<!-- Node2 -->
<g id="node3" class="node">
<title>Node2</title>
<g id="a_node3"><a xlink:href="classad__framework_1_1application_1_1ControlPannel.html" target="_top" xlink:title=" ">
<polygon fill="white" stroke="black" points="226.5,-114.5 226.5,-133.5 447.5,-133.5 447.5,-114.5 226.5,-114.5"/>
<text text-anchor="middle" x="337" y="-121.5" font-family="Helvetica,sans-Serif" font-size="10.00">ad_framework::application::ControlPannel</text>
</a>
</g>
</g>
<!-- Node0&#45;&gt;Node2 -->
<g id="edge2" class="edge">
<title>Node0&#45;&gt;Node2</title>
<path fill="none" stroke="midnightblue" d="M164.55,-97.13C199.63,-102.63 241.51,-109.19 275.09,-114.46"/>
<polygon fill="midnightblue" stroke="midnightblue" points="164.8,-93.63 154.38,-95.54 163.72,-100.55 164.8,-93.63"/>
</g>
<!-- Node3 -->
<g id="node4" class="node">
<title>Node3</title>
<g id="a_node4"><a xlink:href="classad__framework_1_1application_1_1DialogPannel.html" target="_top" xlink:title=" ">
<polygon fill="white" stroke="black" points="228.5,-76.5 228.5,-95.5 445.5,-95.5 445.5,-76.5 228.5,-76.5"/>
<text text-anchor="middle" x="337" y="-83.5" font-family="Helvetica,sans-Serif" font-size="10.00">ad_framework::application::DialogPannel</text>
</a>
</g>
</g>
<!-- Node0&#45;&gt;Node3 -->
<g id="edge3" class="edge">
<title>Node0&#45;&gt;Node3</title>
<path fill="none" stroke="midnightblue" d="M195.5,-86C206.34,-86 217.4,-86 228.3,-86"/>
<polygon fill="midnightblue" stroke="midnightblue" points="195.18,-82.5 185.18,-86 195.18,-89.5 195.18,-82.5"/>
</g>
<!-- Node4 -->
<g id="node5" class="node">
<title>Node4</title>
<g id="a_node5"><a xlink:href="classad__framework_1_1application_1_1MediaPannel.html" target="_top" xlink:title=" ">
<polygon fill="white" stroke="black" points="229.5,-38.5 229.5,-57.5 444.5,-57.5 444.5,-38.5 229.5,-38.5"/>
<text text-anchor="middle" x="337" y="-45.5" font-family="Helvetica,sans-Serif" font-size="10.00">ad_framework::application::MediaPannel</text>
</a>
</g>
</g>
<!-- Node0&#45;&gt;Node4 -->
<g id="edge4" class="edge">
<title>Node0&#45;&gt;Node4</title>
<path fill="none" stroke="midnightblue" d="M164.55,-74.87C199.63,-69.37 241.51,-62.81 275.09,-57.54"/>
<polygon fill="midnightblue" stroke="midnightblue" points="163.72,-71.45 154.38,-76.46 164.8,-78.37 163.72,-71.45"/>
</g>
<!-- Node5 -->
<g id="node6" class="node">
<title>Node5</title>
<g id="a_node6"><a xlink:href="classad__framework_1_1application_1_1TopViewPannel.html" target="_top" xlink:title="This class is for rendering the top view of measurements (from lidar, camera, radar,...">
<polygon fill="white" stroke="black" points="224,-0.5 224,-19.5 450,-19.5 450,-0.5 224,-0.5"/>
<text text-anchor="middle" x="337" y="-7.5" font-family="Helvetica,sans-Serif" font-size="10.00">ad_framework::application::TopViewPannel</text>
</a>
</g>
</g>
<!-- Node0&#45;&gt;Node5 -->
<g id="edge5" class="edge">
<title>Node0&#45;&gt;Node5</title>
<path fill="none" stroke="midnightblue" d="M120.05,-71.7C145.32,-58.69 184.76,-39.9 221,-29 233.79,-25.15 247.63,-22.03 261.13,-19.51"/>
<polygon fill="midnightblue" stroke="midnightblue" points="118.34,-68.65 111.1,-76.38 121.58,-74.85 118.34,-68.65"/>
</g>
</g>
</svg>
