<?xml version="1.0" encoding="UTF-8" standalone="no"?>
<!DOCTYPE svg PUBLIC "-//W3C//DTD SVG 1.1//EN"
 "http://www.w3.org/Graphics/SVG/1.1/DTD/svg11.dtd">
<!-- Generated by graphviz version 2.43.0 (0)
 -->
<!-- Title: Graphical Class Hierarchy Pages: 1 -->
<svg width="453pt" height="180pt"
 viewBox="0.00 0.00 453.00 180.00" xmlns="http://www.w3.org/2000/svg" xmlns:xlink="http://www.w3.org/1999/xlink">
<g id="graph0" class="graph" transform="scale(1 1) rotate(0) translate(4 176)">
<title>Graphical Class Hierarchy</title>
<polygon fill="white" stroke="transparent" points="-4,4 -4,-176 449,-176 449,4 -4,4"/>
<!-- Node0 -->
<g id="node1" class="node">
<title>Node0</title>
<g id="a_node1"><a xlink:href="structad__framework_1_1callback_1_1Callback.html" target="_top" xlink:title=" ">
<polygon fill="white" stroke="black" points="0,-76.5 0,-95.5 182,-95.5 182,-76.5 0,-76.5"/>
<text text-anchor="middle" x="91" y="-83.5" font-family="Helvetica,sans-Serif" font-size="10.00">ad_framework::callback::Callback</text>
</a>
</g>
</g>
<!-- Node1 -->
<g id="node2" class="node">
<title>Node1</title>
<g id="a_node2"><a xlink:href="classSampleCallback.html" target="_top" xlink:title=" ">
<polygon fill="white" stroke="black" points="284,-152.5 284,-171.5 379,-171.5 379,-152.5 284,-152.5"/>
<text text-anchor="middle" x="331.5" y="-159.5" font-family="Helvetica,sans-Serif" font-size="10.00">SampleCallback</text>
</a>
</g>
</g>
<!-- Node0&#45;&gt;Node1 -->
<g id="edge1" class="edge">
<title>Node0&#45;&gt;Node1</title>
<path fill="none" stroke="midnightblue" d="M118.23,-100.28C143.19,-113.28 182.16,-132.07 218,-143 239.22,-149.47 263.41,-153.92 283.9,-156.87"/>
<polygon fill="midnightblue" stroke="midnightblue" points="119.86,-97.18 109.38,-95.61 116.59,-103.37 119.86,-97.18"/>
</g>
<!-- Node2 -->
<g id="node3" class="node">
<title>Node2</title>
<g id="a_node3"><a xlink:href="classad__framework_1_1callback_1_1NullCallback.html" target="_top" xlink:title=" ">
<polygon fill="white" stroke="black" points="231,-114.5 231,-133.5 432,-133.5 432,-114.5 231,-114.5"/>
<text text-anchor="middle" x="331.5" y="-121.5" font-family="Helvetica,sans-Serif" font-size="10.00">ad_framework::callback::NullCallback</text>
</a>
</g>
</g>
<!-- Node0&#45;&gt;Node2 -->
<g id="edge2" class="edge">
<title>Node0&#45;&gt;Node2</title>
<path fill="none" stroke="midnightblue" d="M161.88,-97.13C196.38,-102.63 237.57,-109.19 270.6,-114.46"/>
<polygon fill="midnightblue" stroke="midnightblue" points="162.3,-93.66 151.88,-95.54 161.2,-100.57 162.3,-93.66"/>
</g>
<!-- Node3 -->
<g id="node4" class="node">
<title>Node3</title>
<g id="a_node4"><a xlink:href="classad__framework_1_1ui_1_1Button_1_1ButtonChanger.html" target="_top" xlink:title=" ">
<polygon fill="white" stroke="black" points="222,-76.5 222,-95.5 441,-95.5 441,-76.5 222,-76.5"/>
<text text-anchor="middle" x="331.5" y="-83.5" font-family="Helvetica,sans-Serif" font-size="10.00">ad_framework::ui::Button::ButtonChanger</text>
</a>
</g>
</g>
<!-- Node0&#45;&gt;Node3 -->
<g id="edge3" class="edge">
<title>Node0&#45;&gt;Node3</title>
<path fill="none" stroke="midnightblue" d="M192.25,-86C202,-86 211.92,-86 221.75,-86"/>
<polygon fill="midnightblue" stroke="midnightblue" points="192.17,-82.5 182.17,-86 192.17,-89.5 192.17,-82.5"/>
</g>
<!-- Node4 -->
<g id="node5" class="node">
<title>Node4</title>
<g id="a_node5"><a xlink:href="classad__framework_1_1ui_1_1Selector_1_1ItemListSender.html" target="_top" xlink:title=" ">
<polygon fill="white" stroke="black" points="218,-38.5 218,-57.5 445,-57.5 445,-38.5 218,-38.5"/>
<text text-anchor="middle" x="331.5" y="-45.5" font-family="Helvetica,sans-Serif" font-size="10.00">ad_framework::ui::Selector::ItemListSender</text>
</a>
</g>
</g>
<!-- Node0&#45;&gt;Node4 -->
<g id="edge4" class="edge">
<title>Node0&#45;&gt;Node4</title>
<path fill="none" stroke="midnightblue" d="M161.88,-74.87C196.38,-69.37 237.57,-62.81 270.6,-57.54"/>
<polygon fill="midnightblue" stroke="midnightblue" points="161.2,-71.43 151.88,-76.46 162.3,-78.34 161.2,-71.43"/>
</g>
<!-- Node5 -->
<g id="node6" class="node">
<title>Node5</title>
<g id="a_node6"><a xlink:href="classad__framework_1_1ui_1_1Selector_1_1ItemReciever.html" target="_top" xlink:title=" ">
<polygon fill="white" stroke="black" points="222,-0.5 222,-19.5 441,-19.5 441,-0.5 222,-0.5"/>
<text text-anchor="middle" x="331.5" y="-7.5" font-family="Helvetica,sans-Serif" font-size="10.00">ad_framework::ui::Selector::ItemReciever</text>
</a>
</g>
</g>
<!-- Node0&#45;&gt;Node5 -->
<g id="edge5" class="edge">
<title>Node0&#45;&gt;Node5</title>
<path fill="none" stroke="midnightblue" d="M118.23,-71.72C143.19,-58.72 182.16,-39.93 218,-29 230.6,-25.16 244.24,-22.03 257.54,-19.5"/>
<polygon fill="midnightblue" stroke="midnightblue" points="116.59,-68.63 109.38,-76.39 119.86,-74.82 116.59,-68.63"/>
</g>
</g>
</svg>
