<?xml version="1.0" encoding="UTF-8" standalone="no"?>
<!DOCTYPE svg PUBLIC "-//W3C//DTD SVG 1.1//EN"
 "http://www.w3.org/Graphics/SVG/1.1/DTD/svg11.dtd">
<!-- Generated by graphviz version 2.43.0 (0)
 -->
<!-- Title: Graphical Class Hierarchy Pages: 1 -->
<svg width="588pt" height="180pt"
 viewBox="0.00 0.00 588.00 180.00" xmlns="http://www.w3.org/2000/svg" xmlns:xlink="http://www.w3.org/1999/xlink">
<g id="graph0" class="graph" transform="scale(1 1) rotate(0) translate(4 176)">
<title>Graphical Class Hierarchy</title>
<polygon fill="white" stroke="transparent" points="-4,4 -4,-176 584,-176 584,4 -4,4"/>
<!-- Node26 -->
<g id="node1" class="node">
<title>Node26</title>
<g id="a_node1"><a xlink:title=" ">
<polygon fill="white" stroke="#bfbfbf" points="0,-76.5 0,-95.5 161,-95.5 161,-76.5 0,-76.5"/>
<text text-anchor="middle" x="80.5" y="-83.5" font-family="Helvetica,sans-Serif" font-size="10.00">std::enable_shared_from_this</text>
</a>
</g>
</g>
<!-- Node0 -->
<g id="node2" class="node">
<title>Node0</title>
<g id="a_node2"><a xlink:href="classad__framework_1_1ui_1_1UserInterface.html" target="_top" xlink:title=" ">
<polygon fill="white" stroke="black" points="197,-76.5 197,-95.5 371,-95.5 371,-76.5 197,-76.5"/>
<text text-anchor="middle" x="284" y="-83.5" font-family="Helvetica,sans-Serif" font-size="10.00">ad_framework::ui::UserInterface</text>
</a>
</g>
</g>
<!-- Node26&#45;&gt;Node0 -->
<g id="edge1" class="edge">
<title>Node26&#45;&gt;Node0</title>
<path fill="none" stroke="midnightblue" d="M171.15,-86C179.73,-86 188.43,-86 196.98,-86"/>
<polygon fill="midnightblue" stroke="midnightblue" points="171.14,-82.5 161.14,-86 171.14,-89.5 171.14,-82.5"/>
</g>
<!-- Node1 -->
<g id="node3" class="node">
<title>Node1</title>
<g id="a_node3"><a xlink:href="classad__framework_1_1ui_1_1Button.html" target="_top" xlink:title=" ">
<polygon fill="white" stroke="black" points="423.5,-152.5 423.5,-171.5 563.5,-171.5 563.5,-152.5 423.5,-152.5"/>
<text text-anchor="middle" x="493.5" y="-159.5" font-family="Helvetica,sans-Serif" font-size="10.00">ad_framework::ui::Button</text>
</a>
</g>
</g>
<!-- Node0&#45;&gt;Node1 -->
<g id="edge2" class="edge">
<title>Node0&#45;&gt;Node1</title>
<path fill="none" stroke="midnightblue" d="M311.2,-100.29C335.45,-113.02 372.81,-131.37 407,-143 417.8,-146.67 429.61,-149.82 440.91,-152.44"/>
<polygon fill="midnightblue" stroke="midnightblue" points="312.75,-97.15 302.28,-95.55 309.47,-103.33 312.75,-97.15"/>
</g>
<!-- Node2 -->
<g id="node4" class="node">
<title>Node2</title>
<g id="a_node4"><a xlink:href="classad__framework_1_1ui_1_1Frame.html" target="_top" xlink:title=" ">
<polygon fill="white" stroke="black" points="424,-114.5 424,-133.5 563,-133.5 563,-114.5 424,-114.5"/>
<text text-anchor="middle" x="493.5" y="-121.5" font-family="Helvetica,sans-Serif" font-size="10.00">ad_framework::ui::Frame</text>
</a>
</g>
</g>
<!-- Node0&#45;&gt;Node2 -->
<g id="edge3" class="edge">
<title>Node0&#45;&gt;Node2</title>
<path fill="none" stroke="midnightblue" d="M346.96,-97.35C376.73,-102.8 412.02,-109.26 440.39,-114.46"/>
<polygon fill="midnightblue" stroke="midnightblue" points="347.56,-93.9 337.09,-95.54 346.3,-100.78 347.56,-93.9"/>
</g>
<!-- Node3 -->
<g id="node5" class="node">
<title>Node3</title>
<g id="a_node5"><a xlink:href="classad__framework_1_1ui_1_1ImageViewer.html" target="_top" xlink:title=" ">
<polygon fill="white" stroke="black" points="407,-76.5 407,-95.5 580,-95.5 580,-76.5 407,-76.5"/>
<text text-anchor="middle" x="493.5" y="-83.5" font-family="Helvetica,sans-Serif" font-size="10.00">ad_framework::ui::ImageViewer</text>
</a>
</g>
</g>
<!-- Node0&#45;&gt;Node3 -->
<g id="edge4" class="edge">
<title>Node0&#45;&gt;Node3</title>
<path fill="none" stroke="midnightblue" d="M381.21,-86C389.79,-86 398.43,-86 406.91,-86"/>
<polygon fill="midnightblue" stroke="midnightblue" points="381.2,-82.5 371.2,-86 381.2,-89.5 381.2,-82.5"/>
</g>
<!-- Node4 -->
<g id="node6" class="node">
<title>Node4</title>
<g id="a_node6"><a xlink:href="classad__framework_1_1ui_1_1Selector.html" target="_top" xlink:title=" ">
<polygon fill="white" stroke="black" points="419.5,-38.5 419.5,-57.5 567.5,-57.5 567.5,-38.5 419.5,-38.5"/>
<text text-anchor="middle" x="493.5" y="-45.5" font-family="Helvetica,sans-Serif" font-size="10.00">ad_framework::ui::Selector</text>
</a>
</g>
</g>
<!-- Node0&#45;&gt;Node4 -->
<g id="edge5" class="edge">
<title>Node0&#45;&gt;Node4</title>
<path fill="none" stroke="midnightblue" d="M346.96,-74.65C376.73,-69.2 412.02,-62.74 440.39,-57.54"/>
<polygon fill="midnightblue" stroke="midnightblue" points="346.3,-71.22 337.09,-76.46 347.56,-78.1 346.3,-71.22"/>
</g>
<!-- Node5 -->
<g id="node7" class="node">
<title>Node5</title>
<g id="a_node7"><a xlink:href="classad__framework_1_1ui_1_1TopViewer.html" target="_top" xlink:title=" ">
<polygon fill="white" stroke="black" points="414.5,-0.5 414.5,-19.5 572.5,-19.5 572.5,-0.5 414.5,-0.5"/>
<text text-anchor="middle" x="493.5" y="-7.5" font-family="Helvetica,sans-Serif" font-size="10.00">ad_framework::ui::TopViewer</text>
</a>
</g>
</g>
<!-- Node0&#45;&gt;Node5 -->
<g id="edge6" class="edge">
<title>Node0&#45;&gt;Node5</title>
<path fill="none" stroke="midnightblue" d="M311.2,-71.71C335.45,-58.98 372.81,-40.63 407,-29 417.8,-25.33 429.61,-22.18 440.91,-19.56"/>
<polygon fill="midnightblue" stroke="midnightblue" points="309.47,-68.67 302.28,-76.45 312.75,-74.85 309.47,-68.67"/>
</g>
</g>
</svg>
