<?xml version="1.0" encoding="UTF-8" standalone="no"?>
<!DOCTYPE svg PUBLIC "-//W3C//DTD SVG 1.1//EN"
 "http://www.w3.org/Graphics/SVG/1.1/DTD/svg11.dtd">
<!-- Generated by graphviz version 2.43.0 (0)
 -->
<!-- Title: Graphical Class Hierarchy Pages: 1 -->
<svg width="371pt" height="66pt"
 viewBox="0.00 0.00 371.00 66.00" xmlns="http://www.w3.org/2000/svg" xmlns:xlink="http://www.w3.org/1999/xlink">
<g id="graph0" class="graph" transform="scale(1 1) rotate(0) translate(4 62)">
<title>Graphical Class Hierarchy</title>
<polygon fill="white" stroke="transparent" points="-4,4 -4,-62 367,-62 367,4 -4,4"/>
<!-- Node0 -->
<g id="node1" class="node">
<title>Node0</title>
<g id="a_node1"><a xlink:href="classad__framework_1_1DataReader.html" target="_top" xlink:title=" ">
<polygon fill="white" stroke="black" points="0,-19.5 0,-38.5 151,-38.5 151,-19.5 0,-19.5"/>
<text text-anchor="middle" x="75.5" y="-26.5" font-family="Helvetica,sans-Serif" font-size="10.00">ad_framework::DataReader</text>
</a>
</g>
</g>
<!-- Node1 -->
<g id="node2" class="node">
<title>Node1</title>
<g id="a_node2"><a xlink:href="classad__framework_1_1KittiDataReader.html" target="_top" xlink:title=" ">
<polygon fill="white" stroke="black" points="189.5,-38.5 189.5,-57.5 360.5,-57.5 360.5,-38.5 189.5,-38.5"/>
<text text-anchor="middle" x="275" y="-45.5" font-family="Helvetica,sans-Serif" font-size="10.00">ad_framework::KittiDataReader</text>
</a>
</g>
</g>
<!-- Node0&#45;&gt;Node1 -->
<g id="edge1" class="edge">
<title>Node0&#45;&gt;Node1</title>
<path fill="none" stroke="midnightblue" d="M161.19,-37.15C170.5,-38.04 179.98,-38.96 189.3,-39.85"/>
<polygon fill="midnightblue" stroke="midnightblue" points="161.46,-33.66 151.17,-36.18 160.79,-40.62 161.46,-33.66"/>
</g>
<!-- Node2 -->
<g id="node3" class="node">
<title>Node2</title>
<g id="a_node3"><a xlink:href="classad__framework_1_1NoneDataReader.html" target="_top" xlink:title=" ">
<polygon fill="white" stroke="black" points="187,-0.5 187,-19.5 363,-19.5 363,-0.5 187,-0.5"/>
<text text-anchor="middle" x="275" y="-7.5" font-family="Helvetica,sans-Serif" font-size="10.00">ad_framework::NoneDataReader</text>
</a>
</g>
</g>
<!-- Node0&#45;&gt;Node2 -->
<g id="edge2" class="edge">
<title>Node0&#45;&gt;Node2</title>
<path fill="none" stroke="midnightblue" d="M161.13,-20.86C169.68,-20.04 178.38,-19.2 186.96,-18.37"/>
<polygon fill="midnightblue" stroke="midnightblue" points="160.79,-17.38 151.17,-21.82 161.46,-24.34 160.79,-17.38"/>
</g>
</g>
</svg>
