<?xml version="1.0" encoding="UTF-8" standalone="no"?>
<!DOCTYPE svg PUBLIC "-//W3C//DTD SVG 1.1//EN"
 "http://www.w3.org/Graphics/SVG/1.1/DTD/svg11.dtd">
<!-- Generated by graphviz version 2.43.0 (0)
 -->
<!-- Title: Graphical Class Hierarchy Pages: 1 -->
<svg width="462pt" height="104pt"
 viewBox="0.00 0.00 462.00 104.00" xmlns="http://www.w3.org/2000/svg" xmlns:xlink="http://www.w3.org/1999/xlink">
<g id="graph0" class="graph" transform="scale(1 1) rotate(0) translate(4 100)">
<title>Graphical Class Hierarchy</title>
<polygon fill="white" stroke="transparent" points="-4,4 -4,-100 458,-100 458,4 -4,4"/>
<!-- Node0 -->
<g id="node1" class="node">
<title>Node0</title>
<g id="a_node1"><a xlink:href="classad__framework_1_1data__structure_1_1Shape.html" target="_top" xlink:title=" ">
<polygon fill="white" stroke="black" points="0,-38.5 0,-57.5 200,-57.5 200,-38.5 0,-38.5"/>
<text text-anchor="middle" x="100" y="-45.5" font-family="Helvetica,sans-Serif" font-size="10.00">ad_framework::data_structure::Shape</text>
</a>
</g>
</g>
<!-- Node1 -->
<g id="node2" class="node">
<title>Node1</title>
<g id="a_node2"><a xlink:href="classad__framework_1_1data__structure_1_1Circle.html" target="_top" xlink:title=" ">
<polygon fill="white" stroke="black" points="246.5,-76.5 246.5,-95.5 443.5,-95.5 443.5,-76.5 246.5,-76.5"/>
<text text-anchor="middle" x="345" y="-83.5" font-family="Helvetica,sans-Serif" font-size="10.00">ad_framework::data_structure::Circle</text>
</a>
</g>
</g>
<!-- Node0&#45;&gt;Node1 -->
<g id="edge1" class="edge">
<title>Node0&#45;&gt;Node1</title>
<path fill="none" stroke="midnightblue" d="M172.2,-59.13C207.35,-64.63 249.31,-71.19 282.97,-76.46"/>
<polygon fill="midnightblue" stroke="midnightblue" points="172.43,-55.63 162.01,-57.54 171.34,-62.54 172.43,-55.63"/>
</g>
<!-- Node2 -->
<g id="node3" class="node">
<title>Node2</title>
<g id="a_node3"><a xlink:href="classad__framework_1_1data__structure_1_1Polygon.html" target="_top" xlink:title=" ">
<polygon fill="white" stroke="black" points="240.5,-38.5 240.5,-57.5 449.5,-57.5 449.5,-38.5 240.5,-38.5"/>
<text text-anchor="middle" x="345" y="-45.5" font-family="Helvetica,sans-Serif" font-size="10.00">ad_framework::data_structure::Polygon</text>
</a>
</g>
</g>
<!-- Node0&#45;&gt;Node2 -->
<g id="edge2" class="edge">
<title>Node0&#45;&gt;Node2</title>
<path fill="none" stroke="midnightblue" d="M210.5,-48C220.45,-48 230.5,-48 240.39,-48"/>
<polygon fill="midnightblue" stroke="midnightblue" points="210.19,-44.5 200.19,-48 210.19,-51.5 210.19,-44.5"/>
</g>
<!-- Node3 -->
<g id="node4" class="node">
<title>Node3</title>
<g id="a_node4"><a xlink:href="classad__framework_1_1data__structure_1_1Rectangle.html" target="_top" xlink:title=" ">
<polygon fill="white" stroke="black" points="236,-0.5 236,-19.5 454,-19.5 454,-0.5 236,-0.5"/>
<text text-anchor="middle" x="345" y="-7.5" font-family="Helvetica,sans-Serif" font-size="10.00">ad_framework::data_structure::Rectangle</text>
</a>
</g>
</g>
<!-- Node0&#45;&gt;Node3 -->
<g id="edge3" class="edge">
<title>Node0&#45;&gt;Node3</title>
<path fill="none" stroke="midnightblue" d="M172.2,-36.87C207.35,-31.37 249.31,-24.81 282.97,-19.54"/>
<polygon fill="midnightblue" stroke="midnightblue" points="171.34,-33.46 162.01,-38.46 172.43,-40.37 171.34,-33.46"/>
</g>
</g>
</svg>
