<?xml version="1.0" encoding="UTF-8" standalone="no"?>
<!DOCTYPE svg PUBLIC "-//W3C//DTD SVG 1.1//EN"
 "http://www.w3.org/Graphics/SVG/1.1/DTD/svg11.dtd">
<!-- Generated by graphviz version 2.43.0 (0)
 -->
<!-- Title: Graphical Class Hierarchy Pages: 1 -->
<svg width="588pt" height="142pt"
 viewBox="0.00 0.00 588.00 142.00" xmlns="http://www.w3.org/2000/svg" xmlns:xlink="http://www.w3.org/1999/xlink">
<g id="graph0" class="graph" transform="scale(1 1) rotate(0) translate(4 138)">
<title>Graphical Class Hierarchy</title>
<polygon fill="white" stroke="transparent" points="-4,4 -4,-138 584,-138 584,4 -4,4"/>
<!-- Node10 -->
<g id="node1" class="node">
<title>Node10</title>
<g id="a_node1"><a xlink:title=" ">
<polygon fill="white" stroke="#bfbfbf" points="0,-57.5 0,-76.5 161,-76.5 161,-57.5 0,-57.5"/>
<text text-anchor="middle" x="80.5" y="-64.5" font-family="Helvetica,sans-Serif" font-size="10.00">std::enable_shared_from_this</text>
</a>
</g>
</g>
<!-- Node0 -->
<g id="node2" class="node">
<title>Node0</title>
<g id="a_node2"><a xlink:href="classad__framework_1_1ui_1_1UserInterface.html" target="_top" xlink:title=" ">
<polygon fill="white" stroke="black" points="197,-57.5 197,-76.5 371,-76.5 371,-57.5 197,-57.5"/>
<text text-anchor="middle" x="284" y="-64.5" font-family="Helvetica,sans-Serif" font-size="10.00">ad_framework::ui::UserInterface</text>
</a>
</g>
</g>
<!-- Node10&#45;&gt;Node0 -->
<g id="edge1" class="edge">
<title>Node10&#45;&gt;Node0</title>
<path fill="none" stroke="midnightblue" d="M171.15,-67C179.73,-67 188.43,-67 196.98,-67"/>
<polygon fill="midnightblue" stroke="midnightblue" points="171.14,-63.5 161.14,-67 171.14,-70.5 171.14,-63.5"/>
</g>
<!-- Node1 -->
<g id="node3" class="node">
<title>Node1</title>
<g id="a_node3"><a xlink:href="classad__framework_1_1ui_1_1Button.html" target="_top" xlink:title=" ">
<polygon fill="white" stroke="black" points="423.5,-114.5 423.5,-133.5 563.5,-133.5 563.5,-114.5 423.5,-114.5"/>
<text text-anchor="middle" x="493.5" y="-121.5" font-family="Helvetica,sans-Serif" font-size="10.00">ad_framework::ui::Button</text>
</a>
</g>
</g>
<!-- Node0&#45;&gt;Node1 -->
<g id="edge2" class="edge">
<title>Node0&#45;&gt;Node1</title>
<path fill="none" stroke="midnightblue" d="M323.16,-79.78C347.09,-87.58 378.68,-97.46 407,-105 419.64,-108.37 433.43,-111.61 446.18,-114.44"/>
<polygon fill="midnightblue" stroke="midnightblue" points="323.99,-76.37 313.4,-76.58 321.81,-83.02 323.99,-76.37"/>
</g>
<!-- Node2 -->
<g id="node4" class="node">
<title>Node2</title>
<g id="a_node4"><a xlink:href="classad__framework_1_1ui_1_1Frame.html" target="_top" xlink:title=" ">
<polygon fill="white" stroke="black" points="424,-76.5 424,-95.5 563,-95.5 563,-76.5 424,-76.5"/>
<text text-anchor="middle" x="493.5" y="-83.5" font-family="Helvetica,sans-Serif" font-size="10.00">ad_framework::ui::Frame</text>
</a>
</g>
</g>
<!-- Node0&#45;&gt;Node2 -->
<g id="edge3" class="edge">
<title>Node0&#45;&gt;Node2</title>
<path fill="none" stroke="midnightblue" d="M381.57,-75.84C395.88,-77.15 410.37,-78.48 423.95,-79.72"/>
<polygon fill="midnightblue" stroke="midnightblue" points="381.47,-72.32 371.2,-74.89 380.84,-79.29 381.47,-72.32"/>
</g>
<!-- Node3 -->
<g id="node5" class="node">
<title>Node3</title>
<g id="a_node5"><a xlink:href="classad__framework_1_1ui_1_1ImageViewer.html" target="_top" xlink:title=" ">
<polygon fill="white" stroke="black" points="407,-38.5 407,-57.5 580,-57.5 580,-38.5 407,-38.5"/>
<text text-anchor="middle" x="493.5" y="-45.5" font-family="Helvetica,sans-Serif" font-size="10.00">ad_framework::ui::ImageViewer</text>
</a>
</g>
</g>
<!-- Node0&#45;&gt;Node3 -->
<g id="edge4" class="edge">
<title>Node0&#45;&gt;Node3</title>
<path fill="none" stroke="midnightblue" d="M381.21,-58.19C389.79,-57.4 398.43,-56.61 406.91,-55.84"/>
<polygon fill="midnightblue" stroke="midnightblue" points="380.84,-54.71 371.2,-59.11 381.47,-61.68 380.84,-54.71"/>
</g>
<!-- Node4 -->
<g id="node6" class="node">
<title>Node4</title>
<g id="a_node6"><a xlink:href="classad__framework_1_1ui_1_1Selector.html" target="_top" xlink:title=" ">
<polygon fill="white" stroke="black" points="419.5,-0.5 419.5,-19.5 567.5,-19.5 567.5,-0.5 419.5,-0.5"/>
<text text-anchor="middle" x="493.5" y="-7.5" font-family="Helvetica,sans-Serif" font-size="10.00">ad_framework::ui::Selector</text>
</a>
</g>
</g>
<!-- Node0&#45;&gt;Node4 -->
<g id="edge5" class="edge">
<title>Node0&#45;&gt;Node4</title>
<path fill="none" stroke="midnightblue" d="M323.16,-54.22C347.09,-46.42 378.68,-36.54 407,-29 419.64,-25.63 433.43,-22.39 446.18,-19.56"/>
<polygon fill="midnightblue" stroke="midnightblue" points="321.81,-50.98 313.4,-57.42 323.99,-57.63 321.81,-50.98"/>
</g>
</g>
</svg>
