<?xml version="1.0" encoding="UTF-8" standalone="no"?>
<!DOCTYPE svg PUBLIC "-//W3C//DTD SVG 1.1//EN"
 "http://www.w3.org/Graphics/SVG/1.1/DTD/svg11.dtd">
<!-- Generated by graphviz version 2.43.0 (0)
 -->
<!-- Title: Graphical Class Hierarchy Pages: 1 -->
<svg width="450pt" height="104pt"
 viewBox="0.00 0.00 450.00 104.00" xmlns="http://www.w3.org/2000/svg" xmlns:xlink="http://www.w3.org/1999/xlink">
<g id="graph0" class="graph" transform="scale(1 1) rotate(0) translate(4 100)">
<title>Graphical Class Hierarchy</title>
<polygon fill="white" stroke="transparent" points="-4,4 -4,-100 446,-100 446,4 -4,4"/>
<!-- Node0 -->
<g id="node1" class="node">
<title>Node0</title>
<g id="a_node1"><a xlink:href="classad__framwork_1_1data__structure_1_1Shape.html" target="_top" xlink:title=" ">
<polygon fill="white" stroke="black" points="0,-38.5 0,-57.5 194,-57.5 194,-38.5 0,-38.5"/>
<text text-anchor="middle" x="97" y="-45.5" font-family="Helvetica,sans-Serif" font-size="10.00">ad_framwork::data_structure::Shape</text>
</a>
</g>
</g>
<!-- Node1 -->
<g id="node2" class="node">
<title>Node1</title>
<g id="a_node2"><a xlink:href="classad__framwork_1_1data__structure_1_1Circle.html" target="_top" xlink:title=" ">
<polygon fill="white" stroke="black" points="240.5,-76.5 240.5,-95.5 431.5,-95.5 431.5,-76.5 240.5,-76.5"/>
<text text-anchor="middle" x="336" y="-83.5" font-family="Helvetica,sans-Serif" font-size="10.00">ad_framwork::data_structure::Circle</text>
</a>
</g>
</g>
<!-- Node0&#45;&gt;Node1 -->
<g id="edge1" class="edge">
<title>Node0&#45;&gt;Node1</title>
<path fill="none" stroke="midnightblue" d="M167.44,-59.13C201.72,-64.63 242.65,-71.19 275.48,-76.46"/>
<polygon fill="midnightblue" stroke="midnightblue" points="167.93,-55.67 157.5,-57.54 166.82,-62.58 167.93,-55.67"/>
</g>
<!-- Node2 -->
<g id="node3" class="node">
<title>Node2</title>
<g id="a_node3"><a xlink:href="classad__framwork_1_1data__structure_1_1Polygon.html" target="_top" xlink:title=" ">
<polygon fill="white" stroke="black" points="234.5,-38.5 234.5,-57.5 437.5,-57.5 437.5,-38.5 234.5,-38.5"/>
<text text-anchor="middle" x="336" y="-45.5" font-family="Helvetica,sans-Serif" font-size="10.00">ad_framwork::data_structure::Polygon</text>
</a>
</g>
</g>
<!-- Node0&#45;&gt;Node2 -->
<g id="edge2" class="edge">
<title>Node0&#45;&gt;Node2</title>
<path fill="none" stroke="midnightblue" d="M204.34,-48C214.27,-48 224.3,-48 234.17,-48"/>
<polygon fill="midnightblue" stroke="midnightblue" points="204.06,-44.5 194.06,-48 204.06,-51.5 204.06,-44.5"/>
</g>
<!-- Node3 -->
<g id="node4" class="node">
<title>Node3</title>
<g id="a_node4"><a xlink:href="classad__framwork_1_1data__structure_1_1Rectangle.html" target="_top" xlink:title=" ">
<polygon fill="white" stroke="black" points="230,-0.5 230,-19.5 442,-19.5 442,-0.5 230,-0.5"/>
<text text-anchor="middle" x="336" y="-7.5" font-family="Helvetica,sans-Serif" font-size="10.00">ad_framwork::data_structure::Rectangle</text>
</a>
</g>
</g>
<!-- Node0&#45;&gt;Node3 -->
<g id="edge3" class="edge">
<title>Node0&#45;&gt;Node3</title>
<path fill="none" stroke="midnightblue" d="M167.44,-36.87C201.72,-31.37 242.65,-24.81 275.48,-19.54"/>
<polygon fill="midnightblue" stroke="midnightblue" points="166.82,-33.42 157.5,-38.46 167.93,-40.33 166.82,-33.42"/>
</g>
</g>
</svg>
