<?xml version="1.0" encoding="UTF-8" standalone="no"?>
<!DOCTYPE svg PUBLIC "-//W3C//DTD SVG 1.1//EN"
 "http://www.w3.org/Graphics/SVG/1.1/DTD/svg11.dtd">
<!-- Generated by graphviz version 2.43.0 (0)
 -->
<!-- Title: Graphical Class Hierarchy Pages: 1 -->
<svg width="466pt" height="218pt"
 viewBox="0.00 0.00 466.00 218.00" xmlns="http://www.w3.org/2000/svg" xmlns:xlink="http://www.w3.org/1999/xlink">
<g id="graph0" class="graph" transform="scale(1 1) rotate(0) translate(4 214)">
<title>Graphical Class Hierarchy</title>
<polygon fill="white" stroke="transparent" points="-4,4 -4,-214 462,-214 462,4 -4,4"/>
<!-- Node0 -->
<g id="node1" class="node">
<title>Node0</title>
<g id="a_node1"><a xlink:href="classad__framework_1_1data__structure_1_1Shape.html" target="_top" xlink:title=" ">
<polygon fill="white" stroke="black" points="0,-95.5 0,-114.5 200,-114.5 200,-95.5 0,-95.5"/>
<text text-anchor="middle" x="100" y="-102.5" font-family="Helvetica,sans-Serif" font-size="10.00">ad_framework::data_structure::Shape</text>
</a>
</g>
</g>
<!-- Node1 -->
<g id="node2" class="node">
<title>Node1</title>
<g id="a_node2"><a xlink:href="classad__framework_1_1data__structure_1_1Circle.html" target="_top" xlink:title=" ">
<polygon fill="white" stroke="black" points="248.5,-190.5 248.5,-209.5 445.5,-209.5 445.5,-190.5 248.5,-190.5"/>
<text text-anchor="middle" x="347" y="-197.5" font-family="Helvetica,sans-Serif" font-size="10.00">ad_framework::data_structure::Circle</text>
</a>
</g>
</g>
<!-- Node0&#45;&gt;Node1 -->
<g id="edge1" class="edge">
<title>Node0&#45;&gt;Node1</title>
<path fill="none" stroke="midnightblue" d="M122.72,-120.34C148.5,-137.8 193.39,-165.84 236,-181 246.96,-184.9 258.82,-188.01 270.56,-190.5"/>
<polygon fill="midnightblue" stroke="midnightblue" points="124.66,-117.43 114.43,-114.65 120.69,-123.2 124.66,-117.43"/>
</g>
<!-- Node2 -->
<g id="node3" class="node">
<title>Node2</title>
<g id="a_node3"><a xlink:href="structad__framework_1_1data__structure_1_1Line.html" target="_top" xlink:title=" ">
<polygon fill="white" stroke="black" points="252,-152.5 252,-171.5 442,-171.5 442,-152.5 252,-152.5"/>
<text text-anchor="middle" x="347" y="-159.5" font-family="Helvetica,sans-Serif" font-size="10.00">ad_framework::data_structure::Line</text>
</a>
</g>
</g>
<!-- Node0&#45;&gt;Node2 -->
<g id="edge2" class="edge">
<title>Node0&#45;&gt;Node2</title>
<path fill="none" stroke="midnightblue" d="M141.09,-117.46C167.8,-125.47 203.78,-135.7 236,-143 251.5,-146.51 268.36,-149.72 284.11,-152.46"/>
<polygon fill="midnightblue" stroke="midnightblue" points="141.92,-114.05 131.33,-114.51 139.89,-120.75 141.92,-114.05"/>
</g>
<!-- Node3 -->
<g id="node4" class="node">
<title>Node3</title>
<g id="a_node4"><a xlink:href="structad__framework_1_1data__structure_1_1Point.html" target="_top" xlink:title=" ">
<polygon fill="white" stroke="black" points="250,-114.5 250,-133.5 444,-133.5 444,-114.5 250,-114.5"/>
<text text-anchor="middle" x="347" y="-121.5" font-family="Helvetica,sans-Serif" font-size="10.00">ad_framework::data_structure::Point</text>
</a>
</g>
</g>
<!-- Node0&#45;&gt;Node3 -->
<g id="edge3" class="edge">
<title>Node0&#45;&gt;Node3</title>
<path fill="none" stroke="midnightblue" d="M210.3,-113.48C223.45,-114.5 236.8,-115.53 249.74,-116.53"/>
<polygon fill="midnightblue" stroke="midnightblue" points="210.54,-109.98 200.3,-112.7 210,-116.96 210.54,-109.98"/>
</g>
<!-- Node4 -->
<g id="node5" class="node">
<title>Node4</title>
<g id="a_node5"><a xlink:href="structad__framework_1_1data__structure_1_1PointCloud.html" target="_top" xlink:title=" ">
<polygon fill="white" stroke="black" points="236,-76.5 236,-95.5 458,-95.5 458,-76.5 236,-76.5"/>
<text text-anchor="middle" x="347" y="-83.5" font-family="Helvetica,sans-Serif" font-size="10.00">ad_framework::data_structure::PointCloud</text>
</a>
</g>
</g>
<!-- Node0&#45;&gt;Node4 -->
<g id="edge4" class="edge">
<title>Node0&#45;&gt;Node4</title>
<path fill="none" stroke="midnightblue" d="M210.48,-96.51C218.87,-95.86 227.35,-95.2 235.75,-94.55"/>
<polygon fill="midnightblue" stroke="midnightblue" points="210,-93.04 200.3,-97.3 210.54,-100.02 210,-93.04"/>
</g>
<!-- Node5 -->
<g id="node6" class="node">
<title>Node5</title>
<g id="a_node6"><a xlink:href="classad__framework_1_1data__structure_1_1Polygon.html" target="_top" xlink:title=" ">
<polygon fill="white" stroke="black" points="242.5,-38.5 242.5,-57.5 451.5,-57.5 451.5,-38.5 242.5,-38.5"/>
<text text-anchor="middle" x="347" y="-45.5" font-family="Helvetica,sans-Serif" font-size="10.00">ad_framework::data_structure::Polygon</text>
</a>
</g>
</g>
<!-- Node0&#45;&gt;Node5 -->
<g id="edge5" class="edge">
<title>Node0&#45;&gt;Node5</title>
<path fill="none" stroke="midnightblue" d="M141.09,-92.54C167.8,-84.53 203.78,-74.3 236,-67 251.5,-63.49 268.36,-60.28 284.11,-57.54"/>
<polygon fill="midnightblue" stroke="midnightblue" points="139.89,-89.25 131.33,-95.49 141.92,-95.95 139.89,-89.25"/>
</g>
<!-- Node6 -->
<g id="node7" class="node">
<title>Node6</title>
<g id="a_node7"><a xlink:href="classad__framework_1_1data__structure_1_1Rectangle.html" target="_top" xlink:title=" ">
<polygon fill="white" stroke="black" points="238,-0.5 238,-19.5 456,-19.5 456,-0.5 238,-0.5"/>
<text text-anchor="middle" x="347" y="-7.5" font-family="Helvetica,sans-Serif" font-size="10.00">ad_framework::data_structure::Rectangle</text>
</a>
</g>
</g>
<!-- Node0&#45;&gt;Node6 -->
<g id="edge6" class="edge">
<title>Node0&#45;&gt;Node6</title>
<path fill="none" stroke="midnightblue" d="M122.72,-89.66C148.5,-72.2 193.39,-44.16 236,-29 246.96,-25.1 258.82,-21.99 270.56,-19.5"/>
<polygon fill="midnightblue" stroke="midnightblue" points="120.69,-86.8 114.43,-95.35 124.66,-92.57 120.69,-86.8"/>
</g>
</g>
</svg>
