<?xml version="1.0" encoding="UTF-8" standalone="no"?>
<!DOCTYPE svg PUBLIC "-//W3C//DTD SVG 1.1//EN"
 "http://www.w3.org/Graphics/SVG/1.1/DTD/svg11.dtd">
<!-- Generated by graphviz version 2.43.0 (0)
 -->
<!-- Title: src/data_structure/kdtree.cpp Pages: 1 -->
<svg width="354pt" height="140pt"
 viewBox="0.00 0.00 354.00 140.00" xmlns="http://www.w3.org/2000/svg" xmlns:xlink="http://www.w3.org/1999/xlink">
<g id="graph0" class="graph" transform="scale(1 1) rotate(0) translate(4 136)">
<title>src/data_structure/kdtree.cpp</title>
<polygon fill="white" stroke="transparent" points="-4,4 -4,-136 350,-136 350,4 -4,4"/>
<!-- Node1 -->
<g id="node1" class="node">
<title>Node1</title>
<g id="a_node1"><a xlink:title=" ">
<polygon fill="#bfbfbf" stroke="black" points="142,-112.5 142,-131.5 301,-131.5 301,-112.5 142,-112.5"/>
<text text-anchor="middle" x="221.5" y="-119.5" font-family="Helvetica,sans-Serif" font-size="10.00">src/data_structure/kdtree.cpp</text>
</a>
</g>
</g>
<!-- Node2 -->
<g id="node2" class="node">
<title>Node2</title>
<g id="a_node2"><a xlink:href="kdtree_8h.html" target="_top" xlink:title=" ">
<polygon fill="white" stroke="black" points="96.5,-56.5 96.5,-75.5 244.5,-75.5 244.5,-56.5 96.5,-56.5"/>
<text text-anchor="middle" x="170.5" y="-63.5" font-family="Helvetica,sans-Serif" font-size="10.00">src/data_structure/kdtree.h</text>
</a>
</g>
</g>
<!-- Node1&#45;&gt;Node2 -->
<g id="edge1" class="edge">
<title>Node1&#45;&gt;Node2</title>
<path fill="none" stroke="midnightblue" d="M213.08,-112.08C205.65,-104.22 194.65,-92.57 185.69,-83.08"/>
<polygon fill="midnightblue" stroke="midnightblue" points="188.18,-80.62 178.76,-75.75 183.09,-85.42 188.18,-80.62"/>
</g>
<!-- Node3 -->
<g id="node3" class="node">
<title>Node3</title>
<g id="a_node3"><a xlink:title=" ">
<polygon fill="white" stroke="#bfbfbf" points="0,-0.5 0,-19.5 77,-19.5 77,-0.5 0,-0.5"/>
<text text-anchor="middle" x="38.5" y="-7.5" font-family="Helvetica,sans-Serif" font-size="10.00">Eigen/Dense</text>
</a>
</g>
</g>
<!-- Node1&#45;&gt;Node3 -->
<g id="edge6" class="edge">
<title>Node1&#45;&gt;Node3</title>
<path fill="none" stroke="midnightblue" d="M174.25,-112.43C147.01,-105.79 113.18,-94.51 87.5,-76 70.36,-63.65 56.53,-43.56 47.99,-28.98"/>
<polygon fill="midnightblue" stroke="midnightblue" points="50.87,-26.96 42.94,-19.93 44.75,-30.36 50.87,-26.96"/>
</g>
<!-- Node5 -->
<g id="node5" class="node">
<title>Node5</title>
<g id="a_node5"><a xlink:title=" ">
<polygon fill="white" stroke="#bfbfbf" points="253.5,-0.5 253.5,-19.5 311.5,-19.5 311.5,-0.5 253.5,-0.5"/>
<text text-anchor="middle" x="282.5" y="-7.5" font-family="Helvetica,sans-Serif" font-size="10.00">memory</text>
</a>
</g>
</g>
<!-- Node1&#45;&gt;Node5 -->
<g id="edge7" class="edge">
<title>Node1&#45;&gt;Node5</title>
<path fill="none" stroke="midnightblue" d="M228.42,-112.38C235.3,-103.57 245.89,-89.32 253.5,-76 262.2,-60.76 270.18,-42.42 275.55,-29.12"/>
<polygon fill="midnightblue" stroke="midnightblue" points="278.86,-30.26 279.27,-19.68 272.35,-27.7 278.86,-30.26"/>
</g>
<!-- Node7 -->
<g id="node7" class="node">
<title>Node7</title>
<g id="a_node7"><a xlink:title=" ">
<polygon fill="white" stroke="#bfbfbf" points="301,-56.5 301,-75.5 346,-75.5 346,-56.5 301,-56.5"/>
<text text-anchor="middle" x="323.5" y="-63.5" font-family="Helvetica,sans-Serif" font-size="10.00">utility</text>
</a>
</g>
</g>
<!-- Node1&#45;&gt;Node7 -->
<g id="edge8" class="edge">
<title>Node1&#45;&gt;Node7</title>
<path fill="none" stroke="midnightblue" d="M237.89,-112.32C254.17,-103.7 279.37,-90.36 298.22,-80.39"/>
<polygon fill="midnightblue" stroke="midnightblue" points="299.95,-83.43 307.15,-75.65 296.68,-77.24 299.95,-83.43"/>
</g>
<!-- Node2&#45;&gt;Node3 -->
<g id="edge2" class="edge">
<title>Node2&#45;&gt;Node3</title>
<path fill="none" stroke="midnightblue" d="M149.58,-56.44C127.76,-47.52 93.35,-33.44 68.61,-23.32"/>
<polygon fill="midnightblue" stroke="midnightblue" points="69.9,-20.06 59.32,-19.52 67.25,-26.54 69.9,-20.06"/>
</g>
<!-- Node4 -->
<g id="node4" class="node">
<title>Node4</title>
<g id="a_node4"><a xlink:title=" ">
<polygon fill="white" stroke="#bfbfbf" points="95.5,-0.5 95.5,-19.5 169.5,-19.5 169.5,-0.5 95.5,-0.5"/>
<text text-anchor="middle" x="132.5" y="-7.5" font-family="Helvetica,sans-Serif" font-size="10.00">forward_list</text>
</a>
</g>
</g>
<!-- Node2&#45;&gt;Node4 -->
<g id="edge3" class="edge">
<title>Node2&#45;&gt;Node4</title>
<path fill="none" stroke="midnightblue" d="M164.23,-56.08C158.86,-48.46 150.98,-37.26 144.42,-27.94"/>
<polygon fill="midnightblue" stroke="midnightblue" points="147.28,-25.91 138.66,-19.75 141.55,-29.94 147.28,-25.91"/>
</g>
<!-- Node2&#45;&gt;Node5 -->
<g id="edge4" class="edge">
<title>Node2&#45;&gt;Node5</title>
<path fill="none" stroke="midnightblue" d="M188.49,-56.32C206.54,-47.62 234.55,-34.12 255.3,-24.11"/>
<polygon fill="midnightblue" stroke="midnightblue" points="257.06,-27.15 264.55,-19.65 254.02,-20.84 257.06,-27.15"/>
</g>
<!-- Node6 -->
<g id="node6" class="node">
<title>Node6</title>
<g id="a_node6"><a xlink:title=" ">
<polygon fill="white" stroke="#bfbfbf" points="188,-0.5 188,-19.5 235,-19.5 235,-0.5 188,-0.5"/>
<text text-anchor="middle" x="211.5" y="-7.5" font-family="Helvetica,sans-Serif" font-size="10.00">vector</text>
</a>
</g>
</g>
<!-- Node2&#45;&gt;Node6 -->
<g id="edge5" class="edge">
<title>Node2&#45;&gt;Node6</title>
<path fill="none" stroke="midnightblue" d="M177.27,-56.08C183.06,-48.46 191.56,-37.26 198.64,-27.94"/>
<polygon fill="midnightblue" stroke="midnightblue" points="201.6,-29.83 204.86,-19.75 196.02,-25.6 201.6,-29.83"/>
</g>
</g>
</svg>
