<?xml version="1.0" encoding="UTF-8" standalone="no"?>
<!DOCTYPE svg PUBLIC "-//W3C//DTD SVG 1.1//EN"
 "http://www.w3.org/Graphics/SVG/1.1/DTD/svg11.dtd">
<!-- Generated by graphviz version 2.43.0 (0)
 -->
<!-- Title: src/data_structure/kdtree.cpp Pages: 1 -->
<svg width="526pt" height="140pt"
 viewBox="0.00 0.00 525.50 140.00" xmlns="http://www.w3.org/2000/svg" xmlns:xlink="http://www.w3.org/1999/xlink">
<g id="graph0" class="graph" transform="scale(1 1) rotate(0) translate(4 136)">
<title>src/data_structure/kdtree.cpp</title>
<polygon fill="white" stroke="transparent" points="-4,4 -4,-136 521.5,-136 521.5,4 -4,4"/>
<!-- Node1 -->
<g id="node1" class="node">
<title>Node1</title>
<g id="a_node1"><a xlink:title=" ">
<polygon fill="#bfbfbf" stroke="black" points="218,-112.5 218,-131.5 377,-131.5 377,-112.5 218,-112.5"/>
<text text-anchor="middle" x="297.5" y="-119.5" font-family="Helvetica,sans-Serif" font-size="10.00">src/data_structure/kdtree.cpp</text>
</a>
</g>
</g>
<!-- Node2 -->
<g id="node2" class="node">
<title>Node2</title>
<g id="a_node2"><a xlink:href="kdtree_8h.html" target="_top" xlink:title=" ">
<polygon fill="white" stroke="black" points="93.5,-56.5 93.5,-75.5 241.5,-75.5 241.5,-56.5 93.5,-56.5"/>
<text text-anchor="middle" x="167.5" y="-63.5" font-family="Helvetica,sans-Serif" font-size="10.00">src/data_structure/kdtree.h</text>
</a>
</g>
</g>
<!-- Node1&#45;&gt;Node2 -->
<g id="edge1" class="edge">
<title>Node1&#45;&gt;Node2</title>
<path fill="none" stroke="midnightblue" d="M276.9,-112.44C255.51,-103.56 221.82,-89.56 197.48,-79.45"/>
<polygon fill="midnightblue" stroke="midnightblue" points="198.58,-76.12 188,-75.52 195.89,-82.58 198.58,-76.12"/>
</g>
<!-- Node3 -->
<g id="node3" class="node">
<title>Node3</title>
<g id="a_node3"><a xlink:title=" ">
<polygon fill="white" stroke="#bfbfbf" points="0,-0.5 0,-19.5 77,-19.5 77,-0.5 0,-0.5"/>
<text text-anchor="middle" x="38.5" y="-7.5" font-family="Helvetica,sans-Serif" font-size="10.00">Eigen/Dense</text>
</a>
</g>
</g>
<!-- Node1&#45;&gt;Node3 -->
<g id="edge7" class="edge">
<title>Node1&#45;&gt;Node3</title>
<path fill="none" stroke="midnightblue" d="M217.76,-118.04C175.27,-113.2 123.82,-101.85 84.5,-76 67.04,-64.52 54.17,-43.94 46.55,-29.01"/>
<polygon fill="midnightblue" stroke="midnightblue" points="49.59,-27.26 42.12,-19.75 43.28,-30.28 49.59,-27.26"/>
</g>
<!-- Node5 -->
<g id="node5" class="node">
<title>Node5</title>
<g id="a_node5"><a xlink:title=" ">
<polygon fill="white" stroke="#bfbfbf" points="273.5,-0.5 273.5,-19.5 331.5,-19.5 331.5,-0.5 273.5,-0.5"/>
<text text-anchor="middle" x="302.5" y="-7.5" font-family="Helvetica,sans-Serif" font-size="10.00">memory</text>
</a>
</g>
</g>
<!-- Node1&#45;&gt;Node5 -->
<g id="edge8" class="edge">
<title>Node1&#45;&gt;Node5</title>
<path fill="none" stroke="midnightblue" d="M294.65,-112.16C290.99,-99.64 285.45,-76.05 288.5,-56 289.87,-47 292.69,-37.33 295.45,-29.26"/>
<polygon fill="midnightblue" stroke="midnightblue" points="298.77,-30.37 298.9,-19.78 292.19,-27.98 298.77,-30.37"/>
</g>
<!-- Node8 -->
<g id="node8" class="node">
<title>Node8</title>
<g id="a_node8"><a xlink:title=" ">
<polygon fill="white" stroke="#bfbfbf" points="297.5,-56.5 297.5,-75.5 353.5,-75.5 353.5,-56.5 297.5,-56.5"/>
<text text-anchor="middle" x="325.5" y="-63.5" font-family="Helvetica,sans-Serif" font-size="10.00">sstream</text>
</a>
</g>
</g>
<!-- Node1&#45;&gt;Node8 -->
<g id="edge9" class="edge">
<title>Node1&#45;&gt;Node8</title>
<path fill="none" stroke="midnightblue" d="M302.12,-112.08C305.96,-104.69 311.52,-93.95 316.26,-84.81"/>
<polygon fill="midnightblue" stroke="midnightblue" points="319.47,-86.24 320.96,-75.75 313.25,-83.02 319.47,-86.24"/>
</g>
<!-- Node9 -->
<g id="node9" class="node">
<title>Node9</title>
<g id="a_node9"><a xlink:title=" ">
<polygon fill="white" stroke="#bfbfbf" points="372,-56.5 372,-75.5 417,-75.5 417,-56.5 372,-56.5"/>
<text text-anchor="middle" x="394.5" y="-63.5" font-family="Helvetica,sans-Serif" font-size="10.00">utility</text>
</a>
</g>
</g>
<!-- Node1&#45;&gt;Node9 -->
<g id="edge10" class="edge">
<title>Node1&#45;&gt;Node9</title>
<path fill="none" stroke="midnightblue" d="M313.08,-112.32C328.5,-103.74 352.31,-90.49 370.21,-80.52"/>
<polygon fill="midnightblue" stroke="midnightblue" points="371.92,-83.58 378.95,-75.65 368.51,-77.46 371.92,-83.58"/>
</g>
<!-- Node10 -->
<g id="node10" class="node">
<title>Node10</title>
<g id="a_node10"><a xlink:href="log_8h.html" target="_top" xlink:title=" ">
<polygon fill="white" stroke="black" points="435.5,-56.5 435.5,-75.5 517.5,-75.5 517.5,-56.5 435.5,-56.5"/>
<text text-anchor="middle" x="476.5" y="-63.5" font-family="Helvetica,sans-Serif" font-size="10.00">src/utils/log.h</text>
</a>
</g>
</g>
<!-- Node1&#45;&gt;Node10 -->
<g id="edge11" class="edge">
<title>Node1&#45;&gt;Node10</title>
<path fill="none" stroke="midnightblue" d="M325.86,-112.44C356.24,-103.28 404.61,-88.69 438.32,-78.52"/>
<polygon fill="midnightblue" stroke="midnightblue" points="439.71,-81.76 448.27,-75.52 437.68,-75.05 439.71,-81.76"/>
</g>
<!-- Node2&#45;&gt;Node3 -->
<g id="edge2" class="edge">
<title>Node2&#45;&gt;Node3</title>
<path fill="none" stroke="midnightblue" d="M147.06,-56.44C125.83,-47.56 92.4,-33.56 68.25,-23.45"/>
<polygon fill="midnightblue" stroke="midnightblue" points="69.42,-20.15 58.84,-19.52 66.72,-26.61 69.42,-20.15"/>
</g>
<!-- Node4 -->
<g id="node4" class="node">
<title>Node4</title>
<g id="a_node4"><a xlink:title=" ">
<polygon fill="white" stroke="#bfbfbf" points="95.5,-0.5 95.5,-19.5 127.5,-19.5 127.5,-0.5 95.5,-0.5"/>
<text text-anchor="middle" x="111.5" y="-7.5" font-family="Helvetica,sans-Serif" font-size="10.00">list</text>
</a>
</g>
</g>
<!-- Node2&#45;&gt;Node4 -->
<g id="edge3" class="edge">
<title>Node2&#45;&gt;Node4</title>
<path fill="none" stroke="midnightblue" d="M158.5,-56.32C150.31,-48.42 137.99,-36.55 128.03,-26.94"/>
<polygon fill="midnightblue" stroke="midnightblue" points="130.29,-24.26 120.66,-19.83 125.43,-29.29 130.29,-24.26"/>
</g>
<!-- Node2&#45;&gt;Node5 -->
<g id="edge4" class="edge">
<title>Node2&#45;&gt;Node5</title>
<path fill="none" stroke="midnightblue" d="M188.89,-56.44C211.21,-47.52 246.4,-33.44 271.71,-23.32"/>
<polygon fill="midnightblue" stroke="midnightblue" points="273.22,-26.48 281.21,-19.52 270.62,-19.98 273.22,-26.48"/>
</g>
<!-- Node6 -->
<g id="node6" class="node">
<title>Node6</title>
<g id="a_node6"><a xlink:title=" ">
<polygon fill="white" stroke="#bfbfbf" points="145.5,-0.5 145.5,-19.5 189.5,-19.5 189.5,-0.5 145.5,-0.5"/>
<text text-anchor="middle" x="167.5" y="-7.5" font-family="Helvetica,sans-Serif" font-size="10.00">string</text>
</a>
</g>
</g>
<!-- Node2&#45;&gt;Node6 -->
<g id="edge5" class="edge">
<title>Node2&#45;&gt;Node6</title>
<path fill="none" stroke="midnightblue" d="M167.5,-56.08C167.5,-49.01 167.5,-38.86 167.5,-29.99"/>
<polygon fill="midnightblue" stroke="midnightblue" points="171,-29.75 167.5,-19.75 164,-29.75 171,-29.75"/>
</g>
<!-- Node7 -->
<g id="node7" class="node">
<title>Node7</title>
<g id="a_node7"><a xlink:title=" ">
<polygon fill="white" stroke="#bfbfbf" points="208,-0.5 208,-19.5 255,-19.5 255,-0.5 208,-0.5"/>
<text text-anchor="middle" x="231.5" y="-7.5" font-family="Helvetica,sans-Serif" font-size="10.00">vector</text>
</a>
</g>
</g>
<!-- Node2&#45;&gt;Node7 -->
<g id="edge6" class="edge">
<title>Node2&#45;&gt;Node7</title>
<path fill="none" stroke="midnightblue" d="M177.78,-56.32C187.34,-48.26 201.78,-36.08 213.28,-26.37"/>
<polygon fill="midnightblue" stroke="midnightblue" points="215.64,-28.96 221.03,-19.83 211.13,-23.61 215.64,-28.96"/>
</g>
<!-- Node11 -->
<g id="node11" class="node">
<title>Node11</title>
<g id="a_node11"><a xlink:title=" ">
<polygon fill="white" stroke="#bfbfbf" points="446.5,-0.5 446.5,-19.5 506.5,-19.5 506.5,-0.5 446.5,-0.5"/>
<text text-anchor="middle" x="476.5" y="-7.5" font-family="Helvetica,sans-Serif" font-size="10.00">iostream</text>
</a>
</g>
</g>
<!-- Node10&#45;&gt;Node11 -->
<g id="edge12" class="edge">
<title>Node10&#45;&gt;Node11</title>
<path fill="none" stroke="midnightblue" d="M476.5,-56.08C476.5,-49.01 476.5,-38.86 476.5,-29.99"/>
<polygon fill="midnightblue" stroke="midnightblue" points="480,-29.75 476.5,-19.75 473,-29.75 480,-29.75"/>
</g>
</g>
</svg>
