<?xml version="1.0" encoding="UTF-8" standalone="no"?>
<!DOCTYPE svg PUBLIC "-//W3C//DTD SVG 1.1//EN"
 "http://www.w3.org/Graphics/SVG/1.1/DTD/svg11.dtd">
<!-- Generated by graphviz version 2.43.0 (0)
 -->
<!-- Title: src/data_reader/kitti_data_reader.cpp Pages: 1 -->
<svg width="390pt" height="252pt"
 viewBox="0.00 0.00 390.27 252.00" xmlns="http://www.w3.org/2000/svg" xmlns:xlink="http://www.w3.org/1999/xlink">
<g id="graph0" class="graph" transform="scale(1 1) rotate(0) translate(4 248)">
<title>src/data_reader/kitti_data_reader.cpp</title>
<polygon fill="white" stroke="transparent" points="-4,4 -4,-248 386.27,-248 386.27,4 -4,4"/>
<!-- Node1 -->
<g id="node1" class="node">
<title>Node1</title>
<g id="a_node1"><a xlink:title=" ">
<polygon fill="#bfbfbf" stroke="black" points="153.27,-224.5 153.27,-243.5 351.27,-243.5 351.27,-224.5 153.27,-224.5"/>
<text text-anchor="middle" x="252.27" y="-231.5" font-family="Helvetica,sans-Serif" font-size="10.00">src/data_reader/kitti_data_reader.cpp</text>
</a>
</g>
</g>
<!-- Node2 -->
<g id="node2" class="node">
<title>Node2</title>
<g id="a_node2"><a xlink:href="kitti__data__reader_8h.html" target="_top" xlink:title=" ">
<polygon fill="white" stroke="black" points="26.77,-168.5 26.77,-187.5 213.77,-187.5 213.77,-168.5 26.77,-168.5"/>
<text text-anchor="middle" x="120.27" y="-175.5" font-family="Helvetica,sans-Serif" font-size="10.00">src/data_reader/kitti_data_reader.h</text>
</a>
</g>
</g>
<!-- Node1&#45;&gt;Node2 -->
<g id="edge1" class="edge">
<title>Node1&#45;&gt;Node2</title>
<path fill="none" stroke="midnightblue" d="M231.35,-224.44C209.53,-215.52 175.12,-201.44 150.37,-191.32"/>
<polygon fill="midnightblue" stroke="midnightblue" points="151.67,-188.06 141.08,-187.52 149.01,-194.54 151.67,-188.06"/>
</g>
<!-- Node3 -->
<g id="node3" class="node">
<title>Node3</title>
<g id="a_node3"><a xlink:title=" ">
<polygon fill="white" stroke="#bfbfbf" points="62.27,-0.5 62.27,-19.5 130.27,-19.5 130.27,-0.5 62.27,-0.5"/>
<text text-anchor="middle" x="96.27" y="-7.5" font-family="Helvetica,sans-Serif" font-size="10.00">filesystem</text>
</a>
</g>
</g>
<!-- Node1&#45;&gt;Node3 -->
<g id="edge7" class="edge">
<title>Node1&#45;&gt;Node3</title>
<path fill="none" stroke="midnightblue" d="M253.18,-224.12C255.59,-195.34 259.03,-103.7 211.27,-56 192.15,-36.91 164,-25.71 140.33,-19.26"/>
<polygon fill="midnightblue" stroke="midnightblue" points="141.05,-15.83 130.5,-16.78 139.34,-22.62 141.05,-15.83"/>
</g>
<!-- Node6 -->
<g id="node6" class="node">
<title>Node6</title>
<g id="a_node6"><a xlink:href="string_8h.html" target="_top" xlink:title=" ">
<polygon fill="white" stroke="black" points="280.27,-168.5 280.27,-187.5 382.27,-187.5 382.27,-168.5 280.27,-168.5"/>
<text text-anchor="middle" x="331.27" y="-175.5" font-family="Helvetica,sans-Serif" font-size="10.00">src/utility/string.h</text>
</a>
</g>
</g>
<!-- Node1&#45;&gt;Node6 -->
<g id="edge8" class="edge">
<title>Node1&#45;&gt;Node6</title>
<path fill="none" stroke="midnightblue" d="M264.96,-224.32C277.17,-215.98 295.85,-203.21 310.27,-193.35"/>
<polygon fill="midnightblue" stroke="midnightblue" points="312.33,-196.19 318.61,-187.65 308.37,-190.41 312.33,-196.19"/>
</g>
<!-- Node2&#45;&gt;Node3 -->
<g id="edge2" class="edge">
<title>Node2&#45;&gt;Node3</title>
<path fill="none" stroke="midnightblue" d="M64.35,-168.46C42.79,-162.14 20.24,-151.14 7.27,-132 -19.6,-92.38 37.84,-47.35 72.49,-25.05"/>
<polygon fill="midnightblue" stroke="midnightblue" points="74.52,-27.91 81.15,-19.64 70.82,-21.97 74.52,-27.91"/>
</g>
<!-- Node4 -->
<g id="node4" class="node">
<title>Node4</title>
<g id="a_node4"><a xlink:href="abstract__data__reader_8h.html" target="_top" xlink:title=" ">
<polygon fill="white" stroke="black" points="16.77,-112.5 16.77,-131.5 223.77,-131.5 223.77,-112.5 16.77,-112.5"/>
<text text-anchor="middle" x="120.27" y="-119.5" font-family="Helvetica,sans-Serif" font-size="10.00">src/data_reader/abstract_data_reader.h</text>
</a>
</g>
</g>
<!-- Node2&#45;&gt;Node4 -->
<g id="edge3" class="edge">
<title>Node2&#45;&gt;Node4</title>
<path fill="none" stroke="midnightblue" d="M120.27,-168.08C120.27,-161.01 120.27,-150.86 120.27,-141.99"/>
<polygon fill="midnightblue" stroke="midnightblue" points="123.77,-141.75 120.27,-131.75 116.77,-141.75 123.77,-141.75"/>
</g>
<!-- Node4&#45;&gt;Node3 -->
<g id="edge4" class="edge">
<title>Node4&#45;&gt;Node3</title>
<path fill="none" stroke="midnightblue" d="M105.61,-112.4C93.86,-104.58 78.24,-91.86 71.27,-76 64.15,-59.81 73.33,-40.91 82.5,-27.67"/>
<polygon fill="midnightblue" stroke="midnightblue" points="85.42,-29.61 88.65,-19.52 79.83,-25.39 85.42,-29.61"/>
</g>
<!-- Node5 -->
<g id="node5" class="node">
<title>Node5</title>
<g id="a_node5"><a xlink:href="types_8h.html" target="_top" xlink:title=" ">
<polygon fill="white" stroke="black" points="80.27,-56.5 80.27,-75.5 202.27,-75.5 202.27,-56.5 80.27,-56.5"/>
<text text-anchor="middle" x="141.27" y="-63.5" font-family="Helvetica,sans-Serif" font-size="10.00">src/data_type/types.h</text>
</a>
</g>
</g>
<!-- Node4&#45;&gt;Node5 -->
<g id="edge5" class="edge">
<title>Node4&#45;&gt;Node5</title>
<path fill="none" stroke="midnightblue" d="M123.73,-112.08C126.58,-104.77 130.7,-94.18 134.23,-85.1"/>
<polygon fill="midnightblue" stroke="midnightblue" points="137.5,-86.34 137.86,-75.75 130.98,-83.8 137.5,-86.34"/>
</g>
<!-- Node5&#45;&gt;Node3 -->
<g id="edge6" class="edge">
<title>Node5&#45;&gt;Node3</title>
<path fill="none" stroke="midnightblue" d="M133.84,-56.08C127.41,-48.38 117.96,-37.03 110.14,-27.65"/>
<polygon fill="midnightblue" stroke="midnightblue" points="112.65,-25.19 103.56,-19.75 107.27,-29.67 112.65,-25.19"/>
</g>
<!-- Node7 -->
<g id="node7" class="node">
<title>Node7</title>
<g id="a_node7"><a xlink:title=" ">
<polygon fill="white" stroke="#bfbfbf" points="309.27,-112.5 309.27,-131.5 353.27,-131.5 353.27,-112.5 309.27,-112.5"/>
<text text-anchor="middle" x="331.27" y="-119.5" font-family="Helvetica,sans-Serif" font-size="10.00">string</text>
</a>
</g>
</g>
<!-- Node6&#45;&gt;Node7 -->
<g id="edge9" class="edge">
<title>Node6&#45;&gt;Node7</title>
<path fill="none" stroke="midnightblue" d="M331.27,-168.08C331.27,-161.01 331.27,-150.86 331.27,-141.99"/>
<polygon fill="midnightblue" stroke="midnightblue" points="334.77,-141.75 331.27,-131.75 327.77,-141.75 334.77,-141.75"/>
</g>
</g>
</svg>
