<?xml version="1.0" encoding="UTF-8" standalone="no"?>
<!DOCTYPE svg PUBLIC "-//W3C//DTD SVG 1.1//EN"
 "http://www.w3.org/Graphics/SVG/1.1/DTD/svg11.dtd">
<!-- Generated by graphviz version 2.43.0 (0)
 -->
<!-- Title: src/data_reader/kitti_data_reader.h Pages: 1 -->
<svg width="271pt" height="196pt"
 viewBox="0.00 0.00 271.00 196.00" xmlns="http://www.w3.org/2000/svg" xmlns:xlink="http://www.w3.org/1999/xlink">
<g id="graph0" class="graph" transform="scale(1 1) rotate(0) translate(4 192)">
<title>src/data_reader/kitti_data_reader.h</title>
<polygon fill="white" stroke="transparent" points="-4,4 -4,-192 267,-192 267,4 -4,4"/>
<!-- Node1 -->
<g id="node1" class="node">
<title>Node1</title>
<g id="a_node1"><a xlink:title=" ">
<polygon fill="#bfbfbf" stroke="black" points="0,-168.5 0,-187.5 187,-187.5 187,-168.5 0,-168.5"/>
<text text-anchor="middle" x="93.5" y="-175.5" font-family="Helvetica,sans-Serif" font-size="10.00">src/data_reader/kitti_data_reader.h</text>
</a>
</g>
</g>
<!-- Node2 -->
<g id="node2" class="node">
<title>Node2</title>
<g id="a_node2"><a xlink:title=" ">
<polygon fill="white" stroke="#bfbfbf" points="36.5,-0.5 36.5,-19.5 104.5,-19.5 104.5,-0.5 36.5,-0.5"/>
<text text-anchor="middle" x="70.5" y="-7.5" font-family="Helvetica,sans-Serif" font-size="10.00">filesystem</text>
</a>
</g>
</g>
<!-- Node1&#45;&gt;Node2 -->
<g id="edge1" class="edge">
<title>Node1&#45;&gt;Node2</title>
<path fill="none" stroke="midnightblue" d="M79.42,-168.26C68.15,-160.35 53.15,-147.58 46.5,-132 31.64,-97.19 48.74,-52.77 60.75,-28.6"/>
<polygon fill="midnightblue" stroke="midnightblue" points="63.94,-30.05 65.48,-19.57 57.74,-26.8 63.94,-30.05"/>
</g>
<!-- Node3 -->
<g id="node3" class="node">
<title>Node3</title>
<g id="a_node3"><a xlink:href="abstract__data__reader_8h.html" target="_top" xlink:title=" ">
<polygon fill="white" stroke="black" points="56,-112.5 56,-131.5 263,-131.5 263,-112.5 56,-112.5"/>
<text text-anchor="middle" x="159.5" y="-119.5" font-family="Helvetica,sans-Serif" font-size="10.00">src/data_reader/abstract_data_reader.h</text>
</a>
</g>
</g>
<!-- Node1&#45;&gt;Node3 -->
<g id="edge2" class="edge">
<title>Node1&#45;&gt;Node3</title>
<path fill="none" stroke="midnightblue" d="M104.1,-168.32C113.96,-160.26 128.85,-148.08 140.72,-138.37"/>
<polygon fill="midnightblue" stroke="midnightblue" points="143.18,-140.88 148.7,-131.83 138.75,-135.46 143.18,-140.88"/>
</g>
<!-- Node3&#45;&gt;Node2 -->
<g id="edge3" class="edge">
<title>Node3&#45;&gt;Node2</title>
<path fill="none" stroke="midnightblue" d="M138.51,-112.42C122.83,-104.99 102.04,-92.78 89.5,-76 79.49,-62.61 74.74,-44.04 72.49,-30.18"/>
<polygon fill="midnightblue" stroke="midnightblue" points="75.91,-29.32 71.13,-19.86 68.97,-30.23 75.91,-29.32"/>
</g>
<!-- Node4 -->
<g id="node4" class="node">
<title>Node4</title>
<g id="a_node4"><a xlink:href="types_8h.html" target="_top" xlink:title=" ">
<polygon fill="white" stroke="black" points="98.5,-56.5 98.5,-75.5 220.5,-75.5 220.5,-56.5 98.5,-56.5"/>
<text text-anchor="middle" x="159.5" y="-63.5" font-family="Helvetica,sans-Serif" font-size="10.00">src/data_type/types.h</text>
</a>
</g>
</g>
<!-- Node3&#45;&gt;Node4 -->
<g id="edge4" class="edge">
<title>Node3&#45;&gt;Node4</title>
<path fill="none" stroke="midnightblue" d="M159.5,-112.08C159.5,-105.01 159.5,-94.86 159.5,-85.99"/>
<polygon fill="midnightblue" stroke="midnightblue" points="163,-85.75 159.5,-75.75 156,-85.75 163,-85.75"/>
</g>
<!-- Node4&#45;&gt;Node2 -->
<g id="edge5" class="edge">
<title>Node4&#45;&gt;Node2</title>
<path fill="none" stroke="midnightblue" d="M145.2,-56.32C131.32,-47.9 110.01,-34.97 93.7,-25.07"/>
<polygon fill="midnightblue" stroke="midnightblue" points="95.13,-21.85 84.76,-19.65 91.5,-27.83 95.13,-21.85"/>
</g>
</g>
</svg>
