<?xml version="1.0" encoding="UTF-8" standalone="no"?>
<!DOCTYPE svg PUBLIC "-//W3C//DTD SVG 1.1//EN"
 "http://www.w3.org/Graphics/SVG/1.1/DTD/svg11.dtd">
<!-- Generated by graphviz version 2.43.0 (0)
 -->
<!-- Title: src/utils/log.h Pages: 1 -->
<!--zoomable 84 -->
<svg id="main" version="1.1" xmlns="http://www.w3.org/2000/svg" xmlns:xlink="http://www.w3.org/1999/xlink" xml:space="preserve" onload="init(evt)">
<style type="text/css"><![CDATA[
.edge:hover path { stroke: red; }
.edge:hover polygon { stroke: red; fill: red; }
]]></style>
<script type="text/javascript"><![CDATA[
var edges = document.getElementsByTagName('g');
if (edges && edges.length) {
  for (var i=0;i<edges.length;i++) {
    if (edges[i].id.substr(0,4)=='edge') {
      edges[i].setAttribute('class','edge');
    }
  }
}
]]></script>
        <defs>
                <circle id="rim" cx="0" cy="0" r="7"/>
                <circle id="rim2" cx="0" cy="0" r="3.5"/>
                <g id="zoomPlus">
                        <use xlink:href="#rim" fill="#404040">
                                <set attributeName="fill" to="#808080" begin="zoomplus.mouseover" end="zoomplus.mouseout"/>
                        </use>
                        <path d="M-4,0h8M0,-4v8" fill="none" stroke="white" stroke-width="1.5" pointer-events="none"/>
                </g>
                <g id="zoomMin">
                        <use xlink:href="#rim" fill="#404040">
                                <set attributeName="fill" to="#808080" begin="zoomminus.mouseover" end="zoomminus.mouseout"/>
                        </use>
                        <path d="M-4,0h8" fill="none" stroke="white" stroke-width="1.5" pointer-events="none"/>
                </g>
                <g id="dirArrow">
                        <path fill="none" stroke="white" stroke-width="1.5" d="M0,-3.0v7 M-2.5,-0.5L0,-3.0L2.5,-0.5"/>
                </g>
               <g id="resetDef">
                       <use xlink:href="#rim2" fill="#404040">
                               <set attributeName="fill" to="#808080" begin="reset.mouseover" end="reset.mouseout"/>
                       </use>
               </g>
        </defs>

<script type="text/javascript">
var viewWidth = 1301;
var viewHeight = 84;
var sectionId = 'dynsection-1';
</script>
<script xlink:href="svgpan.js"/>
<svg id="graph" class="graph">
<g id="viewport">
<title>src/utils/log.h</title>
<polygon fill="white" stroke="transparent" points="-4,4 -4,-80 1297,-80 1297,4 -4,4"/>
<!-- Node1 -->
<g id="node1" class="node">
<title>Node1</title>
<g id="a_node1"><a xlink:title=" ">
<polygon fill="#bfbfbf" stroke="black" points="608.5,-56.5 608.5,-75.5 690.5,-75.5 690.5,-56.5 608.5,-56.5"/>
<text text-anchor="middle" x="649.5" y="-63.5" font-family="Helvetica,sans-Serif" font-size="10.00">src/utils/log.h</text>
</a>
</g>
</g>
<!-- Node2 -->
<g id="node2" class="node">
<title>Node2</title>
<g id="a_node2"><a xlink:href="app_2main_8cpp.html" target="_top" xlink:title=" ">
<polygon fill="white" stroke="black" points="0,-0.5 0,-19.5 83,-19.5 83,-0.5 0,-0.5"/>
<text text-anchor="middle" x="41.5" y="-7.5" font-family="Helvetica,sans-Serif" font-size="10.00">app/main.cpp</text>
</a>
</g>
</g>
<!-- Node1&#45;&gt;Node2 -->
<g id="edge1" class="edge">
<title>Node1&#45;&gt;Node2</title>
<path fill="none" stroke="midnightblue" d="M598.13,-62.54C499.58,-57.44 277.25,-44.15 91.5,-20 88.79,-19.65 86,-19.25 83.19,-18.82"/>
<polygon fill="midnightblue" stroke="midnightblue" points="598.24,-66.05 608.4,-63.06 598.59,-59.06 598.24,-66.05"/>
</g>
<!-- Node3 -->
<g id="node3" class="node">
<title>Node3</title>
<g id="a_node3"><a xlink:href="kdtree_8cpp.html" target="_top" xlink:title=" ">
<polygon fill="white" stroke="black" points="101,-0.5 101,-19.5 260,-19.5 260,-0.5 101,-0.5"/>
<text text-anchor="middle" x="180.5" y="-7.5" font-family="Helvetica,sans-Serif" font-size="10.00">src/data_structure/kdtree.cpp</text>
</a>
</g>
</g>
<!-- Node1&#45;&gt;Node3 -->
<g id="edge2" class="edge">
<title>Node1&#45;&gt;Node3</title>
<path fill="none" stroke="midnightblue" d="M598.32,-59.11C515.19,-49.54 350.46,-30.57 254.54,-19.53"/>
<polygon fill="midnightblue" stroke="midnightblue" points="597.96,-62.59 608.29,-60.26 598.76,-55.63 597.96,-62.59"/>
</g>
<!-- Node4 -->
<g id="node4" class="node">
<title>Node4</title>
<g id="a_node4"><a xlink:href="button_8cpp.html" target="_top" xlink:title=" ">
<polygon fill="white" stroke="black" points="277.5,-0.5 277.5,-19.5 435.5,-19.5 435.5,-0.5 277.5,-0.5"/>
<text text-anchor="middle" x="356.5" y="-7.5" font-family="Helvetica,sans-Serif" font-size="10.00">src/user_interface/button.cpp</text>
</a>
</g>
</g>
<!-- Node1&#45;&gt;Node4 -->
<g id="edge3" class="edge">
<title>Node1&#45;&gt;Node4</title>
<path fill="none" stroke="midnightblue" d="M598.55,-55.61C543.46,-45.46 456.4,-29.41 403.07,-19.58"/>
<polygon fill="midnightblue" stroke="midnightblue" points="597.98,-59.06 608.45,-57.43 599.25,-52.18 597.98,-59.06"/>
</g>
<!-- Node5 -->
<g id="node5" class="node">
<title>Node5</title>
<g id="a_node5"><a xlink:href="image__viewer_8cpp.html" target="_top" xlink:title=" ">
<polygon fill="white" stroke="black" points="453,-0.5 453,-19.5 648,-19.5 648,-0.5 453,-0.5"/>
<text text-anchor="middle" x="550.5" y="-7.5" font-family="Helvetica,sans-Serif" font-size="10.00">src/user_interface/image_viewer.cpp</text>
</a>
</g>
</g>
<!-- Node1&#45;&gt;Node5 -->
<g id="edge4" class="edge">
<title>Node1&#45;&gt;Node5</title>
<path fill="none" stroke="midnightblue" d="M624.66,-51.45C606.39,-41.48 582.08,-28.23 566.37,-19.65"/>
<polygon fill="midnightblue" stroke="midnightblue" points="623.14,-54.61 633.59,-56.32 626.49,-48.46 623.14,-54.61"/>
</g>
<!-- Node6 -->
<g id="node6" class="node">
<title>Node6</title>
<g id="a_node6"><a xlink:href="selector_8cpp.html" target="_top" xlink:title=" ">
<polygon fill="white" stroke="black" points="666,-0.5 666,-19.5 831,-19.5 831,-0.5 666,-0.5"/>
<text text-anchor="middle" x="748.5" y="-7.5" font-family="Helvetica,sans-Serif" font-size="10.00">src/user_interface/selector.cpp</text>
</a>
</g>
</g>
<!-- Node1&#45;&gt;Node6 -->
<g id="edge5" class="edge">
<title>Node1&#45;&gt;Node6</title>
<path fill="none" stroke="midnightblue" d="M674.34,-51.45C692.61,-41.48 716.92,-28.23 732.63,-19.65"/>
<polygon fill="midnightblue" stroke="midnightblue" points="672.51,-48.46 665.41,-56.32 675.86,-54.61 672.51,-48.46"/>
</g>
<!-- Node7 -->
<g id="node7" class="node">
<title>Node7</title>
<g id="a_node7"><a xlink:href="top__viewer_8cpp.html" target="_top" xlink:title=" ">
<polygon fill="white" stroke="black" points="849.5,-0.5 849.5,-19.5 1029.5,-19.5 1029.5,-0.5 849.5,-0.5"/>
<text text-anchor="middle" x="939.5" y="-7.5" font-family="Helvetica,sans-Serif" font-size="10.00">src/user_interface/top_viewer.cpp</text>
</a>
</g>
</g>
<!-- Node1&#45;&gt;Node7 -->
<g id="edge6" class="edge">
<title>Node1&#45;&gt;Node7</title>
<path fill="none" stroke="midnightblue" d="M700.9,-55.43C755.55,-45.25 841.17,-29.31 893.62,-19.54"/>
<polygon fill="midnightblue" stroke="midnightblue" points="699.93,-52.05 690.74,-57.32 701.21,-58.93 699.93,-52.05"/>
</g>
<!-- Node8 -->
<g id="node8" class="node">
<title>Node8</title>
<g id="a_node8"><a xlink:href="ui_8cpp.html" target="_top" xlink:title=" ">
<polygon fill="white" stroke="black" points="1047.5,-0.5 1047.5,-19.5 1183.5,-19.5 1183.5,-0.5 1047.5,-0.5"/>
<text text-anchor="middle" x="1115.5" y="-7.5" font-family="Helvetica,sans-Serif" font-size="10.00">src/user_interface/ui.cpp</text>
</a>
</g>
</g>
<!-- Node1&#45;&gt;Node8 -->
<g id="edge7" class="edge">
<title>Node1&#45;&gt;Node8</title>
<path fill="none" stroke="midnightblue" d="M700.71,-59.1C775.1,-50.51 917.41,-34.08 1038.5,-20 1041.44,-19.66 1044.45,-19.31 1047.48,-18.95"/>
<polygon fill="midnightblue" stroke="midnightblue" points="700.2,-55.63 690.67,-60.25 701,-62.58 700.2,-55.63"/>
</g>
<!-- Node9 -->
<g id="node9" class="node">
<title>Node9</title>
<g id="a_node9"><a xlink:href="window_8cpp.html" target="_top" xlink:title=" ">
<polygon fill="white" stroke="black" points="1202,-0.5 1202,-19.5 1293,-19.5 1293,-0.5 1202,-0.5"/>
<text text-anchor="middle" x="1247.5" y="-7.5" font-family="Helvetica,sans-Serif" font-size="10.00">src/window.cpp</text>
</a>
</g>
</g>
<!-- Node1&#45;&gt;Node9 -->
<g id="edge8" class="edge">
<title>Node1&#45;&gt;Node9</title>
<path fill="none" stroke="midnightblue" d="M700.9,-62.11C797.46,-56.37 1012.46,-42.15 1192.5,-20 1195.57,-19.62 1198.74,-19.2 1201.92,-18.74"/>
<polygon fill="midnightblue" stroke="midnightblue" points="700.6,-58.62 690.83,-62.7 701.02,-65.61 700.6,-58.62"/>
</g>
</g>
</svg>
        <g id="navigator" transform="translate(0 0)" fill="#404254">
                <rect fill="#f2f5e9" fill-opacity="0.5" stroke="#606060" stroke-width=".5" x="0" y="0" width="60" height="60"/>
                <use id="zoomplus" xlink:href="#zoomPlus" x="17" y="9" onmousedown="handleZoom(evt,'in')"/>
                <use id="zoomminus" xlink:href="#zoomMin" x="42" y="9" onmousedown="handleZoom(evt,'out')"/>
                <use id="reset" xlink:href="#resetDef" x="30" y="36" onmousedown="handleReset()"/>
                <g id="arrowUp" xlink:href="#dirArrow" transform="translate(30 24)" onmousedown="handlePan(0,-1)">
                  <use xlink:href="#rim" fill="#404040">
                        <set attributeName="fill" to="#808080" begin="arrowUp.mouseover" end="arrowUp.mouseout"/>
                  </use>
                  <path fill="none" stroke="white" stroke-width="1.5" d="M0,-3.0v7 M-2.5,-0.5L0,-3.0L2.5,-0.5"/>
                </g>
                <g id="arrowRight" xlink:href="#dirArrow" transform="rotate(90) translate(36 -43)" onmousedown="handlePan(1,0)">
                  <use xlink:href="#rim" fill="#404040">
                        <set attributeName="fill" to="#808080" begin="arrowRight.mouseover" end="arrowRight.mouseout"/>
                  </use>
                  <path fill="none" stroke="white" stroke-width="1.5" d="M0,-3.0v7 M-2.5,-0.5L0,-3.0L2.5,-0.5"/>
                </g>
                <g id="arrowDown" xlink:href="#dirArrow" transform="rotate(180) translate(-30 -48)" onmousedown="handlePan(0,1)">
                  <use xlink:href="#rim" fill="#404040">
                        <set attributeName="fill" to="#808080" begin="arrowDown.mouseover" end="arrowDown.mouseout"/>
                  </use>
                  <path fill="none" stroke="white" stroke-width="1.5" d="M0,-3.0v7 M-2.5,-0.5L0,-3.0L2.5,-0.5"/>
                </g>
                <g id="arrowLeft" xlink:href="#dirArrow" transform="rotate(270) translate(-36 17)" onmousedown="handlePan(-1,0)">
                  <use xlink:href="#rim" fill="#404040">
                        <set attributeName="fill" to="#808080" begin="arrowLeft.mouseover" end="arrowLeft.mouseout"/>
                  </use>
                  <path fill="none" stroke="white" stroke-width="1.5" d="M0,-3.0v7 M-2.5,-0.5L0,-3.0L2.5,-0.5"/>
                </g>
        </g>
        <svg viewBox="0 0 15 15" width="100%" height="30px" preserveAspectRatio="xMaxYMin meet">
         <g id="arrow_out" transform="scale(0.3 0.3)">
          <a xlink:href="log_8h__dep__incl_org.svg" target="_base">
           <rect id="button" ry="5" rx="5" y="6" x="6" height="38" width="38"
                fill="#f2f5e9" fill-opacity="0.5" stroke="#606060" stroke-width="1.0"/>
           <path id="arrow"
             d="M 11.500037,31.436501 C 11.940474,20.09759 22.043105,11.32322 32.158766,21.979434 L 37.068811,17.246167 C 37.068811,17.246167 37.088388,32 37.088388,32 L 22.160133,31.978069 C 22.160133,31.978069 26.997745,27.140456 26.997745,27.140456 C 18.528582,18.264221 13.291696,25.230495 11.500037,31.436501 z"
             style="fill:#404040;"/>
          </a>
         </g>
        </svg>
</svg>
