<?xml version="1.0" encoding="UTF-8" standalone="no"?>
<!DOCTYPE svg PUBLIC "-//W3C//DTD SVG 1.1//EN"
 "http://www.w3.org/Graphics/SVG/1.1/DTD/svg11.dtd">
<!-- Generated by graphviz version 2.43.0 (0)
 -->
<!-- Title: src/utils/log.h Pages: 1 -->
<svg width="927pt" height="84pt"
 viewBox="0.00 0.00 927.00 84.00" xmlns="http://www.w3.org/2000/svg" xmlns:xlink="http://www.w3.org/1999/xlink">
<g id="graph0" class="graph" transform="scale(1 1) rotate(0) translate(4 80)">
<title>src/utils/log.h</title>
<polygon fill="white" stroke="transparent" points="-4,4 -4,-80 923,-80 923,4 -4,4"/>
<!-- Node1 -->
<g id="node1" class="node">
<title>Node1</title>
<g id="a_node1"><a xlink:title=" ">
<polygon fill="#bfbfbf" stroke="black" points="432.5,-56.5 432.5,-75.5 514.5,-75.5 514.5,-56.5 432.5,-56.5"/>
<text text-anchor="middle" x="473.5" y="-63.5" font-family="Helvetica,sans-Serif" font-size="10.00">src/utils/log.h</text>
</a>
</g>
</g>
<!-- Node2 -->
<g id="node2" class="node">
<title>Node2</title>
<g id="a_node2"><a xlink:href="app_2main_8cpp.html" target="_top" xlink:title=" ">
<polygon fill="white" stroke="black" points="0,-0.5 0,-19.5 83,-19.5 83,-0.5 0,-0.5"/>
<text text-anchor="middle" x="41.5" y="-7.5" font-family="Helvetica,sans-Serif" font-size="10.00">app/main.cpp</text>
</a>
</g>
</g>
<!-- Node1&#45;&gt;Node2 -->
<g id="edge1" class="edge">
<title>Node1&#45;&gt;Node2</title>
<path fill="none" stroke="midnightblue" d="M421.9,-59.85C348.54,-52.31 209.95,-37.28 92.5,-20 89.48,-19.55 86.36,-19.07 83.22,-18.56"/>
<polygon fill="midnightblue" stroke="midnightblue" points="421.94,-63.37 432.24,-60.91 422.65,-56.41 421.94,-63.37"/>
</g>
<!-- Node3 -->
<g id="node3" class="node">
<title>Node3</title>
<g id="a_node3"><a xlink:href="button_8cpp.html" target="_top" xlink:title=" ">
<polygon fill="white" stroke="black" points="101.5,-0.5 101.5,-19.5 259.5,-19.5 259.5,-0.5 101.5,-0.5"/>
<text text-anchor="middle" x="180.5" y="-7.5" font-family="Helvetica,sans-Serif" font-size="10.00">src/user_interface/button.cpp</text>
</a>
</g>
</g>
<!-- Node1&#45;&gt;Node3 -->
<g id="edge2" class="edge">
<title>Node1&#45;&gt;Node3</title>
<path fill="none" stroke="midnightblue" d="M422.55,-55.61C367.46,-45.46 280.4,-29.41 227.07,-19.58"/>
<polygon fill="midnightblue" stroke="midnightblue" points="421.98,-59.06 432.45,-57.43 423.25,-52.18 421.98,-59.06"/>
</g>
<!-- Node4 -->
<g id="node4" class="node">
<title>Node4</title>
<g id="a_node4"><a xlink:href="image__viewer_8cpp.html" target="_top" xlink:title=" ">
<polygon fill="white" stroke="black" points="277,-0.5 277,-19.5 472,-19.5 472,-0.5 277,-0.5"/>
<text text-anchor="middle" x="374.5" y="-7.5" font-family="Helvetica,sans-Serif" font-size="10.00">src/user_interface/image_viewer.cpp</text>
</a>
</g>
</g>
<!-- Node1&#45;&gt;Node4 -->
<g id="edge3" class="edge">
<title>Node1&#45;&gt;Node4</title>
<path fill="none" stroke="midnightblue" d="M448.66,-51.45C430.39,-41.48 406.08,-28.23 390.37,-19.65"/>
<polygon fill="midnightblue" stroke="midnightblue" points="447.14,-54.61 457.59,-56.32 450.49,-48.46 447.14,-54.61"/>
</g>
<!-- Node5 -->
<g id="node5" class="node">
<title>Node5</title>
<g id="a_node5"><a xlink:href="selector_8cpp.html" target="_top" xlink:title=" ">
<polygon fill="white" stroke="black" points="490,-0.5 490,-19.5 655,-19.5 655,-0.5 490,-0.5"/>
<text text-anchor="middle" x="572.5" y="-7.5" font-family="Helvetica,sans-Serif" font-size="10.00">src/user_interface/selector.cpp</text>
</a>
</g>
</g>
<!-- Node1&#45;&gt;Node5 -->
<g id="edge4" class="edge">
<title>Node1&#45;&gt;Node5</title>
<path fill="none" stroke="midnightblue" d="M498.34,-51.45C516.61,-41.48 540.92,-28.23 556.63,-19.65"/>
<polygon fill="midnightblue" stroke="midnightblue" points="496.51,-48.46 489.41,-56.32 499.86,-54.61 496.51,-48.46"/>
</g>
<!-- Node6 -->
<g id="node6" class="node">
<title>Node6</title>
<g id="a_node6"><a xlink:href="ui_8cpp.html" target="_top" xlink:title=" ">
<polygon fill="white" stroke="black" points="673.5,-0.5 673.5,-19.5 809.5,-19.5 809.5,-0.5 673.5,-0.5"/>
<text text-anchor="middle" x="741.5" y="-7.5" font-family="Helvetica,sans-Serif" font-size="10.00">src/user_interface/ui.cpp</text>
</a>
</g>
</g>
<!-- Node1&#45;&gt;Node6 -->
<g id="edge5" class="edge">
<title>Node1&#45;&gt;Node6</title>
<path fill="none" stroke="midnightblue" d="M524.87,-54.65C575.54,-44.44 652.05,-29.02 699.28,-19.51"/>
<polygon fill="midnightblue" stroke="midnightblue" points="523.9,-51.27 514.79,-56.68 525.28,-58.14 523.9,-51.27"/>
</g>
<!-- Node7 -->
<g id="node7" class="node">
<title>Node7</title>
<g id="a_node7"><a xlink:href="window_8cpp.html" target="_top" xlink:title=" ">
<polygon fill="white" stroke="black" points="828,-0.5 828,-19.5 919,-19.5 919,-0.5 828,-0.5"/>
<text text-anchor="middle" x="873.5" y="-7.5" font-family="Helvetica,sans-Serif" font-size="10.00">src/window.cpp</text>
</a>
</g>
</g>
<!-- Node1&#45;&gt;Node7 -->
<g id="edge6" class="edge">
<title>Node1&#45;&gt;Node7</title>
<path fill="none" stroke="midnightblue" d="M524.66,-58.85C592.08,-50.63 714.34,-35.31 818.5,-20 821.56,-19.55 824.72,-19.07 827.9,-18.58"/>
<polygon fill="midnightblue" stroke="midnightblue" points="524.22,-55.38 514.72,-60.06 525.07,-62.33 524.22,-55.38"/>
</g>
</g>
</svg>
