<?xml version="1.0" encoding="UTF-8" standalone="no"?>
<!DOCTYPE svg PUBLIC "-//W3C//DTD SVG 1.1//EN"
 "http://www.w3.org/Graphics/SVG/1.1/DTD/svg11.dtd">
<!-- Generated by graphviz version 2.43.0 (0)
 -->
<!-- Title: ad_framwork::data_structure::TEST Pages: 1 -->
<svg width="473pt" height="66pt"
 viewBox="0.00 0.00 473.00 66.00" xmlns="http://www.w3.org/2000/svg" xmlns:xlink="http://www.w3.org/1999/xlink">
<g id="graph0" class="graph" transform="scale(1 1) rotate(0) translate(4 62)">
<title>ad_framwork::data_structure::TEST</title>
<polygon fill="white" stroke="transparent" points="-4,4 -4,-62 469,-62 469,4 -4,4"/>
<!-- Node1 -->
<g id="node1" class="node">
<title>Node1</title>
<g id="a_node1"><a xlink:title=" ">
<polygon fill="#bfbfbf" stroke="black" points="0,-19.5 0,-38.5 188,-38.5 188,-19.5 0,-19.5"/>
<text text-anchor="middle" x="94" y="-26.5" font-family="Helvetica,sans-Serif" font-size="10.00">ad_framwork::data_structure::TEST</text>
</a>
</g>
</g>
<!-- Node2 -->
<g id="node2" class="node">
<title>Node2</title>
<g id="a_node2"><a xlink:href="classad__framwork_1_1data__structure_1_1KdTree.html#a8c34a36fff9c1643d2994907387d9fbb" target="_top" xlink:title=" ">
<polygon fill="white" stroke="black" points="229.5,-38.5 229.5,-57.5 459.5,-57.5 459.5,-38.5 229.5,-38.5"/>
<text text-anchor="middle" x="344.5" y="-45.5" font-family="Helvetica,sans-Serif" font-size="10.00">ad_framwork::data_structure::KdTree::Insert</text>
</a>
</g>
</g>
<!-- Node1&#45;&gt;Node2 -->
<g id="edge1" class="edge">
<title>Node1&#45;&gt;Node2</title>
<path fill="none" stroke="midnightblue" d="M188.24,-36.13C198.36,-36.9 208.78,-37.7 219.2,-38.5"/>
<polygon fill="midnightblue" stroke="midnightblue" points="218.94,-41.99 229.18,-39.26 219.47,-35.01 218.94,-41.99"/>
</g>
<!-- Node3 -->
<g id="node3" class="node">
<title>Node3</title>
<g id="a_node3"><a xlink:href="classad__framwork_1_1data__structure_1_1KdTree.html#ad03e695eba8ab98fd443c5742a5f6fbe" target="_top" xlink:title=" ">
<polygon fill="white" stroke="black" points="224,-0.5 224,-19.5 465,-19.5 465,-0.5 224,-0.5"/>
<text text-anchor="middle" x="344.5" y="-7.5" font-family="Helvetica,sans-Serif" font-size="10.00">ad_framwork::data_structure::KdTree::Nearest</text>
</a>
</g>
</g>
<!-- Node1&#45;&gt;Node3 -->
<g id="edge2" class="edge">
<title>Node1&#45;&gt;Node3</title>
<path fill="none" stroke="midnightblue" d="M188.24,-21.87C196.55,-21.24 205.07,-20.58 213.62,-19.93"/>
<polygon fill="midnightblue" stroke="midnightblue" points="213.95,-23.42 223.66,-19.16 213.42,-16.44 213.95,-23.42"/>
</g>
</g>
</svg>
