<?xml version="1.0" encoding="UTF-8" standalone="no"?>
<!DOCTYPE svg PUBLIC "-//W3C//DTD SVG 1.1//EN"
 "http://www.w3.org/Graphics/SVG/1.1/DTD/svg11.dtd">
<!-- Generated by graphviz version 2.43.0 (0)
 -->
<!-- Title: ad_framework::data_structure::TEST Pages: 1 -->
<svg width="485pt" height="66pt"
 viewBox="0.00 0.00 485.00 66.00" xmlns="http://www.w3.org/2000/svg" xmlns:xlink="http://www.w3.org/1999/xlink">
<g id="graph0" class="graph" transform="scale(1 1) rotate(0) translate(4 62)">
<title>ad_framework::data_structure::TEST</title>
<polygon fill="white" stroke="transparent" points="-4,4 -4,-62 481,-62 481,4 -4,4"/>
<!-- Node1 -->
<g id="node1" class="node">
<title>Node1</title>
<g id="a_node1"><a xlink:title=" ">
<polygon fill="#bfbfbf" stroke="black" points="0,-19.5 0,-38.5 194,-38.5 194,-19.5 0,-19.5"/>
<text text-anchor="middle" x="97" y="-26.5" font-family="Helvetica,sans-Serif" font-size="10.00">ad_framework::data_structure::TEST</text>
</a>
</g>
</g>
<!-- Node2 -->
<g id="node2" class="node">
<title>Node2</title>
<g id="a_node2"><a xlink:href="classad__framework_1_1data__structure_1_1KdTree.html#a0fbcdedd9a3e110c44e1f7232eff069a" target="_top" xlink:title=" ">
<polygon fill="white" stroke="black" points="235.5,-38.5 235.5,-57.5 471.5,-57.5 471.5,-38.5 235.5,-38.5"/>
<text text-anchor="middle" x="353.5" y="-45.5" font-family="Helvetica,sans-Serif" font-size="10.00">ad_framework::data_structure::KdTree::Insert</text>
</a>
</g>
</g>
<!-- Node1&#45;&gt;Node2 -->
<g id="edge1" class="edge">
<title>Node1&#45;&gt;Node2</title>
<path fill="none" stroke="midnightblue" d="M194.22,-36.18C204.35,-36.94 214.76,-37.72 225.18,-38.49"/>
<polygon fill="midnightblue" stroke="midnightblue" points="224.92,-41.98 235.15,-39.24 225.44,-35 224.92,-41.98"/>
</g>
<!-- Node3 -->
<g id="node3" class="node">
<title>Node3</title>
<g id="a_node3"><a xlink:href="classad__framework_1_1data__structure_1_1KdTree.html#ab1c565dcc90e3611f9972fb1bc89fa6a" target="_top" xlink:title=" ">
<polygon fill="white" stroke="black" points="230,-0.5 230,-19.5 477,-19.5 477,-0.5 230,-0.5"/>
<text text-anchor="middle" x="353.5" y="-7.5" font-family="Helvetica,sans-Serif" font-size="10.00">ad_framework::data_structure::KdTree::Nearest</text>
</a>
</g>
</g>
<!-- Node1&#45;&gt;Node3 -->
<g id="edge2" class="edge">
<title>Node1&#45;&gt;Node3</title>
<path fill="none" stroke="midnightblue" d="M194.22,-21.82C202.61,-21.19 211.2,-20.55 219.82,-19.91"/>
<polygon fill="midnightblue" stroke="midnightblue" points="220.24,-23.38 229.95,-19.15 219.72,-16.4 220.24,-23.38"/>
</g>
</g>
</svg>
