<?xml version="1.0" encoding="UTF-8" standalone="no"?>
<!DOCTYPE svg PUBLIC "-//W3C//DTD SVG 1.1//EN"
 "http://www.w3.org/Graphics/SVG/1.1/DTD/svg11.dtd">
<!-- Generated by graphviz version 2.43.0 (0)
 -->
<!-- Title: ad_framework::ToStringWithZeroPadding Pages: 1 -->
<svg width="549pt" height="180pt"
 viewBox="0.00 0.00 549.00 180.00" xmlns="http://www.w3.org/2000/svg" xmlns:xlink="http://www.w3.org/1999/xlink">
<g id="graph0" class="graph" transform="scale(1 1) rotate(0) translate(4 176)">
<title>ad_framework::ToStringWithZeroPadding</title>
<polygon fill="white" stroke="transparent" points="-4,4 -4,-176 545,-176 545,4 -4,4"/>
<!-- Node1 -->
<g id="node1" class="node">
<title>Node1</title>
<g id="a_node1"><a xlink:title=" ">
<polygon fill="#bfbfbf" stroke="black" points="326,-76.5 326,-95.5 541,-95.5 541,-76.5 326,-76.5"/>
<text text-anchor="middle" x="433.5" y="-83.5" font-family="Helvetica,sans-Serif" font-size="10.00">ad_framework::ToStringWithZeroPadding</text>
</a>
</g>
</g>
<!-- Node2 -->
<g id="node2" class="node">
<title>Node2</title>
<g id="a_node2"><a xlink:href="classad__framework_1_1KittiDataReader.html#afe4f9602f160304238f8ad0636d9c5f9" target="_top" xlink:title=" ">
<polygon fill="white" stroke="black" points="16,-152.5 16,-171.5 274,-171.5 274,-152.5 16,-152.5"/>
<text text-anchor="middle" x="145" y="-159.5" font-family="Helvetica,sans-Serif" font-size="10.00">ad_framework::KittiDataReader::ReadColorImage</text>
</a>
</g>
</g>
<!-- Node1&#45;&gt;Node2 -->
<g id="edge1" class="edge">
<title>Node1&#45;&gt;Node2</title>
<path fill="none" stroke="midnightblue" d="M403.92,-99.9C375.65,-113.05 330.81,-132.32 290,-143 275.12,-146.89 259.15,-150.01 243.46,-152.5"/>
<polygon fill="midnightblue" stroke="midnightblue" points="405.65,-102.95 413.2,-95.52 402.66,-96.62 405.65,-102.95"/>
</g>
<!-- Node3 -->
<g id="node3" class="node">
<title>Node3</title>
<g id="a_node3"><a xlink:href="classad__framework_1_1KittiDataReader.html#a4b29a0eb541b483c0af914b419c2ebc6" target="_top" xlink:title=" ">
<polygon fill="white" stroke="black" points="0,-114.5 0,-133.5 290,-133.5 290,-114.5 0,-114.5"/>
<text text-anchor="middle" x="145" y="-121.5" font-family="Helvetica,sans-Serif" font-size="10.00">ad_framework::KittiDataReader::ReadColorStereoImage</text>
</a>
</g>
</g>
<!-- Node1&#45;&gt;Node3 -->
<g id="edge2" class="edge">
<title>Node1&#45;&gt;Node3</title>
<path fill="none" stroke="midnightblue" d="M351.11,-96.87C331.12,-99.54 309.79,-102.38 290,-105 266.63,-108.1 241.12,-111.47 218.15,-114.5"/>
<polygon fill="midnightblue" stroke="midnightblue" points="351.66,-100.33 361.1,-95.54 350.73,-93.39 351.66,-100.33"/>
</g>
<!-- Node4 -->
<g id="node4" class="node">
<title>Node4</title>
<g id="a_node4"><a xlink:href="classad__framework_1_1KittiDataReader.html#a03e0ea040f299f7bf9ea0d912bc703a2" target="_top" xlink:title=" ">
<polygon fill="white" stroke="black" points="17,-76.5 17,-95.5 273,-95.5 273,-76.5 17,-76.5"/>
<text text-anchor="middle" x="145" y="-83.5" font-family="Helvetica,sans-Serif" font-size="10.00">ad_framework::KittiDataReader::ReadGrayImage</text>
</a>
</g>
</g>
<!-- Node1&#45;&gt;Node4 -->
<g id="edge3" class="edge">
<title>Node1&#45;&gt;Node4</title>
<path fill="none" stroke="midnightblue" d="M315.67,-86C301.64,-86 287.26,-86 273.1,-86"/>
<polygon fill="midnightblue" stroke="midnightblue" points="315.82,-89.5 325.82,-86 315.82,-82.5 315.82,-89.5"/>
</g>
<!-- Node5 -->
<g id="node5" class="node">
<title>Node5</title>
<g id="a_node5"><a xlink:href="classad__framework_1_1KittiDataReader.html#ae15af30f4c87bb8a6bdc890018e4ec02" target="_top" xlink:title=" ">
<polygon fill="white" stroke="black" points="1.5,-38.5 1.5,-57.5 288.5,-57.5 288.5,-38.5 1.5,-38.5"/>
<text text-anchor="middle" x="145" y="-45.5" font-family="Helvetica,sans-Serif" font-size="10.00">ad_framework::KittiDataReader::ReadGrayStereoImage</text>
</a>
</g>
</g>
<!-- Node1&#45;&gt;Node5 -->
<g id="edge4" class="edge">
<title>Node1&#45;&gt;Node5</title>
<path fill="none" stroke="midnightblue" d="M351.11,-75.13C331.12,-72.46 309.79,-69.62 290,-67 266.63,-63.9 241.12,-60.53 218.15,-57.5"/>
<polygon fill="midnightblue" stroke="midnightblue" points="350.73,-78.61 361.1,-76.46 351.66,-71.67 350.73,-78.61"/>
</g>
<!-- Node6 -->
<g id="node6" class="node">
<title>Node6</title>
<g id="a_node6"><a xlink:href="classad__framework_1_1KittiDataReader.html#a4e538bd6bb93d13b1737379a7e1c1349" target="_top" xlink:title=" ">
<polygon fill="white" stroke="black" points="18,-0.5 18,-19.5 272,-19.5 272,-0.5 18,-0.5"/>
<text text-anchor="middle" x="145" y="-7.5" font-family="Helvetica,sans-Serif" font-size="10.00">ad_framework::KittiDataReader::ReadPointCloud</text>
</a>
</g>
</g>
<!-- Node1&#45;&gt;Node6 -->
<g id="edge5" class="edge">
<title>Node1&#45;&gt;Node6</title>
<path fill="none" stroke="midnightblue" d="M403.92,-72.1C375.65,-58.95 330.81,-39.68 290,-29 275.12,-25.11 259.15,-21.99 243.46,-19.5"/>
<polygon fill="midnightblue" stroke="midnightblue" points="402.66,-75.38 413.2,-76.48 405.65,-69.05 402.66,-75.38"/>
</g>
</g>
</svg>
