<?xml version="1.0" encoding="UTF-8" standalone="no"?>
<!DOCTYPE svg PUBLIC "-//W3C//DTD SVG 1.1//EN"
 "http://www.w3.org/Graphics/SVG/1.1/DTD/svg11.dtd">
<!-- Generated by graphviz version 2.43.0 (0)
 -->
<!-- Title: src/data_reader/none_data_reader.cpp Pages: 1 -->
<svg width="279pt" height="252pt"
 viewBox="0.00 0.00 279.00 252.00" xmlns="http://www.w3.org/2000/svg" xmlns:xlink="http://www.w3.org/1999/xlink">
<g id="graph0" class="graph" transform="scale(1 1) rotate(0) translate(4 248)">
<title>src/data_reader/none_data_reader.cpp</title>
<polygon fill="white" stroke="transparent" points="-4,4 -4,-248 275,-248 275,4 -4,4"/>
<!-- Node1 -->
<g id="node1" class="node">
<title>Node1</title>
<g id="a_node1"><a xlink:title=" ">
<polygon fill="#bfbfbf" stroke="black" points="68,-224.5 68,-243.5 271,-243.5 271,-224.5 68,-224.5"/>
<text text-anchor="middle" x="169.5" y="-231.5" font-family="Helvetica,sans-Serif" font-size="10.00">src/data_reader/none_data_reader.cpp</text>
</a>
</g>
</g>
<!-- Node2 -->
<g id="node2" class="node">
<title>Node2</title>
<g id="a_node2"><a xlink:href="none__data__reader_8h.html" target="_top" xlink:title=" ">
<polygon fill="white" stroke="black" points="12,-168.5 12,-187.5 203,-187.5 203,-168.5 12,-168.5"/>
<text text-anchor="middle" x="107.5" y="-175.5" font-family="Helvetica,sans-Serif" font-size="10.00">src/data_reader/none_data_reader.h</text>
</a>
</g>
</g>
<!-- Node1&#45;&gt;Node2 -->
<g id="edge1" class="edge">
<title>Node1&#45;&gt;Node2</title>
<path fill="none" stroke="midnightblue" d="M159.54,-224.32C150.37,-216.34 136.56,-204.31 125.47,-194.65"/>
<polygon fill="midnightblue" stroke="midnightblue" points="127.48,-191.76 117.64,-187.83 122.88,-197.04 127.48,-191.76"/>
</g>
<!-- Node4 -->
<g id="node4" class="node">
<title>Node4</title>
<g id="a_node4"><a xlink:title=" ">
<polygon fill="white" stroke="#bfbfbf" points="112.5,-0.5 112.5,-19.5 180.5,-19.5 180.5,-0.5 112.5,-0.5"/>
<text text-anchor="middle" x="146.5" y="-7.5" font-family="Helvetica,sans-Serif" font-size="10.00">filesystem</text>
</a>
</g>
</g>
<!-- Node1&#45;&gt;Node4 -->
<g id="edge6" class="edge">
<title>Node1&#45;&gt;Node4</title>
<path fill="none" stroke="midnightblue" d="M181.06,-224.45C191.06,-216.31 204.92,-203.09 211.5,-188 234.96,-134.18 244.63,-107.53 216.5,-56 208.68,-41.68 194.14,-31.24 180.32,-24.04"/>
<polygon fill="midnightblue" stroke="midnightblue" points="181.5,-20.72 170.97,-19.56 178.48,-27.03 181.5,-20.72"/>
</g>
<!-- Node3 -->
<g id="node3" class="node">
<title>Node3</title>
<g id="a_node3"><a xlink:href="abstract__data__reader_8h.html" target="_top" xlink:title=" ">
<polygon fill="white" stroke="black" points="0,-112.5 0,-131.5 207,-131.5 207,-112.5 0,-112.5"/>
<text text-anchor="middle" x="103.5" y="-119.5" font-family="Helvetica,sans-Serif" font-size="10.00">src/data_reader/abstract_data_reader.h</text>
</a>
</g>
</g>
<!-- Node2&#45;&gt;Node3 -->
<g id="edge2" class="edge">
<title>Node2&#45;&gt;Node3</title>
<path fill="none" stroke="midnightblue" d="M106.84,-168.08C106.32,-161.01 105.56,-150.86 104.91,-141.99"/>
<polygon fill="midnightblue" stroke="midnightblue" points="108.38,-141.47 104.15,-131.75 101.4,-141.98 108.38,-141.47"/>
</g>
<!-- Node3&#45;&gt;Node4 -->
<g id="edge3" class="edge">
<title>Node3&#45;&gt;Node4</title>
<path fill="none" stroke="midnightblue" d="M94.99,-112.32C83.59,-99.6 65.96,-75.31 76.5,-56 84.32,-41.68 98.86,-31.24 112.68,-24.04"/>
<polygon fill="midnightblue" stroke="midnightblue" points="114.52,-27.03 122.03,-19.56 111.5,-20.72 114.52,-27.03"/>
</g>
<!-- Node5 -->
<g id="node5" class="node">
<title>Node5</title>
<g id="a_node5"><a xlink:href="types_8h.html" target="_top" xlink:title=" ">
<polygon fill="white" stroke="black" points="85.5,-56.5 85.5,-75.5 207.5,-75.5 207.5,-56.5 85.5,-56.5"/>
<text text-anchor="middle" x="146.5" y="-63.5" font-family="Helvetica,sans-Serif" font-size="10.00">src/data_type/types.h</text>
</a>
</g>
</g>
<!-- Node3&#45;&gt;Node5 -->
<g id="edge4" class="edge">
<title>Node3&#45;&gt;Node5</title>
<path fill="none" stroke="midnightblue" d="M110.6,-112.08C116.74,-104.38 125.77,-93.03 133.24,-83.65"/>
<polygon fill="midnightblue" stroke="midnightblue" points="136.04,-85.75 139.53,-75.75 130.56,-81.39 136.04,-85.75"/>
</g>
<!-- Node5&#45;&gt;Node4 -->
<g id="edge5" class="edge">
<title>Node5&#45;&gt;Node4</title>
<path fill="none" stroke="midnightblue" d="M146.5,-56.08C146.5,-49.01 146.5,-38.86 146.5,-29.99"/>
<polygon fill="midnightblue" stroke="midnightblue" points="150,-29.75 146.5,-19.75 143,-29.75 150,-29.75"/>
</g>
</g>
</svg>
