<?xml version="1.0" encoding="UTF-8" standalone="no"?>
<!DOCTYPE svg PUBLIC "-//W3C//DTD SVG 1.1//EN"
 "http://www.w3.org/Graphics/SVG/1.1/DTD/svg11.dtd">
<!-- Generated by graphviz version 2.43.0 (0)
 -->
<!-- Title: src/data_reader/none_data_reader.h Pages: 1 -->
<svg width="218pt" height="196pt"
 viewBox="0.00 0.00 217.50 196.00" xmlns="http://www.w3.org/2000/svg" xmlns:xlink="http://www.w3.org/1999/xlink">
<g id="graph0" class="graph" transform="scale(1 1) rotate(0) translate(4 192)">
<title>src/data_reader/none_data_reader.h</title>
<polygon fill="white" stroke="transparent" points="-4,4 -4,-192 213.5,-192 213.5,4 -4,4"/>
<!-- Node1 -->
<g id="node1" class="node">
<title>Node1</title>
<g id="a_node1"><a xlink:title=" ">
<polygon fill="#bfbfbf" stroke="black" points="8,-168.5 8,-187.5 199,-187.5 199,-168.5 8,-168.5"/>
<text text-anchor="middle" x="103.5" y="-175.5" font-family="Helvetica,sans-Serif" font-size="10.00">src/data_reader/none_data_reader.h</text>
</a>
</g>
</g>
<!-- Node2 -->
<g id="node2" class="node">
<title>Node2</title>
<g id="a_node2"><a xlink:href="abstract__data__reader_8h.html" target="_top" xlink:title=" ">
<polygon fill="white" stroke="black" points="0,-112.5 0,-131.5 207,-131.5 207,-112.5 0,-112.5"/>
<text text-anchor="middle" x="103.5" y="-119.5" font-family="Helvetica,sans-Serif" font-size="10.00">src/data_reader/abstract_data_reader.h</text>
</a>
</g>
</g>
<!-- Node1&#45;&gt;Node2 -->
<g id="edge1" class="edge">
<title>Node1&#45;&gt;Node2</title>
<path fill="none" stroke="midnightblue" d="M103.5,-168.08C103.5,-161.01 103.5,-150.86 103.5,-141.99"/>
<polygon fill="midnightblue" stroke="midnightblue" points="107,-141.75 103.5,-131.75 100,-141.75 107,-141.75"/>
</g>
<!-- Node3 -->
<g id="node3" class="node">
<title>Node3</title>
<g id="a_node3"><a xlink:title=" ">
<polygon fill="white" stroke="#bfbfbf" points="69.5,-0.5 69.5,-19.5 137.5,-19.5 137.5,-0.5 69.5,-0.5"/>
<text text-anchor="middle" x="103.5" y="-7.5" font-family="Helvetica,sans-Serif" font-size="10.00">filesystem</text>
</a>
</g>
</g>
<!-- Node2&#45;&gt;Node3 -->
<g id="edge2" class="edge">
<title>Node2&#45;&gt;Node3</title>
<path fill="none" stroke="midnightblue" d="M96.87,-112.27C90.73,-103.61 82.04,-89.67 78.5,-76 74.16,-59.24 82.5,-40.88 90.69,-27.97"/>
<polygon fill="midnightblue" stroke="midnightblue" points="93.65,-29.84 96.45,-19.62 87.89,-25.87 93.65,-29.84"/>
</g>
<!-- Node4 -->
<g id="node4" class="node">
<title>Node4</title>
<g id="a_node4"><a xlink:href="types_8h.html" target="_top" xlink:title=" ">
<polygon fill="white" stroke="black" points="87.5,-56.5 87.5,-75.5 209.5,-75.5 209.5,-56.5 87.5,-56.5"/>
<text text-anchor="middle" x="148.5" y="-63.5" font-family="Helvetica,sans-Serif" font-size="10.00">src/data_type/types.h</text>
</a>
</g>
</g>
<!-- Node2&#45;&gt;Node4 -->
<g id="edge3" class="edge">
<title>Node2&#45;&gt;Node4</title>
<path fill="none" stroke="midnightblue" d="M110.93,-112.08C117.35,-104.38 126.81,-93.03 134.62,-83.65"/>
<polygon fill="midnightblue" stroke="midnightblue" points="137.49,-85.67 141.21,-75.75 132.12,-81.19 137.49,-85.67"/>
</g>
<!-- Node4&#45;&gt;Node3 -->
<g id="edge4" class="edge">
<title>Node4&#45;&gt;Node3</title>
<path fill="none" stroke="midnightblue" d="M141.07,-56.08C134.65,-48.38 125.19,-37.03 117.38,-27.65"/>
<polygon fill="midnightblue" stroke="midnightblue" points="119.88,-25.19 110.79,-19.75 114.51,-29.67 119.88,-25.19"/>
</g>
</g>
</svg>
