<?xml version="1.0" encoding="UTF-8" standalone="no"?>
<!DOCTYPE svg PUBLIC "-//W3C//DTD SVG 1.1//EN"
 "http://www.w3.org/Graphics/SVG/1.1/DTD/svg11.dtd">
<!-- Generated by graphviz version 2.43.0 (0)
 -->
<!-- Title: src/data_reader/none_data_reader.h Pages: 1 -->
<svg width="370pt" height="140pt"
 viewBox="0.00 0.00 370.00 140.00" xmlns="http://www.w3.org/2000/svg" xmlns:xlink="http://www.w3.org/1999/xlink">
<g id="graph0" class="graph" transform="scale(1 1) rotate(0) translate(4 136)">
<title>src/data_reader/none_data_reader.h</title>
<polygon fill="white" stroke="transparent" points="-4,4 -4,-136 366,-136 366,4 -4,4"/>
<!-- Node1 -->
<g id="node1" class="node">
<title>Node1</title>
<g id="a_node1"><a xlink:title=" ">
<polygon fill="#bfbfbf" stroke="black" points="91,-112.5 91,-131.5 282,-131.5 282,-112.5 91,-112.5"/>
<text text-anchor="middle" x="186.5" y="-119.5" font-family="Helvetica,sans-Serif" font-size="10.00">src/data_reader/none_data_reader.h</text>
</a>
</g>
</g>
<!-- Node2 -->
<g id="node2" class="node">
<title>Node2</title>
<g id="a_node2"><a xlink:href="none__data__reader_8cpp.html" target="_top" xlink:title=" ">
<polygon fill="white" stroke="black" points="0,-56.5 0,-75.5 203,-75.5 203,-56.5 0,-56.5"/>
<text text-anchor="middle" x="101.5" y="-63.5" font-family="Helvetica,sans-Serif" font-size="10.00">src/data_reader/none_data_reader.cpp</text>
</a>
</g>
</g>
<!-- Node1&#45;&gt;Node2 -->
<g id="edge1" class="edge">
<title>Node1&#45;&gt;Node2</title>
<path fill="none" stroke="midnightblue" d="M164.31,-106.9C148.72,-97 128.37,-84.07 115.12,-75.65"/>
<polygon fill="midnightblue" stroke="midnightblue" points="162.53,-109.92 172.84,-112.32 166.28,-104.01 162.53,-109.92"/>
</g>
<!-- Node3 -->
<g id="node3" class="node">
<title>Node3</title>
<g id="a_node3"><a xlink:href="data__reader_8h.html" target="_top" xlink:title=" ">
<polygon fill="white" stroke="black" points="221,-56.5 221,-75.5 322,-75.5 322,-56.5 221,-56.5"/>
<text text-anchor="middle" x="271.5" y="-63.5" font-family="Helvetica,sans-Serif" font-size="10.00">src/data_reader.h</text>
</a>
</g>
</g>
<!-- Node1&#45;&gt;Node3 -->
<g id="edge2" class="edge">
<title>Node1&#45;&gt;Node3</title>
<path fill="none" stroke="midnightblue" d="M208.69,-106.9C224.28,-97 244.63,-84.07 257.88,-75.65"/>
<polygon fill="midnightblue" stroke="midnightblue" points="206.72,-104.01 200.16,-112.32 210.47,-109.92 206.72,-104.01"/>
</g>
<!-- Node4 -->
<g id="node4" class="node">
<title>Node4</title>
<g id="a_node4"><a xlink:href="user__interface_8cpp.html" target="_top" xlink:title=" ">
<polygon fill="white" stroke="black" points="181,-0.5 181,-19.5 362,-19.5 362,-0.5 181,-0.5"/>
<text text-anchor="middle" x="271.5" y="-7.5" font-family="Helvetica,sans-Serif" font-size="10.00">src/application/user_interface.cpp</text>
</a>
</g>
</g>
<!-- Node3&#45;&gt;Node4 -->
<g id="edge3" class="edge">
<title>Node3&#45;&gt;Node4</title>
<path fill="none" stroke="midnightblue" d="M271.5,-45.8C271.5,-36.91 271.5,-26.78 271.5,-19.75"/>
<polygon fill="midnightblue" stroke="midnightblue" points="268,-46.08 271.5,-56.08 275,-46.08 268,-46.08"/>
</g>
</g>
</svg>
