<?xml version="1.0" encoding="UTF-8" standalone="no"?>
<!DOCTYPE svg PUBLIC "-//W3C//DTD SVG 1.1//EN"
 "http://www.w3.org/Graphics/SVG/1.1/DTD/svg11.dtd">
<!-- Generated by graphviz version 2.43.0 (0)
 -->
<!-- Title: src/application/user_interface/pannel.h Pages: 1 -->
<svg width="1552pt" height="308pt"
 viewBox="0.00 0.00 1552.42 308.00" xmlns="http://www.w3.org/2000/svg" xmlns:xlink="http://www.w3.org/1999/xlink">
<g id="graph0" class="graph" transform="scale(1 1) rotate(0) translate(4 304)">
<title>src/application/user_interface/pannel.h</title>
<polygon fill="white" stroke="transparent" points="-4,4 -4,-304 1548.42,-304 1548.42,4 -4,4"/>
<!-- Node1 -->
<g id="node1" class="node">
<title>Node1</title>
<g id="a_node1"><a xlink:title=" ">
<polygon fill="#bfbfbf" stroke="black" points="729,-280.5 729,-299.5 935,-299.5 935,-280.5 729,-280.5"/>
<text text-anchor="middle" x="832" y="-287.5" font-family="Helvetica,sans-Serif" font-size="10.00">src/application/user_interface/pannel.h</text>
</a>
</g>
</g>
<!-- Node2 -->
<g id="node2" class="node">
<title>Node2</title>
<g id="a_node2"><a xlink:href="abstract__pannel_8h.html" target="_top" xlink:title=" ">
<polygon fill="white" stroke="black" points="732.5,-168.5 732.5,-187.5 1019.5,-187.5 1019.5,-168.5 732.5,-168.5"/>
<text text-anchor="middle" x="876" y="-175.5" font-family="Helvetica,sans-Serif" font-size="10.00">src/application/user_interface/pannel/abstract_pannel.h</text>
</a>
</g>
</g>
<!-- Node1&#45;&gt;Node2 -->
<g id="edge1" class="edge">
<title>Node1&#45;&gt;Node2</title>
<path fill="none" stroke="midnightblue" d="M853.81,-280.45C868.94,-273.22 887.95,-261.26 897,-244 905.05,-228.64 897.05,-209.61 888.71,-196.13"/>
<polygon fill="midnightblue" stroke="midnightblue" points="891.57,-194.11 883.07,-187.79 885.77,-198.03 891.57,-194.11"/>
</g>
<!-- Node12 -->
<g id="node12" class="node">
<title>Node12</title>
<g id="a_node12"><a xlink:href="cam__view__pannel_8h.html" target="_top" xlink:title=" ">
<polygon fill="white" stroke="black" points="0,-224.5 0,-243.5 296,-243.5 296,-224.5 0,-224.5"/>
<text text-anchor="middle" x="148" y="-231.5" font-family="Helvetica,sans-Serif" font-size="10.00">src/application/user_interface/pannel/cam_view_pannel.h</text>
</a>
</g>
</g>
<!-- Node1&#45;&gt;Node12 -->
<g id="edge15" class="edge">
<title>Node1&#45;&gt;Node12</title>
<path fill="none" stroke="midnightblue" d="M728.86,-280.86C604.64,-271.05 396.47,-254.62 265.98,-244.31"/>
<polygon fill="midnightblue" stroke="midnightblue" points="266.18,-240.82 255.94,-243.52 265.63,-247.8 266.18,-240.82"/>
</g>
<!-- Node13 -->
<g id="node13" class="node">
<title>Node13</title>
<g id="a_node13"><a xlink:href="control__pannel_8h.html" target="_top" xlink:title=" ">
<polygon fill="white" stroke="black" points="944.5,-224.5 944.5,-243.5 1225.5,-243.5 1225.5,-224.5 944.5,-224.5"/>
<text text-anchor="middle" x="1085" y="-231.5" font-family="Helvetica,sans-Serif" font-size="10.00">src/application/user_interface/pannel/control_pannel.h</text>
</a>
</g>
</g>
<!-- Node1&#45;&gt;Node13 -->
<g id="edge18" class="edge">
<title>Node1&#45;&gt;Node13</title>
<path fill="none" stroke="midnightblue" d="M872.09,-280.44C916.32,-271 987.54,-255.8 1035.28,-245.61"/>
<polygon fill="midnightblue" stroke="midnightblue" points="1036.05,-249.03 1045.1,-243.52 1034.59,-242.18 1036.05,-249.03"/>
</g>
<!-- Node15 -->
<g id="node15" class="node">
<title>Node15</title>
<g id="a_node15"><a xlink:href="dialog__pannel_8h.html" target="_top" xlink:title=" ">
<polygon fill="white" stroke="black" points="314.5,-224.5 314.5,-243.5 591.5,-243.5 591.5,-224.5 314.5,-224.5"/>
<text text-anchor="middle" x="453" y="-231.5" font-family="Helvetica,sans-Serif" font-size="10.00">src/application/user_interface/pannel/dialog_pannel.h</text>
</a>
</g>
</g>
<!-- Node1&#45;&gt;Node15 -->
<g id="edge23" class="edge">
<title>Node1&#45;&gt;Node15</title>
<path fill="none" stroke="midnightblue" d="M771.95,-280.44C704.31,-270.81 594.52,-255.16 523.03,-244.98"/>
<polygon fill="midnightblue" stroke="midnightblue" points="523.17,-241.46 512.77,-243.52 522.18,-248.39 523.17,-241.46"/>
</g>
<!-- Node16 -->
<g id="node16" class="node">
<title>Node16</title>
<g id="a_node16"><a xlink:href="media__pannel_8h.html" target="_top" xlink:title=" ">
<polygon fill="white" stroke="black" points="610,-224.5 610,-243.5 888,-243.5 888,-224.5 610,-224.5"/>
<text text-anchor="middle" x="749" y="-231.5" font-family="Helvetica,sans-Serif" font-size="10.00">src/application/user_interface/pannel/media_pannel.h</text>
</a>
</g>
</g>
<!-- Node1&#45;&gt;Node16 -->
<g id="edge26" class="edge">
<title>Node1&#45;&gt;Node16</title>
<path fill="none" stroke="midnightblue" d="M818.66,-280.32C805.84,-271.98 786.22,-259.21 771.06,-249.35"/>
<polygon fill="midnightblue" stroke="midnightblue" points="772.59,-246.17 762.3,-243.65 768.78,-252.04 772.59,-246.17"/>
</g>
<!-- Node17 -->
<g id="node17" class="node">
<title>Node17</title>
<g id="a_node17"><a xlink:href="top__view__pannel_8h.html" target="_top" xlink:title=" ">
<polygon fill="white" stroke="black" points="1243.5,-224.5 1243.5,-243.5 1534.5,-243.5 1534.5,-224.5 1243.5,-224.5"/>
<text text-anchor="middle" x="1389" y="-231.5" font-family="Helvetica,sans-Serif" font-size="10.00">src/application/user_interface/pannel/top_view_pannel.h</text>
</a>
</g>
</g>
<!-- Node1&#45;&gt;Node17 -->
<g id="edge29" class="edge">
<title>Node1&#45;&gt;Node17</title>
<path fill="none" stroke="midnightblue" d="M919.95,-280.47C1020.92,-270.68 1186.1,-254.67 1291.08,-244.49"/>
<polygon fill="midnightblue" stroke="midnightblue" points="1291.44,-247.98 1301.05,-243.53 1290.76,-241.01 1291.44,-247.98"/>
</g>
<!-- Node3 -->
<g id="node3" class="node">
<title>Node3</title>
<g id="a_node3"><a xlink:title=" ">
<polygon fill="white" stroke="#bfbfbf" points="608.5,-112.5 608.5,-131.5 661.5,-131.5 661.5,-112.5 608.5,-112.5"/>
<text text-anchor="middle" x="635" y="-119.5" font-family="Helvetica,sans-Serif" font-size="10.00">imgui.h</text>
</a>
</g>
</g>
<!-- Node2&#45;&gt;Node3 -->
<g id="edge2" class="edge">
<title>Node2&#45;&gt;Node3</title>
<path fill="none" stroke="midnightblue" d="M834.86,-168.48C795.32,-160.18 733.65,-146.97 671.67,-132.34"/>
<polygon fill="midnightblue" stroke="midnightblue" points="672.27,-128.88 661.73,-129.98 670.65,-135.69 672.27,-128.88"/>
</g>
<!-- Node4 -->
<g id="node4" class="node">
<title>Node4</title>
<g id="a_node4"><a xlink:title=" ">
<polygon fill="white" stroke="#bfbfbf" points="1128,-56.5 1128,-75.5 1186,-75.5 1186,-56.5 1128,-56.5"/>
<text text-anchor="middle" x="1157" y="-63.5" font-family="Helvetica,sans-Serif" font-size="10.00">memory</text>
</a>
</g>
</g>
<!-- Node2&#45;&gt;Node4 -->
<g id="edge3" class="edge">
<title>Node2&#45;&gt;Node4</title>
<path fill="none" stroke="midnightblue" d="M965.36,-168.47C1004.05,-162.15 1048.89,-151.14 1086,-132 1109.09,-120.09 1130.33,-98.67 1143.44,-83.68"/>
<polygon fill="midnightblue" stroke="midnightblue" points="1146.39,-85.62 1150.17,-75.73 1141.04,-81.1 1146.39,-85.62"/>
</g>
<!-- Node5 -->
<g id="node5" class="node">
<title>Node5</title>
<g id="a_node5"><a xlink:title=" ">
<polygon fill="white" stroke="#bfbfbf" points="1063,-56.5 1063,-75.5 1107,-75.5 1107,-56.5 1063,-56.5"/>
<text text-anchor="middle" x="1085" y="-63.5" font-family="Helvetica,sans-Serif" font-size="10.00">string</text>
</a>
</g>
</g>
<!-- Node2&#45;&gt;Node5 -->
<g id="edge4" class="edge">
<title>Node2&#45;&gt;Node5</title>
<path fill="none" stroke="midnightblue" d="M942.62,-168.42C989.99,-161.03 1048.24,-148.86 1066,-132 1078.51,-120.12 1082.92,-100.5 1084.41,-85.91"/>
<polygon fill="midnightblue" stroke="midnightblue" points="1087.93,-85.75 1085.07,-75.54 1080.94,-85.3 1087.93,-85.75"/>
</g>
<!-- Node6 -->
<g id="node6" class="node">
<title>Node6</title>
<g id="a_node6"><a xlink:href="dataloader_8h.html" target="_top" xlink:title=" ">
<polygon fill="white" stroke="black" points="905,-112.5 905,-131.5 1057,-131.5 1057,-112.5 905,-112.5"/>
<text text-anchor="middle" x="981" y="-119.5" font-family="Helvetica,sans-Serif" font-size="10.00">src/application/dataloader.h</text>
</a>
</g>
</g>
<!-- Node2&#45;&gt;Node6 -->
<g id="edge5" class="edge">
<title>Node2&#45;&gt;Node6</title>
<path fill="none" stroke="midnightblue" d="M892.87,-168.32C909.71,-159.66 935.81,-146.24 955.24,-136.25"/>
<polygon fill="midnightblue" stroke="midnightblue" points="956.88,-139.34 964.17,-131.65 953.68,-133.12 956.88,-139.34"/>
</g>
<!-- Node10 -->
<g id="node10" class="node">
<title>Node10</title>
<g id="a_node10"><a xlink:href="abstract__data__reader_8h.html" target="_top" xlink:title=" ">
<polygon fill="white" stroke="black" points="679.5,-112.5 679.5,-131.5 886.5,-131.5 886.5,-112.5 679.5,-112.5"/>
<text text-anchor="middle" x="783" y="-119.5" font-family="Helvetica,sans-Serif" font-size="10.00">src/data_reader/abstract_data_reader.h</text>
</a>
</g>
</g>
<!-- Node2&#45;&gt;Node10 -->
<g id="edge11" class="edge">
<title>Node2&#45;&gt;Node10</title>
<path fill="none" stroke="midnightblue" d="M861.06,-168.32C846.41,-159.82 823.87,-146.73 806.76,-136.8"/>
<polygon fill="midnightblue" stroke="midnightblue" points="808.31,-133.65 797.9,-131.65 804.8,-139.7 808.31,-133.65"/>
</g>
<!-- Node6&#45;&gt;Node4 -->
<g id="edge8" class="edge">
<title>Node6&#45;&gt;Node4</title>
<path fill="none" stroke="midnightblue" d="M1008.89,-112.44C1038.75,-103.28 1086.31,-88.69 1119.46,-78.52"/>
<polygon fill="midnightblue" stroke="midnightblue" points="1120.71,-81.8 1129.24,-75.52 1118.66,-75.1 1120.71,-81.8"/>
</g>
<!-- Node6&#45;&gt;Node5 -->
<g id="edge9" class="edge">
<title>Node6&#45;&gt;Node5</title>
<path fill="none" stroke="midnightblue" d="M997.71,-112.32C1014.31,-103.7 1040,-90.36 1059.22,-80.39"/>
<polygon fill="midnightblue" stroke="midnightblue" points="1061.07,-83.37 1068.33,-75.65 1057.84,-77.16 1061.07,-83.37"/>
</g>
<!-- Node7 -->
<g id="node7" class="node">
<title>Node7</title>
<g id="a_node7"><a xlink:title=" ">
<polygon fill="white" stroke="#bfbfbf" points="891,-56.5 891,-75.5 933,-75.5 933,-56.5 891,-56.5"/>
<text text-anchor="middle" x="912" y="-63.5" font-family="Helvetica,sans-Serif" font-size="10.00">array</text>
</a>
</g>
</g>
<!-- Node6&#45;&gt;Node7 -->
<g id="edge6" class="edge">
<title>Node6&#45;&gt;Node7</title>
<path fill="none" stroke="midnightblue" d="M969.91,-112.32C959.51,-104.18 943.74,-91.84 931.28,-82.09"/>
<polygon fill="midnightblue" stroke="midnightblue" points="933.32,-79.24 923.29,-75.83 929.01,-84.75 933.32,-79.24"/>
</g>
<!-- Node8 -->
<g id="node8" class="node">
<title>Node8</title>
<g id="a_node8"><a xlink:title=" ">
<polygon fill="white" stroke="#bfbfbf" points="791,-0.5 791,-19.5 859,-19.5 859,-0.5 791,-0.5"/>
<text text-anchor="middle" x="825" y="-7.5" font-family="Helvetica,sans-Serif" font-size="10.00">filesystem</text>
</a>
</g>
</g>
<!-- Node6&#45;&gt;Node8 -->
<g id="edge7" class="edge">
<title>Node6&#45;&gt;Node8</title>
<path fill="none" stroke="midnightblue" d="M954.56,-112.47C933.62,-104.93 904.28,-92.55 882,-76 863.81,-62.49 847.26,-42.32 836.73,-28.03"/>
<polygon fill="midnightblue" stroke="midnightblue" points="839.39,-25.73 830.73,-19.63 833.69,-29.8 839.39,-25.73"/>
</g>
<!-- Node9 -->
<g id="node9" class="node">
<title>Node9</title>
<g id="a_node9"><a xlink:title=" ">
<polygon fill="white" stroke="#bfbfbf" points="951.5,-56.5 951.5,-75.5 1044.5,-75.5 1044.5,-56.5 951.5,-56.5"/>
<text text-anchor="middle" x="998" y="-63.5" font-family="Helvetica,sans-Serif" font-size="10.00">unordered_map</text>
</a>
</g>
</g>
<!-- Node6&#45;&gt;Node9 -->
<g id="edge10" class="edge">
<title>Node6&#45;&gt;Node9</title>
<path fill="none" stroke="midnightblue" d="M983.81,-112.08C986.08,-104.85 989.37,-94.41 992.21,-85.4"/>
<polygon fill="midnightblue" stroke="midnightblue" points="995.58,-86.34 995.25,-75.75 988.9,-84.24 995.58,-86.34"/>
</g>
<!-- Node10&#45;&gt;Node8 -->
<g id="edge12" class="edge">
<title>Node10&#45;&gt;Node8</title>
<path fill="none" stroke="midnightblue" d="M788.09,-112.26C793.13,-103.36 800.81,-89.04 806,-76 812.11,-60.64 817.24,-42.54 820.62,-29.35"/>
<polygon fill="midnightblue" stroke="midnightblue" points="824.03,-30.13 823.04,-19.59 817.24,-28.45 824.03,-30.13"/>
</g>
<!-- Node11 -->
<g id="node11" class="node">
<title>Node11</title>
<g id="a_node11"><a xlink:href="types_8h.html" target="_top" xlink:title=" ">
<polygon fill="white" stroke="black" points="675,-56.5 675,-75.5 797,-75.5 797,-56.5 675,-56.5"/>
<text text-anchor="middle" x="736" y="-63.5" font-family="Helvetica,sans-Serif" font-size="10.00">src/data_type/types.h</text>
</a>
</g>
</g>
<!-- Node10&#45;&gt;Node11 -->
<g id="edge13" class="edge">
<title>Node10&#45;&gt;Node11</title>
<path fill="none" stroke="midnightblue" d="M775.24,-112.08C768.46,-104.3 758.46,-92.8 750.24,-83.37"/>
<polygon fill="midnightblue" stroke="midnightblue" points="752.82,-81 743.62,-75.75 747.54,-85.59 752.82,-81"/>
</g>
<!-- Node11&#45;&gt;Node8 -->
<g id="edge14" class="edge">
<title>Node11&#45;&gt;Node8</title>
<path fill="none" stroke="midnightblue" d="M750.3,-56.32C764.18,-47.9 785.49,-34.97 801.8,-25.07"/>
<polygon fill="midnightblue" stroke="midnightblue" points="804,-27.83 810.74,-19.65 800.37,-21.85 804,-27.83"/>
</g>
<!-- Node12&#45;&gt;Node2 -->
<g id="edge17" class="edge">
<title>Node12&#45;&gt;Node2</title>
<path fill="none" stroke="midnightblue" d="M262.95,-224.47C395.95,-214.61 614.18,-198.42 751.22,-188.26"/>
<polygon fill="midnightblue" stroke="midnightblue" points="751.64,-191.73 761.35,-187.5 751.12,-184.75 751.64,-191.73"/>
</g>
<!-- Node12&#45;&gt;Node3 -->
<g id="edge16" class="edge">
<title>Node12&#45;&gt;Node3</title>
<path fill="none" stroke="midnightblue" d="M185.81,-224.46C277.06,-203.85 508.47,-151.58 598.44,-131.26"/>
<polygon fill="midnightblue" stroke="midnightblue" points="599.46,-134.62 608.44,-129 597.91,-127.79 599.46,-134.62"/>
</g>
<!-- Node13&#45;&gt;Node2 -->
<g id="edge22" class="edge">
<title>Node13&#45;&gt;Node2</title>
<path fill="none" stroke="midnightblue" d="M1051.88,-224.44C1015.88,-215.14 958.23,-200.25 918.81,-190.06"/>
<polygon fill="midnightblue" stroke="midnightblue" points="919.52,-186.63 908.96,-187.52 917.77,-193.41 919.52,-186.63"/>
</g>
<!-- Node13&#45;&gt;Node3 -->
<g id="edge19" class="edge">
<title>Node13&#45;&gt;Node3</title>
<path fill="none" stroke="midnightblue" d="M962.99,-224.48C875.35,-217.12 765.49,-204.97 723,-188 694.76,-176.72 667.43,-154.13 650.91,-138.78"/>
<polygon fill="midnightblue" stroke="midnightblue" points="652.96,-135.9 643.31,-131.52 648.12,-140.96 652.96,-135.9"/>
</g>
<!-- Node13&#45;&gt;Node4 -->
<g id="edge20" class="edge">
<title>Node13&#45;&gt;Node4</title>
<path fill="none" stroke="midnightblue" d="M1101.99,-224.41C1115.22,-216.76 1132.84,-204.26 1142,-188 1160.2,-155.68 1160.51,-110.91 1158.9,-85.88"/>
<polygon fill="midnightblue" stroke="midnightblue" points="1162.36,-85.27 1158.05,-75.6 1155.38,-85.85 1162.36,-85.27"/>
</g>
<!-- Node14 -->
<g id="node14" class="node">
<title>Node14</title>
<g id="a_node14"><a xlink:title=" ">
<polygon fill="white" stroke="#bfbfbf" points="1037.5,-168.5 1037.5,-187.5 1132.5,-187.5 1132.5,-168.5 1037.5,-168.5"/>
<text text-anchor="middle" x="1085" y="-175.5" font-family="Helvetica,sans-Serif" font-size="10.00">..\..\dataloader.h</text>
</a>
</g>
</g>
<!-- Node13&#45;&gt;Node14 -->
<g id="edge21" class="edge">
<title>Node13&#45;&gt;Node14</title>
<path fill="none" stroke="midnightblue" d="M1085,-224.08C1085,-217.01 1085,-206.86 1085,-197.99"/>
<polygon fill="midnightblue" stroke="midnightblue" points="1088.5,-197.75 1085,-187.75 1081.5,-197.75 1088.5,-197.75"/>
</g>
<!-- Node15&#45;&gt;Node2 -->
<g id="edge25" class="edge">
<title>Node15&#45;&gt;Node2</title>
<path fill="none" stroke="midnightblue" d="M520.03,-224.44C595.98,-214.75 719.56,-198.97 799.3,-188.79"/>
<polygon fill="midnightblue" stroke="midnightblue" points="799.81,-192.25 809.29,-187.52 798.93,-185.31 799.81,-192.25"/>
</g>
<!-- Node15&#45;&gt;Node3 -->
<g id="edge24" class="edge">
<title>Node15&#45;&gt;Node3</title>
<path fill="none" stroke="midnightblue" d="M467.28,-224.37C498.65,-205.41 573.78,-160 611.93,-136.94"/>
<polygon fill="midnightblue" stroke="midnightblue" points="614.04,-139.76 620.79,-131.59 610.42,-133.77 614.04,-139.76"/>
</g>
<!-- Node16&#45;&gt;Node2 -->
<g id="edge28" class="edge">
<title>Node16&#45;&gt;Node2</title>
<path fill="none" stroke="midnightblue" d="M769.12,-224.44C790.02,-215.56 822.93,-201.56 846.72,-191.45"/>
<polygon fill="midnightblue" stroke="midnightblue" points="848.14,-194.65 855.97,-187.52 845.4,-188.21 848.14,-194.65"/>
</g>
<!-- Node16&#45;&gt;Node3 -->
<g id="edge27" class="edge">
<title>Node16&#45;&gt;Node3</title>
<path fill="none" stroke="midnightblue" d="M732.96,-224.4C718.61,-216.23 697.52,-202.99 682,-188 667.19,-173.69 653.81,-154.23 645.14,-140.33"/>
<polygon fill="midnightblue" stroke="midnightblue" points="648.11,-138.48 639.94,-131.74 642.13,-142.11 648.11,-138.48"/>
</g>
<!-- Node17&#45;&gt;Node2 -->
<g id="edge31" class="edge">
<title>Node17&#45;&gt;Node2</title>
<path fill="none" stroke="midnightblue" d="M1308,-224.47C1215.28,-214.71 1063.79,-198.77 967.06,-188.59"/>
<polygon fill="midnightblue" stroke="midnightblue" points="967.31,-185.09 957,-187.53 966.58,-192.05 967.31,-185.09"/>
</g>
<!-- Node17&#45;&gt;Node4 -->
<g id="edge30" class="edge">
<title>Node17&#45;&gt;Node4</title>
<path fill="none" stroke="midnightblue" d="M1317.32,-224.47C1287.97,-218.15 1255.09,-207.15 1230,-188 1194.69,-161.05 1172.81,-111.7 1163.03,-85.11"/>
<polygon fill="midnightblue" stroke="midnightblue" points="1166.28,-83.81 1159.67,-75.54 1159.68,-86.13 1166.28,-83.81"/>
</g>
<!-- Node18 -->
<g id="node18" class="node">
<title>Node18</title>
<g id="a_node18"><a xlink:title=" ">
<polygon fill="white" stroke="#bfbfbf" points="1423,-112.5 1423,-131.5 1521,-131.5 1521,-112.5 1423,-112.5"/>
<text text-anchor="middle" x="1472" y="-119.5" font-family="Helvetica,sans-Serif" font-size="10.00">bindings/imgui.h</text>
</a>
</g>
</g>
<!-- Node17&#45;&gt;Node18 -->
<g id="edge32" class="edge">
<title>Node17&#45;&gt;Node18</title>
<path fill="none" stroke="midnightblue" d="M1482.91,-224.42C1505.04,-217.73 1526.19,-206.53 1540,-188 1555.15,-167.68 1526.95,-148.11 1502.38,-135.85"/>
<polygon fill="midnightblue" stroke="midnightblue" points="1503.78,-132.64 1493.25,-131.52 1500.78,-138.97 1503.78,-132.64"/>
</g>
<!-- Node19 -->
<g id="node19" class="node">
<title>Node19</title>
<g id="a_node19"><a xlink:href="top__view__drawer_8h.html" target="_top" xlink:title=" ">
<polygon fill="white" stroke="black" points="1239,-168.5 1239,-187.5 1531,-187.5 1531,-168.5 1239,-168.5"/>
<text text-anchor="middle" x="1385" y="-175.5" font-family="Helvetica,sans-Serif" font-size="10.00">src/application/user_interface/drawer/top_view_drawer.h</text>
</a>
</g>
</g>
<!-- Node17&#45;&gt;Node19 -->
<g id="edge33" class="edge">
<title>Node17&#45;&gt;Node19</title>
<path fill="none" stroke="midnightblue" d="M1388.34,-224.08C1387.82,-217.01 1387.06,-206.86 1386.41,-197.99"/>
<polygon fill="midnightblue" stroke="midnightblue" points="1389.88,-197.47 1385.65,-187.75 1382.9,-197.98 1389.88,-197.47"/>
</g>
<!-- Node19&#45;&gt;Node18 -->
<g id="edge34" class="edge">
<title>Node19&#45;&gt;Node18</title>
<path fill="none" stroke="midnightblue" d="M1398.98,-168.32C1412.55,-159.9 1433.38,-146.97 1449.32,-137.07"/>
<polygon fill="midnightblue" stroke="midnightblue" points="1451.41,-139.9 1458.06,-131.65 1447.71,-133.95 1451.41,-139.9"/>
</g>
</g>
</svg>
