<?xml version="1.0" encoding="UTF-8" standalone="no"?>
<!DOCTYPE svg PUBLIC "-//W3C//DTD SVG 1.1//EN"
 "http://www.w3.org/Graphics/SVG/1.1/DTD/svg11.dtd">
<!-- Generated by graphviz version 2.43.0 (0)
 -->
<!-- Title: src/user_interface/selector.h Pages: 1 -->
<svg width="544pt" height="196pt"
 viewBox="0.00 0.00 544.00 196.00" xmlns="http://www.w3.org/2000/svg" xmlns:xlink="http://www.w3.org/1999/xlink">
<g id="graph0" class="graph" transform="scale(1 1) rotate(0) translate(4 192)">
<title>src/user_interface/selector.h</title>
<polygon fill="white" stroke="transparent" points="-4,4 -4,-192 540,-192 540,4 -4,4"/>
<!-- Node1 -->
<g id="node1" class="node">
<title>Node1</title>
<g id="a_node1"><a xlink:title=" ">
<polygon fill="#bfbfbf" stroke="black" points="0,-168.5 0,-187.5 154,-187.5 154,-168.5 0,-168.5"/>
<text text-anchor="middle" x="77" y="-175.5" font-family="Helvetica,sans-Serif" font-size="10.00">src/user_interface/selector.h</text>
</a>
</g>
</g>
<!-- Node2 -->
<g id="node2" class="node">
<title>Node2</title>
<g id="a_node2"><a xlink:title=" ">
<polygon fill="white" stroke="#bfbfbf" points="7,-112.5 7,-131.5 49,-131.5 49,-112.5 7,-112.5"/>
<text text-anchor="middle" x="28" y="-119.5" font-family="Helvetica,sans-Serif" font-size="10.00">array</text>
</a>
</g>
</g>
<!-- Node1&#45;&gt;Node2 -->
<g id="edge1" class="edge">
<title>Node1&#45;&gt;Node2</title>
<path fill="none" stroke="midnightblue" d="M68.91,-168.08C61.84,-160.3 51.41,-148.8 42.85,-139.37"/>
<polygon fill="midnightblue" stroke="midnightblue" points="45.25,-136.8 35.94,-131.75 40.07,-141.51 45.25,-136.8"/>
</g>
<!-- Node3 -->
<g id="node3" class="node">
<title>Node3</title>
<g id="a_node3"><a xlink:title=" ">
<polygon fill="white" stroke="#bfbfbf" points="38,-56.5 38,-75.5 82,-75.5 82,-56.5 38,-56.5"/>
<text text-anchor="middle" x="60" y="-63.5" font-family="Helvetica,sans-Serif" font-size="10.00">string</text>
</a>
</g>
</g>
<!-- Node1&#45;&gt;Node3 -->
<g id="edge2" class="edge">
<title>Node1&#45;&gt;Node3</title>
<path fill="none" stroke="midnightblue" d="M75.67,-168.37C72.92,-150.62 66.59,-109.67 62.87,-85.6"/>
<polygon fill="midnightblue" stroke="midnightblue" points="66.31,-84.94 61.33,-75.59 59.4,-86.01 66.31,-84.94"/>
</g>
<!-- Node4 -->
<g id="node4" class="node">
<title>Node4</title>
<g id="a_node4"><a xlink:href="ui_8h.html" target="_top" xlink:title=" ">
<polygon fill="white" stroke="black" points="122.5,-112.5 122.5,-131.5 247.5,-131.5 247.5,-112.5 122.5,-112.5"/>
<text text-anchor="middle" x="185" y="-119.5" font-family="Helvetica,sans-Serif" font-size="10.00">src/user_interface/ui.h</text>
</a>
</g>
</g>
<!-- Node1&#45;&gt;Node4 -->
<g id="edge3" class="edge">
<title>Node1&#45;&gt;Node4</title>
<path fill="none" stroke="midnightblue" d="M94.35,-168.32C111.67,-159.66 138.52,-146.24 158.5,-136.25"/>
<polygon fill="midnightblue" stroke="midnightblue" points="160.31,-139.26 167.69,-131.65 157.18,-133 160.31,-139.26"/>
</g>
<!-- Node4&#45;&gt;Node3 -->
<g id="edge5" class="edge">
<title>Node4&#45;&gt;Node3</title>
<path fill="none" stroke="midnightblue" d="M165.19,-112.44C144.71,-103.6 112.52,-89.69 89.14,-79.59"/>
<polygon fill="midnightblue" stroke="midnightblue" points="90.28,-76.27 79.71,-75.52 87.51,-82.7 90.28,-76.27"/>
</g>
<!-- Node5 -->
<g id="node5" class="node">
<title>Node5</title>
<g id="a_node5"><a xlink:title=" ">
<polygon fill="white" stroke="#bfbfbf" points="178,-0.5 178,-19.5 236,-19.5 236,-0.5 178,-0.5"/>
<text text-anchor="middle" x="207" y="-7.5" font-family="Helvetica,sans-Serif" font-size="10.00">memory</text>
</a>
</g>
</g>
<!-- Node4&#45;&gt;Node5 -->
<g id="edge4" class="edge">
<title>Node4&#45;&gt;Node5</title>
<path fill="none" stroke="midnightblue" d="M167.81,-112.38C146.92,-100.66 115.96,-78.57 129,-56 137.68,-40.98 153.49,-30.52 168.62,-23.5"/>
<polygon fill="midnightblue" stroke="midnightblue" points="170.05,-26.69 177.88,-19.56 167.31,-20.25 170.05,-26.69"/>
</g>
<!-- Node6 -->
<g id="node6" class="node">
<title>Node6</title>
<g id="a_node6"><a xlink:title=" ">
<polygon fill="white" stroke="#bfbfbf" points="138.5,-56.5 138.5,-75.5 231.5,-75.5 231.5,-56.5 138.5,-56.5"/>
<text text-anchor="middle" x="185" y="-63.5" font-family="Helvetica,sans-Serif" font-size="10.00">unordered_map</text>
</a>
</g>
</g>
<!-- Node4&#45;&gt;Node6 -->
<g id="edge6" class="edge">
<title>Node4&#45;&gt;Node6</title>
<path fill="none" stroke="midnightblue" d="M185,-112.08C185,-105.01 185,-94.86 185,-85.99"/>
<polygon fill="midnightblue" stroke="midnightblue" points="188.5,-85.75 185,-75.75 181.5,-85.75 188.5,-85.75"/>
</g>
<!-- Node7 -->
<g id="node7" class="node">
<title>Node7</title>
<g id="a_node7"><a xlink:title=" ">
<polygon fill="white" stroke="#bfbfbf" points="249.5,-56.5 249.5,-75.5 296.5,-75.5 296.5,-56.5 249.5,-56.5"/>
<text text-anchor="middle" x="273" y="-63.5" font-family="Helvetica,sans-Serif" font-size="10.00">vector</text>
</a>
</g>
</g>
<!-- Node4&#45;&gt;Node7 -->
<g id="edge7" class="edge">
<title>Node4&#45;&gt;Node7</title>
<path fill="none" stroke="midnightblue" d="M199.14,-112.32C212.87,-103.9 233.94,-90.97 250.06,-81.07"/>
<polygon fill="midnightblue" stroke="midnightblue" points="252.2,-83.87 258.9,-75.65 248.54,-77.9 252.2,-83.87"/>
</g>
<!-- Node8 -->
<g id="node8" class="node">
<title>Node8</title>
<g id="a_node8"><a xlink:href="callback_8h.html" target="_top" xlink:title=" ">
<polygon fill="white" stroke="black" points="314.5,-56.5 314.5,-75.5 421.5,-75.5 421.5,-56.5 314.5,-56.5"/>
<text text-anchor="middle" x="368" y="-63.5" font-family="Helvetica,sans-Serif" font-size="10.00">src/utils/callback.h</text>
</a>
</g>
</g>
<!-- Node4&#45;&gt;Node8 -->
<g id="edge8" class="edge">
<title>Node4&#45;&gt;Node8</title>
<path fill="none" stroke="midnightblue" d="M214,-112.44C245.18,-103.24 294.93,-88.56 329.41,-78.39"/>
<polygon fill="midnightblue" stroke="midnightblue" points="330.54,-81.7 339.14,-75.52 328.56,-74.99 330.54,-81.7"/>
</g>
<!-- Node10 -->
<g id="node10" class="node">
<title>Node10</title>
<g id="a_node10"><a xlink:href="imgui_8h.html" target="_top" xlink:title=" ">
<polygon fill="white" stroke="black" points="439.5,-56.5 439.5,-75.5 534.5,-75.5 534.5,-56.5 439.5,-56.5"/>
<text text-anchor="middle" x="487" y="-63.5" font-family="Helvetica,sans-Serif" font-size="10.00">src/utils/imgui.h</text>
</a>
</g>
</g>
<!-- Node4&#45;&gt;Node10 -->
<g id="edge11" class="edge">
<title>Node4&#45;&gt;Node10</title>
<path fill="none" stroke="midnightblue" d="M232.85,-112.44C286.2,-102.9 372.44,-87.48 429.44,-77.29"/>
<polygon fill="midnightblue" stroke="midnightblue" points="430.14,-80.72 439.37,-75.52 428.91,-73.83 430.14,-80.72"/>
</g>
<!-- Node8&#45;&gt;Node5 -->
<g id="edge10" class="edge">
<title>Node8&#45;&gt;Node5</title>
<path fill="none" stroke="midnightblue" d="M342.49,-56.44C315.4,-47.36 272.41,-32.94 242.13,-22.78"/>
<polygon fill="midnightblue" stroke="midnightblue" points="242.99,-19.38 232.39,-19.52 240.76,-26.01 242.99,-19.38"/>
</g>
<!-- Node9 -->
<g id="node9" class="node">
<title>Node9</title>
<g id="a_node9"><a xlink:title=" ">
<polygon fill="white" stroke="#bfbfbf" points="350.5,-0.5 350.5,-19.5 385.5,-19.5 385.5,-0.5 350.5,-0.5"/>
<text text-anchor="middle" x="368" y="-7.5" font-family="Helvetica,sans-Serif" font-size="10.00">any</text>
</a>
</g>
</g>
<!-- Node8&#45;&gt;Node9 -->
<g id="edge9" class="edge">
<title>Node8&#45;&gt;Node9</title>
<path fill="none" stroke="midnightblue" d="M368,-56.08C368,-49.01 368,-38.86 368,-29.99"/>
<polygon fill="midnightblue" stroke="midnightblue" points="371.5,-29.75 368,-19.75 364.5,-29.75 371.5,-29.75"/>
</g>
<!-- Node11 -->
<g id="node11" class="node">
<title>Node11</title>
<g id="a_node11"><a xlink:title=" ">
<polygon fill="white" stroke="#bfbfbf" points="438,-0.5 438,-19.5 536,-19.5 536,-0.5 438,-0.5"/>
<text text-anchor="middle" x="487" y="-7.5" font-family="Helvetica,sans-Serif" font-size="10.00">bindings/imgui.h</text>
</a>
</g>
</g>
<!-- Node10&#45;&gt;Node11 -->
<g id="edge12" class="edge">
<title>Node10&#45;&gt;Node11</title>
<path fill="none" stroke="midnightblue" d="M487,-56.08C487,-49.01 487,-38.86 487,-29.99"/>
<polygon fill="midnightblue" stroke="midnightblue" points="490.5,-29.75 487,-19.75 483.5,-29.75 490.5,-29.75"/>
</g>
</g>
</svg>
