<?xml version="1.0" encoding="UTF-8" standalone="no"?>
<!DOCTYPE svg PUBLIC "-//W3C//DTD SVG 1.1//EN"
 "http://www.w3.org/Graphics/SVG/1.1/DTD/svg11.dtd">
<!-- Generated by graphviz version 2.43.0 (0)
 -->
<!-- Title: src/data_structure/shape.h Pages: 1 -->
<svg width="777pt" height="308pt"
 viewBox="0.00 0.00 777.36 308.00" xmlns="http://www.w3.org/2000/svg" xmlns:xlink="http://www.w3.org/1999/xlink">
<g id="graph0" class="graph" transform="scale(1 1) rotate(0) translate(4 304)">
<title>src/data_structure/shape.h</title>
<polygon fill="white" stroke="transparent" points="-4,4 -4,-304 773.36,-304 773.36,4 -4,4"/>
<!-- Node1 -->
<g id="node1" class="node">
<title>Node1</title>
<g id="a_node1"><a xlink:title=" ">
<polygon fill="#bfbfbf" stroke="black" points="428.36,-280.5 428.36,-299.5 574.36,-299.5 574.36,-280.5 428.36,-280.5"/>
<text text-anchor="middle" x="501.36" y="-287.5" font-family="Helvetica,sans-Serif" font-size="10.00">src/data_structure/shape.h</text>
</a>
</g>
</g>
<!-- Node2 -->
<g id="node2" class="node">
<title>Node2</title>
<g id="a_node2"><a xlink:href="application_8cpp.html" target="_top" xlink:title=" ">
<polygon fill="white" stroke="black" points="237.36,-0.5 237.36,-19.5 345.36,-19.5 345.36,-0.5 237.36,-0.5"/>
<text text-anchor="middle" x="291.36" y="-7.5" font-family="Helvetica,sans-Serif" font-size="10.00">src/application.cpp</text>
</a>
</g>
</g>
<!-- Node1&#45;&gt;Node2 -->
<g id="edge1" class="edge">
<title>Node1&#45;&gt;Node2</title>
<path fill="none" stroke="midnightblue" d="M585.01,-288.23C663.65,-282.54 769.36,-259.86 769.36,-179 769.36,-179 769.36,-179 769.36,-121 769.36,-34.89 471.01,-16.18 345.73,-12.12"/>
<polygon fill="midnightblue" stroke="midnightblue" points="584.35,-284.76 574.59,-288.89 584.79,-291.75 584.35,-284.76"/>
</g>
<!-- Node3 -->
<g id="node3" class="node">
<title>Node3</title>
<g id="a_node3"><a xlink:href="application_8h.html" target="_top" xlink:title=" ">
<polygon fill="white" stroke="black" points="20.86,-56.5 20.86,-75.5 117.86,-75.5 117.86,-56.5 20.86,-56.5"/>
<text text-anchor="middle" x="69.36" y="-63.5" font-family="Helvetica,sans-Serif" font-size="10.00">src/application.h</text>
</a>
</g>
</g>
<!-- Node1&#45;&gt;Node3 -->
<g id="edge2" class="edge">
<title>Node1&#45;&gt;Node3</title>
<path fill="none" stroke="midnightblue" d="M418.01,-284.62C325.1,-276.53 173.11,-253.51 60.36,-188 24.31,-167.05 -13.86,-149 5.36,-112 14.25,-94.88 32.97,-82.91 47.88,-75.64"/>
<polygon fill="midnightblue" stroke="midnightblue" points="417.95,-288.13 428.2,-285.47 418.53,-281.15 417.95,-288.13"/>
</g>
<!-- Node4 -->
<g id="node4" class="node">
<title>Node4</title>
<g id="a_node4"><a xlink:href="frame_8h.html" target="_top" xlink:title=" ">
<polygon fill="white" stroke="black" points="281.36,-224.5 281.36,-243.5 427.36,-243.5 427.36,-224.5 281.36,-224.5"/>
<text text-anchor="middle" x="354.36" y="-231.5" font-family="Helvetica,sans-Serif" font-size="10.00">src/data_structure/frame.h</text>
</a>
</g>
</g>
<!-- Node1&#45;&gt;Node4 -->
<g id="edge4" class="edge">
<title>Node1&#45;&gt;Node4</title>
<path fill="none" stroke="midnightblue" d="M468.43,-276.91C440.8,-266.75 402.01,-252.51 377.54,-243.52"/>
<polygon fill="midnightblue" stroke="midnightblue" points="467.47,-280.28 478.07,-280.44 469.89,-273.71 467.47,-280.28"/>
</g>
<!-- Node6 -->
<g id="node6" class="node">
<title>Node6</title>
<g id="a_node6"><a xlink:href="shape__drawer_8h.html" target="_top" xlink:title=" ">
<polygon fill="white" stroke="black" points="557.86,-168.5 557.86,-187.5 740.86,-187.5 740.86,-168.5 557.86,-168.5"/>
<text text-anchor="middle" x="649.36" y="-175.5" font-family="Helvetica,sans-Serif" font-size="10.00">src/user_interface/shape_drawer.h</text>
</a>
</g>
</g>
<!-- Node1&#45;&gt;Node6 -->
<g id="edge16" class="edge">
<title>Node1&#45;&gt;Node6</title>
<path fill="none" stroke="midnightblue" d="M521.38,-274.12C552.8,-250.77 612.67,-206.27 637.8,-187.59"/>
<polygon fill="midnightblue" stroke="midnightblue" points="518.91,-271.59 512.97,-280.37 523.08,-277.21 518.91,-271.59"/>
</g>
<!-- Node3&#45;&gt;Node2 -->
<g id="edge3" class="edge">
<title>Node3&#45;&gt;Node2</title>
<path fill="none" stroke="midnightblue" d="M114.48,-54.02C156.42,-43.82 218.01,-28.84 256.35,-19.52"/>
<polygon fill="midnightblue" stroke="midnightblue" points="113.42,-50.68 104.53,-56.44 115.08,-57.48 113.42,-50.68"/>
</g>
<!-- Node4&#45;&gt;Node2 -->
<g id="edge5" class="edge">
<title>Node4&#45;&gt;Node2</title>
<path fill="none" stroke="midnightblue" d="M357.37,-214.06C361.82,-180.33 367.07,-108.47 341.36,-56 333.65,-40.27 317.81,-27.52 306.01,-19.67"/>
<polygon fill="midnightblue" stroke="midnightblue" points="353.86,-213.91 355.89,-224.31 360.79,-214.92 353.86,-213.91"/>
</g>
<!-- Node4&#45;&gt;Node3 -->
<g id="edge6" class="edge">
<title>Node4&#45;&gt;Node3</title>
<path fill="none" stroke="midnightblue" d="M282.22,-222.9C190.66,-208.33 41.11,-177.98 12.36,-132 -1.65,-109.6 30.55,-87.28 52.03,-75.51"/>
<polygon fill="midnightblue" stroke="midnightblue" points="281.84,-226.39 292.26,-224.48 282.93,-219.47 281.84,-226.39"/>
</g>
<!-- Node5 -->
<g id="node5" class="node">
<title>Node5</title>
<g id="a_node5"><a xlink:href="frame_8cpp.html" target="_top" xlink:title=" ">
<polygon fill="white" stroke="black" points="382.86,-168.5 382.86,-187.5 539.86,-187.5 539.86,-168.5 382.86,-168.5"/>
<text text-anchor="middle" x="461.36" y="-175.5" font-family="Helvetica,sans-Serif" font-size="10.00">src/data_structure/frame.cpp</text>
</a>
</g>
</g>
<!-- Node4&#45;&gt;Node5 -->
<g id="edge7" class="edge">
<title>Node4&#45;&gt;Node5</title>
<path fill="none" stroke="midnightblue" d="M380.66,-219.73C400.47,-209.73 427.07,-196.31 444.21,-187.65"/>
<polygon fill="midnightblue" stroke="midnightblue" points="378.9,-216.69 371.55,-224.32 382.05,-222.94 378.9,-216.69"/>
</g>
<!-- Node4&#45;&gt;Node6 -->
<g id="edge8" class="edge">
<title>Node4&#45;&gt;Node6</title>
<path fill="none" stroke="midnightblue" d="M411.17,-222.6C466.92,-212.4 550.92,-197.02 602.83,-187.52"/>
<polygon fill="midnightblue" stroke="midnightblue" points="410.31,-219.2 401.1,-224.44 411.57,-226.09 410.31,-219.2"/>
</g>
<!-- Node7 -->
<g id="node7" class="node">
<title>Node7</title>
<g id="a_node7"><a xlink:href="top__viewer_8cpp.html" target="_top" xlink:title=" ">
<polygon fill="white" stroke="black" points="21.36,-112.5 21.36,-131.5 201.36,-131.5 201.36,-112.5 21.36,-112.5"/>
<text text-anchor="middle" x="111.36" y="-119.5" font-family="Helvetica,sans-Serif" font-size="10.00">src/user_interface/top_viewer.cpp</text>
</a>
</g>
</g>
<!-- Node4&#45;&gt;Node7 -->
<g id="edge9" class="edge">
<title>Node4&#45;&gt;Node7</title>
<path fill="none" stroke="midnightblue" d="M271.05,-230.36C230.73,-225.42 183.56,-213.89 148.36,-188 128.9,-173.69 118.19,-145.86 113.78,-131.71"/>
<polygon fill="midnightblue" stroke="midnightblue" points="270.82,-233.85 281.14,-231.47 271.59,-226.89 270.82,-233.85"/>
</g>
<!-- Node8 -->
<g id="node8" class="node">
<title>Node8</title>
<g id="a_node8"><a xlink:href="top__viewer_8h.html" target="_top" xlink:title=" ">
<polygon fill="white" stroke="black" points="157.86,-168.5 157.86,-187.5 326.86,-187.5 326.86,-168.5 157.86,-168.5"/>
<text text-anchor="middle" x="242.36" y="-175.5" font-family="Helvetica,sans-Serif" font-size="10.00">src/user_interface/top_viewer.h</text>
</a>
</g>
</g>
<!-- Node4&#45;&gt;Node8 -->
<g id="edge10" class="edge">
<title>Node4&#45;&gt;Node8</title>
<path fill="none" stroke="midnightblue" d="M327.11,-219.86C306.34,-209.85 278.33,-196.35 260.31,-187.65"/>
<polygon fill="midnightblue" stroke="midnightblue" points="325.84,-223.13 336.36,-224.32 328.88,-216.83 325.84,-223.13"/>
</g>
<!-- Node8&#45;&gt;Node7 -->
<g id="edge11" class="edge">
<title>Node8&#45;&gt;Node7</title>
<path fill="none" stroke="midnightblue" d="M212.04,-164.5C187.48,-154.38 153.54,-140.39 132.02,-131.52"/>
<polygon fill="midnightblue" stroke="midnightblue" points="211.02,-167.87 221.6,-168.44 213.69,-161.4 211.02,-167.87"/>
</g>
<!-- Node9 -->
<g id="node9" class="node">
<title>Node9</title>
<g id="a_node9"><a xlink:href="user__interface_8h.html" target="_top" xlink:title=" ">
<polygon fill="white" stroke="black" points="219.86,-112.5 219.86,-131.5 332.86,-131.5 332.86,-112.5 219.86,-112.5"/>
<text text-anchor="middle" x="276.36" y="-119.5" font-family="Helvetica,sans-Serif" font-size="10.00">src/user_interface.h</text>
</a>
</g>
</g>
<!-- Node8&#45;&gt;Node9 -->
<g id="edge12" class="edge">
<title>Node8&#45;&gt;Node9</title>
<path fill="none" stroke="midnightblue" d="M253.33,-159.57C259.18,-150.27 266.13,-139.25 270.85,-131.75"/>
<polygon fill="midnightblue" stroke="midnightblue" points="250.34,-157.76 247.97,-168.08 256.26,-161.49 250.34,-157.76"/>
</g>
<!-- Node9&#45;&gt;Node2 -->
<g id="edge14" class="edge">
<title>Node9&#45;&gt;Node2</title>
<path fill="none" stroke="midnightblue" d="M258.2,-105.19C245.66,-92.26 232.54,-73.33 240.36,-56 247.55,-40.07 263.47,-27.52 275.62,-19.76"/>
<polygon fill="midnightblue" stroke="midnightblue" points="256.09,-108.02 265.74,-112.4 260.93,-102.96 256.09,-108.02"/>
</g>
<!-- Node9&#45;&gt;Node3 -->
<g id="edge15" class="edge">
<title>Node9&#45;&gt;Node3</title>
<path fill="none" stroke="midnightblue" d="M233.54,-109.83C194.45,-99.63 137.52,-84.78 102,-75.52"/>
<polygon fill="midnightblue" stroke="midnightblue" points="233,-113.31 243.56,-112.44 234.77,-106.53 233,-113.31"/>
</g>
<!-- Node10 -->
<g id="node10" class="node">
<title>Node10</title>
<g id="a_node10"><a xlink:href="app_2main_8cpp.html" target="_top" xlink:title=" ">
<polygon fill="white" stroke="black" points="249.86,-56.5 249.86,-75.5 332.86,-75.5 332.86,-56.5 249.86,-56.5"/>
<text text-anchor="middle" x="291.36" y="-63.5" font-family="Helvetica,sans-Serif" font-size="10.00">app/main.cpp</text>
</a>
</g>
</g>
<!-- Node9&#45;&gt;Node10 -->
<g id="edge13" class="edge">
<title>Node9&#45;&gt;Node10</title>
<path fill="none" stroke="midnightblue" d="M281.53,-102.4C284.03,-93.36 286.93,-82.94 288.93,-75.75"/>
<polygon fill="midnightblue" stroke="midnightblue" points="278.14,-101.51 278.83,-112.08 284.88,-103.38 278.14,-101.51"/>
</g>
</g>
</svg>
