<?xml version="1.0" encoding="UTF-8" standalone="no"?>
<!DOCTYPE svg PUBLIC "-//W3C//DTD SVG 1.1//EN"
 "http://www.w3.org/Graphics/SVG/1.1/DTD/svg11.dtd">
<!-- Generated by graphviz version 2.43.0 (0)
 -->
<!-- Title: src/user_interface/shape_drawer.h Pages: 1 -->
<svg width="261pt" height="196pt"
 viewBox="0.00 0.00 261.02 196.00" xmlns="http://www.w3.org/2000/svg" xmlns:xlink="http://www.w3.org/1999/xlink">
<g id="graph0" class="graph" transform="scale(1 1) rotate(0) translate(4 192)">
<title>src/user_interface/shape_drawer.h</title>
<polygon fill="white" stroke="transparent" points="-4,4 -4,-192 257.02,-192 257.02,4 -4,4"/>
<!-- Node1 -->
<g id="node1" class="node">
<title>Node1</title>
<g id="a_node1"><a xlink:title=" ">
<polygon fill="#bfbfbf" stroke="black" points="17.5,-168.5 17.5,-187.5 200.5,-187.5 200.5,-168.5 17.5,-168.5"/>
<text text-anchor="middle" x="109" y="-175.5" font-family="Helvetica,sans-Serif" font-size="10.00">src/user_interface/shape_drawer.h</text>
</a>
</g>
</g>
<!-- Node2 -->
<g id="node2" class="node">
<title>Node2</title>
<g id="a_node2"><a xlink:title=" ">
<polygon fill="white" stroke="#bfbfbf" points="0,-0.5 0,-19.5 58,-19.5 58,-0.5 0,-0.5"/>
<text text-anchor="middle" x="29" y="-7.5" font-family="Helvetica,sans-Serif" font-size="10.00">memory</text>
</a>
</g>
</g>
<!-- Node1&#45;&gt;Node2 -->
<g id="edge1" class="edge">
<title>Node1&#45;&gt;Node2</title>
<path fill="none" stroke="midnightblue" d="M100.79,-168.42C85.68,-152.01 53.73,-114.39 40,-76 34.64,-61 31.85,-43.09 30.43,-29.87"/>
<polygon fill="midnightblue" stroke="midnightblue" points="33.89,-29.3 29.5,-19.66 26.92,-29.93 33.89,-29.3"/>
</g>
<!-- Node3 -->
<g id="node3" class="node">
<title>Node3</title>
<g id="a_node3"><a xlink:title=" ">
<polygon fill="white" stroke="#bfbfbf" points="199.5,-0.5 199.5,-19.5 246.5,-19.5 246.5,-0.5 199.5,-0.5"/>
<text text-anchor="middle" x="223" y="-7.5" font-family="Helvetica,sans-Serif" font-size="10.00">vector</text>
</a>
</g>
</g>
<!-- Node1&#45;&gt;Node3 -->
<g id="edge2" class="edge">
<title>Node1&#45;&gt;Node3</title>
<path fill="none" stroke="midnightblue" d="M184.28,-168.42C206.48,-161.98 228.43,-150.92 242,-132 264.32,-100.88 245.83,-53.66 232.91,-28.4"/>
<polygon fill="midnightblue" stroke="midnightblue" points="235.99,-26.73 228.16,-19.59 229.82,-30.05 235.99,-26.73"/>
</g>
<!-- Node4 -->
<g id="node4" class="node">
<title>Node4</title>
<g id="a_node4"><a xlink:href="frame_8h.html" target="_top" xlink:title=" ">
<polygon fill="white" stroke="black" points="87,-112.5 87,-131.5 233,-131.5 233,-112.5 87,-112.5"/>
<text text-anchor="middle" x="160" y="-119.5" font-family="Helvetica,sans-Serif" font-size="10.00">src/data_structure/frame.h</text>
</a>
</g>
</g>
<!-- Node1&#45;&gt;Node4 -->
<g id="edge3" class="edge">
<title>Node1&#45;&gt;Node4</title>
<path fill="none" stroke="midnightblue" d="M117.42,-168.08C124.85,-160.22 135.85,-148.57 144.81,-139.08"/>
<polygon fill="midnightblue" stroke="midnightblue" points="147.41,-141.42 151.74,-131.75 142.32,-136.62 147.41,-141.42"/>
</g>
<!-- Node5 -->
<g id="node5" class="node">
<title>Node5</title>
<g id="a_node5"><a xlink:href="shape_8h.html" target="_top" xlink:title=" ">
<polygon fill="white" stroke="black" points="49,-56.5 49,-75.5 195,-75.5 195,-56.5 49,-56.5"/>
<text text-anchor="middle" x="122" y="-63.5" font-family="Helvetica,sans-Serif" font-size="10.00">src/data_structure/shape.h</text>
</a>
</g>
</g>
<!-- Node1&#45;&gt;Node5 -->
<g id="edge9" class="edge">
<title>Node1&#45;&gt;Node5</title>
<path fill="none" stroke="midnightblue" d="M99.78,-168.31C87.87,-155.98 69.6,-132.61 78,-112 82.8,-100.23 92.33,-89.86 101.29,-82.05"/>
<polygon fill="midnightblue" stroke="midnightblue" points="103.65,-84.64 109.22,-75.63 99.25,-79.2 103.65,-84.64"/>
</g>
<!-- Node4&#45;&gt;Node3 -->
<g id="edge4" class="edge">
<title>Node4&#45;&gt;Node3</title>
<path fill="none" stroke="midnightblue" d="M171.34,-112.18C181.31,-103.86 195.5,-90.52 204,-76 212.44,-61.57 217.37,-43.12 220.08,-29.56"/>
<polygon fill="midnightblue" stroke="midnightblue" points="223.56,-29.98 221.86,-19.52 216.67,-28.76 223.56,-29.98"/>
</g>
<!-- Node4&#45;&gt;Node5 -->
<g id="edge5" class="edge">
<title>Node4&#45;&gt;Node5</title>
<path fill="none" stroke="midnightblue" d="M153.73,-112.08C148.36,-104.46 140.48,-93.26 133.92,-83.94"/>
<polygon fill="midnightblue" stroke="midnightblue" points="136.78,-81.91 128.16,-75.75 131.05,-85.94 136.78,-81.91"/>
</g>
<!-- Node5&#45;&gt;Node2 -->
<g id="edge7" class="edge">
<title>Node5&#45;&gt;Node2</title>
<path fill="none" stroke="midnightblue" d="M107.06,-56.32C92.41,-47.82 69.87,-34.73 52.76,-24.8"/>
<polygon fill="midnightblue" stroke="midnightblue" points="54.31,-21.65 43.9,-19.65 50.8,-27.7 54.31,-21.65"/>
</g>
<!-- Node5&#45;&gt;Node3 -->
<g id="edge8" class="edge">
<title>Node5&#45;&gt;Node3</title>
<path fill="none" stroke="midnightblue" d="M138.23,-56.32C154.35,-47.7 179.3,-34.36 197.96,-24.39"/>
<polygon fill="midnightblue" stroke="midnightblue" points="199.64,-27.46 206.81,-19.65 196.34,-21.28 199.64,-27.46"/>
</g>
<!-- Node6 -->
<g id="node6" class="node">
<title>Node6</title>
<g id="a_node6"><a xlink:title=" ">
<polygon fill="white" stroke="#bfbfbf" points="83.5,-0.5 83.5,-19.5 160.5,-19.5 160.5,-0.5 83.5,-0.5"/>
<text text-anchor="middle" x="122" y="-7.5" font-family="Helvetica,sans-Serif" font-size="10.00">Eigen/Dense</text>
</a>
</g>
</g>
<!-- Node5&#45;&gt;Node6 -->
<g id="edge6" class="edge">
<title>Node5&#45;&gt;Node6</title>
<path fill="none" stroke="midnightblue" d="M122,-56.08C122,-49.01 122,-38.86 122,-29.99"/>
<polygon fill="midnightblue" stroke="midnightblue" points="125.5,-29.75 122,-19.75 118.5,-29.75 125.5,-29.75"/>
</g>
</g>
</svg>
