<?xml version="1.0" encoding="UTF-8" standalone="no"?>
<!DOCTYPE svg PUBLIC "-//W3C//DTD SVG 1.1//EN"
 "http://www.w3.org/Graphics/SVG/1.1/DTD/svg11.dtd">
<!-- Generated by graphviz version 2.43.0 (0)
 -->
<!-- Title: ad_framework::callback::Callback Pages: 1 -->
<svg width="1425pt" height="193pt"
 viewBox="0.00 0.00 1425.00 193.00" xmlns="http://www.w3.org/2000/svg" xmlns:xlink="http://www.w3.org/1999/xlink">
<g id="graph0" class="graph" transform="scale(1 1) rotate(0) translate(4 189)">
<title>ad_framework::callback::Callback</title>
<polygon fill="white" stroke="transparent" points="-4,4 -4,-189 1421,-189 1421,4 -4,4"/>
<!-- Node1 -->
<g id="node1" class="node">
<title>Node1</title>
<g id="a_node1"><a xlink:title=" ">
<polygon fill="#bfbfbf" stroke="black" points="559.5,-116.5 559.5,-184.5 827.5,-184.5 827.5,-116.5 559.5,-116.5"/>
<text text-anchor="middle" x="693.5" y="-172.5" font-family="Helvetica,sans-Serif" font-size="10.00">ad_framework::callback::Callback</text>
<polyline fill="none" stroke="black" points="559.5,-165.5 827.5,-165.5 "/>
<text text-anchor="middle" x="693.5" y="-153.5" font-family="Helvetica,sans-Serif" font-size="10.00"> </text>
<polyline fill="none" stroke="black" points="559.5,-146.5 827.5,-146.5 "/>
<text text-anchor="start" x="567.5" y="-134.5" font-family="Helvetica,sans-Serif" font-size="10.00">+ virtual ~Callback()=default</text>
<text text-anchor="start" x="567.5" y="-123.5" font-family="Helvetica,sans-Serif" font-size="10.00">+ virtual std::any operator()(const std::any &amp;src)=0</text>
</a>
</g>
</g>
<!-- Node2 -->
<g id="node2" class="node">
<title>Node2</title>
<g id="a_node2"><a xlink:href="classSampleCallback.html" target="_top" xlink:title=" ">
<polygon fill="white" stroke="black" points="0,-11.5 0,-68.5 263,-68.5 263,-11.5 0,-11.5"/>
<text text-anchor="middle" x="131.5" y="-56.5" font-family="Helvetica,sans-Serif" font-size="10.00">SampleCallback</text>
<polyline fill="none" stroke="black" points="0,-49.5 263,-49.5 "/>
<text text-anchor="middle" x="131.5" y="-37.5" font-family="Helvetica,sans-Serif" font-size="10.00"> </text>
<polyline fill="none" stroke="black" points="0,-30.5 263,-30.5 "/>
<text text-anchor="start" x="8" y="-18.5" font-family="Helvetica,sans-Serif" font-size="10.00">+ std::any operator()(const std::any &amp;src) override</text>
</a>
</g>
</g>
<!-- Node1&#45;&gt;Node2 -->
<g id="edge1" class="edge">
<title>Node1&#45;&gt;Node2</title>
<path fill="none" stroke="midnightblue" d="M549.15,-129.69C467.29,-117.47 363.2,-100.26 271.5,-80 256.35,-76.65 240.4,-72.66 224.9,-68.53"/>
<polygon fill="none" stroke="midnightblue" points="548.87,-133.19 559.27,-131.19 549.9,-126.26 548.87,-133.19"/>
</g>
<!-- Node3 -->
<g id="node3" class="node">
<title>Node3</title>
<g id="a_node3"><a xlink:href="classad__framework_1_1callback_1_1NullCallback.html" target="_top" xlink:title=" ">
<polygon fill="white" stroke="black" points="281,-11.5 281,-68.5 544,-68.5 544,-11.5 281,-11.5"/>
<text text-anchor="middle" x="412.5" y="-56.5" font-family="Helvetica,sans-Serif" font-size="10.00">ad_framework::callback::NullCallback</text>
<polyline fill="none" stroke="black" points="281,-49.5 544,-49.5 "/>
<text text-anchor="middle" x="412.5" y="-37.5" font-family="Helvetica,sans-Serif" font-size="10.00"> </text>
<polyline fill="none" stroke="black" points="281,-30.5 544,-30.5 "/>
<text text-anchor="start" x="289" y="-18.5" font-family="Helvetica,sans-Serif" font-size="10.00">+ std::any operator()(const std::any &amp;src) override</text>
</a>
</g>
</g>
<!-- Node1&#45;&gt;Node3 -->
<g id="edge2" class="edge">
<title>Node1&#45;&gt;Node3</title>
<path fill="none" stroke="midnightblue" d="M598.28,-112.73C560.93,-98.31 518.79,-82.04 484.11,-68.65"/>
<polygon fill="none" stroke="midnightblue" points="597.07,-116.02 607.66,-116.36 599.6,-109.49 597.07,-116.02"/>
</g>
<!-- Node4 -->
<g id="node4" class="node">
<title>Node4</title>
<g id="a_node4"><a xlink:href="classad__framework_1_1ui_1_1Button_1_1ButtonChanger.html" target="_top" xlink:title=" ">
<polygon fill="white" stroke="black" points="562,-6 562,-74 825,-74 825,-6 562,-6"/>
<text text-anchor="middle" x="693.5" y="-62" font-family="Helvetica,sans-Serif" font-size="10.00">ad_framework::ui::Button::ButtonChanger</text>
<polyline fill="none" stroke="black" points="562,-55 825,-55 "/>
<text text-anchor="middle" x="693.5" y="-43" font-family="Helvetica,sans-Serif" font-size="10.00"> </text>
<polyline fill="none" stroke="black" points="562,-36 825,-36 "/>
<text text-anchor="start" x="570" y="-24" font-family="Helvetica,sans-Serif" font-size="10.00">+ ButtonChanger()=default</text>
<text text-anchor="start" x="570" y="-13" font-family="Helvetica,sans-Serif" font-size="10.00">+ std::any operator()(const std::any &amp;src) override</text>
</a>
</g>
</g>
<!-- Node1&#45;&gt;Node4 -->
<g id="edge3" class="edge">
<title>Node1&#45;&gt;Node4</title>
<path fill="none" stroke="midnightblue" d="M693.5,-106.04C693.5,-95.47 693.5,-84.33 693.5,-74.31"/>
<polygon fill="none" stroke="midnightblue" points="690,-106.36 693.5,-116.36 697,-106.36 690,-106.36"/>
</g>
<!-- Node5 -->
<g id="node5" class="node">
<title>Node5</title>
<g id="a_node5"><a xlink:href="classad__framework_1_1ui_1_1Selector_1_1ItemListSender.html" target="_top" xlink:title=" ">
<polygon fill="white" stroke="black" points="843,-0.5 843,-79.5 1136,-79.5 1136,-0.5 843,-0.5"/>
<text text-anchor="middle" x="989.5" y="-67.5" font-family="Helvetica,sans-Serif" font-size="10.00">ad_framework::ui::Selector::ItemListSender</text>
<polyline fill="none" stroke="black" points="843,-60.5 1136,-60.5 "/>
<text text-anchor="start" x="851" y="-48.5" font-family="Helvetica,sans-Serif" font-size="10.00">&#45; std::vector&lt; const char * &gt; items_</text>
<polyline fill="none" stroke="black" points="843,-41.5 1136,-41.5 "/>
<text text-anchor="start" x="851" y="-29.5" font-family="Helvetica,sans-Serif" font-size="10.00">+ ItemListSender()=default</text>
<text text-anchor="start" x="851" y="-18.5" font-family="Helvetica,sans-Serif" font-size="10.00">+ std::any operator()(const std::any &amp;src) override</text>
<text text-anchor="start" x="851" y="-7.5" font-family="Helvetica,sans-Serif" font-size="10.00">+ void SetItems(const std::vector&lt; std::string &gt; &amp;items)</text>
</a>
</g>
</g>
<!-- Node1&#45;&gt;Node5 -->
<g id="edge4" class="edge">
<title>Node1&#45;&gt;Node5</title>
<path fill="none" stroke="midnightblue" d="M793.32,-112.91C822.61,-102.18 854.72,-90.41 884.32,-79.55"/>
<polygon fill="none" stroke="midnightblue" points="792.1,-109.63 783.92,-116.36 794.51,-116.2 792.1,-109.63"/>
</g>
<!-- Node6 -->
<g id="node6" class="node">
<title>Node6</title>
<g id="a_node6"><a xlink:href="classad__framework_1_1ui_1_1Selector_1_1ItemReciever.html" target="_top" xlink:title=" ">
<polygon fill="white" stroke="black" points="1154,-0.5 1154,-79.5 1417,-79.5 1417,-0.5 1154,-0.5"/>
<text text-anchor="middle" x="1285.5" y="-67.5" font-family="Helvetica,sans-Serif" font-size="10.00">ad_framework::ui::Selector::ItemReciever</text>
<polyline fill="none" stroke="black" points="1154,-60.5 1417,-60.5 "/>
<text text-anchor="start" x="1162" y="-48.5" font-family="Helvetica,sans-Serif" font-size="10.00">&#45; std::string item_</text>
<polyline fill="none" stroke="black" points="1154,-41.5 1417,-41.5 "/>
<text text-anchor="start" x="1162" y="-29.5" font-family="Helvetica,sans-Serif" font-size="10.00">+ ItemReciever()=default</text>
<text text-anchor="start" x="1162" y="-18.5" font-family="Helvetica,sans-Serif" font-size="10.00">+ std::any operator()(const std::any &amp;src) override</text>
<text text-anchor="start" x="1162" y="-7.5" font-family="Helvetica,sans-Serif" font-size="10.00">+ std::string GetItem()</text>
</a>
</g>
</g>
<!-- Node1&#45;&gt;Node6 -->
<g id="edge5" class="edge">
<title>Node1&#45;&gt;Node6</title>
<path fill="none" stroke="midnightblue" d="M837.95,-131.75C927.08,-119.7 1043.49,-101.97 1145.5,-80 1148.21,-79.42 1150.95,-78.81 1153.71,-78.18"/>
<polygon fill="none" stroke="midnightblue" points="837.21,-128.32 827.77,-133.12 838.14,-135.26 837.21,-128.32"/>
</g>
</g>
</svg>
