<?xml version="1.0" encoding="UTF-8" standalone="no"?>
<!DOCTYPE svg PUBLIC "-//W3C//DTD SVG 1.1//EN"
 "http://www.w3.org/Graphics/SVG/1.1/DTD/svg11.dtd">
<!-- Generated by graphviz version 2.43.0 (0)
 -->
<!-- Title: ad_framework::callback::Callback Pages: 1 -->
<svg width="2298pt" height="204pt"
 viewBox="0.00 0.00 2297.50 204.00" xmlns="http://www.w3.org/2000/svg" xmlns:xlink="http://www.w3.org/1999/xlink">
<g id="graph0" class="graph" transform="scale(1 1) rotate(0) translate(4 200)">
<title>ad_framework::callback::Callback</title>
<polygon fill="white" stroke="transparent" points="-4,4 -4,-200 2293.5,-200 2293.5,4 -4,4"/>
<!-- Node1 -->
<g id="node1" class="node">
<title>Node1</title>
<g id="a_node1"><a xlink:title=" ">
<polygon fill="#bfbfbf" stroke="black" points="995.5,-127.5 995.5,-195.5 1263.5,-195.5 1263.5,-127.5 995.5,-127.5"/>
<text text-anchor="middle" x="1129.5" y="-183.5" font-family="Helvetica,sans-Serif" font-size="10.00">ad_framework::callback::Callback</text>
<polyline fill="none" stroke="black" points="995.5,-176.5 1263.5,-176.5 "/>
<text text-anchor="middle" x="1129.5" y="-164.5" font-family="Helvetica,sans-Serif" font-size="10.00"> </text>
<polyline fill="none" stroke="black" points="995.5,-157.5 1263.5,-157.5 "/>
<text text-anchor="start" x="1003.5" y="-145.5" font-family="Helvetica,sans-Serif" font-size="10.00">+ virtual ~Callback()=default</text>
<text text-anchor="start" x="1003.5" y="-134.5" font-family="Helvetica,sans-Serif" font-size="10.00">+ virtual std::any operator()(const std::any &amp;src)=0</text>
</a>
</g>
</g>
<!-- Node2 -->
<g id="node2" class="node">
<title>Node2</title>
<g id="a_node2"><a xlink:href="classSampleCallback.html" target="_top" xlink:title=" ">
<polygon fill="white" stroke="black" points="0,-17 0,-74 263,-74 263,-17 0,-17"/>
<text text-anchor="middle" x="131.5" y="-62" font-family="Helvetica,sans-Serif" font-size="10.00">SampleCallback</text>
<polyline fill="none" stroke="black" points="0,-55 263,-55 "/>
<text text-anchor="middle" x="131.5" y="-43" font-family="Helvetica,sans-Serif" font-size="10.00"> </text>
<polyline fill="none" stroke="black" points="0,-36 263,-36 "/>
<text text-anchor="start" x="8" y="-24" font-family="Helvetica,sans-Serif" font-size="10.00">+ std::any operator()(const std::any &amp;src) override</text>
</a>
</g>
</g>
<!-- Node1&#45;&gt;Node2 -->
<g id="edge1" class="edge">
<title>Node1&#45;&gt;Node2</title>
<path fill="none" stroke="midnightblue" d="M985.09,-158.76C813.46,-154.41 519.14,-139.73 271.5,-91 250.35,-86.84 227.92,-80.58 207.34,-74.05"/>
<polygon fill="none" stroke="midnightblue" points="985.11,-162.26 995.2,-159.01 985.28,-155.27 985.11,-162.26"/>
</g>
<!-- Node3 -->
<g id="node3" class="node">
<title>Node3</title>
<g id="a_node3"><a xlink:href="classad__framework_1_1callback_1_1NullCallback.html" target="_top" xlink:title=" ">
<polygon fill="white" stroke="black" points="281,-17 281,-74 544,-74 544,-17 281,-17"/>
<text text-anchor="middle" x="412.5" y="-62" font-family="Helvetica,sans-Serif" font-size="10.00">ad_framework::callback::NullCallback</text>
<polyline fill="none" stroke="black" points="281,-55 544,-55 "/>
<text text-anchor="middle" x="412.5" y="-43" font-family="Helvetica,sans-Serif" font-size="10.00"> </text>
<polyline fill="none" stroke="black" points="281,-36 544,-36 "/>
<text text-anchor="start" x="289" y="-24" font-family="Helvetica,sans-Serif" font-size="10.00">+ std::any operator()(const std::any &amp;src) override</text>
</a>
</g>
</g>
<!-- Node1&#45;&gt;Node3 -->
<g id="edge2" class="edge">
<title>Node1&#45;&gt;Node3</title>
<path fill="none" stroke="midnightblue" d="M985.26,-150.69C867.78,-140.89 698.13,-122.62 552.5,-91 532.06,-86.56 510.35,-80.4 490.29,-74.08"/>
<polygon fill="none" stroke="midnightblue" points="985.14,-154.19 995.39,-151.52 985.72,-147.21 985.14,-154.19"/>
</g>
<!-- Node4 -->
<g id="node4" class="node">
<title>Node4</title>
<g id="a_node4"><a xlink:href="classad__framework_1_1ui_1_1Button_1_1ButtonChanger.html" target="_top" xlink:title=" ">
<polygon fill="white" stroke="black" points="562,-11.5 562,-79.5 825,-79.5 825,-11.5 562,-11.5"/>
<text text-anchor="middle" x="693.5" y="-67.5" font-family="Helvetica,sans-Serif" font-size="10.00">ad_framework::ui::Button::ButtonChanger</text>
<polyline fill="none" stroke="black" points="562,-60.5 825,-60.5 "/>
<text text-anchor="middle" x="693.5" y="-48.5" font-family="Helvetica,sans-Serif" font-size="10.00"> </text>
<polyline fill="none" stroke="black" points="562,-41.5 825,-41.5 "/>
<text text-anchor="start" x="570" y="-29.5" font-family="Helvetica,sans-Serif" font-size="10.00">+ ButtonChanger()=default</text>
<text text-anchor="start" x="570" y="-18.5" font-family="Helvetica,sans-Serif" font-size="10.00">+ std::any operator()(const std::any &amp;src) override</text>
</a>
</g>
</g>
<!-- Node1&#45;&gt;Node4 -->
<g id="edge3" class="edge">
<title>Node1&#45;&gt;Node4</title>
<path fill="none" stroke="midnightblue" d="M985.3,-128.99C936.86,-117.78 882.65,-104.56 833.5,-91 820.72,-87.47 807.35,-83.54 794.16,-79.52"/>
<polygon fill="none" stroke="midnightblue" points="984.69,-132.44 995.23,-131.28 986.27,-125.62 984.69,-132.44"/>
</g>
<!-- Node5 -->
<g id="node5" class="node">
<title>Node5</title>
<g id="a_node5"><a xlink:href="classad__framework_1_1ui_1_1ImageViewer_1_1ImageSender.html" target="_top" xlink:title=" ">
<polygon fill="white" stroke="black" points="843,-0.5 843,-90.5 1116,-90.5 1116,-0.5 843,-0.5"/>
<text text-anchor="middle" x="979.5" y="-78.5" font-family="Helvetica,sans-Serif" font-size="10.00">ad_framework::ui::ImageViewer::ImageSender</text>
<polyline fill="none" stroke="black" points="843,-71.5 1116,-71.5 "/>
<text text-anchor="start" x="851" y="-59.5" font-family="Helvetica,sans-Serif" font-size="10.00">&#45; std::string image_path_</text>
<text text-anchor="start" x="851" y="-48.5" font-family="Helvetica,sans-Serif" font-size="10.00">&#45; bool is_gray_</text>
<polyline fill="none" stroke="black" points="843,-41.5 1116,-41.5 "/>
<text text-anchor="start" x="851" y="-29.5" font-family="Helvetica,sans-Serif" font-size="10.00">+ ImageSender(bool is_gray=true)</text>
<text text-anchor="start" x="851" y="-18.5" font-family="Helvetica,sans-Serif" font-size="10.00">+ std::any operator()(const std::any &amp;src) override</text>
<text text-anchor="start" x="851" y="-7.5" font-family="Helvetica,sans-Serif" font-size="10.00">+ void SetImagePath(const std::string &amp;image_path)</text>
</a>
</g>
</g>
<!-- Node1&#45;&gt;Node5 -->
<g id="edge4" class="edge">
<title>Node1&#45;&gt;Node5</title>
<path fill="none" stroke="midnightblue" d="M1077.42,-120.92C1064.56,-111.14 1050.7,-100.61 1037.58,-90.64"/>
<polygon fill="none" stroke="midnightblue" points="1075.63,-123.96 1085.71,-127.22 1079.87,-118.38 1075.63,-123.96"/>
</g>
<!-- Node6 -->
<g id="node6" class="node">
<title>Node6</title>
<g id="a_node6"><a xlink:href="classad__framework_1_1ui_1_1Selector_1_1ItemListSender.html" target="_top" xlink:title=" ">
<polygon fill="white" stroke="black" points="1134,-6 1134,-85 1427,-85 1427,-6 1134,-6"/>
<text text-anchor="middle" x="1280.5" y="-73" font-family="Helvetica,sans-Serif" font-size="10.00">ad_framework::ui::Selector::ItemListSender</text>
<polyline fill="none" stroke="black" points="1134,-66 1427,-66 "/>
<text text-anchor="start" x="1142" y="-54" font-family="Helvetica,sans-Serif" font-size="10.00">&#45; std::vector&lt; const char * &gt; items_</text>
<polyline fill="none" stroke="black" points="1134,-47 1427,-47 "/>
<text text-anchor="start" x="1142" y="-35" font-family="Helvetica,sans-Serif" font-size="10.00">+ ItemListSender()=default</text>
<text text-anchor="start" x="1142" y="-24" font-family="Helvetica,sans-Serif" font-size="10.00">+ std::any operator()(const std::any &amp;src) override</text>
<text text-anchor="start" x="1142" y="-13" font-family="Helvetica,sans-Serif" font-size="10.00">+ void SetItems(const std::vector&lt; std::string &gt; &amp;items)</text>
</a>
</g>
</g>
<!-- Node1&#45;&gt;Node6 -->
<g id="edge5" class="edge">
<title>Node1&#45;&gt;Node6</title>
<path fill="none" stroke="midnightblue" d="M1181.97,-120.89C1197.35,-109.27 1214.15,-96.59 1229.44,-85.04"/>
<polygon fill="none" stroke="midnightblue" points="1179.45,-118.4 1173.58,-127.22 1183.67,-123.99 1179.45,-118.4"/>
</g>
<!-- Node7 -->
<g id="node7" class="node">
<title>Node7</title>
<g id="a_node7"><a xlink:href="classad__framework_1_1ui_1_1Selector_1_1ItemReciever.html" target="_top" xlink:title=" ">
<polygon fill="white" stroke="black" points="1445,-6 1445,-85 1708,-85 1708,-6 1445,-6"/>
<text text-anchor="middle" x="1576.5" y="-73" font-family="Helvetica,sans-Serif" font-size="10.00">ad_framework::ui::Selector::ItemReciever</text>
<polyline fill="none" stroke="black" points="1445,-66 1708,-66 "/>
<text text-anchor="start" x="1453" y="-54" font-family="Helvetica,sans-Serif" font-size="10.00">&#45; std::string item_</text>
<polyline fill="none" stroke="black" points="1445,-47 1708,-47 "/>
<text text-anchor="start" x="1453" y="-35" font-family="Helvetica,sans-Serif" font-size="10.00">+ ItemReciever()=default</text>
<text text-anchor="start" x="1453" y="-24" font-family="Helvetica,sans-Serif" font-size="10.00">+ std::any operator()(const std::any &amp;src) override</text>
<text text-anchor="start" x="1453" y="-13" font-family="Helvetica,sans-Serif" font-size="10.00">+ std::string GetItem()</text>
</a>
</g>
</g>
<!-- Node1&#45;&gt;Node7 -->
<g id="edge6" class="edge">
<title>Node1&#45;&gt;Node7</title>
<path fill="none" stroke="midnightblue" d="M1273.73,-130.5C1325.32,-119.08 1383.74,-105.33 1436.5,-91 1443.39,-89.13 1450.45,-87.13 1457.56,-85.07"/>
<polygon fill="none" stroke="midnightblue" points="1272.86,-127.11 1263.85,-132.68 1274.37,-133.95 1272.86,-127.11"/>
</g>
<!-- Node8 -->
<g id="node8" class="node">
<title>Node8</title>
<g id="a_node8"><a xlink:href="classad__framework_1_1ui_1_1TopViewer_1_1FrameDrawer.html" target="_top" xlink:title=" ">
<polygon fill="white" stroke="black" points="1726,-6 1726,-85 1989,-85 1989,-6 1726,-6"/>
<text text-anchor="middle" x="1857.5" y="-73" font-family="Helvetica,sans-Serif" font-size="10.00">ad_framework::ui::TopViewer::FrameDrawer</text>
<polyline fill="none" stroke="black" points="1726,-66 1989,-66 "/>
<text text-anchor="start" x="1734" y="-54" font-family="Helvetica,sans-Serif" font-size="10.00">&#45; data_structure::Frame frame_</text>
<text text-anchor="start" x="1734" y="-43" font-family="Helvetica,sans-Serif" font-size="10.00">&#45; std::string title_</text>
<polyline fill="none" stroke="black" points="1726,-36 1989,-36 "/>
<text text-anchor="start" x="1734" y="-24" font-family="Helvetica,sans-Serif" font-size="10.00">+ FrameDrawer()=default</text>
<text text-anchor="start" x="1734" y="-13" font-family="Helvetica,sans-Serif" font-size="10.00">+ std::any operator()(const std::any &amp;src) override</text>
</a>
</g>
</g>
<!-- Node1&#45;&gt;Node8 -->
<g id="edge7" class="edge">
<title>Node1&#45;&gt;Node8</title>
<path fill="none" stroke="midnightblue" d="M1273.48,-151.16C1393.31,-141.56 1567.85,-123.32 1717.5,-91 1725.6,-89.25 1733.9,-87.23 1742.22,-85.03"/>
<polygon fill="none" stroke="midnightblue" points="1273.2,-147.67 1263.51,-151.95 1273.76,-154.65 1273.2,-147.67"/>
</g>
<!-- Node9 -->
<g id="node9" class="node">
<title>Node9</title>
<g id="a_node9"><a xlink:href="classad__framework_1_1ui_1_1TopViewer_1_1FrameSender.html" target="_top" xlink:title=" ">
<polygon fill="white" stroke="black" points="2007.5,-0.5 2007.5,-90.5 2289.5,-90.5 2289.5,-0.5 2007.5,-0.5"/>
<text text-anchor="middle" x="2148.5" y="-78.5" font-family="Helvetica,sans-Serif" font-size="10.00">ad_framework::ui::TopViewer::FrameSender</text>
<polyline fill="none" stroke="black" points="2007.5,-71.5 2289.5,-71.5 "/>
<text text-anchor="start" x="2015.5" y="-59.5" font-family="Helvetica,sans-Serif" font-size="10.00">&#45; data_structure::Frame frame_</text>
<text text-anchor="start" x="2015.5" y="-48.5" font-family="Helvetica,sans-Serif" font-size="10.00">&#45; std::string title_</text>
<polyline fill="none" stroke="black" points="2007.5,-41.5 2289.5,-41.5 "/>
<text text-anchor="start" x="2015.5" y="-29.5" font-family="Helvetica,sans-Serif" font-size="10.00">+ FrameSender()=default</text>
<text text-anchor="start" x="2015.5" y="-18.5" font-family="Helvetica,sans-Serif" font-size="10.00">+ std::any operator()(const std::any &amp;src) override</text>
<text text-anchor="start" x="2015.5" y="-7.5" font-family="Helvetica,sans-Serif" font-size="10.00">+ void SetFrame(const data_structure::Frame &amp;frame)</text>
</a>
</g>
</g>
<!-- Node1&#45;&gt;Node9 -->
<g id="edge8" class="edge">
<title>Node1&#45;&gt;Node9</title>
<path fill="none" stroke="midnightblue" d="M1273.72,-158.14C1447.11,-153.2 1746.3,-137.96 1998.5,-91 2001.44,-90.45 2004.4,-89.87 2007.38,-89.26"/>
<polygon fill="none" stroke="midnightblue" points="1273.41,-154.65 1263.51,-158.43 1273.6,-161.65 1273.41,-154.65"/>
</g>
</g>
</svg>
