<?xml version="1.0" encoding="UTF-8" standalone="no"?>
<!DOCTYPE svg PUBLIC "-//W3C//DTD SVG 1.1//EN"
 "http://www.w3.org/Graphics/SVG/1.1/DTD/svg11.dtd">
<!-- Generated by graphviz version 2.43.0 (0)
 -->
<!-- Title: ad_framework::data_structure::PointCloud Pages: 1 -->
<svg width="306pt" height="193pt"
 viewBox="0.00 0.00 306.00 193.00" xmlns="http://www.w3.org/2000/svg" xmlns:xlink="http://www.w3.org/1999/xlink">
<g id="graph0" class="graph" transform="scale(1 1) rotate(0) translate(4 189)">
<title>ad_framework::data_structure::PointCloud</title>
<polygon fill="white" stroke="transparent" points="-4,4 -4,-189 302,-189 302,4 -4,4"/>
<!-- Node1 -->
<g id="node1" class="node">
<title>Node1</title>
<g id="a_node1"><a xlink:title=" ">
<polygon fill="#bfbfbf" stroke="black" points="38,-0.5 38,-57.5 260,-57.5 260,-0.5 38,-0.5"/>
<text text-anchor="middle" x="149" y="-45.5" font-family="Helvetica,sans-Serif" font-size="10.00">ad_framework::data_structure::PointCloud</text>
<polyline fill="none" stroke="black" points="38,-38.5 260,-38.5 "/>
<text text-anchor="start" x="46" y="-26.5" font-family="Helvetica,sans-Serif" font-size="10.00">+ std::vector&lt; Point &gt; points</text>
<polyline fill="none" stroke="black" points="38,-19.5 260,-19.5 "/>
<text text-anchor="middle" x="149" y="-7.5" font-family="Helvetica,sans-Serif" font-size="10.00"> </text>
</a>
</g>
</g>
<!-- Node2 -->
<g id="node2" class="node">
<title>Node2</title>
<g id="a_node2"><a xlink:href="classad__framework_1_1data__structure_1_1Shape.html" target="_top" xlink:title=" ">
<polygon fill="white" stroke="black" points="0,-94.5 0,-184.5 298,-184.5 298,-94.5 0,-94.5"/>
<text text-anchor="middle" x="149" y="-172.5" font-family="Helvetica,sans-Serif" font-size="10.00">ad_framework::data_structure::Shape</text>
<polyline fill="none" stroke="black" points="0,-165.5 298,-165.5 "/>
<text text-anchor="middle" x="149" y="-153.5" font-family="Helvetica,sans-Serif" font-size="10.00"> </text>
<polyline fill="none" stroke="black" points="0,-146.5 298,-146.5 "/>
<text text-anchor="start" x="8" y="-134.5" font-family="Helvetica,sans-Serif" font-size="10.00">+ virtual ~Shape()=default</text>
<text text-anchor="start" x="8" y="-123.5" font-family="Helvetica,sans-Serif" font-size="10.00">+ virtual bool IsIn(const Eigen::Vector3d &amp;point) const =0</text>
<text text-anchor="start" x="8" y="-112.5" font-family="Helvetica,sans-Serif" font-size="10.00">+ virtual std::string ToString() const =0</text>
<text text-anchor="start" x="8" y="-101.5" font-family="Helvetica,sans-Serif" font-size="10.00">+ virtual ~Shape()=default</text>
</a>
</g>
</g>
<!-- Node2&#45;&gt;Node1 -->
<g id="edge1" class="edge">
<title>Node2&#45;&gt;Node1</title>
<path fill="none" stroke="midnightblue" d="M149,-84.35C149,-75.07 149,-65.79 149,-57.59"/>
<polygon fill="none" stroke="midnightblue" points="145.5,-84.37 149,-94.37 152.5,-84.37 145.5,-84.37"/>
</g>
</g>
</svg>
