<?xml version="1.0" encoding="UTF-8" standalone="no"?>
<!DOCTYPE svg PUBLIC "-//W3C//DTD SVG 1.1//EN"
 "http://www.w3.org/Graphics/SVG/1.1/DTD/svg11.dtd">
<!-- Generated by graphviz version 2.43.0 (0)
 -->
<!-- Title: ad_framework::data_structure::PointCloud Pages: 1 -->
<svg width="600pt" height="414pt"
 viewBox="0.00 0.00 600.00 414.00" xmlns="http://www.w3.org/2000/svg" xmlns:xlink="http://www.w3.org/1999/xlink">
<g id="graph0" class="graph" transform="scale(1 1) rotate(0) translate(4 410)">
<title>ad_framework::data_structure::PointCloud</title>
<polygon fill="white" stroke="transparent" points="-4,4 -4,-410 596,-410 596,4 -4,4"/>
<!-- Node1 -->
<g id="node1" class="node">
<title>Node1</title>
<g id="a_node1"><a xlink:title=" ">
<polygon fill="#bfbfbf" stroke="black" points="54,-0.5 54,-57.5 276,-57.5 276,-0.5 54,-0.5"/>
<text text-anchor="middle" x="165" y="-45.5" font-family="Helvetica,sans-Serif" font-size="10.00">ad_framework::data_structure::PointCloud</text>
<polyline fill="none" stroke="black" points="54,-38.5 276,-38.5 "/>
<text text-anchor="middle" x="165" y="-26.5" font-family="Helvetica,sans-Serif" font-size="10.00"> </text>
<polyline fill="none" stroke="black" points="54,-19.5 276,-19.5 "/>
<text text-anchor="middle" x="165" y="-7.5" font-family="Helvetica,sans-Serif" font-size="10.00"> </text>
</a>
</g>
</g>
<!-- Node2 -->
<g id="node2" class="node">
<title>Node2</title>
<g id="a_node2"><a xlink:href="classad__framework_1_1data__structure_1_1Shape.html" target="_top" xlink:title=" ">
<polygon fill="white" stroke="black" points="0,-315.5 0,-405.5 298,-405.5 298,-315.5 0,-315.5"/>
<text text-anchor="middle" x="149" y="-393.5" font-family="Helvetica,sans-Serif" font-size="10.00">ad_framework::data_structure::Shape</text>
<polyline fill="none" stroke="black" points="0,-386.5 298,-386.5 "/>
<text text-anchor="middle" x="149" y="-374.5" font-family="Helvetica,sans-Serif" font-size="10.00"> </text>
<polyline fill="none" stroke="black" points="0,-367.5 298,-367.5 "/>
<text text-anchor="start" x="8" y="-355.5" font-family="Helvetica,sans-Serif" font-size="10.00">+ virtual ~Shape()=default</text>
<text text-anchor="start" x="8" y="-344.5" font-family="Helvetica,sans-Serif" font-size="10.00">+ virtual bool IsIn(const Eigen::Vector3d &amp;point) const =0</text>
<text text-anchor="start" x="8" y="-333.5" font-family="Helvetica,sans-Serif" font-size="10.00">+ virtual std::string ToString() const =0</text>
<text text-anchor="start" x="8" y="-322.5" font-family="Helvetica,sans-Serif" font-size="10.00">+ virtual ~Shape()=default</text>
</a>
</g>
</g>
<!-- Node2&#45;&gt;Node1 -->
<g id="edge1" class="edge">
<title>Node2&#45;&gt;Node1</title>
<path fill="none" stroke="midnightblue" d="M151.63,-305.32C155.08,-234.34 160.99,-112.53 163.64,-57.92"/>
<polygon fill="none" stroke="midnightblue" points="148.13,-305.25 151.14,-315.4 155.12,-305.59 148.13,-305.25"/>
</g>
<!-- Node4 -->
<g id="node4" class="node">
<title>Node4</title>
<g id="a_node4"><a xlink:href="structad__framework_1_1data__structure_1_1Point.html" target="_top" xlink:title=" ">
<polygon fill="white" stroke="black" points="196,-210.5 196,-267.5 390,-267.5 390,-210.5 196,-210.5"/>
<text text-anchor="middle" x="293" y="-255.5" font-family="Helvetica,sans-Serif" font-size="10.00">ad_framework::data_structure::Point</text>
<polyline fill="none" stroke="black" points="196,-248.5 390,-248.5 "/>
<text text-anchor="middle" x="293" y="-236.5" font-family="Helvetica,sans-Serif" font-size="10.00"> </text>
<polyline fill="none" stroke="black" points="196,-229.5 390,-229.5 "/>
<text text-anchor="middle" x="293" y="-217.5" font-family="Helvetica,sans-Serif" font-size="10.00"> </text>
</a>
</g>
</g>
<!-- Node2&#45;&gt;Node4 -->
<g id="edge4" class="edge">
<title>Node2&#45;&gt;Node4</title>
<path fill="none" stroke="midnightblue" d="M209.96,-308.91C226.99,-294.78 244.85,-279.95 259.64,-267.69"/>
<polygon fill="none" stroke="midnightblue" points="207.67,-306.26 202.21,-315.34 212.14,-311.65 207.67,-306.26"/>
</g>
<!-- Node3 -->
<g id="node3" class="node">
<title>Node3</title>
<g id="a_node3"><a xlink:title=" ">
<polygon fill="white" stroke="#bfbfbf" points="177.5,-105.5 177.5,-162.5 446.5,-162.5 446.5,-105.5 177.5,-105.5"/>
<text text-anchor="middle" x="312" y="-150.5" font-family="Helvetica,sans-Serif" font-size="10.00">std::vector&lt; ad_framework::data_structure::Point &gt;</text>
<polyline fill="none" stroke="#bfbfbf" points="177.5,-143.5 446.5,-143.5 "/>
<text text-anchor="middle" x="312" y="-131.5" font-family="Helvetica,sans-Serif" font-size="10.00"> </text>
<polyline fill="none" stroke="#bfbfbf" points="177.5,-124.5 446.5,-124.5 "/>
<text text-anchor="middle" x="312" y="-112.5" font-family="Helvetica,sans-Serif" font-size="10.00"> </text>
</a>
</g>
</g>
<!-- Node3&#45;&gt;Node1 -->
<g id="edge2" class="edge">
<title>Node3&#45;&gt;Node1</title>
<path fill="none" stroke="#404040" d="M272.61,-105.4C254.73,-92.87 233.39,-77.92 214.45,-64.65"/>
<polygon fill="none" stroke="#404040" points="214.33,-64.56 207.12,-64.4 204.5,-57.68 211.71,-57.85 214.33,-64.56"/>
<text text-anchor="middle" x="264" y="-79" font-family="Helvetica,sans-Serif" font-size="10.00"> +points</text>
</g>
<!-- Node4&#45;&gt;Node3 -->
<g id="edge3" class="edge">
<title>Node4&#45;&gt;Node3</title>
<path fill="none" stroke="#404040" d="M298.09,-210.4C300.11,-199.43 302.48,-186.6 304.68,-174.67"/>
<polygon fill="none" stroke="#404040" points="304.72,-174.48 301.87,-167.85 306.89,-162.68 309.74,-169.3 304.72,-174.48"/>
<text text-anchor="middle" x="333" y="-184" font-family="Helvetica,sans-Serif" font-size="10.00"> +elements</text>
</g>
<!-- Node5 -->
<g id="node5" class="node">
<title>Node5</title>
<g id="a_node5"><a xlink:title=" ">
<polygon fill="white" stroke="#bfbfbf" points="315.5,-332 315.5,-389 374.5,-389 374.5,-332 315.5,-332"/>
<text text-anchor="middle" x="345" y="-377" font-family="Helvetica,sans-Serif" font-size="10.00">Vector3d</text>
<polyline fill="none" stroke="#bfbfbf" points="315.5,-370 374.5,-370 "/>
<text text-anchor="middle" x="345" y="-358" font-family="Helvetica,sans-Serif" font-size="10.00"> </text>
<polyline fill="none" stroke="#bfbfbf" points="315.5,-351 374.5,-351 "/>
<text text-anchor="middle" x="345" y="-339" font-family="Helvetica,sans-Serif" font-size="10.00"> </text>
</a>
</g>
</g>
<!-- Node5&#45;&gt;Node4 -->
<g id="edge5" class="edge">
<title>Node5&#45;&gt;Node4</title>
<path fill="none" stroke="#404040" d="M332.94,-331.78C326.11,-316.1 317.47,-296.23 309.97,-278.99"/>
<polygon fill="none" stroke="#404040" points="309.78,-278.57 303.72,-274.66 305,-267.57 311.06,-271.47 309.78,-278.57"/>
<text text-anchor="middle" x="336.5" y="-289" font-family="Helvetica,sans-Serif" font-size="10.00"> +point</text>
</g>
<!-- Node6 -->
<g id="node6" class="node">
<title>Node6</title>
<g id="a_node6"><a xlink:title=" ">
<polygon fill="white" stroke="#bfbfbf" points="407.5,-210.5 407.5,-267.5 504.5,-267.5 504.5,-210.5 407.5,-210.5"/>
<text text-anchor="middle" x="456" y="-255.5" font-family="Helvetica,sans-Serif" font-size="10.00">std::vector&lt; T &gt;</text>
<polyline fill="none" stroke="#bfbfbf" points="407.5,-248.5 504.5,-248.5 "/>
<text text-anchor="middle" x="456" y="-236.5" font-family="Helvetica,sans-Serif" font-size="10.00"> </text>
<polyline fill="none" stroke="#bfbfbf" points="407.5,-229.5 504.5,-229.5 "/>
<text text-anchor="middle" x="456" y="-217.5" font-family="Helvetica,sans-Serif" font-size="10.00"> </text>
</a>
</g>
</g>
<!-- Node6&#45;&gt;Node3 -->
<g id="edge6" class="edge">
<title>Node6&#45;&gt;Node3</title>
<path fill="none" stroke="orange" d="M409.21,-204.53C390.29,-191 368.71,-175.56 350.7,-162.68"/>
<polygon fill="orange" stroke="orange" points="407.24,-207.43 417.41,-210.4 411.31,-201.73 407.24,-207.43"/>
<text text-anchor="middle" x="490" y="-184" font-family="Helvetica,sans-Serif" font-size="10.00"> &lt; ad_framework::data_structure::Point &gt;</text>
</g>
<!-- Node7 -->
<g id="node7" class="node">
<title>Node7</title>
<g id="a_node7"><a xlink:title=" ">
<polygon fill="white" stroke="#bfbfbf" points="441.5,-332 441.5,-389 470.5,-389 470.5,-332 441.5,-332"/>
<text text-anchor="middle" x="456" y="-377" font-family="Helvetica,sans-Serif" font-size="10.00">T</text>
<polyline fill="none" stroke="#bfbfbf" points="441.5,-370 470.5,-370 "/>
<text text-anchor="middle" x="456" y="-358" font-family="Helvetica,sans-Serif" font-size="10.00"> </text>
<polyline fill="none" stroke="#bfbfbf" points="441.5,-351 470.5,-351 "/>
<text text-anchor="middle" x="456" y="-339" font-family="Helvetica,sans-Serif" font-size="10.00"> </text>
</a>
</g>
</g>
<!-- Node7&#45;&gt;Node6 -->
<g id="edge7" class="edge">
<title>Node7&#45;&gt;Node6</title>
<path fill="none" stroke="#404040" d="M456,-331.78C456,-316.4 456,-296.99 456,-279.99"/>
<polygon fill="none" stroke="#404040" points="456,-279.57 452,-273.57 456,-267.57 460,-273.57 456,-279.57"/>
<text text-anchor="middle" x="485" y="-289" font-family="Helvetica,sans-Serif" font-size="10.00"> +elements</text>
</g>
</g>
</svg>
