<?xml version="1.0" encoding="UTF-8" standalone="no"?>
<!DOCTYPE svg PUBLIC "-//W3C//DTD SVG 1.1//EN"
 "http://www.w3.org/Graphics/SVG/1.1/DTD/svg11.dtd">
<!-- Generated by graphviz version 2.43.0 (0)
 -->
<!-- Title: ad_framework::user_interface::ShapeDrawer::Model&lt; ShapeT, DrawT &gt; Pages: 1 -->
<svg width="516pt" height="193pt"
 viewBox="0.00 0.00 516.00 193.00" xmlns="http://www.w3.org/2000/svg" xmlns:xlink="http://www.w3.org/1999/xlink">
<g id="graph0" class="graph" transform="scale(1 1) rotate(0) translate(4 189)">
<title>ad_framework::user_interface::ShapeDrawer::Model&lt; ShapeT, DrawT &gt;</title>
<polygon fill="white" stroke="transparent" points="-4,4 -4,-189 512,-189 512,4 -4,4"/>
<!-- Node1 -->
<g id="node1" class="node">
<title>Node1</title>
<g id="a_node1"><a xlink:title=" ">
<polygon fill="#bfbfbf" stroke="black" points="142,-0.5 142,-68.5 508,-68.5 508,-0.5 142,-0.5"/>
<text text-anchor="middle" x="325" y="-56.5" font-family="Helvetica,sans-Serif" font-size="10.00">ad_framework::user_interface::ShapeDrawer::Model&lt; ShapeT, DrawT &gt;</text>
<polyline fill="none" stroke="black" points="142,-49.5 508,-49.5 "/>
<text text-anchor="middle" x="325" y="-37.5" font-family="Helvetica,sans-Serif" font-size="10.00"> </text>
<polyline fill="none" stroke="black" points="142,-30.5 508,-30.5 "/>
<text text-anchor="start" x="150" y="-18.5" font-family="Helvetica,sans-Serif" font-size="10.00">+ Model(ShapeT shape, DrawT draw)</text>
<text text-anchor="start" x="150" y="-7.5" font-family="Helvetica,sans-Serif" font-size="10.00">+ void Draw() override</text>
</a>
</g>
</g>
<!-- Node2 -->
<g id="node2" class="node">
<title>Node2</title>
<g id="a_node2"><a xlink:href="structad__framework_1_1user__interface_1_1ShapeDrawer_1_1Concept.html" target="_top" xlink:title=" ">
<polygon fill="white" stroke="black" points="0,-116.5 0,-184.5 280,-184.5 280,-116.5 0,-116.5"/>
<text text-anchor="middle" x="140" y="-172.5" font-family="Helvetica,sans-Serif" font-size="10.00">ad_framework::user_interface::ShapeDrawer::Concept</text>
<polyline fill="none" stroke="black" points="0,-165.5 280,-165.5 "/>
<text text-anchor="middle" x="140" y="-153.5" font-family="Helvetica,sans-Serif" font-size="10.00"> </text>
<polyline fill="none" stroke="black" points="0,-146.5 280,-146.5 "/>
<text text-anchor="start" x="8" y="-134.5" font-family="Helvetica,sans-Serif" font-size="10.00">+ virtual ~Concept()=default</text>
<text text-anchor="start" x="8" y="-123.5" font-family="Helvetica,sans-Serif" font-size="10.00">+ virtual void Draw()=0</text>
</a>
</g>
</g>
<!-- Node2&#45;&gt;Node1 -->
<g id="edge1" class="edge">
<title>Node2&#45;&gt;Node1</title>
<path fill="none" stroke="midnightblue" d="M202.72,-110.85C224.98,-97.14 249.81,-81.84 271.25,-68.62"/>
<polygon fill="none" stroke="midnightblue" points="200.68,-107.99 194.01,-116.22 204.36,-113.95 200.68,-107.99"/>
</g>
<!-- Node3 -->
<g id="node3" class="node">
<title>Node3</title>
<g id="a_node3"><a xlink:title=" ">
<polygon fill="white" stroke="#bfbfbf" points="298.5,-122 298.5,-179 351.5,-179 351.5,-122 298.5,-122"/>
<text text-anchor="middle" x="325" y="-167" font-family="Helvetica,sans-Serif" font-size="10.00">ShapeT</text>
<polyline fill="none" stroke="#bfbfbf" points="298.5,-160 351.5,-160 "/>
<text text-anchor="middle" x="325" y="-148" font-family="Helvetica,sans-Serif" font-size="10.00"> </text>
<polyline fill="none" stroke="#bfbfbf" points="298.5,-141 351.5,-141 "/>
<text text-anchor="middle" x="325" y="-129" font-family="Helvetica,sans-Serif" font-size="10.00"> </text>
</a>
</g>
</g>
<!-- Node3&#45;&gt;Node1 -->
<g id="edge2" class="edge">
<title>Node3&#45;&gt;Node1</title>
<path fill="none" stroke="#404040" d="M325,-121.9C325,-109.59 325,-94.76 325,-80.89"/>
<polygon fill="none" stroke="#404040" points="325,-80.52 321,-74.52 325,-68.52 329,-74.52 325,-80.52"/>
<text text-anchor="middle" x="348" y="-90" font-family="Helvetica,sans-Serif" font-size="10.00"> +shape_</text>
</g>
<!-- Node4 -->
<g id="node4" class="node">
<title>Node4</title>
<g id="a_node4"><a xlink:title=" ">
<polygon fill="white" stroke="#bfbfbf" points="370,-122 370,-179 418,-179 418,-122 370,-122"/>
<text text-anchor="middle" x="394" y="-167" font-family="Helvetica,sans-Serif" font-size="10.00">DrawT</text>
<polyline fill="none" stroke="#bfbfbf" points="370,-160 418,-160 "/>
<text text-anchor="middle" x="394" y="-148" font-family="Helvetica,sans-Serif" font-size="10.00"> </text>
<polyline fill="none" stroke="#bfbfbf" points="370,-141 418,-141 "/>
<text text-anchor="middle" x="394" y="-129" font-family="Helvetica,sans-Serif" font-size="10.00"> </text>
</a>
</g>
</g>
<!-- Node4&#45;&gt;Node1 -->
<g id="edge3" class="edge">
<title>Node4&#45;&gt;Node1</title>
<path fill="none" stroke="#404040" d="M386.94,-121.99C383.38,-110.69 378.44,-97.76 372,-87 370.22,-84.03 368.26,-81.08 366.17,-78.18"/>
<polygon fill="none" stroke="#404040" points="366.06,-78.05 359.21,-75.78 358.67,-68.59 365.51,-70.86 366.06,-78.05"/>
<text text-anchor="middle" x="397.5" y="-90" font-family="Helvetica,sans-Serif" font-size="10.00"> +draw_</text>
</g>
</g>
</svg>
