<?xml version="1.0" encoding="UTF-8" standalone="no"?>
<!DOCTYPE svg PUBLIC "-//W3C//DTD SVG 1.1//EN"
 "http://www.w3.org/Graphics/SVG/1.1/DTD/svg11.dtd">
<!-- Generated by graphviz version 2.43.0 (0)
 -->
<!-- Title: ad_framework::user_interface::ShapeDrawer::Concept Pages: 1 -->
<svg width="374pt" height="193pt"
 viewBox="0.00 0.00 374.00 193.00" xmlns="http://www.w3.org/2000/svg" xmlns:xlink="http://www.w3.org/1999/xlink">
<g id="graph0" class="graph" transform="scale(1 1) rotate(0) translate(4 189)">
<title>ad_framework::user_interface::ShapeDrawer::Concept</title>
<polygon fill="white" stroke="transparent" points="-4,4 -4,-189 370,-189 370,4 -4,4"/>
<!-- Node1 -->
<g id="node1" class="node">
<title>Node1</title>
<g id="a_node1"><a xlink:title=" ">
<polygon fill="#bfbfbf" stroke="black" points="43,-116.5 43,-184.5 323,-184.5 323,-116.5 43,-116.5"/>
<text text-anchor="middle" x="183" y="-172.5" font-family="Helvetica,sans-Serif" font-size="10.00">ad_framework::user_interface::ShapeDrawer::Concept</text>
<polyline fill="none" stroke="black" points="43,-165.5 323,-165.5 "/>
<text text-anchor="middle" x="183" y="-153.5" font-family="Helvetica,sans-Serif" font-size="10.00"> </text>
<polyline fill="none" stroke="black" points="43,-146.5 323,-146.5 "/>
<text text-anchor="start" x="51" y="-134.5" font-family="Helvetica,sans-Serif" font-size="10.00">+ virtual ~Concept()=default</text>
<text text-anchor="start" x="51" y="-123.5" font-family="Helvetica,sans-Serif" font-size="10.00">+ virtual void Draw()=0</text>
</a>
</g>
</g>
<!-- Node2 -->
<g id="node2" class="node">
<title>Node2</title>
<g id="a_node2"><a xlink:href="structad__framework_1_1user__interface_1_1ShapeDrawer_1_1Model.html" target="_top" xlink:title=" ">
<polygon fill="white" stroke="black" points="0,-0.5 0,-79.5 366,-79.5 366,-0.5 0,-0.5"/>
<text text-anchor="middle" x="183" y="-67.5" font-family="Helvetica,sans-Serif" font-size="10.00">ad_framework::user_interface::ShapeDrawer::Model&lt; ShapeT, DrawT &gt;</text>
<polyline fill="none" stroke="black" points="0,-60.5 366,-60.5 "/>
<text text-anchor="start" x="8" y="-48.5" font-family="Helvetica,sans-Serif" font-size="10.00">+ ShapeT shape_</text>
<text text-anchor="start" x="8" y="-37.5" font-family="Helvetica,sans-Serif" font-size="10.00">+ DrawT draw_</text>
<polyline fill="none" stroke="black" points="0,-30.5 366,-30.5 "/>
<text text-anchor="start" x="8" y="-18.5" font-family="Helvetica,sans-Serif" font-size="10.00">+ Model(ShapeT shape, DrawT draw)</text>
<text text-anchor="start" x="8" y="-7.5" font-family="Helvetica,sans-Serif" font-size="10.00">+ void Draw() override</text>
</a>
</g>
</g>
<!-- Node1&#45;&gt;Node2 -->
<g id="edge1" class="edge">
<title>Node1&#45;&gt;Node2</title>
<path fill="none" stroke="midnightblue" d="M183,-106.27C183,-97.48 183,-88.28 183,-79.65"/>
<polygon fill="none" stroke="midnightblue" points="179.5,-106.36 183,-116.36 186.5,-106.36 179.5,-106.36"/>
</g>
</g>
</svg>
