<?xml version="1.0" encoding="UTF-8" standalone="no"?>
<!DOCTYPE svg PUBLIC "-//W3C//DTD SVG 1.1//EN"
 "http://www.w3.org/Graphics/SVG/1.1/DTD/svg11.dtd">
<!-- Generated by graphviz version 2.43.0 (0)
 -->
<!-- Title: ad_framework::data_structure::Line Pages: 1 -->
<svg width="383pt" height="320pt"
 viewBox="0.00 0.00 382.50 320.00" xmlns="http://www.w3.org/2000/svg" xmlns:xlink="http://www.w3.org/1999/xlink">
<g id="graph0" class="graph" transform="scale(1 1) rotate(0) translate(4 316)">
<title>ad_framework::data_structure::Line</title>
<polygon fill="white" stroke="transparent" points="-4,4 -4,-316 378.5,-316 378.5,4 -4,4"/>
<!-- Node1 -->
<g id="node1" class="node">
<title>Node1</title>
<g id="a_node1"><a xlink:title=" ">
<polygon fill="#bfbfbf" stroke="black" points="70,-0.5 70,-57.5 260,-57.5 260,-0.5 70,-0.5"/>
<text text-anchor="middle" x="165" y="-45.5" font-family="Helvetica,sans-Serif" font-size="10.00">ad_framework::data_structure::Line</text>
<polyline fill="none" stroke="black" points="70,-38.5 260,-38.5 "/>
<text text-anchor="middle" x="165" y="-26.5" font-family="Helvetica,sans-Serif" font-size="10.00"> </text>
<polyline fill="none" stroke="black" points="70,-19.5 260,-19.5 "/>
<text text-anchor="middle" x="165" y="-7.5" font-family="Helvetica,sans-Serif" font-size="10.00"> </text>
</a>
</g>
</g>
<!-- Node2 -->
<g id="node2" class="node">
<title>Node2</title>
<g id="a_node2"><a xlink:href="classad__framework_1_1data__structure_1_1Shape.html" target="_top" xlink:title=" ">
<polygon fill="white" stroke="black" points="0,-221.5 0,-311.5 298,-311.5 298,-221.5 0,-221.5"/>
<text text-anchor="middle" x="149" y="-299.5" font-family="Helvetica,sans-Serif" font-size="10.00">ad_framework::data_structure::Shape</text>
<polyline fill="none" stroke="black" points="0,-292.5 298,-292.5 "/>
<text text-anchor="middle" x="149" y="-280.5" font-family="Helvetica,sans-Serif" font-size="10.00"> </text>
<polyline fill="none" stroke="black" points="0,-273.5 298,-273.5 "/>
<text text-anchor="start" x="8" y="-261.5" font-family="Helvetica,sans-Serif" font-size="10.00">+ virtual ~Shape()=default</text>
<text text-anchor="start" x="8" y="-250.5" font-family="Helvetica,sans-Serif" font-size="10.00">+ virtual bool IsIn(const Eigen::Vector3d &amp;point) const =0</text>
<text text-anchor="start" x="8" y="-239.5" font-family="Helvetica,sans-Serif" font-size="10.00">+ virtual std::string ToString() const =0</text>
<text text-anchor="start" x="8" y="-228.5" font-family="Helvetica,sans-Serif" font-size="10.00">+ virtual ~Shape()=default</text>
</a>
</g>
</g>
<!-- Node2&#45;&gt;Node1 -->
<g id="edge1" class="edge">
<title>Node2&#45;&gt;Node1</title>
<path fill="none" stroke="midnightblue" d="M152.69,-211.26C155.95,-163.27 160.57,-95.18 163.12,-57.6"/>
<polygon fill="none" stroke="midnightblue" points="149.18,-211.27 151.99,-221.48 156.16,-211.74 149.18,-211.27"/>
</g>
<!-- Node3 -->
<g id="node3" class="node">
<title>Node3</title>
<g id="a_node3"><a xlink:href="structad__framework_1_1data__structure_1_1Point.html" target="_top" xlink:title=" ">
<polygon fill="white" stroke="black" points="177,-116.5 177,-173.5 371,-173.5 371,-116.5 177,-116.5"/>
<text text-anchor="middle" x="274" y="-161.5" font-family="Helvetica,sans-Serif" font-size="10.00">ad_framework::data_structure::Point</text>
<polyline fill="none" stroke="black" points="177,-154.5 371,-154.5 "/>
<text text-anchor="middle" x="274" y="-142.5" font-family="Helvetica,sans-Serif" font-size="10.00"> </text>
<polyline fill="none" stroke="black" points="177,-135.5 371,-135.5 "/>
<text text-anchor="middle" x="274" y="-123.5" font-family="Helvetica,sans-Serif" font-size="10.00"> </text>
</a>
</g>
</g>
<!-- Node2&#45;&gt;Node3 -->
<g id="edge3" class="edge">
<title>Node2&#45;&gt;Node3</title>
<path fill="none" stroke="midnightblue" d="M202.72,-214.15C217.25,-200.25 232.44,-185.73 245.04,-173.69"/>
<polygon fill="none" stroke="midnightblue" points="200,-211.9 195.19,-221.34 204.84,-216.96 200,-211.9"/>
</g>
<!-- Node3&#45;&gt;Node1 -->
<g id="edge2" class="edge">
<title>Node3&#45;&gt;Node1</title>
<path fill="none" stroke="#404040" d="M247.61,-116.4C233.26,-101.39 215.32,-82.63 199.84,-66.43"/>
<polygon fill="none" stroke="#404040" points="199.81,-66.41 192.78,-64.84 191.52,-57.74 198.56,-59.31 199.81,-66.41"/>
<text text-anchor="middle" x="260.5" y="-90" font-family="Helvetica,sans-Serif" font-size="10.00"> +end_point</text>
<text text-anchor="middle" x="260.5" y="-79" font-family="Helvetica,sans-Serif" font-size="10.00">+start_point</text>
</g>
<!-- Node4 -->
<g id="node4" class="node">
<title>Node4</title>
<g id="a_node4"><a xlink:title=" ">
<polygon fill="white" stroke="#bfbfbf" points="315.5,-238 315.5,-295 374.5,-295 374.5,-238 315.5,-238"/>
<text text-anchor="middle" x="345" y="-283" font-family="Helvetica,sans-Serif" font-size="10.00">Vector3d</text>
<polyline fill="none" stroke="#bfbfbf" points="315.5,-276 374.5,-276 "/>
<text text-anchor="middle" x="345" y="-264" font-family="Helvetica,sans-Serif" font-size="10.00"> </text>
<polyline fill="none" stroke="#bfbfbf" points="315.5,-257 374.5,-257 "/>
<text text-anchor="middle" x="345" y="-245" font-family="Helvetica,sans-Serif" font-size="10.00"> </text>
</a>
</g>
</g>
<!-- Node4&#45;&gt;Node3 -->
<g id="edge4" class="edge">
<title>Node4&#45;&gt;Node3</title>
<path fill="none" stroke="#404040" d="M328.53,-237.78C319.03,-221.8 306.95,-201.46 296.58,-184"/>
<polygon fill="none" stroke="#404040" points="296.51,-183.88 290,-180.77 290.38,-173.57 296.88,-176.68 296.51,-183.88"/>
<text text-anchor="middle" x="326.5" y="-195" font-family="Helvetica,sans-Serif" font-size="10.00"> +point</text>
</g>
</g>
</svg>
