<?xml version="1.0" encoding="UTF-8" standalone="no"?>
<!DOCTYPE svg PUBLIC "-//W3C//DTD SVG 1.1//EN"
 "http://www.w3.org/Graphics/SVG/1.1/DTD/svg11.dtd">
<!-- Generated by graphviz version 2.43.0 (0)
 -->
<!-- Title: ad_framework::callback::Callback Pages: 1 -->
<svg width="833pt" height="171pt"
 viewBox="0.00 0.00 833.00 171.00" xmlns="http://www.w3.org/2000/svg" xmlns:xlink="http://www.w3.org/1999/xlink">
<g id="graph0" class="graph" transform="scale(1 1) rotate(0) translate(4 167)">
<title>ad_framework::callback::Callback</title>
<polygon fill="white" stroke="transparent" points="-4,4 -4,-167 829,-167 829,4 -4,4"/>
<!-- Node1 -->
<g id="node1" class="node">
<title>Node1</title>
<g id="a_node1"><a xlink:title=" ">
<polygon fill="#bfbfbf" stroke="black" points="278.5,-94.5 278.5,-162.5 546.5,-162.5 546.5,-94.5 278.5,-94.5"/>
<text text-anchor="middle" x="412.5" y="-150.5" font-family="Helvetica,sans-Serif" font-size="10.00">ad_framework::callback::Callback</text>
<polyline fill="none" stroke="black" points="278.5,-143.5 546.5,-143.5 "/>
<text text-anchor="middle" x="412.5" y="-131.5" font-family="Helvetica,sans-Serif" font-size="10.00"> </text>
<polyline fill="none" stroke="black" points="278.5,-124.5 546.5,-124.5 "/>
<text text-anchor="start" x="286.5" y="-112.5" font-family="Helvetica,sans-Serif" font-size="10.00">+ virtual ~Callback()=default</text>
<text text-anchor="start" x="286.5" y="-101.5" font-family="Helvetica,sans-Serif" font-size="10.00">+ virtual std::any operator()(const std::any &amp;src)=0</text>
</a>
</g>
</g>
<!-- Node2 -->
<g id="node2" class="node">
<title>Node2</title>
<g id="a_node2"><a xlink:href="classButtonCallback.html" target="_top" xlink:title=" ">
<polygon fill="white" stroke="black" points="0,-0.5 0,-57.5 263,-57.5 263,-0.5 0,-0.5"/>
<text text-anchor="middle" x="131.5" y="-45.5" font-family="Helvetica,sans-Serif" font-size="10.00">ButtonCallback</text>
<polyline fill="none" stroke="black" points="0,-38.5 263,-38.5 "/>
<text text-anchor="middle" x="131.5" y="-26.5" font-family="Helvetica,sans-Serif" font-size="10.00"> </text>
<polyline fill="none" stroke="black" points="0,-19.5 263,-19.5 "/>
<text text-anchor="start" x="8" y="-7.5" font-family="Helvetica,sans-Serif" font-size="10.00">+ std::any operator()(const std::any &amp;src) override</text>
</a>
</g>
</g>
<!-- Node1&#45;&gt;Node2 -->
<g id="edge1" class="edge">
<title>Node1&#45;&gt;Node2</title>
<path fill="none" stroke="midnightblue" d="M307.55,-91.08C275.62,-80.01 241.06,-68.02 211.1,-57.62"/>
<polygon fill="none" stroke="midnightblue" points="306.77,-94.52 317.37,-94.49 309.07,-87.91 306.77,-94.52"/>
</g>
<!-- Node3 -->
<g id="node3" class="node">
<title>Node3</title>
<g id="a_node3"><a xlink:href="classSampleCallback.html" target="_top" xlink:title=" ">
<polygon fill="white" stroke="black" points="281,-0.5 281,-57.5 544,-57.5 544,-0.5 281,-0.5"/>
<text text-anchor="middle" x="412.5" y="-45.5" font-family="Helvetica,sans-Serif" font-size="10.00">SampleCallback</text>
<polyline fill="none" stroke="black" points="281,-38.5 544,-38.5 "/>
<text text-anchor="middle" x="412.5" y="-26.5" font-family="Helvetica,sans-Serif" font-size="10.00"> </text>
<polyline fill="none" stroke="black" points="281,-19.5 544,-19.5 "/>
<text text-anchor="start" x="289" y="-7.5" font-family="Helvetica,sans-Serif" font-size="10.00">+ std::any operator()(const std::any &amp;src) override</text>
</a>
</g>
</g>
<!-- Node1&#45;&gt;Node3 -->
<g id="edge2" class="edge">
<title>Node1&#45;&gt;Node3</title>
<path fill="none" stroke="midnightblue" d="M412.5,-84.45C412.5,-75.4 412.5,-66.09 412.5,-57.78"/>
<polygon fill="none" stroke="midnightblue" points="409,-84.49 412.5,-94.49 416,-84.49 409,-84.49"/>
</g>
<!-- Node4 -->
<g id="node4" class="node">
<title>Node4</title>
<g id="a_node4"><a xlink:href="classad__framework_1_1ui_1_1NullCallback.html" target="_top" xlink:title=" ">
<polygon fill="white" stroke="black" points="562,-0.5 562,-57.5 825,-57.5 825,-0.5 562,-0.5"/>
<text text-anchor="middle" x="693.5" y="-45.5" font-family="Helvetica,sans-Serif" font-size="10.00">ad_framework::ui::NullCallback</text>
<polyline fill="none" stroke="black" points="562,-38.5 825,-38.5 "/>
<text text-anchor="middle" x="693.5" y="-26.5" font-family="Helvetica,sans-Serif" font-size="10.00"> </text>
<polyline fill="none" stroke="black" points="562,-19.5 825,-19.5 "/>
<text text-anchor="start" x="570" y="-7.5" font-family="Helvetica,sans-Serif" font-size="10.00">+ std::any operator()(const std::any &amp;src) override</text>
</a>
</g>
</g>
<!-- Node1&#45;&gt;Node4 -->
<g id="edge3" class="edge">
<title>Node1&#45;&gt;Node4</title>
<path fill="none" stroke="midnightblue" d="M517.45,-91.08C549.38,-80.01 583.94,-68.02 613.9,-57.62"/>
<polygon fill="none" stroke="midnightblue" points="515.93,-87.91 507.63,-94.49 518.23,-94.52 515.93,-87.91"/>
</g>
</g>
</svg>
