<?xml version="1.0" encoding="UTF-8" standalone="no"?>
<!DOCTYPE svg PUBLIC "-//W3C//DTD SVG 1.1//EN"
 "http://www.w3.org/Graphics/SVG/1.1/DTD/svg11.dtd">
<!-- Generated by graphviz version 2.43.0 (0)
 -->
<!-- Title: ad_framework::data_structure::Line Pages: 1 -->
<svg width="306pt" height="204pt"
 viewBox="0.00 0.00 306.00 204.00" xmlns="http://www.w3.org/2000/svg" xmlns:xlink="http://www.w3.org/1999/xlink">
<g id="graph0" class="graph" transform="scale(1 1) rotate(0) translate(4 200)">
<title>ad_framework::data_structure::Line</title>
<polygon fill="white" stroke="transparent" points="-4,4 -4,-200 302,-200 302,4 -4,4"/>
<!-- Node1 -->
<g id="node1" class="node">
<title>Node1</title>
<g id="a_node1"><a xlink:title=" ">
<polygon fill="#bfbfbf" stroke="black" points="54,-0.5 54,-68.5 244,-68.5 244,-0.5 54,-0.5"/>
<text text-anchor="middle" x="149" y="-56.5" font-family="Helvetica,sans-Serif" font-size="10.00">ad_framework::data_structure::Line</text>
<polyline fill="none" stroke="black" points="54,-49.5 244,-49.5 "/>
<text text-anchor="start" x="62" y="-37.5" font-family="Helvetica,sans-Serif" font-size="10.00">+ Point start_point</text>
<text text-anchor="start" x="62" y="-26.5" font-family="Helvetica,sans-Serif" font-size="10.00">+ Point end_point</text>
<polyline fill="none" stroke="black" points="54,-19.5 244,-19.5 "/>
<text text-anchor="middle" x="149" y="-7.5" font-family="Helvetica,sans-Serif" font-size="10.00"> </text>
</a>
</g>
</g>
<!-- Node2 -->
<g id="node2" class="node">
<title>Node2</title>
<g id="a_node2"><a xlink:href="classad__framework_1_1data__structure_1_1Shape.html" target="_top" xlink:title=" ">
<polygon fill="white" stroke="black" points="0,-105.5 0,-195.5 298,-195.5 298,-105.5 0,-105.5"/>
<text text-anchor="middle" x="149" y="-183.5" font-family="Helvetica,sans-Serif" font-size="10.00">ad_framework::data_structure::Shape</text>
<polyline fill="none" stroke="black" points="0,-176.5 298,-176.5 "/>
<text text-anchor="middle" x="149" y="-164.5" font-family="Helvetica,sans-Serif" font-size="10.00"> </text>
<polyline fill="none" stroke="black" points="0,-157.5 298,-157.5 "/>
<text text-anchor="start" x="8" y="-145.5" font-family="Helvetica,sans-Serif" font-size="10.00">+ virtual ~Shape()=default</text>
<text text-anchor="start" x="8" y="-134.5" font-family="Helvetica,sans-Serif" font-size="10.00">+ virtual bool IsIn(const Eigen::Vector3d &amp;point) const =0</text>
<text text-anchor="start" x="8" y="-123.5" font-family="Helvetica,sans-Serif" font-size="10.00">+ virtual std::string ToString() const =0</text>
<text text-anchor="start" x="8" y="-112.5" font-family="Helvetica,sans-Serif" font-size="10.00">+ virtual ~Shape()=default</text>
</a>
</g>
</g>
<!-- Node2&#45;&gt;Node1 -->
<g id="edge1" class="edge">
<title>Node2&#45;&gt;Node1</title>
<path fill="none" stroke="midnightblue" d="M149,-95.32C149,-86.28 149,-77.16 149,-68.85"/>
<polygon fill="none" stroke="midnightblue" points="145.5,-95.42 149,-105.42 152.5,-95.42 145.5,-95.42"/>
</g>
</g>
</svg>
