<?xml version="1.0" encoding="UTF-8" standalone="no"?>
<!DOCTYPE svg PUBLIC "-//W3C//DTD SVG 1.1//EN"
 "http://www.w3.org/Graphics/SVG/1.1/DTD/svg11.dtd">
<!-- Generated by graphviz version 2.43.0 (0)
 -->
<!-- Title: ad_framework::callback::Callback Pages: 1 -->
<!--zoomable 204 -->
<svg id="main" version="1.1" xmlns="http://www.w3.org/2000/svg" xmlns:xlink="http://www.w3.org/1999/xlink" xml:space="preserve" onload="init(evt)">
<style type="text/css"><![CDATA[
.edge:hover path { stroke: red; }
.edge:hover polygon { stroke: red; fill: red; }
]]></style>
<script type="text/javascript"><![CDATA[
var edges = document.getElementsByTagName('g');
if (edges && edges.length) {
  for (var i=0;i<edges.length;i++) {
    if (edges[i].id.substr(0,4)=='edge') {
      edges[i].setAttribute('class','edge');
    }
  }
}
]]></script>
        <defs>
                <circle id="rim" cx="0" cy="0" r="7"/>
                <circle id="rim2" cx="0" cy="0" r="3.5"/>
                <g id="zoomPlus">
                        <use xlink:href="#rim" fill="#404040">
                                <set attributeName="fill" to="#808080" begin="zoomplus.mouseover" end="zoomplus.mouseout"/>
                        </use>
                        <path d="M-4,0h8M0,-4v8" fill="none" stroke="white" stroke-width="1.5" pointer-events="none"/>
                </g>
                <g id="zoomMin">
                        <use xlink:href="#rim" fill="#404040">
                                <set attributeName="fill" to="#808080" begin="zoomminus.mouseover" end="zoomminus.mouseout"/>
                        </use>
                        <path d="M-4,0h8" fill="none" stroke="white" stroke-width="1.5" pointer-events="none"/>
                </g>
                <g id="dirArrow">
                        <path fill="none" stroke="white" stroke-width="1.5" d="M0,-3.0v7 M-2.5,-0.5L0,-3.0L2.5,-0.5"/>
                </g>
               <g id="resetDef">
                       <use xlink:href="#rim2" fill="#404040">
                               <set attributeName="fill" to="#808080" begin="reset.mouseover" end="reset.mouseout"/>
                       </use>
               </g>
        </defs>

<script type="text/javascript">
var viewWidth = 2017;
var viewHeight = 204;
var sectionId = 'dynsection-0';
</script>
<script xlink:href="svgpan.js"/>
<svg id="graph" class="graph">
<g id="viewport">
<title>ad_framework::callback::Callback</title>
<polygon fill="white" stroke="transparent" points="-4,4 -4,-200 2012.5,-200 2012.5,4 -4,4"/>
<!-- Node1 -->
<g id="node1" class="node">
<title>Node1</title>
<g id="a_node1"><a xlink:title=" ">
<polygon fill="#bfbfbf" stroke="black" points="845.5,-127.5 845.5,-195.5 1113.5,-195.5 1113.5,-127.5 845.5,-127.5"/>
<text text-anchor="middle" x="979.5" y="-183.5" font-family="Helvetica,sans-Serif" font-size="10.00">ad_framework::callback::Callback</text>
<polyline fill="none" stroke="black" points="845.5,-176.5 1113.5,-176.5 "/>
<text text-anchor="middle" x="979.5" y="-164.5" font-family="Helvetica,sans-Serif" font-size="10.00"> </text>
<polyline fill="none" stroke="black" points="845.5,-157.5 1113.5,-157.5 "/>
<text text-anchor="start" x="853.5" y="-145.5" font-family="Helvetica,sans-Serif" font-size="10.00">+ virtual ~Callback()=default</text>
<text text-anchor="start" x="853.5" y="-134.5" font-family="Helvetica,sans-Serif" font-size="10.00">+ virtual std::any operator()(const std::any &amp;src)=0</text>
</a>
</g>
</g>
<!-- Node2 -->
<g id="node2" class="node">
<title>Node2</title>
<g id="a_node2"><a xlink:href="classSampleCallback.html" target="_top" xlink:title=" ">
<polygon fill="white" stroke="black" points="0,-17 0,-74 263,-74 263,-17 0,-17"/>
<text text-anchor="middle" x="131.5" y="-62" font-family="Helvetica,sans-Serif" font-size="10.00">SampleCallback</text>
<polyline fill="none" stroke="black" points="0,-55 263,-55 "/>
<text text-anchor="middle" x="131.5" y="-43" font-family="Helvetica,sans-Serif" font-size="10.00"> </text>
<polyline fill="none" stroke="black" points="0,-36 263,-36 "/>
<text text-anchor="start" x="8" y="-24" font-family="Helvetica,sans-Serif" font-size="10.00">+ std::any operator()(const std::any &amp;src) override</text>
</a>
</g>
</g>
<!-- Node1&#45;&gt;Node2 -->
<g id="edge1" class="edge">
<title>Node1&#45;&gt;Node2</title>
<path fill="none" stroke="midnightblue" d="M835.25,-155.21C691.24,-147.85 464.22,-130.63 271.5,-91 250.64,-86.71 228.49,-80.49 208.12,-74.04"/>
<polygon fill="none" stroke="midnightblue" points="835.32,-158.71 845.48,-155.72 835.67,-151.72 835.32,-158.71"/>
</g>
<!-- Node3 -->
<g id="node3" class="node">
<title>Node3</title>
<g id="a_node3"><a xlink:href="classad__framework_1_1callback_1_1NullCallback.html" target="_top" xlink:title=" ">
<polygon fill="white" stroke="black" points="281,-17 281,-74 544,-74 544,-17 281,-17"/>
<text text-anchor="middle" x="412.5" y="-62" font-family="Helvetica,sans-Serif" font-size="10.00">ad_framework::callback::NullCallback</text>
<polyline fill="none" stroke="black" points="281,-55 544,-55 "/>
<text text-anchor="middle" x="412.5" y="-43" font-family="Helvetica,sans-Serif" font-size="10.00"> </text>
<polyline fill="none" stroke="black" points="281,-36 544,-36 "/>
<text text-anchor="start" x="289" y="-24" font-family="Helvetica,sans-Serif" font-size="10.00">+ std::any operator()(const std::any &amp;src) override</text>
</a>
</g>
</g>
<!-- Node1&#45;&gt;Node3 -->
<g id="edge2" class="edge">
<title>Node1&#45;&gt;Node3</title>
<path fill="none" stroke="midnightblue" d="M835.28,-142.39C752.03,-130.6 645.69,-113.27 552.5,-91 532.78,-86.29 511.81,-80.21 492.26,-74.07"/>
<polygon fill="none" stroke="midnightblue" points="834.92,-145.87 845.31,-143.8 835.9,-138.94 834.92,-145.87"/>
</g>
<!-- Node4 -->
<g id="node4" class="node">
<title>Node4</title>
<g id="a_node4"><a xlink:href="classad__framework_1_1ui_1_1Button_1_1ButtonChanger.html" target="_top" xlink:title=" ">
<polygon fill="white" stroke="black" points="562,-11.5 562,-79.5 825,-79.5 825,-11.5 562,-11.5"/>
<text text-anchor="middle" x="693.5" y="-67.5" font-family="Helvetica,sans-Serif" font-size="10.00">ad_framework::ui::Button::ButtonChanger</text>
<polyline fill="none" stroke="black" points="562,-60.5 825,-60.5 "/>
<text text-anchor="middle" x="693.5" y="-48.5" font-family="Helvetica,sans-Serif" font-size="10.00"> </text>
<polyline fill="none" stroke="black" points="562,-41.5 825,-41.5 "/>
<text text-anchor="start" x="570" y="-29.5" font-family="Helvetica,sans-Serif" font-size="10.00">+ ButtonChanger()=default</text>
<text text-anchor="start" x="570" y="-18.5" font-family="Helvetica,sans-Serif" font-size="10.00">+ std::any operator()(const std::any &amp;src) override</text>
</a>
</g>
</g>
<!-- Node1&#45;&gt;Node4 -->
<g id="edge3" class="edge">
<title>Node1&#45;&gt;Node4</title>
<path fill="none" stroke="midnightblue" d="M886.97,-123.62C851.36,-109.42 810.96,-93.32 776.32,-79.51"/>
<polygon fill="none" stroke="midnightblue" points="885.81,-126.92 896.39,-127.37 888.4,-120.42 885.81,-126.92"/>
</g>
<!-- Node5 -->
<g id="node5" class="node">
<title>Node5</title>
<g id="a_node5"><a xlink:href="classad__framework_1_1ui_1_1ImageViewer_1_1ImageSender.html" target="_top" xlink:title=" ">
<polygon fill="white" stroke="black" points="843,-0.5 843,-90.5 1116,-90.5 1116,-0.5 843,-0.5"/>
<text text-anchor="middle" x="979.5" y="-78.5" font-family="Helvetica,sans-Serif" font-size="10.00">ad_framework::ui::ImageViewer::ImageSender</text>
<polyline fill="none" stroke="black" points="843,-71.5 1116,-71.5 "/>
<text text-anchor="start" x="851" y="-59.5" font-family="Helvetica,sans-Serif" font-size="10.00">&#45; std::string image_path_</text>
<text text-anchor="start" x="851" y="-48.5" font-family="Helvetica,sans-Serif" font-size="10.00">&#45; bool is_gray_</text>
<polyline fill="none" stroke="black" points="843,-41.5 1116,-41.5 "/>
<text text-anchor="start" x="851" y="-29.5" font-family="Helvetica,sans-Serif" font-size="10.00">+ ImageSender(bool is_gray=true)</text>
<text text-anchor="start" x="851" y="-18.5" font-family="Helvetica,sans-Serif" font-size="10.00">+ std::any operator()(const std::any &amp;src) override</text>
<text text-anchor="start" x="851" y="-7.5" font-family="Helvetica,sans-Serif" font-size="10.00">+ void SetImagePath(const std::string &amp;image_path)</text>
</a>
</g>
</g>
<!-- Node1&#45;&gt;Node5 -->
<g id="edge4" class="edge">
<title>Node1&#45;&gt;Node5</title>
<path fill="none" stroke="midnightblue" d="M979.5,-116.97C979.5,-108.35 979.5,-99.28 979.5,-90.64"/>
<polygon fill="none" stroke="midnightblue" points="976,-117.22 979.5,-127.22 983,-117.22 976,-117.22"/>
</g>
<!-- Node6 -->
<g id="node6" class="node">
<title>Node6</title>
<g id="a_node6"><a xlink:href="classad__framework_1_1ui_1_1Selector_1_1ItemListSender.html" target="_top" xlink:title=" ">
<polygon fill="white" stroke="black" points="1134,-6 1134,-85 1427,-85 1427,-6 1134,-6"/>
<text text-anchor="middle" x="1280.5" y="-73" font-family="Helvetica,sans-Serif" font-size="10.00">ad_framework::ui::Selector::ItemListSender</text>
<polyline fill="none" stroke="black" points="1134,-66 1427,-66 "/>
<text text-anchor="start" x="1142" y="-54" font-family="Helvetica,sans-Serif" font-size="10.00">&#45; std::vector&lt; const char * &gt; items_</text>
<polyline fill="none" stroke="black" points="1134,-47 1427,-47 "/>
<text text-anchor="start" x="1142" y="-35" font-family="Helvetica,sans-Serif" font-size="10.00">+ ItemListSender()=default</text>
<text text-anchor="start" x="1142" y="-24" font-family="Helvetica,sans-Serif" font-size="10.00">+ std::any operator()(const std::any &amp;src) override</text>
<text text-anchor="start" x="1142" y="-13" font-family="Helvetica,sans-Serif" font-size="10.00">+ void SetItems(const std::vector&lt; std::string &gt; &amp;items)</text>
</a>
</g>
</g>
<!-- Node1&#45;&gt;Node6 -->
<g id="edge5" class="edge">
<title>Node1&#45;&gt;Node6</title>
<path fill="none" stroke="midnightblue" d="M1076.52,-123.75C1109.19,-111.38 1145.72,-97.55 1178.74,-85.04"/>
<polygon fill="none" stroke="midnightblue" points="1075.08,-120.56 1066.97,-127.37 1077.56,-127.1 1075.08,-120.56"/>
</g>
<!-- Node7 -->
<g id="node7" class="node">
<title>Node7</title>
<g id="a_node7"><a xlink:href="classad__framework_1_1ui_1_1Selector_1_1ItemReciever.html" target="_top" xlink:title=" ">
<polygon fill="white" stroke="black" points="1445,-6 1445,-85 1708,-85 1708,-6 1445,-6"/>
<text text-anchor="middle" x="1576.5" y="-73" font-family="Helvetica,sans-Serif" font-size="10.00">ad_framework::ui::Selector::ItemReciever</text>
<polyline fill="none" stroke="black" points="1445,-66 1708,-66 "/>
<text text-anchor="start" x="1453" y="-54" font-family="Helvetica,sans-Serif" font-size="10.00">&#45; std::string item_</text>
<polyline fill="none" stroke="black" points="1445,-47 1708,-47 "/>
<text text-anchor="start" x="1453" y="-35" font-family="Helvetica,sans-Serif" font-size="10.00">+ ItemReciever()=default</text>
<text text-anchor="start" x="1453" y="-24" font-family="Helvetica,sans-Serif" font-size="10.00">+ std::any operator()(const std::any &amp;src) override</text>
<text text-anchor="start" x="1453" y="-13" font-family="Helvetica,sans-Serif" font-size="10.00">+ std::string GetItem()</text>
</a>
</g>
</g>
<!-- Node1&#45;&gt;Node7 -->
<g id="edge6" class="edge">
<title>Node1&#45;&gt;Node7</title>
<path fill="none" stroke="midnightblue" d="M1123.59,-144.47C1214.11,-132.95 1332.92,-115.18 1436.5,-91 1444.2,-89.2 1452.09,-87.19 1460,-85.04"/>
<polygon fill="none" stroke="midnightblue" points="1123.02,-141.01 1113.53,-145.74 1123.89,-147.96 1123.02,-141.01"/>
</g>
<!-- Node8 -->
<g id="node8" class="node">
<title>Node8</title>
<g id="a_node8"><a xlink:href="classad__framework_1_1ui_1_1TopViewer_1_1FrameSender.html" target="_top" xlink:title=" ">
<polygon fill="white" stroke="black" points="1726.5,-0.5 1726.5,-90.5 2008.5,-90.5 2008.5,-0.5 1726.5,-0.5"/>
<text text-anchor="middle" x="1867.5" y="-78.5" font-family="Helvetica,sans-Serif" font-size="10.00">ad_framework::ui::TopViewer::FrameSender</text>
<polyline fill="none" stroke="black" points="1726.5,-71.5 2008.5,-71.5 "/>
<text text-anchor="start" x="1734.5" y="-59.5" font-family="Helvetica,sans-Serif" font-size="10.00">&#45; data_structure::Frame frame_</text>
<text text-anchor="start" x="1734.5" y="-48.5" font-family="Helvetica,sans-Serif" font-size="10.00">&#45; std::string title_</text>
<polyline fill="none" stroke="black" points="1726.5,-41.5 2008.5,-41.5 "/>
<text text-anchor="start" x="1734.5" y="-29.5" font-family="Helvetica,sans-Serif" font-size="10.00">+ FrameSender()=default</text>
<text text-anchor="start" x="1734.5" y="-18.5" font-family="Helvetica,sans-Serif" font-size="10.00">+ std::any operator()(const std::any &amp;src) override</text>
<text text-anchor="start" x="1734.5" y="-7.5" font-family="Helvetica,sans-Serif" font-size="10.00">+ void SetFrame(const data_structure::Frame &amp;frame)</text>
</a>
</g>
</g>
<!-- Node1&#45;&gt;Node8 -->
<g id="edge7" class="edge">
<title>Node1&#45;&gt;Node8</title>
<path fill="none" stroke="midnightblue" d="M1123.76,-155.21C1273.39,-147.79 1513.55,-130.47 1717.5,-91 1720.43,-90.43 1723.39,-89.83 1726.37,-89.2"/>
<polygon fill="none" stroke="midnightblue" points="1123.41,-151.72 1113.6,-155.71 1123.75,-158.72 1123.41,-151.72"/>
</g>
</g>
</svg>
        <g id="navigator" transform="translate(0 0)" fill="#404254">
                <rect fill="#f2f5e9" fill-opacity="0.5" stroke="#606060" stroke-width=".5" x="0" y="0" width="60" height="60"/>
                <use id="zoomplus" xlink:href="#zoomPlus" x="17" y="9" onmousedown="handleZoom(evt,'in')"/>
                <use id="zoomminus" xlink:href="#zoomMin" x="42" y="9" onmousedown="handleZoom(evt,'out')"/>
                <use id="reset" xlink:href="#resetDef" x="30" y="36" onmousedown="handleReset()"/>
                <g id="arrowUp" xlink:href="#dirArrow" transform="translate(30 24)" onmousedown="handlePan(0,-1)">
                  <use xlink:href="#rim" fill="#404040">
                        <set attributeName="fill" to="#808080" begin="arrowUp.mouseover" end="arrowUp.mouseout"/>
                  </use>
                  <path fill="none" stroke="white" stroke-width="1.5" d="M0,-3.0v7 M-2.5,-0.5L0,-3.0L2.5,-0.5"/>
                </g>
                <g id="arrowRight" xlink:href="#dirArrow" transform="rotate(90) translate(36 -43)" onmousedown="handlePan(1,0)">
                  <use xlink:href="#rim" fill="#404040">
                        <set attributeName="fill" to="#808080" begin="arrowRight.mouseover" end="arrowRight.mouseout"/>
                  </use>
                  <path fill="none" stroke="white" stroke-width="1.5" d="M0,-3.0v7 M-2.5,-0.5L0,-3.0L2.5,-0.5"/>
                </g>
                <g id="arrowDown" xlink:href="#dirArrow" transform="rotate(180) translate(-30 -48)" onmousedown="handlePan(0,1)">
                  <use xlink:href="#rim" fill="#404040">
                        <set attributeName="fill" to="#808080" begin="arrowDown.mouseover" end="arrowDown.mouseout"/>
                  </use>
                  <path fill="none" stroke="white" stroke-width="1.5" d="M0,-3.0v7 M-2.5,-0.5L0,-3.0L2.5,-0.5"/>
                </g>
                <g id="arrowLeft" xlink:href="#dirArrow" transform="rotate(270) translate(-36 17)" onmousedown="handlePan(-1,0)">
                  <use xlink:href="#rim" fill="#404040">
                        <set attributeName="fill" to="#808080" begin="arrowLeft.mouseover" end="arrowLeft.mouseout"/>
                  </use>
                  <path fill="none" stroke="white" stroke-width="1.5" d="M0,-3.0v7 M-2.5,-0.5L0,-3.0L2.5,-0.5"/>
                </g>
        </g>
        <svg viewBox="0 0 15 15" width="100%" height="30px" preserveAspectRatio="xMaxYMin meet">
         <g id="arrow_out" transform="scale(0.3 0.3)">
          <a xlink:href="structad__framework_1_1callback_1_1Callback__inherit__graph_org.svg" target="_base">
           <rect id="button" ry="5" rx="5" y="6" x="6" height="38" width="38"
                fill="#f2f5e9" fill-opacity="0.5" stroke="#606060" stroke-width="1.0"/>
           <path id="arrow"
             d="M 11.500037,31.436501 C 11.940474,20.09759 22.043105,11.32322 32.158766,21.979434 L 37.068811,17.246167 C 37.068811,17.246167 37.088388,32 37.088388,32 L 22.160133,31.978069 C 22.160133,31.978069 26.997745,27.140456 26.997745,27.140456 C 18.528582,18.264221 13.291696,25.230495 11.500037,31.436501 z"
             style="fill:#404040;"/>
          </a>
         </g>
        </svg>
</svg>
