<?xml version="1.0" encoding="UTF-8" standalone="no"?>
<!DOCTYPE svg PUBLIC "-//W3C//DTD SVG 1.1//EN"
 "http://www.w3.org/Graphics/SVG/1.1/DTD/svg11.dtd">
<!-- Generated by graphviz version 2.43.0 (0)
 -->
<!-- Title: src/user_interface/top_viewer.h Pages: 1 -->
<svg width="389pt" height="196pt"
 viewBox="0.00 0.00 388.50 196.00" xmlns="http://www.w3.org/2000/svg" xmlns:xlink="http://www.w3.org/1999/xlink">
<g id="graph0" class="graph" transform="scale(1 1) rotate(0) translate(4 192)">
<title>src/user_interface/top_viewer.h</title>
<polygon fill="white" stroke="transparent" points="-4,4 -4,-192 384.5,-192 384.5,4 -4,4"/>
<!-- Node1 -->
<g id="node1" class="node">
<title>Node1</title>
<g id="a_node1"><a xlink:title=" ">
<polygon fill="#bfbfbf" stroke="black" points="87.5,-168.5 87.5,-187.5 256.5,-187.5 256.5,-168.5 87.5,-168.5"/>
<text text-anchor="middle" x="172" y="-175.5" font-family="Helvetica,sans-Serif" font-size="10.00">src/user_interface/top_viewer.h</text>
</a>
</g>
</g>
<!-- Node2 -->
<g id="node2" class="node">
<title>Node2</title>
<g id="a_node2"><a xlink:href="top__viewer_8cpp.html" target="_top" xlink:title=" ">
<polygon fill="white" stroke="black" points="0,-112.5 0,-131.5 180,-131.5 180,-112.5 0,-112.5"/>
<text text-anchor="middle" x="90" y="-119.5" font-family="Helvetica,sans-Serif" font-size="10.00">src/user_interface/top_viewer.cpp</text>
</a>
</g>
</g>
<!-- Node1&#45;&gt;Node2 -->
<g id="edge1" class="edge">
<title>Node1&#45;&gt;Node2</title>
<path fill="none" stroke="midnightblue" d="M150.17,-162.62C135.19,-152.76 115.8,-139.99 103.14,-131.65"/>
<polygon fill="midnightblue" stroke="midnightblue" points="148.55,-165.75 158.83,-168.32 152.4,-159.9 148.55,-165.75"/>
</g>
<!-- Node3 -->
<g id="node3" class="node">
<title>Node3</title>
<g id="a_node3"><a xlink:href="user__interface_8h.html" target="_top" xlink:title=" ">
<polygon fill="white" stroke="black" points="198.5,-112.5 198.5,-131.5 311.5,-131.5 311.5,-112.5 198.5,-112.5"/>
<text text-anchor="middle" x="255" y="-119.5" font-family="Helvetica,sans-Serif" font-size="10.00">src/user_interface.h</text>
</a>
</g>
</g>
<!-- Node1&#45;&gt;Node3 -->
<g id="edge2" class="edge">
<title>Node1&#45;&gt;Node3</title>
<path fill="none" stroke="midnightblue" d="M194.1,-162.62C209.26,-152.76 228.88,-139.99 241.7,-131.65"/>
<polygon fill="midnightblue" stroke="midnightblue" points="191.81,-159.94 185.34,-168.32 195.63,-165.8 191.81,-159.94"/>
</g>
<!-- Node4 -->
<g id="node4" class="node">
<title>Node4</title>
<g id="a_node4"><a xlink:href="app_2main_8cpp.html" target="_top" xlink:title=" ">
<polygon fill="white" stroke="black" points="143.5,-56.5 143.5,-75.5 226.5,-75.5 226.5,-56.5 143.5,-56.5"/>
<text text-anchor="middle" x="185" y="-63.5" font-family="Helvetica,sans-Serif" font-size="10.00">app/main.cpp</text>
</a>
</g>
</g>
<!-- Node3&#45;&gt;Node4 -->
<g id="edge3" class="edge">
<title>Node3&#45;&gt;Node4</title>
<path fill="none" stroke="midnightblue" d="M235.69,-106.1C223.09,-96.38 207.07,-84.03 196.45,-75.83"/>
<polygon fill="midnightblue" stroke="midnightblue" points="233.7,-108.99 243.75,-112.32 237.97,-103.44 233.7,-108.99"/>
</g>
<!-- Node5 -->
<g id="node5" class="node">
<title>Node5</title>
<g id="a_node5"><a xlink:href="application_8cpp.html" target="_top" xlink:title=" ">
<polygon fill="white" stroke="black" points="239,-0.5 239,-19.5 347,-19.5 347,-0.5 239,-0.5"/>
<text text-anchor="middle" x="293" y="-7.5" font-family="Helvetica,sans-Serif" font-size="10.00">src/application.cpp</text>
</a>
</g>
</g>
<!-- Node3&#45;&gt;Node5 -->
<g id="edge4" class="edge">
<title>Node3&#45;&gt;Node5</title>
<path fill="none" stroke="midnightblue" d="M260.28,-102.39C264.1,-89.32 269.53,-71.48 275,-56 279.54,-43.15 285.54,-28.54 289.34,-19.55"/>
<polygon fill="midnightblue" stroke="midnightblue" points="256.9,-101.52 257.49,-112.09 263.62,-103.45 256.9,-101.52"/>
</g>
<!-- Node6 -->
<g id="node6" class="node">
<title>Node6</title>
<g id="a_node6"><a xlink:href="application_8h.html" target="_top" xlink:title=" ">
<polygon fill="white" stroke="black" points="283.5,-56.5 283.5,-75.5 380.5,-75.5 380.5,-56.5 283.5,-56.5"/>
<text text-anchor="middle" x="332" y="-63.5" font-family="Helvetica,sans-Serif" font-size="10.00">src/application.h</text>
</a>
</g>
</g>
<!-- Node3&#45;&gt;Node6 -->
<g id="edge5" class="edge">
<title>Node3&#45;&gt;Node6</title>
<path fill="none" stroke="midnightblue" d="M275.9,-106.34C289.91,-96.52 307.88,-83.91 319.66,-75.65"/>
<polygon fill="midnightblue" stroke="midnightblue" points="273.55,-103.72 267.37,-112.32 277.57,-109.45 273.55,-103.72"/>
</g>
<!-- Node6&#45;&gt;Node5 -->
<g id="edge6" class="edge">
<title>Node6&#45;&gt;Node5</title>
<path fill="none" stroke="midnightblue" d="M319.62,-47.86C312.86,-38.5 304.79,-27.33 299.32,-19.75"/>
<polygon fill="midnightblue" stroke="midnightblue" points="316.87,-50.03 325.56,-56.08 322.54,-45.93 316.87,-50.03"/>
</g>
</g>
</svg>
