<?xml version="1.0" encoding="UTF-8" standalone="no"?>
<!DOCTYPE svg PUBLIC "-//W3C//DTD SVG 1.1//EN"
 "http://www.w3.org/Graphics/SVG/1.1/DTD/svg11.dtd">
<!-- Generated by graphviz version 2.43.0 (0)
 -->
<!-- Title: src/application/user_interface/drawer/top_view_drawer.h Pages: 1 -->
<svg width="714pt" height="196pt"
 viewBox="0.00 0.00 713.50 196.00" xmlns="http://www.w3.org/2000/svg" xmlns:xlink="http://www.w3.org/1999/xlink">
<g id="graph0" class="graph" transform="scale(1 1) rotate(0) translate(4 192)">
<title>src/application/user_interface/drawer/top_view_drawer.h</title>
<polygon fill="white" stroke="transparent" points="-4,4 -4,-192 709.5,-192 709.5,4 -4,4"/>
<!-- Node1 -->
<g id="node1" class="node">
<title>Node1</title>
<g id="a_node1"><a xlink:title=" ">
<polygon fill="#bfbfbf" stroke="black" points="162.5,-168.5 162.5,-187.5 454.5,-187.5 454.5,-168.5 162.5,-168.5"/>
<text text-anchor="middle" x="308.5" y="-175.5" font-family="Helvetica,sans-Serif" font-size="10.00">src/application/user_interface/drawer/top_view_drawer.h</text>
</a>
</g>
</g>
<!-- Node2 -->
<g id="node2" class="node">
<title>Node2</title>
<g id="a_node2"><a xlink:href="top__view__drawer_8cpp.html" target="_top" xlink:title=" ">
<polygon fill="white" stroke="black" points="0,-112.5 0,-131.5 303,-131.5 303,-112.5 0,-112.5"/>
<text text-anchor="middle" x="151.5" y="-119.5" font-family="Helvetica,sans-Serif" font-size="10.00">src/application/user_interface/drawer/top_view_drawer.cpp</text>
</a>
</g>
</g>
<!-- Node1&#45;&gt;Node2 -->
<g id="edge1" class="edge">
<title>Node1&#45;&gt;Node2</title>
<path fill="none" stroke="midnightblue" d="M274.11,-165.17C244.55,-155 202.63,-140.59 176.26,-131.52"/>
<polygon fill="midnightblue" stroke="midnightblue" points="273.03,-168.5 283.62,-168.44 275.3,-161.88 273.03,-168.5"/>
</g>
<!-- Node3 -->
<g id="node3" class="node">
<title>Node3</title>
<g id="a_node3"><a xlink:href="top__view__pannel_8h.html" target="_top" xlink:title=" ">
<polygon fill="white" stroke="black" points="321,-112.5 321,-131.5 612,-131.5 612,-112.5 321,-112.5"/>
<text text-anchor="middle" x="466.5" y="-119.5" font-family="Helvetica,sans-Serif" font-size="10.00">src/application/user_interface/pannel/top_view_pannel.h</text>
</a>
</g>
</g>
<!-- Node1&#45;&gt;Node3 -->
<g id="edge2" class="edge">
<title>Node1&#45;&gt;Node3</title>
<path fill="none" stroke="midnightblue" d="M343.11,-165.17C372.86,-155 415.05,-140.59 441.58,-131.52"/>
<polygon fill="midnightblue" stroke="midnightblue" points="341.87,-161.9 333.54,-168.44 344.13,-168.52 341.87,-161.9"/>
</g>
<!-- Node4 -->
<g id="node4" class="node">
<title>Node4</title>
<g id="a_node4"><a xlink:href="top__view__pannel_8cpp.html" target="_top" xlink:title=" ">
<polygon fill="white" stroke="black" points="179.5,-56.5 179.5,-75.5 481.5,-75.5 481.5,-56.5 179.5,-56.5"/>
<text text-anchor="middle" x="330.5" y="-63.5" font-family="Helvetica,sans-Serif" font-size="10.00">src/application/user_interface/pannel/top_view_pannel.cpp</text>
</a>
</g>
</g>
<!-- Node3&#45;&gt;Node4 -->
<g id="edge3" class="edge">
<title>Node3&#45;&gt;Node4</title>
<path fill="none" stroke="midnightblue" d="M435.37,-108.64C409.84,-98.5 374.39,-84.43 351.95,-75.52"/>
<polygon fill="midnightblue" stroke="midnightblue" points="434.36,-112.01 444.95,-112.44 436.95,-105.5 434.36,-112.01"/>
</g>
<!-- Node5 -->
<g id="node5" class="node">
<title>Node5</title>
<g id="a_node5"><a xlink:href="pannel_8h.html" target="_top" xlink:title=" ">
<polygon fill="white" stroke="black" points="499.5,-56.5 499.5,-75.5 705.5,-75.5 705.5,-56.5 499.5,-56.5"/>
<text text-anchor="middle" x="602.5" y="-63.5" font-family="Helvetica,sans-Serif" font-size="10.00">src/application/user_interface/pannel.h</text>
</a>
</g>
</g>
<!-- Node3&#45;&gt;Node5 -->
<g id="edge4" class="edge">
<title>Node3&#45;&gt;Node5</title>
<path fill="none" stroke="midnightblue" d="M497.63,-108.64C523.16,-98.5 558.61,-84.43 581.05,-75.52"/>
<polygon fill="midnightblue" stroke="midnightblue" points="496.05,-105.5 488.05,-112.44 498.64,-112.01 496.05,-105.5"/>
</g>
<!-- Node6 -->
<g id="node6" class="node">
<title>Node6</title>
<g id="a_node6"><a xlink:href="user__interface_8cpp.html" target="_top" xlink:title=" ">
<polygon fill="white" stroke="black" points="512,-0.5 512,-19.5 693,-19.5 693,-0.5 512,-0.5"/>
<text text-anchor="middle" x="602.5" y="-7.5" font-family="Helvetica,sans-Serif" font-size="10.00">src/application/user_interface.cpp</text>
</a>
</g>
</g>
<!-- Node5&#45;&gt;Node6 -->
<g id="edge5" class="edge">
<title>Node5&#45;&gt;Node6</title>
<path fill="none" stroke="midnightblue" d="M602.5,-45.8C602.5,-36.91 602.5,-26.78 602.5,-19.75"/>
<polygon fill="midnightblue" stroke="midnightblue" points="599,-46.08 602.5,-56.08 606,-46.08 599,-46.08"/>
</g>
</g>
</svg>
