<?xml version="1.0" encoding="UTF-8" standalone="no"?>
<!DOCTYPE svg PUBLIC "-//W3C//DTD SVG 1.1//EN"
 "http://www.w3.org/Graphics/SVG/1.1/DTD/svg11.dtd">
<!-- Generated by graphviz version 2.43.0 (0)
 -->
<!-- Title: src/application/user_interface/drawer/top_view_drawer.cpp Pages: 1 -->
<svg width="581pt" height="140pt"
 viewBox="0.00 0.00 580.50 140.00" xmlns="http://www.w3.org/2000/svg" xmlns:xlink="http://www.w3.org/1999/xlink">
<g id="graph0" class="graph" transform="scale(1 1) rotate(0) translate(4 136)">
<title>src/application/user_interface/drawer/top_view_drawer.cpp</title>
<polygon fill="white" stroke="transparent" points="-4,4 -4,-136 576.5,-136 576.5,4 -4,4"/>
<!-- Node1 -->
<g id="node1" class="node">
<title>Node1</title>
<g id="a_node1"><a xlink:title=" ">
<polygon fill="#bfbfbf" stroke="black" points="217.5,-112.5 217.5,-131.5 520.5,-131.5 520.5,-112.5 217.5,-112.5"/>
<text text-anchor="middle" x="369" y="-119.5" font-family="Helvetica,sans-Serif" font-size="10.00">src/application/user_interface/drawer/top_view_drawer.cpp</text>
</a>
</g>
</g>
<!-- Node2 -->
<g id="node2" class="node">
<title>Node2</title>
<g id="a_node2"><a xlink:href="top__view__drawer_8h.html" target="_top" xlink:title=" ">
<polygon fill="white" stroke="black" points="0,-56.5 0,-75.5 292,-75.5 292,-56.5 0,-56.5"/>
<text text-anchor="middle" x="146" y="-63.5" font-family="Helvetica,sans-Serif" font-size="10.00">src/application/user_interface/drawer/top_view_drawer.h</text>
</a>
</g>
</g>
<!-- Node1&#45;&gt;Node2 -->
<g id="edge1" class="edge">
<title>Node1&#45;&gt;Node2</title>
<path fill="none" stroke="midnightblue" d="M333.66,-112.44C295.09,-103.1 233.22,-88.12 191.15,-77.93"/>
<polygon fill="midnightblue" stroke="midnightblue" points="191.71,-74.47 181.17,-75.52 190.07,-81.27 191.71,-74.47"/>
</g>
<!-- Node3 -->
<g id="node3" class="node">
<title>Node3</title>
<g id="a_node3"><a xlink:title=" ">
<polygon fill="white" stroke="#bfbfbf" points="184,-0.5 184,-19.5 282,-19.5 282,-0.5 184,-0.5"/>
<text text-anchor="middle" x="233" y="-7.5" font-family="Helvetica,sans-Serif" font-size="10.00">bindings/imgui.h</text>
</a>
</g>
</g>
<!-- Node1&#45;&gt;Node3 -->
<g id="edge5" class="edge">
<title>Node1&#45;&gt;Node3</title>
<path fill="none" stroke="midnightblue" d="M361.06,-112.49C348.8,-99.57 324.23,-74.54 301,-56 286.8,-44.66 269.74,-33.38 256.26,-24.95"/>
<polygon fill="midnightblue" stroke="midnightblue" points="257.93,-21.86 247.58,-19.6 254.26,-27.82 257.93,-21.86"/>
</g>
<!-- Node4 -->
<g id="node4" class="node">
<title>Node4</title>
<g id="a_node4"><a xlink:title=" ">
<polygon fill="white" stroke="#bfbfbf" points="348,-56.5 348,-75.5 390,-75.5 390,-56.5 348,-56.5"/>
<text text-anchor="middle" x="369" y="-63.5" font-family="Helvetica,sans-Serif" font-size="10.00">array</text>
</a>
</g>
</g>
<!-- Node1&#45;&gt;Node4 -->
<g id="edge3" class="edge">
<title>Node1&#45;&gt;Node4</title>
<path fill="none" stroke="midnightblue" d="M369,-112.08C369,-105.01 369,-94.86 369,-85.99"/>
<polygon fill="midnightblue" stroke="midnightblue" points="372.5,-85.75 369,-75.75 365.5,-85.75 372.5,-85.75"/>
</g>
<!-- Node5 -->
<g id="node5" class="node">
<title>Node5</title>
<g id="a_node5"><a xlink:title=" ">
<polygon fill="white" stroke="#bfbfbf" points="408.5,-56.5 408.5,-75.5 453.5,-75.5 453.5,-56.5 408.5,-56.5"/>
<text text-anchor="middle" x="431" y="-63.5" font-family="Helvetica,sans-Serif" font-size="10.00">utility</text>
</a>
</g>
</g>
<!-- Node1&#45;&gt;Node5 -->
<g id="edge4" class="edge">
<title>Node1&#45;&gt;Node5</title>
<path fill="none" stroke="midnightblue" d="M378.96,-112.32C388.13,-104.34 401.94,-92.31 413.03,-82.65"/>
<polygon fill="midnightblue" stroke="midnightblue" points="415.62,-85.04 420.86,-75.83 411.02,-79.76 415.62,-85.04"/>
</g>
<!-- Node6 -->
<g id="node6" class="node">
<title>Node6</title>
<g id="a_node6"><a xlink:title=" ">
<polygon fill="white" stroke="#bfbfbf" points="471.5,-56.5 471.5,-75.5 572.5,-75.5 572.5,-56.5 471.5,-56.5"/>
<text text-anchor="middle" x="522" y="-63.5" font-family="Helvetica,sans-Serif" font-size="10.00">bindings/implot.h</text>
</a>
</g>
</g>
<!-- Node1&#45;&gt;Node6 -->
<g id="edge6" class="edge">
<title>Node1&#45;&gt;Node6</title>
<path fill="none" stroke="midnightblue" d="M393.24,-112.44C418.87,-103.4 459.49,-89.06 488.24,-78.92"/>
<polygon fill="midnightblue" stroke="midnightblue" points="489.61,-82.15 497.87,-75.52 487.28,-75.54 489.61,-82.15"/>
</g>
<!-- Node2&#45;&gt;Node3 -->
<g id="edge2" class="edge">
<title>Node2&#45;&gt;Node3</title>
<path fill="none" stroke="midnightblue" d="M159.98,-56.32C173.55,-47.9 194.38,-34.97 210.32,-25.07"/>
<polygon fill="midnightblue" stroke="midnightblue" points="212.41,-27.9 219.06,-19.65 208.71,-21.95 212.41,-27.9"/>
</g>
</g>
</svg>
