<?xml version="1.0" encoding="UTF-8" standalone="no"?>
<!DOCTYPE svg PUBLIC "-//W3C//DTD SVG 1.1//EN"
 "http://www.w3.org/Graphics/SVG/1.1/DTD/svg11.dtd">
<!-- Generated by graphviz version 2.43.0 (0)
 -->
<!-- Title: src/application/user_interface/pannel/top_view_pannel.h Pages: 1 -->
<svg width="534pt" height="140pt"
 viewBox="0.00 0.00 534.00 140.00" xmlns="http://www.w3.org/2000/svg" xmlns:xlink="http://www.w3.org/1999/xlink">
<g id="graph0" class="graph" transform="scale(1 1) rotate(0) translate(4 136)">
<title>src/application/user_interface/pannel/top_view_pannel.h</title>
<polygon fill="white" stroke="transparent" points="-4,4 -4,-136 530,-136 530,4 -4,4"/>
<!-- Node1 -->
<g id="node1" class="node">
<title>Node1</title>
<g id="a_node1"><a xlink:title=" ">
<polygon fill="#bfbfbf" stroke="black" points="141.5,-112.5 141.5,-131.5 432.5,-131.5 432.5,-112.5 141.5,-112.5"/>
<text text-anchor="middle" x="287" y="-119.5" font-family="Helvetica,sans-Serif" font-size="10.00">src/application/user_interface/pannel/top_view_pannel.h</text>
</a>
</g>
</g>
<!-- Node2 -->
<g id="node2" class="node">
<title>Node2</title>
<g id="a_node2"><a xlink:href="top__view__pannel_8cpp.html" target="_top" xlink:title=" ">
<polygon fill="white" stroke="black" points="0,-56.5 0,-75.5 302,-75.5 302,-56.5 0,-56.5"/>
<text text-anchor="middle" x="151" y="-63.5" font-family="Helvetica,sans-Serif" font-size="10.00">src/application/user_interface/pannel/top_view_pannel.cpp</text>
</a>
</g>
</g>
<!-- Node1&#45;&gt;Node2 -->
<g id="edge1" class="edge">
<title>Node1&#45;&gt;Node2</title>
<path fill="none" stroke="midnightblue" d="M255.87,-108.64C230.34,-98.5 194.89,-84.43 172.45,-75.52"/>
<polygon fill="midnightblue" stroke="midnightblue" points="254.86,-112.01 265.45,-112.44 257.45,-105.5 254.86,-112.01"/>
</g>
<!-- Node3 -->
<g id="node3" class="node">
<title>Node3</title>
<g id="a_node3"><a xlink:href="pannel_8h.html" target="_top" xlink:title=" ">
<polygon fill="white" stroke="black" points="320,-56.5 320,-75.5 526,-75.5 526,-56.5 320,-56.5"/>
<text text-anchor="middle" x="423" y="-63.5" font-family="Helvetica,sans-Serif" font-size="10.00">src/application/user_interface/pannel.h</text>
</a>
</g>
</g>
<!-- Node1&#45;&gt;Node3 -->
<g id="edge2" class="edge">
<title>Node1&#45;&gt;Node3</title>
<path fill="none" stroke="midnightblue" d="M318.13,-108.64C343.66,-98.5 379.11,-84.43 401.55,-75.52"/>
<polygon fill="midnightblue" stroke="midnightblue" points="316.55,-105.5 308.55,-112.44 319.14,-112.01 316.55,-105.5"/>
</g>
<!-- Node4 -->
<g id="node4" class="node">
<title>Node4</title>
<g id="a_node4"><a xlink:href="user__interface_8cpp.html" target="_top" xlink:title=" ">
<polygon fill="white" stroke="black" points="332.5,-0.5 332.5,-19.5 513.5,-19.5 513.5,-0.5 332.5,-0.5"/>
<text text-anchor="middle" x="423" y="-7.5" font-family="Helvetica,sans-Serif" font-size="10.00">src/application/user_interface.cpp</text>
</a>
</g>
</g>
<!-- Node3&#45;&gt;Node4 -->
<g id="edge3" class="edge">
<title>Node3&#45;&gt;Node4</title>
<path fill="none" stroke="midnightblue" d="M423,-45.8C423,-36.91 423,-26.78 423,-19.75"/>
<polygon fill="midnightblue" stroke="midnightblue" points="419.5,-46.08 423,-56.08 426.5,-46.08 419.5,-46.08"/>
</g>
</g>
</svg>
