<?xml version="1.0" encoding="UTF-8" standalone="no"?>
<!DOCTYPE svg PUBLIC "-//W3C//DTD SVG 1.1//EN"
 "http://www.w3.org/Graphics/SVG/1.1/DTD/svg11.dtd">
<!-- Generated by graphviz version 2.43.0 (0)
 -->
<!-- Title: src/application/user_interface/pannel/top_view_pannel.cpp Pages: 1 -->
<svg width="756pt" height="308pt"
 viewBox="0.00 0.00 756.00 308.00" xmlns="http://www.w3.org/2000/svg" xmlns:xlink="http://www.w3.org/1999/xlink">
<g id="graph0" class="graph" transform="scale(1 1) rotate(0) translate(4 304)">
<title>src/application/user_interface/pannel/top_view_pannel.cpp</title>
<polygon fill="white" stroke="transparent" points="-4,4 -4,-304 752,-304 752,4 -4,4"/>
<!-- Node1 -->
<g id="node1" class="node">
<title>Node1</title>
<g id="a_node1"><a xlink:title=" ">
<polygon fill="#bfbfbf" stroke="black" points="159,-280.5 159,-299.5 461,-299.5 461,-280.5 159,-280.5"/>
<text text-anchor="middle" x="310" y="-287.5" font-family="Helvetica,sans-Serif" font-size="10.00">src/application/user_interface/pannel/top_view_pannel.cpp</text>
</a>
</g>
</g>
<!-- Node2 -->
<g id="node2" class="node">
<title>Node2</title>
<g id="a_node2"><a xlink:href="top__view__pannel_8h.html" target="_top" xlink:title=" ">
<polygon fill="white" stroke="black" points="164.5,-224.5 164.5,-243.5 455.5,-243.5 455.5,-224.5 164.5,-224.5"/>
<text text-anchor="middle" x="310" y="-231.5" font-family="Helvetica,sans-Serif" font-size="10.00">src/application/user_interface/pannel/top_view_pannel.h</text>
</a>
</g>
</g>
<!-- Node1&#45;&gt;Node2 -->
<g id="edge1" class="edge">
<title>Node1&#45;&gt;Node2</title>
<path fill="none" stroke="midnightblue" d="M310,-280.08C310,-273.01 310,-262.86 310,-253.99"/>
<polygon fill="midnightblue" stroke="midnightblue" points="313.5,-253.75 310,-243.75 306.5,-253.75 313.5,-253.75"/>
</g>
<!-- Node3 -->
<g id="node3" class="node">
<title>Node3</title>
<g id="a_node3"><a xlink:title=" ">
<polygon fill="white" stroke="#bfbfbf" points="0,-56.5 0,-75.5 58,-75.5 58,-56.5 0,-56.5"/>
<text text-anchor="middle" x="29" y="-63.5" font-family="Helvetica,sans-Serif" font-size="10.00">memory</text>
</a>
</g>
</g>
<!-- Node2&#45;&gt;Node3 -->
<g id="edge2" class="edge">
<title>Node2&#45;&gt;Node3</title>
<path fill="none" stroke="midnightblue" d="M216.92,-224.48C154.8,-213.54 76.91,-188.63 34,-132 24.08,-118.9 23.8,-99.75 25.42,-85.63"/>
<polygon fill="midnightblue" stroke="midnightblue" points="28.9,-86.01 26.98,-75.59 21.99,-84.94 28.9,-86.01"/>
</g>
<!-- Node4 -->
<g id="node4" class="node">
<title>Node4</title>
<g id="a_node4"><a xlink:href="abstract__pannel_8h.html" target="_top" xlink:title=" ">
<polygon fill="white" stroke="black" points="218,-168.5 218,-187.5 322,-187.5 322,-168.5 218,-168.5"/>
<text text-anchor="middle" x="270" y="-175.5" font-family="Helvetica,sans-Serif" font-size="10.00">abstract_pannel.h</text>
</a>
</g>
</g>
<!-- Node2&#45;&gt;Node4 -->
<g id="edge3" class="edge">
<title>Node2&#45;&gt;Node4</title>
<path fill="none" stroke="midnightblue" d="M303.39,-224.08C297.74,-216.46 289.46,-205.26 282.55,-195.94"/>
<polygon fill="midnightblue" stroke="midnightblue" points="285.25,-193.7 276.48,-187.75 279.62,-197.87 285.25,-193.7"/>
</g>
<!-- Node13 -->
<g id="node13" class="node">
<title>Node13</title>
<g id="a_node13"><a xlink:title=" ">
<polygon fill="white" stroke="#bfbfbf" points="566,-112.5 566,-131.5 664,-131.5 664,-112.5 566,-112.5"/>
<text text-anchor="middle" x="615" y="-119.5" font-family="Helvetica,sans-Serif" font-size="10.00">bindings/imgui.h</text>
</a>
</g>
</g>
<!-- Node2&#45;&gt;Node13 -->
<g id="edge17" class="edge">
<title>Node2&#45;&gt;Node13</title>
<path fill="none" stroke="midnightblue" d="M325.63,-224.43C350.65,-210.98 401.54,-184.72 447,-168 485.78,-153.74 531.11,-141.87 564.9,-133.9"/>
<polygon fill="midnightblue" stroke="midnightblue" points="566.04,-137.23 574.99,-131.56 564.46,-130.41 566.04,-137.23"/>
</g>
<!-- Node14 -->
<g id="node14" class="node">
<title>Node14</title>
<g id="a_node14"><a xlink:href="top__view__drawer_8h.html" target="_top" xlink:title=" ">
<polygon fill="white" stroke="black" points="456,-168.5 456,-187.5 748,-187.5 748,-168.5 456,-168.5"/>
<text text-anchor="middle" x="602" y="-175.5" font-family="Helvetica,sans-Serif" font-size="10.00">src/application/user_interface/drawer/top_view_drawer.h</text>
</a>
</g>
</g>
<!-- Node2&#45;&gt;Node14 -->
<g id="edge18" class="edge">
<title>Node2&#45;&gt;Node14</title>
<path fill="none" stroke="midnightblue" d="M356.27,-224.44C407.74,-214.92 490.89,-199.55 546,-189.36"/>
<polygon fill="midnightblue" stroke="midnightblue" points="546.75,-192.78 555.95,-187.52 545.48,-185.89 546.75,-192.78"/>
</g>
<!-- Node4&#45;&gt;Node3 -->
<g id="edge5" class="edge">
<title>Node4&#45;&gt;Node3</title>
<path fill="none" stroke="midnightblue" d="M217.8,-172.25C161.09,-166.07 75.29,-153.46 51,-132 37.77,-120.31 32.48,-100.37 30.38,-85.65"/>
<polygon fill="midnightblue" stroke="midnightblue" points="33.85,-85.2 29.31,-75.63 26.89,-85.95 33.85,-85.2"/>
</g>
<!-- Node5 -->
<g id="node5" class="node">
<title>Node5</title>
<g id="a_node5"><a xlink:title=" ">
<polygon fill="white" stroke="#bfbfbf" points="230.5,-112.5 230.5,-131.5 283.5,-131.5 283.5,-112.5 230.5,-112.5"/>
<text text-anchor="middle" x="257" y="-119.5" font-family="Helvetica,sans-Serif" font-size="10.00">imgui.h</text>
</a>
</g>
</g>
<!-- Node4&#45;&gt;Node5 -->
<g id="edge4" class="edge">
<title>Node4&#45;&gt;Node5</title>
<path fill="none" stroke="midnightblue" d="M267.85,-168.08C266.13,-160.93 263.65,-150.64 261.5,-141.69"/>
<polygon fill="midnightblue" stroke="midnightblue" points="264.85,-140.65 259.11,-131.75 258.04,-142.29 264.85,-140.65"/>
</g>
<!-- Node6 -->
<g id="node6" class="node">
<title>Node6</title>
<g id="a_node6"><a xlink:title=" ">
<polygon fill="white" stroke="#bfbfbf" points="286,-56.5 286,-75.5 330,-75.5 330,-56.5 286,-56.5"/>
<text text-anchor="middle" x="308" y="-63.5" font-family="Helvetica,sans-Serif" font-size="10.00">string</text>
</a>
</g>
</g>
<!-- Node4&#45;&gt;Node6 -->
<g id="edge6" class="edge">
<title>Node4&#45;&gt;Node6</title>
<path fill="none" stroke="midnightblue" d="M274.96,-168.28C279.85,-159.39 287.25,-145.08 292,-132 297.52,-116.79 301.77,-98.9 304.49,-85.74"/>
<polygon fill="midnightblue" stroke="midnightblue" points="308,-86.07 306.49,-75.59 301.13,-84.72 308,-86.07"/>
</g>
<!-- Node7 -->
<g id="node7" class="node">
<title>Node7</title>
<g id="a_node7"><a xlink:href="dataloader_8h.html" target="_top" xlink:title=" ">
<polygon fill="white" stroke="black" points="60,-112.5 60,-131.5 212,-131.5 212,-112.5 60,-112.5"/>
<text text-anchor="middle" x="136" y="-119.5" font-family="Helvetica,sans-Serif" font-size="10.00">src/application/dataloader.h</text>
</a>
</g>
</g>
<!-- Node4&#45;&gt;Node7 -->
<g id="edge7" class="edge">
<title>Node4&#45;&gt;Node7</title>
<path fill="none" stroke="midnightblue" d="M248.77,-168.44C226.62,-159.52 191.68,-145.44 166.56,-135.32"/>
<polygon fill="midnightblue" stroke="midnightblue" points="167.72,-132.01 157.13,-131.52 165.1,-138.5 167.72,-132.01"/>
</g>
<!-- Node11 -->
<g id="node11" class="node">
<title>Node11</title>
<g id="a_node11"><a xlink:href="abstract__data__reader_8h.html" target="_top" xlink:title=" ">
<polygon fill="white" stroke="black" points="340.5,-112.5 340.5,-131.5 547.5,-131.5 547.5,-112.5 340.5,-112.5"/>
<text text-anchor="middle" x="444" y="-119.5" font-family="Helvetica,sans-Serif" font-size="10.00">src/data_reader/abstract_data_reader.h</text>
</a>
</g>
</g>
<!-- Node4&#45;&gt;Node11 -->
<g id="edge13" class="edge">
<title>Node4&#45;&gt;Node11</title>
<path fill="none" stroke="midnightblue" d="M297.57,-168.44C327.1,-159.28 374.12,-144.69 406.88,-134.52"/>
<polygon fill="midnightblue" stroke="midnightblue" points="408.04,-137.82 416.56,-131.52 405.97,-131.14 408.04,-137.82"/>
</g>
<!-- Node7&#45;&gt;Node3 -->
<g id="edge10" class="edge">
<title>Node7&#45;&gt;Node3</title>
<path fill="none" stroke="midnightblue" d="M118.81,-112.32C101.65,-103.66 75.05,-90.24 55.25,-80.25"/>
<polygon fill="midnightblue" stroke="midnightblue" points="56.65,-77.04 46.15,-75.65 53.5,-83.28 56.65,-77.04"/>
</g>
<!-- Node7&#45;&gt;Node6 -->
<g id="edge11" class="edge">
<title>Node7&#45;&gt;Node6</title>
<path fill="none" stroke="midnightblue" d="M163.25,-112.44C193.85,-102.84 243.46,-87.26 275.91,-77.07"/>
<polygon fill="midnightblue" stroke="midnightblue" points="277.3,-80.31 285.8,-73.97 275.21,-73.63 277.3,-80.31"/>
</g>
<!-- Node8 -->
<g id="node8" class="node">
<title>Node8</title>
<g id="a_node8"><a xlink:title=" ">
<polygon fill="white" stroke="#bfbfbf" points="76,-56.5 76,-75.5 118,-75.5 118,-56.5 76,-56.5"/>
<text text-anchor="middle" x="97" y="-63.5" font-family="Helvetica,sans-Serif" font-size="10.00">array</text>
</a>
</g>
</g>
<!-- Node7&#45;&gt;Node8 -->
<g id="edge8" class="edge">
<title>Node7&#45;&gt;Node8</title>
<path fill="none" stroke="midnightblue" d="M129.56,-112.08C124.05,-104.46 115.97,-93.26 109.24,-83.94"/>
<polygon fill="midnightblue" stroke="midnightblue" points="112.01,-81.81 103.32,-75.75 106.34,-85.91 112.01,-81.81"/>
</g>
<!-- Node9 -->
<g id="node9" class="node">
<title>Node9</title>
<g id="a_node9"><a xlink:title=" ">
<polygon fill="white" stroke="#bfbfbf" points="324,-0.5 324,-19.5 392,-19.5 392,-0.5 324,-0.5"/>
<text text-anchor="middle" x="358" y="-7.5" font-family="Helvetica,sans-Serif" font-size="10.00">filesystem</text>
</a>
</g>
</g>
<!-- Node7&#45;&gt;Node9 -->
<g id="edge9" class="edge">
<title>Node7&#45;&gt;Node9</title>
<path fill="none" stroke="midnightblue" d="M137.34,-112.36C140,-98.31 147.28,-70.63 165,-56 207.04,-21.3 270.97,-12.31 313.59,-10.5"/>
<polygon fill="midnightblue" stroke="midnightblue" points="313.78,-14 323.67,-10.19 313.57,-7 313.78,-14"/>
</g>
<!-- Node10 -->
<g id="node10" class="node">
<title>Node10</title>
<g id="a_node10"><a xlink:title=" ">
<polygon fill="white" stroke="#bfbfbf" points="174.5,-56.5 174.5,-75.5 267.5,-75.5 267.5,-56.5 174.5,-56.5"/>
<text text-anchor="middle" x="221" y="-63.5" font-family="Helvetica,sans-Serif" font-size="10.00">unordered_map</text>
</a>
</g>
</g>
<!-- Node7&#45;&gt;Node10 -->
<g id="edge12" class="edge">
<title>Node7&#45;&gt;Node10</title>
<path fill="none" stroke="midnightblue" d="M149.66,-112.32C162.92,-103.9 183.27,-90.97 198.85,-81.07"/>
<polygon fill="midnightblue" stroke="midnightblue" points="200.81,-83.97 207.38,-75.65 197.06,-78.06 200.81,-83.97"/>
</g>
<!-- Node11&#45;&gt;Node9 -->
<g id="edge14" class="edge">
<title>Node11&#45;&gt;Node9</title>
<path fill="none" stroke="midnightblue" d="M424.21,-112.36C409.18,-104.82 389.08,-92.51 377,-76 367.13,-62.51 362.36,-43.95 360.07,-30.12"/>
<polygon fill="midnightblue" stroke="midnightblue" points="363.49,-29.26 358.68,-19.83 356.55,-30.21 363.49,-29.26"/>
</g>
<!-- Node12 -->
<g id="node12" class="node">
<title>Node12</title>
<g id="a_node12"><a xlink:href="types_8h.html" target="_top" xlink:title=" ">
<polygon fill="white" stroke="black" points="386,-56.5 386,-75.5 508,-75.5 508,-56.5 386,-56.5"/>
<text text-anchor="middle" x="447" y="-63.5" font-family="Helvetica,sans-Serif" font-size="10.00">src/data_type/types.h</text>
</a>
</g>
</g>
<!-- Node11&#45;&gt;Node12 -->
<g id="edge15" class="edge">
<title>Node11&#45;&gt;Node12</title>
<path fill="none" stroke="midnightblue" d="M444.5,-112.08C444.89,-105.01 445.45,-94.86 445.95,-85.99"/>
<polygon fill="midnightblue" stroke="midnightblue" points="449.45,-85.93 446.51,-75.75 442.46,-85.54 449.45,-85.93"/>
</g>
<!-- Node12&#45;&gt;Node9 -->
<g id="edge16" class="edge">
<title>Node12&#45;&gt;Node9</title>
<path fill="none" stroke="midnightblue" d="M432.7,-56.32C418.82,-47.9 397.51,-34.97 381.2,-25.07"/>
<polygon fill="midnightblue" stroke="midnightblue" points="382.63,-21.85 372.26,-19.65 379,-27.83 382.63,-21.85"/>
</g>
<!-- Node14&#45;&gt;Node13 -->
<g id="edge19" class="edge">
<title>Node14&#45;&gt;Node13</title>
<path fill="none" stroke="midnightblue" d="M604.15,-168.08C605.87,-160.93 608.35,-150.64 610.5,-141.69"/>
<polygon fill="midnightblue" stroke="midnightblue" points="613.96,-142.29 612.89,-131.75 607.15,-140.65 613.96,-142.29"/>
</g>
</g>
</svg>
