<?xml version="1.0" encoding="UTF-8" standalone="no"?>
<!DOCTYPE svg PUBLIC "-//W3C//DTD SVG 1.1//EN"
 "http://www.w3.org/Graphics/SVG/1.1/DTD/svg11.dtd">
<!-- Generated by graphviz version 2.43.0 (0)
 -->
<!-- Title: src/data_type/types.h Pages: 1 -->
<svg width="2881pt" height="308pt"
 viewBox="0.00 0.00 2880.50 308.00" xmlns="http://www.w3.org/2000/svg" xmlns:xlink="http://www.w3.org/1999/xlink">
<g id="graph0" class="graph" transform="scale(1 1) rotate(0) translate(4 304)">
<title>src/data_type/types.h</title>
<polygon fill="white" stroke="transparent" points="-4,4 -4,-304 2876.5,-304 2876.5,4 -4,4"/>
<!-- Node1 -->
<g id="node1" class="node">
<title>Node1</title>
<g id="a_node1"><a xlink:title=" ">
<polygon fill="#bfbfbf" stroke="black" points="2388.5,-280.5 2388.5,-299.5 2510.5,-299.5 2510.5,-280.5 2388.5,-280.5"/>
<text text-anchor="middle" x="2449.5" y="-287.5" font-family="Helvetica,sans-Serif" font-size="10.00">src/data_type/types.h</text>
</a>
</g>
</g>
<!-- Node2 -->
<g id="node2" class="node">
<title>Node2</title>
<g id="a_node2"><a xlink:href="abstract__data__reader_8h.html" target="_top" xlink:title=" ">
<polygon fill="white" stroke="black" points="2252,-224.5 2252,-243.5 2459,-243.5 2459,-224.5 2252,-224.5"/>
<text text-anchor="middle" x="2355.5" y="-231.5" font-family="Helvetica,sans-Serif" font-size="10.00">src/data_reader/abstract_data_reader.h</text>
</a>
</g>
</g>
<!-- Node1&#45;&gt;Node2 -->
<g id="edge1" class="edge">
<title>Node1&#45;&gt;Node2</title>
<path fill="none" stroke="midnightblue" d="M2425.44,-275.18C2408.14,-265.24 2385.35,-252.15 2370.57,-243.65"/>
<polygon fill="midnightblue" stroke="midnightblue" points="2423.98,-278.38 2434.4,-280.32 2427.47,-272.31 2423.98,-278.38"/>
</g>
<!-- Node27 -->
<g id="node27" class="node">
<title>Node27</title>
<g id="a_node27"><a xlink:href="types_8cpp.html" target="_top" xlink:title=" ">
<polygon fill="white" stroke="black" points="2477,-224.5 2477,-243.5 2610,-243.5 2610,-224.5 2477,-224.5"/>
<text text-anchor="middle" x="2543.5" y="-231.5" font-family="Helvetica,sans-Serif" font-size="10.00">src/data_type/types.cpp</text>
</a>
</g>
</g>
<!-- Node1&#45;&gt;Node27 -->
<g id="edge37" class="edge">
<title>Node1&#45;&gt;Node27</title>
<path fill="none" stroke="midnightblue" d="M2473.56,-275.18C2490.86,-265.24 2513.65,-252.15 2528.43,-243.65"/>
<polygon fill="midnightblue" stroke="midnightblue" points="2471.53,-272.31 2464.6,-280.32 2475.02,-278.38 2471.53,-272.31"/>
</g>
<!-- Node3 -->
<g id="node3" class="node">
<title>Node3</title>
<g id="a_node3"><a xlink:href="abstract__pannel_8h.html" target="_top" xlink:title=" ">
<polygon fill="white" stroke="black" points="974,-168.5 974,-187.5 1261,-187.5 1261,-168.5 974,-168.5"/>
<text text-anchor="middle" x="1117.5" y="-175.5" font-family="Helvetica,sans-Serif" font-size="10.00">src/application/user_interface/pannel/abstract_pannel.h</text>
</a>
</g>
</g>
<!-- Node2&#45;&gt;Node3 -->
<g id="edge2" class="edge">
<title>Node2&#45;&gt;Node3</title>
<path fill="none" stroke="midnightblue" d="M2241.58,-228.03C2015.36,-218.16 1509.89,-196.12 1261.24,-185.27"/>
<polygon fill="midnightblue" stroke="midnightblue" points="2241.67,-231.54 2251.81,-228.48 2241.98,-224.54 2241.67,-231.54"/>
</g>
<!-- Node17 -->
<g id="node17" class="node">
<title>Node17</title>
<g id="a_node17"><a xlink:href="user__interface_8h.html" target="_top" xlink:title=" ">
<polygon fill="white" stroke="black" points="138.5,-112.5 138.5,-131.5 308.5,-131.5 308.5,-112.5 138.5,-112.5"/>
<text text-anchor="middle" x="223.5" y="-119.5" font-family="Helvetica,sans-Serif" font-size="10.00">src/application/user_interface.h</text>
</a>
</g>
</g>
<!-- Node2&#45;&gt;Node17 -->
<g id="edge27" class="edge">
<title>Node2&#45;&gt;Node17</title>
<path fill="none" stroke="midnightblue" d="M2241.55,-231.4C2003.94,-227.59 1438.27,-216.15 964.5,-188 723.59,-173.69 439.54,-145.63 303.71,-131.53"/>
<polygon fill="midnightblue" stroke="midnightblue" points="2241.53,-234.9 2251.59,-231.56 2241.64,-227.9 2241.53,-234.9"/>
</g>
<!-- Node21 -->
<g id="node21" class="node">
<title>Node21</title>
<g id="a_node21"><a xlink:href="abstract__data__reader_8cpp.html" target="_top" xlink:title=" ">
<polygon fill="white" stroke="black" points="2654.5,-168.5 2654.5,-187.5 2872.5,-187.5 2872.5,-168.5 2654.5,-168.5"/>
<text text-anchor="middle" x="2763.5" y="-175.5" font-family="Helvetica,sans-Serif" font-size="10.00">src/data_reader/abstract_data_reader.cpp</text>
</a>
</g>
</g>
<!-- Node2&#45;&gt;Node21 -->
<g id="edge28" class="edge">
<title>Node2&#45;&gt;Node21</title>
<path fill="none" stroke="midnightblue" d="M2430.27,-223.1C2507.31,-212.91 2626.17,-197.18 2699.15,-187.52"/>
<polygon fill="midnightblue" stroke="midnightblue" points="2429.6,-219.66 2420.15,-224.44 2430.52,-226.6 2429.6,-219.66"/>
</g>
<!-- Node22 -->
<g id="node22" class="node">
<title>Node22</title>
<g id="a_node22"><a xlink:href="kitti__data__reader_8h.html" target="_top" xlink:title=" ">
<polygon fill="white" stroke="black" points="2202,-168.5 2202,-187.5 2389,-187.5 2389,-168.5 2202,-168.5"/>
<text text-anchor="middle" x="2295.5" y="-175.5" font-family="Helvetica,sans-Serif" font-size="10.00">src/data_reader/kitti_data_reader.h</text>
</a>
</g>
</g>
<!-- Node2&#45;&gt;Node22 -->
<g id="edge29" class="edge">
<title>Node2&#45;&gt;Node22</title>
<path fill="none" stroke="midnightblue" d="M2338.32,-217.54C2327.62,-207.91 2314.24,-195.87 2305.32,-187.83"/>
<polygon fill="midnightblue" stroke="midnightblue" points="2336.09,-220.24 2345.86,-224.32 2340.77,-215.03 2336.09,-220.24"/>
</g>
<!-- Node24 -->
<g id="node24" class="node">
<title>Node24</title>
<g id="a_node24"><a xlink:href="data__reader_8h.html" target="_top" xlink:title=" ">
<polygon fill="white" stroke="black" points="2413,-112.5 2413,-131.5 2514,-131.5 2514,-112.5 2413,-112.5"/>
<text text-anchor="middle" x="2463.5" y="-119.5" font-family="Helvetica,sans-Serif" font-size="10.00">src/data_reader.h</text>
</a>
</g>
</g>
<!-- Node2&#45;&gt;Node24 -->
<g id="edge36" class="edge">
<title>Node2&#45;&gt;Node24</title>
<path fill="none" stroke="midnightblue" d="M2371.01,-217.21C2394.16,-193.63 2436.96,-150.03 2455.06,-131.59"/>
<polygon fill="midnightblue" stroke="midnightblue" points="2368.48,-214.78 2363.97,-224.37 2373.48,-219.68 2368.48,-214.78"/>
</g>
<!-- Node25 -->
<g id="node25" class="node">
<title>Node25</title>
<g id="a_node25"><a xlink:href="none__data__reader_8h.html" target="_top" xlink:title=" ">
<polygon fill="white" stroke="black" points="2445,-168.5 2445,-187.5 2636,-187.5 2636,-168.5 2445,-168.5"/>
<text text-anchor="middle" x="2540.5" y="-175.5" font-family="Helvetica,sans-Serif" font-size="10.00">src/data_reader/none_data_reader.h</text>
</a>
</g>
</g>
<!-- Node2&#45;&gt;Node25 -->
<g id="edge33" class="edge">
<title>Node2&#45;&gt;Node25</title>
<path fill="none" stroke="midnightblue" d="M2394.67,-221.57C2429.57,-211.38 2479.85,-196.7 2511.32,-187.52"/>
<polygon fill="midnightblue" stroke="midnightblue" points="2393.43,-218.28 2384.81,-224.44 2395.39,-225 2393.43,-218.28"/>
</g>
<!-- Node4 -->
<g id="node4" class="node">
<title>Node4</title>
<g id="a_node4"><a xlink:href="abstract__pannel_8cpp.html" target="_top" xlink:title=" ">
<polygon fill="white" stroke="black" points="1274.5,-112.5 1274.5,-131.5 1572.5,-131.5 1572.5,-112.5 1274.5,-112.5"/>
<text text-anchor="middle" x="1423.5" y="-119.5" font-family="Helvetica,sans-Serif" font-size="10.00">src/application/user_interface/pannel/abstract_pannel.cpp</text>
</a>
</g>
</g>
<!-- Node3&#45;&gt;Node4 -->
<g id="edge3" class="edge">
<title>Node3&#45;&gt;Node4</title>
<path fill="none" stroke="midnightblue" d="M1176.07,-166.66C1233.9,-156.46 1321.28,-141.04 1375.24,-131.52"/>
<polygon fill="midnightblue" stroke="midnightblue" points="1175.23,-163.26 1165.99,-168.44 1176.44,-170.15 1175.23,-163.26"/>
</g>
<!-- Node5 -->
<g id="node5" class="node">
<title>Node5</title>
<g id="a_node5"><a xlink:href="cam__view__pannel_8h.html" target="_top" xlink:title=" ">
<polygon fill="white" stroke="black" points="326.5,-112.5 326.5,-131.5 622.5,-131.5 622.5,-112.5 326.5,-112.5"/>
<text text-anchor="middle" x="474.5" y="-119.5" font-family="Helvetica,sans-Serif" font-size="10.00">src/application/user_interface/pannel/cam_view_pannel.h</text>
</a>
</g>
</g>
<!-- Node3&#45;&gt;Node5 -->
<g id="edge4" class="edge">
<title>Node3&#45;&gt;Node5</title>
<path fill="none" stroke="midnightblue" d="M1005.92,-167.63C884.71,-157.45 692.77,-141.33 575.76,-131.5"/>
<polygon fill="midnightblue" stroke="midnightblue" points="1005.71,-171.12 1015.97,-168.47 1006.3,-164.15 1005.71,-171.12"/>
</g>
<!-- Node7 -->
<g id="node7" class="node">
<title>Node7</title>
<g id="a_node7"><a xlink:href="pannel_8h.html" target="_top" xlink:title=" ">
<polygon fill="white" stroke="black" points="956.5,-56.5 956.5,-75.5 1162.5,-75.5 1162.5,-56.5 956.5,-56.5"/>
<text text-anchor="middle" x="1059.5" y="-63.5" font-family="Helvetica,sans-Serif" font-size="10.00">src/application/user_interface/pannel.h</text>
</a>
</g>
</g>
<!-- Node3&#45;&gt;Node7 -->
<g id="edge20" class="edge">
<title>Node3&#45;&gt;Node7</title>
<path fill="none" stroke="midnightblue" d="M1017.39,-165.32C998.69,-158.46 981.33,-147.97 969.5,-132 950.22,-105.99 995,-86.12 1028.07,-75.54"/>
<polygon fill="midnightblue" stroke="midnightblue" points="1016.37,-168.66 1026.96,-168.49 1018.57,-162.02 1016.37,-168.66"/>
</g>
<!-- Node9 -->
<g id="node9" class="node">
<title>Node9</title>
<g id="a_node9"><a xlink:href="control__pannel_8h.html" target="_top" xlink:title=" ">
<polygon fill="white" stroke="black" points="641,-112.5 641,-131.5 922,-131.5 922,-112.5 641,-112.5"/>
<text text-anchor="middle" x="781.5" y="-119.5" font-family="Helvetica,sans-Serif" font-size="10.00">src/application/user_interface/pannel/control_pannel.h</text>
</a>
</g>
</g>
<!-- Node3&#45;&gt;Node9 -->
<g id="edge8" class="edge">
<title>Node3&#45;&gt;Node9</title>
<path fill="none" stroke="midnightblue" d="M1054.37,-166.85C990.88,-156.65 894.11,-141.1 834.49,-131.52"/>
<polygon fill="midnightblue" stroke="midnightblue" points="1053.83,-170.31 1064.26,-168.44 1054.94,-163.4 1053.83,-170.31"/>
</g>
<!-- Node11 -->
<g id="node11" class="node">
<title>Node11</title>
<g id="a_node11"><a xlink:href="dialog__pannel_8h.html" target="_top" xlink:title=" ">
<polygon fill="white" stroke="black" points="979,-112.5 979,-131.5 1256,-131.5 1256,-112.5 979,-112.5"/>
<text text-anchor="middle" x="1117.5" y="-119.5" font-family="Helvetica,sans-Serif" font-size="10.00">src/application/user_interface/pannel/dialog_pannel.h</text>
</a>
</g>
</g>
<!-- Node3&#45;&gt;Node11 -->
<g id="edge11" class="edge">
<title>Node3&#45;&gt;Node11</title>
<path fill="none" stroke="midnightblue" d="M1117.5,-157.8C1117.5,-148.91 1117.5,-138.78 1117.5,-131.75"/>
<polygon fill="midnightblue" stroke="midnightblue" points="1114,-158.08 1117.5,-168.08 1121,-158.08 1114,-158.08"/>
</g>
<!-- Node13 -->
<g id="node13" class="node">
<title>Node13</title>
<g id="a_node13"><a xlink:href="media__pannel_8h.html" target="_top" xlink:title=" ">
<polygon fill="white" stroke="black" points="1590.5,-112.5 1590.5,-131.5 1868.5,-131.5 1868.5,-112.5 1590.5,-112.5"/>
<text text-anchor="middle" x="1729.5" y="-119.5" font-family="Helvetica,sans-Serif" font-size="10.00">src/application/user_interface/pannel/media_pannel.h</text>
</a>
</g>
</g>
<!-- Node3&#45;&gt;Node13 -->
<g id="edge14" class="edge">
<title>Node3&#45;&gt;Node13</title>
<path fill="none" stroke="midnightblue" d="M1224.4,-167.57C1339.8,-157.38 1521.98,-141.31 1633.12,-131.5"/>
<polygon fill="midnightblue" stroke="midnightblue" points="1223.79,-164.11 1214.14,-168.47 1224.4,-171.08 1223.79,-164.11"/>
</g>
<!-- Node15 -->
<g id="node15" class="node">
<title>Node15</title>
<g id="a_node15"><a xlink:href="top__view__pannel_8h.html" target="_top" xlink:title=" ">
<polygon fill="white" stroke="black" points="1887,-112.5 1887,-131.5 2178,-131.5 2178,-112.5 1887,-112.5"/>
<text text-anchor="middle" x="2032.5" y="-119.5" font-family="Helvetica,sans-Serif" font-size="10.00">src/application/user_interface/pannel/top_view_pannel.h</text>
</a>
</g>
</g>
<!-- Node3&#45;&gt;Node15 -->
<g id="edge17" class="edge">
<title>Node3&#45;&gt;Node15</title>
<path fill="none" stroke="midnightblue" d="M1271.38,-167.92C1443.47,-157.76 1720.04,-141.44 1888.15,-131.52"/>
<polygon fill="midnightblue" stroke="midnightblue" points="1271,-164.43 1261.22,-168.52 1271.41,-171.42 1271,-164.43"/>
</g>
<!-- Node3&#45;&gt;Node17 -->
<g id="edge21" class="edge">
<title>Node3&#45;&gt;Node17</title>
<path fill="none" stroke="midnightblue" d="M963.97,-170.16C802.83,-162.55 542.19,-149.07 317.5,-132 314.56,-131.78 311.56,-131.54 308.54,-131.29"/>
<polygon fill="midnightblue" stroke="midnightblue" points="963.8,-173.65 973.96,-170.63 964.13,-166.66 963.8,-173.65"/>
</g>
<!-- Node6 -->
<g id="node6" class="node">
<title>Node6</title>
<g id="a_node6"><a xlink:href="cam__view__pannel_8cpp.html" target="_top" xlink:title=" ">
<polygon fill="white" stroke="black" points="320.5,-56.5 320.5,-75.5 628.5,-75.5 628.5,-56.5 320.5,-56.5"/>
<text text-anchor="middle" x="474.5" y="-63.5" font-family="Helvetica,sans-Serif" font-size="10.00">src/application/user_interface/pannel/cam_view_pannel.cpp</text>
</a>
</g>
</g>
<!-- Node5&#45;&gt;Node6 -->
<g id="edge5" class="edge">
<title>Node5&#45;&gt;Node6</title>
<path fill="none" stroke="midnightblue" d="M474.5,-101.8C474.5,-92.91 474.5,-82.78 474.5,-75.75"/>
<polygon fill="midnightblue" stroke="midnightblue" points="471,-102.08 474.5,-112.08 478,-102.08 471,-102.08"/>
</g>
<!-- Node5&#45;&gt;Node7 -->
<g id="edge6" class="edge">
<title>Node5&#45;&gt;Node7</title>
<path fill="none" stroke="midnightblue" d="M577.01,-111.54C687.25,-101.36 860.98,-85.33 967.13,-75.53"/>
<polygon fill="midnightblue" stroke="midnightblue" points="576.51,-108.07 566.87,-112.47 577.15,-115.04 576.51,-108.07"/>
</g>
<!-- Node8 -->
<g id="node8" class="node">
<title>Node8</title>
<g id="a_node8"><a xlink:href="user__interface_8cpp.html" target="_top" xlink:title=" ">
<polygon fill="white" stroke="black" points="969,-0.5 969,-19.5 1150,-19.5 1150,-0.5 969,-0.5"/>
<text text-anchor="middle" x="1059.5" y="-7.5" font-family="Helvetica,sans-Serif" font-size="10.00">src/application/user_interface.cpp</text>
</a>
</g>
</g>
<!-- Node7&#45;&gt;Node8 -->
<g id="edge7" class="edge">
<title>Node7&#45;&gt;Node8</title>
<path fill="none" stroke="midnightblue" d="M1059.5,-45.8C1059.5,-36.91 1059.5,-26.78 1059.5,-19.75"/>
<polygon fill="midnightblue" stroke="midnightblue" points="1056,-46.08 1059.5,-56.08 1063,-46.08 1056,-46.08"/>
</g>
<!-- Node9&#45;&gt;Node7 -->
<g id="edge10" class="edge">
<title>Node9&#45;&gt;Node7</title>
<path fill="none" stroke="midnightblue" d="M835.69,-110.47C888.23,-100.27 966.94,-84.98 1015.66,-75.52"/>
<polygon fill="midnightblue" stroke="midnightblue" points="834.7,-107.1 825.55,-112.44 836.03,-113.97 834.7,-107.1"/>
</g>
<!-- Node10 -->
<g id="node10" class="node">
<title>Node10</title>
<g id="a_node10"><a xlink:href="control__pannel_8cpp.html" target="_top" xlink:title=" ">
<polygon fill="white" stroke="black" points="646.5,-56.5 646.5,-75.5 938.5,-75.5 938.5,-56.5 646.5,-56.5"/>
<text text-anchor="middle" x="792.5" y="-63.5" font-family="Helvetica,sans-Serif" font-size="10.00">src/application/user_interface/pannel/control_pannel.cpp</text>
</a>
</g>
</g>
<!-- Node9&#45;&gt;Node10 -->
<g id="edge9" class="edge">
<title>Node9&#45;&gt;Node10</title>
<path fill="none" stroke="midnightblue" d="M785.35,-102.1C787.18,-93.14 789.27,-82.86 790.72,-75.75"/>
<polygon fill="midnightblue" stroke="midnightblue" points="781.88,-101.59 783.32,-112.08 788.74,-102.98 781.88,-101.59"/>
</g>
<!-- Node11&#45;&gt;Node7 -->
<g id="edge13" class="edge">
<title>Node11&#45;&gt;Node7</title>
<path fill="none" stroke="midnightblue" d="M1100.59,-105.25C1090.3,-95.67 1077.53,-83.79 1068.99,-75.83"/>
<polygon fill="midnightblue" stroke="midnightblue" points="1098.48,-108.07 1108.18,-112.32 1103.25,-102.95 1098.48,-108.07"/>
</g>
<!-- Node12 -->
<g id="node12" class="node">
<title>Node12</title>
<g id="a_node12"><a xlink:href="dialog__pannel_8cpp.html" target="_top" xlink:title=" ">
<polygon fill="white" stroke="black" points="1180.5,-56.5 1180.5,-75.5 1468.5,-75.5 1468.5,-56.5 1180.5,-56.5"/>
<text text-anchor="middle" x="1324.5" y="-63.5" font-family="Helvetica,sans-Serif" font-size="10.00">src/application/user_interface/pannel/dialog_pannel.cpp</text>
</a>
</g>
</g>
<!-- Node11&#45;&gt;Node12 -->
<g id="edge12" class="edge">
<title>Node11&#45;&gt;Node12</title>
<path fill="none" stroke="midnightblue" d="M1160.32,-109.83C1199.41,-99.63 1256.33,-84.78 1291.85,-75.52"/>
<polygon fill="midnightblue" stroke="midnightblue" points="1159.09,-106.53 1150.3,-112.44 1160.86,-113.31 1159.09,-106.53"/>
</g>
<!-- Node13&#45;&gt;Node7 -->
<g id="edge16" class="edge">
<title>Node13&#45;&gt;Node7</title>
<path fill="none" stroke="midnightblue" d="M1613.54,-111.65C1486.4,-101.41 1284.31,-85.12 1162.54,-75.3"/>
<polygon fill="midnightblue" stroke="midnightblue" points="1613.46,-115.16 1623.71,-112.47 1614.02,-108.18 1613.46,-115.16"/>
</g>
<!-- Node14 -->
<g id="node14" class="node">
<title>Node14</title>
<g id="a_node14"><a xlink:href="media__pannel_8cpp.html" target="_top" xlink:title=" ">
<polygon fill="white" stroke="black" points="1580,-56.5 1580,-75.5 1869,-75.5 1869,-56.5 1580,-56.5"/>
<text text-anchor="middle" x="1724.5" y="-63.5" font-family="Helvetica,sans-Serif" font-size="10.00">src/application/user_interface/pannel/media_pannel.cpp</text>
</a>
</g>
</g>
<!-- Node13&#45;&gt;Node14 -->
<g id="edge15" class="edge">
<title>Node13&#45;&gt;Node14</title>
<path fill="none" stroke="midnightblue" d="M1727.75,-102.1C1726.92,-93.14 1725.97,-82.86 1725.31,-75.75"/>
<polygon fill="midnightblue" stroke="midnightblue" points="1724.27,-102.45 1728.67,-112.08 1731.24,-101.8 1724.27,-102.45"/>
</g>
<!-- Node15&#45;&gt;Node7 -->
<g id="edge19" class="edge">
<title>Node15&#45;&gt;Node7</title>
<path fill="none" stroke="midnightblue" d="M1876.55,-111.95C1562.06,-94.93 1481.64,-96.36 1171.5,-76 1168.58,-75.81 1165.62,-75.61 1162.63,-75.4"/>
<polygon fill="midnightblue" stroke="midnightblue" points="1876.71,-115.47 1886.88,-112.51 1877.09,-108.48 1876.71,-115.47"/>
</g>
<!-- Node16 -->
<g id="node16" class="node">
<title>Node16</title>
<g id="a_node16"><a xlink:href="top__view__pannel_8cpp.html" target="_top" xlink:title=" ">
<polygon fill="white" stroke="black" points="1887.5,-56.5 1887.5,-75.5 2189.5,-75.5 2189.5,-56.5 1887.5,-56.5"/>
<text text-anchor="middle" x="2038.5" y="-63.5" font-family="Helvetica,sans-Serif" font-size="10.00">src/application/user_interface/pannel/top_view_pannel.cpp</text>
</a>
</g>
</g>
<!-- Node15&#45;&gt;Node16 -->
<g id="edge18" class="edge">
<title>Node15&#45;&gt;Node16</title>
<path fill="none" stroke="midnightblue" d="M2034.6,-102.1C2035.6,-93.14 2036.74,-82.86 2037.53,-75.75"/>
<polygon fill="midnightblue" stroke="midnightblue" points="2031.12,-101.76 2033.49,-112.08 2038.07,-102.53 2031.12,-101.76"/>
</g>
<!-- Node17&#45;&gt;Node8 -->
<g id="edge26" class="edge">
<title>Node17&#45;&gt;Node8</title>
<path fill="none" stroke="midnightblue" d="M239.26,-104.83C255.67,-89.19 282.92,-66.37 311.5,-56 371.8,-34.11 783.25,-19.24 968.93,-13.56"/>
<polygon fill="midnightblue" stroke="midnightblue" points="236.4,-102.75 231.72,-112.26 241.31,-107.74 236.4,-102.75"/>
</g>
<!-- Node18 -->
<g id="node18" class="node">
<title>Node18</title>
<g id="a_node18"><a xlink:href="application_8cpp.html" target="_top" xlink:title=" ">
<polygon fill="white" stroke="black" points="0,-0.5 0,-19.5 165,-19.5 165,-0.5 0,-0.5"/>
<text text-anchor="middle" x="82.5" y="-7.5" font-family="Helvetica,sans-Serif" font-size="10.00">src/application/application.cpp</text>
</a>
</g>
</g>
<!-- Node17&#45;&gt;Node18 -->
<g id="edge22" class="edge">
<title>Node17&#45;&gt;Node18</title>
<path fill="none" stroke="midnightblue" d="M160.06,-109.65C138.96,-103.01 116.93,-92.53 101.5,-76 86.74,-60.18 83.38,-33.52 82.66,-19.78"/>
<polygon fill="midnightblue" stroke="midnightblue" points="159.09,-113.01 169.67,-112.44 161.04,-106.29 159.09,-113.01"/>
</g>
<!-- Node19 -->
<g id="node19" class="node">
<title>Node19</title>
<g id="a_node19"><a xlink:href="application_8h.html" target="_top" xlink:title=" ">
<polygon fill="white" stroke="black" points="110.5,-56.5 110.5,-75.5 264.5,-75.5 264.5,-56.5 110.5,-56.5"/>
<text text-anchor="middle" x="187.5" y="-63.5" font-family="Helvetica,sans-Serif" font-size="10.00">src/application/application.h</text>
</a>
</g>
</g>
<!-- Node17&#45;&gt;Node19 -->
<g id="edge23" class="edge">
<title>Node17&#45;&gt;Node19</title>
<path fill="none" stroke="midnightblue" d="M211.88,-103.57C205.68,-94.27 198.33,-83.25 193.33,-75.75"/>
<polygon fill="midnightblue" stroke="midnightblue" points="209.1,-105.7 217.56,-112.08 214.92,-101.82 209.1,-105.7"/>
</g>
<!-- Node19&#45;&gt;Node18 -->
<g id="edge25" class="edge">
<title>Node19&#45;&gt;Node18</title>
<path fill="none" stroke="midnightblue" d="M161.69,-51.73C142.25,-41.73 116.15,-28.31 99.33,-19.65"/>
<polygon fill="midnightblue" stroke="midnightblue" points="160.14,-54.86 170.63,-56.32 163.34,-48.64 160.14,-54.86"/>
</g>
<!-- Node20 -->
<g id="node20" class="node">
<title>Node20</title>
<g id="a_node20"><a xlink:href="app_2main_8cpp.html" target="_top" xlink:title=" ">
<polygon fill="white" stroke="black" points="183,-0.5 183,-19.5 266,-19.5 266,-0.5 183,-0.5"/>
<text text-anchor="middle" x="224.5" y="-7.5" font-family="Helvetica,sans-Serif" font-size="10.00">app/main.cpp</text>
</a>
</g>
</g>
<!-- Node19&#45;&gt;Node20 -->
<g id="edge24" class="edge">
<title>Node19&#45;&gt;Node20</title>
<path fill="none" stroke="midnightblue" d="M199.45,-47.57C205.81,-38.27 213.37,-27.25 218.5,-19.75"/>
<polygon fill="midnightblue" stroke="midnightblue" points="196.37,-45.86 193.61,-56.08 202.15,-49.81 196.37,-45.86"/>
</g>
<!-- Node23 -->
<g id="node23" class="node">
<title>Node23</title>
<g id="a_node23"><a xlink:href="kitti__data__reader_8cpp.html" target="_top" xlink:title=" ">
<polygon fill="white" stroke="black" points="2196.5,-112.5 2196.5,-131.5 2394.5,-131.5 2394.5,-112.5 2196.5,-112.5"/>
<text text-anchor="middle" x="2295.5" y="-119.5" font-family="Helvetica,sans-Serif" font-size="10.00">src/data_reader/kitti_data_reader.cpp</text>
</a>
</g>
</g>
<!-- Node22&#45;&gt;Node23 -->
<g id="edge30" class="edge">
<title>Node22&#45;&gt;Node23</title>
<path fill="none" stroke="midnightblue" d="M2295.5,-157.8C2295.5,-148.91 2295.5,-138.78 2295.5,-131.75"/>
<polygon fill="midnightblue" stroke="midnightblue" points="2292,-158.08 2295.5,-168.08 2299,-158.08 2292,-158.08"/>
</g>
<!-- Node22&#45;&gt;Node24 -->
<g id="edge31" class="edge">
<title>Node22&#45;&gt;Node24</title>
<path fill="none" stroke="midnightblue" d="M2331.89,-165.3C2363.54,-155.13 2408.67,-140.62 2437,-131.52"/>
<polygon fill="midnightblue" stroke="midnightblue" points="2330.57,-162.05 2322.12,-168.44 2332.71,-168.72 2330.57,-162.05"/>
</g>
<!-- Node24&#45;&gt;Node8 -->
<g id="edge32" class="edge">
<title>Node24&#45;&gt;Node8</title>
<path fill="none" stroke="midnightblue" d="M2426.53,-109.42C2375.73,-94.1 2281.22,-67.66 2198.5,-56 1996.78,-27.57 1382.87,-15.76 1150.2,-12.23"/>
<polygon fill="midnightblue" stroke="midnightblue" points="2425.8,-112.86 2436.39,-112.43 2427.84,-106.17 2425.8,-112.86"/>
</g>
<!-- Node25&#45;&gt;Node24 -->
<g id="edge35" class="edge">
<title>Node25&#45;&gt;Node24</title>
<path fill="none" stroke="midnightblue" d="M2519.6,-162.34C2505.59,-152.52 2487.62,-139.91 2475.84,-131.65"/>
<polygon fill="midnightblue" stroke="midnightblue" points="2517.93,-165.45 2528.13,-168.32 2521.95,-159.72 2517.93,-165.45"/>
</g>
<!-- Node26 -->
<g id="node26" class="node">
<title>Node26</title>
<g id="a_node26"><a xlink:href="none__data__reader_8cpp.html" target="_top" xlink:title=" ">
<polygon fill="white" stroke="black" points="2532,-112.5 2532,-131.5 2735,-131.5 2735,-112.5 2532,-112.5"/>
<text text-anchor="middle" x="2633.5" y="-119.5" font-family="Helvetica,sans-Serif" font-size="10.00">src/data_reader/none_data_reader.cpp</text>
</a>
</g>
</g>
<!-- Node25&#45;&gt;Node26 -->
<g id="edge34" class="edge">
<title>Node25&#45;&gt;Node26</title>
<path fill="none" stroke="midnightblue" d="M2564.31,-163.18C2581.42,-153.24 2603.97,-140.15 2618.6,-131.65"/>
<polygon fill="midnightblue" stroke="midnightblue" points="2562.33,-160.28 2555.44,-168.32 2565.85,-166.33 2562.33,-160.28"/>
</g>
</g>
</svg>
