<?xml version="1.0" encoding="UTF-8" standalone="no"?>
<!DOCTYPE svg PUBLIC "-//W3C//DTD SVG 1.1//EN"
 "http://www.w3.org/Graphics/SVG/1.1/DTD/svg11.dtd">
<!-- Generated by graphviz version 2.43.0 (0)
 -->
<!-- Title: src/user_interface/ui.cpp Pages: 1 -->
<svg width="476pt" height="196pt"
 viewBox="0.00 0.00 476.44 196.00" xmlns="http://www.w3.org/2000/svg" xmlns:xlink="http://www.w3.org/1999/xlink">
<g id="graph0" class="graph" transform="scale(1 1) rotate(0) translate(4 192)">
<title>src/user_interface/ui.cpp</title>
<polygon fill="white" stroke="transparent" points="-4,4 -4,-192 472.44,-192 472.44,4 -4,4"/>
<!-- Node1 -->
<g id="node1" class="node">
<title>Node1</title>
<g id="a_node1"><a xlink:title=" ">
<polygon fill="#bfbfbf" stroke="black" points="251.44,-168.5 251.44,-187.5 387.44,-187.5 387.44,-168.5 251.44,-168.5"/>
<text text-anchor="middle" x="319.44" y="-175.5" font-family="Helvetica,sans-Serif" font-size="10.00">src/user_interface/ui.cpp</text>
</a>
</g>
</g>
<!-- Node2 -->
<g id="node2" class="node">
<title>Node2</title>
<g id="a_node2"><a xlink:href="ui_8h.html" target="_top" xlink:title=" ">
<polygon fill="white" stroke="black" points="129.94,-112.5 129.94,-131.5 164.94,-131.5 164.94,-112.5 129.94,-112.5"/>
<text text-anchor="middle" x="147.44" y="-119.5" font-family="Helvetica,sans-Serif" font-size="10.00">ui.h</text>
</a>
</g>
</g>
<!-- Node1&#45;&gt;Node2 -->
<g id="edge1" class="edge">
<title>Node1&#45;&gt;Node2</title>
<path fill="none" stroke="midnightblue" d="M292.19,-168.44C260.05,-158.35 206.94,-141.68 174.77,-131.58"/>
<polygon fill="midnightblue" stroke="midnightblue" points="175.7,-128.2 165.12,-128.55 173.61,-134.88 175.7,-128.2"/>
</g>
<!-- Node8 -->
<g id="node8" class="node">
<title>Node8</title>
<g id="a_node8"><a xlink:href="imgui_8h.html" target="_top" xlink:title=" ">
<polygon fill="white" stroke="black" points="265.94,-56.5 265.94,-75.5 360.94,-75.5 360.94,-56.5 265.94,-56.5"/>
<text text-anchor="middle" x="313.44" y="-63.5" font-family="Helvetica,sans-Serif" font-size="10.00">src/utils/imgui.h</text>
</a>
</g>
</g>
<!-- Node1&#45;&gt;Node8 -->
<g id="edge11" class="edge">
<title>Node1&#45;&gt;Node8</title>
<path fill="none" stroke="midnightblue" d="M318.24,-168.39C317.03,-159.35 315.24,-144.71 314.44,-132 313.46,-116.49 313.25,-98.87 313.26,-85.88"/>
<polygon fill="midnightblue" stroke="midnightblue" points="316.76,-85.86 313.31,-75.84 309.76,-85.82 316.76,-85.86"/>
</g>
<!-- Node10 -->
<g id="node10" class="node">
<title>Node10</title>
<g id="a_node10"><a xlink:title=" ">
<polygon fill="white" stroke="#bfbfbf" points="322.94,-112.5 322.94,-131.5 367.94,-131.5 367.94,-112.5 322.94,-112.5"/>
<text text-anchor="middle" x="345.44" y="-119.5" font-family="Helvetica,sans-Serif" font-size="10.00">utility</text>
</a>
</g>
</g>
<!-- Node1&#45;&gt;Node10 -->
<g id="edge10" class="edge">
<title>Node1&#45;&gt;Node10</title>
<path fill="none" stroke="midnightblue" d="M323.73,-168.08C327.29,-160.69 332.46,-149.95 336.87,-140.81"/>
<polygon fill="midnightblue" stroke="midnightblue" points="340.04,-142.28 341.23,-131.75 333.74,-139.24 340.04,-142.28"/>
</g>
<!-- Node11 -->
<g id="node11" class="node">
<title>Node11</title>
<g id="a_node11"><a xlink:href="log_8h.html" target="_top" xlink:title=" ">
<polygon fill="white" stroke="black" points="386.44,-112.5 386.44,-131.5 468.44,-131.5 468.44,-112.5 386.44,-112.5"/>
<text text-anchor="middle" x="427.44" y="-119.5" font-family="Helvetica,sans-Serif" font-size="10.00">src/utils/log.h</text>
</a>
</g>
</g>
<!-- Node1&#45;&gt;Node11 -->
<g id="edge12" class="edge">
<title>Node1&#45;&gt;Node11</title>
<path fill="none" stroke="midnightblue" d="M336.79,-168.32C354.11,-159.66 380.96,-146.24 400.94,-136.25"/>
<polygon fill="midnightblue" stroke="midnightblue" points="402.75,-139.26 410.13,-131.65 399.62,-133 402.75,-139.26"/>
</g>
<!-- Node3 -->
<g id="node3" class="node">
<title>Node3</title>
<g id="a_node3"><a xlink:title=" ">
<polygon fill="white" stroke="#bfbfbf" points="28.44,-0.5 28.44,-19.5 86.44,-19.5 86.44,-0.5 28.44,-0.5"/>
<text text-anchor="middle" x="57.44" y="-7.5" font-family="Helvetica,sans-Serif" font-size="10.00">memory</text>
</a>
</g>
</g>
<!-- Node2&#45;&gt;Node3 -->
<g id="edge2" class="edge">
<title>Node2&#45;&gt;Node3</title>
<path fill="none" stroke="midnightblue" d="M129.66,-121.52C98.29,-121.35 33.69,-115.87 4.44,-76 -8.85,-57.88 13.15,-37.98 32.72,-25.03"/>
<polygon fill="midnightblue" stroke="midnightblue" points="34.78,-27.87 41.41,-19.61 31.07,-21.94 34.78,-27.87"/>
</g>
<!-- Node4 -->
<g id="node4" class="node">
<title>Node4</title>
<g id="a_node4"><a xlink:title=" ">
<polygon fill="white" stroke="#bfbfbf" points="13.44,-56.5 13.44,-75.5 57.44,-75.5 57.44,-56.5 13.44,-56.5"/>
<text text-anchor="middle" x="35.44" y="-63.5" font-family="Helvetica,sans-Serif" font-size="10.00">string</text>
</a>
</g>
</g>
<!-- Node2&#45;&gt;Node4 -->
<g id="edge3" class="edge">
<title>Node2&#45;&gt;Node4</title>
<path fill="none" stroke="midnightblue" d="M129.45,-112.32C111.4,-103.62 83.39,-90.12 62.64,-80.11"/>
<polygon fill="midnightblue" stroke="midnightblue" points="63.92,-76.84 53.39,-75.65 60.88,-83.15 63.92,-76.84"/>
</g>
<!-- Node5 -->
<g id="node5" class="node">
<title>Node5</title>
<g id="a_node5"><a xlink:title=" ">
<polygon fill="white" stroke="#bfbfbf" points="75.94,-56.5 75.94,-75.5 122.94,-75.5 122.94,-56.5 75.94,-56.5"/>
<text text-anchor="middle" x="99.44" y="-63.5" font-family="Helvetica,sans-Serif" font-size="10.00">vector</text>
</a>
</g>
</g>
<!-- Node2&#45;&gt;Node5 -->
<g id="edge4" class="edge">
<title>Node2&#45;&gt;Node5</title>
<path fill="none" stroke="midnightblue" d="M139.51,-112.08C132.6,-104.3 122.38,-92.8 113.99,-83.37"/>
<polygon fill="midnightblue" stroke="midnightblue" points="116.48,-80.9 107.22,-75.75 111.25,-85.55 116.48,-80.9"/>
</g>
<!-- Node6 -->
<g id="node6" class="node">
<title>Node6</title>
<g id="a_node6"><a xlink:href="callback_8h.html" target="_top" xlink:title=" ">
<polygon fill="white" stroke="black" points="140.94,-56.5 140.94,-75.5 247.94,-75.5 247.94,-56.5 140.94,-56.5"/>
<text text-anchor="middle" x="194.44" y="-63.5" font-family="Helvetica,sans-Serif" font-size="10.00">src/utils/callback.h</text>
</a>
</g>
</g>
<!-- Node2&#45;&gt;Node6 -->
<g id="edge5" class="edge">
<title>Node2&#45;&gt;Node6</title>
<path fill="none" stroke="midnightblue" d="M155.2,-112.08C161.98,-104.3 171.98,-92.8 180.2,-83.37"/>
<polygon fill="midnightblue" stroke="midnightblue" points="182.9,-85.59 186.82,-75.75 177.62,-81 182.9,-85.59"/>
</g>
<!-- Node2&#45;&gt;Node8 -->
<g id="edge8" class="edge">
<title>Node2&#45;&gt;Node8</title>
<path fill="none" stroke="midnightblue" d="M165.21,-115.22C191.85,-106.55 242.72,-90.01 277.36,-78.74"/>
<polygon fill="midnightblue" stroke="midnightblue" points="278.68,-81.99 287.1,-75.57 276.51,-75.33 278.68,-81.99"/>
</g>
<!-- Node6&#45;&gt;Node3 -->
<g id="edge7" class="edge">
<title>Node6&#45;&gt;Node3</title>
<path fill="none" stroke="midnightblue" d="M172.73,-56.44C150.09,-47.52 114.37,-33.44 88.69,-23.32"/>
<polygon fill="midnightblue" stroke="midnightblue" points="89.63,-19.93 79.05,-19.52 87.07,-26.44 89.63,-19.93"/>
</g>
<!-- Node7 -->
<g id="node7" class="node">
<title>Node7</title>
<g id="a_node7"><a xlink:title=" ">
<polygon fill="white" stroke="#bfbfbf" points="176.94,-0.5 176.94,-19.5 211.94,-19.5 211.94,-0.5 176.94,-0.5"/>
<text text-anchor="middle" x="194.44" y="-7.5" font-family="Helvetica,sans-Serif" font-size="10.00">any</text>
</a>
</g>
</g>
<!-- Node6&#45;&gt;Node7 -->
<g id="edge6" class="edge">
<title>Node6&#45;&gt;Node7</title>
<path fill="none" stroke="midnightblue" d="M194.44,-56.08C194.44,-49.01 194.44,-38.86 194.44,-29.99"/>
<polygon fill="midnightblue" stroke="midnightblue" points="197.94,-29.75 194.44,-19.75 190.94,-29.75 197.94,-29.75"/>
</g>
<!-- Node9 -->
<g id="node9" class="node">
<title>Node9</title>
<g id="a_node9"><a xlink:title=" ">
<polygon fill="white" stroke="#bfbfbf" points="264.44,-0.5 264.44,-19.5 362.44,-19.5 362.44,-0.5 264.44,-0.5"/>
<text text-anchor="middle" x="313.44" y="-7.5" font-family="Helvetica,sans-Serif" font-size="10.00">bindings/imgui.h</text>
</a>
</g>
</g>
<!-- Node8&#45;&gt;Node9 -->
<g id="edge9" class="edge">
<title>Node8&#45;&gt;Node9</title>
<path fill="none" stroke="midnightblue" d="M313.44,-56.08C313.44,-49.01 313.44,-38.86 313.44,-29.99"/>
<polygon fill="midnightblue" stroke="midnightblue" points="316.94,-29.75 313.44,-19.75 309.94,-29.75 316.94,-29.75"/>
</g>
<!-- Node12 -->
<g id="node12" class="node">
<title>Node12</title>
<g id="a_node12"><a xlink:title=" ">
<polygon fill="white" stroke="#bfbfbf" points="397.44,-56.5 397.44,-75.5 457.44,-75.5 457.44,-56.5 397.44,-56.5"/>
<text text-anchor="middle" x="427.44" y="-63.5" font-family="Helvetica,sans-Serif" font-size="10.00">iostream</text>
</a>
</g>
</g>
<!-- Node11&#45;&gt;Node12 -->
<g id="edge13" class="edge">
<title>Node11&#45;&gt;Node12</title>
<path fill="none" stroke="midnightblue" d="M427.44,-112.08C427.44,-105.01 427.44,-94.86 427.44,-85.99"/>
<polygon fill="midnightblue" stroke="midnightblue" points="430.94,-85.75 427.44,-75.75 423.94,-85.75 430.94,-85.75"/>
</g>
</g>
</svg>
