<?xml version="1.0" encoding="UTF-8" standalone="no"?>
<!DOCTYPE svg PUBLIC "-//W3C//DTD SVG 1.1//EN"
 "http://www.w3.org/Graphics/SVG/1.1/DTD/svg11.dtd">
<!-- Generated by graphviz version 2.43.0 (0)
 -->
<!-- Title: src/user_interface/ui.h Pages: 1 -->
<svg width="370pt" height="140pt"
 viewBox="0.00 0.00 369.88 140.00" xmlns="http://www.w3.org/2000/svg" xmlns:xlink="http://www.w3.org/1999/xlink">
<g id="graph0" class="graph" transform="scale(1 1) rotate(0) translate(4 136)">
<title>src/user_interface/ui.h</title>
<polygon fill="white" stroke="transparent" points="-4,4 -4,-136 365.88,-136 365.88,4 -4,4"/>
<!-- Node1 -->
<g id="node1" class="node">
<title>Node1</title>
<g id="a_node1"><a xlink:title=" ">
<polygon fill="#bfbfbf" stroke="black" points="36.38,-112.5 36.38,-131.5 161.38,-131.5 161.38,-112.5 36.38,-112.5"/>
<text text-anchor="middle" x="98.88" y="-119.5" font-family="Helvetica,sans-Serif" font-size="10.00">src/user_interface/ui.h</text>
</a>
</g>
</g>
<!-- Node2 -->
<g id="node2" class="node">
<title>Node2</title>
<g id="a_node2"><a xlink:title=" ">
<polygon fill="white" stroke="#bfbfbf" points="27.88,-0.5 27.88,-19.5 85.88,-19.5 85.88,-0.5 27.88,-0.5"/>
<text text-anchor="middle" x="56.88" y="-7.5" font-family="Helvetica,sans-Serif" font-size="10.00">memory</text>
</a>
</g>
</g>
<!-- Node1&#45;&gt;Node2 -->
<g id="edge1" class="edge">
<title>Node1&#45;&gt;Node2</title>
<path fill="none" stroke="midnightblue" d="M57.83,-112.38C37.92,-105.92 15.79,-94.81 3.88,-76 -8.02,-57.2 13.17,-37.69 32.19,-25.01"/>
<polygon fill="midnightblue" stroke="midnightblue" points="34.31,-27.81 40.92,-19.53 30.59,-21.88 34.31,-27.81"/>
</g>
<!-- Node3 -->
<g id="node3" class="node">
<title>Node3</title>
<g id="a_node3"><a xlink:title=" ">
<polygon fill="white" stroke="#bfbfbf" points="12.88,-56.5 12.88,-75.5 56.88,-75.5 56.88,-56.5 12.88,-56.5"/>
<text text-anchor="middle" x="34.88" y="-63.5" font-family="Helvetica,sans-Serif" font-size="10.00">string</text>
</a>
</g>
</g>
<!-- Node1&#45;&gt;Node3 -->
<g id="edge2" class="edge">
<title>Node1&#45;&gt;Node3</title>
<path fill="none" stroke="midnightblue" d="M88.6,-112.32C79.04,-104.26 64.6,-92.08 53.1,-82.37"/>
<polygon fill="midnightblue" stroke="midnightblue" points="55.25,-79.61 45.35,-75.83 50.74,-84.96 55.25,-79.61"/>
</g>
<!-- Node4 -->
<g id="node4" class="node">
<title>Node4</title>
<g id="a_node4"><a xlink:title=" ">
<polygon fill="white" stroke="#bfbfbf" points="75.38,-56.5 75.38,-75.5 122.38,-75.5 122.38,-56.5 75.38,-56.5"/>
<text text-anchor="middle" x="98.88" y="-63.5" font-family="Helvetica,sans-Serif" font-size="10.00">vector</text>
</a>
</g>
</g>
<!-- Node1&#45;&gt;Node4 -->
<g id="edge3" class="edge">
<title>Node1&#45;&gt;Node4</title>
<path fill="none" stroke="midnightblue" d="M98.88,-112.08C98.88,-105.01 98.88,-94.86 98.88,-85.99"/>
<polygon fill="midnightblue" stroke="midnightblue" points="102.38,-85.75 98.88,-75.75 95.38,-85.75 102.38,-85.75"/>
</g>
<!-- Node5 -->
<g id="node5" class="node">
<title>Node5</title>
<g id="a_node5"><a xlink:href="callback_8h.html" target="_top" xlink:title=" ">
<polygon fill="white" stroke="black" points="140.38,-56.5 140.38,-75.5 247.38,-75.5 247.38,-56.5 140.38,-56.5"/>
<text text-anchor="middle" x="193.88" y="-63.5" font-family="Helvetica,sans-Serif" font-size="10.00">src/utils/callback.h</text>
</a>
</g>
</g>
<!-- Node1&#45;&gt;Node5 -->
<g id="edge4" class="edge">
<title>Node1&#45;&gt;Node5</title>
<path fill="none" stroke="midnightblue" d="M114.14,-112.32C129.1,-103.82 152.14,-90.73 169.61,-80.8"/>
<polygon fill="midnightblue" stroke="midnightblue" points="171.69,-83.64 178.66,-75.65 168.23,-77.55 171.69,-83.64"/>
</g>
<!-- Node7 -->
<g id="node7" class="node">
<title>Node7</title>
<g id="a_node7"><a xlink:href="imgui_8h.html" target="_top" xlink:title=" ">
<polygon fill="white" stroke="black" points="265.38,-56.5 265.38,-75.5 360.38,-75.5 360.38,-56.5 265.38,-56.5"/>
<text text-anchor="middle" x="312.88" y="-63.5" font-family="Helvetica,sans-Serif" font-size="10.00">src/utils/imgui.h</text>
</a>
</g>
</g>
<!-- Node1&#45;&gt;Node7 -->
<g id="edge7" class="edge">
<title>Node1&#45;&gt;Node7</title>
<path fill="none" stroke="midnightblue" d="M132.79,-112.44C169.73,-103.12 228.93,-88.18 269.3,-78"/>
<polygon fill="midnightblue" stroke="midnightblue" points="270.29,-81.36 279.13,-75.52 268.58,-74.57 270.29,-81.36"/>
</g>
<!-- Node5&#45;&gt;Node2 -->
<g id="edge6" class="edge">
<title>Node5&#45;&gt;Node2</title>
<path fill="none" stroke="midnightblue" d="M172.17,-56.44C149.53,-47.52 113.81,-33.44 88.13,-23.32"/>
<polygon fill="midnightblue" stroke="midnightblue" points="89.07,-19.93 78.49,-19.52 86.51,-26.44 89.07,-19.93"/>
</g>
<!-- Node6 -->
<g id="node6" class="node">
<title>Node6</title>
<g id="a_node6"><a xlink:title=" ">
<polygon fill="white" stroke="#bfbfbf" points="176.38,-0.5 176.38,-19.5 211.38,-19.5 211.38,-0.5 176.38,-0.5"/>
<text text-anchor="middle" x="193.88" y="-7.5" font-family="Helvetica,sans-Serif" font-size="10.00">any</text>
</a>
</g>
</g>
<!-- Node5&#45;&gt;Node6 -->
<g id="edge5" class="edge">
<title>Node5&#45;&gt;Node6</title>
<path fill="none" stroke="midnightblue" d="M193.88,-56.08C193.88,-49.01 193.88,-38.86 193.88,-29.99"/>
<polygon fill="midnightblue" stroke="midnightblue" points="197.38,-29.75 193.88,-19.75 190.38,-29.75 197.38,-29.75"/>
</g>
<!-- Node8 -->
<g id="node8" class="node">
<title>Node8</title>
<g id="a_node8"><a xlink:title=" ">
<polygon fill="white" stroke="#bfbfbf" points="263.88,-0.5 263.88,-19.5 361.88,-19.5 361.88,-0.5 263.88,-0.5"/>
<text text-anchor="middle" x="312.88" y="-7.5" font-family="Helvetica,sans-Serif" font-size="10.00">bindings/imgui.h</text>
</a>
</g>
</g>
<!-- Node7&#45;&gt;Node8 -->
<g id="edge8" class="edge">
<title>Node7&#45;&gt;Node8</title>
<path fill="none" stroke="midnightblue" d="M312.88,-56.08C312.88,-49.01 312.88,-38.86 312.88,-29.99"/>
<polygon fill="midnightblue" stroke="midnightblue" points="316.38,-29.75 312.88,-19.75 309.38,-29.75 316.38,-29.75"/>
</g>
</g>
</svg>
