<?xml version="1.0" encoding="UTF-8" standalone="no"?>
<!DOCTYPE svg PUBLIC "-//W3C//DTD SVG 1.1//EN"
 "http://www.w3.org/Graphics/SVG/1.1/DTD/svg11.dtd">
<!-- Generated by graphviz version 2.43.0 (0)
 -->
<!-- Title: src/user_interface/ui.h Pages: 1 -->
<svg width="419pt" height="140pt"
 viewBox="0.00 0.00 418.50 140.00" xmlns="http://www.w3.org/2000/svg" xmlns:xlink="http://www.w3.org/1999/xlink">
<g id="graph0" class="graph" transform="scale(1 1) rotate(0) translate(4 136)">
<title>src/user_interface/ui.h</title>
<polygon fill="white" stroke="transparent" points="-4,4 -4,-136 414.5,-136 414.5,4 -4,4"/>
<!-- Node1 -->
<g id="node1" class="node">
<title>Node1</title>
<g id="a_node1"><a xlink:title=" ">
<polygon fill="#bfbfbf" stroke="black" points="176.5,-112.5 176.5,-131.5 301.5,-131.5 301.5,-112.5 176.5,-112.5"/>
<text text-anchor="middle" x="239" y="-119.5" font-family="Helvetica,sans-Serif" font-size="10.00">src/user_interface/ui.h</text>
</a>
</g>
</g>
<!-- Node2 -->
<g id="node2" class="node">
<title>Node2</title>
<g id="a_node2"><a xlink:href="button_8h.html" target="_top" xlink:title=" ">
<polygon fill="white" stroke="black" points="5.5,-56.5 5.5,-75.5 152.5,-75.5 152.5,-56.5 5.5,-56.5"/>
<text text-anchor="middle" x="79" y="-63.5" font-family="Helvetica,sans-Serif" font-size="10.00">src/user_interface/button.h</text>
</a>
</g>
</g>
<!-- Node1&#45;&gt;Node2 -->
<g id="edge1" class="edge">
<title>Node1&#45;&gt;Node2</title>
<path fill="none" stroke="midnightblue" d="M203.95,-109.17C173.83,-99 131.1,-84.59 104.23,-75.52"/>
<polygon fill="midnightblue" stroke="midnightblue" points="203.05,-112.56 213.65,-112.44 205.29,-105.93 203.05,-112.56"/>
</g>
<!-- Node5 -->
<g id="node5" class="node">
<title>Node5</title>
<g id="a_node5"><a xlink:href="ui_8cpp.html" target="_top" xlink:title=" ">
<polygon fill="white" stroke="black" points="171,-56.5 171,-75.5 307,-75.5 307,-56.5 171,-56.5"/>
<text text-anchor="middle" x="239" y="-63.5" font-family="Helvetica,sans-Serif" font-size="10.00">src/user_interface/ui.cpp</text>
</a>
</g>
</g>
<!-- Node1&#45;&gt;Node5 -->
<g id="edge4" class="edge">
<title>Node1&#45;&gt;Node5</title>
<path fill="none" stroke="midnightblue" d="M239,-101.8C239,-92.91 239,-82.78 239,-75.75"/>
<polygon fill="midnightblue" stroke="midnightblue" points="235.5,-102.08 239,-112.08 242.5,-102.08 235.5,-102.08"/>
</g>
<!-- Node6 -->
<g id="node6" class="node">
<title>Node6</title>
<g id="a_node6"><a xlink:href="window_8h.html" target="_top" xlink:title=" ">
<polygon fill="white" stroke="black" points="325,-56.5 325,-75.5 405,-75.5 405,-56.5 325,-56.5"/>
<text text-anchor="middle" x="365" y="-63.5" font-family="Helvetica,sans-Serif" font-size="10.00">src/window.h</text>
</a>
</g>
</g>
<!-- Node1&#45;&gt;Node6 -->
<g id="edge5" class="edge">
<title>Node1&#45;&gt;Node6</title>
<path fill="none" stroke="midnightblue" d="M268.16,-108.5C291.78,-98.38 324.43,-84.39 345.13,-75.52"/>
<polygon fill="midnightblue" stroke="midnightblue" points="266.78,-105.29 258.97,-112.44 269.54,-111.72 266.78,-105.29"/>
</g>
<!-- Node3 -->
<g id="node3" class="node">
<title>Node3</title>
<g id="a_node3"><a xlink:href="app_2main_8cpp.html" target="_top" xlink:title=" ">
<polygon fill="white" stroke="black" points="197.5,-0.5 197.5,-19.5 280.5,-19.5 280.5,-0.5 197.5,-0.5"/>
<text text-anchor="middle" x="239" y="-7.5" font-family="Helvetica,sans-Serif" font-size="10.00">app/main.cpp</text>
</a>
</g>
</g>
<!-- Node2&#45;&gt;Node3 -->
<g id="edge2" class="edge">
<title>Node2&#45;&gt;Node3</title>
<path fill="none" stroke="midnightblue" d="M114.05,-53.17C144.17,-43 186.9,-28.59 213.77,-19.52"/>
<polygon fill="midnightblue" stroke="midnightblue" points="112.71,-49.93 104.35,-56.44 114.95,-56.56 112.71,-49.93"/>
</g>
<!-- Node4 -->
<g id="node4" class="node">
<title>Node4</title>
<g id="a_node4"><a xlink:href="button_8cpp.html" target="_top" xlink:title=" ">
<polygon fill="white" stroke="black" points="0,-0.5 0,-19.5 158,-19.5 158,-0.5 0,-0.5"/>
<text text-anchor="middle" x="79" y="-7.5" font-family="Helvetica,sans-Serif" font-size="10.00">src/user_interface/button.cpp</text>
</a>
</g>
</g>
<!-- Node2&#45;&gt;Node4 -->
<g id="edge3" class="edge">
<title>Node2&#45;&gt;Node4</title>
<path fill="none" stroke="midnightblue" d="M79,-45.8C79,-36.91 79,-26.78 79,-19.75"/>
<polygon fill="midnightblue" stroke="midnightblue" points="75.5,-46.08 79,-56.08 82.5,-46.08 75.5,-46.08"/>
</g>
<!-- Node6&#45;&gt;Node3 -->
<g id="edge6" class="edge">
<title>Node6&#45;&gt;Node3</title>
<path fill="none" stroke="midnightblue" d="M335.84,-52.5C312.22,-42.38 279.57,-28.39 258.87,-19.52"/>
<polygon fill="midnightblue" stroke="midnightblue" points="334.46,-55.72 345.03,-56.44 337.22,-49.29 334.46,-55.72"/>
</g>
<!-- Node7 -->
<g id="node7" class="node">
<title>Node7</title>
<g id="a_node7"><a xlink:href="window_8cpp.html" target="_top" xlink:title=" ">
<polygon fill="white" stroke="black" points="319.5,-0.5 319.5,-19.5 410.5,-19.5 410.5,-0.5 319.5,-0.5"/>
<text text-anchor="middle" x="365" y="-7.5" font-family="Helvetica,sans-Serif" font-size="10.00">src/window.cpp</text>
</a>
</g>
</g>
<!-- Node6&#45;&gt;Node7 -->
<g id="edge7" class="edge">
<title>Node6&#45;&gt;Node7</title>
<path fill="none" stroke="midnightblue" d="M365,-45.8C365,-36.91 365,-26.78 365,-19.75"/>
<polygon fill="midnightblue" stroke="midnightblue" points="361.5,-46.08 365,-56.08 368.5,-46.08 361.5,-46.08"/>
</g>
</g>
</svg>
