<?xml version="1.0" encoding="UTF-8" standalone="no"?>
<!DOCTYPE svg PUBLIC "-//W3C//DTD SVG 1.1//EN"
 "http://www.w3.org/Graphics/SVG/1.1/DTD/svg11.dtd">
<!-- Generated by graphviz version 2.43.0 (0)
 -->
<!-- Title: src/user_interface/ui.cpp Pages: 1 -->
<svg width="589pt" height="196pt"
 viewBox="0.00 0.00 588.91 196.00" xmlns="http://www.w3.org/2000/svg" xmlns:xlink="http://www.w3.org/1999/xlink">
<g id="graph0" class="graph" transform="scale(1 1) rotate(0) translate(4 192)">
<title>src/user_interface/ui.cpp</title>
<polygon fill="white" stroke="transparent" points="-4,4 -4,-192 584.91,-192 584.91,4 -4,4"/>
<!-- Node1 -->
<g id="node1" class="node">
<title>Node1</title>
<g id="a_node1"><a xlink:title=" ">
<polygon fill="#bfbfbf" stroke="black" points="363.91,-168.5 363.91,-187.5 499.91,-187.5 499.91,-168.5 363.91,-168.5"/>
<text text-anchor="middle" x="431.91" y="-175.5" font-family="Helvetica,sans-Serif" font-size="10.00">src/user_interface/ui.cpp</text>
</a>
</g>
</g>
<!-- Node2 -->
<g id="node2" class="node">
<title>Node2</title>
<g id="a_node2"><a xlink:href="ui_8h.html" target="_top" xlink:title=" ">
<polygon fill="white" stroke="black" points="194.41,-112.5 194.41,-131.5 229.41,-131.5 229.41,-112.5 194.41,-112.5"/>
<text text-anchor="middle" x="211.91" y="-119.5" font-family="Helvetica,sans-Serif" font-size="10.00">ui.h</text>
</a>
</g>
</g>
<!-- Node1&#45;&gt;Node2 -->
<g id="edge1" class="edge">
<title>Node1&#45;&gt;Node2</title>
<path fill="none" stroke="midnightblue" d="M397.05,-168.44C353.34,-157.71 279.31,-139.54 239.39,-129.74"/>
<polygon fill="midnightblue" stroke="midnightblue" points="240.1,-126.31 229.55,-127.33 238.43,-133.11 240.1,-126.31"/>
</g>
<!-- Node9 -->
<g id="node9" class="node">
<title>Node9</title>
<g id="a_node9"><a xlink:href="imgui_8h.html" target="_top" xlink:title=" ">
<polygon fill="white" stroke="black" points="378.41,-56.5 378.41,-75.5 473.41,-75.5 473.41,-56.5 378.41,-56.5"/>
<text text-anchor="middle" x="425.91" y="-63.5" font-family="Helvetica,sans-Serif" font-size="10.00">src/utils/imgui.h</text>
</a>
</g>
</g>
<!-- Node1&#45;&gt;Node9 -->
<g id="edge12" class="edge">
<title>Node1&#45;&gt;Node9</title>
<path fill="none" stroke="midnightblue" d="M430.71,-168.39C429.5,-159.35 427.71,-144.71 426.91,-132 425.93,-116.49 425.72,-98.87 425.73,-85.88"/>
<polygon fill="midnightblue" stroke="midnightblue" points="429.23,-85.86 425.78,-75.84 422.23,-85.82 429.23,-85.86"/>
</g>
<!-- Node11 -->
<g id="node11" class="node">
<title>Node11</title>
<g id="a_node11"><a xlink:title=" ">
<polygon fill="white" stroke="#bfbfbf" points="435.41,-112.5 435.41,-131.5 480.41,-131.5 480.41,-112.5 435.41,-112.5"/>
<text text-anchor="middle" x="457.91" y="-119.5" font-family="Helvetica,sans-Serif" font-size="10.00">utility</text>
</a>
</g>
</g>
<!-- Node1&#45;&gt;Node11 -->
<g id="edge11" class="edge">
<title>Node1&#45;&gt;Node11</title>
<path fill="none" stroke="midnightblue" d="M436.21,-168.08C439.76,-160.69 444.94,-149.95 449.34,-140.81"/>
<polygon fill="midnightblue" stroke="midnightblue" points="452.51,-142.28 453.7,-131.75 446.21,-139.24 452.51,-142.28"/>
</g>
<!-- Node12 -->
<g id="node12" class="node">
<title>Node12</title>
<g id="a_node12"><a xlink:href="log_8h.html" target="_top" xlink:title=" ">
<polygon fill="white" stroke="black" points="498.91,-112.5 498.91,-131.5 580.91,-131.5 580.91,-112.5 498.91,-112.5"/>
<text text-anchor="middle" x="539.91" y="-119.5" font-family="Helvetica,sans-Serif" font-size="10.00">src/utils/log.h</text>
</a>
</g>
</g>
<!-- Node1&#45;&gt;Node12 -->
<g id="edge13" class="edge">
<title>Node1&#45;&gt;Node12</title>
<path fill="none" stroke="midnightblue" d="M449.26,-168.32C466.58,-159.66 493.43,-146.24 513.41,-136.25"/>
<polygon fill="midnightblue" stroke="midnightblue" points="515.22,-139.26 522.6,-131.65 512.09,-133 515.22,-139.26"/>
</g>
<!-- Node3 -->
<g id="node3" class="node">
<title>Node3</title>
<g id="a_node3"><a xlink:title=" ">
<polygon fill="white" stroke="#bfbfbf" points="85.91,-0.5 85.91,-19.5 143.91,-19.5 143.91,-0.5 85.91,-0.5"/>
<text text-anchor="middle" x="114.91" y="-7.5" font-family="Helvetica,sans-Serif" font-size="10.00">memory</text>
</a>
</g>
</g>
<!-- Node2&#45;&gt;Node3 -->
<g id="edge2" class="edge">
<title>Node2&#45;&gt;Node3</title>
<path fill="none" stroke="midnightblue" d="M194.11,-119.88C148.54,-116.61 29.56,-105.37 5.91,-76 -17.14,-47.36 36.16,-28.44 76.08,-18.74"/>
<polygon fill="midnightblue" stroke="midnightblue" points="76.93,-22.13 85.89,-16.47 75.36,-15.31 76.93,-22.13"/>
</g>
<!-- Node4 -->
<g id="node4" class="node">
<title>Node4</title>
<g id="a_node4"><a xlink:title=" ">
<polygon fill="white" stroke="#bfbfbf" points="14.91,-56.5 14.91,-75.5 58.91,-75.5 58.91,-56.5 14.91,-56.5"/>
<text text-anchor="middle" x="36.91" y="-63.5" font-family="Helvetica,sans-Serif" font-size="10.00">string</text>
</a>
</g>
</g>
<!-- Node2&#45;&gt;Node4 -->
<g id="edge3" class="edge">
<title>Node2&#45;&gt;Node4</title>
<path fill="none" stroke="midnightblue" d="M194.17,-115.53C164.78,-106.46 105.6,-88.2 68.81,-76.84"/>
<polygon fill="midnightblue" stroke="midnightblue" points="69.66,-73.44 59.07,-73.84 67.6,-80.13 69.66,-73.44"/>
</g>
<!-- Node5 -->
<g id="node5" class="node">
<title>Node5</title>
<g id="a_node5"><a xlink:title=" ">
<polygon fill="white" stroke="#bfbfbf" points="77.41,-56.5 77.41,-75.5 170.41,-75.5 170.41,-56.5 77.41,-56.5"/>
<text text-anchor="middle" x="123.91" y="-63.5" font-family="Helvetica,sans-Serif" font-size="10.00">unordered_map</text>
</a>
</g>
</g>
<!-- Node2&#45;&gt;Node5 -->
<g id="edge4" class="edge">
<title>Node2&#45;&gt;Node5</title>
<path fill="none" stroke="midnightblue" d="M197.77,-112.32C184.05,-103.9 162.98,-90.97 146.85,-81.07"/>
<polygon fill="midnightblue" stroke="midnightblue" points="148.37,-77.9 138.02,-75.65 144.71,-83.87 148.37,-77.9"/>
</g>
<!-- Node6 -->
<g id="node6" class="node">
<title>Node6</title>
<g id="a_node6"><a xlink:title=" ">
<polygon fill="white" stroke="#bfbfbf" points="188.41,-56.5 188.41,-75.5 235.41,-75.5 235.41,-56.5 188.41,-56.5"/>
<text text-anchor="middle" x="211.91" y="-63.5" font-family="Helvetica,sans-Serif" font-size="10.00">vector</text>
</a>
</g>
</g>
<!-- Node2&#45;&gt;Node6 -->
<g id="edge5" class="edge">
<title>Node2&#45;&gt;Node6</title>
<path fill="none" stroke="midnightblue" d="M211.91,-112.08C211.91,-105.01 211.91,-94.86 211.91,-85.99"/>
<polygon fill="midnightblue" stroke="midnightblue" points="215.41,-85.75 211.91,-75.75 208.41,-85.75 215.41,-85.75"/>
</g>
<!-- Node7 -->
<g id="node7" class="node">
<title>Node7</title>
<g id="a_node7"><a xlink:href="callback_8h.html" target="_top" xlink:title=" ">
<polygon fill="white" stroke="black" points="253.41,-56.5 253.41,-75.5 360.41,-75.5 360.41,-56.5 253.41,-56.5"/>
<text text-anchor="middle" x="306.91" y="-63.5" font-family="Helvetica,sans-Serif" font-size="10.00">src/utils/callback.h</text>
</a>
</g>
</g>
<!-- Node2&#45;&gt;Node7 -->
<g id="edge6" class="edge">
<title>Node2&#45;&gt;Node7</title>
<path fill="none" stroke="midnightblue" d="M227.18,-112.32C242.13,-103.82 265.17,-90.73 282.64,-80.8"/>
<polygon fill="midnightblue" stroke="midnightblue" points="284.72,-83.64 291.69,-75.65 281.26,-77.55 284.72,-83.64"/>
</g>
<!-- Node2&#45;&gt;Node9 -->
<g id="edge9" class="edge">
<title>Node2&#45;&gt;Node9</title>
<path fill="none" stroke="midnightblue" d="M229.43,-116.58C262.53,-108.23 335.2,-89.89 382.28,-78.01"/>
<polygon fill="midnightblue" stroke="midnightblue" points="383.36,-81.35 392.2,-75.51 381.65,-74.56 383.36,-81.35"/>
</g>
<!-- Node7&#45;&gt;Node3 -->
<g id="edge8" class="edge">
<title>Node7&#45;&gt;Node3</title>
<path fill="none" stroke="midnightblue" d="M276.49,-56.44C243.24,-47.09 189.89,-32.09 153.67,-21.9"/>
<polygon fill="midnightblue" stroke="midnightblue" points="154.51,-18.5 143.94,-19.16 152.62,-25.24 154.51,-18.5"/>
</g>
<!-- Node8 -->
<g id="node8" class="node">
<title>Node8</title>
<g id="a_node8"><a xlink:title=" ">
<polygon fill="white" stroke="#bfbfbf" points="289.41,-0.5 289.41,-19.5 324.41,-19.5 324.41,-0.5 289.41,-0.5"/>
<text text-anchor="middle" x="306.91" y="-7.5" font-family="Helvetica,sans-Serif" font-size="10.00">any</text>
</a>
</g>
</g>
<!-- Node7&#45;&gt;Node8 -->
<g id="edge7" class="edge">
<title>Node7&#45;&gt;Node8</title>
<path fill="none" stroke="midnightblue" d="M306.91,-56.08C306.91,-49.01 306.91,-38.86 306.91,-29.99"/>
<polygon fill="midnightblue" stroke="midnightblue" points="310.41,-29.75 306.91,-19.75 303.41,-29.75 310.41,-29.75"/>
</g>
<!-- Node10 -->
<g id="node10" class="node">
<title>Node10</title>
<g id="a_node10"><a xlink:title=" ">
<polygon fill="white" stroke="#bfbfbf" points="376.91,-0.5 376.91,-19.5 474.91,-19.5 474.91,-0.5 376.91,-0.5"/>
<text text-anchor="middle" x="425.91" y="-7.5" font-family="Helvetica,sans-Serif" font-size="10.00">bindings/imgui.h</text>
</a>
</g>
</g>
<!-- Node9&#45;&gt;Node10 -->
<g id="edge10" class="edge">
<title>Node9&#45;&gt;Node10</title>
<path fill="none" stroke="midnightblue" d="M425.91,-56.08C425.91,-49.01 425.91,-38.86 425.91,-29.99"/>
<polygon fill="midnightblue" stroke="midnightblue" points="429.41,-29.75 425.91,-19.75 422.41,-29.75 429.41,-29.75"/>
</g>
<!-- Node13 -->
<g id="node13" class="node">
<title>Node13</title>
<g id="a_node13"><a xlink:title=" ">
<polygon fill="white" stroke="#bfbfbf" points="509.91,-56.5 509.91,-75.5 569.91,-75.5 569.91,-56.5 509.91,-56.5"/>
<text text-anchor="middle" x="539.91" y="-63.5" font-family="Helvetica,sans-Serif" font-size="10.00">iostream</text>
</a>
</g>
</g>
<!-- Node12&#45;&gt;Node13 -->
<g id="edge14" class="edge">
<title>Node12&#45;&gt;Node13</title>
<path fill="none" stroke="midnightblue" d="M539.91,-112.08C539.91,-105.01 539.91,-94.86 539.91,-85.99"/>
<polygon fill="midnightblue" stroke="midnightblue" points="543.41,-85.75 539.91,-75.75 536.41,-85.75 543.41,-85.75"/>
</g>
</g>
</svg>
