<?xml version="1.0" encoding="UTF-8" standalone="no"?>
<!DOCTYPE svg PUBLIC "-//W3C//DTD SVG 1.1//EN"
 "http://www.w3.org/Graphics/SVG/1.1/DTD/svg11.dtd">
<!-- Generated by graphviz version 2.43.0 (0)
 -->
<!-- Title: src/user_interface.h Pages: 1 -->
<svg width="245pt" height="140pt"
 viewBox="0.00 0.00 245.00 140.00" xmlns="http://www.w3.org/2000/svg" xmlns:xlink="http://www.w3.org/1999/xlink">
<g id="graph0" class="graph" transform="scale(1 1) rotate(0) translate(4 136)">
<title>src/user_interface.h</title>
<polygon fill="white" stroke="transparent" points="-4,4 -4,-136 241,-136 241,4 -4,4"/>
<!-- Node1 -->
<g id="node1" class="node">
<title>Node1</title>
<g id="a_node1"><a xlink:title=" ">
<polygon fill="#bfbfbf" stroke="black" points="55,-112.5 55,-131.5 168,-131.5 168,-112.5 55,-112.5"/>
<text text-anchor="middle" x="111.5" y="-119.5" font-family="Helvetica,sans-Serif" font-size="10.00">src/user_interface.h</text>
</a>
</g>
</g>
<!-- Node2 -->
<g id="node2" class="node">
<title>Node2</title>
<g id="a_node2"><a xlink:href="app_2main_8cpp.html" target="_top" xlink:title=" ">
<polygon fill="white" stroke="black" points="0,-56.5 0,-75.5 83,-75.5 83,-56.5 0,-56.5"/>
<text text-anchor="middle" x="41.5" y="-63.5" font-family="Helvetica,sans-Serif" font-size="10.00">app/main.cpp</text>
</a>
</g>
</g>
<!-- Node1&#45;&gt;Node2 -->
<g id="edge1" class="edge">
<title>Node1&#45;&gt;Node2</title>
<path fill="none" stroke="midnightblue" d="M92.19,-106.1C79.59,-96.38 63.57,-84.03 52.95,-75.83"/>
<polygon fill="midnightblue" stroke="midnightblue" points="90.2,-108.99 100.25,-112.32 94.47,-103.44 90.2,-108.99"/>
</g>
<!-- Node3 -->
<g id="node3" class="node">
<title>Node3</title>
<g id="a_node3"><a xlink:href="application_8cpp.html" target="_top" xlink:title=" ">
<polygon fill="white" stroke="black" points="95.5,-0.5 95.5,-19.5 203.5,-19.5 203.5,-0.5 95.5,-0.5"/>
<text text-anchor="middle" x="149.5" y="-7.5" font-family="Helvetica,sans-Serif" font-size="10.00">src/application.cpp</text>
</a>
</g>
</g>
<!-- Node1&#45;&gt;Node3 -->
<g id="edge2" class="edge">
<title>Node1&#45;&gt;Node3</title>
<path fill="none" stroke="midnightblue" d="M116.78,-102.39C120.6,-89.32 126.03,-71.48 131.5,-56 136.04,-43.15 142.04,-28.54 145.84,-19.55"/>
<polygon fill="midnightblue" stroke="midnightblue" points="113.4,-101.52 113.99,-112.09 120.12,-103.45 113.4,-101.52"/>
</g>
<!-- Node4 -->
<g id="node4" class="node">
<title>Node4</title>
<g id="a_node4"><a xlink:href="application_8h.html" target="_top" xlink:title=" ">
<polygon fill="white" stroke="black" points="140,-56.5 140,-75.5 237,-75.5 237,-56.5 140,-56.5"/>
<text text-anchor="middle" x="188.5" y="-63.5" font-family="Helvetica,sans-Serif" font-size="10.00">src/application.h</text>
</a>
</g>
</g>
<!-- Node1&#45;&gt;Node4 -->
<g id="edge3" class="edge">
<title>Node1&#45;&gt;Node4</title>
<path fill="none" stroke="midnightblue" d="M132.4,-106.34C146.41,-96.52 164.38,-83.91 176.16,-75.65"/>
<polygon fill="midnightblue" stroke="midnightblue" points="130.05,-103.72 123.87,-112.32 134.07,-109.45 130.05,-103.72"/>
</g>
<!-- Node4&#45;&gt;Node3 -->
<g id="edge4" class="edge">
<title>Node4&#45;&gt;Node3</title>
<path fill="none" stroke="midnightblue" d="M176.12,-47.86C169.36,-38.5 161.29,-27.33 155.82,-19.75"/>
<polygon fill="midnightblue" stroke="midnightblue" points="173.37,-50.03 182.06,-56.08 179.04,-45.93 173.37,-50.03"/>
</g>
</g>
</svg>
