<?xml version="1.0" encoding="UTF-8" standalone="no"?>
<!DOCTYPE svg PUBLIC "-//W3C//DTD SVG 1.1//EN"
 "http://www.w3.org/Graphics/SVG/1.1/DTD/svg11.dtd">
<!-- Generated by graphviz version 2.43.0 (0)
 -->
<!-- Title: src/user_interface.h Pages: 1 -->
<svg width="629pt" height="252pt"
 viewBox="0.00 0.00 629.00 252.00" xmlns="http://www.w3.org/2000/svg" xmlns:xlink="http://www.w3.org/1999/xlink">
<g id="graph0" class="graph" transform="scale(1 1) rotate(0) translate(4 248)">
<title>src/user_interface.h</title>
<polygon fill="white" stroke="transparent" points="-4,4 -4,-248 625,-248 625,4 -4,4"/>
<!-- Node1 -->
<g id="node1" class="node">
<title>Node1</title>
<g id="a_node1"><a xlink:title=" ">
<polygon fill="#bfbfbf" stroke="black" points="226.5,-224.5 226.5,-243.5 339.5,-243.5 339.5,-224.5 226.5,-224.5"/>
<text text-anchor="middle" x="283" y="-231.5" font-family="Helvetica,sans-Serif" font-size="10.00">src/user_interface.h</text>
</a>
</g>
</g>
<!-- Node2 -->
<g id="node2" class="node">
<title>Node2</title>
<g id="a_node2"><a xlink:href="button_8h.html" target="_top" xlink:title=" ">
<polygon fill="white" stroke="black" points="301.5,-168.5 301.5,-187.5 448.5,-187.5 448.5,-168.5 301.5,-168.5"/>
<text text-anchor="middle" x="375" y="-175.5" font-family="Helvetica,sans-Serif" font-size="10.00">src/user_interface/button.h</text>
</a>
</g>
</g>
<!-- Node1&#45;&gt;Node2 -->
<g id="edge1" class="edge">
<title>Node1&#45;&gt;Node2</title>
<path fill="none" stroke="midnightblue" d="M297.78,-224.32C312.27,-215.82 334.57,-202.73 351.49,-192.8"/>
<polygon fill="midnightblue" stroke="midnightblue" points="353.4,-195.74 360.26,-187.65 349.86,-189.7 353.4,-195.74"/>
</g>
<!-- Node4 -->
<g id="node4" class="node">
<title>Node4</title>
<g id="a_node4"><a xlink:href="ui_8h.html" target="_top" xlink:title=" ">
<polygon fill="white" stroke="black" points="194.5,-112.5 194.5,-131.5 319.5,-131.5 319.5,-112.5 194.5,-112.5"/>
<text text-anchor="middle" x="257" y="-119.5" font-family="Helvetica,sans-Serif" font-size="10.00">src/user_interface/ui.h</text>
</a>
</g>
</g>
<!-- Node1&#45;&gt;Node4 -->
<g id="edge21" class="edge">
<title>Node1&#45;&gt;Node4</title>
<path fill="none" stroke="midnightblue" d="M226.27,-227.51C175.58,-221.29 106.79,-209.16 90,-188 60.26,-150.53 126.5,-134.62 184.14,-127.89"/>
<polygon fill="midnightblue" stroke="midnightblue" points="184.85,-131.34 194.41,-126.78 184.09,-124.38 184.85,-131.34"/>
</g>
<!-- Node12 -->
<g id="node12" class="node">
<title>Node12</title>
<g id="a_node12"><a xlink:href="image__viewer_8h.html" target="_top" xlink:title=" ">
<polygon fill="white" stroke="black" points="99,-168.5 99,-187.5 283,-187.5 283,-168.5 99,-168.5"/>
<text text-anchor="middle" x="191" y="-175.5" font-family="Helvetica,sans-Serif" font-size="10.00">src/user_interface/image_viewer.h</text>
</a>
</g>
</g>
<!-- Node1&#45;&gt;Node12 -->
<g id="edge15" class="edge">
<title>Node1&#45;&gt;Node12</title>
<path fill="none" stroke="midnightblue" d="M268.22,-224.32C253.73,-215.82 231.43,-202.73 214.51,-192.8"/>
<polygon fill="midnightblue" stroke="midnightblue" points="216.14,-189.7 205.74,-187.65 212.6,-195.74 216.14,-189.7"/>
</g>
<!-- Node13 -->
<g id="node13" class="node">
<title>Node13</title>
<g id="a_node13"><a xlink:href="selector_8h.html" target="_top" xlink:title=" ">
<polygon fill="white" stroke="black" points="467,-168.5 467,-187.5 621,-187.5 621,-168.5 467,-168.5"/>
<text text-anchor="middle" x="544" y="-175.5" font-family="Helvetica,sans-Serif" font-size="10.00">src/user_interface/selector.h</text>
</a>
</g>
</g>
<!-- Node1&#45;&gt;Node13 -->
<g id="edge17" class="edge">
<title>Node1&#45;&gt;Node13</title>
<path fill="none" stroke="midnightblue" d="M324.36,-224.44C370.08,-214.98 443.76,-199.74 493.02,-189.55"/>
<polygon fill="midnightblue" stroke="midnightblue" points="493.75,-192.97 502.84,-187.52 492.34,-186.12 493.75,-192.97"/>
</g>
<!-- Node3 -->
<g id="node3" class="node">
<title>Node3</title>
<g id="a_node3"><a xlink:title=" ">
<polygon fill="white" stroke="#bfbfbf" points="455,-56.5 455,-75.5 499,-75.5 499,-56.5 455,-56.5"/>
<text text-anchor="middle" x="477" y="-63.5" font-family="Helvetica,sans-Serif" font-size="10.00">string</text>
</a>
</g>
</g>
<!-- Node2&#45;&gt;Node3 -->
<g id="edge2" class="edge">
<title>Node2&#45;&gt;Node3</title>
<path fill="none" stroke="midnightblue" d="M383,-168.37C400.06,-149.97 440.21,-106.67 462.12,-83.05"/>
<polygon fill="midnightblue" stroke="midnightblue" points="464.8,-85.3 469.03,-75.59 459.67,-80.54 464.8,-85.3"/>
</g>
<!-- Node2&#45;&gt;Node4 -->
<g id="edge3" class="edge">
<title>Node2&#45;&gt;Node4</title>
<path fill="none" stroke="midnightblue" d="M356.3,-168.44C337.06,-159.64 306.85,-145.81 284.8,-135.72"/>
<polygon fill="midnightblue" stroke="midnightblue" points="286.16,-132.5 275.61,-131.52 283.25,-138.86 286.16,-132.5"/>
</g>
<!-- Node8 -->
<g id="node8" class="node">
<title>Node8</title>
<g id="a_node8"><a xlink:href="callback_8h.html" target="_top" xlink:title=" ">
<polygon fill="white" stroke="black" points="329.5,-56.5 329.5,-75.5 436.5,-75.5 436.5,-56.5 329.5,-56.5"/>
<text text-anchor="middle" x="383" y="-63.5" font-family="Helvetica,sans-Serif" font-size="10.00">src/utils/callback.h</text>
</a>
</g>
</g>
<!-- Node2&#45;&gt;Node8 -->
<g id="edge13" class="edge">
<title>Node2&#45;&gt;Node8</title>
<path fill="none" stroke="midnightblue" d="M375.63,-168.37C376.92,-150.62 379.9,-109.67 381.65,-85.6"/>
<polygon fill="midnightblue" stroke="midnightblue" points="385.14,-85.82 382.38,-75.59 378.16,-85.31 385.14,-85.82"/>
</g>
<!-- Node10 -->
<g id="node10" class="node">
<title>Node10</title>
<g id="a_node10"><a xlink:href="imgui_8h.html" target="_top" xlink:title=" ">
<polygon fill="white" stroke="black" points="1.5,-56.5 1.5,-75.5 96.5,-75.5 96.5,-56.5 1.5,-56.5"/>
<text text-anchor="middle" x="49" y="-63.5" font-family="Helvetica,sans-Serif" font-size="10.00">src/utils/imgui.h</text>
</a>
</g>
</g>
<!-- Node2&#45;&gt;Node10 -->
<g id="edge14" class="edge">
<title>Node2&#45;&gt;Node10</title>
<path fill="none" stroke="midnightblue" d="M326.55,-168.49C287.66,-160.96 231.99,-148.58 185,-132 144.34,-117.65 99.68,-94.85 73.02,-80.42"/>
<polygon fill="midnightblue" stroke="midnightblue" points="74.5,-77.24 64.05,-75.51 71.14,-83.38 74.5,-77.24"/>
</g>
<!-- Node4&#45;&gt;Node3 -->
<g id="edge5" class="edge">
<title>Node4&#45;&gt;Node3</title>
<path fill="none" stroke="midnightblue" d="M294.56,-112.47C332.59,-103.72 393.03,-89.52 445,-76 445.1,-75.97 445.2,-75.95 445.3,-75.92"/>
<polygon fill="midnightblue" stroke="midnightblue" points="446.25,-79.29 455,-73.31 444.43,-72.53 446.25,-79.29"/>
</g>
<!-- Node5 -->
<g id="node5" class="node">
<title>Node5</title>
<g id="a_node5"><a xlink:title=" ">
<polygon fill="white" stroke="#bfbfbf" points="280,-0.5 280,-19.5 338,-19.5 338,-0.5 280,-0.5"/>
<text text-anchor="middle" x="309" y="-7.5" font-family="Helvetica,sans-Serif" font-size="10.00">memory</text>
</a>
</g>
</g>
<!-- Node4&#45;&gt;Node5 -->
<g id="edge4" class="edge">
<title>Node4&#45;&gt;Node5</title>
<path fill="none" stroke="midnightblue" d="M261.82,-112.48C266.82,-103.51 274.78,-88.93 281,-76 288.56,-60.27 296.35,-41.99 301.79,-28.83"/>
<polygon fill="midnightblue" stroke="midnightblue" points="305.05,-30.1 305.6,-19.51 298.57,-27.45 305.05,-30.1"/>
</g>
<!-- Node6 -->
<g id="node6" class="node">
<title>Node6</title>
<g id="a_node6"><a xlink:title=" ">
<polygon fill="white" stroke="#bfbfbf" points="179.5,-56.5 179.5,-75.5 272.5,-75.5 272.5,-56.5 179.5,-56.5"/>
<text text-anchor="middle" x="226" y="-63.5" font-family="Helvetica,sans-Serif" font-size="10.00">unordered_map</text>
</a>
</g>
</g>
<!-- Node4&#45;&gt;Node6 -->
<g id="edge6" class="edge">
<title>Node4&#45;&gt;Node6</title>
<path fill="none" stroke="midnightblue" d="M251.88,-112.08C247.59,-104.61 241.34,-93.72 236.06,-84.52"/>
<polygon fill="midnightblue" stroke="midnightblue" points="239.04,-82.68 231.02,-75.75 232.97,-86.17 239.04,-82.68"/>
</g>
<!-- Node7 -->
<g id="node7" class="node">
<title>Node7</title>
<g id="a_node7"><a xlink:title=" ">
<polygon fill="white" stroke="#bfbfbf" points="114.5,-56.5 114.5,-75.5 161.5,-75.5 161.5,-56.5 114.5,-56.5"/>
<text text-anchor="middle" x="138" y="-63.5" font-family="Helvetica,sans-Serif" font-size="10.00">vector</text>
</a>
</g>
</g>
<!-- Node4&#45;&gt;Node7 -->
<g id="edge7" class="edge">
<title>Node4&#45;&gt;Node7</title>
<path fill="none" stroke="midnightblue" d="M238.14,-112.44C218.73,-103.64 188.27,-89.81 166.04,-79.72"/>
<polygon fill="midnightblue" stroke="midnightblue" points="167.32,-76.46 156.77,-75.52 164.43,-82.84 167.32,-76.46"/>
</g>
<!-- Node4&#45;&gt;Node8 -->
<g id="edge8" class="edge">
<title>Node4&#45;&gt;Node8</title>
<path fill="none" stroke="midnightblue" d="M276.97,-112.44C297.61,-103.6 330.06,-89.69 353.63,-79.59"/>
<polygon fill="midnightblue" stroke="midnightblue" points="355.32,-82.67 363.13,-75.52 352.56,-76.24 355.32,-82.67"/>
</g>
<!-- Node4&#45;&gt;Node10 -->
<g id="edge11" class="edge">
<title>Node4&#45;&gt;Node10</title>
<path fill="none" stroke="midnightblue" d="M224.04,-112.44C188.21,-103.14 130.84,-88.25 91.61,-78.06"/>
<polygon fill="midnightblue" stroke="midnightblue" points="92.36,-74.64 81.8,-75.52 90.6,-81.42 92.36,-74.64"/>
</g>
<!-- Node8&#45;&gt;Node5 -->
<g id="edge10" class="edge">
<title>Node8&#45;&gt;Node5</title>
<path fill="none" stroke="midnightblue" d="M371.11,-56.32C359.85,-48.11 342.71,-35.6 329.29,-25.81"/>
<polygon fill="midnightblue" stroke="midnightblue" points="331.25,-22.9 321.11,-19.83 327.12,-28.56 331.25,-22.9"/>
</g>
<!-- Node9 -->
<g id="node9" class="node">
<title>Node9</title>
<g id="a_node9"><a xlink:title=" ">
<polygon fill="white" stroke="#bfbfbf" points="365.5,-0.5 365.5,-19.5 400.5,-19.5 400.5,-0.5 365.5,-0.5"/>
<text text-anchor="middle" x="383" y="-7.5" font-family="Helvetica,sans-Serif" font-size="10.00">any</text>
</a>
</g>
</g>
<!-- Node8&#45;&gt;Node9 -->
<g id="edge9" class="edge">
<title>Node8&#45;&gt;Node9</title>
<path fill="none" stroke="midnightblue" d="M383,-56.08C383,-49.01 383,-38.86 383,-29.99"/>
<polygon fill="midnightblue" stroke="midnightblue" points="386.5,-29.75 383,-19.75 379.5,-29.75 386.5,-29.75"/>
</g>
<!-- Node11 -->
<g id="node11" class="node">
<title>Node11</title>
<g id="a_node11"><a xlink:title=" ">
<polygon fill="white" stroke="#bfbfbf" points="0,-0.5 0,-19.5 98,-19.5 98,-0.5 0,-0.5"/>
<text text-anchor="middle" x="49" y="-7.5" font-family="Helvetica,sans-Serif" font-size="10.00">bindings/imgui.h</text>
</a>
</g>
</g>
<!-- Node10&#45;&gt;Node11 -->
<g id="edge12" class="edge">
<title>Node10&#45;&gt;Node11</title>
<path fill="none" stroke="midnightblue" d="M49,-56.08C49,-49.01 49,-38.86 49,-29.99"/>
<polygon fill="midnightblue" stroke="midnightblue" points="52.5,-29.75 49,-19.75 45.5,-29.75 52.5,-29.75"/>
</g>
<!-- Node12&#45;&gt;Node4 -->
<g id="edge16" class="edge">
<title>Node12&#45;&gt;Node4</title>
<path fill="none" stroke="midnightblue" d="M201.6,-168.32C211.46,-160.26 226.35,-148.08 238.22,-138.37"/>
<polygon fill="midnightblue" stroke="midnightblue" points="240.68,-140.88 246.2,-131.83 236.25,-135.46 240.68,-140.88"/>
</g>
<!-- Node13&#45;&gt;Node3 -->
<g id="edge19" class="edge">
<title>Node13&#45;&gt;Node3</title>
<path fill="none" stroke="midnightblue" d="M538.07,-168.49C531.88,-159.53 521.99,-144.95 514,-132 504.22,-116.15 493.78,-97.65 486.5,-84.46"/>
<polygon fill="midnightblue" stroke="midnightblue" points="489.48,-82.61 481.6,-75.53 483.34,-85.98 489.48,-82.61"/>
</g>
<!-- Node13&#45;&gt;Node4 -->
<g id="edge20" class="edge">
<title>Node13&#45;&gt;Node4</title>
<path fill="none" stroke="midnightblue" d="M498.52,-168.44C448.04,-158.94 366.54,-143.61 312.38,-133.42"/>
<polygon fill="midnightblue" stroke="midnightblue" points="312.74,-129.93 302.26,-131.52 311.44,-136.81 312.74,-129.93"/>
</g>
<!-- Node14 -->
<g id="node14" class="node">
<title>Node14</title>
<g id="a_node14"><a xlink:title=" ">
<polygon fill="white" stroke="#bfbfbf" points="523,-112.5 523,-131.5 565,-131.5 565,-112.5 523,-112.5"/>
<text text-anchor="middle" x="544" y="-119.5" font-family="Helvetica,sans-Serif" font-size="10.00">array</text>
</a>
</g>
</g>
<!-- Node13&#45;&gt;Node14 -->
<g id="edge18" class="edge">
<title>Node13&#45;&gt;Node14</title>
<path fill="none" stroke="midnightblue" d="M544,-168.08C544,-161.01 544,-150.86 544,-141.99"/>
<polygon fill="midnightblue" stroke="midnightblue" points="547.5,-141.75 544,-131.75 540.5,-141.75 547.5,-141.75"/>
</g>
</g>
</svg>
