<?xml version="1.0" encoding="UTF-8" standalone="no"?>
<!DOCTYPE svg PUBLIC "-//W3C//DTD SVG 1.1//EN"
 "http://www.w3.org/Graphics/SVG/1.1/DTD/svg11.dtd">
<!-- Generated by graphviz version 2.43.0 (0)
 -->
<!-- Title: src/user_interface.h Pages: 1 -->
<svg width="524pt" height="252pt"
 viewBox="0.00 0.00 524.00 252.00" xmlns="http://www.w3.org/2000/svg" xmlns:xlink="http://www.w3.org/1999/xlink">
<g id="graph0" class="graph" transform="scale(1 1) rotate(0) translate(4 248)">
<title>src/user_interface.h</title>
<polygon fill="white" stroke="transparent" points="-4,4 -4,-248 520,-248 520,4 -4,4"/>
<!-- Node1 -->
<g id="node1" class="node">
<title>Node1</title>
<g id="a_node1"><a xlink:title=" ">
<polygon fill="#bfbfbf" stroke="black" points="265.5,-224.5 265.5,-243.5 378.5,-243.5 378.5,-224.5 265.5,-224.5"/>
<text text-anchor="middle" x="322" y="-231.5" font-family="Helvetica,sans-Serif" font-size="10.00">src/user_interface.h</text>
</a>
</g>
</g>
<!-- Node2 -->
<g id="node2" class="node">
<title>Node2</title>
<g id="a_node2"><a xlink:href="button_8h.html" target="_top" xlink:title=" ">
<polygon fill="white" stroke="black" points="146.5,-168.5 146.5,-187.5 293.5,-187.5 293.5,-168.5 146.5,-168.5"/>
<text text-anchor="middle" x="220" y="-175.5" font-family="Helvetica,sans-Serif" font-size="10.00">src/user_interface/button.h</text>
</a>
</g>
</g>
<!-- Node1&#45;&gt;Node2 -->
<g id="edge1" class="edge">
<title>Node1&#45;&gt;Node2</title>
<path fill="none" stroke="midnightblue" d="M305.61,-224.32C289.33,-215.7 264.13,-202.36 245.28,-192.39"/>
<polygon fill="midnightblue" stroke="midnightblue" points="246.82,-189.24 236.35,-187.65 243.55,-195.43 246.82,-189.24"/>
</g>
<!-- Node4 -->
<g id="node4" class="node">
<title>Node4</title>
<g id="a_node4"><a xlink:href="ui_8h.html" target="_top" xlink:title=" ">
<polygon fill="white" stroke="black" points="253.5,-112.5 253.5,-131.5 378.5,-131.5 378.5,-112.5 253.5,-112.5"/>
<text text-anchor="middle" x="316" y="-119.5" font-family="Helvetica,sans-Serif" font-size="10.00">src/user_interface/ui.h</text>
</a>
</g>
</g>
<!-- Node1&#45;&gt;Node4 -->
<g id="edge19" class="edge">
<title>Node1&#45;&gt;Node4</title>
<path fill="none" stroke="midnightblue" d="M321.53,-224.37C320.56,-206.62 318.33,-165.67 317.01,-141.6"/>
<polygon fill="midnightblue" stroke="midnightblue" points="320.51,-141.39 316.47,-131.59 313.52,-141.77 320.51,-141.39"/>
</g>
<!-- Node12 -->
<g id="node12" class="node">
<title>Node12</title>
<g id="a_node12"><a xlink:href="selector_8h.html" target="_top" xlink:title=" ">
<polygon fill="white" stroke="black" points="362,-168.5 362,-187.5 516,-187.5 516,-168.5 362,-168.5"/>
<text text-anchor="middle" x="439" y="-175.5" font-family="Helvetica,sans-Serif" font-size="10.00">src/user_interface/selector.h</text>
</a>
</g>
</g>
<!-- Node1&#45;&gt;Node12 -->
<g id="edge15" class="edge">
<title>Node1&#45;&gt;Node12</title>
<path fill="none" stroke="midnightblue" d="M340.54,-224.44C359.62,-215.64 389.57,-201.81 411.44,-191.72"/>
<polygon fill="midnightblue" stroke="midnightblue" points="412.93,-194.88 420.55,-187.52 410,-188.53 412.93,-194.88"/>
</g>
<!-- Node3 -->
<g id="node3" class="node">
<title>Node3</title>
<g id="a_node3"><a xlink:title=" ">
<polygon fill="white" stroke="#bfbfbf" points="454,-56.5 454,-75.5 498,-75.5 498,-56.5 454,-56.5"/>
<text text-anchor="middle" x="476" y="-63.5" font-family="Helvetica,sans-Serif" font-size="10.00">string</text>
</a>
</g>
</g>
<!-- Node2&#45;&gt;Node3 -->
<g id="edge2" class="edge">
<title>Node2&#45;&gt;Node3</title>
<path fill="none" stroke="midnightblue" d="M270.29,-168.47C304.36,-161.5 349.77,-149.85 387,-132 414.03,-119.04 441.32,-97.6 458.42,-82.91"/>
<polygon fill="midnightblue" stroke="midnightblue" points="461.17,-85.15 466.37,-75.92 456.55,-79.89 461.17,-85.15"/>
</g>
<!-- Node2&#45;&gt;Node4 -->
<g id="edge3" class="edge">
<title>Node2&#45;&gt;Node4</title>
<path fill="none" stroke="midnightblue" d="M235.42,-168.32C250.54,-159.82 273.82,-146.73 291.47,-136.8"/>
<polygon fill="midnightblue" stroke="midnightblue" points="293.61,-139.61 300.61,-131.65 290.18,-133.51 293.61,-139.61"/>
</g>
<!-- Node8 -->
<g id="node8" class="node">
<title>Node8</title>
<g id="a_node8"><a xlink:href="callback_8h.html" target="_top" xlink:title=" ">
<polygon fill="white" stroke="black" points="114.5,-56.5 114.5,-75.5 221.5,-75.5 221.5,-56.5 114.5,-56.5"/>
<text text-anchor="middle" x="168" y="-63.5" font-family="Helvetica,sans-Serif" font-size="10.00">src/utils/callback.h</text>
</a>
</g>
</g>
<!-- Node2&#45;&gt;Node8 -->
<g id="edge13" class="edge">
<title>Node2&#45;&gt;Node8</title>
<path fill="none" stroke="midnightblue" d="M215.92,-168.37C207.45,-150.46 187.82,-108.92 176.48,-84.95"/>
<polygon fill="midnightblue" stroke="midnightblue" points="179.5,-83.14 172.06,-75.59 173.17,-86.13 179.5,-83.14"/>
</g>
<!-- Node10 -->
<g id="node10" class="node">
<title>Node10</title>
<g id="a_node10"><a xlink:href="imgui_8h.html" target="_top" xlink:title=" ">
<polygon fill="white" stroke="black" points="1.5,-56.5 1.5,-75.5 96.5,-75.5 96.5,-56.5 1.5,-56.5"/>
<text text-anchor="middle" x="49" y="-63.5" font-family="Helvetica,sans-Serif" font-size="10.00">src/utils/imgui.h</text>
</a>
</g>
</g>
<!-- Node2&#45;&gt;Node10 -->
<g id="edge14" class="edge">
<title>Node2&#45;&gt;Node10</title>
<path fill="none" stroke="midnightblue" d="M206.58,-168.37C177.24,-149.49 107.12,-104.38 71.13,-81.24"/>
<polygon fill="midnightblue" stroke="midnightblue" points="72.66,-78.06 62.36,-75.59 68.87,-83.95 72.66,-78.06"/>
</g>
<!-- Node4&#45;&gt;Node3 -->
<g id="edge5" class="edge">
<title>Node4&#45;&gt;Node3</title>
<path fill="none" stroke="midnightblue" d="M341.35,-112.44C369.22,-103.04 414.03,-87.91 444.22,-77.72"/>
<polygon fill="midnightblue" stroke="midnightblue" points="445.5,-80.99 453.86,-74.47 443.26,-74.35 445.5,-80.99"/>
</g>
<!-- Node5 -->
<g id="node5" class="node">
<title>Node5</title>
<g id="a_node5"><a xlink:title=" ">
<polygon fill="white" stroke="#bfbfbf" points="300,-0.5 300,-19.5 358,-19.5 358,-0.5 300,-0.5"/>
<text text-anchor="middle" x="329" y="-7.5" font-family="Helvetica,sans-Serif" font-size="10.00">memory</text>
</a>
</g>
</g>
<!-- Node4&#45;&gt;Node5 -->
<g id="edge4" class="edge">
<title>Node4&#45;&gt;Node5</title>
<path fill="none" stroke="midnightblue" d="M353.97,-112.41C373.41,-105.88 395.38,-94.72 407,-76 421.04,-53.39 391.4,-34.85 364.71,-23.43"/>
<polygon fill="midnightblue" stroke="midnightblue" points="365.68,-20.05 355.1,-19.55 363.06,-26.54 365.68,-20.05"/>
</g>
<!-- Node6 -->
<g id="node6" class="node">
<title>Node6</title>
<g id="a_node6"><a xlink:title=" ">
<polygon fill="white" stroke="#bfbfbf" points="239.5,-56.5 239.5,-75.5 332.5,-75.5 332.5,-56.5 239.5,-56.5"/>
<text text-anchor="middle" x="286" y="-63.5" font-family="Helvetica,sans-Serif" font-size="10.00">unordered_map</text>
</a>
</g>
</g>
<!-- Node4&#45;&gt;Node6 -->
<g id="edge6" class="edge">
<title>Node4&#45;&gt;Node6</title>
<path fill="none" stroke="midnightblue" d="M311.05,-112.08C306.9,-104.61 300.85,-93.72 295.73,-84.52"/>
<polygon fill="midnightblue" stroke="midnightblue" points="298.78,-82.79 290.86,-75.75 292.66,-86.19 298.78,-82.79"/>
</g>
<!-- Node7 -->
<g id="node7" class="node">
<title>Node7</title>
<g id="a_node7"><a xlink:title=" ">
<polygon fill="white" stroke="#bfbfbf" points="350.5,-56.5 350.5,-75.5 397.5,-75.5 397.5,-56.5 350.5,-56.5"/>
<text text-anchor="middle" x="374" y="-63.5" font-family="Helvetica,sans-Serif" font-size="10.00">vector</text>
</a>
</g>
</g>
<!-- Node4&#45;&gt;Node7 -->
<g id="edge7" class="edge">
<title>Node4&#45;&gt;Node7</title>
<path fill="none" stroke="midnightblue" d="M325.32,-112.32C333.89,-104.34 346.81,-92.31 357.19,-82.65"/>
<polygon fill="midnightblue" stroke="midnightblue" points="359.58,-85.21 364.51,-75.83 354.81,-80.09 359.58,-85.21"/>
</g>
<!-- Node4&#45;&gt;Node8 -->
<g id="edge8" class="edge">
<title>Node4&#45;&gt;Node8</title>
<path fill="none" stroke="midnightblue" d="M292.55,-112.44C267.87,-103.44 228.81,-89.19 201.02,-79.05"/>
<polygon fill="midnightblue" stroke="midnightblue" points="201.94,-75.66 191.34,-75.52 199.54,-82.23 201.94,-75.66"/>
</g>
<!-- Node4&#45;&gt;Node10 -->
<g id="edge11" class="edge">
<title>Node4&#45;&gt;Node10</title>
<path fill="none" stroke="midnightblue" d="M273.69,-112.44C226.92,-102.98 151.54,-87.74 101.15,-77.55"/>
<polygon fill="midnightblue" stroke="midnightblue" points="101.6,-74.07 91.11,-75.52 100.22,-80.93 101.6,-74.07"/>
</g>
<!-- Node8&#45;&gt;Node5 -->
<g id="edge10" class="edge">
<title>Node8&#45;&gt;Node5</title>
<path fill="none" stroke="midnightblue" d="M193.51,-56.44C220.6,-47.36 263.59,-32.94 293.87,-22.78"/>
<polygon fill="midnightblue" stroke="midnightblue" points="295.24,-26.01 303.61,-19.52 293.01,-19.38 295.24,-26.01"/>
</g>
<!-- Node9 -->
<g id="node9" class="node">
<title>Node9</title>
<g id="a_node9"><a xlink:title=" ">
<polygon fill="white" stroke="#bfbfbf" points="150.5,-0.5 150.5,-19.5 185.5,-19.5 185.5,-0.5 150.5,-0.5"/>
<text text-anchor="middle" x="168" y="-7.5" font-family="Helvetica,sans-Serif" font-size="10.00">any</text>
</a>
</g>
</g>
<!-- Node8&#45;&gt;Node9 -->
<g id="edge9" class="edge">
<title>Node8&#45;&gt;Node9</title>
<path fill="none" stroke="midnightblue" d="M168,-56.08C168,-49.01 168,-38.86 168,-29.99"/>
<polygon fill="midnightblue" stroke="midnightblue" points="171.5,-29.75 168,-19.75 164.5,-29.75 171.5,-29.75"/>
</g>
<!-- Node11 -->
<g id="node11" class="node">
<title>Node11</title>
<g id="a_node11"><a xlink:title=" ">
<polygon fill="white" stroke="#bfbfbf" points="0,-0.5 0,-19.5 98,-19.5 98,-0.5 0,-0.5"/>
<text text-anchor="middle" x="49" y="-7.5" font-family="Helvetica,sans-Serif" font-size="10.00">bindings/imgui.h</text>
</a>
</g>
</g>
<!-- Node10&#45;&gt;Node11 -->
<g id="edge12" class="edge">
<title>Node10&#45;&gt;Node11</title>
<path fill="none" stroke="midnightblue" d="M49,-56.08C49,-49.01 49,-38.86 49,-29.99"/>
<polygon fill="midnightblue" stroke="midnightblue" points="52.5,-29.75 49,-19.75 45.5,-29.75 52.5,-29.75"/>
</g>
<!-- Node12&#45;&gt;Node3 -->
<g id="edge17" class="edge">
<title>Node12&#45;&gt;Node3</title>
<path fill="none" stroke="midnightblue" d="M441.9,-168.37C447.9,-150.54 461.77,-109.3 469.85,-85.27"/>
<polygon fill="midnightblue" stroke="midnightblue" points="473.24,-86.19 473.11,-75.59 466.6,-83.95 473.24,-86.19"/>
</g>
<!-- Node12&#45;&gt;Node4 -->
<g id="edge18" class="edge">
<title>Node12&#45;&gt;Node4</title>
<path fill="none" stroke="midnightblue" d="M419.51,-168.44C399.36,-159.6 367.68,-145.69 344.67,-135.59"/>
<polygon fill="midnightblue" stroke="midnightblue" points="345.96,-132.33 335.4,-131.52 343.15,-138.74 345.96,-132.33"/>
</g>
<!-- Node13 -->
<g id="node13" class="node">
<title>Node13</title>
<g id="a_node13"><a xlink:title=" ">
<polygon fill="white" stroke="#bfbfbf" points="473,-112.5 473,-131.5 515,-131.5 515,-112.5 473,-112.5"/>
<text text-anchor="middle" x="494" y="-119.5" font-family="Helvetica,sans-Serif" font-size="10.00">array</text>
</a>
</g>
</g>
<!-- Node12&#45;&gt;Node13 -->
<g id="edge16" class="edge">
<title>Node12&#45;&gt;Node13</title>
<path fill="none" stroke="midnightblue" d="M448.08,-168.08C456.17,-160.14 468.2,-148.34 477.91,-138.8"/>
<polygon fill="midnightblue" stroke="midnightblue" points="480.4,-141.25 485.09,-131.75 475.5,-136.26 480.4,-141.25"/>
</g>
</g>
</svg>
