<?xml version="1.0" encoding="UTF-8" standalone="no"?>
<!DOCTYPE svg PUBLIC "-//W3C//DTD SVG 1.1//EN"
 "http://www.w3.org/Graphics/SVG/1.1/DTD/svg11.dtd">
<!-- Generated by graphviz version 2.43.0 (0)
 -->
<!-- Title: src/application/user_interface.h Pages: 1 -->
<svg width="775pt" height="252pt"
 viewBox="0.00 0.00 775.00 252.00" xmlns="http://www.w3.org/2000/svg" xmlns:xlink="http://www.w3.org/1999/xlink">
<g id="graph0" class="graph" transform="scale(1 1) rotate(0) translate(4 248)">
<title>src/application/user_interface.h</title>
<polygon fill="white" stroke="transparent" points="-4,4 -4,-248 771,-248 771,4 -4,4"/>
<!-- Node1 -->
<g id="node1" class="node">
<title>Node1</title>
<g id="a_node1"><a xlink:title=" ">
<polygon fill="#bfbfbf" stroke="black" points="322.5,-224.5 322.5,-243.5 492.5,-243.5 492.5,-224.5 322.5,-224.5"/>
<text text-anchor="middle" x="407.5" y="-231.5" font-family="Helvetica,sans-Serif" font-size="10.00">src/application/user_interface.h</text>
</a>
</g>
</g>
<!-- Node2 -->
<g id="node2" class="node">
<title>Node2</title>
<g id="a_node2"><a xlink:title=" ">
<polygon fill="white" stroke="#bfbfbf" points="0,-168.5 0,-187.5 83,-187.5 83,-168.5 0,-168.5"/>
<text text-anchor="middle" x="41.5" y="-175.5" font-family="Helvetica,sans-Serif" font-size="10.00">GLFW/glfw3.h</text>
</a>
</g>
</g>
<!-- Node1&#45;&gt;Node2 -->
<g id="edge1" class="edge">
<title>Node1&#45;&gt;Node2</title>
<path fill="none" stroke="midnightblue" d="M346.87,-224.48C284.35,-215.62 184.05,-201.24 97.5,-188 96.04,-187.78 94.56,-187.55 93.06,-187.32"/>
<polygon fill="midnightblue" stroke="midnightblue" points="93.5,-183.84 83.08,-185.75 92.42,-190.76 93.5,-183.84"/>
</g>
<!-- Node3 -->
<g id="node3" class="node">
<title>Node3</title>
<g id="a_node3"><a xlink:title=" ">
<polygon fill="white" stroke="#bfbfbf" points="161,-112.5 161,-131.5 214,-131.5 214,-112.5 161,-112.5"/>
<text text-anchor="middle" x="187.5" y="-119.5" font-family="Helvetica,sans-Serif" font-size="10.00">imgui.h</text>
</a>
</g>
</g>
<!-- Node1&#45;&gt;Node3 -->
<g id="edge2" class="edge">
<title>Node1&#45;&gt;Node3</title>
<path fill="none" stroke="midnightblue" d="M322.37,-228.22C261.86,-222.83 188.01,-211.52 168.5,-188 157.17,-174.34 165.81,-154.19 174.8,-139.96"/>
<polygon fill="midnightblue" stroke="midnightblue" points="177.78,-141.8 180.56,-131.58 172.01,-137.84 177.78,-141.8"/>
</g>
<!-- Node4 -->
<g id="node4" class="node">
<title>Node4</title>
<g id="a_node4"><a xlink:title=" ">
<polygon fill="white" stroke="#bfbfbf" points="597.5,-168.5 597.5,-187.5 671.5,-187.5 671.5,-168.5 597.5,-168.5"/>
<text text-anchor="middle" x="634.5" y="-175.5" font-family="Helvetica,sans-Serif" font-size="10.00">forward_list</text>
</a>
</g>
</g>
<!-- Node1&#45;&gt;Node4 -->
<g id="edge3" class="edge">
<title>Node1&#45;&gt;Node4</title>
<path fill="none" stroke="midnightblue" d="M443.47,-224.44C482.82,-215.08 545.99,-200.06 588.81,-189.87"/>
<polygon fill="midnightblue" stroke="midnightblue" points="589.78,-193.24 598.7,-187.52 588.16,-186.43 589.78,-193.24"/>
</g>
<!-- Node5 -->
<g id="node5" class="node">
<title>Node5</title>
<g id="a_node5"><a xlink:title=" ">
<polygon fill="white" stroke="#bfbfbf" points="175.5,-56.5 175.5,-75.5 233.5,-75.5 233.5,-56.5 175.5,-56.5"/>
<text text-anchor="middle" x="204.5" y="-63.5" font-family="Helvetica,sans-Serif" font-size="10.00">memory</text>
</a>
</g>
</g>
<!-- Node1&#45;&gt;Node5 -->
<g id="edge4" class="edge">
<title>Node1&#45;&gt;Node5</title>
<path fill="none" stroke="midnightblue" d="M322.4,-228.02C259.74,-222.49 181.73,-211.09 159.5,-188 135.94,-163.54 137.24,-142.82 151.5,-112 157.42,-99.21 168.97,-88.72 179.78,-81.1"/>
<polygon fill="midnightblue" stroke="midnightblue" points="181.71,-84.02 188.17,-75.61 177.88,-78.16 181.71,-84.02"/>
</g>
<!-- Node6 -->
<g id="node6" class="node">
<title>Node6</title>
<g id="a_node6"><a xlink:title=" ">
<polygon fill="white" stroke="#bfbfbf" points="461.5,-56.5 461.5,-75.5 505.5,-75.5 505.5,-56.5 461.5,-56.5"/>
<text text-anchor="middle" x="483.5" y="-63.5" font-family="Helvetica,sans-Serif" font-size="10.00">string</text>
</a>
</g>
</g>
<!-- Node1&#45;&gt;Node6 -->
<g id="edge5" class="edge">
<title>Node1&#45;&gt;Node6</title>
<path fill="none" stroke="midnightblue" d="M439.31,-224.38C457.45,-217.66 478.66,-206.31 489.5,-188 508.44,-155.99 498.35,-110.47 490.3,-85.38"/>
<polygon fill="midnightblue" stroke="midnightblue" points="493.53,-84 486.96,-75.69 486.91,-86.28 493.53,-84"/>
</g>
<!-- Node7 -->
<g id="node7" class="node">
<title>Node7</title>
<g id="a_node7"><a xlink:href="dataloader_8h.html" target="_top" xlink:title=" ">
<polygon fill="white" stroke="black" points="303.5,-112.5 303.5,-131.5 455.5,-131.5 455.5,-112.5 303.5,-112.5"/>
<text text-anchor="middle" x="379.5" y="-119.5" font-family="Helvetica,sans-Serif" font-size="10.00">src/application/dataloader.h</text>
</a>
</g>
</g>
<!-- Node1&#45;&gt;Node7 -->
<g id="edge6" class="edge">
<title>Node1&#45;&gt;Node7</title>
<path fill="none" stroke="midnightblue" d="M428.49,-224.36C452.98,-212.95 488.33,-191.54 473.5,-168 463.49,-152.11 446.15,-141.71 429.06,-134.96"/>
<polygon fill="midnightblue" stroke="midnightblue" points="430.24,-131.66 419.65,-131.57 427.87,-138.25 430.24,-131.66"/>
</g>
<!-- Node11 -->
<g id="node11" class="node">
<title>Node11</title>
<g id="a_node11"><a xlink:href="abstract__pannel_8h.html" target="_top" xlink:title=" ">
<polygon fill="white" stroke="black" points="178,-168.5 178,-187.5 465,-187.5 465,-168.5 178,-168.5"/>
<text text-anchor="middle" x="321.5" y="-175.5" font-family="Helvetica,sans-Serif" font-size="10.00">src/application/user_interface/pannel/abstract_pannel.h</text>
</a>
</g>
</g>
<!-- Node1&#45;&gt;Node11 -->
<g id="edge12" class="edge">
<title>Node1&#45;&gt;Node11</title>
<path fill="none" stroke="midnightblue" d="M393.68,-224.32C380.27,-215.9 359.68,-202.97 343.91,-193.07"/>
<polygon fill="midnightblue" stroke="midnightblue" points="345.61,-190.01 335.28,-187.65 341.89,-195.94 345.61,-190.01"/>
</g>
<!-- Node12 -->
<g id="node12" class="node">
<title>Node12</title>
<g id="a_node12"><a xlink:href="abstract__data__reader_8h.html" target="_top" xlink:title=" ">
<polygon fill="white" stroke="black" points="560,-112.5 560,-131.5 767,-131.5 767,-112.5 560,-112.5"/>
<text text-anchor="middle" x="663.5" y="-119.5" font-family="Helvetica,sans-Serif" font-size="10.00">src/data_reader/abstract_data_reader.h</text>
</a>
</g>
</g>
<!-- Node1&#45;&gt;Node12 -->
<g id="edge21" class="edge">
<title>Node1&#45;&gt;Node12</title>
<path fill="none" stroke="midnightblue" d="M439.36,-224.46C467.75,-216.42 510.13,-203.35 545.5,-188 580.01,-173.03 617.74,-151.21 641.01,-137.06"/>
<polygon fill="midnightblue" stroke="midnightblue" points="643.08,-139.9 649.77,-131.69 639.41,-133.94 643.08,-139.9"/>
</g>
<!-- Node7&#45;&gt;Node5 -->
<g id="edge9" class="edge">
<title>Node7&#45;&gt;Node5</title>
<path fill="none" stroke="midnightblue" d="M351.77,-112.44C322.07,-103.28 274.78,-88.69 241.83,-78.52"/>
<polygon fill="midnightblue" stroke="midnightblue" points="242.69,-75.12 232.1,-75.52 240.62,-81.81 242.69,-75.12"/>
</g>
<!-- Node7&#45;&gt;Node6 -->
<g id="edge10" class="edge">
<title>Node7&#45;&gt;Node6</title>
<path fill="none" stroke="midnightblue" d="M396.21,-112.32C412.81,-103.7 438.5,-90.36 457.72,-80.39"/>
<polygon fill="midnightblue" stroke="midnightblue" points="459.57,-83.37 466.83,-75.65 456.34,-77.16 459.57,-83.37"/>
</g>
<!-- Node8 -->
<g id="node8" class="node">
<title>Node8</title>
<g id="a_node8"><a xlink:title=" ">
<polygon fill="white" stroke="#bfbfbf" points="363.5,-56.5 363.5,-75.5 405.5,-75.5 405.5,-56.5 363.5,-56.5"/>
<text text-anchor="middle" x="384.5" y="-63.5" font-family="Helvetica,sans-Serif" font-size="10.00">array</text>
</a>
</g>
</g>
<!-- Node7&#45;&gt;Node8 -->
<g id="edge7" class="edge">
<title>Node7&#45;&gt;Node8</title>
<path fill="none" stroke="midnightblue" d="M380.33,-112.08C380.98,-105.01 381.92,-94.86 382.74,-85.99"/>
<polygon fill="midnightblue" stroke="midnightblue" points="386.25,-86.03 383.69,-75.75 379.28,-85.39 386.25,-86.03"/>
</g>
<!-- Node9 -->
<g id="node9" class="node">
<title>Node9</title>
<g id="a_node9"><a xlink:title=" ">
<polygon fill="white" stroke="#bfbfbf" points="550.5,-0.5 550.5,-19.5 618.5,-19.5 618.5,-0.5 550.5,-0.5"/>
<text text-anchor="middle" x="584.5" y="-7.5" font-family="Helvetica,sans-Serif" font-size="10.00">filesystem</text>
</a>
</g>
</g>
<!-- Node7&#45;&gt;Node9 -->
<g id="edge8" class="edge">
<title>Node7&#45;&gt;Node9</title>
<path fill="none" stroke="midnightblue" d="M387.17,-112.2C399.62,-98.43 425.53,-71.73 452.5,-56 479.95,-39.99 513.94,-28.57 540.56,-21.24"/>
<polygon fill="midnightblue" stroke="midnightblue" points="541.61,-24.58 550.37,-18.63 539.81,-17.82 541.61,-24.58"/>
</g>
<!-- Node10 -->
<g id="node10" class="node">
<title>Node10</title>
<g id="a_node10"><a xlink:title=" ">
<polygon fill="white" stroke="#bfbfbf" points="252,-56.5 252,-75.5 345,-75.5 345,-56.5 252,-56.5"/>
<text text-anchor="middle" x="298.5" y="-63.5" font-family="Helvetica,sans-Serif" font-size="10.00">unordered_map</text>
</a>
</g>
</g>
<!-- Node7&#45;&gt;Node10 -->
<g id="edge11" class="edge">
<title>Node7&#45;&gt;Node10</title>
<path fill="none" stroke="midnightblue" d="M366.49,-112.32C353.97,-103.98 334.82,-91.21 320.03,-81.35"/>
<polygon fill="midnightblue" stroke="midnightblue" points="321.74,-78.29 311.48,-75.65 317.86,-84.11 321.74,-78.29"/>
</g>
<!-- Node11&#45;&gt;Node3 -->
<g id="edge13" class="edge">
<title>Node11&#45;&gt;Node3</title>
<path fill="none" stroke="midnightblue" d="M300.27,-168.44C278.12,-159.52 243.18,-145.44 218.06,-135.32"/>
<polygon fill="midnightblue" stroke="midnightblue" points="219.22,-132.01 208.63,-131.52 216.6,-138.5 219.22,-132.01"/>
</g>
<!-- Node11&#45;&gt;Node5 -->
<g id="edge14" class="edge">
<title>Node11&#45;&gt;Node5</title>
<path fill="none" stroke="midnightblue" d="M312.32,-168.37C292.67,-149.89 246.29,-106.29 221.25,-82.74"/>
<polygon fill="midnightblue" stroke="midnightblue" points="223.32,-79.89 213.64,-75.59 218.53,-84.99 223.32,-79.89"/>
</g>
<!-- Node11&#45;&gt;Node6 -->
<g id="edge15" class="edge">
<title>Node11&#45;&gt;Node6</title>
<path fill="none" stroke="midnightblue" d="M393.95,-168.42C419.19,-162.07 445.83,-151.06 464.5,-132 476.45,-119.81 480.95,-100.54 482.62,-86.14"/>
<polygon fill="midnightblue" stroke="midnightblue" points="486.13,-86.11 483.43,-75.87 479.15,-85.56 486.13,-86.11"/>
</g>
<!-- Node11&#45;&gt;Node7 -->
<g id="edge16" class="edge">
<title>Node11&#45;&gt;Node7</title>
<path fill="none" stroke="midnightblue" d="M330.82,-168.32C339.39,-160.34 352.31,-148.31 362.69,-138.65"/>
<polygon fill="midnightblue" stroke="midnightblue" points="365.08,-141.21 370.01,-131.83 360.31,-136.09 365.08,-141.21"/>
</g>
<!-- Node11&#45;&gt;Node12 -->
<g id="edge17" class="edge">
<title>Node11&#45;&gt;Node12</title>
<path fill="none" stroke="midnightblue" d="M375.69,-168.44C436.48,-158.85 534.99,-143.29 599.51,-133.1"/>
<polygon fill="midnightblue" stroke="midnightblue" points="600.23,-136.53 609.56,-131.52 599.14,-129.62 600.23,-136.53"/>
</g>
<!-- Node12&#45;&gt;Node9 -->
<g id="edge18" class="edge">
<title>Node12&#45;&gt;Node9</title>
<path fill="none" stroke="midnightblue" d="M664.48,-112.23C665.5,-98.95 665.66,-73.47 654.5,-56 645.53,-41.95 630.42,-31.43 616.54,-24.1"/>
<polygon fill="midnightblue" stroke="midnightblue" points="617.73,-20.79 607.21,-19.54 614.65,-27.08 617.73,-20.79"/>
</g>
<!-- Node13 -->
<g id="node13" class="node">
<title>Node13</title>
<g id="a_node13"><a xlink:href="types_8h.html" target="_top" xlink:title=" ">
<polygon fill="white" stroke="black" points="523.5,-56.5 523.5,-75.5 645.5,-75.5 645.5,-56.5 523.5,-56.5"/>
<text text-anchor="middle" x="584.5" y="-63.5" font-family="Helvetica,sans-Serif" font-size="10.00">src/data_type/types.h</text>
</a>
</g>
</g>
<!-- Node12&#45;&gt;Node13 -->
<g id="edge19" class="edge">
<title>Node12&#45;&gt;Node13</title>
<path fill="none" stroke="midnightblue" d="M650.81,-112.32C638.6,-103.98 619.92,-91.21 605.5,-81.35"/>
<polygon fill="midnightblue" stroke="midnightblue" points="607.39,-78.41 597.16,-75.65 603.44,-84.19 607.39,-78.41"/>
</g>
<!-- Node13&#45;&gt;Node9 -->
<g id="edge20" class="edge">
<title>Node13&#45;&gt;Node9</title>
<path fill="none" stroke="midnightblue" d="M584.5,-56.08C584.5,-49.01 584.5,-38.86 584.5,-29.99"/>
<polygon fill="midnightblue" stroke="midnightblue" points="588,-29.75 584.5,-19.75 581,-29.75 588,-29.75"/>
</g>
</g>
</svg>
