<?xml version="1.0" encoding="UTF-8" standalone="no"?>
<!DOCTYPE svg PUBLIC "-//W3C//DTD SVG 1.1//EN"
 "http://www.w3.org/Graphics/SVG/1.1/DTD/svg11.dtd">
<!-- Generated by graphviz version 2.43.0 (0)
 -->
<!-- Title: src/application/user_interface.cpp Pages: 1 -->
<svg width="3068pt" height="364pt"
 viewBox="0.00 0.00 3067.50 364.00" xmlns="http://www.w3.org/2000/svg" xmlns:xlink="http://www.w3.org/1999/xlink">
<g id="graph0" class="graph" transform="scale(1 1) rotate(0) translate(4 360)">
<title>src/application/user_interface.cpp</title>
<polygon fill="white" stroke="transparent" points="-4,4 -4,-360 3063.5,-360 3063.5,4 -4,4"/>
<!-- Node1 -->
<g id="node1" class="node">
<title>Node1</title>
<g id="a_node1"><a xlink:title=" ">
<polygon fill="#bfbfbf" stroke="black" points="1907.5,-336.5 1907.5,-355.5 2088.5,-355.5 2088.5,-336.5 1907.5,-336.5"/>
<text text-anchor="middle" x="1998" y="-343.5" font-family="Helvetica,sans-Serif" font-size="10.00">src/application/user_interface.cpp</text>
</a>
</g>
</g>
<!-- Node2 -->
<g id="node2" class="node">
<title>Node2</title>
<g id="a_node2"><a xlink:href="user__interface_8h.html" target="_top" xlink:title=" ">
<polygon fill="white" stroke="black" points="1628,-224.5 1628,-243.5 1798,-243.5 1798,-224.5 1628,-224.5"/>
<text text-anchor="middle" x="1713" y="-231.5" font-family="Helvetica,sans-Serif" font-size="10.00">src/application/user_interface.h</text>
</a>
</g>
</g>
<!-- Node1&#45;&gt;Node2 -->
<g id="edge1" class="edge">
<title>Node1&#45;&gt;Node2</title>
<path fill="none" stroke="midnightblue" d="M1941.03,-336.46C1903.36,-329.55 1853.45,-317.98 1812,-300 1781.71,-286.86 1750.47,-264.64 1731.39,-249.89"/>
<polygon fill="midnightblue" stroke="midnightblue" points="1733.31,-246.95 1723.29,-243.51 1728.98,-252.45 1733.31,-246.95"/>
</g>
<!-- Node3 -->
<g id="node3" class="node">
<title>Node3</title>
<g id="a_node3"><a xlink:title=" ">
<polygon fill="white" stroke="#bfbfbf" points="1461.5,-168.5 1461.5,-187.5 1544.5,-187.5 1544.5,-168.5 1461.5,-168.5"/>
<text text-anchor="middle" x="1503" y="-175.5" font-family="Helvetica,sans-Serif" font-size="10.00">GLFW/glfw3.h</text>
</a>
</g>
</g>
<!-- Node1&#45;&gt;Node3 -->
<g id="edge23" class="edge">
<title>Node1&#45;&gt;Node3</title>
<path fill="none" stroke="midnightblue" d="M1941.66,-336.47C1895.15,-328.81 1827.66,-316.27 1770,-300 1701.11,-280.56 1683.97,-274.03 1619,-244 1585.3,-228.42 1548.15,-206.76 1525.2,-192.81"/>
<polygon fill="midnightblue" stroke="midnightblue" points="1526.92,-189.76 1516.56,-187.52 1523.26,-195.73 1526.92,-189.76"/>
</g>
<!-- Node7 -->
<g id="node7" class="node">
<title>Node7</title>
<g id="a_node7"><a xlink:title=" ">
<polygon fill="white" stroke="#bfbfbf" points="1804,-56.5 1804,-75.5 1848,-75.5 1848,-56.5 1804,-56.5"/>
<text text-anchor="middle" x="1826" y="-63.5" font-family="Helvetica,sans-Serif" font-size="10.00">string</text>
</a>
</g>
</g>
<!-- Node1&#45;&gt;Node7 -->
<g id="edge30" class="edge">
<title>Node1&#45;&gt;Node7</title>
<path fill="none" stroke="midnightblue" d="M1970.88,-336.47C1931.73,-322.27 1864,-289.78 1864,-235 1864,-235 1864,-235 1864,-177 1864,-142.81 1847.4,-105.76 1836.14,-84.57"/>
<polygon fill="midnightblue" stroke="midnightblue" points="1839.18,-82.83 1831.28,-75.77 1833.05,-86.22 1839.18,-82.83"/>
</g>
<!-- Node8 -->
<g id="node8" class="node">
<title>Node8</title>
<g id="a_node8"><a xlink:href="dataloader_8h.html" target="_top" xlink:title=" ">
<polygon fill="white" stroke="black" points="1646,-112.5 1646,-131.5 1798,-131.5 1798,-112.5 1646,-112.5"/>
<text text-anchor="middle" x="1722" y="-119.5" font-family="Helvetica,sans-Serif" font-size="10.00">src/application/dataloader.h</text>
</a>
</g>
</g>
<!-- Node1&#45;&gt;Node8 -->
<g id="edge36" class="edge">
<title>Node1&#45;&gt;Node8</title>
<path fill="none" stroke="midnightblue" d="M1933.96,-336.49C1905.85,-330.16 1873.89,-319.14 1850,-300 1819.71,-275.73 1829.14,-255.87 1807,-224 1784.92,-192.22 1754.98,-158.41 1737.16,-139.09"/>
<polygon fill="midnightblue" stroke="midnightblue" points="1739.7,-136.68 1730.32,-131.74 1734.57,-141.45 1739.7,-136.68"/>
</g>
<!-- Node9 -->
<g id="node9" class="node">
<title>Node9</title>
<g id="a_node9"><a xlink:title=" ">
<polygon fill="white" stroke="#bfbfbf" points="1876,-56.5 1876,-75.5 1918,-75.5 1918,-56.5 1876,-56.5"/>
<text text-anchor="middle" x="1897" y="-63.5" font-family="Helvetica,sans-Serif" font-size="10.00">array</text>
</a>
</g>
</g>
<!-- Node1&#45;&gt;Node9 -->
<g id="edge24" class="edge">
<title>Node1&#45;&gt;Node9</title>
<path fill="none" stroke="midnightblue" d="M1982.15,-336.44C1954.88,-320.43 1902,-283.16 1902,-235 1902,-235 1902,-235 1902,-177 1902,-144.91 1899.85,-107.62 1898.37,-85.74"/>
<polygon fill="midnightblue" stroke="midnightblue" points="1901.85,-85.28 1897.65,-75.55 1894.86,-85.77 1901.85,-85.28"/>
</g>
<!-- Node15 -->
<g id="node15" class="node">
<title>Node15</title>
<g id="a_node15"><a xlink:title=" ">
<polygon fill="white" stroke="#bfbfbf" points="1968,-280.5 1968,-299.5 2028,-299.5 2028,-280.5 1968,-280.5"/>
<text text-anchor="middle" x="1998" y="-287.5" font-family="Helvetica,sans-Serif" font-size="10.00">iostream</text>
</a>
</g>
</g>
<!-- Node1&#45;&gt;Node15 -->
<g id="edge25" class="edge">
<title>Node1&#45;&gt;Node15</title>
<path fill="none" stroke="midnightblue" d="M1998,-336.08C1998,-329.01 1998,-318.86 1998,-309.99"/>
<polygon fill="midnightblue" stroke="midnightblue" points="2001.5,-309.75 1998,-299.75 1994.5,-309.75 2001.5,-309.75"/>
</g>
<!-- Node16 -->
<g id="node16" class="node">
<title>Node16</title>
<g id="a_node16"><a xlink:title=" ">
<polygon fill="white" stroke="#bfbfbf" points="2046.5,-280.5 2046.5,-299.5 2149.5,-299.5 2149.5,-280.5 2046.5,-280.5"/>
<text text-anchor="middle" x="2098" y="-287.5" font-family="Helvetica,sans-Serif" font-size="10.00">opencv2/core.hpp</text>
</a>
</g>
</g>
<!-- Node1&#45;&gt;Node16 -->
<g id="edge26" class="edge">
<title>Node1&#45;&gt;Node16</title>
<path fill="none" stroke="midnightblue" d="M2014.07,-336.32C2029.96,-327.74 2054.51,-314.49 2072.96,-304.52"/>
<polygon fill="midnightblue" stroke="midnightblue" points="2074.84,-307.49 2081.97,-299.65 2071.51,-301.33 2074.84,-307.49"/>
</g>
<!-- Node17 -->
<g id="node17" class="node">
<title>Node17</title>
<g id="a_node17"><a xlink:title=" ">
<polygon fill="white" stroke="#bfbfbf" points="2168,-280.5 2168,-299.5 2286,-299.5 2286,-280.5 2168,-280.5"/>
<text text-anchor="middle" x="2227" y="-287.5" font-family="Helvetica,sans-Serif" font-size="10.00">opencv2/highgui.hpp</text>
</a>
</g>
</g>
<!-- Node1&#45;&gt;Node17 -->
<g id="edge27" class="edge">
<title>Node1&#45;&gt;Node17</title>
<path fill="none" stroke="midnightblue" d="M2034.29,-336.44C2073.98,-327.08 2137.71,-312.06 2180.91,-301.87"/>
<polygon fill="midnightblue" stroke="midnightblue" points="2181.95,-305.22 2190.88,-299.52 2180.35,-298.41 2181.95,-305.22"/>
</g>
<!-- Node18 -->
<g id="node18" class="node">
<title>Node18</title>
<g id="a_node18"><a xlink:title=" ">
<polygon fill="white" stroke="#bfbfbf" points="2304,-280.5 2304,-299.5 2438,-299.5 2438,-280.5 2304,-280.5"/>
<text text-anchor="middle" x="2371" y="-287.5" font-family="Helvetica,sans-Serif" font-size="10.00">opencv2/imgcodecs.hpp</text>
</a>
</g>
</g>
<!-- Node1&#45;&gt;Node18 -->
<g id="edge28" class="edge">
<title>Node1&#45;&gt;Node18</title>
<path fill="none" stroke="midnightblue" d="M2057.1,-336.44C2123.67,-326.81 2231.72,-311.16 2302.08,-300.98"/>
<polygon fill="midnightblue" stroke="midnightblue" points="2302.78,-304.41 2312.17,-299.52 2301.78,-297.49 2302.78,-304.41"/>
</g>
<!-- Node19 -->
<g id="node19" class="node">
<title>Node19</title>
<g id="a_node19"><a xlink:title=" ">
<polygon fill="white" stroke="#bfbfbf" points="2456.5,-280.5 2456.5,-299.5 2521.5,-299.5 2521.5,-280.5 2456.5,-280.5"/>
<text text-anchor="middle" x="2489" y="-287.5" font-family="Helvetica,sans-Serif" font-size="10.00">stdexcept</text>
</a>
</g>
</g>
<!-- Node1&#45;&gt;Node19 -->
<g id="edge29" class="edge">
<title>Node1&#45;&gt;Node19</title>
<path fill="none" stroke="midnightblue" d="M2088.68,-338.89C2177.33,-332.23 2316.28,-319.99 2445.94,-300"/>
<polygon fill="midnightblue" stroke="midnightblue" points="2446.71,-303.42 2456.05,-298.42 2445.63,-296.51 2446.71,-303.42"/>
</g>
<!-- Node20 -->
<g id="node20" class="node">
<title>Node20</title>
<g id="a_node20"><a xlink:title=" ">
<polygon fill="white" stroke="#bfbfbf" points="2539.5,-280.5 2539.5,-299.5 2586.5,-299.5 2586.5,-280.5 2539.5,-280.5"/>
<text text-anchor="middle" x="2563" y="-287.5" font-family="Helvetica,sans-Serif" font-size="10.00">vector</text>
</a>
</g>
</g>
<!-- Node1&#45;&gt;Node20 -->
<g id="edge31" class="edge">
<title>Node1&#45;&gt;Node20</title>
<path fill="none" stroke="midnightblue" d="M2088.75,-342.58C2193.19,-338.61 2369.83,-328.28 2529.35,-299.99"/>
<polygon fill="midnightblue" stroke="midnightblue" points="2530.13,-303.41 2539.35,-298.19 2528.89,-296.52 2530.13,-303.41"/>
</g>
<!-- Node21 -->
<g id="node21" class="node">
<title>Node21</title>
<g id="a_node21"><a xlink:title=" ">
<polygon fill="white" stroke="#bfbfbf" points="0,-112.5 0,-131.5 98,-131.5 98,-112.5 0,-112.5"/>
<text text-anchor="middle" x="49" y="-119.5" font-family="Helvetica,sans-Serif" font-size="10.00">bindings/imgui.h</text>
</a>
</g>
</g>
<!-- Node1&#45;&gt;Node21 -->
<g id="edge32" class="edge">
<title>Node1&#45;&gt;Node21</title>
<path fill="none" stroke="midnightblue" d="M1907.48,-343.8C1529.68,-338.35 95.18,-313.14 30,-244 3.49,-215.87 24.21,-166.68 38.45,-140.52"/>
<polygon fill="midnightblue" stroke="midnightblue" points="41.56,-142.14 43.48,-131.72 35.48,-138.66 41.56,-142.14"/>
</g>
<!-- Node22 -->
<g id="node22" class="node">
<title>Node22</title>
<g id="a_node22"><a xlink:title=" ">
<polygon fill="white" stroke="#bfbfbf" points="2604.5,-280.5 2604.5,-299.5 2753.5,-299.5 2753.5,-280.5 2604.5,-280.5"/>
<text text-anchor="middle" x="2679" y="-287.5" font-family="Helvetica,sans-Serif" font-size="10.00">bindings/imgui_impl_glfw.h</text>
</a>
</g>
</g>
<!-- Node1&#45;&gt;Node22 -->
<g id="edge33" class="edge">
<title>Node1&#45;&gt;Node22</title>
<path fill="none" stroke="midnightblue" d="M2088.75,-339.1C2203.88,-331.41 2408.81,-317.02 2594.15,-300.15"/>
<polygon fill="midnightblue" stroke="midnightblue" points="2594.72,-303.61 2604.35,-299.21 2594.08,-296.64 2594.72,-303.61"/>
</g>
<!-- Node23 -->
<g id="node23" class="node">
<title>Node23</title>
<g id="a_node23"><a xlink:title=" ">
<polygon fill="white" stroke="#bfbfbf" points="2771.5,-280.5 2771.5,-299.5 2940.5,-299.5 2940.5,-280.5 2771.5,-280.5"/>
<text text-anchor="middle" x="2856" y="-287.5" font-family="Helvetica,sans-Serif" font-size="10.00">bindings/imgui_impl_opengl2.h</text>
</a>
</g>
</g>
<!-- Node1&#45;&gt;Node23 -->
<g id="edge34" class="edge">
<title>Node1&#45;&gt;Node23</title>
<path fill="none" stroke="midnightblue" d="M2088.75,-340.77C2230.19,-333.93 2512.05,-319.32 2761.39,-300.1"/>
<polygon fill="midnightblue" stroke="midnightblue" points="2761.66,-303.59 2771.36,-299.33 2761.12,-296.61 2761.66,-303.59"/>
</g>
<!-- Node24 -->
<g id="node24" class="node">
<title>Node24</title>
<g id="a_node24"><a xlink:title=" ">
<polygon fill="white" stroke="#bfbfbf" points="2958.5,-280.5 2958.5,-299.5 3059.5,-299.5 3059.5,-280.5 2958.5,-280.5"/>
<text text-anchor="middle" x="3009" y="-287.5" font-family="Helvetica,sans-Serif" font-size="10.00">bindings/implot.h</text>
</a>
</g>
</g>
<!-- Node1&#45;&gt;Node24 -->
<g id="edge35" class="edge">
<title>Node1&#45;&gt;Node24</title>
<path fill="none" stroke="midnightblue" d="M2088.8,-343.85C2256.67,-341.04 2627.01,-331.61 2948.23,-300.08"/>
<polygon fill="midnightblue" stroke="midnightblue" points="2948.59,-303.56 2958.19,-299.09 2947.9,-296.6 2948.59,-303.56"/>
</g>
<!-- Node25 -->
<g id="node25" class="node">
<title>Node25</title>
<g id="a_node25"><a xlink:href="pannel_8h.html" target="_top" xlink:title=" ">
<polygon fill="white" stroke="black" points="987,-280.5 987,-299.5 1193,-299.5 1193,-280.5 987,-280.5"/>
<text text-anchor="middle" x="1090" y="-287.5" font-family="Helvetica,sans-Serif" font-size="10.00">src/application/user_interface/pannel.h</text>
</a>
</g>
</g>
<!-- Node1&#45;&gt;Node25 -->
<g id="edge37" class="edge">
<title>Node1&#45;&gt;Node25</title>
<path fill="none" stroke="midnightblue" d="M1907.2,-339.6C1740.35,-329.68 1385.43,-308.57 1203.18,-297.73"/>
<polygon fill="midnightblue" stroke="midnightblue" points="1203.22,-294.23 1193.03,-297.13 1202.8,-301.21 1203.22,-294.23"/>
</g>
<!-- Node33 -->
<g id="node33" class="node">
<title>Node33</title>
<g id="a_node33"><a xlink:href="data__reader_8h.html" target="_top" xlink:title=" ">
<polygon fill="white" stroke="black" points="1991.5,-224.5 1991.5,-243.5 2092.5,-243.5 2092.5,-224.5 1991.5,-224.5"/>
<text text-anchor="middle" x="2042" y="-231.5" font-family="Helvetica,sans-Serif" font-size="10.00">src/data_reader.h</text>
</a>
</g>
</g>
<!-- Node1&#45;&gt;Node33 -->
<g id="edge59" class="edge">
<title>Node1&#45;&gt;Node33</title>
<path fill="none" stroke="midnightblue" d="M1986.27,-336.39C1970.82,-323.96 1946.95,-300.24 1959,-280 1968.1,-264.72 1984.39,-254.31 2000.14,-247.39"/>
<polygon fill="midnightblue" stroke="midnightblue" points="2001.83,-250.48 2009.82,-243.51 1999.23,-243.98 2001.83,-250.48"/>
</g>
<!-- Node2&#45;&gt;Node3 -->
<g id="edge2" class="edge">
<title>Node2&#45;&gt;Node3</title>
<path fill="none" stroke="midnightblue" d="M1679.72,-224.44C1643.55,-215.14 1585.62,-200.25 1546.02,-190.06"/>
<polygon fill="midnightblue" stroke="midnightblue" points="1546.68,-186.62 1536.12,-187.52 1544.93,-193.4 1546.68,-186.62"/>
</g>
<!-- Node4 -->
<g id="node4" class="node">
<title>Node4</title>
<g id="a_node4"><a xlink:title=" ">
<polygon fill="white" stroke="#bfbfbf" points="1082.5,-112.5 1082.5,-131.5 1135.5,-131.5 1135.5,-112.5 1082.5,-112.5"/>
<text text-anchor="middle" x="1109" y="-119.5" font-family="Helvetica,sans-Serif" font-size="10.00">imgui.h</text>
</a>
</g>
</g>
<!-- Node2&#45;&gt;Node4 -->
<g id="edge3" class="edge">
<title>Node2&#45;&gt;Node4</title>
<path fill="none" stroke="midnightblue" d="M1689.71,-224.48C1666.16,-215.74 1628.8,-201.55 1597,-188 1577.61,-179.74 1574.32,-173.58 1554,-168 1406.68,-127.53 1222.96,-122.69 1145.81,-122.61"/>
<polygon fill="midnightblue" stroke="midnightblue" points="1145.64,-119.11 1135.64,-122.63 1145.65,-126.11 1145.64,-119.11"/>
</g>
<!-- Node5 -->
<g id="node5" class="node">
<title>Node5</title>
<g id="a_node5"><a xlink:title=" ">
<polygon fill="white" stroke="#bfbfbf" points="1639,-168.5 1639,-187.5 1713,-187.5 1713,-168.5 1639,-168.5"/>
<text text-anchor="middle" x="1676" y="-175.5" font-family="Helvetica,sans-Serif" font-size="10.00">forward_list</text>
</a>
</g>
</g>
<!-- Node2&#45;&gt;Node5 -->
<g id="edge4" class="edge">
<title>Node2&#45;&gt;Node5</title>
<path fill="none" stroke="midnightblue" d="M1706.89,-224.08C1701.72,-216.53 1694.15,-205.49 1687.81,-196.23"/>
<polygon fill="midnightblue" stroke="midnightblue" points="1690.54,-194.02 1682,-187.75 1684.76,-197.98 1690.54,-194.02"/>
</g>
<!-- Node6 -->
<g id="node6" class="node">
<title>Node6</title>
<g id="a_node6"><a xlink:title=" ">
<polygon fill="white" stroke="#bfbfbf" points="1271,-56.5 1271,-75.5 1329,-75.5 1329,-56.5 1271,-56.5"/>
<text text-anchor="middle" x="1300" y="-63.5" font-family="Helvetica,sans-Serif" font-size="10.00">memory</text>
</a>
</g>
</g>
<!-- Node2&#45;&gt;Node6 -->
<g id="edge5" class="edge">
<title>Node2&#45;&gt;Node6</title>
<path fill="none" stroke="midnightblue" d="M1697.2,-224.34C1668.84,-208.88 1610.29,-177.24 1589,-168 1501.56,-130.05 1394.8,-95.7 1338.71,-78.54"/>
<polygon fill="midnightblue" stroke="midnightblue" points="1339.42,-75.1 1328.84,-75.53 1337.38,-81.79 1339.42,-75.1"/>
</g>
<!-- Node2&#45;&gt;Node7 -->
<g id="edge6" class="edge">
<title>Node2&#45;&gt;Node7</title>
<path fill="none" stroke="midnightblue" d="M1723.73,-224.47C1743.19,-208.42 1784.39,-171.77 1807,-132 1815.17,-117.63 1820.1,-99.43 1822.88,-85.95"/>
<polygon fill="midnightblue" stroke="midnightblue" points="1826.36,-86.39 1824.74,-75.92 1819.47,-85.12 1826.36,-86.39"/>
</g>
<!-- Node2&#45;&gt;Node8 -->
<g id="edge7" class="edge">
<title>Node2&#45;&gt;Node8</title>
<path fill="none" stroke="midnightblue" d="M1715.23,-224.45C1717.46,-215.45 1720.73,-200.84 1722,-188 1723.53,-172.54 1723.42,-154.91 1722.98,-141.91"/>
<polygon fill="midnightblue" stroke="midnightblue" points="1726.48,-141.7 1722.55,-131.86 1719.48,-142 1726.48,-141.7"/>
</g>
<!-- Node12 -->
<g id="node12" class="node">
<title>Node12</title>
<g id="a_node12"><a xlink:href="abstract__pannel_8h.html" target="_top" xlink:title=" ">
<polygon fill="white" stroke="black" points="1156.5,-168.5 1156.5,-187.5 1443.5,-187.5 1443.5,-168.5 1156.5,-168.5"/>
<text text-anchor="middle" x="1300" y="-175.5" font-family="Helvetica,sans-Serif" font-size="10.00">src/application/user_interface/pannel/abstract_pannel.h</text>
</a>
</g>
</g>
<!-- Node2&#45;&gt;Node12 -->
<g id="edge13" class="edge">
<title>Node2&#45;&gt;Node12</title>
<path fill="none" stroke="midnightblue" d="M1647.56,-224.44C1573.55,-214.77 1453.23,-199.04 1375.36,-188.85"/>
<polygon fill="midnightblue" stroke="midnightblue" points="1375.5,-185.34 1365.13,-187.52 1374.6,-192.28 1375.5,-185.34"/>
</g>
<!-- Node13 -->
<g id="node13" class="node">
<title>Node13</title>
<g id="a_node13"><a xlink:href="abstract__data__reader_8h.html" target="_top" xlink:title=" ">
<polygon fill="white" stroke="black" points="1930.5,-112.5 1930.5,-131.5 2137.5,-131.5 2137.5,-112.5 1930.5,-112.5"/>
<text text-anchor="middle" x="2034" y="-119.5" font-family="Helvetica,sans-Serif" font-size="10.00">src/data_reader/abstract_data_reader.h</text>
</a>
</g>
</g>
<!-- Node2&#45;&gt;Node13 -->
<g id="edge22" class="edge">
<title>Node2&#45;&gt;Node13</title>
<path fill="none" stroke="midnightblue" d="M1737.92,-224.46C1794.69,-205.01 1933.75,-157.36 1999.05,-134.98"/>
<polygon fill="midnightblue" stroke="midnightblue" points="2000.55,-138.16 2008.87,-131.61 1998.28,-131.54 2000.55,-138.16"/>
</g>
<!-- Node8&#45;&gt;Node6 -->
<g id="edge10" class="edge">
<title>Node8&#45;&gt;Node6</title>
<path fill="none" stroke="midnightblue" d="M1655.13,-112.44C1566.08,-101.05 1411.43,-81.26 1339.23,-72.02"/>
<polygon fill="midnightblue" stroke="midnightblue" points="1339.56,-68.53 1329.2,-70.74 1338.67,-75.48 1339.56,-68.53"/>
</g>
<!-- Node8&#45;&gt;Node7 -->
<g id="edge11" class="edge">
<title>Node8&#45;&gt;Node7</title>
<path fill="none" stroke="midnightblue" d="M1738.71,-112.32C1755.31,-103.7 1781,-90.36 1800.22,-80.39"/>
<polygon fill="midnightblue" stroke="midnightblue" points="1802.07,-83.37 1809.33,-75.65 1798.84,-77.16 1802.07,-83.37"/>
</g>
<!-- Node8&#45;&gt;Node9 -->
<g id="edge8" class="edge">
<title>Node8&#45;&gt;Node9</title>
<path fill="none" stroke="midnightblue" d="M1749.73,-112.44C1781.52,-102.63 1833.48,-86.6 1866.42,-76.44"/>
<polygon fill="midnightblue" stroke="midnightblue" points="1867.47,-79.78 1875.99,-73.48 1865.4,-73.09 1867.47,-79.78"/>
</g>
<!-- Node10 -->
<g id="node10" class="node">
<title>Node10</title>
<g id="a_node10"><a xlink:title=" ">
<polygon fill="white" stroke="#bfbfbf" points="1960,-0.5 1960,-19.5 2028,-19.5 2028,-0.5 1960,-0.5"/>
<text text-anchor="middle" x="1994" y="-7.5" font-family="Helvetica,sans-Serif" font-size="10.00">filesystem</text>
</a>
</g>
</g>
<!-- Node8&#45;&gt;Node10 -->
<g id="edge9" class="edge">
<title>Node8&#45;&gt;Node10</title>
<path fill="none" stroke="midnightblue" d="M1710.41,-112.36C1694.21,-99.25 1668.43,-73.99 1684,-56 1717.77,-16.97 1871.9,-11.08 1949.33,-10.64"/>
<polygon fill="midnightblue" stroke="midnightblue" points="1949.74,-14.14 1959.73,-10.61 1949.72,-7.14 1949.74,-14.14"/>
</g>
<!-- Node11 -->
<g id="node11" class="node">
<title>Node11</title>
<g id="a_node11"><a xlink:title=" ">
<polygon fill="white" stroke="#bfbfbf" points="1692.5,-56.5 1692.5,-75.5 1785.5,-75.5 1785.5,-56.5 1692.5,-56.5"/>
<text text-anchor="middle" x="1739" y="-63.5" font-family="Helvetica,sans-Serif" font-size="10.00">unordered_map</text>
</a>
</g>
</g>
<!-- Node8&#45;&gt;Node11 -->
<g id="edge12" class="edge">
<title>Node8&#45;&gt;Node11</title>
<path fill="none" stroke="midnightblue" d="M1724.81,-112.08C1727.08,-104.85 1730.37,-94.41 1733.21,-85.4"/>
<polygon fill="midnightblue" stroke="midnightblue" points="1736.58,-86.34 1736.25,-75.75 1729.9,-84.24 1736.58,-86.34"/>
</g>
<!-- Node12&#45;&gt;Node4 -->
<g id="edge14" class="edge">
<title>Node12&#45;&gt;Node4</title>
<path fill="none" stroke="midnightblue" d="M1269.74,-168.44C1235.99,-158.9 1181.42,-143.47 1145.38,-133.28"/>
<polygon fill="midnightblue" stroke="midnightblue" points="1146.31,-129.91 1135.73,-130.56 1144.4,-136.65 1146.31,-129.91"/>
</g>
<!-- Node12&#45;&gt;Node6 -->
<g id="edge15" class="edge">
<title>Node12&#45;&gt;Node6</title>
<path fill="none" stroke="midnightblue" d="M1300,-168.37C1300,-150.62 1300,-109.67 1300,-85.6"/>
<polygon fill="midnightblue" stroke="midnightblue" points="1303.5,-85.59 1300,-75.59 1296.5,-85.59 1303.5,-85.59"/>
</g>
<!-- Node12&#45;&gt;Node7 -->
<g id="edge16" class="edge">
<title>Node12&#45;&gt;Node7</title>
<path fill="none" stroke="midnightblue" d="M1344.14,-168.47C1445.13,-148.89 1691.58,-100.65 1793.71,-76.15"/>
<polygon fill="midnightblue" stroke="midnightblue" points="1794.82,-79.48 1803.71,-73.71 1793.16,-72.68 1794.82,-79.48"/>
</g>
<!-- Node12&#45;&gt;Node8 -->
<g id="edge17" class="edge">
<title>Node12&#45;&gt;Node8</title>
<path fill="none" stroke="midnightblue" d="M1366.87,-168.44C1442.64,-158.75 1565.93,-142.97 1645.49,-132.79"/>
<polygon fill="midnightblue" stroke="midnightblue" points="1645.97,-136.26 1655.45,-131.52 1645.08,-129.31 1645.97,-136.26"/>
</g>
<!-- Node12&#45;&gt;Node13 -->
<g id="edge18" class="edge">
<title>Node12&#45;&gt;Node13</title>
<path fill="none" stroke="midnightblue" d="M1415.9,-168.47C1553.94,-158.32 1783.03,-141.46 1920.16,-131.38"/>
<polygon fill="midnightblue" stroke="midnightblue" points="1920.56,-134.86 1930.28,-130.63 1920.05,-127.87 1920.56,-134.86"/>
</g>
<!-- Node13&#45;&gt;Node10 -->
<g id="edge19" class="edge">
<title>Node13&#45;&gt;Node10</title>
<path fill="none" stroke="midnightblue" d="M2012.19,-112.45C1997.06,-105.22 1978.05,-93.26 1969,-76 1960.79,-60.34 1970.12,-41.36 1979.63,-27.96"/>
<polygon fill="midnightblue" stroke="midnightblue" points="1982.68,-29.74 1986.03,-19.69 1977.14,-25.46 1982.68,-29.74"/>
</g>
<!-- Node14 -->
<g id="node14" class="node">
<title>Node14</title>
<g id="a_node14"><a xlink:href="types_8h.html" target="_top" xlink:title=" ">
<polygon fill="white" stroke="black" points="1978,-56.5 1978,-75.5 2100,-75.5 2100,-56.5 1978,-56.5"/>
<text text-anchor="middle" x="2039" y="-63.5" font-family="Helvetica,sans-Serif" font-size="10.00">src/data_type/types.h</text>
</a>
</g>
</g>
<!-- Node13&#45;&gt;Node14 -->
<g id="edge20" class="edge">
<title>Node13&#45;&gt;Node14</title>
<path fill="none" stroke="midnightblue" d="M2034.83,-112.08C2035.48,-105.01 2036.42,-94.86 2037.24,-85.99"/>
<polygon fill="midnightblue" stroke="midnightblue" points="2040.75,-86.03 2038.19,-75.75 2033.78,-85.39 2040.75,-86.03"/>
</g>
<!-- Node14&#45;&gt;Node10 -->
<g id="edge21" class="edge">
<title>Node14&#45;&gt;Node10</title>
<path fill="none" stroke="midnightblue" d="M2031.57,-56.08C2025.15,-48.38 2015.69,-37.03 2007.88,-27.65"/>
<polygon fill="midnightblue" stroke="midnightblue" points="2010.38,-25.19 2001.29,-19.75 2005.01,-29.67 2010.38,-25.19"/>
</g>
<!-- Node25&#45;&gt;Node12 -->
<g id="edge38" class="edge">
<title>Node25&#45;&gt;Node12</title>
<path fill="none" stroke="midnightblue" d="M1193.1,-285.93C1319.52,-281.08 1519.96,-269.45 1543,-244 1548.97,-237.41 1548.68,-230.83 1543,-224 1528.18,-206.18 1482.57,-195.38 1434.8,-188.86"/>
<polygon fill="midnightblue" stroke="midnightblue" points="1434.96,-185.35 1424.59,-187.53 1434.06,-192.29 1434.96,-185.35"/>
</g>
<!-- Node26 -->
<g id="node26" class="node">
<title>Node26</title>
<g id="a_node26"><a xlink:href="cam__view__pannel_8h.html" target="_top" xlink:title=" ">
<polygon fill="white" stroke="black" points="942,-224.5 942,-243.5 1238,-243.5 1238,-224.5 942,-224.5"/>
<text text-anchor="middle" x="1090" y="-231.5" font-family="Helvetica,sans-Serif" font-size="10.00">src/application/user_interface/pannel/cam_view_pannel.h</text>
</a>
</g>
</g>
<!-- Node25&#45;&gt;Node26 -->
<g id="edge39" class="edge">
<title>Node25&#45;&gt;Node26</title>
<path fill="none" stroke="midnightblue" d="M1090,-280.08C1090,-273.01 1090,-262.86 1090,-253.99"/>
<polygon fill="midnightblue" stroke="midnightblue" points="1093.5,-253.75 1090,-243.75 1086.5,-253.75 1093.5,-253.75"/>
</g>
<!-- Node27 -->
<g id="node27" class="node">
<title>Node27</title>
<g id="a_node27"><a xlink:href="control__pannel_8h.html" target="_top" xlink:title=" ">
<polygon fill="white" stroke="black" points="347.5,-224.5 347.5,-243.5 628.5,-243.5 628.5,-224.5 347.5,-224.5"/>
<text text-anchor="middle" x="488" y="-231.5" font-family="Helvetica,sans-Serif" font-size="10.00">src/application/user_interface/pannel/control_pannel.h</text>
</a>
</g>
</g>
<!-- Node25&#45;&gt;Node27 -->
<g id="edge42" class="edge">
<title>Node25&#45;&gt;Node27</title>
<path fill="none" stroke="midnightblue" d="M994.94,-280.47C885.59,-270.66 706.57,-254.61 593.14,-244.43"/>
<polygon fill="midnightblue" stroke="midnightblue" points="593.33,-240.93 583.05,-243.53 592.7,-247.91 593.33,-240.93"/>
</g>
<!-- Node29 -->
<g id="node29" class="node">
<title>Node29</title>
<g id="a_node29"><a xlink:href="dialog__pannel_8h.html" target="_top" xlink:title=" ">
<polygon fill="white" stroke="black" points="646.5,-224.5 646.5,-243.5 923.5,-243.5 923.5,-224.5 646.5,-224.5"/>
<text text-anchor="middle" x="785" y="-231.5" font-family="Helvetica,sans-Serif" font-size="10.00">src/application/user_interface/pannel/dialog_pannel.h</text>
</a>
</g>
</g>
<!-- Node25&#45;&gt;Node29 -->
<g id="edge47" class="edge">
<title>Node25&#45;&gt;Node29</title>
<path fill="none" stroke="midnightblue" d="M1041.67,-280.44C987.8,-270.9 900.69,-255.48 843.14,-245.29"/>
<polygon fill="midnightblue" stroke="midnightblue" points="843.56,-241.81 833.1,-243.52 842.34,-248.71 843.56,-241.81"/>
</g>
<!-- Node30 -->
<g id="node30" class="node">
<title>Node30</title>
<g id="a_node30"><a xlink:href="media__pannel_8h.html" target="_top" xlink:title=" ">
<polygon fill="white" stroke="black" points="1256,-224.5 1256,-243.5 1534,-243.5 1534,-224.5 1256,-224.5"/>
<text text-anchor="middle" x="1395" y="-231.5" font-family="Helvetica,sans-Serif" font-size="10.00">src/application/user_interface/pannel/media_pannel.h</text>
</a>
</g>
</g>
<!-- Node25&#45;&gt;Node30 -->
<g id="edge50" class="edge">
<title>Node25&#45;&gt;Node30</title>
<path fill="none" stroke="midnightblue" d="M1138.33,-280.44C1192.2,-270.9 1279.31,-255.48 1336.86,-245.29"/>
<polygon fill="midnightblue" stroke="midnightblue" points="1337.66,-248.71 1346.9,-243.52 1336.44,-241.81 1337.66,-248.71"/>
</g>
<!-- Node31 -->
<g id="node31" class="node">
<title>Node31</title>
<g id="a_node31"><a xlink:href="top__view__pannel_8h.html" target="_top" xlink:title=" ">
<polygon fill="white" stroke="black" points="38.5,-224.5 38.5,-243.5 329.5,-243.5 329.5,-224.5 38.5,-224.5"/>
<text text-anchor="middle" x="184" y="-231.5" font-family="Helvetica,sans-Serif" font-size="10.00">src/application/user_interface/pannel/top_view_pannel.h</text>
</a>
</g>
</g>
<!-- Node25&#45;&gt;Node31 -->
<g id="edge53" class="edge">
<title>Node25&#45;&gt;Node31</title>
<path fill="none" stroke="midnightblue" d="M986.95,-282.86C827.9,-273.38 521.68,-255.13 336.8,-244.11"/>
<polygon fill="midnightblue" stroke="midnightblue" points="336.91,-240.61 326.72,-243.51 336.49,-247.6 336.91,-240.61"/>
</g>
<!-- Node26&#45;&gt;Node4 -->
<g id="edge40" class="edge">
<title>Node26&#45;&gt;Node4</title>
<path fill="none" stroke="midnightblue" d="M1091.49,-224.37C1094.56,-206.62 1101.63,-165.67 1105.79,-141.6"/>
<polygon fill="midnightblue" stroke="midnightblue" points="1109.26,-142.04 1107.52,-131.59 1102.36,-140.85 1109.26,-142.04"/>
</g>
<!-- Node26&#45;&gt;Node12 -->
<g id="edge41" class="edge">
<title>Node26&#45;&gt;Node12</title>
<path fill="none" stroke="midnightblue" d="M1123.28,-224.44C1159.45,-215.14 1217.38,-200.25 1256.98,-190.06"/>
<polygon fill="midnightblue" stroke="midnightblue" points="1258.07,-193.4 1266.88,-187.52 1256.32,-186.62 1258.07,-193.4"/>
</g>
<!-- Node27&#45;&gt;Node4 -->
<g id="edge43" class="edge">
<title>Node27&#45;&gt;Node4</title>
<path fill="none" stroke="midnightblue" d="M536.21,-224.46C656.18,-203.21 966.11,-148.31 1072.51,-129.46"/>
<polygon fill="midnightblue" stroke="midnightblue" points="1073.21,-132.89 1082.44,-127.7 1071.99,-126 1073.21,-132.89"/>
</g>
<!-- Node27&#45;&gt;Node6 -->
<g id="edge44" class="edge">
<title>Node27&#45;&gt;Node6</title>
<path fill="none" stroke="midnightblue" d="M487.9,-224.25C488.25,-210.05 491.2,-182.14 508,-168 623.62,-70.7 1116.84,-65.88 1260.56,-66.59"/>
<polygon fill="midnightblue" stroke="midnightblue" points="1260.66,-70.09 1270.68,-66.65 1260.7,-63.09 1260.66,-70.09"/>
</g>
<!-- Node27&#45;&gt;Node12 -->
<g id="edge46" class="edge">
<title>Node27&#45;&gt;Node12</title>
<path fill="none" stroke="midnightblue" d="M616.22,-224.47C764.86,-214.59 1008.94,-198.36 1161.74,-188.19"/>
<polygon fill="midnightblue" stroke="midnightblue" points="1162.38,-191.66 1172.12,-187.5 1161.91,-184.68 1162.38,-191.66"/>
</g>
<!-- Node28 -->
<g id="node28" class="node">
<title>Node28</title>
<g id="a_node28"><a xlink:title=" ">
<polygon fill="white" stroke="#bfbfbf" points="516.5,-168.5 516.5,-187.5 611.5,-187.5 611.5,-168.5 516.5,-168.5"/>
<text text-anchor="middle" x="564" y="-175.5" font-family="Helvetica,sans-Serif" font-size="10.00">..\..\dataloader.h</text>
</a>
</g>
</g>
<!-- Node27&#45;&gt;Node28 -->
<g id="edge45" class="edge">
<title>Node27&#45;&gt;Node28</title>
<path fill="none" stroke="midnightblue" d="M500.21,-224.32C511.78,-216.11 529.38,-203.6 543.16,-193.81"/>
<polygon fill="midnightblue" stroke="midnightblue" points="545.44,-196.48 551.57,-187.83 541.39,-190.77 545.44,-196.48"/>
</g>
<!-- Node29&#45;&gt;Node4 -->
<g id="edge48" class="edge">
<title>Node29&#45;&gt;Node4</title>
<path fill="none" stroke="midnightblue" d="M810.15,-224.46C867.57,-204.97 1008.39,-157.16 1074.13,-134.84"/>
<polygon fill="midnightblue" stroke="midnightblue" points="1075.29,-138.14 1083.64,-131.61 1073.04,-131.51 1075.29,-138.14"/>
</g>
<!-- Node29&#45;&gt;Node12 -->
<g id="edge49" class="edge">
<title>Node29&#45;&gt;Node12</title>
<path fill="none" stroke="midnightblue" d="M866.32,-224.47C959.4,-214.71 1111.47,-198.77 1208.58,-188.59"/>
<polygon fill="midnightblue" stroke="midnightblue" points="1209.1,-192.05 1218.68,-187.53 1208.37,-185.09 1209.1,-192.05"/>
</g>
<!-- Node30&#45;&gt;Node4 -->
<g id="edge51" class="edge">
<title>Node30&#45;&gt;Node4</title>
<path fill="none" stroke="midnightblue" d="M1305.23,-224.46C1245.38,-217.32 1173.23,-205.45 1148,-188 1131.8,-176.79 1121.21,-156.47 1115.21,-141.52"/>
<polygon fill="midnightblue" stroke="midnightblue" points="1118.37,-139.98 1111.64,-131.8 1111.8,-142.39 1118.37,-139.98"/>
</g>
<!-- Node30&#45;&gt;Node12 -->
<g id="edge52" class="edge">
<title>Node30&#45;&gt;Node12</title>
<path fill="none" stroke="midnightblue" d="M1379.74,-224.32C1364.78,-215.82 1341.75,-202.73 1324.27,-192.8"/>
<polygon fill="midnightblue" stroke="midnightblue" points="1325.65,-189.55 1315.23,-187.65 1322.19,-195.64 1325.65,-189.55"/>
</g>
<!-- Node31&#45;&gt;Node6 -->
<g id="edge54" class="edge">
<title>Node31&#45;&gt;Node6</title>
<path fill="none" stroke="midnightblue" d="M228.36,-224.47C267.97,-216.44 327.38,-203.37 378,-188 469.39,-160.26 485.63,-132.09 579,-112 710.78,-83.65 1129.6,-71.18 1260.51,-67.91"/>
<polygon fill="midnightblue" stroke="midnightblue" points="1260.94,-71.4 1270.85,-67.66 1260.77,-64.41 1260.94,-71.4"/>
</g>
<!-- Node31&#45;&gt;Node12 -->
<g id="edge55" class="edge">
<title>Node31&#45;&gt;Node12</title>
<path fill="none" stroke="midnightblue" d="M329.62,-224.5C332.77,-224.33 335.9,-224.16 339,-224 623.91,-209.06 956.48,-194.02 1146.25,-185.67"/>
<polygon fill="midnightblue" stroke="midnightblue" points="1146.46,-189.16 1156.29,-185.23 1146.15,-182.17 1146.46,-189.16"/>
</g>
<!-- Node31&#45;&gt;Node21 -->
<g id="edge56" class="edge">
<title>Node31&#45;&gt;Node21</title>
<path fill="none" stroke="midnightblue" d="M135.12,-224.48C111.89,-218.09 85.45,-207.02 68,-188 56.46,-175.42 51.9,-156.21 50.11,-141.92"/>
<polygon fill="midnightblue" stroke="midnightblue" points="53.58,-141.4 49.19,-131.75 46.61,-142.02 53.58,-141.4"/>
</g>
<!-- Node32 -->
<g id="node32" class="node">
<title>Node32</title>
<g id="a_node32"><a xlink:href="top__view__drawer_8h.html" target="_top" xlink:title=" ">
<polygon fill="white" stroke="black" points="77,-168.5 77,-187.5 369,-187.5 369,-168.5 77,-168.5"/>
<text text-anchor="middle" x="223" y="-175.5" font-family="Helvetica,sans-Serif" font-size="10.00">src/application/user_interface/drawer/top_view_drawer.h</text>
</a>
</g>
</g>
<!-- Node31&#45;&gt;Node32 -->
<g id="edge57" class="edge">
<title>Node31&#45;&gt;Node32</title>
<path fill="none" stroke="midnightblue" d="M190.44,-224.08C195.95,-216.46 204.03,-205.26 210.76,-195.94"/>
<polygon fill="midnightblue" stroke="midnightblue" points="213.66,-197.91 216.68,-187.75 207.99,-193.81 213.66,-197.91"/>
</g>
<!-- Node32&#45;&gt;Node21 -->
<g id="edge58" class="edge">
<title>Node32&#45;&gt;Node21</title>
<path fill="none" stroke="midnightblue" d="M195.43,-168.44C165.9,-159.28 118.88,-144.69 86.12,-134.52"/>
<polygon fill="midnightblue" stroke="midnightblue" points="87.03,-131.14 76.44,-131.52 84.96,-137.82 87.03,-131.14"/>
</g>
<!-- Node33&#45;&gt;Node13 -->
<g id="edge60" class="edge">
<title>Node33&#45;&gt;Node13</title>
<path fill="none" stroke="midnightblue" d="M2029.22,-224.37C2018.61,-216.36 2004.27,-203.38 1998,-188 1990.82,-170.39 2003.85,-151.51 2016.19,-138.66"/>
<polygon fill="midnightblue" stroke="midnightblue" points="2018.84,-140.97 2023.6,-131.5 2013.97,-135.93 2018.84,-140.97"/>
</g>
<!-- Node34 -->
<g id="node34" class="node">
<title>Node34</title>
<g id="a_node34"><a xlink:href="kitti__data__reader_8h.html" target="_top" xlink:title=" ">
<polygon fill="white" stroke="black" points="2215.5,-168.5 2215.5,-187.5 2402.5,-187.5 2402.5,-168.5 2215.5,-168.5"/>
<text text-anchor="middle" x="2309" y="-175.5" font-family="Helvetica,sans-Serif" font-size="10.00">src/data_reader/kitti_data_reader.h</text>
</a>
</g>
</g>
<!-- Node33&#45;&gt;Node34 -->
<g id="edge61" class="edge">
<title>Node33&#45;&gt;Node34</title>
<path fill="none" stroke="midnightblue" d="M2084.31,-224.44C2131.08,-214.98 2206.46,-199.74 2256.85,-189.55"/>
<polygon fill="midnightblue" stroke="midnightblue" points="2257.78,-192.93 2266.89,-187.52 2256.4,-186.07 2257.78,-192.93"/>
</g>
<!-- Node35 -->
<g id="node35" class="node">
<title>Node35</title>
<g id="a_node35"><a xlink:href="none__data__reader_8h.html" target="_top" xlink:title=" ">
<polygon fill="white" stroke="black" points="2006.5,-168.5 2006.5,-187.5 2197.5,-187.5 2197.5,-168.5 2006.5,-168.5"/>
<text text-anchor="middle" x="2102" y="-175.5" font-family="Helvetica,sans-Serif" font-size="10.00">src/data_reader/none_data_reader.h</text>
</a>
</g>
</g>
<!-- Node33&#45;&gt;Node35 -->
<g id="edge64" class="edge">
<title>Node33&#45;&gt;Node35</title>
<path fill="none" stroke="midnightblue" d="M2051.64,-224.32C2060.51,-216.34 2073.87,-204.31 2084.61,-194.65"/>
<polygon fill="midnightblue" stroke="midnightblue" points="2087.09,-197.13 2092.18,-187.83 2082.41,-191.92 2087.09,-197.13"/>
</g>
<!-- Node34&#45;&gt;Node10 -->
<g id="edge62" class="edge">
<title>Node34&#45;&gt;Node10</title>
<path fill="none" stroke="midnightblue" d="M2296.33,-168.28C2265.35,-147.18 2182.87,-92.47 2109,-56 2083.04,-43.19 2052.48,-31.37 2029.38,-23.07"/>
<polygon fill="midnightblue" stroke="midnightblue" points="2030.26,-19.66 2019.66,-19.62 2027.92,-26.26 2030.26,-19.66"/>
</g>
<!-- Node34&#45;&gt;Node13 -->
<g id="edge63" class="edge">
<title>Node34&#45;&gt;Node13</title>
<path fill="none" stroke="midnightblue" d="M2265.43,-168.44C2217.15,-158.96 2139.29,-143.67 2087.39,-133.48"/>
<polygon fill="midnightblue" stroke="midnightblue" points="2087.86,-130.01 2077.37,-131.52 2086.51,-136.88 2087.86,-130.01"/>
</g>
<!-- Node35&#45;&gt;Node13 -->
<g id="edge65" class="edge">
<title>Node35&#45;&gt;Node13</title>
<path fill="none" stroke="midnightblue" d="M2091.07,-168.32C2080.83,-160.18 2065.28,-147.84 2053,-138.09"/>
<polygon fill="midnightblue" stroke="midnightblue" points="2055.13,-135.31 2045.12,-131.83 2050.78,-140.79 2055.13,-135.31"/>
</g>
</g>
</svg>
