<?xml version="1.0" encoding="UTF-8" standalone="no"?>
<!DOCTYPE svg PUBLIC "-//W3C//DTD SVG 1.1//EN"
 "http://www.w3.org/Graphics/SVG/1.1/DTD/svg11.dtd">
<!-- Generated by graphviz version 2.43.0 (0)
 -->
<!-- Title: src/window.cpp Pages: 1 -->
<svg width="1329pt" height="252pt"
 viewBox="0.00 0.00 1329.00 252.00" xmlns="http://www.w3.org/2000/svg" xmlns:xlink="http://www.w3.org/1999/xlink">
<g id="graph0" class="graph" transform="scale(1 1) rotate(0) translate(4 248)">
<title>src/window.cpp</title>
<polygon fill="white" stroke="transparent" points="-4,4 -4,-248 1325,-248 1325,4 -4,4"/>
<!-- Node1 -->
<g id="node1" class="node">
<title>Node1</title>
<g id="a_node1"><a xlink:title=" ">
<polygon fill="#bfbfbf" stroke="black" points="643,-224.5 643,-243.5 734,-243.5 734,-224.5 643,-224.5"/>
<text text-anchor="middle" x="688.5" y="-231.5" font-family="Helvetica,sans-Serif" font-size="10.00">src/window.cpp</text>
</a>
</g>
</g>
<!-- Node2 -->
<g id="node2" class="node">
<title>Node2</title>
<g id="a_node2"><a xlink:href="window_8h.html" target="_top" xlink:title=" ">
<polygon fill="white" stroke="black" points="207.5,-168.5 207.5,-187.5 287.5,-187.5 287.5,-168.5 207.5,-168.5"/>
<text text-anchor="middle" x="247.5" y="-175.5" font-family="Helvetica,sans-Serif" font-size="10.00">src/window.h</text>
</a>
</g>
</g>
<!-- Node1&#45;&gt;Node2 -->
<g id="edge1" class="edge">
<title>Node1&#45;&gt;Node2</title>
<path fill="none" stroke="midnightblue" d="M642.97,-227.42C559.86,-217.25 384.2,-195.74 297.73,-185.15"/>
<polygon fill="midnightblue" stroke="midnightblue" points="297.99,-181.66 287.64,-183.92 297.14,-188.6 297.99,-181.66"/>
</g>
<!-- Node3 -->
<g id="node3" class="node">
<title>Node3</title>
<g id="a_node3"><a xlink:title=" ">
<polygon fill="white" stroke="#bfbfbf" points="0,-112.5 0,-131.5 83,-131.5 83,-112.5 0,-112.5"/>
<text text-anchor="middle" x="41.5" y="-119.5" font-family="Helvetica,sans-Serif" font-size="10.00">GLFW/glfw3.h</text>
</a>
</g>
</g>
<!-- Node1&#45;&gt;Node3 -->
<g id="edge21" class="edge">
<title>Node1&#45;&gt;Node3</title>
<path fill="none" stroke="midnightblue" d="M642.82,-233.34C555.28,-233.01 358.36,-227.47 198.5,-188 149.91,-176 96.78,-151.36 66.46,-136.1"/>
<polygon fill="midnightblue" stroke="midnightblue" points="67.95,-132.94 57.45,-131.51 64.77,-139.17 67.95,-132.94"/>
</g>
<!-- Node5 -->
<g id="node5" class="node">
<title>Node5</title>
<g id="a_node5"><a xlink:title=" ">
<polygon fill="white" stroke="#bfbfbf" points="544.5,-56.5 544.5,-75.5 588.5,-75.5 588.5,-56.5 544.5,-56.5"/>
<text text-anchor="middle" x="566.5" y="-63.5" font-family="Helvetica,sans-Serif" font-size="10.00">string</text>
</a>
</g>
</g>
<!-- Node1&#45;&gt;Node5 -->
<g id="edge20" class="edge">
<title>Node1&#45;&gt;Node5</title>
<path fill="none" stroke="midnightblue" d="M659.54,-224.42C640.77,-217.45 617.18,-205.82 602.5,-188 577.85,-158.07 570.08,-111.72 567.63,-85.94"/>
<polygon fill="midnightblue" stroke="midnightblue" points="571.09,-85.38 566.83,-75.68 564.11,-85.92 571.09,-85.38"/>
</g>
<!-- Node7 -->
<g id="node7" class="node">
<title>Node7</title>
<g id="a_node7"><a xlink:title=" ">
<polygon fill="white" stroke="#bfbfbf" points="467.5,-0.5 467.5,-19.5 565.5,-19.5 565.5,-0.5 467.5,-0.5"/>
<text text-anchor="middle" x="516.5" y="-7.5" font-family="Helvetica,sans-Serif" font-size="10.00">bindings/imgui.h</text>
</a>
</g>
</g>
<!-- Node1&#45;&gt;Node7 -->
<g id="edge22" class="edge">
<title>Node1&#45;&gt;Node7</title>
<path fill="none" stroke="midnightblue" d="M684.39,-224.29C668.42,-190.56 610.72,-69.65 597.5,-56 584.06,-42.12 565.41,-31.36 549.39,-23.85"/>
<polygon fill="midnightblue" stroke="midnightblue" points="550.39,-20.46 539.83,-19.59 547.54,-26.86 550.39,-20.46"/>
</g>
<!-- Node13 -->
<g id="node13" class="node">
<title>Node13</title>
<g id="a_node13"><a xlink:title=" ">
<polygon fill="white" stroke="#bfbfbf" points="669.5,-112.5 669.5,-131.5 729.5,-131.5 729.5,-112.5 669.5,-112.5"/>
<text text-anchor="middle" x="699.5" y="-119.5" font-family="Helvetica,sans-Serif" font-size="10.00">iostream</text>
</a>
</g>
</g>
<!-- Node1&#45;&gt;Node13 -->
<g id="edge18" class="edge">
<title>Node1&#45;&gt;Node13</title>
<path fill="none" stroke="midnightblue" d="M683.68,-224.12C677.5,-211.56 668.16,-187.91 673.5,-168 676.15,-158.1 681.57,-148.13 686.77,-140.1"/>
<polygon fill="midnightblue" stroke="midnightblue" points="689.79,-141.89 692.61,-131.68 684.04,-137.91 689.79,-141.89"/>
</g>
<!-- Node14 -->
<g id="node14" class="node">
<title>Node14</title>
<g id="a_node14"><a xlink:title=" ">
<polygon fill="white" stroke="#bfbfbf" points="783,-168.5 783,-187.5 848,-187.5 848,-168.5 783,-168.5"/>
<text text-anchor="middle" x="815.5" y="-175.5" font-family="Helvetica,sans-Serif" font-size="10.00">stdexcept</text>
</a>
</g>
</g>
<!-- Node1&#45;&gt;Node14 -->
<g id="edge19" class="edge">
<title>Node1&#45;&gt;Node14</title>
<path fill="none" stroke="midnightblue" d="M708.62,-224.44C729.52,-215.56 762.43,-201.56 786.22,-191.45"/>
<polygon fill="midnightblue" stroke="midnightblue" points="787.64,-194.65 795.47,-187.52 784.9,-188.21 787.64,-194.65"/>
</g>
<!-- Node15 -->
<g id="node15" class="node">
<title>Node15</title>
<g id="a_node15"><a xlink:title=" ">
<polygon fill="white" stroke="#bfbfbf" points="866,-168.5 866,-187.5 1015,-187.5 1015,-168.5 866,-168.5"/>
<text text-anchor="middle" x="940.5" y="-175.5" font-family="Helvetica,sans-Serif" font-size="10.00">bindings/imgui_impl_glfw.h</text>
</a>
</g>
</g>
<!-- Node1&#45;&gt;Node15 -->
<g id="edge23" class="edge">
<title>Node1&#45;&gt;Node15</title>
<path fill="none" stroke="midnightblue" d="M728.43,-224.44C772.39,-215.02 843.13,-199.87 890.68,-189.68"/>
<polygon fill="midnightblue" stroke="midnightblue" points="891.71,-193.03 900.76,-187.52 890.25,-186.19 891.71,-193.03"/>
</g>
<!-- Node16 -->
<g id="node16" class="node">
<title>Node16</title>
<g id="a_node16"><a xlink:title=" ">
<polygon fill="white" stroke="#bfbfbf" points="1033,-168.5 1033,-187.5 1202,-187.5 1202,-168.5 1033,-168.5"/>
<text text-anchor="middle" x="1117.5" y="-175.5" font-family="Helvetica,sans-Serif" font-size="10.00">bindings/imgui_impl_opengl2.h</text>
</a>
</g>
</g>
<!-- Node1&#45;&gt;Node16 -->
<g id="edge24" class="edge">
<title>Node1&#45;&gt;Node16</title>
<path fill="none" stroke="midnightblue" d="M734,-227.27C806.78,-218.11 950.24,-200.05 1039.58,-188.81"/>
<polygon fill="midnightblue" stroke="midnightblue" points="1040.18,-192.26 1049.66,-187.54 1039.3,-185.32 1040.18,-192.26"/>
</g>
<!-- Node17 -->
<g id="node17" class="node">
<title>Node17</title>
<g id="a_node17"><a xlink:title=" ">
<polygon fill="white" stroke="#bfbfbf" points="1220,-168.5 1220,-187.5 1321,-187.5 1321,-168.5 1220,-168.5"/>
<text text-anchor="middle" x="1270.5" y="-175.5" font-family="Helvetica,sans-Serif" font-size="10.00">bindings/implot.h</text>
</a>
</g>
</g>
<!-- Node1&#45;&gt;Node17 -->
<g id="edge25" class="edge">
<title>Node1&#45;&gt;Node17</title>
<path fill="none" stroke="midnightblue" d="M734.07,-230.09C823.39,-224.16 1027.92,-209.52 1209.97,-188.11"/>
<polygon fill="midnightblue" stroke="midnightblue" points="1210.48,-191.58 1220,-186.93 1209.66,-184.63 1210.48,-191.58"/>
</g>
<!-- Node18 -->
<g id="node18" class="node">
<title>Node18</title>
<g id="a_node18"><a xlink:href="log_8h.html" target="_top" xlink:title=" ">
<polygon fill="white" stroke="black" points="682.5,-168.5 682.5,-187.5 764.5,-187.5 764.5,-168.5 682.5,-168.5"/>
<text text-anchor="middle" x="723.5" y="-175.5" font-family="Helvetica,sans-Serif" font-size="10.00">src/utils/log.h</text>
</a>
</g>
</g>
<!-- Node1&#45;&gt;Node18 -->
<g id="edge26" class="edge">
<title>Node1&#45;&gt;Node18</title>
<path fill="none" stroke="midnightblue" d="M694.28,-224.08C699.17,-216.53 706.33,-205.49 712.33,-196.23"/>
<polygon fill="midnightblue" stroke="midnightblue" points="715.33,-198.05 717.83,-187.75 709.45,-194.24 715.33,-198.05"/>
</g>
<!-- Node2&#45;&gt;Node3 -->
<g id="edge2" class="edge">
<title>Node2&#45;&gt;Node3</title>
<path fill="none" stroke="midnightblue" d="M214.86,-168.44C179.45,-159.16 122.79,-144.31 83.95,-134.13"/>
<polygon fill="midnightblue" stroke="midnightblue" points="84.55,-130.67 73.99,-131.52 82.77,-137.44 84.55,-130.67"/>
</g>
<!-- Node4 -->
<g id="node4" class="node">
<title>Node4</title>
<g id="a_node4"><a xlink:title=" ">
<polygon fill="white" stroke="#bfbfbf" points="120.5,-0.5 120.5,-19.5 178.5,-19.5 178.5,-0.5 120.5,-0.5"/>
<text text-anchor="middle" x="149.5" y="-7.5" font-family="Helvetica,sans-Serif" font-size="10.00">memory</text>
</a>
</g>
</g>
<!-- Node2&#45;&gt;Node4 -->
<g id="edge3" class="edge">
<title>Node2&#45;&gt;Node4</title>
<path fill="none" stroke="midnightblue" d="M238.7,-168.41C222.39,-151.98 187.41,-114.33 168.5,-76 161.19,-61.17 156.18,-43.02 153.14,-29.67"/>
<polygon fill="midnightblue" stroke="midnightblue" points="156.54,-28.83 151.05,-19.77 149.69,-30.27 156.54,-28.83"/>
</g>
<!-- Node2&#45;&gt;Node5 -->
<g id="edge4" class="edge">
<title>Node2&#45;&gt;Node5</title>
<path fill="none" stroke="midnightblue" d="M287.58,-173.9C352.84,-168.25 478.59,-154.75 516.5,-132 535.13,-120.82 549.31,-99.88 557.73,-84.78"/>
<polygon fill="midnightblue" stroke="midnightblue" points="560.86,-86.35 562.42,-75.87 554.67,-83.09 560.86,-86.35"/>
</g>
<!-- Node6 -->
<g id="node6" class="node">
<title>Node6</title>
<g id="a_node6"><a xlink:title=" ">
<polygon fill="white" stroke="#bfbfbf" points="178,-56.5 178,-75.5 225,-75.5 225,-56.5 178,-56.5"/>
<text text-anchor="middle" x="201.5" y="-63.5" font-family="Helvetica,sans-Serif" font-size="10.00">vector</text>
</a>
</g>
</g>
<!-- Node2&#45;&gt;Node6 -->
<g id="edge5" class="edge">
<title>Node2&#45;&gt;Node6</title>
<path fill="none" stroke="midnightblue" d="M241.42,-168.4C235.43,-159.59 226.34,-145.36 220.5,-132 213.87,-116.85 208.79,-98.73 205.56,-85.48"/>
<polygon fill="midnightblue" stroke="midnightblue" points="208.95,-84.61 203.29,-75.66 202.13,-86.19 208.95,-84.61"/>
</g>
<!-- Node2&#45;&gt;Node7 -->
<g id="edge6" class="edge">
<title>Node2&#45;&gt;Node7</title>
<path fill="none" stroke="midnightblue" d="M287.71,-171.66C342.73,-162.21 440.95,-137.4 496.5,-76 508,-63.29 512.89,-44.09 514.97,-29.85"/>
<polygon fill="midnightblue" stroke="midnightblue" points="518.47,-30.04 516.1,-19.71 511.51,-29.26 518.47,-30.04"/>
</g>
<!-- Node8 -->
<g id="node8" class="node">
<title>Node8</title>
<g id="a_node8"><a xlink:href="ui_8h.html" target="_top" xlink:title=" ">
<polygon fill="white" stroke="black" points="230,-112.5 230,-131.5 355,-131.5 355,-112.5 230,-112.5"/>
<text text-anchor="middle" x="292.5" y="-119.5" font-family="Helvetica,sans-Serif" font-size="10.00">src/user_interface/ui.h</text>
</a>
</g>
</g>
<!-- Node2&#45;&gt;Node8 -->
<g id="edge7" class="edge">
<title>Node2&#45;&gt;Node8</title>
<path fill="none" stroke="midnightblue" d="M254.93,-168.08C261.35,-160.38 270.81,-149.03 278.62,-139.65"/>
<polygon fill="midnightblue" stroke="midnightblue" points="281.49,-141.67 285.21,-131.75 276.12,-137.19 281.49,-141.67"/>
</g>
<!-- Node10 -->
<g id="node10" class="node">
<title>Node10</title>
<g id="a_node10"><a xlink:href="callback_8h.html" target="_top" xlink:title=" ">
<polygon fill="white" stroke="black" points="14,-56.5 14,-75.5 121,-75.5 121,-56.5 14,-56.5"/>
<text text-anchor="middle" x="67.5" y="-63.5" font-family="Helvetica,sans-Serif" font-size="10.00">src/utils/callback.h</text>
</a>
</g>
</g>
<!-- Node2&#45;&gt;Node10 -->
<g id="edge17" class="edge">
<title>Node2&#45;&gt;Node10</title>
<path fill="none" stroke="midnightblue" d="M217.48,-168.39C194.03,-160.88 161.22,-148.57 135.5,-132 114.38,-118.39 94.1,-97.67 81.26,-83.3"/>
<polygon fill="midnightblue" stroke="midnightblue" points="83.82,-80.91 74.62,-75.67 78.55,-85.51 83.82,-80.91"/>
</g>
<!-- Node8&#45;&gt;Node4 -->
<g id="edge8" class="edge">
<title>Node8&#45;&gt;Node4</title>
<path fill="none" stroke="midnightblue" d="M286.04,-112.12C275.96,-98.72 255.36,-73.07 233.5,-56 216.93,-43.07 196.11,-31.88 179.35,-23.9"/>
<polygon fill="midnightblue" stroke="midnightblue" points="180.56,-20.61 170.01,-19.58 177.62,-26.96 180.56,-20.61"/>
</g>
<!-- Node8&#45;&gt;Node5 -->
<g id="edge9" class="edge">
<title>Node8&#45;&gt;Node5</title>
<path fill="none" stroke="midnightblue" d="M335.92,-112.44C391.03,-101.58 484.83,-83.09 534.09,-73.39"/>
<polygon fill="midnightblue" stroke="midnightblue" points="535.05,-76.77 544.19,-71.4 533.7,-69.9 535.05,-76.77"/>
</g>
<!-- Node8&#45;&gt;Node6 -->
<g id="edge11" class="edge">
<title>Node8&#45;&gt;Node6</title>
<path fill="none" stroke="midnightblue" d="M277.88,-112.32C263.55,-103.82 241.49,-90.73 224.75,-80.8"/>
<polygon fill="midnightblue" stroke="midnightblue" points="226.47,-77.75 216.08,-75.65 222.9,-83.77 226.47,-77.75"/>
</g>
<!-- Node9 -->
<g id="node9" class="node">
<title>Node9</title>
<g id="a_node9"><a xlink:title=" ">
<polygon fill="white" stroke="#bfbfbf" points="282,-56.5 282,-75.5 375,-75.5 375,-56.5 282,-56.5"/>
<text text-anchor="middle" x="328.5" y="-63.5" font-family="Helvetica,sans-Serif" font-size="10.00">unordered_map</text>
</a>
</g>
</g>
<!-- Node8&#45;&gt;Node9 -->
<g id="edge10" class="edge">
<title>Node8&#45;&gt;Node9</title>
<path fill="none" stroke="midnightblue" d="M298.44,-112.08C303.48,-104.53 310.84,-93.49 317.01,-84.23"/>
<polygon fill="midnightblue" stroke="midnightblue" points="320.03,-86.01 322.67,-75.75 314.21,-82.13 320.03,-86.01"/>
</g>
<!-- Node8&#45;&gt;Node10 -->
<g id="edge12" class="edge">
<title>Node8&#45;&gt;Node10</title>
<path fill="none" stroke="midnightblue" d="M256.85,-112.44C217.84,-103.08 155.23,-88.06 112.78,-77.87"/>
<polygon fill="midnightblue" stroke="midnightblue" points="113.53,-74.45 102.99,-75.52 111.89,-81.25 113.53,-74.45"/>
</g>
<!-- Node12 -->
<g id="node12" class="node">
<title>Node12</title>
<g id="a_node12"><a xlink:href="imgui_8h.html" target="_top" xlink:title=" ">
<polygon fill="white" stroke="black" points="393,-56.5 393,-75.5 488,-75.5 488,-56.5 393,-56.5"/>
<text text-anchor="middle" x="440.5" y="-63.5" font-family="Helvetica,sans-Serif" font-size="10.00">src/utils/imgui.h</text>
</a>
</g>
</g>
<!-- Node8&#45;&gt;Node12 -->
<g id="edge15" class="edge">
<title>Node8&#45;&gt;Node12</title>
<path fill="none" stroke="midnightblue" d="M315.95,-112.44C340.63,-103.44 379.69,-89.19 407.48,-79.05"/>
<polygon fill="midnightblue" stroke="midnightblue" points="408.96,-82.23 417.16,-75.52 406.56,-75.66 408.96,-82.23"/>
</g>
<!-- Node10&#45;&gt;Node4 -->
<g id="edge14" class="edge">
<title>Node10&#45;&gt;Node4</title>
<path fill="none" stroke="midnightblue" d="M80.67,-56.32C93.35,-47.98 112.73,-35.21 127.71,-25.35"/>
<polygon fill="midnightblue" stroke="midnightblue" points="129.93,-28.08 136.36,-19.65 126.08,-22.23 129.93,-28.08"/>
</g>
<!-- Node11 -->
<g id="node11" class="node">
<title>Node11</title>
<g id="a_node11"><a xlink:title=" ">
<polygon fill="white" stroke="#bfbfbf" points="50,-0.5 50,-19.5 85,-19.5 85,-0.5 50,-0.5"/>
<text text-anchor="middle" x="67.5" y="-7.5" font-family="Helvetica,sans-Serif" font-size="10.00">any</text>
</a>
</g>
</g>
<!-- Node10&#45;&gt;Node11 -->
<g id="edge13" class="edge">
<title>Node10&#45;&gt;Node11</title>
<path fill="none" stroke="midnightblue" d="M67.5,-56.08C67.5,-49.01 67.5,-38.86 67.5,-29.99"/>
<polygon fill="midnightblue" stroke="midnightblue" points="71,-29.75 67.5,-19.75 64,-29.75 71,-29.75"/>
</g>
<!-- Node12&#45;&gt;Node7 -->
<g id="edge16" class="edge">
<title>Node12&#45;&gt;Node7</title>
<path fill="none" stroke="midnightblue" d="M452.71,-56.32C464.28,-48.11 481.88,-35.6 495.66,-25.81"/>
<polygon fill="midnightblue" stroke="midnightblue" points="497.94,-28.48 504.07,-19.83 493.89,-22.77 497.94,-28.48"/>
</g>
<!-- Node18&#45;&gt;Node13 -->
<g id="edge27" class="edge">
<title>Node18&#45;&gt;Node13</title>
<path fill="none" stroke="midnightblue" d="M719.54,-168.08C716.29,-160.77 711.58,-150.18 707.55,-141.1"/>
<polygon fill="midnightblue" stroke="midnightblue" points="710.65,-139.47 703.39,-131.75 704.25,-142.31 710.65,-139.47"/>
</g>
</g>
</svg>
