<?xml version="1.0" encoding="UTF-8" standalone="no"?>
<!DOCTYPE svg PUBLIC "-//W3C//DTD SVG 1.1//EN"
 "http://www.w3.org/Graphics/SVG/1.1/DTD/svg11.dtd">
<!-- Generated by graphviz version 2.43.0 (0)
 -->
<!-- Title: src/window.cpp Pages: 1 -->
<!--zoomable 252 -->
<svg id="main" version="1.1" xmlns="http://www.w3.org/2000/svg" xmlns:xlink="http://www.w3.org/1999/xlink" xml:space="preserve" onload="init(evt)">
<style type="text/css"><![CDATA[
.edge:hover path { stroke: red; }
.edge:hover polygon { stroke: red; fill: red; }
]]></style>
<script type="text/javascript"><![CDATA[
var edges = document.getElementsByTagName('g');
if (edges && edges.length) {
  for (var i=0;i<edges.length;i++) {
    if (edges[i].id.substr(0,4)=='edge') {
      edges[i].setAttribute('class','edge');
    }
  }
}
]]></script>
        <defs>
                <circle id="rim" cx="0" cy="0" r="7"/>
                <circle id="rim2" cx="0" cy="0" r="3.5"/>
                <g id="zoomPlus">
                        <use xlink:href="#rim" fill="#404040">
                                <set attributeName="fill" to="#808080" begin="zoomplus.mouseover" end="zoomplus.mouseout"/>
                        </use>
                        <path d="M-4,0h8M0,-4v8" fill="none" stroke="white" stroke-width="1.5" pointer-events="none"/>
                </g>
                <g id="zoomMin">
                        <use xlink:href="#rim" fill="#404040">
                                <set attributeName="fill" to="#808080" begin="zoomminus.mouseover" end="zoomminus.mouseout"/>
                        </use>
                        <path d="M-4,0h8" fill="none" stroke="white" stroke-width="1.5" pointer-events="none"/>
                </g>
                <g id="dirArrow">
                        <path fill="none" stroke="white" stroke-width="1.5" d="M0,-3.0v7 M-2.5,-0.5L0,-3.0L2.5,-0.5"/>
                </g>
               <g id="resetDef">
                       <use xlink:href="#rim2" fill="#404040">
                               <set attributeName="fill" to="#808080" begin="reset.mouseover" end="reset.mouseout"/>
                       </use>
               </g>
        </defs>

<script type="text/javascript">
var viewWidth = 1206;
var viewHeight = 252;
var sectionId = 'dynsection-0';
</script>
<script xlink:href="svgpan.js"/>
<svg id="graph" class="graph">
<g id="viewport">
<title>src/window.cpp</title>
<polygon fill="white" stroke="transparent" points="-4,4 -4,-248 1202.06,-248 1202.06,4 -4,4"/>
<!-- Node1 -->
<g id="node1" class="node">
<title>Node1</title>
<g id="a_node1"><a xlink:title=" ">
<polygon fill="#bfbfbf" stroke="black" points="566.06,-224.5 566.06,-243.5 657.06,-243.5 657.06,-224.5 566.06,-224.5"/>
<text text-anchor="middle" x="611.56" y="-231.5" font-family="Helvetica,sans-Serif" font-size="10.00">src/window.cpp</text>
</a>
</g>
</g>
<!-- Node2 -->
<g id="node2" class="node">
<title>Node2</title>
<g id="a_node2"><a xlink:href="window_8h.html" target="_top" xlink:title=" ">
<polygon fill="white" stroke="black" points="260.56,-168.5 260.56,-187.5 340.56,-187.5 340.56,-168.5 260.56,-168.5"/>
<text text-anchor="middle" x="300.56" y="-175.5" font-family="Helvetica,sans-Serif" font-size="10.00">src/window.h</text>
</a>
</g>
</g>
<!-- Node1&#45;&gt;Node2 -->
<g id="edge1" class="edge">
<title>Node1&#45;&gt;Node2</title>
<path fill="none" stroke="midnightblue" d="M566,-225.09C508.59,-215.12 410.23,-198.04 350.72,-187.71"/>
<polygon fill="midnightblue" stroke="midnightblue" points="351.25,-184.25 340.79,-185.99 350.05,-191.15 351.25,-184.25"/>
</g>
<!-- Node3 -->
<g id="node3" class="node">
<title>Node3</title>
<g id="a_node3"><a xlink:title=" ">
<polygon fill="white" stroke="#bfbfbf" points="15.06,-112.5 15.06,-131.5 98.06,-131.5 98.06,-112.5 15.06,-112.5"/>
<text text-anchor="middle" x="56.56" y="-119.5" font-family="Helvetica,sans-Serif" font-size="10.00">GLFW/glfw3.h</text>
</a>
</g>
</g>
<!-- Node1&#45;&gt;Node3 -->
<g id="edge20" class="edge">
<title>Node1&#45;&gt;Node3</title>
<path fill="none" stroke="midnightblue" d="M565.88,-230.19C497.04,-225.31 362.89,-213.25 251.56,-188 191.98,-174.49 124.88,-149.98 86.96,-135.22"/>
<polygon fill="midnightblue" stroke="midnightblue" points="88.11,-131.91 77.52,-131.52 85.55,-138.43 88.11,-131.91"/>
</g>
<!-- Node5 -->
<g id="node5" class="node">
<title>Node5</title>
<g id="a_node5"><a xlink:title=" ">
<polygon fill="white" stroke="#bfbfbf" points="101.56,-56.5 101.56,-75.5 145.56,-75.5 145.56,-56.5 101.56,-56.5"/>
<text text-anchor="middle" x="123.56" y="-63.5" font-family="Helvetica,sans-Serif" font-size="10.00">string</text>
</a>
</g>
</g>
<!-- Node1&#45;&gt;Node5 -->
<g id="edge19" class="edge">
<title>Node1&#45;&gt;Node5</title>
<path fill="none" stroke="midnightblue" d="M565.8,-233.16C436.12,-232.51 71.28,-222.52 5.56,-132 -19.07,-98.08 48.62,-79.8 91.44,-71.88"/>
<polygon fill="midnightblue" stroke="midnightblue" points="92.21,-75.3 101.46,-70.13 91,-68.4 92.21,-75.3"/>
</g>
<!-- Node7 -->
<g id="node7" class="node">
<title>Node7</title>
<g id="a_node7"><a xlink:title=" ">
<polygon fill="white" stroke="#bfbfbf" points="466.56,-0.5 466.56,-19.5 564.56,-19.5 564.56,-0.5 466.56,-0.5"/>
<text text-anchor="middle" x="515.56" y="-7.5" font-family="Helvetica,sans-Serif" font-size="10.00">bindings/imgui.h</text>
</a>
</g>
</g>
<!-- Node1&#45;&gt;Node7 -->
<g id="edge21" class="edge">
<title>Node1&#45;&gt;Node7</title>
<path fill="none" stroke="midnightblue" d="M601.98,-224.2C593.22,-215.69 580.47,-202.05 572.56,-188 542.52,-134.65 525.71,-63.21 519.01,-29.76"/>
<polygon fill="midnightblue" stroke="midnightblue" points="522.38,-28.76 517.06,-19.6 515.51,-30.08 522.38,-28.76"/>
</g>
<!-- Node12 -->
<g id="node12" class="node">
<title>Node12</title>
<g id="a_node12"><a xlink:title=" ">
<polygon fill="white" stroke="#bfbfbf" points="581.56,-168.5 581.56,-187.5 641.56,-187.5 641.56,-168.5 581.56,-168.5"/>
<text text-anchor="middle" x="611.56" y="-175.5" font-family="Helvetica,sans-Serif" font-size="10.00">iostream</text>
</a>
</g>
</g>
<!-- Node1&#45;&gt;Node12 -->
<g id="edge17" class="edge">
<title>Node1&#45;&gt;Node12</title>
<path fill="none" stroke="midnightblue" d="M611.56,-224.08C611.56,-217.01 611.56,-206.86 611.56,-197.99"/>
<polygon fill="midnightblue" stroke="midnightblue" points="615.06,-197.75 611.56,-187.75 608.06,-197.75 615.06,-197.75"/>
</g>
<!-- Node13 -->
<g id="node13" class="node">
<title>Node13</title>
<g id="a_node13"><a xlink:title=" ">
<polygon fill="white" stroke="#bfbfbf" points="660.06,-168.5 660.06,-187.5 725.06,-187.5 725.06,-168.5 660.06,-168.5"/>
<text text-anchor="middle" x="692.56" y="-175.5" font-family="Helvetica,sans-Serif" font-size="10.00">stdexcept</text>
</a>
</g>
</g>
<!-- Node1&#45;&gt;Node13 -->
<g id="edge18" class="edge">
<title>Node1&#45;&gt;Node13</title>
<path fill="none" stroke="midnightblue" d="M624.57,-224.32C637.09,-215.98 656.24,-203.21 671.03,-193.35"/>
<polygon fill="midnightblue" stroke="midnightblue" points="673.2,-196.11 679.58,-187.65 669.32,-190.29 673.2,-196.11"/>
</g>
<!-- Node14 -->
<g id="node14" class="node">
<title>Node14</title>
<g id="a_node14"><a xlink:title=" ">
<polygon fill="white" stroke="#bfbfbf" points="743.06,-168.5 743.06,-187.5 892.06,-187.5 892.06,-168.5 743.06,-168.5"/>
<text text-anchor="middle" x="817.56" y="-175.5" font-family="Helvetica,sans-Serif" font-size="10.00">bindings/imgui_impl_glfw.h</text>
</a>
</g>
</g>
<!-- Node1&#45;&gt;Node14 -->
<g id="edge22" class="edge">
<title>Node1&#45;&gt;Node14</title>
<path fill="none" stroke="midnightblue" d="M644.2,-224.44C679.61,-215.16 736.27,-200.31 775.11,-190.13"/>
<polygon fill="midnightblue" stroke="midnightblue" points="776.29,-193.44 785.07,-187.52 774.51,-186.67 776.29,-193.44"/>
</g>
<!-- Node15 -->
<g id="node15" class="node">
<title>Node15</title>
<g id="a_node15"><a xlink:title=" ">
<polygon fill="white" stroke="#bfbfbf" points="910.06,-168.5 910.06,-187.5 1079.06,-187.5 1079.06,-168.5 910.06,-168.5"/>
<text text-anchor="middle" x="994.56" y="-175.5" font-family="Helvetica,sans-Serif" font-size="10.00">bindings/imgui_impl_opengl2.h</text>
</a>
</g>
</g>
<!-- Node1&#45;&gt;Node15 -->
<g id="edge23" class="edge">
<title>Node1&#45;&gt;Node15</title>
<path fill="none" stroke="midnightblue" d="M657.38,-226.54C723.51,-217.22 846.27,-199.91 924.02,-188.95"/>
<polygon fill="midnightblue" stroke="midnightblue" points="924.79,-192.37 934.21,-187.51 923.81,-185.44 924.79,-192.37"/>
</g>
<!-- Node16 -->
<g id="node16" class="node">
<title>Node16</title>
<g id="a_node16"><a xlink:title=" ">
<polygon fill="white" stroke="#bfbfbf" points="1097.06,-168.5 1097.06,-187.5 1198.06,-187.5 1198.06,-168.5 1097.06,-168.5"/>
<text text-anchor="middle" x="1147.56" y="-175.5" font-family="Helvetica,sans-Serif" font-size="10.00">bindings/implot.h</text>
</a>
</g>
</g>
<!-- Node1&#45;&gt;Node16 -->
<g id="edge24" class="edge">
<title>Node1&#45;&gt;Node16</title>
<path fill="none" stroke="midnightblue" d="M657.37,-229.56C740.73,-223.1 923,-208.11 1086.79,-188.16"/>
<polygon fill="midnightblue" stroke="midnightblue" points="1087.56,-191.59 1097.06,-186.9 1086.7,-184.64 1087.56,-191.59"/>
</g>
<!-- Node2&#45;&gt;Node3 -->
<g id="edge2" class="edge">
<title>Node2&#45;&gt;Node3</title>
<path fill="none" stroke="midnightblue" d="M261.9,-168.44C219.42,-159.04 151.13,-143.93 105.09,-133.74"/>
<polygon fill="midnightblue" stroke="midnightblue" points="105.56,-130.26 95.04,-131.52 104.05,-137.09 105.56,-130.26"/>
</g>
<!-- Node4 -->
<g id="node4" class="node">
<title>Node4</title>
<g id="a_node4"><a xlink:title=" ">
<polygon fill="white" stroke="#bfbfbf" points="144.56,-0.5 144.56,-19.5 202.56,-19.5 202.56,-0.5 144.56,-0.5"/>
<text text-anchor="middle" x="173.56" y="-7.5" font-family="Helvetica,sans-Serif" font-size="10.00">memory</text>
</a>
</g>
</g>
<!-- Node2&#45;&gt;Node4 -->
<g id="edge3" class="edge">
<title>Node2&#45;&gt;Node4</title>
<path fill="none" stroke="midnightblue" d="M260.13,-172.21C208.44,-163.54 122.07,-139.75 92.56,-76 81.43,-51.96 109.77,-34.1 135.93,-23.25"/>
<polygon fill="midnightblue" stroke="midnightblue" points="137.34,-26.45 145.39,-19.57 134.8,-19.93 137.34,-26.45"/>
</g>
<!-- Node2&#45;&gt;Node5 -->
<g id="edge4" class="edge">
<title>Node2&#45;&gt;Node5</title>
<path fill="none" stroke="midnightblue" d="M267.42,-168.46C243.13,-161.21 210.08,-149.22 184.56,-132 165.01,-118.81 147.12,-98.29 135.84,-83.85"/>
<polygon fill="midnightblue" stroke="midnightblue" points="138.55,-81.61 129.72,-75.75 132.96,-85.84 138.55,-81.61"/>
</g>
<!-- Node6 -->
<g id="node6" class="node">
<title>Node6</title>
<g id="a_node6"><a xlink:title=" ">
<polygon fill="white" stroke="#bfbfbf" points="440.06,-56.5 440.06,-75.5 487.06,-75.5 487.06,-56.5 440.06,-56.5"/>
<text text-anchor="middle" x="463.56" y="-63.5" font-family="Helvetica,sans-Serif" font-size="10.00">vector</text>
</a>
</g>
</g>
<!-- Node2&#45;&gt;Node6 -->
<g id="edge5" class="edge">
<title>Node2&#45;&gt;Node6</title>
<path fill="none" stroke="midnightblue" d="M313.35,-168.37C341.32,-149.49 408.16,-104.38 442.46,-81.24"/>
<polygon fill="midnightblue" stroke="midnightblue" points="444.5,-84.09 450.83,-75.59 440.58,-78.28 444.5,-84.09"/>
</g>
<!-- Node2&#45;&gt;Node7 -->
<g id="edge6" class="edge">
<title>Node2&#45;&gt;Node7</title>
<path fill="none" stroke="midnightblue" d="M335.58,-168.45C379.8,-155.83 455.08,-127.87 496.56,-76 507.22,-62.67 511.9,-43.55 513.95,-29.5"/>
<polygon fill="midnightblue" stroke="midnightblue" points="517.44,-29.86 515.1,-19.52 510.48,-29.06 517.44,-29.86"/>
</g>
<!-- Node8 -->
<g id="node8" class="node">
<title>Node8</title>
<g id="a_node8"><a xlink:href="ui_8h.html" target="_top" xlink:title=" ">
<polygon fill="white" stroke="black" points="193.06,-112.5 193.06,-131.5 318.06,-131.5 318.06,-112.5 193.06,-112.5"/>
<text text-anchor="middle" x="255.56" y="-119.5" font-family="Helvetica,sans-Serif" font-size="10.00">src/user_interface/ui.h</text>
</a>
</g>
</g>
<!-- Node2&#45;&gt;Node8 -->
<g id="edge7" class="edge">
<title>Node2&#45;&gt;Node8</title>
<path fill="none" stroke="midnightblue" d="M293.13,-168.08C286.71,-160.38 277.25,-149.03 269.44,-139.65"/>
<polygon fill="midnightblue" stroke="midnightblue" points="271.94,-137.19 262.85,-131.75 266.57,-141.67 271.94,-137.19"/>
</g>
<!-- Node9 -->
<g id="node9" class="node">
<title>Node9</title>
<g id="a_node9"><a xlink:href="callback_8h.html" target="_top" xlink:title=" ">
<polygon fill="white" stroke="black" points="202.06,-56.5 202.06,-75.5 309.06,-75.5 309.06,-56.5 202.06,-56.5"/>
<text text-anchor="middle" x="255.56" y="-63.5" font-family="Helvetica,sans-Serif" font-size="10.00">src/utils/callback.h</text>
</a>
</g>
</g>
<!-- Node2&#45;&gt;Node9 -->
<g id="edge16" class="edge">
<title>Node2&#45;&gt;Node9</title>
<path fill="none" stroke="midnightblue" d="M309.1,-168.3C320.54,-155.56 338.22,-131.24 327.56,-112 319.47,-97.41 304.46,-86.92 290.22,-79.76"/>
<polygon fill="midnightblue" stroke="midnightblue" points="291.61,-76.55 281.06,-75.53 288.67,-82.9 291.61,-76.55"/>
</g>
<!-- Node8&#45;&gt;Node4 -->
<g id="edge8" class="edge">
<title>Node8&#45;&gt;Node4</title>
<path fill="none" stroke="midnightblue" d="M238.16,-112.44C224.2,-104.72 205.09,-92.12 193.56,-76 183.8,-62.34 178.71,-43.81 176.11,-30.02"/>
<polygon fill="midnightblue" stroke="midnightblue" points="179.51,-29.09 174.47,-19.77 172.6,-30.2 179.51,-29.09"/>
</g>
<!-- Node8&#45;&gt;Node5 -->
<g id="edge9" class="edge">
<title>Node8&#45;&gt;Node5</title>
<path fill="none" stroke="midnightblue" d="M234.64,-112.44C212.82,-103.52 178.41,-89.44 153.67,-79.32"/>
<polygon fill="midnightblue" stroke="midnightblue" points="154.96,-76.06 144.38,-75.52 152.31,-82.54 154.96,-76.06"/>
</g>
<!-- Node8&#45;&gt;Node6 -->
<g id="edge10" class="edge">
<title>Node8&#45;&gt;Node6</title>
<path fill="none" stroke="midnightblue" d="M290.02,-112.45C323.54,-104.07 376.13,-90.78 430.08,-76.36"/>
<polygon fill="midnightblue" stroke="midnightblue" points="431.06,-79.72 439.81,-73.75 429.25,-72.96 431.06,-79.72"/>
</g>
<!-- Node8&#45;&gt;Node9 -->
<g id="edge11" class="edge">
<title>Node8&#45;&gt;Node9</title>
<path fill="none" stroke="midnightblue" d="M255.56,-112.08C255.56,-105.01 255.56,-94.86 255.56,-85.99"/>
<polygon fill="midnightblue" stroke="midnightblue" points="259.06,-85.75 255.56,-75.75 252.06,-85.75 259.06,-85.75"/>
</g>
<!-- Node11 -->
<g id="node11" class="node">
<title>Node11</title>
<g id="a_node11"><a xlink:href="imgui_8h.html" target="_top" xlink:title=" ">
<polygon fill="white" stroke="black" points="327.06,-56.5 327.06,-75.5 422.06,-75.5 422.06,-56.5 327.06,-56.5"/>
<text text-anchor="middle" x="374.56" y="-63.5" font-family="Helvetica,sans-Serif" font-size="10.00">src/utils/imgui.h</text>
</a>
</g>
</g>
<!-- Node8&#45;&gt;Node11 -->
<g id="edge14" class="edge">
<title>Node8&#45;&gt;Node11</title>
<path fill="none" stroke="midnightblue" d="M274.42,-112.44C293.83,-103.64 324.29,-89.81 346.52,-79.72"/>
<polygon fill="midnightblue" stroke="midnightblue" points="348.13,-82.84 355.79,-75.52 345.24,-76.46 348.13,-82.84"/>
</g>
<!-- Node9&#45;&gt;Node4 -->
<g id="edge13" class="edge">
<title>Node9&#45;&gt;Node4</title>
<path fill="none" stroke="midnightblue" d="M242.38,-56.32C229.71,-47.98 210.33,-35.21 195.35,-25.35"/>
<polygon fill="midnightblue" stroke="midnightblue" points="196.98,-22.23 186.7,-19.65 193.13,-28.08 196.98,-22.23"/>
</g>
<!-- Node10 -->
<g id="node10" class="node">
<title>Node10</title>
<g id="a_node10"><a xlink:title=" ">
<polygon fill="white" stroke="#bfbfbf" points="238.06,-0.5 238.06,-19.5 273.06,-19.5 273.06,-0.5 238.06,-0.5"/>
<text text-anchor="middle" x="255.56" y="-7.5" font-family="Helvetica,sans-Serif" font-size="10.00">any</text>
</a>
</g>
</g>
<!-- Node9&#45;&gt;Node10 -->
<g id="edge12" class="edge">
<title>Node9&#45;&gt;Node10</title>
<path fill="none" stroke="midnightblue" d="M255.56,-56.08C255.56,-49.01 255.56,-38.86 255.56,-29.99"/>
<polygon fill="midnightblue" stroke="midnightblue" points="259.06,-29.75 255.56,-19.75 252.06,-29.75 259.06,-29.75"/>
</g>
<!-- Node11&#45;&gt;Node7 -->
<g id="edge15" class="edge">
<title>Node11&#45;&gt;Node7</title>
<path fill="none" stroke="midnightblue" d="M396.9,-56.44C420.31,-47.48 457.3,-33.31 483.75,-23.18"/>
<polygon fill="midnightblue" stroke="midnightblue" points="485.24,-26.36 493.32,-19.52 482.73,-19.82 485.24,-26.36"/>
</g>
</g>
</svg>
        <g id="navigator" transform="translate(0 0)" fill="#404254">
                <rect fill="#f2f5e9" fill-opacity="0.5" stroke="#606060" stroke-width=".5" x="0" y="0" width="60" height="60"/>
                <use id="zoomplus" xlink:href="#zoomPlus" x="17" y="9" onmousedown="handleZoom(evt,'in')"/>
                <use id="zoomminus" xlink:href="#zoomMin" x="42" y="9" onmousedown="handleZoom(evt,'out')"/>
                <use id="reset" xlink:href="#resetDef" x="30" y="36" onmousedown="handleReset()"/>
                <g id="arrowUp" xlink:href="#dirArrow" transform="translate(30 24)" onmousedown="handlePan(0,-1)">
                  <use xlink:href="#rim" fill="#404040">
                        <set attributeName="fill" to="#808080" begin="arrowUp.mouseover" end="arrowUp.mouseout"/>
                  </use>
                  <path fill="none" stroke="white" stroke-width="1.5" d="M0,-3.0v7 M-2.5,-0.5L0,-3.0L2.5,-0.5"/>
                </g>
                <g id="arrowRight" xlink:href="#dirArrow" transform="rotate(90) translate(36 -43)" onmousedown="handlePan(1,0)">
                  <use xlink:href="#rim" fill="#404040">
                        <set attributeName="fill" to="#808080" begin="arrowRight.mouseover" end="arrowRight.mouseout"/>
                  </use>
                  <path fill="none" stroke="white" stroke-width="1.5" d="M0,-3.0v7 M-2.5,-0.5L0,-3.0L2.5,-0.5"/>
                </g>
                <g id="arrowDown" xlink:href="#dirArrow" transform="rotate(180) translate(-30 -48)" onmousedown="handlePan(0,1)">
                  <use xlink:href="#rim" fill="#404040">
                        <set attributeName="fill" to="#808080" begin="arrowDown.mouseover" end="arrowDown.mouseout"/>
                  </use>
                  <path fill="none" stroke="white" stroke-width="1.5" d="M0,-3.0v7 M-2.5,-0.5L0,-3.0L2.5,-0.5"/>
                </g>
                <g id="arrowLeft" xlink:href="#dirArrow" transform="rotate(270) translate(-36 17)" onmousedown="handlePan(-1,0)">
                  <use xlink:href="#rim" fill="#404040">
                        <set attributeName="fill" to="#808080" begin="arrowLeft.mouseover" end="arrowLeft.mouseout"/>
                  </use>
                  <path fill="none" stroke="white" stroke-width="1.5" d="M0,-3.0v7 M-2.5,-0.5L0,-3.0L2.5,-0.5"/>
                </g>
        </g>
        <svg viewBox="0 0 15 15" width="100%" height="30px" preserveAspectRatio="xMaxYMin meet">
         <g id="arrow_out" transform="scale(0.3 0.3)">
          <a xlink:href="window_8cpp__incl_org.svg" target="_base">
           <rect id="button" ry="5" rx="5" y="6" x="6" height="38" width="38"
                fill="#f2f5e9" fill-opacity="0.5" stroke="#606060" stroke-width="1.0"/>
           <path id="arrow"
             d="M 11.500037,31.436501 C 11.940474,20.09759 22.043105,11.32322 32.158766,21.979434 L 37.068811,17.246167 C 37.068811,17.246167 37.088388,32 37.088388,32 L 22.160133,31.978069 C 22.160133,31.978069 26.997745,27.140456 26.997745,27.140456 C 18.528582,18.264221 13.291696,25.230495 11.500037,31.436501 z"
             style="fill:#404040;"/>
          </a>
         </g>
        </svg>
</svg>
