<?xml version="1.0" encoding="UTF-8" standalone="no"?>
<!DOCTYPE svg PUBLIC "-//W3C//DTD SVG 1.1//EN"
 "http://www.w3.org/Graphics/SVG/1.1/DTD/svg11.dtd">
<!-- Generated by graphviz version 2.43.0 (0)
 -->
<!-- Title: src/window.h Pages: 1 -->
<svg width="547pt" height="196pt"
 viewBox="0.00 0.00 547.00 196.00" xmlns="http://www.w3.org/2000/svg" xmlns:xlink="http://www.w3.org/1999/xlink">
<g id="graph0" class="graph" transform="scale(1 1) rotate(0) translate(4 192)">
<title>src/window.h</title>
<polygon fill="white" stroke="transparent" points="-4,4 -4,-192 543,-192 543,4 -4,4"/>
<!-- Node1 -->
<g id="node1" class="node">
<title>Node1</title>
<g id="a_node1"><a xlink:title=" ">
<polygon fill="#bfbfbf" stroke="black" points="206.5,-168.5 206.5,-187.5 286.5,-187.5 286.5,-168.5 206.5,-168.5"/>
<text text-anchor="middle" x="246.5" y="-175.5" font-family="Helvetica,sans-Serif" font-size="10.00">src/window.h</text>
</a>
</g>
</g>
<!-- Node2 -->
<g id="node2" class="node">
<title>Node2</title>
<g id="a_node2"><a xlink:title=" ">
<polygon fill="white" stroke="#bfbfbf" points="0,-112.5 0,-131.5 83,-131.5 83,-112.5 0,-112.5"/>
<text text-anchor="middle" x="41.5" y="-119.5" font-family="Helvetica,sans-Serif" font-size="10.00">GLFW/glfw3.h</text>
</a>
</g>
</g>
<!-- Node1&#45;&gt;Node2 -->
<g id="edge1" class="edge">
<title>Node1&#45;&gt;Node2</title>
<path fill="none" stroke="midnightblue" d="M214.02,-168.44C178.78,-159.16 122.4,-144.31 83.74,-134.13"/>
<polygon fill="midnightblue" stroke="midnightblue" points="84.39,-130.68 73.83,-131.52 82.61,-137.45 84.39,-130.68"/>
</g>
<!-- Node3 -->
<g id="node3" class="node">
<title>Node3</title>
<g id="a_node3"><a xlink:title=" ">
<polygon fill="white" stroke="#bfbfbf" points="257.5,-0.5 257.5,-19.5 315.5,-19.5 315.5,-0.5 257.5,-0.5"/>
<text text-anchor="middle" x="286.5" y="-7.5" font-family="Helvetica,sans-Serif" font-size="10.00">memory</text>
</a>
</g>
</g>
<!-- Node1&#45;&gt;Node3 -->
<g id="edge2" class="edge">
<title>Node1&#45;&gt;Node3</title>
<path fill="none" stroke="midnightblue" d="M226.32,-168.42C184.64,-149.49 95.77,-102.16 130.5,-56 134.12,-51.18 202.56,-32.71 247.57,-20.98"/>
<polygon fill="midnightblue" stroke="midnightblue" points="248.55,-24.35 257.35,-18.45 246.79,-17.57 248.55,-24.35"/>
</g>
<!-- Node4 -->
<g id="node4" class="node">
<title>Node4</title>
<g id="a_node4"><a xlink:title=" ">
<polygon fill="white" stroke="#bfbfbf" points="139.5,-56.5 139.5,-75.5 183.5,-75.5 183.5,-56.5 139.5,-56.5"/>
<text text-anchor="middle" x="161.5" y="-63.5" font-family="Helvetica,sans-Serif" font-size="10.00">string</text>
</a>
</g>
</g>
<!-- Node1&#45;&gt;Node4 -->
<g id="edge3" class="edge">
<title>Node1&#45;&gt;Node4</title>
<path fill="none" stroke="midnightblue" d="M239.83,-168.37C225.74,-150.14 192.74,-107.43 174.39,-83.68"/>
<polygon fill="midnightblue" stroke="midnightblue" points="177.02,-81.36 168.14,-75.59 171.48,-85.64 177.02,-81.36"/>
</g>
<!-- Node5 -->
<g id="node5" class="node">
<title>Node5</title>
<g id="a_node5"><a xlink:title=" ">
<polygon fill="white" stroke="#bfbfbf" points="479,-56.5 479,-75.5 526,-75.5 526,-56.5 479,-56.5"/>
<text text-anchor="middle" x="502.5" y="-63.5" font-family="Helvetica,sans-Serif" font-size="10.00">vector</text>
</a>
</g>
</g>
<!-- Node1&#45;&gt;Node5 -->
<g id="edge4" class="edge">
<title>Node1&#45;&gt;Node5</title>
<path fill="none" stroke="midnightblue" d="M286.76,-169.72C320.37,-162.75 368.98,-150.51 408.5,-132 437.07,-118.62 466.41,-96.79 484.54,-82.17"/>
<polygon fill="midnightblue" stroke="midnightblue" points="486.99,-84.69 492.49,-75.63 482.54,-79.28 486.99,-84.69"/>
</g>
<!-- Node6 -->
<g id="node6" class="node">
<title>Node6</title>
<g id="a_node6"><a xlink:title=" ">
<polygon fill="white" stroke="#bfbfbf" points="434.5,-0.5 434.5,-19.5 532.5,-19.5 532.5,-0.5 434.5,-0.5"/>
<text text-anchor="middle" x="483.5" y="-7.5" font-family="Helvetica,sans-Serif" font-size="10.00">bindings/imgui.h</text>
</a>
</g>
</g>
<!-- Node1&#45;&gt;Node6 -->
<g id="edge5" class="edge">
<title>Node1&#45;&gt;Node6</title>
<path fill="none" stroke="midnightblue" d="M286.57,-177.74C353.55,-176.46 485.8,-162.53 535.5,-76 546.39,-57.05 526.26,-37.8 507.96,-25.22"/>
<polygon fill="midnightblue" stroke="midnightblue" points="509.57,-22.1 499.27,-19.61 505.78,-27.98 509.57,-22.1"/>
</g>
<!-- Node7 -->
<g id="node7" class="node">
<title>Node7</title>
<g id="a_node7"><a xlink:href="ui_8h.html" target="_top" xlink:title=" ">
<polygon fill="white" stroke="black" points="275,-112.5 275,-131.5 400,-131.5 400,-112.5 275,-112.5"/>
<text text-anchor="middle" x="337.5" y="-119.5" font-family="Helvetica,sans-Serif" font-size="10.00">src/user_interface/ui.h</text>
</a>
</g>
</g>
<!-- Node1&#45;&gt;Node7 -->
<g id="edge6" class="edge">
<title>Node1&#45;&gt;Node7</title>
<path fill="none" stroke="midnightblue" d="M261.12,-168.32C275.45,-159.82 297.51,-146.73 314.25,-136.8"/>
<polygon fill="midnightblue" stroke="midnightblue" points="316.1,-139.77 322.92,-131.65 312.53,-133.75 316.1,-139.77"/>
</g>
<!-- Node8 -->
<g id="node8" class="node">
<title>Node8</title>
<g id="a_node8"><a xlink:href="callback_8h.html" target="_top" xlink:title=" ">
<polygon fill="white" stroke="black" points="202,-56.5 202,-75.5 309,-75.5 309,-56.5 202,-56.5"/>
<text text-anchor="middle" x="255.5" y="-63.5" font-family="Helvetica,sans-Serif" font-size="10.00">src/utils/callback.h</text>
</a>
</g>
</g>
<!-- Node1&#45;&gt;Node8 -->
<g id="edge15" class="edge">
<title>Node1&#45;&gt;Node8</title>
<path fill="none" stroke="midnightblue" d="M247.21,-168.37C248.66,-150.62 252.01,-109.67 253.98,-85.6"/>
<polygon fill="midnightblue" stroke="midnightblue" points="257.47,-85.84 254.8,-75.59 250.49,-85.27 257.47,-85.84"/>
</g>
<!-- Node7&#45;&gt;Node3 -->
<g id="edge7" class="edge">
<title>Node7&#45;&gt;Node3</title>
<path fill="none" stroke="midnightblue" d="M335.71,-112.27C332.89,-99.49 326.76,-75.13 317.5,-56 312.7,-46.09 305.89,-35.92 299.87,-27.76"/>
<polygon fill="midnightblue" stroke="midnightblue" points="302.63,-25.62 293.78,-19.8 297.07,-29.87 302.63,-25.62"/>
</g>
<!-- Node7&#45;&gt;Node4 -->
<g id="edge8" class="edge">
<title>Node7&#45;&gt;Node4</title>
<path fill="none" stroke="midnightblue" d="M309.61,-112.44C277.99,-102.74 226.53,-86.95 193.35,-76.77"/>
<polygon fill="midnightblue" stroke="midnightblue" points="194.27,-73.39 183.68,-73.81 192.22,-80.09 194.27,-73.39"/>
</g>
<!-- Node7&#45;&gt;Node5 -->
<g id="edge9" class="edge">
<title>Node7&#45;&gt;Node5</title>
<path fill="none" stroke="midnightblue" d="M363.64,-112.44C392.26,-103.08 438.21,-88.04 469.34,-77.85"/>
<polygon fill="midnightblue" stroke="midnightblue" points="470.47,-81.17 478.88,-74.73 468.29,-74.51 470.47,-81.17"/>
</g>
<!-- Node7&#45;&gt;Node8 -->
<g id="edge10" class="edge">
<title>Node7&#45;&gt;Node8</title>
<path fill="none" stroke="midnightblue" d="M324.33,-112.32C311.65,-103.98 292.27,-91.21 277.29,-81.35"/>
<polygon fill="midnightblue" stroke="midnightblue" points="278.92,-78.23 268.64,-75.65 275.07,-84.08 278.92,-78.23"/>
</g>
<!-- Node10 -->
<g id="node10" class="node">
<title>Node10</title>
<g id="a_node10"><a xlink:href="imgui_8h.html" target="_top" xlink:title=" ">
<polygon fill="white" stroke="black" points="366,-56.5 366,-75.5 461,-75.5 461,-56.5 366,-56.5"/>
<text text-anchor="middle" x="413.5" y="-63.5" font-family="Helvetica,sans-Serif" font-size="10.00">src/utils/imgui.h</text>
</a>
</g>
</g>
<!-- Node7&#45;&gt;Node10 -->
<g id="edge13" class="edge">
<title>Node7&#45;&gt;Node10</title>
<path fill="none" stroke="midnightblue" d="M349.71,-112.32C361.28,-104.11 378.88,-91.6 392.66,-81.81"/>
<polygon fill="midnightblue" stroke="midnightblue" points="394.94,-84.48 401.07,-75.83 390.89,-78.77 394.94,-84.48"/>
</g>
<!-- Node8&#45;&gt;Node3 -->
<g id="edge12" class="edge">
<title>Node8&#45;&gt;Node3</title>
<path fill="none" stroke="midnightblue" d="M260.62,-56.08C264.91,-48.61 271.16,-37.72 276.44,-28.52"/>
<polygon fill="midnightblue" stroke="midnightblue" points="279.53,-30.17 281.48,-19.75 273.46,-26.68 279.53,-30.17"/>
</g>
<!-- Node9 -->
<g id="node9" class="node">
<title>Node9</title>
<g id="a_node9"><a xlink:title=" ">
<polygon fill="white" stroke="#bfbfbf" points="204,-0.5 204,-19.5 239,-19.5 239,-0.5 204,-0.5"/>
<text text-anchor="middle" x="221.5" y="-7.5" font-family="Helvetica,sans-Serif" font-size="10.00">any</text>
</a>
</g>
</g>
<!-- Node8&#45;&gt;Node9 -->
<g id="edge11" class="edge">
<title>Node8&#45;&gt;Node9</title>
<path fill="none" stroke="midnightblue" d="M249.89,-56.08C245.13,-48.53 238.18,-37.49 232.35,-28.23"/>
<polygon fill="midnightblue" stroke="midnightblue" points="235.3,-26.35 227.01,-19.75 229.38,-30.08 235.3,-26.35"/>
</g>
<!-- Node10&#45;&gt;Node6 -->
<g id="edge14" class="edge">
<title>Node10&#45;&gt;Node6</title>
<path fill="none" stroke="midnightblue" d="M424.75,-56.32C435.3,-48.18 451.3,-35.84 463.94,-26.09"/>
<polygon fill="midnightblue" stroke="midnightblue" points="466.27,-28.71 472.05,-19.83 461.99,-23.17 466.27,-28.71"/>
</g>
</g>
</svg>
