<?xml version="1.0" encoding="UTF-8" standalone="no"?>
<!DOCTYPE svg PUBLIC "-//W3C//DTD SVG 1.1//EN"
 "http://www.w3.org/Graphics/SVG/1.1/DTD/svg11.dtd">
<!-- Generated by graphviz version 2.43.0 (0)
 -->
<!-- Title: src/window.h Pages: 1 -->
<svg width="354pt" height="140pt"
 viewBox="0.00 0.00 354.00 140.00" xmlns="http://www.w3.org/2000/svg" xmlns:xlink="http://www.w3.org/1999/xlink">
<g id="graph0" class="graph" transform="scale(1 1) rotate(0) translate(4 136)">
<title>src/window.h</title>
<polygon fill="white" stroke="transparent" points="-4,4 -4,-136 350,-136 350,4 -4,4"/>
<!-- Node1 -->
<g id="node1" class="node">
<title>Node1</title>
<g id="a_node1"><a xlink:title=" ">
<polygon fill="#bfbfbf" stroke="black" points="109.5,-112.5 109.5,-131.5 189.5,-131.5 189.5,-112.5 109.5,-112.5"/>
<text text-anchor="middle" x="149.5" y="-119.5" font-family="Helvetica,sans-Serif" font-size="10.00">src/window.h</text>
</a>
</g>
</g>
<!-- Node2 -->
<g id="node2" class="node">
<title>Node2</title>
<g id="a_node2"><a xlink:href="app_2main_8cpp.html" target="_top" xlink:title=" ">
<polygon fill="white" stroke="black" points="0,-56.5 0,-75.5 83,-75.5 83,-56.5 0,-56.5"/>
<text text-anchor="middle" x="41.5" y="-63.5" font-family="Helvetica,sans-Serif" font-size="10.00">app/main.cpp</text>
</a>
</g>
</g>
<!-- Node1&#45;&gt;Node2 -->
<g id="edge1" class="edge">
<title>Node1&#45;&gt;Node2</title>
<path fill="none" stroke="midnightblue" d="M122.95,-107.73C102.95,-97.73 76.11,-84.31 58.81,-75.65"/>
<polygon fill="midnightblue" stroke="midnightblue" points="121.64,-110.98 132.15,-112.32 124.77,-104.72 121.64,-110.98"/>
</g>
<!-- Node3 -->
<g id="node3" class="node">
<title>Node3</title>
<g id="a_node3"><a xlink:href="application_8cpp.html" target="_top" xlink:title=" ">
<polygon fill="white" stroke="black" points="95.5,-0.5 95.5,-19.5 203.5,-19.5 203.5,-0.5 95.5,-0.5"/>
<text text-anchor="middle" x="149.5" y="-7.5" font-family="Helvetica,sans-Serif" font-size="10.00">src/application.cpp</text>
</a>
</g>
</g>
<!-- Node1&#45;&gt;Node3 -->
<g id="edge2" class="edge">
<title>Node1&#45;&gt;Node3</title>
<path fill="none" stroke="midnightblue" d="M140.56,-103.2C136.98,-95.11 133.29,-85.3 131.5,-76 127.56,-55.53 137.8,-32.1 144.41,-19.73"/>
<polygon fill="midnightblue" stroke="midnightblue" points="137.44,-104.79 144.88,-112.34 143.77,-101.8 137.44,-104.79"/>
</g>
<!-- Node4 -->
<g id="node4" class="node">
<title>Node4</title>
<g id="a_node4"><a xlink:href="application_8h.html" target="_top" xlink:title=" ">
<polygon fill="white" stroke="black" points="140,-56.5 140,-75.5 237,-75.5 237,-56.5 140,-56.5"/>
<text text-anchor="middle" x="188.5" y="-63.5" font-family="Helvetica,sans-Serif" font-size="10.00">src/application.h</text>
</a>
</g>
</g>
<!-- Node1&#45;&gt;Node4 -->
<g id="edge3" class="edge">
<title>Node1&#45;&gt;Node4</title>
<path fill="none" stroke="midnightblue" d="M161.88,-103.86C168.64,-94.5 176.71,-83.33 182.18,-75.75"/>
<polygon fill="midnightblue" stroke="midnightblue" points="158.96,-101.93 155.94,-112.08 164.63,-106.03 158.96,-101.93"/>
</g>
<!-- Node5 -->
<g id="node5" class="node">
<title>Node5</title>
<g id="a_node5"><a xlink:href="window_8cpp.html" target="_top" xlink:title=" ">
<polygon fill="white" stroke="black" points="255,-56.5 255,-75.5 346,-75.5 346,-56.5 255,-56.5"/>
<text text-anchor="middle" x="300.5" y="-63.5" font-family="Helvetica,sans-Serif" font-size="10.00">src/window.cpp</text>
</a>
</g>
</g>
<!-- Node1&#45;&gt;Node5 -->
<g id="edge5" class="edge">
<title>Node1&#45;&gt;Node5</title>
<path fill="none" stroke="midnightblue" d="M182.95,-109.04C211.36,-98.88 251.44,-84.55 276.69,-75.52"/>
<polygon fill="midnightblue" stroke="midnightblue" points="181.66,-105.78 173.43,-112.44 184.02,-112.37 181.66,-105.78"/>
</g>
<!-- Node4&#45;&gt;Node3 -->
<g id="edge4" class="edge">
<title>Node4&#45;&gt;Node3</title>
<path fill="none" stroke="midnightblue" d="M176.12,-47.86C169.36,-38.5 161.29,-27.33 155.82,-19.75"/>
<polygon fill="midnightblue" stroke="midnightblue" points="173.37,-50.03 182.06,-56.08 179.04,-45.93 173.37,-50.03"/>
</g>
</g>
</svg>
