<?xml version="1.0" encoding="UTF-8" standalone="no"?>
<!DOCTYPE svg PUBLIC "-//W3C//DTD SVG 1.1//EN"
 "http://www.w3.org/Graphics/SVG/1.1/DTD/svg11.dtd">
<!-- Generated by graphviz version 2.43.0 (0)
 -->
<!-- Title: src/window.h Pages: 1 -->
<svg width="658pt" height="196pt"
 viewBox="0.00 0.00 657.92 196.00" xmlns="http://www.w3.org/2000/svg" xmlns:xlink="http://www.w3.org/1999/xlink">
<g id="graph0" class="graph" transform="scale(1 1) rotate(0) translate(4 192)">
<title>src/window.h</title>
<polygon fill="white" stroke="transparent" points="-4,4 -4,-192 653.92,-192 653.92,4 -4,4"/>
<!-- Node1 -->
<g id="node1" class="node">
<title>Node1</title>
<g id="a_node1"><a xlink:title=" ">
<polygon fill="#bfbfbf" stroke="black" points="253.5,-168.5 253.5,-187.5 333.5,-187.5 333.5,-168.5 253.5,-168.5"/>
<text text-anchor="middle" x="293.5" y="-175.5" font-family="Helvetica,sans-Serif" font-size="10.00">src/window.h</text>
</a>
</g>
</g>
<!-- Node2 -->
<g id="node2" class="node">
<title>Node2</title>
<g id="a_node2"><a xlink:title=" ">
<polygon fill="white" stroke="#bfbfbf" points="0,-112.5 0,-131.5 83,-131.5 83,-112.5 0,-112.5"/>
<text text-anchor="middle" x="41.5" y="-119.5" font-family="Helvetica,sans-Serif" font-size="10.00">GLFW/glfw3.h</text>
</a>
</g>
</g>
<!-- Node1&#45;&gt;Node2 -->
<g id="edge1" class="edge">
<title>Node1&#45;&gt;Node2</title>
<path fill="none" stroke="midnightblue" d="M253.57,-168.44C209.61,-159.02 138.87,-143.87 91.32,-133.68"/>
<polygon fill="midnightblue" stroke="midnightblue" points="91.75,-130.19 81.24,-131.52 90.29,-137.03 91.75,-130.19"/>
</g>
<!-- Node3 -->
<g id="node3" class="node">
<title>Node3</title>
<g id="a_node3"><a xlink:title=" ">
<polygon fill="white" stroke="#bfbfbf" points="182.5,-0.5 182.5,-19.5 240.5,-19.5 240.5,-0.5 182.5,-0.5"/>
<text text-anchor="middle" x="211.5" y="-7.5" font-family="Helvetica,sans-Serif" font-size="10.00">memory</text>
</a>
</g>
</g>
<!-- Node1&#45;&gt;Node3 -->
<g id="edge2" class="edge">
<title>Node1&#45;&gt;Node3</title>
<path fill="none" stroke="midnightblue" d="M260.49,-168.41C220.25,-155.85 154.63,-128.11 130.5,-76 119.37,-51.96 147.71,-34.1 173.87,-23.25"/>
<polygon fill="midnightblue" stroke="midnightblue" points="175.28,-26.45 183.33,-19.57 172.74,-19.93 175.28,-26.45"/>
</g>
<!-- Node4 -->
<g id="node4" class="node">
<title>Node4</title>
<g id="a_node4"><a xlink:title=" ">
<polygon fill="white" stroke="#bfbfbf" points="139.5,-56.5 139.5,-75.5 183.5,-75.5 183.5,-56.5 139.5,-56.5"/>
<text text-anchor="middle" x="161.5" y="-63.5" font-family="Helvetica,sans-Serif" font-size="10.00">string</text>
</a>
</g>
</g>
<!-- Node1&#45;&gt;Node4 -->
<g id="edge3" class="edge">
<title>Node1&#45;&gt;Node4</title>
<path fill="none" stroke="midnightblue" d="M277.23,-168.48C262.07,-160.17 239.21,-146.67 221.5,-132 203.68,-117.23 186.04,-97.32 174.55,-83.44"/>
<polygon fill="midnightblue" stroke="midnightblue" points="177.27,-81.24 168.25,-75.68 171.84,-85.65 177.27,-81.24"/>
</g>
<!-- Node5 -->
<g id="node5" class="node">
<title>Node5</title>
<g id="a_node5"><a xlink:title=" ">
<polygon fill="white" stroke="#bfbfbf" points="589,-56.5 589,-75.5 636,-75.5 636,-56.5 589,-56.5"/>
<text text-anchor="middle" x="612.5" y="-63.5" font-family="Helvetica,sans-Serif" font-size="10.00">vector</text>
</a>
</g>
</g>
<!-- Node1&#45;&gt;Node5 -->
<g id="edge4" class="edge">
<title>Node1&#45;&gt;Node5</title>
<path fill="none" stroke="midnightblue" d="M318.27,-168.46C375.1,-148.86 514.92,-100.65 579.19,-78.48"/>
<polygon fill="midnightblue" stroke="midnightblue" points="580.52,-81.73 588.84,-75.16 578.24,-75.11 580.52,-81.73"/>
</g>
<!-- Node6 -->
<g id="node6" class="node">
<title>Node6</title>
<g id="a_node6"><a xlink:title=" ">
<polygon fill="white" stroke="#bfbfbf" points="544.5,-0.5 544.5,-19.5 642.5,-19.5 642.5,-0.5 544.5,-0.5"/>
<text text-anchor="middle" x="593.5" y="-7.5" font-family="Helvetica,sans-Serif" font-size="10.00">bindings/imgui.h</text>
</a>
</g>
</g>
<!-- Node1&#45;&gt;Node6 -->
<g id="edge5" class="edge">
<title>Node1&#45;&gt;Node6</title>
<path fill="none" stroke="midnightblue" d="M333.78,-171.61C418.06,-159.41 608.27,-126.75 645.5,-76 658.7,-58.01 637.07,-38.09 617.82,-25.1"/>
<polygon fill="midnightblue" stroke="midnightblue" points="619.59,-22.07 609.28,-19.65 615.83,-27.98 619.59,-22.07"/>
</g>
<!-- Node7 -->
<g id="node7" class="node">
<title>Node7</title>
<g id="a_node7"><a xlink:href="ui_8h.html" target="_top" xlink:title=" ">
<polygon fill="white" stroke="black" points="231,-112.5 231,-131.5 356,-131.5 356,-112.5 231,-112.5"/>
<text text-anchor="middle" x="293.5" y="-119.5" font-family="Helvetica,sans-Serif" font-size="10.00">src/user_interface/ui.h</text>
</a>
</g>
</g>
<!-- Node1&#45;&gt;Node7 -->
<g id="edge6" class="edge">
<title>Node1&#45;&gt;Node7</title>
<path fill="none" stroke="midnightblue" d="M293.5,-168.08C293.5,-161.01 293.5,-150.86 293.5,-141.99"/>
<polygon fill="midnightblue" stroke="midnightblue" points="297,-141.75 293.5,-131.75 290,-141.75 297,-141.75"/>
</g>
<!-- Node9 -->
<g id="node9" class="node">
<title>Node9</title>
<g id="a_node9"><a xlink:href="callback_8h.html" target="_top" xlink:title=" ">
<polygon fill="white" stroke="black" points="351,-56.5 351,-75.5 458,-75.5 458,-56.5 351,-56.5"/>
<text text-anchor="middle" x="404.5" y="-63.5" font-family="Helvetica,sans-Serif" font-size="10.00">src/utils/callback.h</text>
</a>
</g>
</g>
<!-- Node1&#45;&gt;Node9 -->
<g id="edge16" class="edge">
<title>Node1&#45;&gt;Node9</title>
<path fill="none" stroke="midnightblue" d="M311.72,-168.42C327.1,-160.52 349.02,-147.68 364.5,-132 378.13,-118.19 389.26,-98.91 396.28,-84.93"/>
<polygon fill="midnightblue" stroke="midnightblue" points="399.47,-86.38 400.65,-75.85 393.16,-83.35 399.47,-86.38"/>
</g>
<!-- Node7&#45;&gt;Node3 -->
<g id="edge7" class="edge">
<title>Node7&#45;&gt;Node3</title>
<path fill="none" stroke="midnightblue" d="M275.47,-112.39C261.27,-104.73 242.02,-92.22 230.5,-76 220.82,-62.37 216.03,-43.83 213.69,-30.04"/>
<polygon fill="midnightblue" stroke="midnightblue" points="217.1,-29.19 212.24,-19.78 210.17,-30.17 217.1,-29.19"/>
</g>
<!-- Node7&#45;&gt;Node4 -->
<g id="edge8" class="edge">
<title>Node7&#45;&gt;Node4</title>
<path fill="none" stroke="midnightblue" d="M272.58,-112.44C250.76,-103.52 216.35,-89.44 191.61,-79.32"/>
<polygon fill="midnightblue" stroke="midnightblue" points="192.9,-76.06 182.32,-75.52 190.25,-82.54 192.9,-76.06"/>
</g>
<!-- Node7&#45;&gt;Node5 -->
<g id="edge10" class="edge">
<title>Node7&#45;&gt;Node5</title>
<path fill="none" stroke="midnightblue" d="M356.04,-113.37C412.17,-106.03 496.94,-93.73 578.84,-76.17"/>
<polygon fill="midnightblue" stroke="midnightblue" points="579.78,-79.54 588.81,-74 578.3,-72.7 579.78,-79.54"/>
</g>
<!-- Node8 -->
<g id="node8" class="node">
<title>Node8</title>
<g id="a_node8"><a xlink:title=" ">
<polygon fill="white" stroke="#bfbfbf" points="240,-56.5 240,-75.5 333,-75.5 333,-56.5 240,-56.5"/>
<text text-anchor="middle" x="286.5" y="-63.5" font-family="Helvetica,sans-Serif" font-size="10.00">unordered_map</text>
</a>
</g>
</g>
<!-- Node7&#45;&gt;Node8 -->
<g id="edge9" class="edge">
<title>Node7&#45;&gt;Node8</title>
<path fill="none" stroke="midnightblue" d="M292.34,-112.08C291.42,-104.93 290.08,-94.64 288.92,-85.69"/>
<polygon fill="midnightblue" stroke="midnightblue" points="292.39,-85.22 287.63,-75.75 285.45,-86.12 292.39,-85.22"/>
</g>
<!-- Node7&#45;&gt;Node9 -->
<g id="edge11" class="edge">
<title>Node7&#45;&gt;Node9</title>
<path fill="none" stroke="midnightblue" d="M311.33,-112.32C329.22,-103.62 356.98,-90.12 377.55,-80.11"/>
<polygon fill="midnightblue" stroke="midnightblue" points="379.25,-83.18 386.71,-75.65 376.19,-76.88 379.25,-83.18"/>
</g>
<!-- Node11 -->
<g id="node11" class="node">
<title>Node11</title>
<g id="a_node11"><a xlink:href="imgui_8h.html" target="_top" xlink:title=" ">
<polygon fill="white" stroke="black" points="476,-56.5 476,-75.5 571,-75.5 571,-56.5 476,-56.5"/>
<text text-anchor="middle" x="523.5" y="-63.5" font-family="Helvetica,sans-Serif" font-size="10.00">src/utils/imgui.h</text>
</a>
</g>
</g>
<!-- Node7&#45;&gt;Node11 -->
<g id="edge14" class="edge">
<title>Node7&#45;&gt;Node11</title>
<path fill="none" stroke="midnightblue" d="M329.94,-112.44C369.9,-103.06 434.09,-87.99 477.48,-77.8"/>
<polygon fill="midnightblue" stroke="midnightblue" points="478.29,-81.21 487.23,-75.52 476.69,-74.39 478.29,-81.21"/>
</g>
<!-- Node9&#45;&gt;Node3 -->
<g id="edge13" class="edge">
<title>Node9&#45;&gt;Node3</title>
<path fill="none" stroke="midnightblue" d="M373.92,-56.44C340.5,-47.09 286.87,-32.09 250.46,-21.9"/>
<polygon fill="midnightblue" stroke="midnightblue" points="251.25,-18.49 240.67,-19.16 249.36,-25.23 251.25,-18.49"/>
</g>
<!-- Node10 -->
<g id="node10" class="node">
<title>Node10</title>
<g id="a_node10"><a xlink:title=" ">
<polygon fill="white" stroke="#bfbfbf" points="387,-0.5 387,-19.5 422,-19.5 422,-0.5 387,-0.5"/>
<text text-anchor="middle" x="404.5" y="-7.5" font-family="Helvetica,sans-Serif" font-size="10.00">any</text>
</a>
</g>
</g>
<!-- Node9&#45;&gt;Node10 -->
<g id="edge12" class="edge">
<title>Node9&#45;&gt;Node10</title>
<path fill="none" stroke="midnightblue" d="M404.5,-56.08C404.5,-49.01 404.5,-38.86 404.5,-29.99"/>
<polygon fill="midnightblue" stroke="midnightblue" points="408,-29.75 404.5,-19.75 401,-29.75 408,-29.75"/>
</g>
<!-- Node11&#45;&gt;Node6 -->
<g id="edge15" class="edge">
<title>Node11&#45;&gt;Node6</title>
<path fill="none" stroke="midnightblue" d="M534.75,-56.32C545.3,-48.18 561.3,-35.84 573.94,-26.09"/>
<polygon fill="midnightblue" stroke="midnightblue" points="576.27,-28.71 582.05,-19.83 571.99,-23.17 576.27,-28.71"/>
</g>
</g>
</svg>
